<svg xmlns="http://www.w3.org/2000/svg" width="78" height="120" viewBox="0 0 78 120" fill="none"><path d="M60.6035 2.43958L57.9917 1.03087C56.4662 0.0609358 54.4553 -0.123807 52.6525 0.89231L4.57624 28.6277C1.89507 30.175 0.230892 33.0386 0.230892 36.1562V74.2837C0.230892 76.4545 1.52526 78.1634 3.23566 78.9486L5.73192 80.3111L5.54702 79.4105C6.35599 79.3874 7.16496 79.1565 7.92771 78.7177L56.0039 50.9823C58.6851 49.435 60.3493 46.5714 60.3493 43.4538V5.34937C60.3493 4.70275 60.2337 4.10232 60.0257 3.54807L60.6035 2.43958Z" fill="#001E1D"></path><path d="M6.05568 80.7738L5.82454 79.6422C6.6104 79.5729 7.35003 79.342 8.04343 78.9494L56.1196 51.214C58.8701 49.6206 60.5805 46.6646 60.5805 43.5008V5.35021C60.5805 4.72669 60.4881 4.12626 60.2801 3.54892L60.9272 2.34805L58.1074 0.846968C56.4201 -0.23843 54.2937 -0.284617 52.537 0.7315L4.46083 28.4669C1.71032 30.0603 -7.62939e-05 33.0163 -7.62939e-05 36.1801V74.3076C-7.62939e-05 76.4091 1.17871 78.2797 3.09714 79.1573L3.12025 79.1804L6.05568 80.7738ZM60.2801 2.5328L59.7716 3.52582L59.8178 3.6182C60.0258 4.17244 60.1183 4.74978 60.1183 5.35021V43.4777C60.1183 46.4799 58.5003 49.2973 55.8885 50.7984L7.8123 78.5337C7.09578 78.9494 6.33303 79.1573 5.52406 79.2034H5.2467L5.38538 79.8732L3.83677 79.0187L3.90611 78.9956L3.32827 78.7185C1.54853 77.9102 0.462193 76.2013 0.462193 74.2614V36.1801C0.462193 33.178 2.08014 30.3605 4.69197 28.8595L52.7682 1.12409C54.363 0.20035 56.3045 0.246538 57.8763 1.23956L60.2801 2.5328Z" fill="#001E1D"></path><path d="M10.8177 80.3125L58.8939 52.5771C61.5751 51.0299 63.2393 48.1663 63.2393 45.0486V6.92112C63.2393 2.97212 58.9633 0.501109 55.5424 2.48716L7.46624 30.2226C4.78506 31.7698 3.12089 34.6334 3.12089 37.7511V75.8786C3.144 79.8276 7.3969 82.2986 10.8177 80.3125Z" fill="#F2E8FB"></path><path d="M7.48952 30.2203L55.5657 2.48488C58.478 0.799047 62.0144 2.34631 63.0083 5.30229L4.97015 38.788C4.3692 39.1344 3.76825 39.3653 3.14418 39.5039V37.7718C3.14418 34.6542 4.78524 31.7906 7.48952 30.2203Z" fill="#EBCDF5"></path><path d="M11.21 35.0013L11.2793 28.0732L7.48868 30.2209C4.8075 31.7682 3.14333 34.6318 3.14333 37.7494V39.5738L11.21 35.0013Z" fill="#CDA2DB"></path><path d="M8.25146 81.2346C9.176 81.2346 10.1005 81.0036 10.9326 80.5187L59.0088 52.7833C61.7593 51.1898 63.4697 48.2338 63.4697 45.07V6.9425C63.4697 5.00264 62.4758 3.27062 60.7886 2.30069C59.1013 1.33076 57.1135 1.33076 55.4262 2.30069L7.35002 30.0361C4.59951 31.6295 2.88911 34.5855 2.88911 37.7493V75.8769C2.88911 77.8167 3.883 79.5487 5.57028 80.5187C6.42548 81.0036 7.35003 81.2346 8.25146 81.2346ZM10.7015 80.1261C9.17599 81.0036 7.32691 81.0036 5.80142 80.1261C4.27592 79.2485 3.35138 77.6551 3.35138 75.8769V37.7493C3.35138 34.7472 4.96933 31.9298 7.58116 30.4287L55.6573 2.69328C57.1828 1.81573 59.0319 1.81573 60.5574 2.69328C62.0829 3.57084 63.0075 5.1643 63.0075 6.9425V45.07C63.0075 48.0722 61.3895 50.8896 58.7777 52.3907L10.7015 80.1261Z" fill="#001E1D"></path><path d="M62.8558 4.92912L63.0869 5.3291L3.25808 39.8425L3.02694 39.4425L62.8558 4.92912Z" fill="#001E1D"></path><path d="M6.65342 32.6911L8.97559 34.0303L8.7445 34.4303L6.42233 33.0911L6.65342 32.6911Z" fill="#001E1D"></path><path d="M8.64655 31.4038L9.04688 31.6348L6.7124 35.6746L6.31208 35.4436L8.64655 31.4038Z" fill="#001E1D"></path><path d="M11.0299 28.077L11.4922 28.0811L11.4307 35.0091L10.9684 35.0051L11.0299 28.077Z" fill="#001E1D"></path><path d="M67.7988 14.9513L65.187 13.5426C63.6615 12.5727 61.6506 12.3879 59.8478 13.404L11.7716 41.1394C9.09038 42.6867 7.4262 45.5503 7.4262 48.6679V86.7954C7.4262 88.9662 8.72057 90.6752 10.431 91.4603L12.9272 92.8229L12.7423 91.9222C13.5513 91.8991 14.3603 91.6682 15.123 91.2294L63.1992 63.494C65.8804 61.9467 67.5446 59.0831 67.5446 55.9655V17.8611C67.5446 17.2145 67.429 16.614 67.221 16.0598L67.7988 14.9513Z" fill="#001E1D"></path><path d="M13.2505 93.2855L13.0194 92.1539C13.8052 92.0847 14.5449 91.8537 15.2383 91.4611L63.3145 63.7258C66.065 62.1323 67.7754 59.1763 67.7754 56.0125V17.8619C67.7754 17.2384 67.6829 16.638 67.4749 16.0606L68.1221 14.8598L65.3022 13.3587C63.6149 12.2733 61.4885 12.2271 59.7319 13.2432L11.6557 40.9786C8.90515 42.5721 7.19475 45.528 7.19475 48.6918V86.8193C7.19475 88.9208 8.37354 90.7914 10.292 91.669L10.3151 91.6921L13.2505 93.2855ZM67.4749 15.0445L66.9664 16.0375L67.0126 16.1299C67.2206 16.6842 67.3131 17.2615 67.3131 17.8619V55.9894C67.3131 58.9916 65.6951 61.809 63.0833 63.3101L15.0071 91.0455C14.2906 91.4611 13.5279 91.669 12.7189 91.7152H12.4415L12.5802 92.3849L11.0316 91.5304L11.1009 91.5073L10.5231 91.2302C8.74335 90.4219 7.65702 88.713 7.65702 86.7731V48.6918C7.65702 45.6897 9.27496 42.8723 11.8868 41.3712L59.963 13.6358C61.5578 12.7121 63.4994 12.7583 65.0711 13.7513L67.4749 15.0445Z" fill="#001E1D"></path><path d="M18.0125 92.8243L66.0887 65.0889C68.7699 63.5416 70.4341 60.678 70.4341 57.5604V19.4328C70.4341 15.4838 66.1581 13.0128 62.7373 14.9989L14.6611 42.7343C11.9799 44.2815 10.3157 47.1451 10.3157 50.2628V88.3903C10.3388 92.3393 14.5917 94.8103 18.0125 92.8243Z" fill="#F2E8FB"></path><path d="M14.6843 42.7329L62.7606 14.9976C65.6729 13.3117 69.2092 14.859 70.2031 17.815L12.165 51.3007C11.564 51.6471 10.9631 51.878 10.339 52.0166V50.2845C10.339 47.1669 11.9801 44.3033 14.6843 42.7329Z" fill="#8B75F3"></path><path d="M18.4053 47.514L18.4746 40.5859L14.684 42.7336C12.0028 44.2809 10.3386 47.1445 10.3386 50.2621V52.0865L18.4053 47.514Z" fill="#8B75F3"></path><path d="M15.4468 93.7463C16.3713 93.7463 17.2958 93.5154 18.1279 93.0304L66.2041 65.295C68.9546 63.7015 70.665 60.7456 70.665 57.5817V19.4542C70.665 17.5144 69.6712 15.7823 67.9839 14.8124C66.2966 13.8425 64.3088 13.8425 62.6215 14.8124L14.5453 42.5478C11.7948 44.1413 10.0844 47.0972 10.0844 50.2611V88.3886C10.0844 90.3284 11.0783 92.0605 12.7656 93.0304C13.6208 93.5154 14.5453 93.7463 15.4468 93.7463ZM17.8968 92.6378C16.3713 93.5154 14.5222 93.5154 12.9967 92.6378C11.4712 91.7602 10.5467 90.1668 10.5467 88.3886V50.2611C10.5467 47.2589 12.1646 44.4415 14.7765 42.9404L62.8527 15.205C64.3782 14.3274 66.2272 14.3274 67.7527 15.205C69.2782 16.0826 70.2028 17.676 70.2028 19.4542V57.5817C70.2028 60.5839 68.5848 63.4013 65.973 64.9024L17.8968 92.6378Z" fill="#001E1D"></path><path d="M70.0511 17.4408L70.2822 17.8408L10.4534 52.3542L10.2223 51.9542L70.0511 17.4408Z" fill="#001E1D"></path><path d="M13.8478 45.2028L16.1699 46.542L15.9388 46.942L13.6167 45.6029L13.8478 45.2028Z" fill="#001E1D"></path><path d="M15.8419 43.9155L16.2422 44.1465L13.9077 48.1863L13.5074 47.9554L15.8419 43.9155Z" fill="#001E1D"></path><path d="M18.2252 40.5888L18.6875 40.5928L18.626 47.5208L18.1638 47.5168L18.2252 40.5888Z" fill="#001E1D"></path><path d="M74.4341 27.7921L71.8222 26.3834C70.2968 25.4135 68.2859 25.2287 66.483 26.2448L18.4068 53.9802C15.7256 55.5275 14.0615 58.3911 14.0615 61.5087V99.6363C14.0615 101.807 15.3558 103.516 17.0662 104.301L19.5625 105.664L19.3776 104.763C20.1866 104.74 20.9955 104.509 21.7583 104.07L69.8345 76.3348C72.5157 74.7876 74.1798 71.924 74.1798 68.8063V30.7019C74.1798 30.0553 74.0643 29.4549 73.8562 28.9006L74.4341 27.7921Z" fill="#001E1D"></path><path d="M19.8853 106.126L19.6541 104.995C20.44 104.925 21.1796 104.695 21.873 104.302L69.9492 76.5666C72.6997 74.9731 74.4101 72.0172 74.4101 68.8533V30.7028C74.4101 30.0792 74.3177 29.4788 74.1097 28.9015L74.7568 27.7006L71.937 26.1995C70.2497 25.1141 68.1232 25.0679 66.3666 26.084L18.2904 53.8194C15.5399 55.4129 13.8295 58.3688 13.8295 61.5327V99.6601C13.8295 101.762 15.0083 103.632 16.9267 104.51L16.9498 104.533L19.8853 106.126ZM74.1097 27.8853L73.6012 28.8784L73.6474 28.9707C73.8554 29.525 73.9479 30.1023 73.9479 30.7028V68.8302C73.9479 71.8324 72.3299 74.6498 69.7181 76.1509L21.6419 103.886C20.9254 104.302 20.1626 104.51 19.3536 104.556H19.0763L19.215 105.226L17.6664 104.371L17.7357 104.348L17.1579 104.071C15.3781 103.263 14.2918 101.554 14.2918 99.614V61.5327C14.2918 58.5305 15.9097 55.7131 18.5216 54.212L66.5978 26.4766C68.1926 25.5529 70.1341 25.5991 71.7058 26.5921L74.1097 27.8853Z" fill="#001E1D"></path><path d="M24.6478 105.666L72.724 77.9307C75.4052 76.3834 77.0693 73.5198 77.0693 70.4022V32.2746C77.0693 28.3256 72.7933 25.8546 69.3725 27.8407L21.2963 55.5761C18.6151 57.1233 16.951 59.9869 16.951 63.1046V101.232C16.9741 105.181 21.227 107.652 24.6478 105.666Z" fill="#F2E8FB"></path><path d="M21.3191 55.5738L69.3953 27.8384C72.3076 26.1526 75.844 27.6998 76.8379 30.6558L18.7997 64.1415C18.1988 64.4879 17.5978 64.7188 16.9738 64.8574V63.1254C16.9738 60.0077 18.6148 57.1441 21.3191 55.5738Z" fill="#EBCDF5"></path><path d="M25.0405 60.3548L25.1099 53.4268L21.3192 55.5745C18.6381 57.1217 16.9739 59.9853 16.9739 63.103V64.9274L25.0405 60.3548Z" fill="#CDA2DB"></path><path d="M22.0815 106.587C23.0061 106.587 23.9306 106.356 24.7627 105.871L72.8389 78.1358C75.5894 76.5424 77.2998 73.5864 77.2998 70.4226V32.295C77.2998 30.3552 76.3059 28.6232 74.6186 27.6532C72.9313 26.6833 70.9436 26.6833 69.2563 27.6532L21.1801 55.3886C18.4296 56.9821 16.7192 59.9381 16.7192 63.1019V101.229C16.7192 103.169 17.7131 104.901 19.4004 105.871C20.2556 106.356 21.1801 106.587 22.0815 106.587ZM24.5316 105.479C23.0061 106.356 21.157 106.356 19.6315 105.479C18.106 104.601 17.1815 103.008 17.1815 101.229V63.1019C17.1815 60.0997 18.7994 57.2823 21.4112 55.7812L69.4874 28.0458C71.0129 27.1683 72.862 27.1683 74.3875 28.0458C75.913 28.9234 76.8375 30.5168 76.8375 32.295V70.4226C76.8375 73.4247 75.2196 76.2421 72.6078 77.7432L24.5316 105.479Z" fill="#001E1D"></path><path d="M76.6854 30.2817L76.9165 30.6816L17.0877 65.195L16.8565 64.795L76.6854 30.2817Z" fill="#001E1D"></path><path d="M20.4835 58.0437L22.8057 59.3828L22.5746 59.7828L20.2524 58.4437L20.4835 58.0437Z" fill="#001E1D"></path><path d="M22.4776 56.7554L22.8779 56.9863L20.5435 61.0261L20.1431 60.7952L22.4776 56.7554Z" fill="#001E1D"></path><path d="M24.86 53.4296L25.3223 53.4336L25.2608 60.3617L24.7985 60.3576L24.86 53.4296Z" fill="#001E1D"></path><path d="M53.5717 119.428L38.8007 112.59C38.7801 112.59 38.7801 112.574 38.8007 112.574L53.5717 105.736L68.3633 112.59L53.5717 119.428Z" fill="#151617"></path><path d="M53.5725 103.137L39.4419 96.5972V96.5807L53.5725 90.0576L67.7236 96.5972L53.5725 103.137Z" fill="#EDF2FB"></path><path d="M53.592 101.862L40.8456 95.9681V95.9515L53.592 90.0576L66.3384 95.9515L53.592 101.862Z" fill="#151617"></path><path d="M67.7236 96.5977V109.677L53.6138 116.216C53.5931 116.216 53.5725 116.216 53.5725 116.2V103.137L67.7236 96.5977Z" fill="#D7FF65"></path><path d="M53.6132 116.382C53.6546 116.382 53.6959 116.366 53.7372 116.349L67.9297 109.777V96.4987L67.7231 96.3994L67.6198 96.4491L53.386 103.038V116.2C53.386 116.267 53.4273 116.333 53.5099 116.366C53.5306 116.382 53.5719 116.382 53.6132 116.382ZM67.5165 109.594L53.7785 115.952V103.237L67.5165 96.8795V109.594Z" fill="#0B132B"></path><path d="M39.4416 96.6308V109.693L53.5721 116.233H53.5928V103.154L39.4829 96.6143C39.4623 96.5977 39.4416 96.6143 39.4416 96.6308Z" fill="#151617"></path><path d="M53.5717 116.416L53.7783 116.316V116.217V103.038L39.4619 96.416L39.3379 96.4657C39.2759 96.4988 39.2346 96.565 39.2346 96.6147V109.777L53.5717 116.416ZM53.3651 103.237V115.952L39.6478 109.595V96.8796L53.3651 103.237Z" fill="#0B132B"></path><path d="M53.5719 103.336L53.6752 103.286L67.9297 96.697V96.4983L67.8264 96.4486L53.5926 89.8594L53.4893 89.909L39.2555 96.4983V96.5976C39.2555 96.6639 39.2968 96.7135 39.3588 96.7466L53.5719 103.336ZM67.3099 96.5976L53.5719 102.955L39.8339 96.5976L53.5719 90.2402L67.3099 96.5976Z" fill="#0B132B"></path><path d="M53.5926 86.5166L39.4621 79.977V79.9605L53.5926 73.4209L67.7231 79.977L53.5926 86.5166Z" fill="#EDF2FB"></path><path d="M53.5924 85.0587L41.0526 79.2476V79.2311L53.5924 73.4199L66.1528 79.2311L53.5924 85.0587Z" fill="#151617"></path><path d="M67.7437 79.9766V93.0558L53.6338 99.5788C53.6131 99.5788 53.5925 99.5788 53.5925 99.5622V86.4996L67.7437 79.9766C67.723 79.9766 67.7437 79.9766 67.7437 79.9766Z" fill="#B5FDEA"></path><path d="M53.6141 99.7613C53.6554 99.7613 53.6967 99.7613 53.738 99.7448L67.9512 93.1555V79.8777L67.7446 79.7783L67.6413 79.828L53.4075 86.4173V99.5792C53.4075 99.6454 53.4488 99.7117 53.5314 99.7448C53.5314 99.7613 53.5727 99.7613 53.6141 99.7613ZM67.538 92.9734L53.8 99.3309V86.6159L67.538 80.2584V92.9734Z" fill="#0B132B"></path><path d="M39.4421 80.0097V93.0724L53.5726 99.612H53.5933V86.5328L39.4834 79.9932C39.4627 79.9766 39.4421 79.9932 39.4421 80.0097Z" fill="#151617"></path><path d="M53.5722 99.7935L53.7788 99.6942V99.5948V86.4163L39.4624 79.7939L39.3384 79.8436C39.2764 79.8767 39.2351 79.9429 39.2351 80.0092V93.1711L53.5722 99.7935ZM53.3863 86.615V99.33L39.6483 92.9725V80.2575L53.3863 86.615Z" fill="#0B132B"></path><path d="M53.5919 86.7149L53.6952 86.6652L67.9497 80.0759V79.8938L67.8464 79.8441L53.5919 73.2549L53.4886 73.3046L39.2548 79.8938V79.9931C39.2548 80.0594 39.2962 80.109 39.3581 80.1422L53.5919 86.7149ZM67.3299 79.9766L53.5919 86.3341L39.8539 79.9766L53.5919 73.6191L67.3299 79.9766Z" fill="#0B132B"></path><path d="M53.5925 69.8927L39.462 63.3531V63.3365L53.5925 56.8135L67.7437 63.3531L53.5925 69.8927Z" fill="#EDF2FB"></path><path d="M67.7437 63.3535V76.4327L53.6338 82.9557C53.6131 82.9557 53.5925 82.9557 53.5925 82.9392V69.8766L67.7437 63.3535Z" fill="#B5FDEA"></path><path d="M53.6141 83.1383C53.6554 83.1383 53.6967 83.1383 53.738 83.1217L67.9512 76.5325V63.2546L67.7446 63.1553L67.6413 63.2049L53.4075 69.7942V82.9562C53.4075 83.0224 53.4488 83.0886 53.5314 83.1217C53.5314 83.1383 53.5727 83.1383 53.6141 83.1383ZM67.538 76.3504L53.8 82.7078V69.9929L67.538 63.6354V76.3504Z" fill="#0B132B"></path><path d="M39.4421 63.3867V76.4493L53.5726 82.9889H53.5933V69.9097L39.4834 63.3701C39.4627 63.3536 39.4421 63.3701 39.4421 63.3867Z" fill="#151617"></path><path d="M53.5722 83.1714L53.7788 83.0721V82.9728V69.7942L39.4624 63.1719L39.3384 63.2215C39.2764 63.2547 39.2351 63.3209 39.2351 63.3705V76.5325L53.5722 83.1714ZM53.3863 69.9929V82.7079L39.6483 76.3504V63.6354L53.3863 69.9929Z" fill="#0B132B"></path><path d="M53.5919 70.0918L53.6952 70.0421L67.9497 63.4528V63.2707L67.8464 63.2211L53.5919 56.6152L39.2548 63.2376V63.3369C39.2548 63.4032 39.2962 63.4528 39.3581 63.4859L53.5919 70.0918ZM67.3299 63.3535L53.5919 69.711L39.8539 63.3535L53.5919 56.996L67.3299 63.3535Z" fill="#0B132B"></path><path d="M68.1297 80.6286C67.513 80.2563 66.6905 80.36 66.1927 80.8465L66.171 80.854C66.1216 80.916 66.0643 80.9583 66.0149 81.0203L64.5628 82.6456L64.7458 82.9199L62.1737 86.8208L59.636 85.4015C58.9976 85.0368 58.1691 85.1875 57.6792 85.6938C57.6575 85.7013 57.6653 85.7211 57.6436 85.7286L55.9782 87.5624L57.9493 89.357L61.4777 92.7741L63.1708 90.8857L68.5818 82.6995C69.0661 81.9926 68.8507 81.0772 68.1297 80.6286Z" fill="#151617"></path><path d="M61.6208 92.8879C61.5774 92.9029 61.534 92.9179 61.4827 92.9131C61.3585 92.9109 61.2481 92.8815 61.1654 92.7975L57.7648 89.5157L55.6657 87.585L57.6573 85.3909L57.6651 85.4107C58.2438 84.9412 59.0959 84.8498 59.7421 85.2344L62.0869 86.5406L64.4851 82.9465L64.2943 82.6523L65.8532 80.9224C65.9026 80.8604 65.952 80.7983 66.0231 80.7288L66.2365 80.5203L66.2443 80.5401C66.8465 80.1299 67.6197 80.0883 68.2659 80.4729C69.1053 80.9708 69.354 82.0324 68.8064 82.8287L63.3594 91.0511L61.7787 92.7885C61.7432 92.8232 61.6859 92.8655 61.6208 92.8879ZM56.2929 87.5487L58.1144 89.2152L61.4775 92.4649L63.0009 90.7698L68.4123 82.5821C68.8117 81.9719 68.6356 81.1553 67.9972 80.7905C67.4771 80.4749 66.7926 80.5535 66.3442 80.9781L66.3303 81.0053C66.2948 81.0401 66.2454 81.1021 66.2098 81.1369L64.8642 82.6582L65.0393 82.9128L62.2634 87.1096L59.5108 85.5841C58.969 85.276 58.2924 85.3744 57.8518 85.8188L57.838 85.846L56.2929 87.5487Z" fill="#0B132B"></path><path d="M61.4425 92.8618L56.2644 89.9217C55.5069 89.5012 55.2816 88.5594 55.713 87.8459C56.1662 87.1251 57.1304 86.8862 57.8879 87.3066L60.4286 88.748L64.1802 83.0512C64.6412 82.3503 65.635 82.124 66.3491 82.5592C67.0928 83.007 67.2885 83.9364 66.8354 84.6572L61.4425 92.8618Z" fill="#F2E8FB"></path><path d="M61.5221 92.9956C61.5004 93.003 61.5004 93.003 61.4787 93.0104C61.392 93.04 61.2816 93.0099 61.1928 92.9723L56.1417 90.1038C55.2877 89.6261 55.0149 88.5652 55.5231 87.7355C55.7811 87.3306 56.1812 87.0356 56.6523 86.9199C57.1235 86.8043 57.5928 86.8703 58.0089 87.1129L60.356 88.4384L63.9803 82.9241C64.2383 82.5192 64.6463 82.2441 65.1253 82.1484C65.6044 82.0527 66.0737 82.1187 66.4681 82.3686C67.3163 82.8936 67.5594 83.9419 67.0217 84.7592L61.6936 92.8692C61.666 92.9239 61.5872 92.9734 61.5221 92.9956ZM56.6368 87.3778C56.3333 87.4815 56.0909 87.6774 55.9235 87.9382C55.5335 88.5692 55.7469 89.3561 56.3859 89.7262L61.37 92.5498L66.6568 84.5217C67.0547 83.9107 66.8767 83.089 66.2377 82.7189C65.9477 82.5463 65.581 82.4906 65.2399 82.5618C64.8772 82.6404 64.5915 82.8511 64.3886 83.1467L60.4983 89.046L57.743 87.4979C57.4531 87.3253 57.0863 87.2696 56.7531 87.3607C56.7236 87.3482 56.6802 87.363 56.6368 87.3778Z" fill="#0B132B"></path><path d="M69.0833 64.4518C68.4666 64.0796 67.6441 64.1832 67.1463 64.6698L67.1246 64.6773C67.0752 64.7393 67.018 64.7815 66.9686 64.8435L65.5164 66.4689L65.6994 66.7432L63.1273 70.6441L60.5896 69.2248C59.9512 68.86 59.1227 69.0107 58.6328 69.5171C58.6111 69.5245 58.619 69.5443 58.5973 69.5518L56.9318 71.3857L58.9029 73.1803L62.4313 76.5973L64.1244 74.7089L69.5354 66.5227C70.0197 65.8159 69.8043 64.9005 69.0833 64.4518Z" fill="#151617"></path><path d="M62.572 76.7112C62.5286 76.7261 62.4851 76.7411 62.4339 76.7363C62.3096 76.7341 62.1992 76.7047 62.1165 76.6208L58.716 73.339L56.6169 71.4082L58.6085 69.2142L58.6163 69.2339C59.1949 68.7645 60.0471 68.6731 60.6933 69.0576L63.0381 70.3638L65.4363 66.7697L65.2455 66.4756L66.8044 64.7456C66.8538 64.6836 66.9032 64.6216 66.9743 64.5521L67.1877 64.3435L67.1955 64.3633C67.7977 63.9532 68.5709 63.9115 69.2171 64.2961C70.0564 64.7941 70.3052 65.8556 69.7575 66.6519L64.3105 74.8743L62.7299 76.6117C62.6944 76.6465 62.6371 76.6887 62.572 76.7112ZM57.2441 71.3719L59.0656 73.0385L62.4287 76.2881L63.9521 74.593L69.3635 66.4053C69.7629 65.7952 69.5868 64.9785 68.9484 64.6137C68.4282 64.2982 67.7438 64.3767 67.2954 64.8013L67.2815 64.8286C67.246 64.8633 67.1966 64.9254 67.161 64.9601L65.8154 66.4815L65.9905 66.7361L63.2146 70.9328L60.462 69.4074C59.9202 69.0993 59.2435 69.1976 58.803 69.642L58.7891 69.6693L57.2441 71.3719Z" fill="#0B132B"></path><path d="M62.3932 76.6851L57.2151 73.7449C56.4576 73.3245 56.2322 72.3826 56.6637 71.6692C57.1169 70.9483 58.0811 70.7095 58.8385 71.1299L61.3793 72.5712L65.1309 66.8745C65.5919 66.1736 66.5857 65.9472 67.2998 66.3825C68.0435 66.8303 68.2392 67.7596 67.7861 68.4804L62.3932 76.6851Z" fill="#F2E8FB"></path><path d="M62.4733 76.8189C62.4516 76.8263 62.4516 76.8263 62.4299 76.8337C62.3432 76.8633 62.2328 76.8331 62.144 76.7955L57.0929 73.9271C56.2389 73.4493 55.9661 72.3885 56.4743 71.5587C56.7323 71.1538 57.1323 70.8588 57.6035 70.7432C58.0746 70.6276 58.5439 70.6936 58.9601 70.9361L61.3072 72.2616L64.9315 66.7473C65.1895 66.3424 65.5975 66.0673 66.0765 65.9716C66.5555 65.8759 67.0248 65.9419 67.4193 66.1919C68.2674 66.7168 68.5106 67.7652 67.9729 68.5824L62.6447 76.6924C62.6172 76.7471 62.5383 76.7966 62.4733 76.8189ZM57.588 71.201C57.2844 71.3047 57.0421 71.5006 56.8746 71.7614C56.4846 72.3924 56.6981 73.1794 57.3371 73.5495L62.3212 76.373L67.608 68.345C68.0059 67.7339 67.8279 66.9122 67.1889 66.5421C66.8989 66.3696 66.5322 66.3138 66.1911 66.385C65.8284 66.4636 65.5426 66.6744 65.3397 66.9699L61.4495 72.8692L58.6942 71.3211C58.4042 71.1486 58.0375 71.0928 57.7043 71.1839C57.6747 71.1714 57.6314 71.1862 57.588 71.201Z" fill="#0B132B"></path></svg>