<svg xmlns="http://www.w3.org/2000/svg" width="103" height="103" viewBox="0 0 103 103" fill="none"><path d="M98.338 37.2489C98.6208 36.6607 98.8094 36.0019 98.8094 35.2961C98.8094 32.8494 96.8295 30.8496 94.3546 30.8496C92.3276 30.8496 90.607 32.2142 90.0885 34.0728L86.9065 42.9188C86.6001 43.7657 86.6237 44.5892 86.883 45.342C87.5665 47.3653 89.9235 48.2828 91.8798 47.3888L96.3581 45.342L95.7217 44.1422L98.338 37.2489Z" fill="#044742"></path><path d="M90.3249 47.8825C89.8063 47.8825 89.2642 47.7648 88.7692 47.5531C87.8029 47.1296 87.0722 46.3767 86.7422 45.3886C86.4594 44.5652 86.4829 43.6947 86.7658 42.8713L89.9477 34.0253C90.5134 32.0726 92.3047 30.708 94.3553 30.708C96.8773 30.708 98.9515 32.7548 98.9515 35.2957C98.9515 36.0015 98.7865 36.6838 98.4801 37.319L95.8874 44.1417L96.4766 45.271C96.5002 45.2945 96.5002 45.3416 96.4766 45.3886C96.453 45.4357 96.4295 45.4592 96.4059 45.4827L91.9276 47.5296C91.4091 47.7648 90.867 47.8825 90.3249 47.8825ZM94.3553 30.9903C92.4461 30.9903 90.7491 32.2608 90.2306 34.0958L87.0486 42.9419C86.7658 43.7182 86.7658 44.5181 87.0251 45.271C87.3315 46.165 87.9914 46.8708 88.8871 47.2708C89.8299 47.6707 90.8905 47.6707 91.8098 47.2472L96.1466 45.2475L95.581 44.1888C95.5574 44.1417 95.5574 44.1182 95.581 44.0711L98.1972 37.1778C98.1972 37.1778 98.1972 37.1778 98.1972 37.1543C98.5036 36.5426 98.6451 35.9074 98.6451 35.2486C98.6686 32.9195 96.7359 30.9903 94.3553 30.9903Z" fill="black"></path><path d="M58.0346 54.5873C57.4218 54.8461 56.8561 55.2225 56.3847 55.7636C54.7819 57.5987 54.9705 60.4219 56.8089 62.0217C58.341 63.3628 60.533 63.4569 62.1358 62.3982L78.6112 53.4345C79.389 53.011 79.9311 52.3523 80.2375 51.623C81.0625 49.6467 79.884 47.4117 77.8334 46.8L74.9814 45.7178L58.0346 54.5873Z" fill="#044742"></path><path d="M59.7543 63.2455C58.6701 63.2455 57.5859 62.8691 56.7374 62.1163C55.8182 61.3164 55.2525 60.1871 55.1818 58.9872C55.0875 57.7638 55.4882 56.5875 56.2896 55.67C56.761 55.1288 57.3266 54.7289 57.9866 54.4701L74.9334 45.6241C74.9805 45.6006 75.0041 45.6006 75.0513 45.6241L77.9032 46.7063C78.9403 47.0122 79.836 47.765 80.3074 48.7531C80.7552 49.6942 80.8023 50.7529 80.4016 51.7175C80.0717 52.5174 79.4824 53.1761 78.7282 53.5996L62.2292 62.5162C61.4749 63.0103 60.6029 63.2455 59.7543 63.2455ZM75.0041 45.8829L58.1044 54.7054C57.4916 54.9642 56.9495 55.3406 56.5253 55.8346C55.771 56.7051 55.3939 57.8109 55.4646 58.9402C55.5353 60.093 56.0539 61.1281 56.9259 61.881C58.3637 63.1279 60.485 63.2926 62.0878 62.2339L78.5868 53.2702C79.2939 52.8703 79.836 52.2586 80.1424 51.5293C80.4959 50.6588 80.4724 49.6942 80.0481 48.8002C79.6003 47.8826 78.7989 47.1768 77.8089 46.8945L75.0041 45.8829Z" fill="black"></path><g opacity="0.4"><path d="M75.9234 46.3293C75.9234 46.3293 75.122 47.6232 75.4991 49.2466L73.8257 46.2822L75.9234 46.3293Z" fill="#32303C"></path></g><g opacity="0.4"><path d="M74.0137 42.3774C74.0137 42.3774 73.0473 43.789 73.4009 45.4123L72.5288 43.8596C72.1752 43.2479 72.8116 42.3539 73.5423 42.3774H74.0137Z" fill="#32303C"></path></g><path d="M59.3046 55.2703C58.904 55.2703 58.5033 55.0585 58.3147 54.6821C58.0083 54.141 58.2204 53.4587 58.7861 53.1529L74.248 44.895C74.7901 44.5892 75.4736 44.8009 75.7801 45.3655C76.0865 45.9067 75.8743 46.5889 75.3087 46.8948L59.8467 55.1526C59.6818 55.2232 59.4932 55.2703 59.3046 55.2703Z" fill="#E7FF57"></path><path d="M59.3037 55.4112C58.8323 55.4112 58.4081 55.1524 58.1724 54.7289C57.8424 54.1172 58.0781 53.3409 58.6909 53.0115L74.1528 44.7536C74.4592 44.589 74.7892 44.5654 75.1192 44.6595C75.4492 44.7536 75.7084 44.9654 75.8734 45.2712C76.2034 45.8829 75.9677 46.6593 75.3549 46.9887L59.9166 55.27C59.728 55.3642 59.5159 55.4112 59.3037 55.4112ZM74.7656 44.8948C74.6007 44.8948 74.4357 44.9419 74.2942 45.0124L58.8323 53.2703C58.3609 53.5291 58.1724 54.1172 58.4316 54.6113C58.5966 54.9407 58.9502 55.1289 59.3037 55.1289C59.4687 55.1289 59.6337 55.0818 59.7751 55.0113L75.237 46.7534C75.7084 46.4946 75.897 45.9064 75.6377 45.4124C75.5199 45.1771 75.3077 45.0124 75.0485 44.9419C74.9542 44.9183 74.8599 44.8948 74.7656 44.8948Z" fill="#111111"></path><path d="M58.6219 50.3303C58.4334 50.3303 58.2684 50.2362 58.1741 50.0716C58.0327 49.8363 58.1269 49.5304 58.3862 49.3893L73.2824 41.5314C73.5181 41.3902 73.8246 41.4843 73.966 41.7431C74.1074 41.9784 74.0131 42.2842 73.7538 42.4254L58.8576 50.2833C58.7869 50.3068 58.7162 50.3303 58.6219 50.3303Z" fill="#E7FF57"></path><path d="M58.6223 50.4711C58.3866 50.4711 58.1745 50.3299 58.0566 50.1417C57.8917 49.8359 58.0095 49.4359 58.3159 49.2712L73.2121 41.4133C73.3536 41.3428 73.5421 41.3192 73.7071 41.3663C73.8721 41.4133 74.0135 41.531 74.0842 41.6721C74.2492 41.978 74.1314 42.3779 73.825 42.5426L58.9287 50.4005C58.8345 50.4476 58.7402 50.4711 58.6223 50.4711ZM73.5186 41.6251C73.4714 41.6251 73.4007 41.6486 73.3536 41.6721L58.4573 49.5065C58.3631 49.5535 58.3159 49.6241 58.2923 49.7182C58.2688 49.8123 58.2688 49.9064 58.3159 50.0006C58.4102 50.1652 58.6223 50.2358 58.8109 50.1417L73.7071 42.2838C73.8014 42.2368 73.8485 42.1662 73.8721 42.0721C73.8957 41.978 73.8957 41.8839 73.8485 41.7898C73.8014 41.6956 73.7307 41.6486 73.6364 41.6251C73.5893 41.6251 73.5657 41.6251 73.5186 41.6251Z" fill="#111111"></path><path d="M64.0196 25.4378C64.0196 25.4378 61.474 25.0614 59.3292 23.0381L55.063 24.8967L57.2314 29.0374L64.0196 25.4378Z" fill="#FFAAD4"></path><path d="M57.2548 29.1789C57.2312 29.1789 57.2312 29.1789 57.2076 29.1789C57.1605 29.1789 57.1369 29.1318 57.1134 29.1083L54.9449 24.9676C54.9214 24.9441 54.9214 24.8971 54.9449 24.85C54.9685 24.8029 54.9921 24.7794 55.0156 24.7559L59.2818 22.8973C59.3289 22.8738 59.3996 22.8738 59.4468 22.9208C61.5209 24.8735 64.0429 25.2735 64.0665 25.2735C64.1372 25.2735 64.1844 25.3205 64.1844 25.3911C64.1844 25.4617 64.1608 25.5087 64.1136 25.5323L57.3255 29.1554C57.3019 29.1554 57.2783 29.1789 57.2548 29.1789ZM55.2749 24.9676L57.3255 28.8495L63.6187 25.5087C62.8173 25.3205 60.9788 24.7559 59.3054 23.2267L55.2749 24.9676Z" fill="black"></path><path d="M58.7406 37.8126L57.7035 40.4241L58.2928 43.2472L72.2462 36.001L70.6435 31.7427C68.2865 31.6251 66.4244 31.084 66.4244 31.084L64.0439 25.4141L55.6765 29.8841L58.7406 37.8126Z" fill="#ABD1C6"></path><path d="M58.2926 43.4123C58.2691 43.4123 58.2455 43.4123 58.2219 43.3887C58.1748 43.3652 58.1512 43.3417 58.1512 43.2946L57.562 40.4714C57.562 40.4479 57.562 40.4244 57.562 40.4009L58.5991 37.8365L55.535 29.9786C55.5114 29.908 55.535 29.8374 55.6057 29.8139L63.973 25.3438C63.9966 25.3203 64.0437 25.3203 64.0909 25.3438C64.138 25.3673 64.1616 25.3909 64.1851 25.4144L66.5421 31.0137C66.8957 31.1078 68.5927 31.5548 70.6669 31.6725C70.714 31.6725 70.7612 31.7195 70.7847 31.7666L72.3875 36.0249C72.4111 36.0955 72.3875 36.1661 72.3168 36.1896L58.3634 43.4358C58.3398 43.4123 58.3162 43.4123 58.2926 43.4123ZM57.8448 40.4479L58.3869 43.0594L72.0575 35.9543L70.5255 31.9077C68.2156 31.7666 66.3772 31.249 66.3536 31.2255C66.3064 31.2019 66.2829 31.1784 66.2593 31.1549L63.9259 25.6261L55.7942 29.9786L58.8348 37.7659C58.8583 37.7894 58.8583 37.8365 58.8348 37.86L57.8448 40.4479Z" fill="black"></path><path d="M65.128 29.3438L66.0236 31.3906L61.4746 33.8373L65.128 29.3438Z" fill="#FFDDF3"></path><g opacity="0.55"><path d="M39.8624 63.9041C39.8624 64.8687 39.0846 65.645 38.1182 65.645C37.1518 65.645 36.374 64.8687 36.374 63.9041C36.374 62.9395 37.1518 62.1631 38.1182 62.1631C39.061 62.1631 39.8624 62.9395 39.8624 63.9041Z" fill="#32303C"></path></g><path d="M38.6572 65.2217C39.5163 65.2217 40.2128 64.5265 40.2128 63.669C40.2128 62.8114 39.5163 62.1162 38.6572 62.1162C37.798 62.1162 37.1016 62.8114 37.1016 63.669C37.1016 64.5265 37.798 65.2217 38.6572 65.2217Z" fill="#044742"></path><path d="M38.657 65.3624C37.7142 65.3624 36.96 64.6096 36.96 63.6685C36.96 62.7275 37.7142 61.9746 38.657 61.9746C39.5998 61.9746 40.354 62.7275 40.354 63.6685C40.354 64.6096 39.5998 65.3624 38.657 65.3624ZM38.657 62.2569C37.8792 62.2569 37.2428 62.8922 37.2428 63.6685C37.2428 64.4449 37.8792 65.0801 38.657 65.0801C39.4348 65.0801 40.0712 64.4449 40.0712 63.6685C40.0948 62.8922 39.4584 62.2569 38.657 62.2569Z" fill="black"></path><path d="M39.882 72.8535L39.313 74.2734L39.5756 74.3783L40.1446 72.9584L39.882 72.8535Z" fill="#111111"></path><g opacity="0.45"><path d="M94.2358 77.8316C93.953 76.7729 94.0708 74.9848 92.3031 73.9261C92.0438 73.7615 91.7374 73.6203 91.4546 73.4791C91.4781 72.5851 91.1482 71.6441 90.3939 70.7971L79.3867 56.3518L79.5046 55.1519C79.5989 54.7284 79.5753 54.3049 79.3396 53.8579C78.8211 52.8228 75.3327 53.0345 73.8006 52.7757L70.1709 48.0233C70.1709 47.9998 70.1709 47.9998 70.1709 47.9998L69.6288 47.3175L68.9217 46.4C69.6288 44.6825 69.3931 43.0827 67.9789 41.8123C65.2919 39.3655 64.2784 38.4245 64.2784 38.4245C60.6015 35.0837 50.4192 35.3895 41.4862 39.0832C32.5532 42.8004 28.3106 48.5174 32.0111 51.8582C32.0111 51.8582 33.2367 52.9874 34.2974 53.952L31.1626 55.5754L31.2804 55.646C26.5428 53.9285 18.2698 54.6814 10.8688 57.7633C1.88864 61.5041 -2.37753 67.2446 1.34653 70.5854C1.34653 70.5854 4.78774 73.7144 5.09415 73.9732C6.6262 75.3377 9.26604 76.0906 12.4716 76.2553L14.0272 77.2199L20.9332 81.5958C20.9568 81.5958 20.9803 81.5723 21.0039 81.5723L22.6774 82.631C22.6774 82.6545 22.6774 82.7016 22.6774 82.7251L22.3238 88.7715C22.3002 89.3361 22.5595 89.8772 23.0545 90.3007C24.3508 91.4535 26.9671 91.6182 28.5934 90.7242L32.3411 88.7009L31.3983 88.0892L44.0082 95.9706L44.126 96.0177C44.2203 96.0647 44.3146 96.0882 44.4089 96.1118C44.456 96.1353 44.5032 96.1353 44.5739 96.1588C44.621 96.1823 44.6682 96.1823 44.7153 96.2059L56.3353 100.205H56.3117L62.8406 102.464C63.2177 102.605 63.642 102.558 63.9248 102.417C64.2312 102.276 64.3962 102.04 64.3019 101.782L59.9179 89.289V89.2655C59.8708 89.1008 59.8237 88.9361 59.7294 88.7715L49.9478 77.7139L64.7733 68.8679L77.3833 76.7964L77.4304 76.8199C77.6426 76.9611 77.8783 77.0787 78.114 77.1964C78.1847 77.2434 78.2554 77.2669 78.3497 77.314C78.5146 77.3846 78.6796 77.4787 78.8682 77.5493C78.9625 77.5963 79.0568 77.6198 79.1275 77.6434C79.2925 77.7139 79.481 77.761 79.6696 77.8316C79.7639 77.8551 79.8346 77.8786 79.9288 77.9022C80.1645 77.9727 80.4002 78.0433 80.6359 78.0904C80.6595 78.0904 80.7067 78.1139 80.7302 78.1139C81.0131 78.1845 81.2723 78.2315 81.5552 78.2786C81.6495 78.3021 81.7202 78.3021 81.8144 78.3021C81.9087 78.3021 81.9794 78.3256 82.0737 78.3256C82.4273 78.8197 82.9458 79.2902 83.6529 79.6666C92.7509 84.6072 100.246 80.2783 100.246 80.2783C100.246 80.2783 94.8722 80.1842 94.2358 77.8316ZM43.6075 72.5381L60.3893 63.3392L61.7328 64.045L44.5739 73.5027L43.6075 72.5381ZM62.2749 64.8449L65.009 66.5153L47.1901 76.7258L45.281 74.5378L62.2749 64.8449Z" fill="#32303C"></path></g><path d="M66.283 81.2194L55.3937 79.549V79.502L55.3701 79.549H55.323L55.3466 79.5961L48.1577 87.9245L62.8182 102.37C63.4075 102.958 64.421 102.582 64.5153 101.758L66.283 81.2194Z" fill="white"></path><path d="M63.4776 102.77C63.1947 102.77 62.9119 102.652 62.6762 102.441L47.9214 87.9011L55.1338 79.5491L55.0631 79.3609L55.2752 79.3844L55.4166 79.2197L55.4873 79.4079L66.4238 81.0783L64.5854 101.735C64.5382 102.182 64.2554 102.558 63.8547 102.699C63.7604 102.746 63.619 102.77 63.4776 102.77ZM48.3221 87.9011L62.8883 102.252C63.124 102.488 63.4776 102.558 63.784 102.441C64.0904 102.323 64.3025 102.041 64.3497 101.711L66.1646 81.3371L55.4402 79.6903L48.3221 87.9011Z" fill="#111111"></path><path d="M61.7821 97.265C60.415 97.7825 59.0008 97.759 57.6809 97.3355L62.772 102.347C63.3613 102.935 64.3748 102.558 64.4691 101.735L65.129 94.3477C64.3512 95.6887 63.1727 96.7474 61.7821 97.265Z" fill="#111111"></path><path d="M63.4787 102.77C63.1958 102.77 62.913 102.653 62.6773 102.441L57.5862 97.4297C57.539 97.3826 57.539 97.3121 57.5626 97.265C57.5862 97.218 57.6569 97.1944 57.7276 97.1944C59.0711 97.6179 60.4617 97.6179 61.7345 97.1238C63.0544 96.6298 64.2093 95.6181 64.9871 94.2536C65.0107 94.2065 65.0814 94.1595 65.1521 94.183C65.2228 94.2065 65.2464 94.2536 65.2464 94.3242L64.5865 101.712C64.5393 102.159 64.2565 102.511 63.8558 102.676C63.7379 102.747 63.5965 102.77 63.4787 102.77ZM58.1754 97.6179L62.8658 102.253C63.1016 102.488 63.4551 102.558 63.7615 102.441C64.0679 102.323 64.28 102.041 64.3272 101.712L64.94 94.9123C64.1386 96.0887 63.0544 96.9592 61.8523 97.4062C60.6503 97.8296 59.4011 97.9002 58.1754 97.6179Z" fill="#111111"></path><path d="M56.8062 36.4961L66.2814 81.1967C66.2578 83.3612 65.0322 85.3139 63.0523 86.0667C60.8131 86.8901 58.3383 85.902 56.9477 83.8552C57.2305 86.3255 55.9813 88.6782 53.7657 89.5016C51.7858 90.2309 49.5703 89.5251 48.1325 87.9018L26.2124 47.7889L56.8062 36.4961Z" fill="#E7FF57"></path><path d="M29.0653 46.7295L51.174 89.6891C50.0426 89.4539 48.9584 88.8422 48.1335 87.9011L26.2134 47.7882L29.0653 46.7295Z" fill="#E7FF57"></path><path d="M43.3246 41.4834L59.2579 85.8546C58.3622 85.4312 57.5373 84.7489 56.948 83.8549C57.0187 84.3489 56.9951 84.8665 56.948 85.337L37.8799 43.4832L43.3246 41.4834Z" fill="#E7FF57"></path><path d="M56.8076 36.4961L66.2827 81.1967C66.2592 82.2084 65.9999 83.1965 65.5049 83.9964L53.5078 37.696L56.8076 36.4961Z" fill="#E7FF57"></path><path d="M52.1167 89.9252C50.6082 89.9252 49.1233 89.243 48.0155 87.9961L47.992 87.9725L26.0719 47.8596C26.0483 47.8126 26.0483 47.789 26.0719 47.742C26.0954 47.6949 26.119 47.6714 26.1662 47.6479L56.76 36.3786C56.8071 36.3551 56.8307 36.3786 56.8778 36.3786C56.925 36.4021 56.9486 36.4257 56.9486 36.4727L66.4237 81.1733V81.1969C66.4001 83.5025 65.0802 85.4552 63.1003 86.1845C61.0026 86.9609 58.622 86.1845 57.1371 84.3259C57.2314 86.7256 55.9115 88.843 53.8137 89.6194C53.2716 89.8311 52.706 89.9252 52.1167 89.9252ZM48.2512 87.8314C49.689 89.4547 51.8339 90.0664 53.7195 89.3841C55.8408 88.6077 57.1135 86.3492 56.8307 83.8789C56.8307 83.8083 56.8543 83.7613 56.925 83.7377C56.9957 83.7142 57.0664 83.7377 57.09 83.7848C58.4806 85.8316 60.9083 86.7256 63.0296 85.9492C64.9152 85.267 66.1408 83.4084 66.1644 81.2439L56.7364 36.708L26.449 47.8596L48.2512 87.8314Z" fill="#111111"></path><path d="M45.1582 56.1618L44.8984 56.2734L56.8212 83.9116L57.081 83.8L45.1582 56.1618Z" fill="#111111"></path><g opacity="0.4"><path d="M57.7025 40.7305L58.1503 43.3655C58.1503 43.3655 52.7763 57.9755 33.2368 60.7752L27.1558 49.4353L57.7025 40.7305Z" fill="#32303C"></path></g><path d="M58.7165 33.671C60.6257 39.5291 53.9318 46.9165 43.7967 50.2102C33.6616 53.4804 23.9037 51.3865 22.0181 45.5519C21.8531 45.0814 20.1089 39.5997 20.1089 39.5997L56.8073 27.7188C56.8073 27.7188 57.3259 29.3891 58.7165 33.671Z" fill="#ABD1C6"></path><path d="M34.4395 51.9043C28.1699 51.9043 23.1731 49.6222 21.8767 45.5991C21.7117 45.1286 19.9676 39.6469 19.9676 39.6469C19.944 39.5763 19.9911 39.4822 20.0618 39.4587L56.7603 27.6013C56.8074 27.5777 56.831 27.6013 56.8782 27.6013C56.9017 27.6248 56.9489 27.6483 56.9489 27.6954C56.9489 27.7189 57.4674 29.4128 58.858 33.6476C59.4708 35.5533 59.2116 37.6942 58.1274 39.8351C55.8882 44.1875 50.4435 48.2341 43.8675 50.3515C40.5913 51.3867 37.3858 51.9043 34.4395 51.9043ZM20.2975 39.6704C20.5568 40.5174 22.0181 45.058 22.1596 45.4815C24.0216 51.2455 33.7324 53.3159 43.7732 50.0692C50.2786 47.9753 55.6761 43.9993 57.8681 39.694C58.9287 37.6001 59.188 35.5297 58.5988 33.7182C57.4438 30.1422 56.8782 28.3777 56.7367 27.9071L20.2975 39.6704Z" fill="black"></path><path d="M57.4438 30.7786C57.326 30.7786 57.2081 30.6845 57.161 30.5669C57.1374 30.4257 57.0903 30.3081 57.0431 30.1905C56.996 30.0493 57.0667 29.8846 57.2317 29.8376C57.3731 29.7905 57.5381 29.8611 57.5853 30.0258C57.6324 30.1669 57.6795 30.3081 57.7031 30.4492C57.7502 30.5904 57.656 30.7551 57.491 30.8021C57.491 30.7786 57.4674 30.7786 57.4438 30.7786Z" fill="#111111"></path><path d="M34.4172 48.0001C34.2758 48.0001 34.1343 47.8825 34.1343 47.7414C34.1343 47.5767 34.2522 47.459 34.3936 47.459C34.6764 47.459 34.9593 47.4355 35.2421 47.412C35.4071 47.3885 35.525 47.5061 35.5485 47.6708C35.5485 47.8355 35.4543 47.9531 35.2893 47.9766C35.0064 47.9531 34.7236 47.9766 34.4172 48.0001C34.4408 48.0001 34.4408 48.0001 34.4172 48.0001ZM32.1073 47.9766C31.8009 47.9531 31.4945 47.9531 31.2117 47.906C31.0467 47.8825 30.9524 47.7649 30.9524 47.6002C30.976 47.4355 31.0938 47.3414 31.2588 47.3414C31.5416 47.3649 31.8245 47.3885 32.1073 47.3885C32.2723 47.3885 32.3902 47.5296 32.3666 47.6943C32.3902 47.859 32.2723 47.9766 32.1073 47.9766ZM37.5756 47.6708C37.4341 47.6708 37.3163 47.5767 37.2927 47.4355C37.2691 47.2708 37.3634 47.1297 37.5284 47.1061C37.8113 47.0591 38.0941 47.012 38.3769 46.965C38.5184 46.9414 38.6833 47.0356 38.7069 47.2002C38.7305 47.3649 38.6362 47.5061 38.4712 47.5296C38.1884 47.5767 37.9055 47.6237 37.5991 47.6708C37.6227 47.6708 37.5991 47.6708 37.5756 47.6708ZM28.9725 47.6002C28.9489 47.6002 28.9254 47.6002 28.9254 47.6002C28.6425 47.5296 28.3361 47.4826 28.0769 47.412C27.9354 47.3649 27.8412 47.2238 27.8647 47.0591C27.9119 46.9179 28.0533 46.8238 28.2183 46.8473C28.4775 46.9179 28.7604 46.9885 29.0432 47.0356C29.1846 47.0591 29.3025 47.2238 29.2554 47.3649C29.2082 47.5061 29.0904 47.6002 28.9725 47.6002ZM40.6868 47.0356C40.5689 47.0356 40.4511 46.9414 40.404 46.8238C40.3568 46.6827 40.4511 46.518 40.6161 46.4709C40.8989 46.4003 41.1582 46.3298 41.441 46.2356C41.5825 46.1886 41.7474 46.2827 41.7946 46.4239C41.8417 46.565 41.7474 46.7297 41.606 46.7768C41.3232 46.8473 41.0403 46.9414 40.7575 47.012C40.7339 47.0356 40.7104 47.0356 40.6868 47.0356ZM25.932 46.6591C25.8848 46.6591 25.8613 46.6591 25.8141 46.6356C25.5313 46.518 25.272 46.3768 25.0128 46.2592C24.8713 46.1886 24.8242 46.0239 24.8949 45.8827C24.9656 45.7416 25.1306 45.6945 25.272 45.7651C25.5077 45.8827 25.767 46.0239 26.0263 46.1415C26.1677 46.2121 26.2384 46.3768 26.1677 46.518C26.1441 46.5885 26.0498 46.6591 25.932 46.6591ZM43.7273 46.0945C43.6095 46.0945 43.4916 46.0239 43.4681 45.9063C43.4209 45.7651 43.4916 45.6004 43.633 45.5534C43.8923 45.4593 44.1752 45.3652 44.4344 45.2475C44.5758 45.2005 44.7408 45.2711 44.8115 45.4122C44.8587 45.5534 44.788 45.7181 44.6466 45.7886C44.3873 45.9063 44.1044 46.0004 43.8216 46.0945C43.798 46.0945 43.7745 46.0945 43.7273 46.0945ZM23.245 44.9887C23.1743 44.9887 23.1036 44.9652 23.0565 44.9182C22.8208 44.7064 22.6086 44.4947 22.4201 44.2829C22.3258 44.1653 22.3258 43.9771 22.4436 43.883C22.5615 43.7889 22.75 43.7889 22.8443 43.9065C23.0329 44.1182 23.2214 44.3065 23.4336 44.4947C23.5514 44.5888 23.5514 44.777 23.4571 44.8946C23.41 44.9652 23.3393 44.9887 23.245 44.9887ZM46.6736 44.8711C46.5793 44.8711 46.4614 44.8005 46.4143 44.7064C46.3436 44.5653 46.4143 44.4006 46.5557 44.33C46.815 44.2124 47.0743 44.0712 47.3335 43.9536C47.475 43.883 47.6399 43.93 47.7106 44.0712C47.7814 44.2124 47.7342 44.377 47.5928 44.4476C47.3335 44.5888 47.0743 44.7064 46.815 44.8241C46.7443 44.8711 46.6971 44.8711 46.6736 44.8711ZM49.4548 43.3654C49.3605 43.3654 49.2663 43.3183 49.2191 43.2242C49.1484 43.0831 49.172 42.9184 49.3134 42.8243C49.5491 42.6831 49.8084 42.5184 50.0441 42.3538C50.1855 42.2596 50.3505 42.3067 50.4448 42.4243C50.539 42.5655 50.4919 42.7302 50.3741 42.8243C50.1384 42.989 49.8791 43.1301 49.6434 43.2948C49.5491 43.3419 49.502 43.3654 49.4548 43.3654ZM52.0475 41.5303C51.9532 41.5303 51.8825 41.4833 51.8354 41.4127C51.7411 41.2951 51.7647 41.1068 51.8825 41.0127C52.1182 40.8245 52.3304 40.6598 52.5425 40.4716C52.6603 40.3775 52.8489 40.3775 52.9432 40.4951C53.0375 40.6128 53.0375 40.801 52.9196 40.8951C52.7075 41.0833 52.4718 41.2715 52.2361 41.4597C52.1654 41.5068 52.1182 41.5303 52.0475 41.5303ZM54.381 39.3894C54.3102 39.3894 54.2395 39.3659 54.1924 39.3188C54.0745 39.2247 54.0745 39.0365 54.1688 38.9189C54.3574 38.7071 54.5459 38.4954 54.7345 38.2836C54.8288 38.166 55.0173 38.1425 55.1352 38.2366C55.253 38.3307 55.2766 38.5189 55.1823 38.6365C54.9938 38.8483 54.8052 39.0836 54.5931 39.2953C54.5224 39.3423 54.4517 39.3894 54.381 39.3894ZM56.2666 36.8485C56.2194 36.8485 56.1723 36.825 56.1251 36.8015C55.9837 36.7309 55.9366 36.5427 56.0309 36.425C56.1723 36.1898 56.3137 35.931 56.4315 35.6722C56.5023 35.531 56.6672 35.484 56.8087 35.5546C56.9501 35.6251 56.9972 35.7898 56.9265 35.931C56.8087 36.1898 56.6672 36.4486 56.5023 36.7074C56.4551 36.8015 56.3608 36.8485 56.2666 36.8485ZM57.4686 33.9077C57.4451 33.9077 57.4215 33.9077 57.3979 33.9077C57.2565 33.8842 57.1386 33.7195 57.1858 33.5783C57.2565 33.296 57.2801 33.0372 57.3272 32.7549C57.3508 32.5902 57.4686 32.4961 57.6336 32.4961C57.7986 32.5196 57.8929 32.6608 57.8929 32.8019C57.8693 33.0843 57.8222 33.3901 57.7515 33.696C57.7043 33.8371 57.5865 33.9077 57.4686 33.9077Z" fill="#111111"></path><path d="M21.4048 42.4242C21.2869 42.4242 21.1926 42.3536 21.1455 42.236C21.0984 42.0948 21.0512 41.9537 21.0041 41.8125C20.9569 41.6714 21.0277 41.5067 21.1926 41.4596C21.3341 41.4126 21.4991 41.4831 21.5462 41.6478C21.5933 41.7655 21.6405 41.9066 21.6876 42.0243C21.7348 42.1654 21.664 42.3301 21.5226 42.4007C21.4755 42.4242 21.4519 42.4242 21.4048 42.4242Z" fill="#111111"></path><path d="M56.8069 27.7197C58.716 33.5778 52.0221 40.9652 41.8871 44.2589C31.752 47.5291 21.994 45.4352 20.1084 39.6006C18.1992 33.7425 24.8931 26.3551 35.0282 23.0614C45.1633 19.7912 54.9212 21.8615 56.8069 27.7197Z" fill="#FFDDF3"></path><path d="M32.5287 45.9535C30.9023 45.9535 29.3467 45.7888 27.8854 45.483C23.7135 44.589 20.9087 42.5186 19.9659 39.6248C18.0567 33.6961 24.7741 26.2147 34.9564 22.9209C39.8825 21.3211 44.8793 20.9447 49.0041 21.8152C53.176 22.7092 55.9808 24.7795 56.9236 27.6733C58.8328 33.602 52.1153 41.0835 41.9331 44.3772C38.7511 45.4359 35.522 45.9535 32.5287 45.9535ZM44.4079 21.6505C41.4381 21.6505 38.2326 22.1681 35.0742 23.2032C25.0334 26.4499 18.3867 33.7902 20.2487 39.5543C21.1444 42.3304 23.8785 44.3537 27.9561 45.2242C32.0573 46.0947 36.9834 45.7182 41.8624 44.142C51.9032 40.8953 58.5499 33.555 56.6879 27.7909C55.7922 25.0148 53.0581 22.9915 48.9805 22.121C47.5427 21.7916 46.0107 21.6505 44.4079 21.6505Z" fill="black"></path><path d="M32.2465 45.4123C32.0815 45.4123 31.9636 45.2711 31.9636 45.13C31.9636 44.9653 32.105 44.8476 32.2465 44.8476C32.4114 44.8476 32.5293 44.9888 32.5293 45.13C32.5293 45.2947 32.4114 45.4123 32.2465 45.4123ZM33.4014 45.13C33.4014 44.9653 33.5192 44.8476 33.6842 44.8476C33.8492 44.8476 33.9671 44.9653 33.9671 45.13C33.9671 45.2947 33.8492 45.4123 33.6842 45.4123C33.6842 45.4123 33.6842 45.4123 33.6607 45.4123C33.5192 45.3888 33.4014 45.2711 33.4014 45.13ZM30.8087 45.3417C30.6437 45.3417 30.5259 45.2006 30.5494 45.0359C30.5494 44.8712 30.6908 44.7535 30.8558 44.7771C31.0208 44.7771 31.1387 44.9182 31.1151 45.0829C31.1151 45.2476 30.9737 45.3417 30.8087 45.3417C30.8323 45.3417 30.8087 45.3417 30.8087 45.3417ZM34.8156 45.0594C34.792 44.8947 34.9099 44.7771 35.0749 44.7535C35.2398 44.73 35.3577 44.8476 35.3813 45.0123C35.4048 45.177 35.287 45.2947 35.122 45.3182H35.0984C34.957 45.2947 34.8392 45.2006 34.8156 45.0594ZM29.3709 45.177C29.2059 45.1535 29.1117 45.0123 29.1352 44.8476C29.1588 44.683 29.3002 44.5889 29.4652 44.6124C29.6302 44.6359 29.7245 44.7771 29.7009 44.9418C29.6773 45.0829 29.5595 45.177 29.4181 45.177C29.4181 45.2006 29.3945 45.177 29.3709 45.177ZM36.2298 44.8947C36.2062 44.7535 36.3241 44.5889 36.4655 44.5653C36.6305 44.5418 36.7719 44.6594 36.7955 44.8006C36.819 44.9653 36.7012 45.1064 36.5598 45.13C36.5362 45.13 36.5362 45.13 36.5126 45.13C36.3712 45.13 36.2534 45.0359 36.2298 44.8947ZM27.9567 44.9182C27.8153 44.8712 27.6975 44.73 27.7446 44.5889C27.7682 44.4477 27.9332 44.3536 28.0746 44.3771C28.216 44.4006 28.3103 44.5653 28.2867 44.7065C28.2631 44.8477 28.1453 44.9182 28.0039 44.9182C28.0039 44.9182 27.9803 44.9182 27.9567 44.9182ZM37.644 44.6594C37.6204 44.5183 37.7147 44.3536 37.8561 44.3301C37.9975 44.3065 38.1625 44.4006 38.1861 44.5653C38.2097 44.7065 38.1154 44.8712 37.974 44.8947C37.9504 44.8947 37.9268 44.8947 37.9268 44.8947C37.7854 44.8947 37.6676 44.8006 37.644 44.6594ZM39.0346 44.3771C38.9875 44.236 39.1053 44.0713 39.2467 44.0477C39.3882 44.0007 39.5532 44.0948 39.6003 44.2595C39.6474 44.4006 39.5532 44.5653 39.3882 44.5889C39.3646 44.5889 39.341 44.5889 39.3175 44.5889C39.176 44.5889 39.0582 44.5183 39.0346 44.3771ZM26.5661 44.5418C26.4247 44.4947 26.3304 44.3301 26.3775 44.1889C26.4247 44.0477 26.5897 43.9536 26.7311 44.0007C26.8725 44.0477 26.9668 44.2124 26.9196 44.3536C26.8725 44.4712 26.7782 44.5418 26.6604 44.5418C26.6132 44.5418 26.5897 44.5418 26.5661 44.5418ZM40.4252 44.0242C40.3781 43.8831 40.4724 43.7184 40.6138 43.6713C40.7552 43.6243 40.9202 43.7184 40.9674 43.8595C41.0145 44.0007 40.9202 44.1654 40.7788 44.2124C40.7552 44.2124 40.7317 44.2124 40.7081 44.2124C40.5667 44.236 40.4488 44.1654 40.4252 44.0242ZM25.199 44.0007C25.0576 43.9301 24.9869 43.7654 25.0576 43.6243C25.1283 43.4831 25.2933 43.4125 25.4347 43.4831C25.5762 43.5537 25.6469 43.7184 25.5762 43.8595C25.529 43.9536 25.4347 44.0242 25.3169 44.0242C25.2933 44.0242 25.2462 44.0242 25.199 44.0007ZM41.7687 43.6243C41.7216 43.4831 41.7923 43.3184 41.9573 43.2714C42.0987 43.2243 42.2637 43.2949 42.3108 43.4596C42.358 43.6007 42.2873 43.7654 42.1223 43.8125C42.0987 43.8125 42.0516 43.836 42.028 43.836C41.9337 43.8125 41.8159 43.7419 41.7687 43.6243ZM23.9263 43.3184C23.7848 43.2478 23.7613 43.0596 23.832 42.9185C23.9263 42.7773 24.0912 42.7538 24.2327 42.8244C24.3741 42.9185 24.3977 43.0832 24.3269 43.2243C24.2798 43.3184 24.1855 43.3655 24.0912 43.3655C24.0205 43.3655 23.9734 43.3419 23.9263 43.3184ZM43.1122 43.1537C43.0651 43.0126 43.1358 42.8479 43.2772 42.8008C43.4186 42.7538 43.5836 42.8244 43.6543 42.9655C43.7015 43.1067 43.6308 43.2714 43.4893 43.3419C43.4658 43.3419 43.4186 43.3655 43.3951 43.3655C43.2772 43.3184 43.1594 43.2714 43.1122 43.1537ZM44.4321 42.6126C44.3614 42.4715 44.4321 42.3068 44.5736 42.2362C44.715 42.1656 44.88 42.2362 44.9507 42.3774C45.0214 42.5185 44.9507 42.6832 44.8093 42.7538C44.7621 42.7773 44.7386 42.7773 44.6914 42.7773C44.5971 42.8008 44.4793 42.7303 44.4321 42.6126ZM22.7478 42.4479C22.6299 42.3538 22.6063 42.1656 22.7242 42.048C22.8185 41.9303 23.007 41.9303 23.1249 42.0245C23.2427 42.1186 23.2663 42.3068 23.1484 42.4244C23.1013 42.495 23.007 42.5185 22.9363 42.5185C22.8656 42.5185 22.7949 42.495 22.7478 42.4479ZM45.7285 42.0245C45.6578 41.8833 45.7049 41.7186 45.8463 41.648C45.9878 41.5774 46.1528 41.648 46.2235 41.7892C46.2942 41.9303 46.2235 42.095 46.082 42.1656C46.0349 42.1891 46.0113 42.1891 45.9642 42.1891C45.8935 42.1891 45.7992 42.1421 45.7285 42.0245ZM47.0013 41.3892C46.9306 41.2481 46.9777 41.0834 47.1191 41.0128C47.2605 40.9422 47.4255 40.9893 47.4962 41.1304C47.5669 41.2716 47.5198 41.4363 47.3784 41.5069C47.3312 41.5304 47.2841 41.5539 47.237 41.5539C47.1427 41.5304 47.0484 41.4833 47.0013 41.3892ZM21.7342 41.3657C21.64 41.2481 21.6635 41.0599 21.7814 40.9658C21.8992 40.8716 22.0878 40.8952 22.1821 41.0128C22.2764 41.1304 22.2528 41.3187 22.1349 41.4128C22.0878 41.4598 22.0171 41.4833 21.9699 41.4833C21.8757 41.4833 21.7814 41.4363 21.7342 41.3657ZM48.2269 40.6834C48.1562 40.5423 48.1798 40.3776 48.3212 40.2835C48.4626 40.2129 48.6276 40.2364 48.7219 40.3776C48.7926 40.5187 48.769 40.6834 48.6276 40.7775C48.5805 40.8011 48.5333 40.8246 48.4862 40.8246C48.3919 40.8011 48.2976 40.754 48.2269 40.6834ZM20.9564 40.1188C20.8857 39.9776 20.9564 39.813 21.0979 39.7424C21.2393 39.6718 21.4043 39.7424 21.475 39.8835C21.5457 40.0247 21.475 40.1894 21.3336 40.26C21.2864 40.2835 21.2628 40.2835 21.2157 40.2835C21.1214 40.2835 21.0036 40.2129 20.9564 40.1188ZM49.429 39.9071C49.3347 39.7659 49.3583 39.6012 49.4997 39.5071C49.6175 39.413 49.8061 39.4365 49.9004 39.5777C49.9947 39.6953 49.9711 39.8835 49.8297 39.9776C49.7825 40.0012 49.7118 40.0247 49.6647 40.0247C49.5704 40.0247 49.4761 39.9776 49.429 39.9071ZM50.5839 39.0601C50.4896 38.9425 50.5132 38.7542 50.631 38.6601C50.7489 38.566 50.9375 38.5896 51.0317 38.7072C51.126 38.8248 51.1024 39.013 50.9846 39.1072C50.9375 39.1542 50.8667 39.1777 50.8196 39.1777C50.7253 39.1542 50.631 39.1307 50.5839 39.0601ZM20.5086 38.7072C20.485 38.566 20.5793 38.4014 20.7207 38.3778C20.8622 38.3543 21.0271 38.4484 21.0507 38.5896C21.0743 38.7307 20.98 38.8954 20.8386 38.9189C20.815 38.9189 20.7914 38.9189 20.7914 38.9189C20.65 38.9189 20.5322 38.8248 20.5086 38.7072ZM51.6681 38.1426C51.5503 38.0249 51.5738 37.8367 51.6917 37.7426C51.8095 37.6485 51.9745 37.6485 52.0924 37.7661C52.2102 37.8838 52.1867 38.0485 52.0688 38.1661C52.0217 38.2131 51.951 38.2367 51.8803 38.2367C51.8095 38.2367 51.7388 38.2131 51.6681 38.1426ZM20.65 37.5073C20.485 37.5073 20.3672 37.3662 20.3672 37.225C20.3672 37.0603 20.5086 36.9427 20.65 36.9427C20.815 36.9427 20.9329 37.0839 20.9329 37.225C20.9329 37.3897 20.815 37.5073 20.65 37.5073ZM52.7052 37.178C52.5874 37.0839 52.5874 36.8956 52.7052 36.778C52.8231 36.6604 52.988 36.6604 53.1059 36.778C53.2237 36.8956 53.2237 37.0603 53.1059 37.178C53.0588 37.2485 52.9645 37.2721 52.8938 37.2721C52.8231 37.2485 52.7523 37.225 52.7052 37.178ZM53.648 36.1193C53.5302 36.0252 53.5066 35.8369 53.6009 35.7193C53.6951 35.6017 53.8837 35.5782 54.0016 35.6723C54.1194 35.7664 54.143 35.9546 54.0487 36.0722C54.0016 36.1428 53.9073 36.1663 53.8366 36.1663C53.7659 36.1663 53.7187 36.1663 53.648 36.1193ZM20.7679 36.0957C20.6265 36.0722 20.5086 35.9075 20.5557 35.7664C20.5793 35.6252 20.7443 35.5076 20.8857 35.5546C21.0271 35.5782 21.1214 35.7428 21.0979 35.884C21.0743 36.0252 20.9564 36.0957 20.815 36.0957C20.815 36.1193 20.7914 36.0957 20.7679 36.0957ZM54.5201 34.99C54.3787 34.8959 54.3551 34.7312 54.4258 34.59C54.5201 34.4489 54.6851 34.4254 54.8265 34.4959C54.9679 34.59 54.9915 34.7547 54.9208 34.8959C54.8736 34.99 54.7794 35.037 54.6851 35.037C54.6144 35.0135 54.5672 35.0135 54.5201 34.99ZM21.145 34.7312C21.0036 34.6841 20.9329 34.5195 20.98 34.3548C21.0271 34.2136 21.1921 34.143 21.3571 34.1901C21.4985 34.2371 21.5693 34.4018 21.5221 34.5665C21.475 34.6841 21.3807 34.7547 21.2628 34.7547C21.2157 34.7547 21.1921 34.7547 21.145 34.7312ZM55.2508 33.7666C55.1093 33.696 55.0622 33.5313 55.1093 33.3902C55.18 33.249 55.345 33.1784 55.4865 33.249C55.6279 33.3196 55.675 33.4843 55.6279 33.6254C55.5807 33.7196 55.4865 33.7901 55.3686 33.7901C55.3215 33.7901 55.2743 33.7901 55.2508 33.7666ZM21.7342 33.4372C21.5928 33.3667 21.5457 33.1784 21.64 33.0608C21.7107 32.9196 21.8992 32.8726 22.0171 32.9432C22.1585 33.0138 22.2056 33.202 22.1349 33.3196C22.0878 33.4137 21.9935 33.4608 21.8757 33.4608C21.8285 33.4843 21.7814 33.4608 21.7342 33.4372ZM55.8164 32.4491C55.675 32.4021 55.5807 32.2374 55.6279 32.0962C55.675 31.9551 55.84 31.8609 55.9814 31.908C56.1229 31.9551 56.2171 32.1197 56.17 32.2609C56.1229 32.3785 56.0286 32.4491 55.9107 32.4491C55.8636 32.4726 55.84 32.4726 55.8164 32.4491ZM22.4885 32.2374C22.3706 32.1433 22.3235 31.9786 22.4178 31.8374C22.5121 31.7198 22.677 31.6727 22.8185 31.7668C22.9363 31.8609 22.9835 32.0256 22.8892 32.1668C22.842 32.2374 22.7478 32.2844 22.6535 32.2844C22.5828 32.2844 22.5356 32.2609 22.4885 32.2374ZM23.3606 31.1081C23.2427 31.014 23.2192 30.8258 23.337 30.7081C23.4313 30.5905 23.6198 30.567 23.7377 30.6846C23.8555 30.7787 23.8791 30.9669 23.7613 31.0846C23.7141 31.1551 23.6198 31.1787 23.5491 31.1787C23.4784 31.1787 23.4077 31.1551 23.3606 31.1081ZM56.17 31.0846C56.005 31.061 55.9107 30.9199 55.9343 30.7787C55.9579 30.614 56.0993 30.5199 56.2407 30.5435C56.3821 30.567 56.5 30.7081 56.4764 30.8493C56.4528 30.9905 56.335 31.0846 56.1936 31.0846C56.1936 31.0846 56.1936 31.0846 56.17 31.0846ZM24.3034 30.0494C24.1855 29.9318 24.1855 29.7671 24.3034 29.6494C24.4212 29.5318 24.5862 29.5318 24.7041 29.6494C24.8219 29.7671 24.8219 29.9318 24.7041 30.0494C24.6569 30.0965 24.5862 30.12 24.5155 30.12C24.4448 30.1435 24.3741 30.12 24.3034 30.0494ZM55.9579 29.4142C55.9343 29.2495 56.0521 29.1319 56.2171 29.1083C56.3821 29.0848 56.5 29.2024 56.5235 29.3671C56.5471 29.5318 56.4293 29.6494 56.2643 29.673H56.2407C56.0993 29.673 55.9814 29.5553 55.9579 29.4142ZM25.3405 29.0848C25.2462 28.9672 25.2462 28.779 25.364 28.6849C25.4819 28.5907 25.6704 28.5907 25.7647 28.7084C25.859 28.826 25.859 29.0142 25.7411 29.1083C25.694 29.1554 25.6233 29.1789 25.5526 29.1789C25.4819 29.1789 25.4112 29.1554 25.3405 29.0848ZM26.4482 28.1673C26.354 28.0496 26.3775 27.8614 26.4954 27.7673C26.6132 27.6732 26.8018 27.6967 26.8961 27.8144C26.9904 27.932 26.9668 28.1202 26.8489 28.2143C26.8018 28.2614 26.7311 28.2614 26.6839 28.2614C26.5897 28.2849 26.4954 28.2614 26.4482 28.1673ZM55.6986 28.0967C55.6986 28.0732 55.6986 28.0732 55.6986 28.0967C55.6986 28.0732 55.6986 28.0732 55.6986 28.0732C55.6515 27.932 55.7222 27.7673 55.8872 27.7203C56.0286 27.6732 56.1936 27.7438 56.2407 27.9085C56.2407 27.9085 56.2407 27.9085 56.2407 27.932C56.2878 28.0732 56.2171 28.2378 56.0521 28.2849C56.0286 28.2849 55.9814 28.3084 55.9579 28.3084C55.84 28.2849 55.7457 28.2143 55.6986 28.0967ZM27.6032 27.3438C27.5089 27.2027 27.556 27.038 27.6739 26.9439C27.8153 26.8498 27.9803 26.8968 28.0746 27.0145C28.1689 27.1556 28.1217 27.3203 28.0039 27.4144C27.9567 27.4379 27.9096 27.4615 27.8389 27.4615C27.7446 27.4615 27.6503 27.4379 27.6032 27.3438ZM55.1329 26.8262C55.0622 26.6851 55.0858 26.5204 55.2272 26.4263C55.3686 26.3557 55.5336 26.3792 55.6043 26.5204C55.675 26.6616 55.6515 26.8262 55.51 26.8968C55.4629 26.9204 55.4158 26.9439 55.3686 26.9439C55.2743 26.9674 55.1801 26.9204 55.1329 26.8262ZM28.8052 26.5675C28.7345 26.4263 28.7581 26.2616 28.8995 26.191C29.0409 26.1204 29.2059 26.144 29.2766 26.2851C29.3474 26.4263 29.3002 26.591 29.1824 26.6616C29.1352 26.6851 29.0881 26.7086 29.0409 26.7086C28.9467 26.7086 28.8524 26.6616 28.8052 26.5675ZM30.0309 25.8617C29.9602 25.7205 30.0073 25.5558 30.1487 25.4852C30.2902 25.4146 30.4551 25.4617 30.5259 25.6029C30.5966 25.744 30.5494 25.9087 30.408 25.9793C30.3609 26.0028 30.3137 26.0028 30.2666 26.0028C30.1723 26.0263 30.078 25.9558 30.0309 25.8617ZM54.2844 25.7675C54.1665 25.6499 54.1901 25.4852 54.2844 25.3676C54.4022 25.25 54.5672 25.2735 54.6851 25.3676C54.8029 25.4852 54.7794 25.6499 54.6851 25.7675C54.6379 25.8146 54.5672 25.8381 54.4965 25.8381C54.4258 25.8381 54.3551 25.8146 54.2844 25.7675ZM31.3037 25.2264C31.233 25.0853 31.3037 24.9206 31.4451 24.85C31.5865 24.7794 31.7515 24.85 31.8222 24.9912C31.8929 25.1323 31.8222 25.297 31.6808 25.3676C31.6336 25.3911 31.6101 25.3911 31.5629 25.3911C31.4451 25.3911 31.3508 25.3205 31.3037 25.2264ZM53.2709 24.85C53.153 24.7559 53.1295 24.5912 53.2002 24.4501C53.2945 24.3324 53.4594 24.3089 53.6009 24.3795C53.7187 24.4736 53.7423 24.6383 53.6716 24.7794C53.6244 24.85 53.5302 24.8971 53.4359 24.8971C53.3652 24.9206 53.318 24.8971 53.2709 24.85ZM32.6 24.6383C32.5529 24.4971 32.6 24.3324 32.765 24.2618C32.9064 24.1913 33.0714 24.2618 33.1421 24.4265C33.2128 24.5677 33.1421 24.7324 33.0007 24.803C32.9771 24.8265 32.93 24.8265 32.8828 24.8265C32.765 24.8265 32.6471 24.7559 32.6 24.6383ZM33.9199 24.1207C33.8728 23.9795 33.9435 23.8148 34.0849 23.7678C34.2263 23.7207 34.3913 23.7913 34.4385 23.9325C34.4856 24.0736 34.4149 24.2383 34.2735 24.2854C34.2499 24.2854 34.2028 24.3089 34.1792 24.3089C34.0849 24.3089 33.9671 24.2383 33.9199 24.1207ZM52.0924 24.1207C51.951 24.0501 51.9038 23.8854 51.9745 23.7443C52.0452 23.6031 52.2102 23.556 52.3517 23.6266C52.4931 23.6972 52.5402 23.8619 52.4695 24.0031C52.4224 24.0972 52.3281 24.1442 52.2102 24.1442C52.1867 24.1677 52.1395 24.1442 52.0924 24.1207ZM35.2634 23.6502C35.2163 23.509 35.3106 23.3443 35.452 23.2973C35.5934 23.2502 35.7584 23.3443 35.8055 23.4855C35.8527 23.6266 35.7584 23.7913 35.617 23.8384C35.5934 23.8384 35.5698 23.8619 35.5463 23.8619C35.4284 23.8619 35.3106 23.7678 35.2634 23.6502ZM50.8196 23.556C50.6782 23.509 50.6075 23.3443 50.6546 23.1796C50.7018 23.0385 50.8667 22.9679 51.0082 23.0149C51.1496 23.062 51.2203 23.2267 51.1732 23.3914C51.126 23.509 51.0317 23.5796 50.9139 23.5796C50.8903 23.5796 50.8667 23.556 50.8196 23.556ZM36.6305 23.2502C36.5833 23.109 36.6776 22.9444 36.8426 22.8973C36.984 22.8502 37.149 22.9444 37.1962 23.109C37.2433 23.2502 37.149 23.4149 36.984 23.4619C36.9605 23.4619 36.9369 23.4619 36.9133 23.4619C36.7955 23.4619 36.6776 23.3678 36.6305 23.2502ZM49.4997 23.109C49.3583 23.062 49.264 22.9208 49.3111 22.7561C49.3583 22.615 49.4997 22.5209 49.6647 22.5679C49.8061 22.615 49.9004 22.7561 49.8532 22.9208C49.8061 23.0385 49.7118 23.1326 49.5704 23.1326C49.5468 23.1326 49.5233 23.1326 49.4997 23.109ZM38.0211 22.8973C37.9975 22.7561 38.0918 22.5915 38.2332 22.5679C38.3747 22.5444 38.5396 22.6385 38.5632 22.7797C38.5868 22.9208 38.4925 23.0855 38.3511 23.109C38.3275 23.109 38.3039 23.109 38.2804 23.109C38.1625 23.1326 38.0447 23.0385 38.0211 22.8973ZM39.4117 22.615C39.3882 22.4738 39.4824 22.3091 39.6474 22.2856C39.7889 22.2621 39.9538 22.3562 39.9774 22.5209C40.001 22.662 39.9067 22.8267 39.7417 22.8502C39.7181 22.8502 39.7181 22.8502 39.6946 22.8502C39.5532 22.8502 39.4353 22.7561 39.4117 22.615ZM48.1326 22.8032C47.9912 22.7797 47.8734 22.6385 47.9205 22.4738C47.9441 22.3091 48.0855 22.215 48.2505 22.2386C48.3919 22.2621 48.5097 22.4032 48.4862 22.5679C48.4626 22.7091 48.3448 22.8032 48.2033 22.8032C48.1798 22.8032 48.1562 22.8032 48.1326 22.8032ZM40.8259 22.4032C40.8024 22.2386 40.9202 22.1209 41.0616 22.0974C41.2266 22.0739 41.368 22.1915 41.368 22.3562C41.3916 22.4973 41.2738 22.6385 41.1088 22.662H41.0852C40.9674 22.662 40.8495 22.5444 40.8259 22.4032ZM46.742 22.5915C46.577 22.5679 46.4827 22.4268 46.4827 22.2856C46.5063 22.1209 46.6477 22.0268 46.7891 22.0268C46.9541 22.0503 47.0484 22.1915 47.0484 22.3327C47.0248 22.4738 46.907 22.5915 46.7656 22.5915C46.7656 22.5915 46.7656 22.5915 46.742 22.5915ZM42.2401 22.2621C42.2401 22.0974 42.3344 21.9798 42.4994 21.9562C42.6644 21.9562 42.7822 22.0739 42.8058 22.215C42.8058 22.3797 42.688 22.4973 42.5465 22.5209C42.5465 22.5209 42.5465 22.5209 42.523 22.5209C42.3815 22.5209 42.2401 22.4032 42.2401 22.2621ZM45.3514 22.4973C45.1864 22.4973 45.0685 22.3562 45.0921 22.215C45.0921 22.0503 45.2335 21.9327 45.3749 21.9562C45.5399 21.9562 45.6578 22.0974 45.6342 22.2386C45.6342 22.3562 45.5164 22.4973 45.3514 22.4973ZM43.6543 22.1915C43.6543 22.0268 43.7722 21.9092 43.9372 21.9092C44.1022 21.9092 44.22 22.0268 44.22 22.1915C44.22 22.3562 44.1022 22.4738 43.9372 22.4738C43.7957 22.4738 43.6543 22.3327 43.6543 22.1915Z" fill="#111111"></path><path d="M53.3655 28.8959C54.7325 33.1072 49.17 38.683 40.9677 41.3415C32.7417 44 24.9872 42.7296 23.6202 38.5183C22.2531 34.307 27.8156 28.7312 36.018 26.0727C44.2203 23.4142 51.9984 24.6846 53.3655 28.8959Z" fill="#111111"></path><path d="M32.6476 42.8708C31.6105 42.8708 30.6206 42.8002 29.6778 42.6355C26.3544 42.0944 24.1388 40.6358 23.4553 38.5654C22.0647 34.2836 27.6743 28.6372 35.9474 25.9552C44.2205 23.2731 52.0928 24.5906 53.4835 28.8725C54.8741 33.1543 49.2644 38.8007 40.9914 41.4827C38.1394 42.4003 35.2639 42.8708 32.6476 42.8708ZM44.3147 24.8259C41.7927 24.8259 38.9408 25.2729 36.0417 26.214C27.91 28.8489 22.3947 34.3542 23.7146 38.4713C24.351 40.4476 26.4958 41.8356 29.7013 42.3532C32.954 42.8708 36.9373 42.4709 40.8735 41.2004C49.0052 38.5654 54.5205 33.0602 53.2006 28.943C52.3521 26.2845 48.8637 24.8259 44.3147 24.8259Z" fill="#111111"></path><path d="M51.7401 28.6381C52.9893 32.4495 47.9453 37.5077 40.4972 39.9074C33.0491 42.3071 26.0017 41.1778 24.7525 37.343C23.5033 33.5317 28.5472 28.4735 35.9953 26.0737C43.467 23.674 50.4909 24.8033 51.7401 28.6381Z" fill="#B9A0FF"></path><path d="M32.9773 41.3192C32.0345 41.3192 31.1388 41.2486 30.2903 41.1075C27.2734 40.6134 25.2463 39.2959 24.6335 37.3903C23.3607 33.5084 28.4519 28.356 35.9707 25.9328C43.4895 23.5095 50.6312 24.6859 51.8804 28.5678C53.1532 32.4497 48.0621 37.602 40.5433 40.0252C37.9506 40.8957 35.3343 41.3192 32.9773 41.3192ZM43.5367 24.9682C41.2504 24.9682 38.6577 25.3681 36.0414 26.2151C28.664 28.5913 23.6672 33.5789 24.8928 37.3197C25.482 39.1077 27.3912 40.3546 30.3139 40.8251C33.2601 41.2957 36.8663 40.9193 40.449 39.7664C47.8264 37.3903 52.8232 32.4026 51.5976 28.6619C50.8198 26.2622 47.6614 24.9682 43.5367 24.9682Z" fill="black"></path><path d="M44.7637 30.1882C44.7637 31.294 43.8681 32.188 42.7603 32.188C41.6525 32.188 40.7568 31.294 40.7568 30.1882C40.7568 29.0825 41.6525 28.1885 42.7603 28.1885C43.8681 28.1885 44.7637 29.0825 44.7637 30.1882Z" fill="white"></path><path d="M40.0725 28.7789C40.2375 29.2494 39.5304 29.9317 38.4698 30.3081C37.4091 30.6845 36.4428 30.5904 36.2778 30.1199C36.1128 29.6494 36.8199 28.9671 37.8805 28.5907C38.9176 28.2142 39.9076 28.3084 40.0725 28.7789Z" fill="white"></path><g opacity="0.4"><path d="M29.7021 29.1318C29.7021 29.1318 38.6822 30.6375 39.625 40.7775C39.625 40.7775 31.1163 43.6007 25.2945 39.86C22.1597 37.8602 24.4224 32.2138 29.7021 29.1318Z" fill="#32303C"></path></g><path d="M102.382 59.861L91.4923 58.1906V58.1436L91.4688 58.1906H91.4216L91.4452 58.2377L84.2563 66.5661L98.9169 81.0114C99.5061 81.5996 100.52 81.2232 100.614 80.3998L102.382 59.861Z" fill="white"></path><path d="M99.5779 81.4115C99.2951 81.4115 99.0122 81.2939 98.7765 81.0821L84.0217 66.5427L91.2341 58.1907L91.1634 58.0025L91.3756 58.026L91.517 57.8613L91.5877 58.0495L102.524 59.7199L100.686 80.3763C100.639 80.8233 100.356 81.1998 99.955 81.3409C99.8608 81.388 99.7193 81.4115 99.5779 81.4115ZM84.4224 66.5427L98.9887 80.8939C99.2244 81.1292 99.5779 81.1998 99.8843 81.0821C100.191 80.9645 100.403 80.6822 100.45 80.3528L102.265 59.9787L91.5406 58.3319L84.4224 66.5427Z" fill="#111111"></path><path d="M97.88 75.9066C96.5129 76.4241 95.0987 76.4006 93.7788 75.9771L98.8699 80.9883C99.4592 81.5765 100.473 81.2001 100.567 80.3766L101.227 72.9893C100.449 74.3303 99.2706 75.389 97.88 75.9066Z" fill="#111111"></path><path d="M99.5771 81.4118C99.2942 81.4118 99.0114 81.2942 98.7757 81.0825L93.6846 76.0713C93.6374 76.0242 93.6374 75.9537 93.661 75.9066C93.6846 75.8596 93.7553 75.836 93.826 75.836C95.1695 76.2595 96.5601 76.2595 97.8329 75.7654C99.1528 75.2714 100.308 74.2597 101.086 72.8952C101.109 72.8481 101.18 72.8011 101.251 72.8246C101.321 72.8481 101.345 72.8952 101.345 72.9658L100.685 80.3531C100.638 80.8001 100.355 81.153 99.9542 81.3177C99.8363 81.3883 99.6949 81.4118 99.5771 81.4118ZM94.2738 76.2595L98.9642 80.8943C99.1999 81.1295 99.5535 81.2001 99.8599 81.0825C100.166 80.9648 100.378 80.6825 100.426 80.3531L101.038 73.5539C100.237 74.7303 99.1528 75.6008 97.9507 76.0478C96.7487 76.4712 95.4994 76.5418 94.2738 76.2595Z" fill="#111111"></path><path d="M92.9088 15.1377L102.384 59.8383C102.36 62.0028 101.135 63.9555 99.1548 64.7083C96.9157 65.5317 94.4408 64.5436 93.0502 62.4968C93.333 64.9671 92.0838 67.3198 89.8682 68.1432C87.8884 68.8725 85.6728 68.1667 84.235 66.5434L62.3149 26.4305L92.9088 15.1377Z" fill="#E7FF57"></path><path d="M65.1669 25.3721L87.2756 68.3317C86.1442 68.0964 85.06 67.4847 84.235 66.5437L62.3149 26.4308L65.1669 25.3721Z" fill="#E7FF57"></path><path d="M79.4271 20.125L95.3604 64.4962C94.4647 64.0728 93.6398 63.3905 93.0505 62.4965C93.1213 62.9905 93.0977 63.5081 93.0505 63.9786L73.9824 22.1248L79.4271 20.125Z" fill="#E7FF57"></path><path d="M92.9082 15.1377L102.383 59.8383C102.36 60.85 102.1 61.8381 101.606 62.638L89.6084 16.3376L92.9082 15.1377Z" fill="#E7FF57"></path><path d="M88.2178 68.5668C86.7093 68.5668 85.2244 67.8846 84.1166 66.6377L84.093 66.6141L62.173 26.5012C62.1494 26.4542 62.1494 26.4306 62.173 26.3836C62.1965 26.3365 62.2201 26.313 62.2672 26.2895L92.8611 15.0202C92.9082 14.9967 92.9318 15.0202 92.9789 15.0202C93.0261 15.0437 93.0496 15.0673 93.0496 15.1143L102.525 59.8149V59.8385C102.501 62.1441 101.181 64.0968 99.2014 64.8261C97.1037 65.6025 94.7231 64.8261 93.2382 62.9675C93.3325 65.3672 92.0125 67.4846 89.9148 68.261C89.3727 68.4727 88.807 68.5668 88.2178 68.5668ZM84.3523 66.473C85.7901 68.0963 87.9349 68.708 89.8205 68.0257C91.9418 67.2494 93.2146 64.9908 92.9318 62.5205C92.9318 62.4499 92.9553 62.4029 93.0261 62.3793C93.0968 62.3558 93.1675 62.3793 93.191 62.4264C94.5817 64.4732 97.0094 65.3672 99.1307 64.5908C101.016 63.9086 102.242 62.05 102.265 59.8855L92.8375 15.3496L62.5501 26.5012L84.3523 66.473Z" fill="#111111"></path><path d="M81.2564 34.8044L80.9966 34.916L92.9193 62.5542L93.1791 62.4425L81.2564 34.8044Z" fill="#111111"></path><g opacity="0.4"><path d="M93.8026 19.3721L94.2504 22.0071C94.2504 22.0071 88.8764 36.6171 69.3369 39.4168L63.2559 28.0769L93.8026 19.3721Z" fill="#32303C"></path></g><path d="M94.8176 12.3155C96.7268 18.1737 90.0329 25.561 79.8978 28.8547C69.7627 32.1249 60.0047 30.0311 58.1191 24.1965C57.9541 23.7259 56.21 18.2442 56.21 18.2442L92.9084 6.36328C92.9084 6.36328 93.427 8.03367 94.8176 12.3155Z" fill="#ABD1C6"></path><path d="M70.5396 30.5478C64.27 30.5478 59.2732 28.2658 57.9768 24.2427C57.8118 23.7722 56.0677 18.2905 56.0677 18.2905C56.0441 18.2199 56.0912 18.1258 56.1619 18.1023L92.8604 6.24483C92.9075 6.2213 92.9311 6.24483 92.9782 6.24483C93.0018 6.26836 93.049 6.29188 93.049 6.33894C93.049 6.36246 93.5675 8.05638 94.9581 12.2912C95.5709 14.1968 95.3117 16.3378 94.2275 18.4787C91.9883 22.8311 86.5436 26.8777 79.9676 28.9951C76.6914 30.0303 73.4859 30.5478 70.5396 30.5478ZM56.3976 18.314C56.6569 19.161 58.1182 23.7016 58.2597 24.1251C60.1217 29.8891 69.8325 31.9594 79.8733 28.7128C86.3787 26.6189 91.7762 22.6429 93.9682 18.3375C95.0288 16.2437 95.2881 14.1733 94.6989 12.3618C93.5439 8.78571 92.9782 7.02121 92.8368 6.55068L56.3976 18.314Z" fill="black"></path><path d="M93.5442 9.42022C93.4263 9.42022 93.3085 9.32611 93.2613 9.20848C93.2378 9.06732 93.1906 8.94969 93.1435 8.83205C93.0963 8.69089 93.1671 8.52621 93.332 8.47915C93.4735 8.4321 93.6385 8.50268 93.6856 8.66737C93.7327 8.80853 93.7799 8.94969 93.8034 9.09085C93.8506 9.23201 93.7563 9.39669 93.5913 9.44375C93.5913 9.42022 93.5677 9.42022 93.5442 9.42022Z" fill="#111111"></path><path d="M70.5158 26.6427C70.3744 26.6427 70.233 26.5251 70.233 26.3839C70.233 26.2192 70.3508 26.1016 70.4922 26.1016C70.7751 26.1016 71.0579 26.0781 71.3408 26.0546C71.5058 26.031 71.6236 26.1487 71.6472 26.3133C71.6472 26.478 71.5529 26.5957 71.3879 26.6192C71.1051 26.5957 70.8222 26.6192 70.5158 26.6427C70.5394 26.6427 70.5394 26.6427 70.5158 26.6427ZM68.206 26.6192C67.8995 26.5957 67.5931 26.5957 67.3103 26.5486C67.1453 26.5251 67.051 26.4075 67.051 26.2428C67.0746 26.0781 67.1924 25.984 67.3574 25.984C67.6403 26.0075 67.9231 26.031 68.206 26.031C68.3709 26.031 68.4888 26.1722 68.4652 26.3369C68.4888 26.5016 68.3709 26.6192 68.206 26.6192ZM73.6742 26.3133C73.5328 26.3133 73.4149 26.2192 73.3914 26.0781C73.3678 25.9134 73.4621 25.7722 73.6271 25.7487C73.9099 25.7017 74.1927 25.6546 74.4756 25.6076C74.617 25.584 74.782 25.6781 74.8055 25.8428C74.8291 26.0075 74.7348 26.1487 74.5698 26.1722C74.287 26.2192 74.0042 26.2663 73.6978 26.3133C73.7213 26.3133 73.6978 26.3133 73.6742 26.3133ZM65.0711 26.2428C65.0476 26.2428 65.024 26.2428 65.024 26.2428C64.7412 26.1722 64.4348 26.1251 64.1755 26.0546C64.0341 26.0075 63.9398 25.8663 63.9634 25.7017C64.0105 25.5605 64.1519 25.4664 64.3169 25.4899C64.5762 25.5605 64.859 25.6311 65.1419 25.6781C65.2833 25.7017 65.4011 25.8663 65.354 26.0075C65.3068 26.1487 65.189 26.2428 65.0711 26.2428ZM76.7854 25.6781C76.6676 25.6781 76.5497 25.584 76.5026 25.4664C76.4554 25.3252 76.5497 25.1605 76.7147 25.1135C76.9976 25.0429 77.2568 24.9723 77.5397 24.8782C77.6811 24.8312 77.8461 24.9253 77.8932 25.0664C77.9404 25.2076 77.8461 25.3723 77.7047 25.4193C77.4218 25.4899 77.139 25.584 76.8561 25.6546C76.8326 25.6781 76.809 25.6781 76.7854 25.6781ZM62.0306 25.3017C61.9835 25.3017 61.9599 25.3017 61.9128 25.2782C61.6299 25.1605 61.3707 25.0194 61.1114 24.9018C60.97 24.8312 60.9228 24.6665 60.9935 24.5253C61.0643 24.3842 61.2292 24.3371 61.3707 24.4077C61.6064 24.5253 61.8656 24.6665 62.1249 24.7841C62.2663 24.8547 62.337 25.0194 62.2663 25.1605C62.2428 25.2311 62.1485 25.3017 62.0306 25.3017ZM79.826 24.7371C79.7081 24.7371 79.5903 24.6665 79.5667 24.5489C79.5195 24.4077 79.5903 24.243 79.7317 24.196C79.9909 24.1018 80.2738 24.0077 80.5331 23.8901C80.6745 23.8431 80.8395 23.9136 80.9102 24.0548C80.9573 24.196 80.8866 24.3606 80.7452 24.4312C80.4859 24.5489 80.2031 24.643 79.9202 24.7371C79.8967 24.7371 79.8731 24.7371 79.826 24.7371ZM59.3436 23.6313C59.2729 23.6313 59.2022 23.6078 59.1551 23.5607C58.9194 23.349 58.7073 23.1373 58.5187 22.9255C58.4244 22.8079 58.4244 22.6197 58.5423 22.5256C58.6601 22.4315 58.8487 22.4315 58.943 22.5491C59.1315 22.7608 59.3201 22.949 59.5322 23.1373C59.6501 23.2314 59.6501 23.4196 59.5558 23.5372C59.5086 23.6078 59.4379 23.6313 59.3436 23.6313ZM82.7722 23.5137C82.6779 23.5137 82.5601 23.4431 82.5129 23.349C82.4422 23.2078 82.5129 23.0431 82.6544 22.9726C82.9136 22.8549 83.1729 22.7138 83.4322 22.5961C83.5736 22.5256 83.7386 22.5726 83.8093 22.7138C83.88 22.8549 83.8329 23.0196 83.6914 23.0902C83.4322 23.2314 83.1729 23.349 82.9136 23.4666C82.8429 23.5137 82.7958 23.5137 82.7722 23.5137ZM85.5535 22.008C85.4592 22.008 85.3649 21.9609 85.3178 21.8668C85.2471 21.7257 85.2706 21.561 85.412 21.4669C85.6477 21.3257 85.907 21.161 86.1427 20.9963C86.2841 20.9022 86.4491 20.9493 86.5434 21.0669C86.6377 21.2081 86.5905 21.3728 86.4727 21.4669C86.237 21.6316 85.9777 21.7727 85.742 21.9374C85.6477 21.9845 85.6006 22.008 85.5535 22.008ZM88.1462 20.1729C88.0519 20.1729 87.9812 20.1258 87.934 20.0553C87.8397 19.9376 87.8633 19.7494 87.9812 19.6553C88.2169 19.4671 88.429 19.3024 88.6411 19.1142C88.759 19.0201 88.9475 19.0201 89.0418 19.1377C89.1361 19.2554 89.1361 19.4436 89.0182 19.5377C88.8061 19.7259 88.5704 19.9141 88.3347 20.1023C88.264 20.1494 88.2169 20.1729 88.1462 20.1729ZM90.4796 18.032C90.4089 18.032 90.3382 18.0084 90.291 17.9614C90.1732 17.8673 90.1732 17.6791 90.2675 17.5614C90.456 17.3497 90.6446 17.138 90.8331 16.9262C90.9274 16.8086 91.116 16.7851 91.2338 16.8792C91.3517 16.9733 91.3752 17.1615 91.281 17.2791C91.0924 17.4909 90.9039 17.7261 90.6917 17.9379C90.621 17.9849 90.5503 18.032 90.4796 18.032ZM92.3652 15.4911C92.318 15.4911 92.2709 15.4676 92.2238 15.444C92.0823 15.3735 92.0352 15.1853 92.1295 15.0676C92.2709 14.8324 92.4123 14.5736 92.5302 14.3148C92.6009 14.1736 92.7659 14.1266 92.9073 14.1971C93.0487 14.2677 93.0959 14.4324 93.0251 14.5736C92.9073 14.8324 92.7659 15.0911 92.6009 15.3499C92.5537 15.444 92.4595 15.4911 92.3652 15.4911ZM93.5673 12.5503C93.5437 12.5503 93.5201 12.5503 93.4965 12.5503C93.3551 12.5267 93.2373 12.3621 93.2844 12.2209C93.3551 11.9386 93.3787 11.6798 93.4258 11.3975C93.4494 11.2328 93.5673 11.1387 93.7322 11.1387C93.8972 11.1622 93.9915 11.3034 93.9915 11.4445C93.9679 11.7268 93.9208 12.0327 93.8501 12.3385C93.803 12.4797 93.6851 12.5503 93.5673 12.5503Z" fill="#111111"></path><path d="M57.5058 21.0658C57.388 21.0658 57.2937 20.9952 57.2466 20.8776C57.1994 20.7364 57.1523 20.5953 57.1052 20.4541C57.058 20.313 57.1287 20.1483 57.2937 20.1012C57.4351 20.0542 57.6001 20.1248 57.6473 20.2894C57.6944 20.4071 57.7415 20.5482 57.7887 20.6659C57.8358 20.807 57.7651 20.9717 57.6237 21.0423C57.5766 21.0658 57.553 21.0658 57.5058 21.0658Z" fill="#111111"></path><path d="M92.9084 6.36225C94.8176 12.2204 88.1237 19.6077 77.9886 22.9015C67.8535 26.1717 58.0956 24.0778 56.21 18.2432C54.3008 12.3851 60.9947 4.9977 71.1298 1.70398C81.2648 -1.56623 91.0228 0.504118 92.9084 6.36225Z" fill="#FFDDF3"></path><path d="M68.6312 24.5951C67.0049 24.5951 65.4493 24.4304 63.9879 24.1246C59.816 23.2306 57.0112 21.1602 56.0684 18.2664C54.1592 12.3377 60.8767 4.85626 71.0589 1.56253C75.985 -0.0372812 80.9819 -0.413707 85.1066 0.456779C89.2785 1.35079 92.0833 3.42113 93.0261 6.31491C94.9353 12.2436 88.2179 19.7251 78.0356 23.0188C74.8537 24.0775 71.6246 24.5951 68.6312 24.5951ZM80.5105 0.292091C77.5407 0.292091 74.3351 0.809677 71.1768 1.84485C61.1359 5.09152 54.4892 12.4318 56.3512 18.1959C57.2469 20.972 59.981 22.9953 64.0586 23.8658C68.1598 24.7363 73.0859 24.3598 77.9649 22.7836C88.0057 19.5369 94.6525 12.1966 92.7904 6.43254C91.8948 3.6564 89.1607 1.63311 85.083 0.762624C83.6453 0.433251 82.1132 0.292091 80.5105 0.292091Z" fill="black"></path><path d="M68.3468 24.0539C68.1818 24.0539 68.064 23.9127 68.064 23.7716C68.064 23.6069 68.2054 23.4893 68.3468 23.4893C68.5118 23.4893 68.6296 23.6304 68.6296 23.7716C68.6296 23.9363 68.5118 24.0539 68.3468 24.0539ZM69.5017 23.7716C69.5017 23.6069 69.6196 23.4893 69.7846 23.4893C69.9496 23.4893 70.0674 23.6069 70.0674 23.7716C70.0674 23.9363 69.9496 24.0539 69.7846 24.0539C69.7846 24.0539 69.7846 24.0539 69.761 24.0539C69.6196 24.0304 69.5017 23.9127 69.5017 23.7716ZM66.909 23.9833C66.744 23.9833 66.6262 23.8422 66.6498 23.6775C66.6498 23.5128 66.7912 23.3951 66.9562 23.4187C67.1212 23.4187 67.239 23.5598 67.2154 23.7245C67.2154 23.8892 67.074 23.9833 66.909 23.9833C66.9326 23.9833 66.909 23.9833 66.909 23.9833ZM70.9159 23.701C70.8924 23.5363 71.0102 23.4187 71.1752 23.3951C71.3402 23.3716 71.458 23.4893 71.4816 23.6539C71.5052 23.8186 71.3873 23.9363 71.2223 23.9598H71.1988C71.0573 23.9363 70.9395 23.8422 70.9159 23.701ZM65.4713 23.8186C65.3063 23.7951 65.212 23.6539 65.2356 23.4893C65.2591 23.3246 65.4006 23.2305 65.5655 23.254C65.7305 23.2775 65.8248 23.4187 65.8012 23.5834C65.7777 23.7245 65.6598 23.8186 65.5184 23.8186C65.5184 23.8422 65.4948 23.8186 65.4713 23.8186ZM72.3301 23.5363C72.3066 23.3951 72.4244 23.2305 72.5658 23.2069C72.7308 23.1834 72.8722 23.301 72.8958 23.4422C72.9194 23.6069 72.8015 23.748 72.6601 23.7716C72.6365 23.7716 72.6365 23.7716 72.613 23.7716C72.4715 23.7716 72.3537 23.6775 72.3301 23.5363ZM64.0571 23.5598C63.9156 23.5128 63.7978 23.3716 63.8449 23.2305C63.8685 23.0893 64.0335 22.9952 64.1749 23.0187C64.3163 23.0422 64.4106 23.2069 64.387 23.3481C64.3635 23.4893 64.2456 23.5598 64.1042 23.5598C64.1042 23.5598 64.0806 23.5598 64.0571 23.5598ZM73.7443 23.301C73.7208 23.1599 73.815 22.9952 73.9565 22.9717C74.0979 22.9481 74.2629 23.0422 74.2864 23.2069C74.31 23.3481 74.2157 23.5128 74.0743 23.5363C74.0507 23.5363 74.0272 23.5363 74.0272 23.5363C73.8857 23.5363 73.7679 23.4422 73.7443 23.301ZM75.135 23.0187C75.0878 22.8776 75.2057 22.7129 75.3471 22.6893C75.4885 22.6423 75.6535 22.7364 75.7006 22.9011C75.7478 23.0422 75.6535 23.2069 75.4885 23.2305C75.4649 23.2305 75.4414 23.2305 75.4178 23.2305C75.2764 23.2305 75.1585 23.1599 75.135 23.0187ZM62.6664 23.1834C62.525 23.1364 62.4307 22.9717 62.4779 22.8305C62.525 22.6893 62.69 22.5952 62.8314 22.6423C62.9728 22.6893 63.0671 22.854 63.02 22.9952C62.9728 23.1128 62.8786 23.1834 62.7607 23.1834C62.7136 23.1834 62.69 23.1834 62.6664 23.1834ZM76.5256 22.6658C76.4784 22.5247 76.5727 22.36 76.7141 22.3129C76.8556 22.2659 77.0206 22.36 77.0677 22.5011C77.1148 22.6423 77.0206 22.807 76.8791 22.854C76.8556 22.854 76.832 22.854 76.8084 22.854C76.667 22.8776 76.5492 22.807 76.5256 22.6658ZM61.2994 22.6423C61.158 22.5717 61.0872 22.407 61.158 22.2659C61.2287 22.1247 61.3937 22.0541 61.5351 22.1247C61.6765 22.1953 61.7472 22.36 61.6765 22.5011C61.6294 22.5952 61.5351 22.6658 61.4172 22.6658C61.3937 22.6658 61.3465 22.6658 61.2994 22.6423ZM77.8691 22.2659C77.8219 22.1247 77.8926 21.96 78.0576 21.913C78.1991 21.8659 78.364 21.9365 78.4112 22.1012C78.4583 22.2423 78.3876 22.407 78.2226 22.4541C78.1991 22.4541 78.1519 22.4776 78.1283 22.4776C78.0341 22.4541 77.9162 22.3835 77.8691 22.2659ZM60.0266 21.96C59.8852 21.8894 59.8616 21.7012 59.9323 21.5601C60.0266 21.4189 60.1916 21.3954 60.333 21.466C60.4744 21.5601 60.498 21.7248 60.4273 21.8659C60.3801 21.96 60.2859 22.0071 60.1916 22.0071C60.1209 22.0071 60.0737 21.9835 60.0266 21.96ZM79.2126 21.7953C79.1654 21.6542 79.2361 21.4895 79.3776 21.4424C79.519 21.3954 79.684 21.466 79.7547 21.6071C79.8018 21.7483 79.7311 21.913 79.5897 21.9835C79.5661 21.9835 79.519 22.0071 79.4954 22.0071C79.3776 21.96 79.2597 21.913 79.2126 21.7953ZM80.5325 21.2542C80.4618 21.1131 80.5325 20.9484 80.6739 20.8778C80.8153 20.8072 80.9803 20.8778 81.051 21.019C81.1217 21.1601 81.051 21.3248 80.9096 21.3954C80.8625 21.4189 80.8389 21.4189 80.7918 21.4189C80.6975 21.4424 80.5796 21.3719 80.5325 21.2542ZM58.8481 21.0895C58.7302 20.9954 58.7067 20.8072 58.8245 20.6896C58.9188 20.5719 59.1074 20.5719 59.2252 20.6661C59.3431 20.7602 59.3666 20.9484 59.2488 21.066C59.2016 21.1366 59.1074 21.1601 59.0367 21.1601C58.9659 21.1601 58.8952 21.1366 58.8481 21.0895ZM81.8288 20.6661C81.7581 20.5249 81.8053 20.3602 81.9467 20.2896C82.0881 20.2191 82.2531 20.2896 82.3238 20.4308C82.3945 20.5719 82.3238 20.7366 82.1824 20.8072C82.1352 20.8307 82.1117 20.8307 82.0645 20.8307C81.9938 20.8307 81.8995 20.7837 81.8288 20.6661ZM83.1016 20.0308C83.0309 19.8897 83.078 19.725 83.2195 19.6544C83.3609 19.5838 83.5259 19.6309 83.5966 19.772C83.6673 19.9132 83.6201 20.0779 83.4787 20.1485C83.4316 20.172 83.3844 20.1955 83.3373 20.1955C83.243 20.172 83.1487 20.1249 83.1016 20.0308ZM57.8346 20.0073C57.7403 19.8897 57.7639 19.7015 57.8817 19.6074C57.9996 19.5133 58.1881 19.5368 58.2824 19.6544C58.3767 19.772 58.3531 19.9603 58.2353 20.0544C58.1881 20.1014 58.1174 20.1249 58.0703 20.1249C57.976 20.1249 57.8817 20.0779 57.8346 20.0073ZM84.3273 19.325C84.2565 19.1839 84.2801 19.0192 84.4215 18.9251C84.5629 18.8545 84.7279 18.878 84.8222 19.0192C84.8929 19.1604 84.8694 19.325 84.7279 19.4191C84.6808 19.4427 84.6337 19.4662 84.5865 19.4662C84.4922 19.4427 84.398 19.3956 84.3273 19.325ZM57.0568 18.7604C56.9861 18.6192 57.0568 18.4546 57.1982 18.384C57.3396 18.3134 57.5046 18.384 57.5753 18.5251C57.646 18.6663 57.5753 18.831 57.4339 18.9016C57.3868 18.9251 57.3632 18.9251 57.316 18.9251C57.2218 18.9251 57.1039 18.8545 57.0568 18.7604ZM85.5293 18.5487C85.435 18.4075 85.4586 18.2428 85.6 18.1487C85.7179 18.0546 85.9064 18.0781 86.0007 18.2193C86.095 18.3369 86.0714 18.5251 85.93 18.6192C85.8829 18.6428 85.8122 18.6663 85.765 18.6663C85.6707 18.6663 85.5765 18.6192 85.5293 18.5487ZM86.6842 17.7017C86.59 17.5841 86.6135 17.3959 86.7314 17.3017C86.8492 17.2076 87.0378 17.2312 87.1321 17.3488C87.2264 17.4664 87.2028 17.6546 87.0849 17.7488C87.0378 17.7958 86.9671 17.8193 86.92 17.8193C86.8257 17.7958 86.7314 17.7723 86.6842 17.7017ZM56.6089 17.3488C56.5854 17.2076 56.6797 17.043 56.8211 17.0194C56.9625 16.9959 57.1275 17.09 57.1511 17.2312C57.1746 17.3723 57.0803 17.537 56.9389 17.5605C56.9154 17.5605 56.8918 17.5605 56.8918 17.5605C56.7504 17.5605 56.6325 17.4664 56.6089 17.3488ZM87.7685 16.7842C87.6506 16.6665 87.6742 16.4783 87.792 16.3842C87.9099 16.2901 88.0749 16.2901 88.1927 16.4077C88.3106 16.5254 88.287 16.6901 88.1692 16.8077C88.122 16.8547 88.0513 16.8783 87.9806 16.8783C87.9099 16.8783 87.8392 16.8547 87.7685 16.7842ZM56.7504 16.1489C56.5854 16.1489 56.4675 16.0078 56.4675 15.8666C56.4675 15.7019 56.6089 15.5843 56.7504 15.5843C56.9154 15.5843 57.0332 15.7255 57.0332 15.8666C57.0332 16.0313 56.9154 16.1489 56.7504 16.1489ZM88.8055 15.8196C88.6877 15.7255 88.6877 15.5372 88.8055 15.4196C88.9234 15.302 89.0884 15.302 89.2062 15.4196C89.3241 15.5372 89.3241 15.7019 89.2062 15.8196C89.1591 15.8902 89.0648 15.9137 88.9941 15.9137C88.9234 15.8901 88.8527 15.8666 88.8055 15.8196ZM89.7483 14.7609C89.6305 14.6668 89.6069 14.4785 89.7012 14.3609C89.7955 14.2433 89.984 14.2198 90.1019 14.3139C90.2197 14.408 90.2433 14.5962 90.149 14.7138C90.1019 14.7844 90.0076 14.8079 89.9369 14.8079C89.8662 14.8079 89.8191 14.8079 89.7483 14.7609ZM56.8682 14.7373C56.7268 14.7138 56.6089 14.5491 56.6561 14.408C56.6797 14.2668 56.8446 14.1492 56.9861 14.1962C57.1275 14.2198 57.2218 14.3844 57.1982 14.5256C57.1746 14.6668 57.0568 14.7373 56.9154 14.7373C56.9154 14.7609 56.8918 14.7373 56.8682 14.7373ZM90.6204 13.6316C90.479 13.5375 90.4554 13.3728 90.5262 13.2316C90.6204 13.0905 90.7854 13.067 90.9268 13.1375C91.0683 13.2316 91.0918 13.3963 91.0211 13.5375C90.974 13.6316 90.8797 13.6786 90.7854 13.6786C90.7147 13.6551 90.6676 13.6551 90.6204 13.6316ZM57.2453 13.3728C57.1039 13.3257 57.0332 13.1611 57.0803 12.9964C57.1275 12.8552 57.2925 12.7846 57.4575 12.8317C57.5989 12.8787 57.6696 13.0434 57.6225 13.2081C57.5753 13.3257 57.481 13.3963 57.3632 13.3963C57.316 13.3963 57.2925 13.3963 57.2453 13.3728ZM91.3511 12.4082C91.2097 12.3376 91.1625 12.1729 91.2097 12.0318C91.2804 11.8906 91.4454 11.82 91.5868 11.8906C91.7282 11.9612 91.7754 12.1259 91.7282 12.267C91.6811 12.3612 91.5868 12.4317 91.469 12.4317C91.4218 12.4317 91.3747 12.4317 91.3511 12.4082ZM57.8346 12.0788C57.6932 12.0083 57.646 11.82 57.7403 11.7024C57.811 11.5612 57.9996 11.5142 58.1174 11.5848C58.2588 11.6554 58.306 11.8436 58.2353 11.9612C58.1881 12.0553 58.0939 12.1024 57.976 12.1024C57.9289 12.1259 57.8817 12.1024 57.8346 12.0788ZM91.9168 11.0907C91.7754 11.0437 91.6811 10.879 91.7282 10.7378C91.7754 10.5967 91.9404 10.5025 92.0818 10.5496C92.2232 10.5967 92.3175 10.7613 92.2703 10.9025C92.2232 11.0201 92.1289 11.0907 92.0111 11.0907C91.9639 11.1142 91.9404 11.1142 91.9168 11.0907ZM58.5888 10.879C58.471 10.7849 58.4238 10.6202 58.5181 10.479C58.6124 10.3614 58.7774 10.3143 58.9188 10.4084C59.0367 10.5026 59.0838 10.6672 58.9895 10.8084C58.9424 10.879 58.8481 10.926 58.7538 10.926C58.6831 10.926 58.636 10.9025 58.5888 10.879ZM59.4609 9.7497C59.3431 9.65559 59.3195 9.46738 59.4373 9.34974C59.5316 9.23211 59.7202 9.20858 59.838 9.32622C59.9559 9.42032 59.9795 9.60854 59.8616 9.72617C59.8145 9.79675 59.7202 9.82028 59.6495 9.82028C59.5788 9.82028 59.5081 9.79675 59.4609 9.7497ZM92.2703 9.72617C92.1053 9.70264 92.0111 9.56148 92.0346 9.42032C92.0582 9.25564 92.1996 9.16153 92.341 9.18506C92.4825 9.20858 92.6003 9.34974 92.5767 9.4909C92.5532 9.63206 92.4353 9.72617 92.2939 9.72617C92.2939 9.72617 92.2939 9.72617 92.2703 9.72617ZM60.4037 8.691C60.2859 8.57337 60.2859 8.40868 60.4037 8.29104C60.5216 8.17341 60.6866 8.17341 60.8044 8.29104C60.9223 8.40868 60.9223 8.57337 60.8044 8.691C60.7573 8.73805 60.6866 8.76158 60.6158 8.76158C60.5451 8.7851 60.4744 8.76158 60.4037 8.691ZM92.0582 8.05578C92.0346 7.89109 92.1525 7.77346 92.3175 7.74993C92.4825 7.72641 92.6003 7.84404 92.6239 8.00873C92.6475 8.17341 92.5296 8.29104 92.3646 8.31457H92.341C92.1996 8.31457 92.0818 8.19694 92.0582 8.05578ZM61.4408 7.72641C61.3465 7.60877 61.3465 7.42056 61.4644 7.32645C61.5822 7.23235 61.7708 7.23235 61.8651 7.34998C61.9593 7.46761 61.9593 7.65583 61.8415 7.74993C61.7943 7.79699 61.7236 7.82051 61.6529 7.82051C61.5822 7.82051 61.5115 7.79699 61.4408 7.72641ZM62.5486 6.80887C62.4543 6.69123 62.4779 6.50302 62.5957 6.40891C62.7136 6.31481 62.9021 6.33834 62.9964 6.45597C63.0907 6.5736 63.0671 6.76181 62.9493 6.85592C62.9021 6.90297 62.8314 6.90297 62.7843 6.90297C62.69 6.9265 62.5957 6.90297 62.5486 6.80887ZM91.7989 6.73829C91.7989 6.71476 91.7989 6.71476 91.7989 6.73829C91.7989 6.71476 91.7989 6.71476 91.7989 6.71476C91.7518 6.5736 91.8225 6.40891 91.9875 6.36186C92.1289 6.31481 92.2939 6.38539 92.341 6.55007C92.341 6.55007 92.341 6.55007 92.341 6.5736C92.3882 6.71476 92.3175 6.87945 92.1525 6.9265C92.1289 6.9265 92.0818 6.95003 92.0582 6.95003C91.9404 6.9265 91.8461 6.85592 91.7989 6.73829ZM63.7035 5.98544C63.6092 5.84428 63.6564 5.67959 63.7742 5.58548C63.9156 5.49137 64.0806 5.53843 64.1749 5.65606C64.2692 5.79722 64.2221 5.96191 64.1042 6.05601C64.0571 6.07954 64.0099 6.10307 63.9392 6.10307C63.8449 6.10307 63.7507 6.07954 63.7035 5.98544ZM91.2333 5.46785C91.1625 5.32669 91.1861 5.162 91.3275 5.0679C91.469 4.99732 91.6339 5.02084 91.7047 5.162C91.7754 5.30316 91.7518 5.46785 91.6104 5.53843C91.5632 5.56196 91.5161 5.58548 91.469 5.58548C91.3747 5.60901 91.2804 5.56195 91.2333 5.46785ZM64.9056 5.20906C64.8349 5.0679 64.8584 4.90321 64.9999 4.83263C65.1413 4.76205 65.3063 4.78558 65.377 4.92674C65.4477 5.0679 65.4006 5.23258 65.2827 5.30316C65.2356 5.32669 65.1884 5.35022 65.1413 5.35022C65.047 5.35022 64.9527 5.30316 64.9056 5.20906ZM66.1312 4.50326C66.0605 4.3621 66.1077 4.19741 66.2491 4.12683C66.3905 4.05625 66.5555 4.1033 66.6262 4.24446C66.6969 4.38562 66.6498 4.55031 66.5083 4.62089C66.4612 4.64442 66.4141 4.64442 66.3669 4.64442C66.2726 4.66794 66.1784 4.59736 66.1312 4.50326ZM90.3847 4.40915C90.2669 4.29152 90.2905 4.12683 90.3847 4.0092C90.5026 3.89156 90.6676 3.91509 90.7854 4.0092C90.9033 4.12683 90.8797 4.29152 90.7854 4.40915C90.7383 4.4562 90.6676 4.47973 90.5969 4.47973C90.5262 4.47973 90.4554 4.4562 90.3847 4.40915ZM67.404 3.86804C67.3333 3.72688 67.404 3.56219 67.5454 3.49161C67.6868 3.42103 67.8518 3.49161 67.9225 3.63277C67.9933 3.77393 67.9225 3.93862 67.7811 4.0092C67.734 4.03272 67.7104 4.03272 67.6633 4.03272C67.5454 4.03272 67.4511 3.96214 67.404 3.86804ZM89.3712 3.49161C89.2534 3.3975 89.2298 3.23282 89.3005 3.09166C89.3948 2.97403 89.5598 2.9505 89.7012 3.02108C89.8191 3.11518 89.8426 3.27987 89.7719 3.42103C89.7248 3.49161 89.6305 3.53867 89.5362 3.53867C89.4655 3.56219 89.4184 3.53866 89.3712 3.49161ZM68.7004 3.27987C68.6532 3.13871 68.7003 2.97402 68.8653 2.90344C69.0068 2.83286 69.1718 2.90345 69.2425 3.06813C69.3132 3.20929 69.2425 3.37398 69.101 3.44456C69.0775 3.46808 69.0303 3.46808 68.9832 3.46808C68.8653 3.46808 68.7475 3.39751 68.7004 3.27987ZM70.0203 2.76229C69.9731 2.62113 70.0438 2.45644 70.1853 2.40939C70.3267 2.36233 70.4917 2.43291 70.5388 2.57407C70.5859 2.71523 70.5152 2.87992 70.3738 2.92697C70.3502 2.92697 70.3031 2.9505 70.2795 2.9505C70.1853 2.9505 70.0674 2.87992 70.0203 2.76229ZM88.1927 2.76229C88.0513 2.69171 88.0042 2.52702 88.0749 2.38586C88.1456 2.2447 88.3106 2.19765 88.452 2.26823C88.5934 2.33881 88.6406 2.50349 88.5699 2.64465C88.5227 2.73876 88.4284 2.78581 88.3106 2.78581C88.287 2.80934 88.2399 2.78581 88.1927 2.76229ZM71.3638 2.29175C71.3166 2.15059 71.4109 1.98591 71.5523 1.93885C71.6937 1.8918 71.8587 1.98591 71.9059 2.12707C71.953 2.26823 71.8587 2.43291 71.7173 2.47997C71.6937 2.47997 71.6702 2.50349 71.6466 2.50349C71.5287 2.50349 71.4109 2.40939 71.3638 2.29175ZM86.92 2.19765C86.7785 2.15059 86.7078 1.98591 86.755 1.82122C86.8021 1.68006 86.9671 1.60948 87.1085 1.65653C87.2499 1.70359 87.3206 1.86827 87.2735 2.03296C87.2264 2.15059 87.1321 2.22117 87.0142 2.22117C86.9907 2.22117 86.9671 2.19765 86.92 2.19765ZM72.7308 1.8918C72.6837 1.75064 72.778 1.58595 72.9429 1.5389C73.0844 1.49185 73.2494 1.58595 73.2965 1.75064C73.3436 1.8918 73.2494 2.05649 73.0844 2.10354C73.0608 2.10354 73.0372 2.10354 73.0137 2.10354C72.8958 2.10354 72.778 2.00943 72.7308 1.8918ZM85.6 1.75064C85.4586 1.70359 85.3643 1.56243 85.4115 1.39774C85.4586 1.25658 85.6 1.16247 85.765 1.20953C85.9064 1.25658 86.0007 1.39774 85.9536 1.56243C85.9064 1.68006 85.8122 1.77417 85.6707 1.77417C85.6472 1.77417 85.6236 1.77417 85.6 1.75064ZM74.1214 1.5389C74.0979 1.39774 74.1922 1.23305 74.3336 1.20953C74.475 1.186 74.64 1.28011 74.6636 1.42127C74.6871 1.56243 74.5928 1.72711 74.4514 1.75064C74.4279 1.75064 74.4043 1.75064 74.3807 1.75064C74.2629 1.77417 74.145 1.68006 74.1214 1.5389ZM75.5121 1.25658C75.4885 1.11542 75.5828 0.950735 75.7478 0.927209C75.8892 0.903682 76.0542 0.997789 76.0778 1.16248C76.1013 1.30364 76.007 1.46832 75.8421 1.49185C75.8185 1.49185 75.8185 1.49185 75.7949 1.49185C75.6535 1.49185 75.5356 1.39774 75.5121 1.25658ZM84.233 1.44479C84.0915 1.42127 83.9737 1.28011 84.0208 1.11542C84.0444 0.950734 84.1858 0.856628 84.3508 0.880155C84.4922 0.903681 84.6101 1.04484 84.5865 1.20953C84.5629 1.35069 84.4451 1.44479 84.3037 1.44479C84.2801 1.44479 84.2565 1.44479 84.233 1.44479ZM76.9263 1.04484C76.9027 0.880156 77.0206 0.762522 77.162 0.738995C77.327 0.715468 77.4684 0.833101 77.4684 0.997788C77.492 1.13895 77.3741 1.28011 77.2091 1.30363H77.1855C77.0677 1.30363 76.9498 1.186 76.9263 1.04484ZM82.8423 1.23305C82.6774 1.20953 82.5831 1.06837 82.5831 0.927209C82.6066 0.762522 82.7481 0.668414 82.8895 0.668414C83.0545 0.691941 83.1488 0.833102 83.1488 0.974261C83.1252 1.11542 83.0073 1.23305 82.8659 1.23305C82.8659 1.23305 82.8659 1.23305 82.8423 1.23305ZM78.3405 0.903681C78.3405 0.738994 78.4348 0.621362 78.5997 0.597836C78.7647 0.597836 78.8826 0.715468 78.9062 0.856628C78.9062 1.02131 78.7883 1.13895 78.6469 1.16248C78.6469 1.16248 78.6469 1.16248 78.6233 1.16248C78.4819 1.16248 78.3405 1.04484 78.3405 0.903681ZM81.4517 1.13895C81.2867 1.13895 81.1689 0.997788 81.1924 0.856628C81.1924 0.691942 81.3339 0.574309 81.4753 0.597836C81.6403 0.597836 81.7581 0.738995 81.7346 0.880155C81.7346 0.997788 81.6167 1.13895 81.4517 1.13895ZM79.7547 0.833102C79.7547 0.668416 79.8725 0.550781 80.0375 0.550781C80.2025 0.550781 80.3204 0.668416 80.3204 0.833102C80.3204 0.997788 80.2025 1.11542 80.0375 1.11542C79.8961 1.11542 79.7547 0.974262 79.7547 0.833102Z" fill="#111111"></path><path d="M89.4663 7.53848C90.8334 11.7498 85.2709 17.3256 77.0685 19.9841C68.8426 22.6426 61.0881 21.3721 59.721 17.1609C58.3539 12.9496 63.9164 7.3738 72.1188 4.71529C80.3212 2.05678 88.0992 3.32722 89.4663 7.53848Z" fill="#111111"></path><path d="M68.7479 21.5134C67.7109 21.5134 66.7209 21.4428 65.7781 21.2781C62.4548 20.737 60.2392 19.2784 59.5556 17.208C58.165 12.9262 63.7747 7.27978 72.0477 4.59774C80.3208 1.91571 88.1932 3.2332 89.5838 7.51505C90.9744 11.7969 85.3648 17.4433 77.0917 20.1253C74.2397 21.0429 71.3642 21.5134 68.7479 21.5134ZM80.4151 3.46846C77.8931 3.46846 75.0411 3.91547 72.142 4.85654C64.0104 7.49152 58.495 12.9968 59.8149 17.1139C60.4513 19.0901 62.5962 20.4782 65.8017 20.9958C69.0543 21.5134 73.0377 21.1134 76.9739 19.843C85.1055 17.208 90.6209 11.7028 89.301 7.58562C88.4524 4.92711 84.9641 3.46846 80.4151 3.46846Z" fill="#111111"></path><path d="M87.8412 7.27975C89.0904 11.0911 84.0464 16.1493 76.5983 18.549C69.1502 20.9487 62.1027 19.8194 60.8535 15.9846C59.6043 12.1733 64.6483 7.11506 72.0964 4.71535C79.5681 2.31563 86.592 3.44491 87.8412 7.27975Z" fill="#B9A0FF"></path><path d="M69.0801 19.9608C68.1373 19.9608 67.2416 19.8902 66.3931 19.7491C63.3761 19.255 61.3491 17.9375 60.7363 16.0319C59.4635 12.15 64.5546 6.99763 72.0735 4.57438C79.5923 2.15114 86.734 3.32747 87.9832 7.20937C89.256 11.0913 84.1649 16.2436 76.646 18.6668C74.0534 19.5373 71.4371 19.9608 69.0801 19.9608ZM79.6394 3.60979C77.3531 3.60979 74.7604 4.00974 72.1442 4.8567C64.7668 7.23289 59.7699 12.2205 60.9956 15.9613C61.5848 17.7493 63.494 18.9962 66.4167 19.4667C69.3629 19.9373 72.9691 19.5609 76.5518 18.408C83.9292 16.0319 88.926 11.0442 87.7004 7.30347C86.9226 4.90376 83.7642 3.60979 79.6394 3.60979Z" fill="black"></path><path d="M80.8641 6.92652C80.8641 8.03227 79.9684 8.92629 78.8606 8.92629C77.7528 8.92629 76.8572 8.03227 76.8572 6.92652C76.8572 5.82077 77.7528 4.92676 78.8606 4.92676C79.9684 4.92676 80.8641 5.82077 80.8641 6.92652Z" fill="white"></path><path d="M76.1731 7.42049C76.3381 7.89102 75.631 8.57329 74.5704 8.94972C73.5097 9.32614 72.5434 9.23204 72.3784 8.7615C72.2134 8.29097 72.9205 7.6087 73.9811 7.23227C75.0182 6.85585 76.0081 6.94995 76.1731 7.42049Z" fill="white"></path><g opacity="0.4"><path d="M65.8024 7.77344C65.8024 7.77344 74.7826 9.27914 75.7254 19.4191C75.7254 19.4191 67.2166 22.2423 61.3948 18.5016C58.26 16.5018 60.5227 10.8554 65.8024 7.77344Z" fill="#32303C"></path></g><g opacity="0.4"><path d="M66.4249 31.084C66.4249 31.084 68.0748 37.0362 62.8423 40.8005L72.2467 36.0246L70.6439 31.7663C70.6439 31.7663 68.2398 31.8133 66.4249 31.084Z" fill="#32303C"></path></g><path d="M63.3841 60.9395C63.3369 60.9395 63.2898 60.9159 63.2662 60.8689C63.2191 60.7983 63.2427 60.7042 63.3134 60.6807L64.5626 59.9984C64.6333 59.9513 64.7276 59.9749 64.7511 60.0455C64.7983 60.116 64.7747 60.2101 64.704 60.2337L63.4548 60.9159C63.4312 60.9159 63.4076 60.9395 63.3841 60.9395ZM66.6132 59.175C66.566 59.175 66.5189 59.1514 66.4953 59.1044C66.4482 59.0338 66.4717 58.9397 66.5425 58.9162L67.7917 58.2339C67.8624 58.1868 67.9567 58.2339 67.9802 58.281C68.0274 58.3515 68.0038 58.4456 67.9331 58.4692L66.6839 59.1514C66.6603 59.175 66.6367 59.175 66.6132 59.175ZM69.8422 57.4105C69.7951 57.4105 69.748 57.3869 69.7244 57.3399C69.6773 57.2693 69.7244 57.1752 69.7715 57.1517L71.0207 56.4694C71.0915 56.4224 71.1857 56.4459 71.2093 56.5165C71.2565 56.587 71.2329 56.6811 71.1622 56.7047L69.913 57.3869C69.8894 57.4105 69.8658 57.4105 69.8422 57.4105ZM73.0713 55.6695C73.0242 55.6695 72.9771 55.646 72.9535 55.5989C72.9063 55.5283 72.9299 55.4342 73.0006 55.4107L74.2498 54.7284C74.3205 54.6814 74.4148 54.7284 74.4384 54.7755C74.4855 54.8461 74.462 54.9402 74.3913 54.9637L73.142 55.646C73.1185 55.6695 73.0949 55.6695 73.0713 55.6695ZM76.3004 53.905C76.2533 53.905 76.2062 53.8815 76.1826 53.8344C76.1354 53.7638 76.159 53.6697 76.2297 53.6462L77.4789 52.9639C77.5496 52.9169 77.6439 52.9404 77.6675 53.011C77.7146 53.0816 77.6911 53.1757 77.6203 53.1992L76.3711 53.8815C76.3476 53.905 76.324 53.905 76.3004 53.905Z" fill="#111111"></path></svg>