<svg xmlns="http://www.w3.org/2000/svg" width="76" height="112" viewBox="0 0 76 112" fill="none"><path d="M52.9684 68.1605L52.6134 68.3925L47.3164 65.8175C44.9136 64.6344 43.4392 62.477 43.4392 60.1339L43.3846 3.02006L44.0945 1.07141L42.5654 0.421863C42.4835 0.375466 42.4016 0.32907 42.2924 0.305872C41.8282 0.143485 41.3094 0.166682 40.8179 0.398663L1.33585 19.7691C0.707855 20.0939 0.29829 20.6739 0.29829 21.3002V80.8731C0.29829 83.4945 1.93655 85.9071 4.61238 87.2294L10.8378 90.2452C11.9026 90.7555 13.2132 90.7555 14.2781 90.2452L54.279 70.6195C54.5793 70.4571 54.7432 70.2019 54.7432 69.9236V68.5317L52.9684 68.1605Z" fill="#151617"></path><path d="M12.5871 90.8479C13.2151 90.8479 13.8704 90.7088 14.4438 90.4304L54.4447 70.8047C54.827 70.6192 55.0454 70.2944 55.0454 69.9232V68.3225L52.9157 67.905L52.588 68.1137L47.4548 65.6315C45.1612 64.4948 43.7141 62.407 43.7141 60.1568L43.6595 3.06609L44.424 0.978257L42.6765 0.235916C42.5946 0.18952 42.4854 0.143123 42.3762 0.119925C41.8301 -0.06566 41.2021 -0.0424618 40.656 0.235916L1.1739 19.6064C0.463985 19.9544 -0.000183105 20.6271 -0.000183105 21.323V80.8495C-0.000183105 83.5405 1.69268 86.0459 4.45042 87.3914L10.6758 90.4072C11.3038 90.7088 11.9318 90.8479 12.5871 90.8479ZM54.4993 68.6937V69.9C54.4993 70.1088 54.3628 70.2944 54.1717 70.3872L14.1708 90.0128C13.1878 90.5 11.9864 90.5 11.0035 90.0128L4.77808 86.9971C2.21147 85.7444 0.600513 83.3781 0.600513 80.8495V21.2999C0.600513 20.7663 0.955467 20.2559 1.50156 19.9776L40.9837 0.607088C41.3659 0.421503 41.8028 0.398304 42.2124 0.537493C42.2943 0.560691 42.3762 0.607086 42.4308 0.630284L43.7687 1.21024L43.1134 3.0429L43.168 60.1568C43.168 62.5694 44.697 64.8428 47.1817 66.0491L52.6426 68.6937L53.0522 68.4153L54.4993 68.6937Z" fill="#0B132B"></path><path d="M1.8003 21.9256V80.1298C1.8003 82.7512 3.43856 85.1638 6.11439 86.4861L10.8653 88.8059C11.9302 89.3163 13.2408 89.3163 14.3057 88.8059L54.3066 69.1803C54.9346 68.8787 54.9346 68.1132 54.3066 67.7884L48.7911 65.0974C46.3883 63.9143 44.9139 61.7569 44.9139 59.4139L44.8593 2.27678C44.8593 1.16327 43.4394 0.46732 42.32 1.02408L2.83787 20.3945C2.18256 20.7193 1.8003 21.2993 1.8003 21.9256Z" fill="white"></path><path d="M12.5871 89.4335C13.2424 89.4335 13.8704 89.2943 14.4438 89.016L54.4447 69.3903C54.827 69.2047 55.0454 68.8799 55.0454 68.5088C55.0454 68.1376 54.827 67.8128 54.4447 67.6272L48.9292 64.9362C46.6357 63.7995 45.1885 61.7117 45.1885 59.4383L45.1339 2.30119C45.1339 1.69803 44.7517 1.16448 44.151 0.862901C43.523 0.561325 42.813 0.561325 42.185 0.862901L2.70294 20.2334C1.99303 20.5813 1.52886 21.2541 1.52886 21.95V80.1543C1.52886 82.8452 3.22173 85.3506 5.97947 86.6961L10.7304 89.016C11.3038 89.2943 11.9318 89.4335 12.5871 89.4335ZM43.168 1.07169C43.4138 1.07169 43.6595 1.11808 43.8779 1.23407C44.3148 1.44286 44.5878 1.83723 44.5878 2.27799L44.6424 59.4151C44.6424 61.8277 46.1715 64.1011 48.6562 65.3074L54.1717 67.9984C54.3901 68.0912 54.4993 68.2768 54.4993 68.4856C54.4993 68.6944 54.3628 68.8799 54.1717 68.9727L14.1708 88.5984C13.1878 89.0855 11.9864 89.0855 11.0035 88.5984L6.25251 86.2786C3.6859 85.0027 2.07494 82.6596 2.07494 80.1311V21.9268C2.07494 21.3933 2.4299 20.8829 2.97599 20.6045L42.4581 1.23407C42.6765 1.14128 42.9223 1.07169 43.168 1.07169Z" fill="#0B132B"></path><path d="M7.78061 27.8183L23.5898 20.0469V23.921L7.78061 31.6924V27.8183Z" fill="#B5FDEA"></path><path d="M7.77995 34.8948L35.9854 20.8135V24.0148L7.77995 38.0961V34.8948Z" fill="#B5FDEA"></path><path d="M7.50699 32.0866L23.8623 24.06V19.6523L7.50699 27.6789V32.0866ZM23.3162 23.8048L8.05307 31.2978V27.9573L23.3162 20.4643V23.8048Z" fill="#0B132B"></path><path d="M7.50755 38.4901L36.259 24.1304V20.3955L7.50755 34.7552V38.4901ZM35.7129 23.8752L8.05364 37.6781V35.0104L35.7129 21.2074V23.8752Z" fill="#0B132B"></path><path d="M8.08787 44.6102L36.8394 30.2505V26.5156L8.08787 40.8753V44.6102ZM36.2933 29.9953L8.63396 43.7983V41.1305L36.2933 27.3276V29.9953Z" fill="#0B132B"></path><path d="M8.73851 50.1336L37.49 35.774V32.0391L8.73851 46.3987V50.1336ZM36.9439 35.5188L9.28459 49.3217V46.6539L36.9439 32.851V35.5188Z" fill="#0B132B"></path><path d="M8.73851 55.658L37.49 41.2984V37.5635L8.73851 51.9231V55.658ZM36.9439 41.0432L9.28459 54.8461V52.1783L36.9439 38.3754V41.0432Z" fill="#0B132B"></path><g clip-path="url(#clip0_3899_14419)"><path d="M63.821 82.9868C55.5835 78.2323 42.1508 78.2323 33.9133 82.9868C29.8882 85.3175 27.8288 88.3474 27.7352 91.3773C27.6884 93.102 27.6884 94.8267 27.7352 96.5514C27.8288 99.5813 29.8882 102.611 33.9133 104.942C42.1508 109.696 55.5835 109.696 63.821 104.942C67.8461 102.611 69.9055 99.5813 69.9991 96.5514C70.0459 94.8267 70.0459 93.102 69.9991 91.3773C69.9055 88.3008 67.8461 85.2709 63.821 82.9868Z" fill="#020202"></path><path d="M48.8905 108.671C54.3665 108.671 59.7958 107.459 63.9613 105.082C67.9396 102.798 70.1862 99.7679 70.2798 96.5049C70.3266 94.7802 70.3266 93.0089 70.2798 91.2842C70.1862 88.0213 67.9396 84.9914 63.9613 82.7073C55.6303 77.9061 42.104 77.9061 33.8197 82.7073C29.8414 84.9914 27.5948 88.0213 27.5012 91.2842C27.4544 93.0089 27.4544 94.7802 27.5012 96.5049C27.5948 99.7679 29.8414 102.798 33.8197 105.082C37.9384 107.506 43.4145 108.671 48.8905 108.671ZM48.8905 79.6308C54.2729 79.6308 59.6554 80.7962 63.7273 83.1735C67.5652 85.3643 69.7182 88.2543 69.8118 91.3308C69.8586 93.0555 69.8586 94.7802 69.8118 96.5049C69.7182 99.5814 67.5652 102.471 63.7273 104.662C55.5366 109.37 42.2444 109.37 34.0537 104.662C30.2158 102.471 28.0628 99.5814 27.9692 96.5049C27.9224 94.7802 27.9224 93.0555 27.9692 91.3308C28.0628 88.2543 30.2158 85.3643 34.0537 83.1735C38.1256 80.7962 43.5081 79.6308 48.8905 79.6308Z" fill="black"></path><path d="M48.8903 103.73C37.2066 103.73 27.735 98.2828 27.735 91.5636C27.735 84.8444 37.2066 79.3975 48.8903 79.3975C60.5741 79.3975 70.0457 84.8444 70.0457 91.5636C70.0457 98.2828 60.5741 103.73 48.8903 103.73Z" fill="white"></path><path d="M48.8904 103.962C54.3665 103.962 59.7957 102.75 63.9613 100.373C68.0332 98.0425 70.2798 94.9194 70.2798 91.5632C70.2798 88.207 68.0332 85.0839 63.9613 82.7532C55.6302 77.952 42.1039 77.952 33.8196 82.7532C29.7477 85.0839 27.5011 88.207 27.5011 91.5632C27.5011 94.9194 29.7477 98.0425 33.8196 100.373C37.9384 102.75 43.4144 103.962 48.8904 103.962ZM48.8904 79.6301C54.2729 79.6301 59.6553 80.7955 63.7273 83.1728C67.6588 85.4102 69.8117 88.3935 69.8117 91.5632C69.8117 94.7329 67.6588 97.7162 63.7273 99.9536C55.5366 104.662 42.2443 104.662 34.0536 99.9536C30.1221 97.7162 27.9691 94.7329 27.9691 91.5632C27.9691 88.3935 30.1221 85.4102 34.0536 83.1728C38.1256 80.7955 43.508 79.6301 48.8904 79.6301Z" fill="black"></path><path d="M31.7135 88.0682C32.6028 86.6232 34.0069 85.318 35.9726 84.1527C43.0868 80.0507 54.6474 80.0507 61.7615 84.1527C63.7273 85.2714 65.1314 86.6232 66.0207 88.0682H67.0972V91.7973C67.0036 94.4076 65.225 97.018 61.7615 98.9758C54.6474 103.078 43.0868 103.078 35.9726 98.9758C32.5092 96.9714 30.7306 94.4076 30.637 91.7973V88.0682H31.7135Z" fill="#F2E3F1"></path><path d="M48.8906 102.285C53.6178 102.285 58.2982 101.26 61.9021 99.2086C65.2251 97.2974 67.1441 94.7803 67.3313 92.0301V91.797V87.8349H66.1612C65.2251 86.3432 63.7742 85.0381 61.8553 83.9659C54.6943 79.8173 42.9933 79.8173 35.8323 83.9659C33.9134 85.0381 32.5093 86.3432 31.5264 87.8349H30.3563V92.0301H30.4031C30.5903 94.7337 32.5093 97.2974 35.8323 99.2086C39.4362 101.26 44.1634 102.285 48.8906 102.285ZM66.9101 91.6106V91.7504C66.8165 94.4074 64.9443 96.8779 61.7148 98.7424C54.6475 102.798 43.1805 102.798 36.16 98.7424C32.8837 96.8779 31.0583 94.4074 30.9647 91.7504V91.5173V88.2544H31.854L31.9008 88.1612C32.7901 86.7161 34.1942 85.411 36.0664 84.3389C43.1337 80.2835 54.6007 80.2835 61.6212 84.3389C63.4934 85.411 64.8975 86.7161 65.7868 88.1612L65.8336 88.2544H66.8165V91.6106H66.9101Z" fill="black"></path><path d="M61.7615 80.6099C68.8757 84.7119 68.8757 91.331 61.7615 95.433C54.6474 99.535 43.0868 99.535 35.9726 95.433C28.8585 91.331 28.8585 84.7119 35.9726 80.6099C43.0868 76.5545 54.6474 76.5545 61.7615 80.6099Z" fill="white"></path><path d="M48.8904 98.7887C53.6176 98.7887 58.298 97.7632 61.9019 95.7122C65.4122 93.7078 67.3779 90.9576 67.3779 88.0676C67.3779 85.1776 65.459 82.474 61.9019 80.423C54.7409 76.2744 43.0399 76.2744 35.879 80.423C32.3687 82.4274 30.4029 85.1776 30.4029 88.0676C30.4029 90.9576 32.3219 93.6612 35.879 95.7122C39.4361 97.7166 44.1632 98.7887 48.8904 98.7887ZM61.6679 80.8425C65.0377 82.8003 66.9099 85.364 66.9099 88.0676C66.9099 90.7712 65.0377 93.3349 61.6679 95.2927C54.6005 99.3481 43.1336 99.3481 36.113 95.2927C32.7431 93.3349 30.871 90.7712 30.871 88.0676C30.871 85.364 32.7431 82.8003 36.113 80.8425C43.1336 76.7871 54.6005 76.7871 61.6679 80.8425Z" fill="black"></path><path d="M59.7021 81.3556C65.693 84.805 65.693 90.352 59.7021 93.8014C53.7113 97.2508 44.0229 97.2508 38.0788 93.8014C32.0879 90.352 32.0879 84.805 38.0788 81.3556C44.0229 77.9062 53.7113 77.9062 59.7021 81.3556Z" fill="#B5FDEA"></path><path d="M48.8906 96.5979C52.8689 96.5979 56.8004 95.7122 59.8427 93.9875C62.7913 92.2628 64.4294 89.9788 64.4294 87.5549C64.4294 85.131 62.7913 82.8469 59.8427 81.1222C53.805 77.6728 43.9762 77.6728 37.9853 81.1222C35.0367 82.8469 33.3985 85.131 33.3985 87.5549C33.3985 89.9788 35.0367 92.2628 37.9853 93.9875C40.9339 95.7589 44.9123 96.5979 48.8906 96.5979ZM48.8906 79.0246C52.7753 79.0246 56.66 79.8636 59.6087 81.5883C62.4169 83.2198 63.9614 85.364 63.9614 87.6015C63.9614 89.8389 62.4169 91.9832 59.6087 93.6146C53.7114 97.0174 44.1166 97.0174 38.2193 93.6146C35.4111 91.9832 33.8666 89.8389 33.8666 87.6015C33.8666 85.364 35.4111 83.2198 38.2193 81.5883C41.1212 79.8636 45.0059 79.0246 48.8906 79.0246Z" fill="black"></path><path d="M59.6086 80.7955C59.5618 81.215 59.1406 83.4525 58.2045 84.711C56.66 86.8086 54.273 87.9274 51.9328 88.4401C47.0652 89.5122 38.5937 87.6943 38.4065 80.376C43.5549 84.9907 55.2559 84.5712 59.6086 80.7955Z" fill="#373737"></path><path d="M41.87 74.1766C43.8358 73.2443 51.2308 71.7061 56.2856 74.3164C57.8769 75.1555 60.4512 76.7869 59.5151 81.2618C59.0938 83.4061 56.7069 85.5037 54.2262 86.7622C51.8861 87.9276 48.1886 87.7411 46.7376 87.5081C45.1931 87.275 43.789 86.8555 42.6189 86.2029C41.168 85.4104 39.7171 84.4316 38.9214 82.7535C37.4705 79.7236 39.2022 75.4818 41.87 74.1766Z" fill="#373737"></path><path d="M60.8723 78.5572C60.8255 78.9767 60.3575 81.2142 59.281 82.4728C57.5492 84.5704 54.8346 85.6891 52.2604 86.2018C46.8312 87.2739 37.2832 85.456 37.096 78.1377C42.8997 82.7524 56.0047 82.3329 60.8723 78.5572Z" fill="#95999F"></path><path d="M60.8723 78.1851C60.8255 78.6047 60.3575 80.8421 59.281 82.1007C57.5492 84.1983 54.8346 85.317 52.2604 85.8298C46.8312 86.9019 37.2832 85.0839 37.096 77.7656C42.8997 82.3337 56.0047 81.9608 60.8723 78.1851Z" fill="black"></path><path d="M40.9808 71.5656C43.2274 70.5867 51.5116 69.0951 57.1281 71.7054C58.9066 72.5445 61.8085 74.176 60.7788 78.6509C60.3108 80.7951 57.5961 82.8927 54.8347 84.1513C52.2137 85.3166 48.0482 85.1301 46.4568 84.8971C44.7251 84.664 43.1338 84.2445 41.8233 83.5919C40.1851 82.7995 38.547 81.8206 37.6577 80.1425C36.0664 77.066 37.9853 72.8242 40.9808 71.5656Z" fill="black"></path><path d="M61.4807 75.7144C61.4339 76.134 60.9191 78.3714 59.7958 79.63C57.9704 81.7276 55.1154 82.8463 52.4008 83.3591C46.6907 84.4312 36.6747 82.6132 36.4407 75.2949C42.572 79.863 56.3323 79.4901 61.4807 75.7144Z" fill="#95999F"></path><path d="M61.4807 75.3414C61.4339 75.7609 60.9191 77.9984 59.7958 79.2569C57.9704 81.3545 55.1154 82.4733 52.4008 82.986C46.6907 84.0581 36.6747 82.2402 36.4407 74.9219C42.572 79.5366 56.3323 79.1171 61.4807 75.3414Z" fill="black"></path><path d="M40.5595 68.7225C42.8997 67.7902 51.6052 66.252 57.5493 68.8623C59.4214 69.7014 62.4637 71.3328 61.3872 75.8077C60.8724 77.952 58.0641 80.0496 55.1155 81.3081C52.4009 82.4735 47.9545 82.287 46.3164 82.054C44.491 81.8209 42.8529 81.4014 41.4488 80.7488C39.7638 79.9563 38.0321 78.9775 37.096 77.2994C35.3643 74.2695 37.4237 70.0277 40.5595 68.7225Z" fill="black"></path><path d="M37.8449 70.8198C39.8574 68.4892 44.1166 66.9043 49.031 66.9043C53.8518 66.9043 58.0173 68.4425 60.1235 70.68C60.5915 71.1927 60.9659 71.7521 61.2 72.3115C61.434 72.8242 61.5276 73.337 61.5276 73.8963C61.5276 74.0828 61.5276 74.2692 61.4808 74.4557C61.3872 75.0151 61.2 75.5744 60.9191 76.0872C59.281 78.884 54.6006 80.8884 49.0778 80.8884C43.6953 80.8884 39.0618 78.9772 37.33 76.2736C37.0024 75.7609 36.8152 75.2481 36.6748 74.7354C36.628 74.4557 36.5812 74.176 36.5812 73.8963C36.5812 73.3836 36.6748 72.9174 36.862 72.4513C37.0492 71.8919 37.3768 71.3326 37.8449 70.8198Z" fill="#95999F"></path><path d="M37.8449 70.2612C39.8574 67.9306 44.1166 66.3457 49.031 66.3457C53.8518 66.3457 58.0173 67.8839 60.1235 70.1214C60.5915 70.6341 60.9659 71.1935 61.2 71.7529C61.434 72.2656 61.5276 72.7784 61.5276 73.3377C61.5276 73.5242 61.5276 73.7106 61.4808 73.8971C61.3872 74.4565 61.2 75.0158 60.9191 75.5286C59.281 78.3254 54.6006 80.3298 49.0778 80.3298C43.6953 80.3298 39.0618 78.4186 37.33 75.715C37.0024 75.2023 36.8152 74.6895 36.6748 74.1768C36.628 73.8971 36.5812 73.6174 36.5812 73.3377C36.5812 72.825 36.6748 72.3588 36.862 71.8927C37.0492 71.3334 37.3768 70.774 37.8449 70.2612Z" fill="#373737"></path><path d="M49.031 67.2773C55.9111 67.2773 60.7319 70.4937 60.7319 73.3837C60.7319 76.2737 55.9111 79.4901 49.031 79.4901C42.1508 79.4901 37.33 76.2737 37.33 73.3837C37.33 70.4937 42.1508 67.2773 49.031 67.2773Z" fill="#5851D4"></path><path d="M48.1884 36.0469C48.4692 36.0469 48.75 36.0469 49.0308 36.0469C58.532 36.0469 66.2546 43.7381 66.2546 53.2007C66.2546 56.5102 65.3186 59.6333 63.6804 62.2437C61.7147 65.4134 60.8254 69.0959 60.7786 72.7783C60.7318 74.4564 59.6085 76.1345 57.3619 77.4397C52.8219 80.0967 45.2397 80.0967 40.653 77.4397C38.4064 76.1345 37.4235 74.8759 37.3299 72.7317C37.1895 68.956 36.2534 65.2269 34.2876 62.0106C32.5559 59.1672 31.6666 55.811 31.8538 52.2218C32.2751 43.5517 39.6701 36.0469 48.1884 36.0469Z" fill="#8B75F3"></path><path d="M48.9373 79.6768C52.0264 79.6768 55.0686 78.9776 57.4088 77.6258C59.6554 76.3206 60.8723 74.5959 60.9191 72.778C61.0127 68.7692 61.9956 65.2732 63.821 62.3366C65.5527 59.633 66.4888 56.4633 66.4888 53.2003C66.4888 43.5979 58.6257 35.8135 49.031 35.8135C48.8905 35.8135 48.7501 35.8135 48.6097 35.8135C48.4693 35.8135 48.3289 35.8135 48.1885 35.8135C39.6702 35.8135 32.0412 43.3183 31.5731 52.2214C31.3859 55.7175 32.2284 59.1669 34.0537 62.1501C35.8791 65.18 36.9088 68.7226 37.0492 72.778C37.1428 74.9222 38.0789 76.274 40.4659 77.6724C42.8529 79.0242 45.8951 79.6768 48.9373 79.6768ZM49.031 36.2796C58.3917 36.2796 66.0207 43.8776 66.0207 53.2003C66.0207 56.37 65.1315 59.4465 63.4465 62.1035C61.5744 65.0868 60.5915 68.676 60.4979 72.778C60.4511 74.4561 59.281 76.041 57.2216 77.2529C52.7753 79.8166 45.2398 79.8633 40.7935 77.2529C38.5469 75.9477 37.6576 74.7358 37.6108 72.7314C37.4236 68.6294 36.3939 64.9935 34.5218 61.8704C32.7432 58.9804 31.9476 55.6242 32.088 52.2214C32.556 43.5513 39.951 36.233 48.2353 36.233C48.3757 36.233 48.5161 36.233 48.6565 36.233C48.7501 36.2796 48.8905 36.2796 49.031 36.2796Z" fill="#373737"></path><path d="M48.7034 49.8906C52.869 49.8906 56.2856 53.2934 56.2856 57.442V72.4516C56.2856 73.7101 55.256 74.7356 53.9923 74.7356C52.7286 74.7356 51.6989 73.7101 51.6989 72.4516V57.442C51.6989 55.7639 50.3416 54.4121 48.6566 54.4121C46.9717 54.4121 45.6144 55.7639 45.6144 57.442V72.4516C45.6144 73.7101 44.5847 74.7356 43.321 74.7356C42.0573 74.7356 41.0276 73.7101 41.0276 72.4516V57.442C41.1212 53.2934 44.5379 49.8906 48.7034 49.8906Z" fill="#E9FF65"></path><path d="M43.4146 74.9684C44.8187 74.9684 45.942 73.8496 45.942 72.4512V57.4417C45.942 55.9034 47.2057 54.6449 48.7502 54.6449C50.2948 54.6449 51.5585 55.9034 51.5585 57.4417V72.4512C51.5585 73.8496 52.6818 74.9684 54.0859 74.9684C55.49 74.9684 56.6133 73.8496 56.6133 72.4512V57.4417C56.6133 53.1532 53.103 49.6572 48.797 49.6572C44.4911 49.6572 40.9808 53.1532 40.9808 57.4417V72.4512C40.8872 73.8496 42.0105 74.9684 43.4146 74.9684ZM48.7034 54.1787C46.8781 54.1787 45.4272 55.6238 45.4272 57.4417V72.4512C45.4272 73.57 44.4911 74.5022 43.3678 74.5022C42.2445 74.5022 41.3084 73.57 41.3084 72.4512V57.4417C41.3084 53.3863 44.6315 50.1234 48.6566 50.1234C52.7286 50.1234 56.0048 53.4329 56.0048 57.4417V72.4512C56.0048 73.57 55.0688 74.5022 53.9455 74.5022C52.8222 74.5022 51.8861 73.57 51.8861 72.4512V57.4417C51.9797 55.6238 50.5288 54.1787 48.7034 54.1787Z" fill="#373737"></path></g><defs><clipPath id="clip0_3899_14419"><rect width="53.9648" height="75.4207" fill="white" transform="matrix(-1 0 0 1 75.8496 35.8135)"></rect></clipPath></defs></svg>