<svg xmlns="http://www.w3.org/2000/svg" width="246" height="178" viewBox="0 0 246 178" fill="none"><g clip-path="url(#clip0_3812_25558)"><path d="M7.37758 123.255L103.508 72.3039L164.641 104.961L71.3248 154.531C69.6693 155.401 67.6277 155.4 65.9724 154.53L7.37758 123.255Z" fill="#151617"></path><path d="M170.16 92.3229L170.161 87.6151L164.754 88.1771L105.883 56.697C104.228 55.8268 102.186 55.8265 100.53 56.6961L10.7464 104.782L1.53135 105.753L1.53047 111.075C1.53033 111.894 1.97164 112.661 2.79925 113.122L65.9735 146.957C67.6288 147.827 69.6704 147.827 71.3259 146.958L168.891 94.5231C169.829 94.0627 170.215 93.1417 170.16 92.3229Z" fill="#A5C9C7"></path><path d="M68.6219 148.133C67.6287 148.133 66.5803 147.877 65.6975 147.417L2.52323 113.531C1.53009 113.019 0.978462 112.046 0.978631 111.023L0.979576 105.292L10.5809 104.27L100.31 56.2348C102.131 55.2629 104.393 55.2633 106.214 56.2358L164.864 87.6647L170.713 87.0517L170.712 92.2711C170.767 93.3969 170.215 94.4203 169.167 94.9318L71.6017 147.366C70.6635 147.878 69.6703 148.134 68.6219 148.133ZM2.083 106.213L2.0822 111.074C2.08209 111.74 2.46824 112.354 3.07515 112.712L66.2495 146.547C67.7392 147.315 69.5601 147.315 71.05 146.548L168.615 94.113C169.277 93.7549 169.664 93.0897 169.609 92.3733L169.609 88.2796L164.588 88.8416L164.422 88.7393L105.607 57.1568C104.117 56.389 102.296 56.3887 100.806 57.156L10.9118 105.242L2.083 106.213Z" fill="#0B132B"></path><path d="M2.80078 103.962L100.586 51.6297C102.242 50.7601 104.284 50.7604 105.939 51.6306L168.948 85.363C170.658 86.2843 170.658 88.5359 168.947 89.4567L71.3268 141.891C69.6712 142.761 67.6296 142.761 65.9744 141.89L2.8001 108.056C1.08971 107.134 1.09009 104.832 2.80078 103.962Z" fill="white"></path><path d="M68.6229 143.068C67.6296 143.068 66.5813 142.812 65.6985 142.351L2.5242 108.465C1.53107 107.953 0.97943 107.032 0.979607 105.958C0.979776 104.934 1.5869 103.962 2.52503 103.45L100.311 51.1694C102.132 50.1975 104.394 50.1978 106.215 51.1704L169.224 84.9028C170.217 85.4146 170.768 86.3358 170.768 87.4104C170.768 88.4338 170.216 89.406 169.223 89.9175L71.6026 142.301C70.6645 142.813 69.6713 143.068 68.6229 143.068ZM3.07667 104.372C2.46964 104.73 2.0833 105.293 2.08319 105.958C2.08308 106.623 2.46923 107.237 3.07614 107.544L66.2504 141.379C67.7401 142.147 69.5611 142.147 71.051 141.38L168.616 89.0475C169.223 88.6894 169.609 88.1266 169.609 87.4614C169.61 86.7962 169.223 86.182 168.617 85.8749L105.608 52.0914C104.118 51.3236 102.297 51.3232 100.807 52.0906L3.07667 104.372Z" fill="#0B132B"></path></g><g clip-path="url(#clip1_3812_25558)"><path d="M51.1899 100.143L53.1977 98.9736C54.0677 98.4723 55.1384 98.4725 56.0417 98.9406L67.7849 105.428C68.6213 105.896 68.6212 107.066 67.818 107.534L65.8103 108.703C64.9403 109.205 63.8696 109.205 62.9662 108.736L51.1896 102.249C50.3866 101.781 50.3868 100.611 51.1899 100.143Z" fill="#D6CEFF"></path><path d="M64.338 109.305C63.8361 109.305 63.3008 109.171 62.8324 108.937L51.1227 102.416C50.6877 102.182 50.3867 101.714 50.3867 101.213C50.3868 100.711 50.6546 100.243 51.0896 99.976L51.19 100.143L51.0896 99.976L53.0974 98.8063C54.0343 98.2716 55.2054 98.2718 56.1422 98.7733L67.8519 105.26C68.2869 105.495 68.5879 105.963 68.5878 106.464C68.5878 106.965 68.32 107.433 67.885 107.701L65.8772 108.87C65.4087 109.171 64.8734 109.305 64.338 109.305ZM51.2903 100.31C50.9557 100.511 50.7883 100.812 50.7883 101.179C50.7882 101.547 50.9889 101.881 51.3235 102.049L63.0667 108.536C63.8696 109.004 64.9069 108.971 65.71 108.503L67.7178 107.333C68.0524 107.133 68.2197 106.832 68.2198 106.464C68.2199 106.096 68.0191 105.762 67.6846 105.595L55.9414 99.1076C55.1384 98.6395 54.1012 98.6727 53.2981 99.1406L51.2903 100.31Z" fill="#111111"></path><path d="M51.1899 101.079L53.1977 99.9095C54.0677 99.4082 55.1384 99.4084 56.0417 99.8765L67.7849 106.364C68.0526 106.497 68.2198 106.731 68.3202 106.966C68.5545 106.431 68.3538 105.762 67.7851 105.461L56.0419 98.974C55.172 98.4724 54.0678 98.5056 53.1978 99.0069L51.19 100.177C50.6212 100.511 50.4538 101.146 50.6879 101.681C50.7549 101.413 50.9222 101.213 51.1899 101.079Z" fill="#111111"></path><g opacity="0.5"><path d="M67.8188 103.723L63.3357 101.215C62.5662 100.78 61.6963 100.546 60.7928 100.546L51.6249 100.544C50.6546 100.544 50.3198 101.848 51.1562 102.316L55.6728 104.824C55.974 104.991 56.3085 105.091 56.6766 105.091L65.4095 105.093L65.4097 103.99L67.7184 104.057C67.7519 104.023 68.1199 103.957 67.8188 103.723Z" fill="#32303C"></path></g><path d="M50.5879 98.8721L60.5587 99.7763L60.5917 102.15C60.5917 102.551 60.3909 102.919 59.9558 103.186L57.9481 104.356C57.078 104.857 56.0073 104.857 55.104 104.389L51.2231 102.182C50.7881 101.948 50.5875 101.513 50.5875 101.078L50.5879 98.8721Z" fill="#8B75F3"></path><path d="M56.4758 104.958C55.9739 104.957 55.4386 104.824 54.9702 104.59L51.0893 102.383C50.6209 102.115 50.3533 101.647 50.3534 101.112L50.3538 98.6719L60.6926 99.643L60.7256 102.217C60.7255 102.718 60.4578 103.153 59.9893 103.42L57.9815 104.59C57.5465 104.791 57.0112 104.958 56.4758 104.958ZM50.7887 99.1065L50.7883 101.112C50.7883 101.513 50.989 101.848 51.3235 102.015L55.2045 104.222C56.0074 104.69 57.0447 104.657 57.8478 104.189L59.8555 103.019C60.1902 102.819 60.391 102.518 60.391 102.184L60.3579 99.9773L50.7887 99.1065Z" fill="#111111"></path><path d="M51.1904 97.6696L53.1982 96.4999C54.0682 95.9986 55.1389 95.9988 56.0423 96.467L59.9232 98.6739C60.7596 99.1421 60.7594 100.312 59.9563 100.78L57.9485 101.95C57.0785 102.451 56.0078 102.451 55.1045 101.983L51.2235 99.7756C50.3871 99.3409 50.3873 98.1375 51.1904 97.6696Z" fill="white"></path><path d="M56.4762 102.551C55.9744 102.551 55.439 102.417 54.9706 102.183L51.0897 99.9758C50.6548 99.7418 50.3537 99.2737 50.3538 98.7723C50.3539 98.2708 50.6216 97.8029 51.0566 97.5355L53.0644 96.3658C54.0013 95.8311 55.1724 95.8313 56.1092 96.3329L59.9902 98.5399C60.4251 98.7739 60.7262 99.242 60.7261 99.7434C60.726 100.245 60.4582 100.713 60.0232 100.98L58.0154 102.15C57.547 102.417 57.0116 102.551 56.4762 102.551ZM54.637 96.3327C54.1686 96.3326 53.7001 96.4662 53.2986 96.7002L51.2908 97.8698C50.9562 98.0704 50.7888 98.3712 50.7888 98.7389C50.7887 99.1066 50.9894 99.441 51.324 99.6082L55.2049 101.815C56.0079 102.283 57.0451 102.25 57.8482 101.782L59.856 100.612C60.1906 100.412 60.358 100.111 60.358 99.7434C60.3581 99.3756 60.1574 99.0413 59.8228 98.8741L55.9419 96.6672C55.5404 96.4331 55.1054 96.3327 54.637 96.3327Z" fill="#111111"></path><path d="M61.3625 94.3952L63.3703 93.2255C64.2403 92.7242 65.311 92.7244 66.2144 93.1926L77.9576 99.6797C78.794 100.148 78.7938 101.318 77.9907 101.786L75.9829 102.955C75.1129 103.457 74.0422 103.457 73.1389 102.988L61.3957 96.5012C60.5592 96.0331 60.5594 94.8631 61.3625 94.3952Z" fill="#B5FDEA"></path><path d="M74.5106 103.557C74.0087 103.556 73.4734 103.423 73.005 103.189L61.2618 96.7014C60.8269 96.4673 60.5258 95.9993 60.5259 95.4979C60.526 94.9964 60.7937 94.5285 61.2288 94.2611L61.3291 94.4283L61.2288 94.2611L63.2365 93.0914C64.1735 92.5567 65.3445 92.5569 66.2813 93.0585L78.0245 99.5456C78.4595 99.7797 78.7605 100.248 78.7605 100.749C78.7604 101.251 78.4926 101.719 78.0576 101.986L76.0498 103.156C75.5814 103.39 75.046 103.557 74.5106 103.557ZM61.4629 94.562C61.1283 94.7625 60.9609 95.0634 60.9609 95.4311C60.9608 95.7988 61.1615 96.1331 61.4961 96.3003L73.2393 102.787C74.0423 103.256 75.0795 103.222 75.8826 102.754L77.8904 101.585C78.225 101.384 78.3923 101.083 78.3924 100.716C78.3925 100.348 78.1918 100.014 77.8572 99.8465L66.114 93.3593C65.311 92.8912 64.2738 92.9244 63.4707 93.3923L61.4629 94.562Z" fill="#111111"></path><g opacity="0.5"><path d="M77.958 97.9413L73.4748 95.4334C72.7053 94.9987 71.8354 94.7645 70.932 94.7644L61.7641 94.7629C60.7938 94.7627 60.459 96.0664 61.2954 96.5345L65.812 99.0424C66.1131 99.2096 66.4477 99.31 66.8157 99.31L75.5487 99.3115L75.5489 98.2083L77.8575 98.2755C77.891 98.2756 78.2591 98.2088 77.958 97.9413Z" fill="#32303C"></path></g><path d="M61.3625 95.3311L63.3703 94.1615C64.2403 93.6602 65.311 93.6603 66.2143 94.1285L77.9575 100.616C78.2252 100.749 78.3924 100.983 78.4928 101.217C78.7271 100.683 78.5265 100.014 77.9577 99.7131L66.2145 93.2259C65.3446 92.7243 64.2404 92.7576 63.3704 93.2589L61.3626 94.4286C60.7938 94.7628 60.6264 95.3979 60.8605 95.9328C60.9609 95.6654 61.1283 95.4648 61.3625 95.3311Z" fill="#111111"></path><path d="M60.7605 93.125L70.7313 94.0292L70.7644 96.4027C70.7643 96.8038 70.5635 97.1715 70.1284 97.4389L68.1207 98.6086C67.2507 99.1099 66.1799 99.1097 65.2766 98.6415L61.3957 96.4346C60.9608 96.2005 60.7601 95.7659 60.7601 95.3313L60.7605 93.125Z" fill="#B5FDEA"></path><path d="M66.6819 99.1763C66.18 99.1762 65.6446 99.0424 65.1762 98.8083L61.2953 96.6014C60.8269 96.3339 60.5593 95.8658 60.5594 95.3309L60.5598 92.8906L70.8986 93.8618L70.9317 96.4358C70.9316 96.9372 70.6638 97.3718 70.1954 97.6391L68.1876 98.8088C67.7526 99.0427 67.2172 99.1764 66.6819 99.1763ZM60.9613 93.3253L60.9609 95.331C60.9609 95.7322 61.1616 96.0665 61.4961 96.2337L65.3771 98.4406C66.18 98.9088 67.2173 98.8755 68.0204 98.4076L70.0281 97.238C70.3628 97.0374 70.5636 96.7366 70.5636 96.4023L70.5305 94.2294L60.9613 93.3253Z" fill="#111111"></path><path d="M61.363 91.9216L63.3708 90.7519C64.2408 90.2506 65.3115 90.2508 66.2149 90.7189L70.0958 92.9259C70.9322 93.394 70.932 94.564 70.1289 95.0319L68.1211 96.2016C67.2511 96.7029 66.1804 96.7027 65.2771 96.2345L61.3961 94.0276C60.5597 93.5595 60.5599 92.3894 61.363 91.9216Z" fill="white"></path><path d="M66.6823 96.8027C66.1804 96.8026 65.6451 96.6688 65.1767 96.4347L61.2957 94.2278C60.8608 93.9937 60.5598 93.5257 60.5598 93.0242C60.5599 92.5228 60.8277 92.0548 61.2627 91.7875L63.2704 90.6178C64.2074 90.0831 65.3785 90.0833 66.3153 90.5849L70.1962 92.7918C70.6311 93.0259 70.9322 93.4939 70.9321 93.9954C70.932 94.4968 70.6643 94.9648 70.2293 95.2321L68.2215 96.4018C67.753 96.6357 67.2177 96.8028 66.6823 96.8027ZM64.8431 90.5846C64.3746 90.5845 63.9062 90.7182 63.5046 90.9521L61.4968 92.1218C61.1622 92.3223 60.9949 92.6231 60.9948 92.9909C60.9948 93.3586 61.1955 93.6929 61.53 93.8601L65.411 96.0671C66.2139 96.5352 67.2512 96.5019 68.0543 96.0341L70.062 94.8644C70.3967 94.6639 70.564 94.363 70.5641 93.9953C70.5641 93.6276 70.3634 93.2933 70.0289 93.1261L66.1479 90.9191C65.713 90.6851 65.278 90.5847 64.8431 90.5846Z" fill="#111111"></path><path d="M68.6875 110.208L70.6953 109.038C71.5653 108.537 72.636 108.537 73.5393 109.005L85.2825 115.492C86.1189 115.96 86.1188 117.13 85.3156 117.598L83.3079 118.768C82.4379 119.269 81.3672 119.269 80.4638 118.801L68.7206 112.314C67.8842 111.846 67.8844 110.676 68.6875 110.208Z" fill="#D7FF65"></path><path d="M81.8356 119.369C81.3337 119.369 80.7984 119.235 80.33 119.001L68.5868 112.514C68.1518 112.28 67.8508 111.812 67.8509 111.31C67.8509 110.809 68.1187 110.341 68.5537 110.074L68.6541 110.241L68.5537 110.074L70.5615 108.904C71.4984 108.369 72.6695 108.369 73.6063 108.871L85.3495 115.358C85.7844 115.592 86.0855 116.06 86.0854 116.595C86.0853 117.097 85.8176 117.565 85.3826 117.832L83.3748 119.002C82.9063 119.236 82.3709 119.369 81.8356 119.369ZM72.1675 108.871C71.6991 108.871 71.2306 109.004 70.8291 109.238L68.8213 110.408C68.4867 110.608 68.3194 110.909 68.3193 111.277C68.3192 111.645 68.5199 111.979 68.8545 112.146L80.5643 118.633C81.3672 119.102 82.4045 119.068 83.2076 118.6L85.2153 117.431C85.5499 117.23 85.7173 116.929 85.7174 116.562C85.7174 116.194 85.5167 115.86 85.1821 115.692L73.4389 109.205C73.0709 108.971 72.6025 108.871 72.1675 108.871Z" fill="#111111"></path><path d="M68.6874 111.144L70.6952 109.974C71.5652 109.473 72.6359 109.473 73.5393 109.941L85.2825 116.428C85.5501 116.562 85.7174 116.796 85.8177 117.03C86.052 116.495 85.8514 115.827 85.2826 115.492L73.5394 109.005C72.6696 108.504 71.5654 108.537 70.6954 109.038L68.6876 110.208C68.1187 110.542 67.9513 111.177 68.1855 111.712C68.2859 111.478 68.4532 111.278 68.6874 111.144Z" fill="#111111"></path><g opacity="0.5"><path d="M85.3498 113.787L80.8667 111.279C80.0972 110.844 79.2273 110.61 78.3239 110.61L69.156 110.609C68.1856 110.608 67.8508 111.912 68.6872 112.38L73.2038 114.888C73.505 115.055 73.8395 115.156 74.2076 115.156L82.9405 115.157L82.9407 114.054L85.2494 114.121C85.2829 114.088 85.6509 114.021 85.3498 113.787Z" fill="#32303C"></path></g><path d="M68.0854 108.937L78.0562 109.841L78.0893 112.214C78.0892 112.615 77.8884 112.983 77.4534 113.25L75.4456 114.42C74.5756 114.921 73.5049 114.921 72.6016 114.453L68.7206 112.246C68.2857 112.012 68.085 111.577 68.0851 111.143L68.0854 108.937Z" fill="#D7FF65"></path><path d="M74.0068 115.022C73.5049 115.022 72.9696 114.888 72.5012 114.654L68.6203 112.447C68.1519 112.18 67.8843 111.712 67.8844 111.177L67.8848 108.736L78.2236 109.707L78.2566 112.282C78.2565 112.783 77.9888 113.217 77.5203 113.485L75.5126 114.655C75.0775 114.888 74.5422 115.022 74.0068 115.022ZM68.2862 109.171L68.2859 111.177C68.2858 111.578 68.4865 111.912 68.8211 112.079L72.702 114.286C73.505 114.754 74.5422 114.721 75.3453 114.253L77.3531 113.084C77.6877 112.883 77.8885 112.582 77.8886 112.248L77.8555 110.042L68.2862 109.171Z" fill="#111111"></path><path d="M68.688 107.734L70.6957 106.564C71.5658 106.063 72.6365 106.063 73.5398 106.531L77.4207 108.738C78.2572 109.207 78.257 110.377 77.4539 110.844L75.4461 112.014C74.5761 112.515 73.5054 112.515 72.602 112.047L68.7211 109.84C67.8847 109.405 67.8849 108.202 68.688 107.734Z" fill="white"></path><path d="M74.0072 112.615C73.5054 112.615 72.97 112.481 72.5016 112.247L68.6207 110.04C68.1858 109.806 67.8847 109.338 67.8848 108.837C67.8849 108.335 68.1526 107.867 68.5876 107.6L70.5954 106.43C71.5324 105.896 72.7034 105.896 73.6402 106.397L77.5212 108.604C77.9561 108.838 78.2572 109.306 78.2571 109.808C78.257 110.309 77.9892 110.777 77.5542 111.045L75.5465 112.214C75.078 112.482 74.5426 112.615 74.0072 112.615ZM72.168 106.397C71.6996 106.397 71.2311 106.531 70.8296 106.765L68.8218 107.934C68.4872 108.135 68.3198 108.436 68.3198 108.803C68.3197 109.171 68.5204 109.505 68.855 109.673L72.7359 111.88C73.5389 112.348 74.5761 112.314 75.3792 111.847L77.387 110.677C77.7216 110.476 77.889 110.176 77.889 109.808C77.8891 109.44 77.6884 109.106 77.3538 108.939L73.4729 106.732C73.0714 106.498 72.603 106.397 72.168 106.397Z" fill="#111111"></path><path d="M79.429 104.46L81.4367 103.29C82.3067 102.789 83.3774 102.789 84.2808 103.257L96.024 109.744C96.8604 110.212 96.8602 111.382 96.0571 111.85L94.0493 113.02C93.1793 113.521 92.1086 113.521 91.2053 113.053L79.4621 106.566C78.6257 106.098 78.6258 104.928 79.429 104.46Z" fill="#8B75F3"></path><path d="M92.577 113.621C92.0752 113.621 91.5398 113.487 91.0714 113.253L79.3282 106.766C78.8933 106.532 78.5922 106.064 78.5923 105.562C78.5924 105.061 78.8601 104.593 79.2952 104.326L79.3955 104.493L79.2952 104.326L81.3029 103.156C82.2399 102.621 83.411 102.621 84.3477 103.123L96.091 109.61C96.5259 109.844 96.827 110.312 96.8269 110.814C96.8268 111.315 96.559 111.783 96.124 112.05L94.1163 113.22C93.6478 113.487 93.1124 113.621 92.577 113.621ZM79.5293 104.626C79.1947 104.827 79.0274 105.128 79.0273 105.496C79.0272 105.863 79.2279 106.198 79.5625 106.365L91.3057 112.852C92.1087 113.32 93.1459 113.287 93.949 112.819L95.9568 111.649C96.2914 111.449 96.4588 111.148 96.4588 110.78C96.4589 110.412 96.2582 110.078 95.9236 109.911L84.1804 103.424C83.3774 102.956 82.3402 102.989 81.5371 103.457L79.5293 104.626Z" fill="#111111"></path><g opacity="0.5"><path d="M96.0244 108.006L91.5412 105.498C90.7717 105.063 89.9018 104.829 88.9984 104.829L79.8305 104.827C78.8602 104.827 78.5254 106.131 79.3618 106.599L83.8784 109.107C84.1795 109.274 84.5141 109.374 84.8822 109.374L93.6151 109.376L93.6153 108.273L95.924 108.34C95.9574 108.34 96.3255 108.273 96.0244 108.006Z" fill="#32303C"></path></g><path d="M79.4289 105.396L81.4367 104.226C82.3067 103.725 83.3774 103.725 84.2807 104.193L96.0239 110.68C96.2916 110.814 96.4588 111.048 96.5592 111.282C96.7935 110.747 96.5929 110.079 96.0241 109.778L84.2809 103.257C83.411 102.756 82.3068 102.789 81.4368 103.29L79.4291 104.46C78.8602 104.794 78.6928 105.429 78.9269 105.964C79.0273 105.73 79.1947 105.529 79.4289 105.396Z" fill="#111111"></path><path d="M78.8269 103.188L88.7977 104.093L88.8308 106.466C88.8307 106.867 88.6299 107.235 88.1949 107.502L86.1871 108.672C85.3171 109.173 84.2464 109.173 83.343 108.705L79.4621 106.498C79.0272 106.264 78.8265 105.829 78.8265 105.395L78.8269 103.188Z" fill="#8B75F3"></path><path d="M84.7483 109.274C84.2464 109.274 83.711 109.14 83.2427 108.906L79.3617 106.699C78.8933 106.431 78.6257 105.963 78.6258 105.428L78.6262 103.222C78.6262 103.155 78.6597 103.122 78.6931 103.088C78.7266 103.055 78.7935 103.022 78.8604 103.022L88.8312 103.926C88.9316 103.926 88.9985 104.026 88.9985 104.126L89.0315 106.5C89.0315 107.001 88.7637 107.436 88.2952 107.703L86.2875 108.873C85.819 109.107 85.2836 109.274 84.7483 109.274ZM79.0277 103.389L79.0273 105.395C79.0273 105.796 79.228 106.13 79.5625 106.298L83.4435 108.505C84.2464 108.973 85.2837 108.94 86.0868 108.472L88.0945 107.302C88.4292 107.101 88.63 106.801 88.63 106.466L88.5969 104.26L79.0277 103.389Z" fill="#111111"></path><path d="M79.4294 101.986L81.4372 100.816C82.3072 100.315 83.3779 100.315 84.2813 100.783L88.1622 102.99C88.9986 103.458 88.9984 104.628 88.1953 105.096L86.1875 106.266C85.3175 106.767 84.2468 106.767 83.3435 106.299L79.4626 104.092C78.6261 103.624 78.6263 102.454 79.4294 101.986Z" fill="white"></path><path d="M84.7487 106.867C84.2468 106.867 83.7115 106.733 83.2431 106.499L79.3621 104.292C78.9272 104.058 78.6262 103.59 78.6262 103.089C78.6263 102.587 78.8941 102.119 79.3291 101.852L81.3369 100.682C82.2738 100.148 83.4449 100.148 84.3817 100.649L88.2626 102.856C88.6975 103.09 88.9986 103.558 88.9985 104.06C88.9984 104.561 88.7307 105.029 88.2957 105.297L86.2879 106.466C85.8194 106.734 85.2841 106.867 84.7487 106.867ZM82.9095 100.649C82.441 100.649 81.9726 100.783 81.571 101.017L79.5633 102.186C79.2286 102.387 79.0613 102.688 79.0612 103.055C79.0612 103.423 79.2619 103.757 79.5964 103.925L83.4774 106.132C84.2803 106.6 85.3176 106.566 86.1207 106.099L88.1284 104.929C88.4631 104.728 88.6304 104.427 88.6305 104.06C88.6305 103.692 88.4298 103.358 88.0953 103.191L84.2143 100.984C83.7794 100.75 83.3444 100.649 82.9095 100.649Z" fill="#111111"></path><path d="M27.7012 109.834L63.6 129.496C63.6 129.496 71.3976 120.238 57.2454 113.015C43.0933 105.758 27.7012 109.834 27.7012 109.834Z" fill="black"></path><path d="M63.6334 129.73L27.1658 109.767L27.6677 109.633C27.835 109.599 43.294 105.624 57.3458 112.814C62.2304 115.322 65.074 118.331 65.7761 121.807C66.6453 126.12 63.7672 129.562 63.7672 129.596L63.6334 129.73ZM28.2365 109.9L63.4996 129.228C64.0016 128.593 66.0766 125.551 65.3411 121.874C64.6725 118.531 61.8958 115.622 57.1115 113.181C44.6656 106.794 31.0137 109.299 28.2365 109.9Z" fill="#111111"></path><path d="M57.2452 114.619C63.4012 117.762 65.4082 121.306 65.7088 124.281C66.0105 121.005 64.5724 116.726 57.2454 112.981C43.0933 105.758 27.7012 109.8 27.7012 109.8L29.8759 110.971C34.5938 110.202 46.2714 109.034 57.2452 114.619Z" fill="#111111"></path><path d="M46.4705 118.996L61.0918 122.041L46.3365 119.798L46.4705 118.996Z" fill="#8B75F3"></path><path d="M42.2883 117.825L48.8458 121.437C48.8458 121.437 50.2848 119.732 47.6752 118.428C45.1325 117.057 42.2883 117.825 42.2883 117.825Z" fill="#8B75F3"></path><path d="M48.9126 121.671L41.7529 117.759L42.2548 117.625C42.3886 117.592 45.1659 116.89 47.809 118.228C48.7458 118.696 49.3145 119.298 49.4482 120C49.6153 120.869 49.0799 121.537 49.0464 121.571L48.9126 121.671ZM42.8905 117.893L48.8123 121.136C48.9461 120.936 49.147 120.501 49.0467 120.033C48.9464 119.465 48.4446 118.963 47.6416 118.562C45.8015 117.626 43.8274 117.759 42.8905 117.893Z" fill="#111111"></path><path d="M40.1475 113.078L36.4004 110.971L36.9023 110.904L40.6829 113.011L40.1475 113.078Z" fill="#B5FDEA"></path><path d="M63.8347 125.952L60.0876 123.846L60.2884 123.545L64.069 125.652L63.8347 125.952Z" fill="#B5FDEA"></path><path d="M53.3969 117.259L57.3454 115.12L57.7469 115.354L53.7983 117.493L53.3969 117.259Z" fill="#B5FDEA"></path><path d="M47.8767 113.012L47.8435 111.608L48.2785 111.642L48.3117 113.079L47.8767 113.012Z" fill="#B5FDEA"></path><path d="M62.9659 119.5L61.594 119.768L61.3264 119.467L62.7317 119.199L62.9659 119.5Z" fill="#B5FDEA"></path><path d="M106.788 72.9024C93.471 72.9002 82.696 78.8488 82.6948 86.1697C82.6936 93.4907 93.4666 99.4428 106.783 99.445C120.1 99.4472 130.875 93.4986 130.877 86.1777C130.878 78.8567 120.071 72.9046 106.788 72.9024Z" fill="#111111"></path><path d="M132.484 77.2194L128 83.403C123.315 87.0126 115.552 89.3513 106.752 89.3499C97.9854 89.3484 90.2232 87.0071 85.5394 83.396L81.0903 77.2109L82.9964 84.1979C85.2035 91.1515 95.9097 96.5687 106.784 96.5705C117.458 96.5723 128.801 91.4261 130.509 84.6069L132.484 77.2194Z" fill="#8B75F3"></path><path d="M106.784 96.7707C95.575 96.7689 85.0696 91.2848 82.829 84.2644L80.9229 77.2774C80.8895 77.1771 80.9564 77.0768 81.0233 77.0434C81.1237 77.01 81.2241 77.0434 81.2575 77.1103L85.7066 83.262C90.5242 86.9399 98.4203 89.1476 106.785 89.1489C115.183 89.1503 123.047 86.9453 127.866 83.2689L132.317 77.1187C132.384 77.0519 132.484 77.0185 132.551 77.0519C132.651 77.0854 132.685 77.1856 132.651 77.2859L130.676 84.64C129.035 91.1918 118.093 96.7726 106.784 96.7707ZM81.592 78.2135L83.197 84.1307C85.3373 90.8503 95.9431 96.3344 106.784 96.3362C117.926 96.338 128.701 90.9243 130.308 84.5062L132.015 78.1884L128.167 83.4695L128.133 83.503C123.248 87.2462 115.25 89.4846 106.785 89.4832C98.3198 89.4818 90.3234 87.2408 85.4389 83.4959L85.4055 83.4625L81.592 78.2135Z" fill="#111111"></path><path d="M106.79 61.3695C92.4691 61.3671 80.8576 67.6164 80.8563 75.3385C80.8551 83.0606 92.4645 89.3138 106.785 89.3161C121.106 89.3185 132.717 83.0692 132.719 75.3471C132.72 67.625 121.11 61.3719 106.79 61.3695ZM106.785 87.6112C93.3347 87.609 82.3944 82.1249 82.3955 75.3388C82.3966 68.5527 93.3053 63.0722 106.789 63.0744C120.24 63.0766 131.181 68.5608 131.179 75.3468C131.178 82.1329 120.236 87.6135 106.785 87.6112ZM106.785 87.7784C93.2343 87.7761 82.227 82.1917 82.2282 75.3388C82.2293 68.4858 93.2384 62.905 106.789 62.9072C120.341 62.9095 131.348 68.4939 131.347 75.3469C131.312 82.2332 120.303 87.7806 106.785 87.7784ZM106.789 63.2415C93.4391 63.2393 82.5639 68.653 82.5628 75.3388C82.5617 82.0246 93.4351 87.4419 106.785 87.4441C120.136 87.4463 131.011 82.0326 131.012 75.3468C130.98 68.6944 120.14 63.2437 106.789 63.2415Z" fill="#FFEBB9"></path><path d="M131.146 75.3468C131.146 76.6171 130.744 77.8873 130.008 79.0572C126.73 73.8418 117.562 70.0628 106.755 70.061C95.9474 70.0592 86.7789 73.8017 83.499 79.0495C82.7631 77.8794 82.3618 76.6425 82.362 75.3387C82.3631 68.5527 93.2718 63.0721 106.756 63.0743C120.24 63.0766 131.147 68.5941 131.146 75.3468Z" fill="#8B75F3"></path><path d="M83.5325 79.2505C83.4655 79.2505 83.3986 79.2171 83.3652 79.1502C82.5958 77.9132 82.1945 76.6428 82.1947 75.3391C82.1959 68.4528 93.2384 62.8719 106.79 62.8742C120.341 62.8764 131.381 68.4609 131.38 75.3472C131.38 76.651 130.978 77.9212 130.208 79.1579C130.142 79.2582 129.941 79.2582 129.874 79.1579C126.529 73.8421 117.261 70.2637 106.788 70.262C96.3155 70.2602 87.0466 73.8356 83.6998 79.1503C83.6663 79.2171 83.5994 79.2505 83.5325 79.2505ZM106.789 63.2753C93.4391 63.2731 82.5973 68.6868 82.5962 75.3392C82.596 76.4758 82.897 77.579 83.5326 78.6488C87.0801 73.3676 96.349 69.8591 106.788 69.8608C117.194 69.8625 126.462 73.3741 130.041 78.6565C130.677 77.5868 130.978 76.4503 130.979 75.3472C130.946 68.6948 120.106 63.2775 106.789 63.2753Z" fill="#111111"></path><path d="M83.8013 71.2278C82.8977 72.5314 82.3956 73.9019 82.3953 75.3727C82.3951 76.6765 82.7964 77.9134 83.5323 79.0835C83.6327 78.9498 83.7331 78.7827 83.8335 78.649L83.8348 71.2278L83.8013 71.2278Z" fill="#111111"></path><path d="M83.5323 79.2505C83.4654 79.2505 83.3985 79.2171 83.3651 79.1502C82.5957 77.9132 82.1944 76.6428 82.1946 75.3391C82.1948 73.8682 82.697 72.4643 83.6675 71.0939C83.7344 71.027 83.8014 70.9936 83.9017 71.0271C83.9687 71.0605 84.0356 71.1274 84.0355 71.2277L84.0343 78.6155C84.0343 78.6489 84.0343 78.6823 84.0009 78.7157C83.9005 78.8494 83.8001 78.9831 83.6996 79.1503C83.6662 79.2171 83.5993 79.2505 83.5323 79.2505ZM83.6005 71.8962C82.9311 73.0326 82.5963 74.1692 82.5961 75.3392C82.5959 76.4758 82.8969 77.579 83.5324 78.6488C83.5659 78.6154 83.5994 78.582 83.6328 78.5151L83.6339 71.8962L83.6005 71.8962Z" fill="#111111"></path><path d="M85.1065 69.7231L85.1053 77.0775C85.44 76.7433 85.7746 76.4425 86.1762 76.1082L86.1774 68.7873C85.7758 69.0881 85.4412 69.4223 85.1065 69.7231Z" fill="#111111"></path><path d="M85.1053 77.2784C85.0719 77.2784 85.0384 77.2784 85.0384 77.2784C84.9715 77.245 84.9046 77.1781 84.9046 77.0778L84.9058 69.7234C84.9058 69.6566 84.9393 69.6232 84.9728 69.5897C85.3074 69.2555 85.6755 68.9547 86.0436 68.6539C86.1105 68.6205 86.1775 68.5871 86.2444 68.6205C86.3113 68.654 86.3447 68.7208 86.3447 68.7877L86.3435 76.1086C86.3435 76.1755 86.3101 76.2089 86.2766 76.2757C85.9085 76.5765 85.5738 76.9108 85.2392 77.2116C85.2057 77.2784 85.1723 77.2784 85.1053 77.2784ZM85.3073 69.8238L85.3062 76.6099C85.507 76.4093 85.7412 76.2088 85.9755 76.0417L85.9766 69.2222C85.7424 69.4227 85.5081 69.6233 85.3073 69.8238Z" fill="#111111"></path><path d="M87.7168 67.718L87.7156 74.9721C88.4518 74.4708 89.2884 74.0029 90.1584 73.5685L90.1596 66.3813C89.2561 66.7823 88.453 67.2501 87.7168 67.718Z" fill="#111111"></path><path d="M87.7156 75.1725C87.6822 75.1725 87.6487 75.1725 87.6153 75.1391C87.5483 75.1057 87.5149 75.0388 87.5149 74.9719L87.5161 67.7179C87.5161 67.651 87.5496 67.5841 87.6165 67.5507C88.3527 67.0828 89.1893 66.615 90.0593 66.214C90.1262 66.1805 90.1931 66.1806 90.26 66.214C90.3269 66.2474 90.3604 66.3143 90.3604 66.3812L90.3592 73.5684C90.3592 73.6352 90.3257 73.7021 90.2588 73.7355C89.3888 74.1699 88.5857 74.6378 87.8495 75.1057C87.7826 75.1726 87.7491 75.1725 87.7156 75.1725ZM87.9176 67.8182L87.9165 74.6043C88.5523 74.2032 89.255 73.8022 89.9577 73.468L89.9588 66.7154C89.2227 67.0496 88.5534 67.4172 87.9176 67.8182Z" fill="#111111"></path><path d="M125.927 67.791C125.459 67.4901 124.991 67.2226 124.455 66.9551L124.454 74.1757C124.956 74.4767 125.458 74.7776 125.926 75.0786L125.927 67.791Z" fill="#111111"></path><path d="M125.926 75.2458C125.893 75.2458 125.859 75.2458 125.826 75.2123C125.357 74.9114 124.889 74.6105 124.387 74.3095C124.32 74.2761 124.287 74.2092 124.287 74.1424L124.288 66.9217C124.288 66.8549 124.322 66.788 124.388 66.7546C124.455 66.7212 124.522 66.7212 124.589 66.7546C125.091 67.0221 125.593 67.3231 126.061 67.624C126.128 67.6574 126.162 67.7243 126.162 67.7912L126.16 75.0453C126.16 75.1121 126.127 75.179 126.06 75.2124C125.993 75.2458 125.96 75.2458 125.926 75.2458ZM124.655 74.0421C125.023 74.2428 125.358 74.4768 125.726 74.6775L125.727 67.8914C125.392 67.6908 125.024 67.4567 124.656 67.2561L124.655 74.0421Z" fill="#111111"></path><path d="M127.132 68.627L127.131 75.9479C128.335 76.9175 129.305 77.954 130.008 79.0573C130.744 77.8874 131.146 76.6506 131.146 75.3468C131.146 72.8731 129.674 70.5663 127.132 68.627Z" fill="#111111"></path><path d="M130.041 79.2577C129.974 79.2577 129.907 79.2243 129.874 79.1574C129.205 78.0876 128.235 77.0511 127.03 76.0815C126.997 76.0481 126.963 75.9812 126.963 75.9143L126.965 68.5934C126.965 68.5265 126.998 68.4597 127.065 68.4263C127.132 68.3929 127.232 68.3929 127.266 68.4597C129.942 70.4993 131.347 72.873 131.347 75.3468C131.346 76.6505 130.945 77.9207 130.175 79.1575C130.175 79.2243 130.108 79.2577 130.041 79.2577ZM127.331 75.8475C128.435 76.7503 129.339 77.6865 130.008 78.6894C130.644 77.6198 130.945 76.4833 130.945 75.3801C130.945 73.1404 129.708 70.9673 127.333 69.0615L127.331 75.8475Z" fill="#111111"></path><path d="M138.878 61.8426L133.289 69.5304C127.433 74.0423 117.729 76.9824 106.754 76.9806C95.8128 76.9788 86.1101 74.0355 80.2554 69.555L74.7024 61.832L77.0766 70.5574C79.8523 79.2494 93.168 86.0042 106.786 86.0064C120.103 86.0086 134.257 79.5592 136.4 71.0686L138.878 61.8426Z" fill="#8B75F3"></path><path d="M106.786 86.2069C92.8333 86.2046 79.6849 79.3495 76.9092 70.6241L74.535 61.8987C74.5015 61.7984 74.5685 61.6981 74.6354 61.6647C74.7358 61.6313 74.8362 61.6648 74.8696 61.7316L80.4226 69.4212C86.4446 74.0354 96.3147 76.7782 106.787 76.7799C117.26 76.7816 127.131 74.0087 133.155 69.3965L138.744 61.7087C138.811 61.6419 138.911 61.6085 138.978 61.6419C139.078 61.6754 139.112 61.7756 139.078 61.8759L136.601 71.0685C134.525 79.2917 120.872 86.2092 106.786 86.2069ZM75.204 62.8683L77.2772 70.5238C79.9526 78.9484 93.2014 85.8035 106.786 85.8057C120.705 85.808 134.19 79.0242 136.233 71.0016L138.442 62.8453L133.489 69.664L133.456 69.6974C127.365 74.3764 117.394 77.1828 106.821 77.1811C96.2477 77.1793 86.3107 74.3696 80.1883 69.722L80.1549 69.6886L75.204 62.8683Z" fill="#111111"></path><path d="M106.793 42.0473C88.8923 42.0444 74.403 49.8644 74.4014 59.4919C74.3998 69.1194 88.8865 76.9442 106.787 76.9472C124.688 76.9501 139.177 69.1301 139.179 59.5026C139.147 49.875 124.66 42.0503 106.793 42.0473ZM106.788 74.8411C89.9576 74.8383 76.3407 67.9832 76.3421 59.5256C76.3435 51.0681 89.9626 44.2174 106.793 44.2202C123.623 44.223 137.24 51.0782 137.238 59.5357C137.237 67.9932 123.584 74.8439 106.788 74.8411ZM106.788 75.0083C89.8906 75.0055 76.1734 68.05 76.1748 59.5256C76.1762 51.0012 89.8957 44.0503 106.793 44.0531C123.69 44.0559 137.407 51.0113 137.406 59.5357C137.404 68.0601 123.651 75.0111 106.788 75.0083ZM106.793 44.3874C90.0964 44.3846 76.5107 51.1684 76.5094 59.5257C76.508 67.8829 90.0914 74.6712 106.788 74.674C123.484 74.6767 137.07 67.8929 137.071 59.5357C137.072 51.1784 123.489 44.3901 106.793 44.3874Z" fill="#FFEBB9"></path><path d="M137.238 59.5353C137.238 61.1399 136.736 62.711 135.832 64.1483C131.718 57.629 120.275 52.947 106.791 52.9448C93.307 52.9426 81.8631 57.6208 77.7465 64.1387C76.8433 62.6677 76.3417 61.1299 76.342 59.5253C76.3434 51.0678 89.9625 44.2171 106.793 44.2199C123.589 44.2226 137.24 51.0778 137.238 59.5353Z" fill="#8B75F3"></path><path d="M77.7465 64.3397C77.6796 64.3397 77.6127 64.3063 77.5792 64.2394C76.6091 62.7015 76.141 61.1303 76.1412 59.5257C76.1427 50.9679 89.8957 44.0169 106.793 44.0197C123.69 44.0225 137.44 50.978 137.439 59.5358C137.439 61.1404 136.97 62.7449 136 64.249C135.933 64.3493 135.732 64.3493 135.665 64.249C131.484 57.5959 119.874 53.1145 106.791 53.1124C93.7085 53.1102 82.0974 57.5878 77.9138 64.2395C77.8803 64.3063 77.8134 64.3397 77.7465 64.3397ZM106.793 44.4209C90.1298 44.4181 76.5441 51.2019 76.5428 59.5257C76.5425 60.9632 76.9438 62.4007 77.7466 63.7714C82.1309 57.1532 93.7421 52.7425 106.791 52.7447C119.84 52.7468 131.417 57.1613 135.832 63.781C136.636 62.4105 137.037 60.9732 137.038 59.5357C137.039 51.2119 123.455 44.4236 106.793 44.4209Z" fill="#111111"></path><path d="M78.1161 54.3782C76.9782 55.9826 76.3422 57.7208 76.3419 59.526C76.3417 61.1306 76.8433 62.7018 77.7465 64.1394C77.8469 63.9723 77.9807 63.7717 78.1146 63.6046L78.1161 54.3782Z" fill="#111111"></path><path d="M77.7465 64.3398C77.6795 64.3398 77.6126 64.3064 77.5792 64.2395C76.6091 62.7016 76.1409 61.1304 76.1412 59.5258C76.1415 57.7206 76.7441 55.949 77.9489 54.2443C78.0158 54.1775 78.0827 54.1441 78.1831 54.1775C78.25 54.211 78.3169 54.2778 78.3169 54.3781L78.3154 63.6045C78.3154 63.6379 78.3154 63.6714 78.2819 63.7048C78.1481 63.8719 78.0476 64.0725 77.9138 64.2396C77.8803 64.3064 77.8134 64.3399 77.7465 64.3398ZM77.9153 55.0132C77.0117 56.4839 76.543 57.9881 76.5427 59.5259C76.5425 60.9633 76.9438 62.4008 77.7466 63.7715C77.8135 63.7047 77.847 63.6044 77.9139 63.5376L77.9153 55.0132Z" fill="#111111"></path><path d="M79.7227 52.5067L79.7212 61.6997C80.1228 61.2986 80.5578 60.8975 81.0263 60.4964L81.0278 51.3703C80.5593 51.7045 80.1243 52.1056 79.7227 52.5067Z" fill="#111111"></path><path d="M79.7212 61.8666C79.6877 61.8666 79.6543 61.8666 79.6543 61.8666C79.5874 61.8332 79.5205 61.7663 79.5205 61.666L79.522 52.4731C79.522 52.4062 79.5555 52.3728 79.5889 52.3394C80.024 51.9383 80.459 51.5372 80.9275 51.1696C80.9944 51.1362 81.0614 51.1027 81.1283 51.1362C81.1952 51.1696 81.2286 51.2365 81.2286 51.3033L81.2271 60.4629C81.2271 60.5297 81.1936 60.5632 81.1602 60.63C80.6917 60.9976 80.2566 61.3987 79.855 61.8332C79.8216 61.8667 79.7881 61.8666 79.7212 61.8666ZM79.9235 52.5734L79.9221 61.1981C80.2232 60.9307 80.5244 60.6299 80.8256 60.3625L80.827 51.7713C80.5259 52.0052 80.2247 52.306 79.9235 52.5734Z" fill="#111111"></path><path d="M82.9685 49.9661L82.967 59.0588C83.904 58.4238 84.9078 57.8557 86.0121 57.321L86.0136 48.3286C84.9093 48.8299 83.9054 49.398 82.9685 49.9661Z" fill="#111111"></path><path d="M82.967 59.2595C82.9335 59.2595 82.9001 59.2595 82.8666 59.226C82.7997 59.1926 82.7662 59.1257 82.7663 59.0589L82.7678 49.9662C82.7678 49.8993 82.8012 49.8325 82.8682 49.7991C83.8051 49.1975 84.8425 48.6628 85.9467 48.1281C86.0136 48.0947 86.0806 48.0947 86.1475 48.1282C86.2144 48.1616 86.2478 48.2285 86.2478 48.2953L86.2463 57.2877C86.2463 57.3546 86.2129 57.4214 86.1459 57.4548C85.0751 57.9895 84.0713 58.5577 83.1343 59.1927C83.0339 59.2261 83.0004 59.2595 82.967 59.2595ZM83.1692 50.1L83.1678 58.6912C84.0044 58.1565 84.8744 57.6552 85.8114 57.1874L85.8128 48.6295C84.8758 49.0974 83.9724 49.5653 83.1692 50.1Z" fill="#111111"></path><path d="M130.715 50.0739C130.147 49.7061 129.544 49.3383 128.875 49.0039L128.874 58.0297C129.509 58.3975 130.112 58.7654 130.714 59.1666L130.715 50.0739Z" fill="#111111"></path><path d="M130.714 59.3336C130.68 59.3336 130.647 59.3336 130.613 59.3002C130.045 58.8989 129.409 58.5311 128.807 58.1967C128.74 58.1633 128.706 58.0964 128.706 58.0296L128.708 49.0037C128.708 48.9369 128.741 48.87 128.808 48.8366C128.875 48.8032 128.942 48.8032 129.009 48.8366C129.645 49.171 130.28 49.5389 130.849 49.9067C130.916 49.9401 130.95 50.007 130.95 50.0738L130.948 59.1331C130.948 59.1999 130.915 59.2668 130.848 59.3002C130.747 59.3336 130.747 59.3336 130.714 59.3336ZM129.075 57.8959C129.543 58.1634 130.045 58.4644 130.513 58.7653L130.515 50.1741C130.046 49.8731 129.578 49.6056 129.076 49.3381L129.075 57.8959Z" fill="#111111"></path><path d="M132.221 51.1113L132.219 60.2374C133.725 61.4411 134.929 62.745 135.799 64.1492C136.702 62.6785 137.205 61.1408 137.205 59.5362C137.239 56.4274 135.365 53.5187 132.221 51.1113Z" fill="#111111"></path><path d="M135.799 64.3495C135.732 64.3495 135.665 64.316 135.631 64.2491C134.762 62.8784 133.591 61.6079 132.085 60.4042C132.052 60.3708 132.018 60.3039 132.018 60.2371L132.02 51.111C132.02 51.0441 132.053 50.9773 132.12 50.9438C132.187 50.9104 132.254 50.9104 132.321 50.9773C135.633 53.5185 137.406 56.4939 137.406 59.536C137.405 61.1405 136.937 62.7451 135.966 64.2492C135.933 64.3161 135.866 64.3495 135.799 64.3495ZM132.42 60.1369C133.825 61.2737 134.963 62.4773 135.799 63.7477C136.602 62.3773 137.004 60.9399 137.004 59.5025C137.005 56.661 135.399 53.9196 132.388 51.5122L132.387 60.1369L132.42 60.1369Z" fill="#111111"></path><path d="M141.322 50.945C138.747 42.2196 123.925 35.6316 106.794 35.6288C98.4293 35.6274 90.2984 37.1972 83.9741 40.0042C77.7167 42.7778 73.6005 46.6215 72.2949 50.7999L71.9269 50.6661C74.672 41.7076 89.3618 35.1914 106.794 35.1942C115.259 35.1956 123.457 36.7681 129.847 39.6775C136.204 42.5534 140.419 46.4988 141.69 50.8113L141.322 50.945Z" fill="#111111"></path><path d="M146.576 43.4243L139.648 52.9838C132.387 58.5652 120.374 62.207 106.756 62.2047C93.1717 62.2025 81.1604 58.5568 73.9006 53.0064L67.043 43.4111L69.9856 54.2092C73.4302 64.9739 89.9578 73.3672 106.788 73.37C123.317 73.3728 140.851 65.3861 143.529 54.823L146.576 43.4243Z" fill="#8B75F3"></path><path d="M106.788 73.5704C98.5567 73.5691 90.1922 71.5954 83.2667 68.0174C76.2408 64.4059 71.4569 59.5245 69.7848 54.2758L66.8421 43.4444C66.8087 43.3441 66.8756 43.2438 66.9425 43.2104C67.0429 43.177 67.1433 43.2104 67.1767 43.2773L74.0344 52.8391C81.5283 58.5567 93.7405 62.0019 106.756 62.004C119.772 62.0062 131.985 58.5984 139.481 52.8499L146.409 43.3238C146.476 43.2569 146.576 43.2235 146.643 43.257C146.743 43.2904 146.777 43.3907 146.743 43.491L143.663 54.8898C140.884 66.0546 122.346 73.573 106.788 73.5704ZM67.5111 44.4139L70.1528 54.1422C71.7915 59.2571 76.5085 64.0382 83.434 67.6162C90.3261 71.1608 98.6237 73.1345 106.788 73.1359C124.086 73.1387 140.818 64.7174 143.329 54.756L146.141 44.3935L139.849 53.0505L139.816 53.084C132.253 58.8993 119.939 62.3405 106.823 62.3383C93.7404 62.3362 81.3944 58.891 73.8336 53.0731L73.8001 53.0396L67.5111 44.4139Z" fill="#111111"></path><path d="M106.797 18.8806C84.6133 18.877 66.6439 28.5684 66.6419 40.536C66.64 52.5035 84.6061 62.2009 106.79 62.2046C128.973 62.2082 146.943 52.5168 146.945 40.5492C146.947 28.5817 128.947 18.8843 106.797 18.8806ZM106.79 59.5302C85.9449 59.5268 69.0493 51.0331 69.051 40.5364C69.0528 30.0397 85.9512 21.5515 106.796 21.555C127.642 21.5584 144.537 30.0521 144.536 40.5488C144.534 51.0455 127.635 59.5337 106.79 59.5302ZM106.79 59.6974C85.878 59.6939 68.882 51.0999 68.8837 40.5363C68.8855 29.9728 85.8843 21.3844 106.796 21.3878C127.709 21.3913 144.705 29.9853 144.703 40.5489C144.701 51.1124 127.669 59.7008 106.79 59.6974ZM106.796 21.7221C86.085 21.7187 69.22 30.1734 69.2183 40.5364C69.2166 50.9328 86.0788 59.3597 106.79 59.3631C127.502 59.3665 144.367 50.9118 144.368 40.5488C144.37 30.1524 127.508 21.7255 106.796 21.7221Z" fill="#FFEBB9"></path><path d="M144.535 40.5479C144.535 42.5537 143.933 44.459 142.795 46.264C137.71 38.1734 123.524 32.3544 106.794 32.3516C90.0647 32.3489 75.877 38.1632 70.7898 46.2521C69.6524 44.4468 69.0505 42.5078 69.0508 40.5355C69.0526 30.0388 85.951 21.5506 106.796 21.5541C127.642 21.5575 144.537 30.0513 144.535 40.5479Z" fill="#8B75F3"></path><path d="M70.7898 46.4531C70.7229 46.4531 70.656 46.4197 70.6225 46.3528C69.4518 44.4806 68.8498 42.5082 68.8502 40.5024C68.8184 29.9389 85.8507 21.3505 106.796 21.3539C127.709 21.3574 144.738 29.9514 144.736 40.5484C144.736 42.5541 144.133 44.4929 142.962 46.3647C142.895 46.465 142.694 46.465 142.627 46.3647C137.409 38.1069 123.022 32.5553 106.795 32.5526C90.5667 32.5499 76.1782 38.0968 70.9571 46.3529C70.9237 46.4197 70.8567 46.4531 70.7898 46.4531ZM106.796 21.7551C86.0849 21.7516 69.2534 30.173 69.2517 40.5359C69.2514 42.3745 69.7864 44.1463 70.7899 45.8848C76.2117 37.6622 90.6002 32.1488 106.795 32.1515C122.989 32.1541 137.376 37.6723 142.795 45.8633C143.832 44.1251 144.334 42.3535 144.335 40.5149C144.336 30.1854 127.474 21.7585 106.796 21.7551Z" fill="#111111"></path><path d="M71.2269 34.1517C69.8213 36.1572 69.0179 38.2966 69.0175 40.5363C69.0172 42.542 69.6191 44.4476 70.7565 46.2529C70.8903 46.0189 71.0577 45.785 71.225 45.5844L71.2269 34.1517Z" fill="#111111"></path><path d="M70.7899 46.4536C70.723 46.4536 70.6561 46.4201 70.6226 46.3533C69.4518 44.4811 68.8499 42.5087 68.8502 40.5029C68.8506 38.2632 69.5871 36.0904 71.0931 33.9846C71.16 33.9178 71.2269 33.8844 71.3273 33.9178C71.3942 33.9513 71.4611 34.0181 71.4611 34.1184L71.4592 45.5511C71.4592 45.5845 71.4592 45.618 71.4258 45.6514C71.2584 45.8854 71.1246 46.0859 70.9907 46.3199C70.9237 46.4202 70.8568 46.4536 70.7899 46.4536ZM71.026 34.7869C69.8212 36.6253 69.2186 38.5641 69.2183 40.5364C69.218 42.375 69.753 44.1468 70.7565 45.8853C70.8235 45.7516 70.9239 45.6513 70.9908 45.5176L70.9926 34.7869L71.026 34.7869Z" fill="#111111"></path><path d="M138.314 30.1182L138.312 41.4171C140.186 42.8883 141.691 44.5266 142.761 46.2651C143.899 44.4601 144.502 42.5213 144.502 40.549C144.536 36.7047 142.228 33.094 138.314 30.1182Z" fill="#111111"></path><path d="M142.761 46.4653C142.695 46.4653 142.628 46.4319 142.594 46.365C141.524 44.6934 140.052 43.0551 138.178 41.584C138.145 41.5505 138.111 41.4837 138.111 41.4168L138.113 30.1178C138.113 30.051 138.147 29.9841 138.214 29.9507C138.281 29.9173 138.381 29.9173 138.414 29.9841C142.529 33.1271 144.704 36.7713 144.703 40.5822C144.703 42.5879 144.1 44.5267 142.929 46.3985C142.895 46.4319 142.862 46.4654 142.761 46.4653ZM138.513 41.35C140.286 42.7877 141.691 44.2923 142.762 45.897C143.799 44.1589 144.301 42.3873 144.302 40.5487C144.302 37.0052 142.295 33.5283 138.515 30.519L138.513 41.35Z" fill="#111111"></path><path d="M108.199 35.4283C108.199 35.796 107.898 36.0634 107.563 36.0634C107.195 36.0633 106.928 35.7624 106.928 35.4281C106.928 35.0604 107.229 34.793 107.564 34.7931C107.932 34.7931 108.199 35.0606 108.199 35.4283Z" fill="white"></path><path d="M107.564 36.2644C107.095 36.2643 106.727 35.8965 106.727 35.4285C106.727 34.9605 107.095 34.5928 107.564 34.5929C108.032 34.593 108.4 34.9608 108.4 35.4288C108.4 35.8968 108.032 36.2644 107.564 36.2644ZM107.564 34.9941C107.329 34.994 107.129 35.1946 107.129 35.4286C107.129 35.6626 107.329 35.8632 107.564 35.8632C107.798 35.8633 107.999 35.6627 107.999 35.4287C107.999 35.1613 107.798 34.9941 107.564 34.9941Z" fill="#111111"></path><path d="M87.223 18.9115C87.2229 19.5132 86.7544 19.9812 86.1521 19.9811C85.5499 19.981 85.0815 19.5129 85.0816 18.9112C85.0817 18.3094 85.5502 17.8415 86.1525 17.8416C86.7548 17.8083 87.2231 18.3098 87.223 18.9115Z" fill="white"></path><path d="M86.1521 20.1814C85.4495 20.1813 84.8808 19.6129 84.8809 18.9109C84.881 18.2089 85.4499 17.6407 86.1526 17.6408C86.8552 17.641 87.4239 18.2093 87.4238 18.9113C87.4237 19.6134 86.8548 20.1815 86.1521 20.1814ZM86.1525 18.0086C85.6841 18.0085 85.2825 18.4096 85.2824 18.8776C85.2823 19.379 85.6838 19.7468 86.1522 19.7469C86.6541 19.7469 87.0222 19.3459 87.0223 18.8778C87.0224 18.4098 86.6209 18.0086 86.1525 18.0086Z" fill="#111111"></path><path d="M82.2376 18.5762C81.4011 18.5761 80.732 17.9074 80.7322 17.0717C80.7323 16.236 81.4016 15.5675 82.2381 15.5676C83.0746 15.5678 83.7437 16.2365 83.7435 17.0722C83.7099 17.9079 83.0406 18.5764 82.2376 18.5762ZM82.238 15.9688C81.6358 15.9687 81.1338 16.47 81.1337 17.0718C81.1336 17.6735 81.6354 18.175 82.2377 18.1751C82.8399 18.1752 83.3419 17.6738 83.342 17.0721C83.3087 16.4704 82.8403 15.9689 82.238 15.9688Z" fill="#111111"></path><path d="M106.789 66.9185C84.3041 66.9148 65.9699 57.3845 65.9718 45.651C65.972 44.5144 66.1395 43.3778 66.4743 42.2413L66.8423 42.3751C66.5076 43.4447 66.3401 44.5479 66.3399 45.651C66.338 57.1506 84.4715 66.5137 106.756 66.5174C129.04 66.521 147.176 57.1639 147.178 45.6644C147.178 44.5946 147.011 43.5583 146.71 42.522L147.112 42.4217C147.413 43.4915 147.58 44.5947 147.58 45.6979C147.578 57.398 129.274 66.9222 106.789 66.9185Z" fill="#111111"></path><path d="M106.787 81.0919C88.4174 81.0888 73.4623 73.2974 73.4639 63.7033C73.4641 62.7673 73.598 61.8313 73.8993 60.9288L74.2674 61.0626C73.9995 61.9317 73.8656 62.8342 73.8654 63.7368C73.8639 73.0969 88.6182 80.7212 106.787 80.7241C124.955 80.7271 139.712 73.1078 139.714 63.7477C139.714 62.8785 139.58 62.0428 139.346 61.1736L139.748 61.0734C140.015 61.9426 140.149 62.8452 140.149 63.7477C140.114 73.275 125.156 81.0949 106.787 81.0919Z" fill="#111111"></path><path d="M106.785 92.0234C91.4937 92.0209 79.0479 85.5002 79.0492 77.5107C79.0493 76.7418 79.1833 75.9396 79.4176 75.2042L79.7856 75.3379C79.5513 76.0733 79.4508 76.8088 79.4507 77.5442C79.4494 85.2997 91.728 91.6532 106.785 91.6557C121.875 91.6582 134.122 85.3422 134.124 77.5532C134.124 76.8512 134.023 76.1158 133.823 75.4471L134.224 75.3469C134.425 76.0824 134.559 76.8178 134.558 77.5867C134.524 85.5428 122.076 92.026 106.785 92.0234Z" fill="#111111"></path><g opacity="0.55"><path d="M145.94 45.4638C145.94 45.4638 141.354 55.6254 125.895 59.6343C125.895 59.6343 124.623 68.1251 122.949 70.7657L126.663 73.2066C126.663 73.2066 127.063 78.5887 125.591 81.7977L128 83.3692C128 83.3692 128.434 87.6482 125.89 90.9572C125.89 90.9572 130.107 87.9493 130.877 83.6371L132.484 77.1856C132.484 77.1856 135.663 74.0438 136.266 71.9044C136.869 69.7651 138.911 61.8093 138.911 61.8093C138.911 61.8093 141.889 59.637 143.228 55.492C144.299 52.0824 145.94 45.4638 145.94 45.4638Z" fill="#32303C"></path></g></g><path d="M85.038 19.9766L96.6907 26.4374L96.6952 12.7762L85.0425 6.31543L85.038 19.9766Z" fill="#D7FF65"></path><path d="M96.6924 26.755C96.6395 26.755 96.5865 26.755 96.5335 26.702L84.8803 20.2412C84.7743 20.1882 84.7214 20.0823 84.7214 19.9764L84.7257 6.31521C84.7258 6.20931 84.7788 6.10341 84.8848 6.05047C84.9907 5.99752 85.0967 5.99753 85.2026 6.05049L96.8559 12.5113C96.9618 12.5643 97.0148 12.6702 97.0147 12.7761L97.0104 26.4373C97.0104 26.5432 96.9574 26.6491 96.8514 26.702C96.7984 26.755 96.7454 26.755 96.6924 26.755ZM85.3572 19.7647L96.3219 25.9077L96.3259 12.9878L85.3613 6.84476L85.3572 19.7647Z" fill="#111111"></path><path d="M85.0399 6.31849L96.7489 12.8325L107.349 6.90239L95.6935 0.388367L85.0399 6.31849Z" fill="#8B75F3"></path><path d="M96.7459 13.2026L84.4011 6.31798L95.6908 0.0173157L108.036 6.849L96.7459 13.2026ZM85.7259 6.31806L96.7462 12.4613L106.711 6.90187L95.6905 0.758651L85.7259 6.31806Z" fill="#111111"></path><path d="M107.347 20.9339L96.9093 26.5459L96.9138 12.7788L107.352 6.90212L107.347 20.9339Z" fill="#111111"></path><path d="M96.9094 26.8634C96.8564 26.8634 96.8034 26.8634 96.7505 26.8104C96.6445 26.7575 96.5916 26.6516 96.5916 26.5457L96.596 12.7786C96.596 12.6727 96.649 12.5668 96.755 12.5139L107.246 6.63719C107.352 6.58425 107.458 6.58426 107.564 6.63721C107.67 6.69017 107.723 6.79608 107.723 6.90198L107.719 20.9867C107.719 21.0926 107.666 21.1985 107.56 21.2515L97.0683 26.8104C97.0153 26.8634 96.9623 26.8634 96.9094 26.8634ZM97.2316 12.9375L97.2275 26.0162L107.083 20.7749L107.087 7.43143L97.2316 12.9375Z" fill="#111111"></path><g opacity="0.6"><path d="M106.976 45.023L97.333 39.6744L88.5872 44.5981L98.1773 49.9467L106.976 45.023Z" fill="#32303C"></path></g><path d="M89.4425 43.9815L101.095 50.4423L101.1 36.7811L89.447 30.3203L89.4425 43.9815Z" fill="#D7FF65"></path><path d="M101.096 50.7599C101.043 50.7599 100.99 50.7598 100.937 50.7069L89.2841 44.2461C89.1781 44.1931 89.1252 44.0872 89.1252 43.9813L89.1295 30.3201C89.1296 30.2142 89.1826 30.1083 89.2886 30.0553C89.3945 30.0024 89.5005 30.0024 89.6064 30.0554L101.26 36.5162C101.366 36.5692 101.419 36.6751 101.419 36.781L101.414 50.4422C101.414 50.5481 101.361 50.654 101.255 50.7069C101.202 50.7599 101.149 50.7599 101.096 50.7599ZM89.761 43.7696L100.726 49.9126L100.73 36.9927L89.7651 30.8496L89.761 43.7696Z" fill="#111111"></path><path d="M89.4503 30.3234L101.159 36.8374L111.76 30.9073L100.104 24.3932L89.4503 30.3234Z" fill="#8B75F3"></path><path d="M101.161 37.2075L88.8166 30.3229L100.106 24.0222L112.451 30.8539L101.161 37.2075ZM90.1414 30.3229L101.162 36.4662L111.126 30.9068L100.106 24.7635L90.1414 30.3229Z" fill="#111111"></path><path d="M111.75 44.9388L101.312 50.5508L101.316 36.7837L111.754 30.907L111.75 44.9388Z" fill="#111111"></path><path d="M101.312 50.8683C101.259 50.8683 101.206 50.8683 101.153 50.8153C101.047 50.7623 100.994 50.6564 100.994 50.5505L100.999 36.7835C100.999 36.6776 101.052 36.5717 101.158 36.5188L111.649 30.6421C111.755 30.5891 111.861 30.5891 111.967 30.6421C112.073 30.6951 112.126 30.801 112.126 30.9069L112.121 44.9916C112.121 45.0975 112.068 45.2034 111.962 45.2563L101.471 50.8153C101.418 50.8683 101.365 50.8683 101.312 50.8683ZM101.634 36.9424L101.63 50.0211L111.486 44.7798L111.49 31.4363L101.634 36.9424Z" fill="#111111"></path><path d="M110.498 50.8429L122.151 57.3036L122.155 43.6424L110.502 37.1816L110.498 50.8429Z" fill="#D7FF65"></path><path d="M122.148 57.6212C122.096 57.6212 122.043 57.6212 121.99 57.5682L110.336 51.1074C110.23 51.0544 110.177 50.9485 110.177 50.8426L110.182 37.1814C110.182 37.0755 110.235 36.9696 110.341 36.9167C110.447 36.8637 110.553 36.8637 110.659 36.9167L122.312 43.3775C122.418 43.4305 122.471 43.5364 122.471 43.6423L122.466 57.3035C122.466 57.4094 122.413 57.5153 122.307 57.5682C122.254 57.6212 122.201 57.6212 122.148 57.6212ZM110.813 50.6309L121.778 56.774L121.782 43.854L110.817 37.711L110.813 50.6309Z" fill="#111111"></path><path d="M110.506 37.1847L122.215 43.6987L132.816 37.7686L121.16 31.2546L110.506 37.1847Z" fill="#8B75F3"></path><path d="M122.212 44.0688L109.868 37.1842L121.157 30.8835L133.502 37.7152L122.212 44.0688ZM111.192 37.1843L122.213 43.3275L132.177 37.7681L121.157 31.6249L111.192 37.1843Z" fill="#111111"></path><path d="M132.812 51.8001L122.374 57.4121L122.378 43.645L132.816 37.7683L132.812 51.8001Z" fill="#111111"></path><path d="M122.376 57.7296C122.323 57.7296 122.27 57.7296 122.217 57.6766C122.111 57.6237 122.058 57.5178 122.058 57.4119L122.062 43.6448C122.062 43.5389 122.115 43.433 122.221 43.3801L132.713 37.5034C132.819 37.4505 132.925 37.4505 133.03 37.5034C133.136 37.5564 133.189 37.6623 133.189 37.7682L133.185 51.8529C133.185 51.9588 133.132 52.0647 133.026 52.1177L122.535 57.6767C122.482 57.7296 122.429 57.7296 122.376 57.7296ZM122.698 43.8037L122.694 56.8824L132.549 51.6411L132.553 38.2976L122.698 43.8037Z" fill="#111111"></path><path d="M218.453 77.1243C198.495 67.0951 176.997 76.54 170.435 98.2256C163.874 119.911 174.738 145.62 194.696 155.65C214.654 165.679 236.153 156.234 242.714 134.548C249.276 112.863 238.412 87.1535 218.453 77.1243Z" fill="white"></path><path d="M194.696 155.649C214.343 165.523 235.464 156.514 242.381 135.554H174.649C179.203 144.111 186.106 151.33 194.689 155.649H194.696Z" fill="#D7FF65"></path><path d="M218.653 76.7249C208.982 71.8656 198.629 71.3405 189.497 75.2605C180.174 79.2618 173.249 87.368 170.006 98.0999C163.4 119.948 174.382 145.946 194.496 156.056C199.88 158.763 205.471 160.124 210.952 160.124C215.313 160.124 219.601 159.259 223.652 157.528C232.976 153.527 239.9 145.421 243.144 134.689C249.757 112.84 238.767 86.8429 218.653 76.7323V76.7249ZM242.285 134.422C239.115 144.895 232.376 152.802 223.297 156.692C214.417 160.501 204.331 159.991 194.903 155.25C175.16 145.324 164.385 119.8 170.872 98.3513C174.042 87.8783 180.781 79.9718 189.86 76.0814C193.793 74.3951 197.962 73.5593 202.205 73.5593C207.545 73.5593 213.003 74.8907 218.254 77.5311C237.997 87.4568 248.772 112.981 242.285 134.43V134.422Z" fill="#111111"></path><path d="M208.945 159.522L208.525 160.312L241.067 177.535L241.487 176.744L208.945 159.522Z" fill="#111111"></path><path d="M212.714 73.123L177.448 73.2266L179.626 159.599L212.973 159.584C219.009 159.57 223.845 140.199 223.771 116.324C223.704 92.4493 218.75 73.1083 212.714 73.1304V73.123Z" fill="white"></path><path d="M179.626 159.599L212.973 159.584C216.773 159.577 220.098 151.892 222.016 140.243L179.137 140.369L179.618 159.599H179.626Z" fill="#D7FF65"></path><path d="M177.182 73.419C171.176 73.4338 166.355 92.723 166.429 116.494C166.503 140.266 171.427 159.525 177.433 159.503C183.439 159.488 188.253 140.199 188.186 116.428C188.12 92.6564 183.188 73.3968 177.182 73.419Z" fill="#D7FF65"></path><path d="M131.104 97.4861C132.644 110.466 124.824 149.178 124.824 149.178C124.824 149.178 130.223 152.203 133.814 152.817C137.406 153.431 169.221 154.888 172.82 154.688C176.419 154.488 180.403 154.71 180.403 154.71L180.47 77.6865L132.778 70.7637C132.778 70.7637 129.571 84.5058 131.104 97.4861Z" fill="#FFE8DA"></path><path d="M178.279 77.7012C172.873 77.716 168.533 95.0822 168.6 116.479C168.667 137.884 173.103 155.221 178.509 155.206C183.915 155.191 188.254 137.825 188.188 116.428C188.129 95.023 183.685 77.6864 178.279 77.7012Z" fill="#FFE8DA"></path><path d="M163.644 68.3525C156.535 61.0673 167.814 37.0667 162.882 29.3081C157.105 20.2182 146.374 25.2994 139.68 33.1171C132.985 40.9423 127.097 74.5579 127.097 74.5579L186.669 95.0823C186.743 90.4893 182.277 78.3522 182.277 78.3522C182.277 78.3522 170.754 75.6452 163.637 68.3599L163.644 68.3525Z" fill="#FFE8DA"></path><path d="M177.226 72.7832H177.219C175.693 72.7832 174.612 73.508 173.368 75.3497L174.108 75.8452C175.323 74.0332 176.167 73.6781 177.219 73.6708C179.87 73.6708 182.536 78.1528 184.543 85.9706C186.624 94.0916 187.786 104.905 187.823 116.421C187.89 139.608 183.15 159.215 177.47 159.237C175.997 159.237 174.478 157.817 173.079 155.14L172.286 155.554C173.871 158.594 175.619 160.132 177.47 160.132H177.478C183.854 160.11 188.794 140.917 188.727 116.421C188.69 104.838 187.52 93.9437 185.424 85.7561C183.284 77.391 180.373 72.7832 177.233 72.7832H177.226Z" fill="#111111"></path><path d="M212.722 72.6797H212.715V73.5746H212.722C215.374 73.5746 218.047 78.0567 220.047 85.8745C222.128 93.9955 223.29 104.809 223.32 116.325C223.357 127.833 222.254 138.654 220.224 146.789C218.269 154.629 215.626 159.126 212.967 159.134V160.029C216.114 160.021 218.995 155.391 221.091 147.004C223.142 138.794 224.246 127.9 224.216 116.317C224.179 104.735 223.009 93.8402 220.913 85.6526C218.773 77.2875 215.862 72.6797 212.722 72.6797Z" fill="#111111"></path><path d="M142.48 87.1617L129.009 65.4688C129.009 65.4688 103.652 69.1964 98.9863 77.9757C94.3207 86.7549 95.3649 100.172 117.182 106.503C138.999 112.834 146.108 103.67 147.456 98.8181C149.426 91.6956 142.487 87.1617 142.487 87.1617H142.48Z" fill="#FFE8DA"></path><path d="M138.561 107.412L100.074 96.7539C96.9713 98.81 94.5126 101.517 93.935 105.038C92.0835 116.317 94.6681 127.455 117.389 130.34C140.109 133.224 145.338 123.106 145.723 118.121C146.286 110.799 138.561 107.404 138.561 107.404V107.412Z" fill="#FFE8DA"></path><path d="M139.087 127.796L103.518 126.235C102.526 127.996 102.222 129.97 102.303 132.145C102.674 141.76 108.383 151.057 126.601 149.844C144.812 148.631 146.352 139.201 145.419 134.911C144.049 128.61 139.087 127.796 139.087 127.796Z" fill="#FFE8DA"></path><path d="M173.115 155.235L180.699 155.213L125.327 149.925C125.327 149.925 146.292 165.131 173.115 155.235Z" fill="#FFE8DA"></path><path d="M163.17 47.3698C164.437 39.8774 165.636 32.8067 163.259 29.0642C161.282 25.9504 158.645 24.2567 155.417 24.0274C149.477 23.6059 143.212 28.295 139.339 32.8215C132.644 40.6467 126.897 73.0937 126.66 74.4694L127.542 74.6247C127.601 74.2919 133.481 41.0386 140.02 33.3984C144.789 27.8365 150.67 24.5822 155.357 24.915C158.283 25.1221 160.689 26.6753 162.504 29.5376C164.696 32.9916 163.526 39.8996 162.289 47.2145C160.845 55.757 159.349 64.5881 163.318 68.656C170.443 75.9486 182.062 78.7444 182.173 78.7665L182.381 77.8938C182.262 77.8642 170.894 75.1276 163.963 68.0273C160.304 64.2848 161.763 55.6831 163.17 47.3624V47.3698Z" fill="#111111"></path><path d="M142.724 86.7836L142.235 87.5306C142.302 87.5749 148.878 91.9757 147.019 98.6914C146.649 100.038 145.316 103.432 141.013 105.829C135.526 108.891 127.328 108.972 117.3 106.065C107.451 103.203 100.904 98.5287 98.3715 92.5452C95.8166 86.5025 97.905 80.948 99.3787 78.1744C103.889 69.6984 128.824 65.9411 129.075 65.9041L128.942 65.0166C127.898 65.1719 103.304 68.8848 98.5863 77.7528C97.0385 80.6669 94.8464 86.5025 97.5495 92.8854C100.193 99.1278 106.94 103.98 117.056 106.916C122.447 108.477 126.883 109.076 130.512 109.076C135.615 109.076 139.132 107.907 141.458 106.605C146.049 104.046 147.486 100.378 147.886 98.9207C149.922 91.5615 142.798 86.8131 142.724 86.7688V86.7836Z" fill="#111111"></path><path d="M138.747 106.998L138.384 107.819C138.458 107.848 145.804 111.184 145.278 118.092C145.175 119.46 144.53 122.959 140.842 125.962C137.495 128.691 130.719 131.583 117.448 129.896C107.28 128.602 100.585 125.636 96.9935 120.821C94.083 116.931 93.2536 111.931 94.3793 105.104C94.8754 102.087 96.875 99.402 100.326 97.124L99.8298 96.377C96.164 98.8029 94.0312 101.695 93.4906 104.964C92.3279 112.049 93.2092 117.256 96.2677 121.361C100.015 126.376 106.902 129.46 117.329 130.784C120.092 131.132 122.58 131.287 124.824 131.287C133.614 131.287 138.628 128.913 141.405 126.649C145.36 123.425 146.049 119.638 146.167 118.151C146.745 110.6 138.821 107.027 138.747 106.99V106.998Z" fill="#111111"></path><path d="M139.162 127.352L139.014 128.232C139.058 128.24 143.687 129.06 144.975 135C145.19 135.991 145.694 139.474 143.176 142.817C140.339 146.582 134.592 148.853 126.572 149.385C118.352 149.932 112.124 148.357 108.065 144.711C104.792 141.767 102.955 137.411 102.756 132.115C102.667 129.807 103.037 128.003 103.911 126.442L103.133 126.006C102.171 127.722 101.763 129.674 101.859 132.152C102.074 137.699 104.014 142.27 107.466 145.384C111.168 148.712 116.552 150.391 123.491 150.391C124.506 150.391 125.55 150.354 126.631 150.28C135.044 149.718 140.85 147.388 143.894 143.357C146.641 139.711 146.093 135.895 145.856 134.807C144.435 128.284 139.377 127.382 139.162 127.345V127.352Z" fill="#111111"></path><path d="M149.921 88.833C149.847 89.0993 142.671 115.607 147.648 139.231L148.521 139.046C143.589 115.637 150.706 89.3359 150.78 89.0697L149.914 88.833H149.921Z" fill="#111111"></path><path d="M173.11 154.785C173.058 154.785 173.006 154.792 172.954 154.814C146.671 164.503 125.787 149.711 125.58 149.556L125.054 150.28C125.21 150.399 137.333 158.993 154.751 158.993C160.416 158.993 166.637 158.083 173.191 155.68L182.278 155.658V154.763L173.11 154.785Z" fill="#111111"></path><path d="M212.709 72.6979L177.444 72.8086L177.447 73.7035L212.712 73.5929L212.709 72.6979Z" fill="#111111"></path><path d="M213.167 159.13L177.205 159.274L177.209 160.169L213.17 160.025L213.167 159.13Z" fill="#111111"></path><path d="M203.057 139.171C199.525 139.178 196.666 142.048 196.681 145.576C196.688 149.104 199.562 151.959 203.094 151.944C206.627 151.937 209.485 149.067 209.47 145.539C209.463 142.011 206.59 139.156 203.057 139.171Z" fill="#DCDCE6"></path><path d="M203.056 138.728C201.227 138.728 199.509 139.452 198.22 140.747C196.932 142.041 196.221 143.764 196.228 145.584C196.228 147.411 196.954 149.127 198.25 150.414C199.539 151.693 201.249 152.403 203.071 152.403H203.093C204.923 152.403 206.641 151.678 207.929 150.384C209.218 149.09 209.929 147.366 209.921 145.547C209.921 143.72 209.196 142.004 207.9 140.717C206.604 139.43 204.871 138.742 203.056 138.728ZM203.093 151.501H203.079C199.805 151.501 197.139 148.846 197.132 145.576C197.132 143.986 197.739 142.492 198.865 141.368C199.983 140.244 201.479 139.622 203.064 139.615H203.079C204.663 139.615 206.152 140.229 207.27 141.346C208.396 142.463 209.018 143.957 209.025 145.539C209.033 148.816 206.374 151.486 203.093 151.501Z" fill="#111111"></path><path d="M203.064 141.168C200.635 141.168 198.672 143.15 198.679 145.569C198.687 147.995 200.657 149.955 203.086 149.947C205.515 149.947 207.477 147.972 207.47 145.547C207.47 143.121 205.493 141.161 203.064 141.168Z" fill="#8B75F3"></path><path d="M203.086 149.482V150.377C205.13 150.377 206.952 149.075 207.626 147.152L206.781 146.856C206.233 148.424 204.745 149.475 203.086 149.482Z" fill="#111111"></path><path d="M203.078 140.747H203.063C201.774 140.747 200.567 141.257 199.656 142.167C198.745 143.077 198.249 144.29 198.249 145.577C198.249 147.529 199.427 149.267 201.234 150.014L201.574 149.186C200.101 148.58 199.153 147.16 199.145 145.569C199.145 144.519 199.545 143.535 200.286 142.796C201.026 142.056 202.011 141.642 203.056 141.642C204.64 141.612 206.062 142.574 206.677 144.024L207.499 143.676C206.736 141.893 204.996 140.747 203.063 140.747H203.078Z" fill="#111111"></path><path d="M201.686 143.343C201.198 143.343 200.805 143.735 200.813 144.223C200.813 144.711 201.213 145.103 201.694 145.096C202.183 145.096 202.575 144.704 202.568 144.216C202.568 143.727 202.175 143.335 201.686 143.343Z" fill="#111111"></path><path d="M204.449 143.336C203.96 143.336 203.568 143.728 203.575 144.216C203.575 144.704 203.968 145.096 204.457 145.089C204.945 145.089 205.338 144.697 205.33 144.209C205.33 143.721 204.931 143.336 204.449 143.336Z" fill="#111111"></path><path d="M201.693 146.035C201.204 146.035 200.819 146.435 200.819 146.915C200.819 147.404 201.212 147.796 201.7 147.788C202.189 147.788 202.582 147.396 202.574 146.908C202.574 146.42 202.174 146.028 201.693 146.035Z" fill="#111111"></path><path d="M204.456 146.028C203.967 146.028 203.575 146.428 203.582 146.909C203.582 147.389 203.975 147.781 204.463 147.781C204.952 147.781 205.345 147.389 205.337 146.901C205.337 146.413 204.945 146.021 204.456 146.028Z" fill="#111111"></path><path d="M164.229 33.0513L163.37 32.7998C163.333 32.9181 159.852 44.7594 159.348 46.0168C158.741 47.5478 161.066 49.7814 161.34 50.0329L161.955 49.3746C161.052 48.5389 159.911 47.0374 160.185 46.3496C160.704 45.0553 164.088 33.5394 164.236 33.0513H164.229Z" fill="#111111"></path><path d="M136.777 118.647C136.695 118.588 136.599 118.551 136.503 118.551C135.881 118.551 121.254 118.669 120.358 126.62C119.929 130.451 123.35 131.228 123.387 131.235L123.572 130.362C123.461 130.34 120.906 129.734 121.247 126.724C122.01 119.978 134.748 119.49 136.34 119.453C136.999 120.03 140.146 123.085 138.828 127.3L139.687 127.567C141.324 122.315 136.829 118.684 136.784 118.647H136.777Z" fill="#111111"></path><path d="M140.19 96.3247C140.109 96.2655 140.013 96.2285 139.909 96.2285C139.287 96.2285 124.661 96.3468 123.765 104.298C123.335 108.129 126.756 108.906 126.794 108.913L126.979 108.04C126.868 108.018 124.313 107.412 124.653 104.401C125.416 97.656 138.154 97.1678 139.746 97.1309C140.398 97.7078 143.553 100.762 142.234 104.978L143.093 105.244C144.737 99.9932 140.235 96.3616 140.19 96.3321V96.3247Z" fill="#111111"></path><path d="M138.257 137.256C137.701 137.204 124.712 136.124 123.593 143.846C123.386 145.281 123.697 146.509 124.512 147.507C126.326 149.704 129.984 149.911 130.133 149.918L130.177 149.023C130.177 149.023 126.763 148.831 125.2 146.938C124.549 146.146 124.304 145.155 124.475 143.979C125.408 137.537 136.472 138.04 137.997 138.136C138.634 138.876 141.559 142.589 139.264 146.294L140.026 146.768C142.907 142.123 138.582 137.448 138.538 137.397C138.464 137.315 138.36 137.271 138.257 137.256Z" fill="#111111"></path><defs><clipPath id="clip0_3812_25558"><rect width="169.73" height="104.748" fill="white" transform="translate(0.98877 50.4365)"></rect></clipPath><clipPath id="clip1_3812_25558"><rect width="148.393" height="144.513" fill="white" transform="translate(0.0239258 18.4297)"></rect></clipPath></defs></svg>