<svg xmlns="http://www.w3.org/2000/svg" width="170" height="167" viewBox="0 0 170 167" fill="none"><path d="M142.454 66.1224C122.496 56.0931 100.997 65.5381 94.4359 87.2236C87.8745 108.909 98.7386 134.618 118.697 144.648C138.655 154.677 160.154 145.232 166.715 123.546C173.277 101.861 162.412 76.1516 142.454 66.1224Z" fill="white"></path><path d="M118.697 144.647C138.344 154.521 159.465 145.513 166.382 124.552H98.6497C103.204 133.109 110.106 140.328 118.689 144.647H118.697Z" fill="#D7FF65"></path><path d="M142.654 65.7229C132.982 60.8637 122.629 60.3385 113.498 64.2585C104.174 68.2598 97.2501 76.366 94.0064 87.0979C87.4005 108.946 98.3831 134.944 118.497 145.054C123.881 147.761 129.472 149.122 134.952 149.122C139.314 149.122 143.602 148.257 147.653 146.526C156.977 142.525 163.901 134.419 167.145 123.687C173.758 101.838 162.768 75.8409 142.654 65.7303V65.7229ZM166.286 123.421C163.116 133.894 156.377 141.8 147.298 145.69C138.418 149.499 128.332 148.989 118.904 144.248C99.1607 134.322 88.3855 108.798 94.8729 87.3494C98.0425 76.8764 104.782 68.9699 113.861 65.0795C117.793 63.3932 121.963 62.5574 126.206 62.5574C131.546 62.5574 137.004 63.8887 142.254 66.5291C161.998 76.4548 172.773 101.979 166.286 123.428V123.421Z" fill="#111111"></path><path d="M132.945 148.52L132.526 149.311L165.067 166.533L165.487 165.742L132.945 148.52Z" fill="#111111"></path><path d="M56.2612 27.045L10.9893 0.908698C9.80132 0.229833 8.486 0.272262 7.4677 0.866269C7.38284 0.908698 7.34041 0.951128 7.25556 0.993557L2.16406 3.92117L3.64908 10.625L5.51597 10.2007V120.432C5.51597 123.571 7.21315 126.499 9.92861 128.026L51.4243 151.574L53.5033 156.751L58.5099 153.823C59.698 153.272 60.589 152.041 60.589 150.514V34.5974C60.6314 31.4577 58.9767 28.5725 56.2612 27.045Z" fill="#151617"></path><path d="M53.3327 157.344L51.1264 151.871L9.75806 128.408C6.91531 126.795 5.13328 123.74 5.13328 120.431V10.7516L3.35128 11.1334L1.69653 3.70833L7.04259 0.611003C7.12745 0.568574 7.21231 0.526145 7.25474 0.483716C8.48518 -0.19515 9.97022 -0.152721 11.2007 0.568574L56.4725 26.7049C59.3153 28.3172 61.0549 31.3721 61.0549 34.6392V150.598C61.0549 152.168 60.1639 153.568 58.7213 154.289L53.3327 157.344ZM5.98186 9.69083V120.431C5.98186 123.401 7.59418 126.201 10.1824 127.644L51.8053 151.277L53.757 156.156L58.3394 153.483C59.485 152.932 60.2063 151.828 60.2063 150.555V34.5967C60.2063 31.6267 58.594 28.8688 56.0482 27.3838L10.7764 1.24744C9.8005 0.695861 8.65491 0.653432 7.63661 1.20501C7.55175 1.24744 7.50932 1.28987 7.42446 1.3323L2.58753 4.13262L3.94527 10.1151L5.98186 9.69083Z" fill="#0B132B"></path><path d="M0.381836 123.401V7.0179C0.381836 4.21758 3.43672 2.47798 5.85518 3.87814L51.127 30.0145C53.8425 31.5843 55.4973 34.4695 55.4973 37.5668V153.526C55.4973 156.326 52.4848 158.065 50.0663 156.708L4.83689 131.038C2.079 129.426 0.381836 126.541 0.381836 123.401Z" fill="#AAFFE6"></path><path d="M51.8484 157.6C51.1695 157.6 50.4907 157.43 49.8542 157.048L4.62479 131.378C1.78203 129.766 0 126.711 0 123.402V7.01864C0 5.53362 0.763719 4.21832 2.03659 3.49703C3.30947 2.77573 4.83693 2.77573 6.10981 3.49703L51.3392 29.6334C54.182 31.2457 55.9216 34.3006 55.9216 37.5676V153.526C55.9216 155.011 55.1579 156.284 53.885 157.048C53.2486 157.387 52.5697 157.6 51.8484 157.6ZM4.03077 3.79403C3.47919 3.79403 2.92762 3.92132 2.41847 4.21832C1.40017 4.81233 0.806164 5.83063 0.806164 7.01864V123.402C0.806164 126.372 2.41846 129.172 5.00663 130.615L50.2361 156.284C51.2544 156.836 52.4424 156.836 53.4607 156.284C54.479 155.69 55.073 154.672 55.073 153.484V37.5676C55.073 34.5976 53.4607 31.8397 50.915 30.3547L5.64307 4.21832C5.13392 3.96375 4.58235 3.79403 4.03077 3.79403Z" fill="#0B132B"></path><path d="M49.8537 60.0966C49.7688 60.0966 49.7264 60.0966 49.6416 60.0542L5.81226 34.5967C5.60012 34.4694 5.55768 34.2148 5.64254 34.0027C5.76982 33.7905 6.02441 33.7481 6.23655 33.833L50.0658 59.2904C50.278 59.4177 50.3204 59.6723 50.2356 59.8845C50.1507 60.0117 49.981 60.0966 49.8537 60.0966Z" fill="#8B75F3"></path><path d="M49.8537 71.2128C49.7688 71.2128 49.7264 71.2128 49.6416 71.1704L5.81226 45.7129C5.60012 45.5856 5.55768 45.331 5.64254 45.1189C5.76982 44.9068 6.02441 44.8643 6.23655 44.9492L50.0658 70.4067C50.278 70.5339 50.3204 70.7885 50.2356 71.0007C50.1507 71.1704 49.981 71.2128 49.8537 71.2128Z" fill="#8B75F3"></path><path d="M49.8537 82.373C49.7688 82.373 49.7264 82.373 49.6416 82.3305L5.81226 56.8731C5.60012 56.7458 5.55768 56.4912 5.64254 56.279C5.76982 56.0669 6.02441 56.0245 6.23655 56.1093L50.0658 81.5668C50.278 81.6941 50.3204 81.9487 50.2356 82.1608C50.1507 82.3305 49.981 82.373 49.8537 82.373Z" fill="#8B75F3"></path><path d="M49.8537 93.5312C49.7688 93.5312 49.7264 93.5312 49.6416 93.4887L5.81226 68.0313C5.60012 67.904 5.55768 67.6494 5.64254 67.4373C5.76982 67.2251 6.02441 67.1827 6.23655 67.2675L50.0658 92.725C50.278 92.8523 50.3204 93.1069 50.2356 93.319C50.1507 93.4463 49.981 93.5312 49.8537 93.5312Z" fill="#8B75F3"></path><path d="M49.8537 104.689C49.7688 104.689 49.7264 104.689 49.6416 104.647L5.81226 79.1895C5.60012 79.0622 5.55768 78.8076 5.64254 78.5955C5.76982 78.3833 6.02441 78.3409 6.23655 78.4257L50.0658 103.883C50.278 104.011 50.3204 104.265 50.2356 104.477C50.1507 104.605 49.981 104.689 49.8537 104.689Z" fill="#8B75F3"></path><path d="M49.8537 115.849C49.7688 115.849 49.7264 115.849 49.6416 115.806L5.81226 90.3486C5.60012 90.2214 5.55768 89.9668 5.64254 89.7546C5.76982 89.5425 6.02441 89.5001 6.23655 89.5849L50.0658 115.042C50.278 115.17 50.3204 115.424 50.2356 115.636C50.1507 115.764 49.981 115.849 49.8537 115.849Z" fill="#8B75F3"></path><path d="M49.7202 58.6445V114.315" stroke="#8B75F3"></path><path d="M35.696 50.9961V106.666" stroke="#8B75F3"></path><path d="M18.6975 41.6465V97.3167" stroke="#8B75F3"></path><path d="M5.94897 33.9971V89.6673" stroke="#8B75F3"></path><path d="M136.715 62.1211L101.449 62.2246L103.626 148.597L136.974 148.582C143.01 148.568 147.846 129.197 147.772 105.322C147.705 81.4473 142.751 62.1063 136.715 62.1285V62.1211Z" fill="white"></path><path d="M103.626 148.597L136.974 148.582C140.773 148.575 144.098 140.89 146.016 129.241L103.138 129.367L103.619 148.597H103.626Z" fill="#D7FF65"></path><path d="M101.183 62.417C95.1766 62.4318 90.3555 81.721 90.4296 105.492C90.5036 129.264 95.4284 148.523 101.434 148.501C107.44 148.486 112.254 129.197 112.187 105.426C112.121 81.6545 107.189 62.3948 101.183 62.417Z" fill="#D7FF65"></path><path d="M55.1047 86.4841C56.6451 99.4644 48.8247 138.176 48.8247 138.176C48.8247 138.176 54.2234 141.201 57.8152 141.815C61.4069 142.429 93.2216 143.886 96.8208 143.686C100.42 143.486 104.404 143.708 104.404 143.708L104.471 66.6845L56.7784 59.7617C56.7784 59.7617 53.5717 73.5038 55.1047 86.4841Z" fill="#FFDBC4"></path><path d="M102.28 66.6992C96.8737 66.714 92.534 84.0802 92.6006 105.477C92.6673 126.882 97.1033 144.219 102.509 144.204C107.916 144.189 112.255 126.823 112.189 105.426C112.129 84.0211 107.686 66.6844 102.28 66.6992Z" fill="#FFDBC4"></path><path d="M87.6451 57.3506C80.5356 50.0653 91.8145 26.0647 86.8823 18.3062C81.1059 9.21625 70.3751 14.2974 63.6804 22.1152C56.9856 29.9403 51.0981 63.556 51.0981 63.556L110.669 84.0804C110.743 79.4873 106.278 67.3502 106.278 67.3502C106.278 67.3502 94.7545 64.6432 87.6377 57.358L87.6451 57.3506Z" fill="#FFDBC4"></path><path d="M101.227 61.7812H101.219C99.6937 61.7812 98.6125 62.5061 97.3683 64.3477L98.1089 64.8433C99.3234 63.0312 100.168 62.6762 101.219 62.6688C103.87 62.6688 106.537 67.1509 108.543 74.9686C110.624 83.0896 111.787 93.9028 111.824 105.419C111.891 128.606 107.151 148.213 101.471 148.235C99.9973 148.235 98.4792 146.815 97.0795 144.138L96.2871 144.552C97.8719 147.592 99.6197 149.13 101.471 149.13H101.478C107.855 149.108 112.794 129.915 112.728 105.419C112.691 93.8363 111.521 82.9417 109.425 74.7542C107.285 66.3891 104.374 61.7812 101.234 61.7812H101.227Z" fill="#111111"></path><path d="M136.723 61.6777H136.716V62.5727H136.723C139.374 62.5727 142.048 67.0548 144.047 74.8725C146.128 82.9935 147.291 93.8067 147.321 105.323C147.358 116.831 146.254 127.652 144.225 135.787C142.27 143.627 139.626 148.124 136.968 148.132V149.027C140.115 149.019 142.996 144.389 145.092 136.002C147.143 127.792 148.246 116.898 148.217 105.315C148.18 93.7328 147.01 82.8382 144.914 74.6506C142.774 66.2856 139.863 61.6777 136.723 61.6777Z" fill="#111111"></path><path d="M66.4805 76.1598L53.0096 54.4668C53.0096 54.4668 27.6526 58.1945 22.987 66.9737C18.3214 75.753 19.3656 89.1697 41.1827 95.5008C62.9998 101.832 70.1092 92.6681 71.457 87.8162C73.4269 80.6936 66.4878 76.1598 66.4878 76.1598H66.4805Z" fill="#FFDBC4"></path><path d="M62.5622 96.4098L24.075 85.752C20.972 87.8081 18.5133 90.5151 17.9357 94.0357C16.0843 105.315 18.6689 116.453 41.3894 119.338C64.11 122.223 69.3384 112.105 69.7235 107.12C70.2863 99.7973 62.5622 96.4025 62.5622 96.4025V96.4098Z" fill="#FFDBC4"></path><path d="M63.088 116.794L27.5186 115.233C26.5262 116.994 26.2226 118.968 26.3041 121.143C26.6744 130.758 32.3841 140.055 50.6021 138.842C68.8126 137.629 70.3529 128.199 69.4198 123.909C68.0498 117.608 63.088 116.794 63.088 116.794Z" fill="#FFDBC4"></path><path d="M97.1164 144.233L104.7 144.211L49.3276 138.923C49.3276 138.923 70.2931 154.129 97.1164 144.233Z" fill="#FFDBC4"></path><path d="M87.171 36.3678C88.4374 28.8755 89.6371 21.8047 87.2599 18.0623C85.2826 14.9485 82.6462 13.2548 79.4173 13.0255C73.478 12.6039 67.2128 17.2931 63.3396 21.8195C56.6449 29.6447 50.8981 62.0917 50.6611 63.4674L51.5424 63.6227C51.6017 63.2899 57.4818 30.0367 64.021 22.3964C68.7902 16.8345 74.6703 13.5802 79.3581 13.913C82.2833 14.1201 84.6901 15.6733 86.5045 18.5356C88.6966 21.9897 87.5265 28.8977 86.2898 36.2125C84.8457 44.7551 83.3497 53.5861 87.3191 57.654C94.4434 64.9467 106.063 67.7424 106.174 67.7646L106.381 66.8918C106.263 66.8623 94.8951 64.1257 87.9634 57.0253C84.305 53.2829 85.764 44.6811 87.171 36.3604V36.3678Z" fill="#111111"></path><path d="M66.7247 75.7816L66.236 76.5286C66.3026 76.573 72.8788 80.9737 71.02 87.6894C70.6497 89.0356 69.3167 92.4304 65.014 94.8268C59.5264 97.8888 51.3284 97.9701 41.3011 95.0634C31.4516 92.2011 24.905 87.5267 22.3722 81.5432C19.8173 75.5005 21.9057 69.946 23.3794 67.1724C27.8895 58.6964 52.8243 54.9392 53.0761 54.9022L52.9428 54.0146C51.8986 54.17 27.3044 57.8828 22.587 66.7509C21.0392 69.665 18.8472 75.5005 21.5502 81.8834C24.194 88.1258 30.9406 92.9777 41.0567 95.914C46.448 97.4746 50.884 98.0737 54.5128 98.0737C59.6153 98.0737 63.133 96.9051 65.4584 95.6034C70.0499 93.0443 71.4866 89.3758 71.8865 87.9187C73.923 80.5595 66.7988 75.8112 66.7247 75.7668V75.7816Z" fill="#111111"></path><path d="M62.7473 95.9959L62.3844 96.8169C62.4585 96.8465 69.8049 100.182 69.2791 107.09C69.1754 108.458 68.5311 111.957 64.8431 114.96C61.4957 117.689 54.7196 120.581 41.4486 118.894C31.2806 117.6 24.5859 114.634 20.9942 109.819C18.0838 105.929 17.2543 100.929 18.38 94.1025C18.8762 91.0849 20.8757 88.4 24.3267 86.122L23.8305 85.375C20.1647 87.8009 18.0319 90.6929 17.4913 93.962C16.3286 101.047 17.2099 106.254 20.2684 110.359C24.0157 115.374 30.903 118.458 41.3301 119.782C44.0924 120.13 46.5807 120.285 48.8246 120.285C57.6152 120.285 62.6288 117.911 65.4059 115.648C69.3606 112.423 70.0493 108.636 70.1678 107.149C70.7454 99.5978 62.8214 96.0255 62.7473 95.9885V95.9959Z" fill="#111111"></path><path d="M63.1625 116.35L63.0144 117.23C63.0588 117.238 67.6874 118.059 68.9759 123.998C69.1907 124.989 69.6943 128.472 67.1764 131.815C64.34 135.58 58.5932 137.851 50.5729 138.383C42.3526 138.931 36.1244 137.355 32.0661 133.709C28.7928 130.765 26.9562 126.409 26.7563 121.113C26.6674 118.806 27.0377 117.001 27.9116 115.44L27.134 115.004C26.1712 116.72 25.7639 118.672 25.8602 121.15C26.075 126.697 28.0152 131.268 31.4663 134.382C35.1691 137.71 40.553 139.389 47.4921 139.389C48.5067 139.389 49.5509 139.352 50.6321 139.278C59.0449 138.716 64.851 136.386 67.8947 132.355C70.6422 128.709 70.0942 124.893 69.8572 123.805C68.4353 117.282 63.3773 116.38 63.1625 116.343V116.35Z" fill="#111111"></path><path d="M73.9219 77.8311C73.8478 78.0973 66.6718 104.605 71.6484 128.229L72.5222 128.044C67.5901 104.635 74.7069 78.334 74.781 78.0677L73.9145 77.8311H73.9219Z" fill="#111111"></path><path d="M97.1103 143.783C97.0584 143.783 97.0066 143.79 96.9548 143.812C70.6721 153.501 49.7881 138.709 49.5807 138.554L49.0549 139.279C49.2105 139.397 61.3335 147.991 78.7516 147.991C84.417 147.991 90.6377 147.082 97.1917 144.678L106.278 144.656V143.761L97.1103 143.783Z" fill="#111111"></path><path d="M136.71 61.696L101.445 61.8066L101.447 62.7016L136.713 62.5909L136.71 61.696Z" fill="#111111"></path><path d="M137.167 148.128L101.206 148.272L101.209 149.167L137.171 149.023L137.167 148.128Z" fill="#111111"></path><path d="M127.058 128.169C123.525 128.176 120.667 131.046 120.681 134.574C120.689 138.102 123.562 140.957 127.095 140.942C130.627 140.935 133.486 138.065 133.471 134.537C133.464 131.009 130.59 128.154 127.058 128.169Z" fill="#DCDCE6"></path><path d="M127.057 127.726C125.228 127.726 123.51 128.45 122.221 129.745C120.933 131.039 120.222 132.762 120.229 134.582C120.229 136.409 120.955 138.125 122.251 139.412C123.539 140.691 125.25 141.401 127.072 141.401H127.094C128.923 141.401 130.641 140.676 131.93 139.382C133.219 138.088 133.93 136.364 133.922 134.545C133.922 132.718 133.196 131.002 131.9 129.715C130.604 128.428 128.871 127.74 127.057 127.726ZM127.094 140.499H127.079C123.806 140.499 121.14 137.844 121.133 134.574C121.133 132.984 121.74 131.49 122.865 130.366C123.984 129.242 125.48 128.621 127.064 128.613H127.079C128.664 128.613 130.153 129.227 131.271 130.344C132.397 131.461 133.019 132.955 133.026 134.537C133.033 137.814 130.375 140.484 127.094 140.499Z" fill="#111111"></path><path d="M127.064 130.166C124.635 130.166 122.673 132.148 122.68 134.567C122.688 136.993 124.658 138.953 127.087 138.945C129.516 138.945 131.478 136.971 131.471 134.545C131.471 132.119 129.493 130.159 127.064 130.166Z" fill="#8B75F3"></path><path d="M127.087 138.48V139.375C129.131 139.375 130.952 138.073 131.626 136.15L130.782 135.854C130.234 137.422 128.746 138.473 127.087 138.48Z" fill="#111111"></path><path d="M127.078 129.745H127.064C125.775 129.745 124.568 130.255 123.657 131.165C122.746 132.075 122.25 133.288 122.25 134.575C122.25 136.527 123.427 138.266 125.234 139.013L125.575 138.184C124.101 137.578 123.153 136.158 123.146 134.567C123.146 133.517 123.546 132.533 124.287 131.794C125.027 131.054 126.012 130.64 127.056 130.64C128.641 130.61 130.063 131.572 130.678 133.022L131.5 132.674C130.737 130.892 128.997 129.745 127.064 129.745H127.078Z" fill="#111111"></path><path d="M125.687 132.341C125.198 132.341 124.806 132.733 124.813 133.221C124.813 133.709 125.213 134.101 125.695 134.094C126.183 134.094 126.576 133.702 126.568 133.214C126.568 132.726 126.176 132.334 125.687 132.341Z" fill="#111111"></path><path d="M128.45 132.334C127.961 132.334 127.569 132.726 127.576 133.214C127.576 133.702 127.969 134.094 128.457 134.087C128.946 134.087 129.339 133.695 129.331 133.207C129.331 132.719 128.931 132.334 128.45 132.334Z" fill="#111111"></path><path d="M125.694 135.033C125.205 135.033 124.82 135.433 124.82 135.913C124.82 136.402 125.212 136.794 125.701 136.786C126.19 136.786 126.582 136.394 126.575 135.906C126.575 135.418 126.175 135.026 125.694 135.033Z" fill="#111111"></path><path d="M128.457 135.026C127.968 135.026 127.575 135.426 127.583 135.907C127.583 136.387 127.975 136.779 128.464 136.779C128.953 136.779 129.345 136.387 129.338 135.899C129.338 135.411 128.946 135.019 128.457 135.026Z" fill="#111111"></path><path d="M88.2294 22.0493L87.3703 21.7979C87.3333 21.9162 83.8526 33.7575 83.349 35.0148C82.7418 36.5458 85.0671 38.7795 85.3411 39.0309L85.9558 38.3727C85.0523 37.5369 83.9118 36.0355 84.1858 35.3476C84.7042 34.0533 88.0886 22.5375 88.2367 22.0493H88.2294Z" fill="#111111"></path><path d="M60.7774 107.645C60.696 107.586 60.5997 107.549 60.5034 107.549C59.8813 107.549 45.2552 107.667 44.3591 115.618C43.9295 119.449 47.351 120.226 47.388 120.233L47.5731 119.361C47.462 119.338 44.9071 118.732 45.2478 115.722C46.0105 108.976 58.7483 108.488 60.3405 108.451C60.9996 109.028 64.147 112.083 62.8288 116.299L63.6878 116.565C65.3245 111.313 60.8293 107.682 60.7848 107.645H60.7774Z" fill="#111111"></path><path d="M64.1911 85.3227C64.1096 85.2635 64.0134 85.2266 63.9097 85.2266C63.2876 85.2266 48.6614 85.3449 47.7653 93.2958C47.3358 97.127 50.7572 97.9036 50.7942 97.911L50.9794 97.0383C50.8683 97.0161 48.3134 96.4096 48.654 93.3993C49.4168 86.654 62.1545 86.1659 63.7468 86.1289C64.3985 86.7058 67.5533 89.7604 66.235 93.9762L67.0941 94.2425C68.7382 88.9912 64.2355 85.3597 64.1911 85.3301V85.3227Z" fill="#111111"></path><path d="M62.2573 126.254C61.7018 126.202 48.7123 125.122 47.5941 132.844C47.3867 134.279 47.6977 135.507 48.5124 136.505C50.3267 138.702 53.9851 138.909 54.1333 138.916L54.1777 138.021C54.1777 138.021 50.7637 137.829 49.2011 135.936C48.5494 135.144 48.305 134.153 48.4753 132.977C49.4084 126.535 60.4725 127.038 61.9981 127.134C62.6349 127.874 65.5602 131.587 63.2644 135.292L64.0272 135.766C66.908 131.121 62.5831 126.446 62.5387 126.395C62.4646 126.313 62.3609 126.269 62.2573 126.254Z" fill="#111111"></path></svg>