<svg xmlns="http://www.w3.org/2000/svg" width="209" height="154" viewBox="0 0 209 154" fill="none"><g clip-path="url(#clip0_4117_3733)"><path d="M109.182 83.5709C108.925 97.2298 91.4408 108.073 70.1334 107.63C48.8351 107.256 31.746 95.8094 32.0024 82.1505C32.2589 68.4916 49.7435 57.6483 71.0509 58.0915C92.4188 58.4561 109.429 69.8426 109.182 83.5709Z" fill="#0A0A0A"></path><path d="M31.6452 82.1272C31.7523 75.4064 35.9559 69.1348 43.4969 64.542C50.8895 59.898 60.6997 57.4774 71.0658 57.6662C76.2488 57.7607 81.3052 58.5071 86.0168 59.8637C100.449 64.0357 109.677 73.3401 109.53 83.5254C109.423 90.2461 105.219 96.5177 97.6783 101.111C90.2069 105.694 80.3968 108.115 70.0307 107.926C64.8476 107.832 59.7913 107.085 55.0796 105.729C40.6478 101.557 31.4286 92.3216 31.6452 82.1272ZM71.0875 58.3693C60.791 58.1713 51.1201 60.5736 43.8485 65.0605C36.5768 69.5473 32.4851 75.5923 32.3506 82.1049C32.1579 91.9432 41.1409 100.997 55.3455 105.058C59.9876 106.424 64.9743 107.18 70.1574 107.274C80.3842 107.481 90.0551 105.079 97.3964 100.583C104.668 96.0961 108.76 90.051 108.894 83.5384C109.087 73.7001 100.104 64.6459 85.8993 60.5852C81.1876 59.2286 76.2009 58.4729 71.0875 58.3693Z" fill="#0A0A0A"></path><path d="M84.6388 92.4494C72.3842 109.664 49.1958 107.845 32.8335 88.4661C16.4712 69.0875 13.1285 39.3827 25.3831 22.168C37.6468 5.02278 60.8262 6.77276 77.1884 26.1513C93.5507 45.5299 96.8935 75.2347 84.6388 92.4494Z" fill="#0060DF"></path><path d="M32.5824 88.7108C16.1322 69.2026 12.8317 39.2805 25.1468 21.9873C32.3749 11.7878 44.0306 7.78295 56.1762 11.2675C63.9069 13.4975 71.237 18.6041 77.4395 25.9064C93.8897 45.4146 97.2598 75.3276 84.8751 92.63C77.5773 102.839 65.9912 106.834 53.776 103.359C46.115 101.12 38.7152 96.0223 32.5824 88.7108ZM25.6981 22.4089C13.5644 39.4664 16.8798 68.9631 33.0845 88.2212C39.2083 95.4633 46.4505 100.44 54.0419 102.689C65.8999 106.14 77.2862 102.242 84.3329 92.2778C96.4665 75.2202 93.1512 45.7236 76.9464 26.4655C70.8136 19.154 63.5714 14.177 55.9799 11.9287C44.122 8.4769 32.7447 12.4451 25.6981 22.4089Z" fill="#0A0A0A"></path><path d="M82.009 93.9948C70.2931 110.997 47.7221 109.026 31.6988 89.5323C15.6756 70.0386 12.1331 40.4306 23.8398 23.3587C35.6253 6.34693 58.1267 8.32734 74.2196 27.8119C90.2429 47.3057 93.7854 76.9137 82.009 93.9948Z" fill="#B5FDEA"></path><path d="M31.4478 89.7771C15.2761 70.2323 11.7667 40.3376 23.6036 23.1779C30.4414 13.2416 41.5401 9.31006 53.1709 12.6505C60.9016 14.8805 68.2408 20.0565 74.4799 27.6364C90.5819 47.1905 94.1609 77.076 82.3149 94.1663C75.4166 104.181 64.3875 108.103 52.6779 104.703C45.0169 102.464 37.6777 97.2876 31.4478 89.7771ZM24.1549 23.5995C12.4995 40.5235 16.0237 69.9927 31.9591 89.3568C38.1102 96.8071 45.3707 101.923 52.8834 104.111C64.2266 107.419 75.0559 103.593 81.7031 93.8232C93.3585 76.8992 89.8343 47.43 73.8989 28.0659C67.8174 20.6065 60.566 15.5601 52.9746 13.3117C41.6406 10.0734 30.8808 13.8898 24.1549 23.5995Z" fill="#0A0A0A"></path><path d="M77.876 88.9613C67.8265 103.556 48.4799 101.866 34.7383 85.1786C20.9968 68.4908 17.9417 43.1251 28.0518 28.4518C38.1013 13.857 57.3782 15.5558 71.1894 32.2345C84.931 48.9223 87.9255 74.3665 77.876 88.9613Z" fill="white"></path><path d="M34.4781 85.3545C20.6486 68.537 17.6358 42.954 27.7367 28.2113C33.6249 19.6707 43.1588 16.2275 53.1757 19.145C59.7981 21.0267 66.1226 25.4891 71.4405 31.9901C85.27 48.8075 88.2828 74.3905 78.1819 89.1333C72.2937 97.6738 62.7598 101.117 52.7429 98.1996C46.1205 96.3178 39.796 91.8555 34.4781 85.3545ZM28.288 28.6329C18.3595 43.0705 21.3266 68.3066 34.9894 84.9342C40.2194 91.3056 46.4561 95.6383 52.9392 97.5384C62.6593 100.354 71.8634 97.0951 77.6397 88.781C87.5682 74.3434 84.6011 49.1073 70.9383 32.4797C65.7083 26.1084 59.4717 21.7756 52.9885 19.8756C43.2684 17.0602 34.0644 20.3188 28.288 28.6329Z" fill="#0A0A0A"></path><path d="M73.743 83.9289C65.3598 96.1158 49.2377 94.7078 37.7687 80.7565C26.2997 66.8053 23.8018 45.6727 32.185 33.4857C40.5681 21.2987 56.6206 22.7159 68.1593 36.658C79.6283 50.6093 82.1262 71.7419 73.743 83.9289Z" fill="#8B75F3"></path><path d="M37.5084 80.9322C25.9607 66.9208 23.4262 45.5106 31.8699 33.245C36.8085 26.1002 44.7171 23.2238 53.1109 25.649C58.6341 27.2518 63.8652 30.9403 68.3316 36.3532C79.8793 50.3647 82.4138 71.7749 73.9701 84.0404C69.0315 91.1853 61.1229 94.0616 52.7291 91.6365C47.215 90.1031 41.9748 86.3451 37.5084 80.9322ZM32.4908 33.6575C24.2286 45.6873 26.7083 66.6812 38.0894 80.5028C42.4679 85.7861 47.6202 89.4144 52.995 90.9661C61.0921 93.2891 68.7404 90.5882 73.4975 83.679C81.6901 71.6583 79.2105 50.6645 67.8385 36.9123C63.46 31.629 58.3077 28.0007 52.9329 26.449C44.8963 24.0474 37.2479 26.7483 32.4908 33.6575Z" fill="#0A0A0A"></path><path d="M69.6008 78.8262C62.8749 88.536 50.0468 87.4004 40.8595 76.2551C31.6722 65.1098 29.6618 48.2194 36.3786 38.4402C43.1045 28.7305 55.9326 29.8661 65.1199 41.0114C74.2467 52.2352 76.2572 69.1256 69.6008 78.8262Z" fill="white"></path><path d="M40.5479 76.5786C31.2818 65.3731 29.3045 48.196 36.0818 38.3383C40.0708 32.5891 46.4328 30.3399 53.2035 32.2727C57.6185 33.5272 61.8348 36.5021 65.4588 40.8963C74.7249 52.1018 76.7022 69.279 69.9249 79.1367C65.9359 84.8858 59.5739 87.135 52.8031 85.2023C48.3791 83.8784 44.0931 80.9126 40.5479 76.5786ZM36.6331 38.7599C30.0372 48.3819 32.0294 65.1335 41.1288 76.1492C44.5862 80.3536 48.7238 83.2682 52.9994 84.541C59.4038 86.3809 65.4965 84.2377 69.304 78.7242C75.8998 69.1022 73.9077 52.3506 64.8083 41.3349C61.3509 37.1305 57.2133 34.2158 52.9376 32.943C46.5241 31.0338 40.4406 33.2464 36.6331 38.7599Z" fill="#0A0A0A"></path><path d="M65.3977 73.8018C60.3382 81.1038 50.7345 80.2498 43.8289 71.9105C36.9233 63.5711 35.4609 50.8444 40.4508 43.5516C45.5104 36.2497 55.114 37.1036 62.0196 45.443C68.9344 53.8517 70.4573 66.4998 65.3977 73.8018Z" fill="#B5FDEA"></path><path d="M43.5779 72.1554C36.5844 63.6864 35.1037 50.8209 40.2147 43.371C43.1844 39.0268 48.0604 37.3261 53.1385 38.7757C56.4542 39.7512 59.6559 42.0125 62.3496 45.2584C69.3431 53.7274 70.8238 66.5929 65.7129 74.0428C62.7431 78.3871 57.8672 80.0877 52.7891 78.6382C49.4733 77.6626 46.2717 75.4013 43.5779 72.1554ZM40.766 43.7926C35.8274 50.9375 37.3412 63.5162 44.0893 71.7351C46.7043 74.9208 49.7484 77.0616 52.9854 77.977C57.7758 79.3938 62.3037 77.7389 65.092 73.6304C70.0306 66.4855 68.5168 53.9068 61.7687 45.6879C59.1537 42.5022 56.1095 40.3614 52.8725 39.446C48.1609 38.0894 43.6239 39.6749 40.766 43.7926Z" fill="#0A0A0A"></path><path d="M61.2649 68.7686C57.9413 73.6536 51.4925 73.0904 46.8595 67.4877C42.3052 61.9451 41.2606 53.4698 44.6538 48.5757C47.9774 43.6907 54.4263 44.2539 59.0593 49.8566C63.6227 55.4686 64.5885 63.8836 61.2649 68.7686Z" fill="white"></path><path d="M46.6084 67.7327C41.9662 62.0606 40.8942 53.3771 44.3479 48.4044C46.3681 45.4558 49.6188 44.322 53.0738 45.2793C55.3508 45.8973 57.4682 47.4542 59.3104 49.612C63.9526 55.2842 65.0246 63.9677 61.5709 68.9404C59.5507 71.889 56.3 73.0227 52.845 72.0655C50.568 71.4474 48.4598 69.96 46.6084 67.7327ZM44.8992 48.826C41.627 53.563 42.6442 61.8302 47.1197 67.3125C48.8136 69.4192 50.843 70.8465 52.9717 71.4135C56.1391 72.3379 59.0507 71.3194 60.9591 68.5973C64.2313 63.8603 63.2141 55.5932 58.7386 50.1109C57.0447 48.0041 55.0153 46.5769 52.8866 46.0099C49.7192 45.0854 46.8076 46.104 44.8992 48.826Z" fill="#0A0A0A"></path><path d="M57.1319 63.736C55.4656 66.1438 52.2412 65.8622 49.9686 63.1256C47.6869 60.3197 47.1994 56.0774 48.8658 53.6696C50.5321 51.2618 53.7566 51.5434 56.0291 54.28C58.3108 57.0859 58.7983 61.3282 57.1319 63.736Z" fill="#8B75F3"></path><path d="M49.6387 63.31C47.2782 60.4438 46.7633 55.9934 48.481 53.4376C49.5516 51.8848 51.2466 51.3087 53.0089 51.7828C54.1868 52.1219 55.2803 52.8958 56.2105 54.0441C58.571 56.9103 59.0859 61.3607 57.3681 63.9164C56.2976 65.4693 54.6026 66.0453 52.8403 65.5713C51.6624 65.2321 50.5689 64.4583 49.6387 63.31ZM49.102 53.8501C47.4961 56.1793 48.0258 60.2042 50.2196 62.8805C51.062 63.8992 52.0767 64.6128 53.0366 64.9101C54.5809 65.3422 55.9369 64.8814 56.826 63.5642C58.4318 61.235 57.9021 57.2101 55.7083 54.5338C54.866 53.5151 53.8512 52.8015 52.8913 52.5042C51.347 52.0721 49.9911 52.5329 49.102 53.8501Z" fill="#8B75F3"></path><path d="M50.0814 60.2164C50.1602 60.2767 50.2994 60.2583 50.3599 60.1798L55.7586 57.069C55.9583 56.9721 56.0006 56.7548 55.9035 56.5557C55.8065 56.3567 55.5885 56.3148 55.3888 56.4117L49.9992 59.5919C49.7995 59.6888 49.7573 59.9061 49.8543 60.1051C49.933 60.1654 50.0118 60.2256 50.0814 60.2164Z" fill="#0A0A0A"></path><path d="M53.9074 63.4539C53.977 63.4447 54.0558 63.5049 54.1163 63.4264C54.3251 63.3989 54.437 63.1724 54.34 62.9733L51.6175 53.5893C51.5901 53.3811 51.363 53.2698 51.1632 53.3667C50.9544 53.3942 50.8425 53.6207 50.9395 53.8197L53.662 63.2038C53.7499 63.3334 53.8286 63.3936 53.9074 63.4539Z" fill="#0A0A0A"></path><path d="M45.3209 57.9483L11.8716 67.504L11.4092 60.2229C11.3692 59.381 10.8601 58.742 10.1182 58.4867L7.28985 57.447C6.77508 57.3029 6.36302 56.863 6.15985 56.3955L5.54118 54.9238C5.24097 54.2574 5.77626 53.481 6.56953 53.5883L45.3209 57.9483Z" fill="#F1F0F0"></path><path d="M11.6902 67.74C11.6115 67.6798 11.5236 67.5502 11.5145 67.4808L11.052 60.1996C11.0394 59.5659 10.6091 58.9871 10.0156 58.7829L7.18721 57.7432C6.59368 57.5389 6.11201 57.1081 5.82094 56.5111L5.20227 55.0394C4.99909 54.5719 5.08354 54.1372 5.386 53.7444C5.62796 53.4302 6.09707 53.2273 6.52395 53.2417L45.3358 57.5231C45.475 57.5048 45.6417 57.6946 45.6599 57.8334C45.6782 57.9722 45.5572 58.1293 45.4271 58.217L11.9779 67.7728C11.9082 67.7819 11.8386 67.7911 11.769 67.8003C11.769 67.8003 11.6994 67.8094 11.6902 67.74ZM6.47603 53.954C6.25802 53.9121 6.05828 54.0089 5.86767 54.1752C5.75582 54.4017 5.7136 54.6191 5.81062 54.8181L6.42929 56.2898C6.62334 56.6878 6.9475 56.9982 7.32302 57.1605L10.1514 58.2002C11.0417 58.5066 11.6387 59.2752 11.6878 60.1865L12.165 67.0422L43.4319 58.1266L6.47603 53.954Z" fill="#0A0A0A"></path><path d="M35.7562 60.6191L13.8156 67.7424L13.4387 61.6501L35.7562 60.6191Z" fill="#0A0A0A"></path><path d="M13.6431 68.0478C13.5643 67.9876 13.4765 67.8579 13.4673 67.7886L13.0905 61.6962C13.0814 61.6268 13.1327 61.4789 13.2024 61.4697C13.2629 61.3912 13.3325 61.382 13.4717 61.3637L35.7892 60.3326C35.9981 60.3051 36.086 60.4348 36.183 60.6338C36.2013 60.7726 36.0894 60.9991 35.9502 61.0174L14.0095 68.1408C13.9399 68.1499 13.8702 68.1591 13.8006 68.1683C13.6431 68.0478 13.6431 68.0478 13.6431 68.0478ZM13.8324 61.9516L14.1784 67.2714L33.1983 61.0972L13.8324 61.9516Z" fill="#0A0A0A"></path><path d="M12.035 67.1305L14.8428 64.7843C15.1635 64.5303 15.563 64.3365 15.9716 64.2121L45.3211 57.9492L22.5531 72.2411C21.5726 72.8643 20.2828 72.7517 19.3983 71.9504L17.6108 70.2089C17.2866 69.8986 17.1017 69.5699 16.9773 69.1627C16.5253 67.8809 15.1533 67.1437 13.7882 67.5351L12.5019 67.9868C12.0237 68.1203 11.6538 67.463 12.035 67.1305Z" fill="white"></path><path d="M19.1471 72.1949L17.3688 70.5228C17.0446 70.2125 16.7809 69.8236 16.6474 69.347C16.2924 68.2642 14.9992 67.5872 13.9126 67.942L12.6171 68.3243C12.4779 68.3427 12.269 68.3701 12.1206 68.3191C11.8238 68.2169 11.5784 67.9668 11.5419 67.6893C11.5054 67.4117 11.599 67.0464 11.7896 66.8801L14.5973 64.5339C14.9785 64.2013 15.378 64.0076 15.8563 63.874L45.2057 57.6111C45.345 57.5928 45.563 57.6347 45.5904 57.8429C45.6782 57.9725 45.5664 58.199 45.4363 58.2867L22.6683 72.5786C21.9481 73.0264 21.1126 73.1364 20.301 72.8902C19.9255 72.7278 19.5409 72.4961 19.1471 72.1949ZM16.0172 64.5588C15.6691 64.6046 15.3392 64.7892 15.0185 65.0432L12.2804 67.3803C12.2804 67.3803 12.2199 67.4588 12.229 67.5282C12.2382 67.5976 12.3169 67.6579 12.3169 67.6579L12.3865 67.6487L13.682 67.2664C14.2299 67.1237 14.796 67.1198 15.3804 67.2547C16.2615 67.4917 16.9978 68.242 17.3254 69.1166C17.4406 69.4544 17.6256 69.7831 17.871 70.0332L19.6493 71.7052C20.3764 72.3861 21.5269 72.5171 22.3772 71.9816L43.4446 58.7606L16.0172 64.5588Z" fill="#0A0A0A"></path></g><path d="M181.456 53.1233C161.498 43.0941 139.999 52.539 133.438 74.2246C126.876 95.9102 137.74 121.619 157.699 131.649C177.657 141.678 199.155 132.233 205.717 110.547C212.278 88.8617 201.414 63.1525 181.456 53.1233Z" fill="white"></path><path d="M157.698 131.648C177.346 141.522 198.467 132.514 205.384 111.553H137.651C142.206 120.11 149.108 127.329 157.691 131.648H157.698Z" fill="#D7FF65"></path><path d="M181.656 52.7239C171.984 47.8646 161.631 47.3395 152.5 51.2595C143.176 55.2608 136.252 63.367 133.008 74.0989C126.402 95.9472 137.385 121.945 157.499 132.055C162.883 134.762 168.474 136.123 173.954 136.123C178.316 136.123 182.604 135.258 186.655 133.527C195.978 129.526 202.903 121.42 206.146 110.688C212.76 88.8395 201.77 62.8419 181.656 52.7313V52.7239ZM205.287 110.422C202.118 120.895 195.379 128.801 186.299 132.691C177.42 136.5 167.333 135.99 157.906 131.249C138.162 121.323 127.387 95.7993 133.875 74.3503C137.044 63.8774 143.783 55.9708 152.863 52.0805C156.795 50.3941 160.964 49.5584 165.208 49.5584C170.547 49.5584 176.005 50.8897 181.256 53.5301C200.999 63.4558 211.775 88.98 205.287 110.429V110.422Z" fill="#111111"></path><path d="M175.717 49.1221L140.451 49.2256L142.628 135.598L175.976 135.583C182.011 135.569 186.847 116.198 186.773 92.3231C186.707 68.4483 181.752 49.1073 175.717 49.1295V49.1221Z" fill="white"></path><path d="M142.628 135.598L175.976 135.583C179.775 135.576 183.1 127.891 185.018 116.242L142.139 116.368L142.621 135.598H142.628Z" fill="#D7FF65"></path><path d="M140.184 49.418C134.178 49.4328 129.357 68.722 129.431 92.4933C129.505 116.265 134.43 135.524 140.436 135.502C146.442 135.487 151.255 116.198 151.189 92.4268C151.122 68.6555 146.19 49.3958 140.184 49.418Z" fill="#D7FF65"></path><path d="M94.1064 73.4851C95.6468 86.4654 87.8264 125.177 87.8264 125.177C87.8264 125.177 93.2252 128.202 96.8169 128.816C100.409 129.43 132.223 130.887 135.822 130.687C139.422 130.487 143.406 130.709 143.406 130.709L143.473 53.6855L95.7801 46.7627C95.7801 46.7627 92.5735 60.5048 94.1064 73.4851Z" fill="#FFDBC4"></path><path d="M141.282 53.7002C135.875 53.715 131.536 71.0812 131.602 92.4784C131.669 113.883 136.105 131.22 141.511 131.205C146.917 131.19 151.257 113.824 151.19 92.4266C151.131 71.022 146.688 53.6854 141.282 53.7002Z" fill="#FFDBC4"></path><path d="M126.647 44.3515C119.537 37.0663 130.816 13.0657 125.884 5.30713C120.108 -3.78277 109.377 1.2984 102.682 9.11616C95.9873 16.9413 90.0999 50.5569 90.0999 50.5569L149.671 71.0813C149.745 66.4883 145.279 54.3512 145.279 54.3512C145.279 54.3512 133.756 51.6442 126.639 44.3589L126.647 44.3515Z" fill="#FFDBC4"></path><path d="M140.228 48.7822H140.221C138.695 48.7822 137.614 49.5071 136.37 51.3487L137.111 51.8443C138.325 50.0322 139.169 49.6772 140.221 49.6698C142.872 49.6698 145.538 54.1519 147.545 61.9696C149.626 70.0906 150.789 80.9038 150.826 92.4197C150.893 115.607 146.153 135.214 140.473 135.236C138.999 135.236 137.481 133.816 136.081 131.139L135.289 131.553C136.874 134.593 138.621 136.131 140.473 136.131H140.48C146.856 136.109 151.796 116.916 151.729 92.4197C151.692 80.8373 150.522 69.9427 148.426 61.7551C146.286 53.3901 143.376 48.7822 140.236 48.7822H140.228Z" fill="#111111"></path><path d="M175.725 48.6787H175.718V49.5737H175.725C178.376 49.5737 181.05 54.0557 183.049 61.8735C185.13 69.9945 186.293 80.8077 186.322 92.3236C186.359 103.832 185.256 114.653 183.227 122.788C181.272 130.628 178.628 135.125 175.969 135.133V136.028C179.117 136.02 181.998 131.39 184.093 123.003C186.145 114.793 187.248 103.899 187.219 92.3162C187.181 80.7337 186.011 69.8392 183.916 61.6516C181.775 53.2865 178.865 48.6787 175.725 48.6787Z" fill="#111111"></path><path d="M105.482 63.1608L92.0113 41.4678C92.0113 41.4678 66.6543 45.1954 61.9887 53.9747C57.3232 62.754 58.3674 76.1706 80.1844 82.5018C102.001 88.8329 109.111 79.669 110.459 74.8171C112.429 67.6946 105.49 63.1608 105.49 63.1608H105.482Z" fill="#FFDBC4"></path><path d="M101.564 83.4108L63.0767 72.7529C59.9737 74.8091 57.515 77.5161 56.9374 81.0366C55.086 92.3158 57.6706 103.454 80.3911 106.339C103.112 109.223 108.34 99.1055 108.725 94.1205C109.288 86.7983 101.564 83.4034 101.564 83.4034V83.4108Z" fill="#FFDBC4"></path><path d="M102.09 103.795L66.5203 102.234C65.528 103.995 65.2243 105.969 65.3058 108.144C65.6761 117.759 71.3858 127.056 89.6038 125.843C107.814 124.63 109.355 115.2 108.422 110.91C107.051 104.609 102.09 103.795 102.09 103.795Z" fill="#FFDBC4"></path><path d="M136.118 131.234L143.701 131.212L88.3291 125.924C88.3291 125.924 109.295 141.13 136.118 131.234Z" fill="#FFDBC4"></path><path d="M126.173 23.3688C127.439 15.8765 128.639 8.80572 126.262 5.06326C124.284 1.94947 121.648 0.255746 118.419 0.0264643C112.48 -0.395118 106.214 4.29406 102.341 8.82052C95.6466 16.6457 89.8998 49.0927 89.6628 50.4684L90.5441 50.6237C90.6034 50.2909 96.4835 17.0377 103.023 9.39742C107.792 3.83549 113.672 0.581175 118.36 0.914003C121.285 1.1211 123.692 2.67429 125.506 5.53661C127.698 8.99063 126.528 15.8987 125.291 23.2135C123.847 31.7561 122.351 40.5871 126.321 44.655C133.445 51.9476 145.065 54.7434 145.176 54.7656L145.383 53.8928C145.265 53.8632 133.897 51.1267 126.965 44.0263C123.307 40.2839 124.766 31.6821 126.173 23.3614V23.3688Z" fill="#111111"></path><path d="M105.726 62.7826L105.238 63.5296C105.304 63.574 111.881 67.9747 110.022 74.6904C109.651 76.0365 108.318 79.4314 104.016 81.8277C98.5282 84.8898 90.3301 84.9711 80.3028 82.0644C70.4533 79.2021 63.9067 74.5277 61.3739 68.5442C58.819 62.5015 60.9074 56.947 62.3811 54.1734C66.8912 45.6974 91.826 41.9402 92.0778 41.9032L91.9445 41.0156C90.9003 41.1709 66.3061 44.8838 61.5887 53.7518C60.0409 56.6659 57.8489 62.5015 60.5519 68.8844C63.1957 75.1268 69.9423 79.9787 80.0584 82.915C85.4498 84.4756 89.8858 85.0747 93.5145 85.0747C98.617 85.0747 102.135 83.9061 104.46 82.6043C109.052 80.0453 110.488 76.3768 110.888 74.9197C112.925 67.5605 105.801 62.8122 105.726 62.7678V62.7826Z" fill="#111111"></path><path d="M101.749 82.9969L101.386 83.8179C101.46 83.8474 108.807 87.1831 108.281 94.0912C108.177 95.4594 107.533 98.9578 103.845 101.961C100.497 104.69 93.7213 107.582 80.4503 105.895C70.2824 104.601 63.5876 101.635 59.9959 96.8203C57.0855 92.93 56.256 87.9301 57.3817 81.1035C57.8779 78.0858 59.8774 75.401 63.3284 73.123L62.8323 72.376C59.1665 74.8019 57.0336 77.6938 56.493 80.9629C55.3303 88.0485 56.2116 93.2554 59.2701 97.3603C63.0174 102.375 69.9047 105.459 80.3318 106.783C83.0941 107.131 85.5824 107.286 87.8264 107.286C96.6169 107.286 101.631 104.912 104.408 102.649C108.362 99.4238 109.051 95.637 109.169 94.1503C109.747 86.5988 101.823 83.0265 101.749 82.9895V82.9969Z" fill="#111111"></path><path d="M102.164 103.351L102.016 104.231C102.061 104.239 106.689 105.06 107.978 110.999C108.192 111.99 108.696 115.473 106.178 118.816C103.342 122.581 97.5949 124.852 89.5746 125.384C81.3543 125.932 75.1262 124.356 71.0679 120.71C67.7945 117.766 65.9579 113.41 65.758 108.114C65.6691 105.807 66.0394 104.002 66.9133 102.441L66.1357 102.005C65.1729 103.721 64.7656 105.673 64.8619 108.151C65.0767 113.698 67.0169 118.269 70.468 121.383C74.1708 124.711 79.5547 126.39 86.4938 126.39C87.5084 126.39 88.5526 126.353 89.6338 126.279C98.0466 125.717 103.853 123.387 106.896 119.356C109.644 115.71 109.096 111.894 108.859 110.806C107.437 104.283 102.379 103.381 102.164 103.344V103.351Z" fill="#111111"></path><path d="M112.924 64.832C112.85 65.0983 105.673 91.6062 110.65 115.23L111.524 115.045C106.592 91.6358 113.709 65.335 113.783 65.0687L112.916 64.832H112.924Z" fill="#111111"></path><path d="M136.112 130.784C136.06 130.784 136.008 130.791 135.956 130.813C109.674 140.502 88.7898 125.71 88.5825 125.555L88.0566 126.28C88.2122 126.398 100.335 134.992 117.753 134.992C123.419 134.992 129.639 134.082 136.193 131.679L145.28 131.657V130.762L136.112 130.784Z" fill="#111111"></path><path d="M175.712 48.697L140.446 48.8076L140.449 49.7026L175.715 49.5919L175.712 48.697Z" fill="#111111"></path><path d="M176.169 135.129L140.208 135.273L140.211 136.168L176.173 136.024L176.169 135.129Z" fill="#111111"></path><path d="M166.059 115.17C162.527 115.177 159.668 118.047 159.683 121.575C159.691 125.103 162.564 127.958 166.096 127.943C169.629 127.936 172.488 125.066 172.473 121.538C172.465 118.01 169.592 115.155 166.059 115.17Z" fill="#DCDCE6"></path><path d="M166.059 114.727C164.23 114.727 162.511 115.451 161.223 116.746C159.934 118.04 159.223 119.763 159.231 121.583C159.231 123.41 159.957 125.126 161.253 126.413C162.541 127.692 164.252 128.402 166.074 128.402H166.096C167.925 128.402 169.643 127.677 170.932 126.383C172.22 125.089 172.931 123.365 172.924 121.546C172.924 119.719 172.198 118.003 170.902 116.716C169.606 115.429 167.873 114.741 166.059 114.727ZM166.096 127.5H166.081C162.808 127.5 160.142 124.845 160.134 121.575C160.134 119.985 160.742 118.491 161.867 117.367C162.985 116.243 164.481 115.621 166.066 115.614H166.081C167.666 115.614 169.154 116.228 170.273 117.345C171.398 118.462 172.02 119.956 172.028 121.538C172.035 124.815 169.377 127.485 166.096 127.5Z" fill="#111111"></path><path d="M166.066 117.167C163.637 117.167 161.674 119.149 161.682 121.568C161.689 123.994 163.659 125.954 166.088 125.946C168.517 125.946 170.48 123.971 170.472 121.546C170.472 119.12 168.495 117.16 166.066 117.167Z" fill="#8B75F3"></path><path d="M166.088 125.481V126.376C168.132 126.376 169.954 125.074 170.628 123.151L169.784 122.855C169.236 124.423 167.747 125.474 166.088 125.481Z" fill="#111111"></path><path d="M166.08 116.746H166.065C164.777 116.746 163.57 117.256 162.659 118.166C161.748 119.076 161.252 120.289 161.252 121.576C161.252 123.528 162.429 125.266 164.236 126.014L164.577 125.185C163.103 124.579 162.155 123.159 162.148 121.568C162.148 120.518 162.548 119.534 163.288 118.795C164.029 118.055 165.014 117.641 166.058 117.641C167.643 117.611 169.065 118.573 169.679 120.023L170.501 119.675C169.739 117.892 167.998 116.746 166.065 116.746H166.08Z" fill="#111111"></path><path d="M164.689 119.342C164.2 119.342 163.808 119.734 163.815 120.222C163.815 120.71 164.215 121.102 164.696 121.095C165.185 121.095 165.578 120.703 165.57 120.215C165.57 119.726 165.178 119.335 164.689 119.342Z" fill="#111111"></path><path d="M167.452 119.335C166.963 119.335 166.57 119.727 166.578 120.215C166.578 120.703 166.97 121.095 167.459 121.088C167.948 121.088 168.34 120.696 168.333 120.208C168.333 119.72 167.933 119.335 167.452 119.335Z" fill="#111111"></path><path d="M164.695 122.034C164.207 122.034 163.822 122.434 163.822 122.914C163.822 123.403 164.214 123.795 164.703 123.787C165.192 123.787 165.584 123.395 165.577 122.907C165.577 122.419 165.177 122.027 164.695 122.034Z" fill="#111111"></path><path d="M167.458 122.027C166.97 122.027 166.577 122.427 166.585 122.908C166.585 123.388 166.977 123.78 167.466 123.78C167.955 123.78 168.347 123.388 168.34 122.9C168.34 122.412 167.947 122.02 167.458 122.027Z" fill="#111111"></path><path d="M127.231 9.0503L126.372 8.79883C126.335 8.91717 122.854 20.7584 122.351 22.0158C121.743 23.5468 124.069 25.7804 124.343 26.0319L124.958 25.3737C124.054 24.5379 122.914 23.0365 123.188 22.3486C123.706 21.0543 127.09 9.53844 127.238 9.0503H127.231Z" fill="#111111"></path><path d="M99.7791 94.646C99.6977 94.5868 99.6014 94.5498 99.5051 94.5498C98.8831 94.5498 84.2569 94.6681 83.3608 102.619C82.9313 106.45 86.3527 107.227 86.3897 107.234L86.5748 106.362C86.4638 106.339 83.9088 105.733 84.2495 102.723C85.0123 95.9773 97.75 95.4891 99.3422 95.4521C100.001 96.029 103.149 99.0837 101.83 103.299L102.69 103.566C104.326 98.3145 99.831 94.6829 99.7866 94.646H99.7791Z" fill="#111111"></path><path d="M103.193 72.3237C103.111 72.2645 103.015 72.2275 102.911 72.2275C102.289 72.2275 87.6631 72.3459 86.767 80.2968C86.3375 84.128 89.7589 84.9046 89.7959 84.912L89.9811 84.0392C89.87 84.017 87.3151 83.4106 87.6557 80.4003C88.4185 73.655 101.156 73.1669 102.748 73.1299C103.4 73.7068 106.555 76.7614 105.237 80.9772L106.096 81.2435C107.74 75.9922 103.237 72.3607 103.193 72.3311V72.3237Z" fill="#111111"></path><path d="M101.259 113.255C100.704 113.203 87.714 112.123 86.5958 119.845C86.3884 121.28 86.6994 122.508 87.5141 123.506C89.3285 125.703 92.9868 125.91 93.135 125.917L93.1794 125.022C93.1794 125.022 89.7654 124.83 88.2028 122.937C87.5511 122.145 87.3067 121.154 87.477 119.978C88.4101 113.536 99.4742 114.039 101 114.135C101.637 114.875 104.562 118.588 102.266 122.293L103.029 122.767C105.91 118.122 101.585 113.447 101.54 113.396C101.466 113.314 101.363 113.27 101.259 113.255Z" fill="#111111"></path><path d="M171.947 135.521L171.528 136.312L204.069 153.534L204.489 152.743L171.947 135.521Z" fill="#111111"></path><defs><clipPath id="clip0_4117_3733"><rect width="100" height="101" fill="white" transform="translate(0 16.0488) rotate(-7.49749)"></rect></clipPath></defs></svg>