<svg xmlns="http://www.w3.org/2000/svg" width="269" height="175" viewBox="0 0 269 175" fill="none"><g clip-path="url(#clip0_3899_14598)"><path d="M148.977 118.434L150.089 117.121C150.797 116.284 150.693 115.027 149.859 114.309L128.62 96.2796C127.782 95.5709 126.525 95.6749 125.807 96.5089C125.098 97.3467 123.842 97.4507 122.994 96.7383L114.034 89.1402C113.197 88.4315 113.093 87.1746 113.805 86.3276L115.903 83.8572C117.867 81.5376 117.589 78.0603 115.264 76.084L95.4056 59.2372C90.8818 55.3993 84.1018 55.9487 80.2602 60.4818C76.4223 65.0056 76.981 71.7893 81.5048 75.6272L160.517 142.665C162.289 144.163 164.946 143.948 166.454 142.179C167.929 140.44 167.754 137.843 166.047 136.316L149.163 121.219C148.361 120.503 148.272 119.262 148.973 118.443L148.977 118.434Z" fill="black"></path><path d="M107.84 88.8345C108.008 88.9008 108.206 88.8613 108.328 88.7161L113.797 82.2784C114.583 81.3532 114.468 79.9627 113.542 79.1762L106.2 72.9512C106.025 72.7957 105.748 72.8151 105.589 72.9994C105.43 73.1838 105.453 73.4511 105.637 73.6102L112.98 79.8352C113.542 80.3164 113.609 81.15 113.138 81.7159L107.669 88.1535C107.514 88.3285 107.543 88.6088 107.718 88.7643C107.757 88.8013 107.794 88.8161 107.84 88.8345Z" fill="#D7FF65"></path><path d="M105.17 94.4567C105.337 94.523 105.536 94.4835 105.658 94.3382C105.814 94.1632 105.794 93.8866 105.61 93.7274L93.8832 83.7737C93.6412 83.5701 93.4899 83.2735 93.463 82.9616C93.4398 82.6404 93.5391 82.3356 93.7427 82.0936C94.1017 81.6765 94.2709 81.1412 94.2285 80.5973C94.1767 80.0496 93.932 79.5545 93.5057 79.1918L88.7975 75.1948C88.6095 75.0449 88.3459 75.0587 88.1867 75.243C88.0276 75.4273 88.0507 75.6947 88.235 75.8538L92.9431 79.8509C93.442 80.2746 93.5074 81.0321 93.08 81.5403C92.721 81.9573 92.5517 82.4926 92.5942 83.0366C92.6366 83.5806 92.9 84.083 93.317 84.442L105.044 94.3958C105.044 94.3958 105.12 94.4475 105.166 94.466L105.17 94.4567Z" fill="#D7FF65"></path><path d="M87.2537 76.1852C87.8208 76.41 88.5037 76.2613 88.9145 75.768C89.1717 75.4719 89.2913 75.0891 89.253 74.6974C89.224 74.3093 89.0446 73.9478 88.7356 73.6961C88.4396 73.4389 88.0567 73.3193 87.665 73.3576C87.277 73.3866 86.9154 73.566 86.6638 73.875C86.1382 74.4949 86.2227 75.4213 86.8333 75.9431C86.9543 76.0449 87.092 76.1318 87.2408 76.1908L87.2537 76.1852ZM88.0205 74.2516C88.0856 74.2774 88.1376 74.3089 88.1953 74.3532C88.3163 74.455 88.3966 74.6052 88.4064 74.7704C88.4162 74.9357 88.3665 75.0881 88.2647 75.2091C88.0445 75.466 87.6658 75.4987 87.4089 75.2785C87.152 75.0583 87.1193 74.6796 87.3395 74.4226C87.4413 74.3016 87.5914 74.2213 87.7567 74.2116C87.8551 74.2076 87.9461 74.2221 88.0298 74.2553L88.0205 74.2516Z" fill="#D7FF65"></path><path d="M104.537 73.9163C105.104 74.1411 105.787 73.9924 106.198 73.4991C106.455 73.2031 106.575 72.8202 106.546 72.4322C106.517 72.0442 106.337 71.6826 106.028 71.4309C105.729 71.183 105.349 71.0541 104.958 71.0924C104.57 71.1215 104.208 71.3008 103.956 71.6098C103.431 72.2297 103.506 73.1524 104.126 73.678C104.256 73.7834 104.385 73.8666 104.533 73.9256L104.537 73.9163ZM105.304 71.9828C105.369 72.0086 105.421 72.04 105.479 72.0844C105.6 72.1861 105.68 72.3363 105.69 72.5016C105.7 72.6668 105.65 72.8192 105.548 72.9402C105.328 73.1971 104.949 73.2298 104.692 73.0096C104.435 72.7894 104.403 72.4107 104.623 72.1538C104.725 72.0328 104.875 71.9525 105.04 71.9427C105.129 71.935 105.229 71.9533 105.313 71.9864L105.304 71.9828Z" fill="#D7FF65"></path><path d="M98.6751 84.0598C99.2421 84.2847 99.925 84.136 100.336 83.6427C100.861 83.0227 100.79 82.0907 100.166 81.5745C99.8702 81.3173 99.4874 81.1977 99.0957 81.236C98.7076 81.265 98.3424 81.4537 98.0944 81.7534C97.8372 82.0494 97.7176 82.4323 97.7559 82.824C97.7849 83.212 97.9736 83.5773 98.2733 83.8252C98.4036 83.9307 98.532 84.0138 98.6807 84.0728L98.6751 84.0598ZM99.4418 82.1263C99.5069 82.1521 99.559 82.1835 99.6167 82.2279C99.8736 82.4481 99.9063 82.8269 99.6861 83.0838C99.4659 83.3407 99.0871 83.3734 98.8302 83.1532C98.7092 83.0514 98.6289 82.9012 98.6192 82.736C98.6094 82.5708 98.6591 82.4183 98.7608 82.2973C98.8626 82.1763 99.0128 82.096 99.178 82.0863C99.2764 82.0822 99.3675 82.0968 99.4511 82.13L99.4418 82.1263Z" fill="#D7FF65"></path><path d="M94.0495 74.0497C94.6166 74.2745 95.2995 74.1258 95.7195 73.6362C96.2451 73.0163 96.1606 72.0899 95.55 71.568C95.254 71.3108 94.8711 71.1912 94.4794 71.2295C94.0914 71.2585 93.7391 71.4416 93.4782 71.7469C93.2209 72.0429 93.1014 72.4258 93.1304 72.8138C93.1594 73.2018 93.3424 73.5541 93.6477 73.815C93.7687 73.9168 93.9064 74.0037 94.0551 74.0627L94.0495 74.0497ZM94.8163 72.1162C94.872 72.1383 94.9334 72.1734 94.9818 72.2141C95.2387 72.4343 95.2714 72.813 95.0512 73.0699C94.831 73.3269 94.4523 73.3595 94.1954 73.1393C94.0744 73.0376 93.9941 72.8874 93.9843 72.7221C93.9745 72.5569 94.0242 72.4045 94.126 72.2835C94.2277 72.1625 94.3779 72.0822 94.5432 72.0724C94.6323 72.0647 94.7326 72.083 94.8163 72.1162Z" fill="#D7FF65"></path><path d="M104.352 81.6535C104.705 81.7935 105.082 81.8463 105.47 81.8173C106.126 81.7652 106.732 81.457 107.16 80.9488C107.441 80.6192 107.832 80.4194 108.255 80.3828C108.688 80.35 109.099 80.4806 109.428 80.7619L112.344 83.2304C112.532 83.3803 112.795 83.3665 112.954 83.1822C113.114 82.9979 113.09 82.7305 112.906 82.5714L109.991 80.1029C109.483 79.6754 108.845 79.4656 108.186 79.527C107.531 79.5791 106.924 79.8873 106.497 80.3955C106.216 80.725 105.824 80.9249 105.401 80.9614C104.968 80.9943 104.558 80.8636 104.228 80.5824L95.6739 73.3173C95.4896 73.1582 95.2185 73.1906 95.0631 73.3656C94.9039 73.5499 94.927 73.8172 95.1113 73.9764L103.666 81.2414C103.874 81.4209 104.11 81.5576 104.352 81.6535Z" fill="#D7FF65"></path><path d="M106.556 89.66C106.723 89.7263 106.922 89.6867 107.044 89.5415C107.203 89.3572 107.18 89.0899 106.996 88.9307L100.243 83.1979C100.055 83.0481 99.7881 83.0711 99.6327 83.2462C99.4772 83.4212 99.4966 83.6978 99.6809 83.857L106.433 89.5898C106.433 89.5898 106.509 89.6415 106.556 89.66Z" fill="#D7FF65"></path><path d="M111.749 101.982C111.973 102.071 112.232 102.012 112.395 101.819C112.599 101.577 112.572 101.211 112.33 101.008L107.476 96.8883C106.503 96.0612 105.909 94.9005 105.799 93.6306C105.693 92.3515 106.094 91.1229 106.916 90.1362C107.743 89.1626 108.904 88.5686 110.174 88.459C111.443 88.3494 112.681 88.7542 113.664 89.5851L119.234 94.3112C119.476 94.5148 119.842 94.4877 120.046 94.2457C120.249 94.0037 120.222 93.6379 119.98 93.4344L114.41 88.7082C113.204 87.6812 111.667 87.19 110.088 87.3172C108.51 87.4445 107.075 88.1878 106.048 89.3942C105.021 90.6005 104.53 92.1377 104.657 93.7157C104.785 95.2938 105.528 96.7289 106.734 97.7559L111.588 101.875C111.636 101.916 111.688 101.947 111.744 101.969L111.749 101.982Z" fill="black"></path><path d="M135.029 121.703C135.252 121.791 135.512 121.733 135.675 121.539L136.36 120.735C137.709 119.151 140.102 118.949 141.686 120.298C142.693 121.149 143.963 121.555 145.273 121.451C146.584 121.347 147.774 120.733 148.626 119.725L149.408 118.81C149.612 118.568 149.585 118.202 149.343 117.998C149.101 117.795 148.735 117.822 148.531 118.064L147.749 118.98C146.4 120.564 144.007 120.766 142.422 119.417C140.354 117.661 137.239 117.921 135.473 119.986L134.789 120.79C134.585 121.032 134.612 121.398 134.854 121.601C134.903 121.642 134.955 121.673 135.011 121.695L135.029 121.703Z" fill="black"></path><g style="mix-blend-mode:multiply" opacity="0.4"><path d="M107.815 69.6664C107.815 69.6664 97.0084 66.2631 85.9795 79.2631L78.6558 73.0454L94.2785 58.0913L107.819 69.6571L107.815 69.6664Z" fill="#32303C"></path></g><path d="M161.468 143.902C163.327 144.639 165.52 144.154 166.886 142.555C168.581 140.559 168.374 137.637 166.432 135.888L149.552 120.781C148.973 120.261 148.916 119.4 149.421 118.804L150.534 117.492C150.978 116.968 151.189 116.299 151.135 115.622C151.072 114.94 150.758 114.321 150.235 113.877L128.992 95.857C127.912 94.9447 126.289 95.0758 125.368 96.1518C125.123 96.4423 124.775 96.616 124.405 96.6524C124.027 96.6851 123.653 96.5692 123.376 96.3193L114.416 88.7213C114.125 88.477 113.951 88.1284 113.915 87.759C113.882 87.3803 114.004 87.0196 114.248 86.7292L116.347 84.2588C117.398 83.0189 117.904 81.4446 117.773 79.822C117.641 78.1994 116.881 76.7254 115.641 75.6743L95.7831 58.8275C91.0266 54.7898 83.8679 55.3719 79.8264 60.1377C75.785 64.9035 76.3708 72.0529 81.1273 76.0907L160.138 143.106C160.549 143.452 160.994 143.714 161.468 143.902ZM127.848 96.4899C127.987 96.5452 128.119 96.619 128.237 96.7301L149.48 114.75C149.77 114.994 149.944 115.343 149.98 115.712C150.013 116.091 149.888 116.461 149.647 116.742L148.535 118.055C147.627 119.125 147.735 120.696 148.785 121.628L165.669 136.726C167.153 138.056 167.305 140.279 166.017 141.79C164.721 143.321 162.421 143.506 160.891 142.21L81.8804 75.1953C77.6079 71.5646 77.08 65.1374 80.7106 60.8648C84.3413 56.5923 90.7686 56.0644 95.0448 59.6858L114.903 76.5326C115.91 77.3838 116.521 78.5834 116.625 79.8941C116.739 81.2085 116.319 82.4836 115.468 83.4908L113.369 85.9612C112.457 87.041 112.588 88.6635 113.668 89.5758L122.628 97.1739C123.151 97.618 123.817 97.8389 124.498 97.7756C125.176 97.7215 125.799 97.3984 126.243 96.8753C126.646 96.4006 127.294 96.2594 127.851 96.4806L127.848 96.4899Z" fill="black"></path><path d="M76.4542 122.001C70.7508 105.54 74.9965 84.5248 89.0565 67.9505C103.12 51.3669 123.169 43.7513 140.338 46.7086L142.576 44.0781C141.993 43.5134 141.397 42.9544 140.768 42.4252C122.546 26.9588 92.4366 32.4892 73.5191 54.7751C54.6109 77.0647 54.0612 107.667 72.2831 123.134C72.9123 123.663 73.5526 124.164 74.2095 124.651L76.4505 122.011L76.4542 122.001Z" fill="#D8C7FF"></path><path d="M97.9701 59.2538C101.738 56.2083 105.732 53.6505 109.851 51.6476L94.4863 38.6054C90.3176 40.5453 86.2695 43.0494 82.4606 46.0894L97.9701 59.2538Z" fill="white"></path><path d="M84.3307 74.2522C85.6654 72.2427 87.1247 70.2718 88.7235 68.3563L73.1898 55.1716C71.5911 57.0871 70.1411 59.0617 68.8156 61.0748L84.3344 74.2429L84.3307 74.2522Z" fill="white"></path><path d="M66.4133 65.0162C65.8148 66.0913 65.2442 67.1774 64.7145 68.269L80.1849 81.3964C80.7239 80.3084 81.3001 79.2353 81.9078 78.1638L66.4133 65.0162Z" fill="white"></path><path d="M117.203 48.6786C118.277 48.33 119.344 48 120.42 47.7275L105.279 34.8815C104.179 35.1336 103.078 35.4396 101.971 35.7641L117.19 48.6842L117.203 48.6786Z" fill="white"></path><path d="M140.338 46.708L142.576 44.0775C142.458 43.9664 142.341 43.8553 142.214 43.7406C123.554 40.5036 102.009 48.5266 87.0032 66.2105C71.9977 83.8943 67.5894 106.458 73.8244 124.347C73.9584 124.443 74.0794 124.544 74.2134 124.641L76.4543 122.001C70.751 105.539 74.9967 84.5242 89.0566 67.9499C103.12 51.3663 123.17 43.7507 140.338 46.708Z" fill="#8B75F3"></path><path d="M74.0032 125.171C74.2263 125.259 74.4861 125.201 74.6489 125.007L76.8899 122.367C77.025 122.217 77.0559 122.003 76.9941 121.806C71.1971 105.092 76.1039 84.0923 89.4922 68.3166C102.884 52.5316 122.801 44.2721 140.234 47.2694C140.435 47.306 140.639 47.2255 140.774 47.0747L143.011 44.4442C143.211 44.2115 143.195 43.8717 142.976 43.6662L142.618 43.32C142.54 43.246 142.436 43.1832 142.322 43.1705C122.686 39.7619 101.32 48.4473 86.5712 65.8351C71.8229 83.2229 66.7348 105.711 73.2882 124.532C73.3294 124.645 73.391 124.734 73.4822 124.803L73.8804 125.101C73.8804 125.101 73.966 125.156 74.0125 125.174L74.0032 125.171ZM75.8058 121.873L74.2292 123.733C68.03 105.375 73.0735 83.5145 87.4518 66.5715C101.821 49.6249 122.567 41.0918 141.69 44.2216L140.114 46.0813C122.366 43.1741 102.196 51.5811 88.6246 67.5745C75.0569 83.5587 70.0488 104.841 75.8058 121.873Z" fill="#111111"></path><path d="M74.0032 125.171C74.2263 125.259 74.4861 125.201 74.649 125.007L76.8899 122.368C77.025 122.217 77.0559 122.003 76.9941 121.806C71.1971 105.092 76.104 84.0923 89.4922 68.3167C102.884 52.5317 122.801 44.2722 140.234 47.2695C140.435 47.306 140.639 47.2256 140.774 47.0748L143.011 44.4442C143.211 44.2115 143.195 43.8718 142.976 43.6663C142.3 43.0109 141.715 42.4779 141.138 41.9801C132.187 34.3857 120.173 31.5041 107.306 33.8672C94.4738 36.2228 82.3193 43.516 73.091 54.3899C54.0033 76.888 53.4808 107.91 71.9205 123.56C72.492 124.044 73.1137 124.538 73.8805 125.101C73.9233 125.128 73.966 125.156 74.0125 125.175L74.0032 125.171ZM75.8058 121.873L74.1274 123.854C73.5803 123.443 73.1075 123.062 72.6626 122.692C54.7032 107.459 55.2965 77.1534 73.9641 55.1449C83.0297 44.4646 94.9357 37.3097 107.512 35.0031C120.034 32.6967 131.717 35.4901 140.392 42.8569C140.833 43.2363 141.286 43.6416 141.779 44.1062L140.104 46.0777C122.356 43.1705 102.187 51.5774 88.6154 67.5709C75.0476 83.5551 70.0395 104.838 75.7965 121.869L75.8058 121.873Z" fill="#111111"></path><path d="M84.6355 49.9633C84.6355 49.9633 84.5834 49.9319 84.5592 49.9116L80.6348 46.5696C76.0961 42.715 69.2901 43.2756 65.4355 47.8143C61.581 52.353 62.1416 59.159 66.6803 63.0136L70.6084 66.3463C70.6084 66.3463 70.6568 66.387 70.681 66.4073C73.9798 69.2108 79.7787 67.799 83.6369 63.251C87.4915 58.7123 87.938 52.7575 84.6392 49.954L84.6355 49.9633Z" fill="black"></path><path d="M72.1358 67.9206C73.6045 68.5031 75.2946 68.5816 77.0834 68.1399C79.6423 67.5195 82.1296 65.9133 84.0689 63.6272C88.1233 58.8557 88.5372 52.5223 85.0019 49.5282C85.0019 49.5282 84.974 49.5171 84.9591 49.5005C84.9498 49.4968 84.9349 49.4801 84.9293 49.4671L81.0012 46.1344C76.2261 42.0893 69.0451 42.6733 64.9907 47.4447C63.031 49.755 62.0815 52.6919 62.3338 55.718C62.586 58.744 63.9943 61.4863 66.3046 63.446L70.2327 66.7787C70.2327 66.7787 70.2811 66.8194 70.309 66.8305C70.8693 67.2893 71.4795 67.6496 72.1395 67.9113L72.1358 67.9206ZM84.6225 49.9694L84.2561 50.405C87.3074 52.992 86.8301 58.5903 83.1883 62.8907C81.4082 64.9925 79.1341 66.4681 76.8127 67.0321C74.5489 67.5866 72.5051 67.2065 71.0567 65.9759C71.0288 65.9648 71.0083 65.9352 70.9804 65.9241L67.056 62.5821C64.9784 60.8223 63.7102 58.3507 63.4849 55.6365C63.2595 52.9223 64.1133 50.2811 65.8768 48.1942C67.6366 46.1166 70.1082 44.8483 72.8224 44.623C75.5366 44.3977 78.1815 45.2422 80.2647 47.0149L84.1295 50.2903C84.1295 50.2903 84.1649 50.3366 84.1891 50.357L84.6281 49.9824L84.6225 49.9694Z" fill="black"></path><path d="M70.6426 52.2358C69.6359 53.418 68.0602 53.7291 67.1294 52.9296C66.1892 52.1265 66.2402 50.5331 67.2469 49.3509C68.2536 48.1688 69.8199 47.854 70.7601 48.6571C71.7002 49.4603 71.6492 51.0537 70.6519 52.2395L70.6426 52.2358Z" fill="#D7FF65"></path><path d="M136.087 120.692C136.254 120.758 136.452 120.719 136.575 120.573C136.734 120.389 136.711 120.122 136.526 119.963L124.476 109.741C124.234 109.537 124.083 109.24 124.056 108.929C124.032 108.607 124.132 108.302 124.335 108.06C125.068 107.189 124.97 105.892 124.098 105.159L119.39 101.162C119.202 101.012 118.935 101.035 118.779 101.21C118.624 101.385 118.643 101.662 118.828 101.821L123.536 105.818C124.044 106.245 124.1 106.999 123.673 107.507C122.944 108.369 123.048 109.68 123.91 110.409L135.96 120.631C135.96 120.631 136.036 120.683 136.083 120.701L136.087 120.692Z" fill="#D7FF65"></path><path d="M117.748 102.21C117.953 102.291 118.185 102.329 118.408 102.31C118.796 102.281 119.161 102.092 119.409 101.792C119.934 101.172 119.859 100.25 119.239 99.7242C118.619 99.1987 117.697 99.2738 117.171 99.8938C116.914 100.19 116.794 100.573 116.833 100.964C116.862 101.352 117.05 101.718 117.35 101.966C117.471 102.067 117.609 102.154 117.757 102.213L117.748 102.21ZM118.515 100.276C118.571 100.298 118.632 100.333 118.68 100.374C118.937 100.594 118.97 100.973 118.75 101.23C118.648 101.351 118.498 101.431 118.333 101.441C118.167 101.451 118.015 101.401 117.894 101.299C117.773 101.197 117.693 101.047 117.683 100.882C117.673 100.717 117.723 100.564 117.824 100.443C118 100.244 118.273 100.18 118.515 100.276Z" fill="#D7FF65"></path><path d="M128.571 102.478C128.776 102.559 128.999 102.594 129.231 102.578C129.619 102.549 129.98 102.37 130.232 102.061C130.489 101.765 130.609 101.382 130.571 100.99C130.542 100.602 130.362 100.241 130.053 99.9891C129.757 99.7319 129.374 99.6123 128.983 99.6506C128.595 99.6796 128.233 99.859 127.981 100.168C127.456 100.788 127.531 101.711 128.151 102.236C128.281 102.342 128.41 102.425 128.558 102.484L128.571 102.478ZM129.338 100.545C129.403 100.57 129.455 100.602 129.513 100.646C129.643 100.752 129.714 100.898 129.724 101.063C129.734 101.229 129.684 101.381 129.579 101.511C129.477 101.632 129.327 101.713 129.161 101.722C128.996 101.732 128.844 101.683 128.723 101.581C128.466 101.361 128.433 100.982 128.653 100.725C128.755 100.604 128.905 100.524 129.071 100.514C129.16 100.506 129.26 100.524 129.344 100.558L129.338 100.545Z" fill="#D7FF65"></path><path d="M120.237 98.6467C120.441 98.7278 120.664 98.7624 120.896 98.7469C121.288 98.7086 121.65 98.5292 121.898 98.2295C122.146 97.9298 122.274 97.5506 122.236 97.1589C122.207 96.7709 122.019 96.4056 121.719 96.1577C121.423 95.9004 121.04 95.7809 120.648 95.8192C120.26 95.8482 119.908 96.0312 119.647 96.3365C119.121 96.9565 119.202 97.8921 119.817 98.4047C119.938 98.5064 120.075 98.5933 120.224 98.6523L120.237 98.6467ZM121.004 96.7132C121.069 96.739 121.121 96.7704 121.179 96.8148C121.309 96.9202 121.38 97.0667 121.39 97.232C121.399 97.3972 121.35 97.5496 121.248 97.6706C121.146 97.7916 120.996 97.8719 120.84 97.8854C120.675 97.8952 120.522 97.8455 120.401 97.7437C120.144 97.5235 120.112 97.1448 120.332 96.8879C120.434 96.7669 120.584 96.6866 120.749 96.6768C120.838 96.6691 120.929 96.6837 121.022 96.7205L121.004 96.7132Z" fill="#D7FF65"></path><path d="M129.762 113.31C129.967 113.391 130.19 113.426 130.422 113.41C130.81 113.381 131.175 113.193 131.423 112.893C131.948 112.273 131.873 111.35 131.253 110.825C130.633 110.299 129.701 110.371 129.185 110.994C128.937 111.294 128.808 111.673 128.847 112.065C128.876 112.453 129.055 112.815 129.364 113.066C129.485 113.168 129.623 113.255 129.771 113.314L129.762 113.31ZM130.529 111.377C130.585 111.399 130.646 111.434 130.694 111.475C130.951 111.695 130.984 112.073 130.764 112.33C130.662 112.451 130.512 112.532 130.356 112.545C130.191 112.555 130.038 112.505 129.917 112.403C129.796 112.302 129.716 112.152 129.706 111.986C129.696 111.821 129.746 111.669 129.848 111.548C130.024 111.348 130.297 111.284 130.538 111.38L130.529 111.377Z" fill="#D7FF65"></path><path d="M142.202 114.005C142.407 114.086 142.63 114.12 142.862 114.105C143.25 114.076 143.615 113.887 143.863 113.588C144.12 113.292 144.24 112.909 144.201 112.517C144.172 112.129 143.993 111.767 143.684 111.516C143.064 110.99 142.141 111.065 141.616 111.685C141.09 112.305 141.162 113.237 141.785 113.753C141.906 113.855 142.044 113.942 142.193 114.001L142.202 114.005ZM142.969 112.071C143.025 112.093 143.086 112.128 143.134 112.169C143.255 112.271 143.336 112.421 143.346 112.586C143.355 112.752 143.306 112.904 143.204 113.025C143.102 113.146 142.952 113.226 142.787 113.236C142.621 113.246 142.469 113.196 142.348 113.094C142.091 112.874 142.058 112.495 142.279 112.239C142.445 112.036 142.727 111.975 142.969 112.071Z" fill="#D7FF65"></path><path d="M110.979 99.5572C111.184 99.6383 111.407 99.673 111.639 99.6574C112.027 99.6284 112.392 99.4398 112.64 99.1401C112.897 98.844 113.017 98.4612 112.988 98.0731C112.949 97.6814 112.77 97.3199 112.47 97.0719C111.85 96.5464 110.918 96.6179 110.402 97.2415C109.877 97.8614 109.948 98.7934 110.572 99.3096C110.693 99.4114 110.83 99.4983 110.979 99.5572ZM111.746 97.6237C111.802 97.6458 111.863 97.6809 111.921 97.7253C112.042 97.8271 112.122 97.9773 112.132 98.1425C112.142 98.3078 112.092 98.4602 111.99 98.5812C111.888 98.7022 111.738 98.7825 111.573 98.7923C111.408 98.802 111.255 98.7524 111.134 98.6506C110.877 98.4304 110.845 98.0516 111.065 97.7947C111.241 97.5955 111.513 97.5316 111.755 97.6274L111.746 97.6237Z" fill="#D7FF65"></path><path d="M111.546 94.2747C112.113 94.4996 112.796 94.3509 113.207 93.8576C113.464 93.5615 113.584 93.1786 113.555 92.7906C113.526 92.4026 113.337 92.0373 113.037 91.7894C112.741 91.5322 112.359 91.4126 111.967 91.4509C111.579 91.4799 111.214 91.6685 110.966 91.9683C110.44 92.5882 110.512 93.5202 111.135 94.0364C111.265 94.1419 111.394 94.2251 111.543 94.284L111.546 94.2747ZM112.313 92.3412C112.378 92.367 112.434 92.3891 112.488 92.4428C112.609 92.5446 112.689 92.6948 112.699 92.86C112.709 93.0253 112.659 93.1777 112.557 93.2987C112.337 93.5556 111.958 93.5883 111.701 93.3681C111.445 93.1479 111.412 92.7691 111.632 92.5122C111.734 92.3912 111.884 92.3109 112.049 92.3011C112.148 92.2971 112.239 92.3117 112.322 92.3449L112.313 92.3412Z" fill="#D7FF65"></path><path d="M123.385 108.964C123.553 109.03 123.751 108.99 123.873 108.845C124.033 108.661 124.01 108.394 123.825 108.234L112.573 98.6841C112.385 98.5342 112.122 98.548 111.963 98.7323C111.803 98.9166 111.827 99.1839 112.011 99.3431L123.263 108.893C123.263 108.893 123.339 108.945 123.385 108.964Z" fill="#D7FF65"></path><path d="M144.983 121.261C145.151 121.327 145.349 121.288 145.471 121.142C145.63 120.958 145.607 120.691 145.423 120.532L113.267 93.2462C113.082 93.0871 112.811 93.1194 112.656 93.2945C112.497 93.4788 112.52 93.7461 112.704 93.9053L144.861 121.191C144.861 121.191 144.937 121.242 144.983 121.261Z" fill="#D7FF65"></path><path d="M136.419 117.628C137.191 117.934 138.107 117.739 138.677 117.061L139.484 116.111C139.643 115.927 139.62 115.66 139.436 115.501C139.248 115.351 138.981 115.374 138.825 115.549L138.018 116.498C137.615 116.973 136.893 117.031 136.418 116.628L131.298 112.284C131.12 112.138 130.847 112.148 130.688 112.333C130.532 112.508 130.552 112.784 130.736 112.944L135.855 117.287C136.025 117.429 136.218 117.538 136.414 117.615L136.419 117.628Z" fill="#D7FF65"></path><path d="M137.335 114.722C137.503 114.788 137.701 114.748 137.823 114.603L139.2 112.976C140.272 111.712 140.121 109.813 138.857 108.741L130.206 101.395C130.018 101.245 129.751 101.268 129.595 101.443C129.436 101.628 129.459 101.895 129.643 102.054L138.294 109.401C139.195 110.167 139.303 111.522 138.541 112.414L137.164 114.041C137.009 114.216 137.028 114.492 137.213 114.651C137.252 114.689 137.289 114.703 137.335 114.722Z" fill="#D7FF65"></path><path d="M130.61 106.126C131.558 106.503 132.677 106.258 133.369 105.435L133.695 105.048C133.85 104.873 133.831 104.596 133.646 104.437C133.471 104.281 133.195 104.301 133.036 104.485L132.71 104.872C132.147 105.531 131.154 105.622 130.486 105.055L121.85 97.7256C121.665 97.5665 121.394 97.5989 121.239 97.7739C121.08 97.9582 121.103 98.2255 121.287 98.3847L129.923 105.714C130.132 105.894 130.359 106.027 130.601 106.123L130.61 106.126Z" fill="#D7FF65"></path><path d="M143.96 120.07C144.127 120.136 144.326 120.097 144.448 119.952L145.557 118.648C146.082 118.028 146.329 117.244 146.269 116.446C146.199 115.644 145.826 114.904 145.212 114.391L143.652 113.063C143.476 112.907 143.2 112.927 143.041 113.111C142.882 113.295 142.905 113.563 143.089 113.722L144.649 115.05C145.09 115.43 145.359 115.945 145.409 116.524C145.459 117.104 145.279 117.667 144.903 118.099L143.795 119.402C143.636 119.586 143.659 119.854 143.843 120.013C143.886 120.041 143.919 120.065 143.966 120.083L143.96 120.07Z" fill="#D7FF65"></path><path d="M163.407 144.057C163.574 144.124 163.773 144.084 163.895 143.939C164.05 143.764 164.031 143.487 163.847 143.328L156.141 136.798C155.642 136.374 155.577 135.617 156.004 135.108C156.363 134.691 156.533 134.156 156.49 133.612C156.448 133.068 156.184 132.566 155.767 132.207L151.059 128.21C150.875 128.05 150.608 128.073 150.448 128.258C150.289 128.442 150.312 128.709 150.497 128.869L155.205 132.866C155.447 133.069 155.598 133.366 155.625 133.678C155.648 133.999 155.549 134.304 155.345 134.546C154.616 135.408 154.711 136.715 155.582 137.447L163.284 143.987C163.284 143.987 163.36 144.039 163.407 144.057Z" fill="#D7FF65"></path><path d="M149.427 129.262C149.631 129.343 149.863 129.381 150.086 129.362C150.478 129.323 150.839 129.144 151.087 128.844C151.344 128.548 151.464 128.166 151.426 127.774C151.397 127.386 151.217 127.024 150.908 126.773C150.288 126.247 149.366 126.322 148.84 126.942C148.315 127.562 148.399 128.488 149.01 129.01C149.14 129.116 149.268 129.199 149.417 129.258L149.427 129.262ZM150.193 127.328C150.249 127.35 150.31 127.385 150.359 127.426C150.48 127.528 150.56 127.678 150.57 127.843C150.583 127.999 150.53 128.161 150.428 128.282C150.326 128.403 150.176 128.483 150.011 128.493C149.846 128.503 149.693 128.453 149.572 128.351C149.315 128.131 149.283 127.752 149.503 127.495C149.679 127.296 149.952 127.232 150.193 127.328Z" fill="#D7FF65"></path><path d="M158.165 137.418C158.732 137.643 159.415 137.494 159.826 137.001C160.352 136.381 160.277 135.458 159.657 134.933C159.357 134.685 158.978 134.556 158.586 134.594C158.198 134.623 157.833 134.812 157.585 135.112C157.328 135.408 157.208 135.791 157.246 136.182C157.275 136.57 157.464 136.936 157.764 137.184C157.894 137.289 158.022 137.372 158.171 137.431L158.165 137.418ZM158.932 135.485C158.997 135.51 159.053 135.533 159.107 135.586C159.364 135.806 159.397 136.185 159.176 136.442C159.075 136.563 158.924 136.643 158.759 136.653C158.603 136.667 158.442 136.613 158.321 136.512C158.2 136.41 158.119 136.26 158.109 136.094C158.096 135.938 158.149 135.777 158.251 135.656C158.353 135.535 158.503 135.454 158.668 135.445C158.767 135.441 158.858 135.455 158.941 135.488L158.932 135.485Z" fill="#D7FF65"></path><path d="M140.168 124.504C140.735 124.729 141.418 124.58 141.829 124.087C142.355 123.467 142.27 122.541 141.66 122.019C141.364 121.762 140.981 121.642 140.593 121.671C140.205 121.7 139.839 121.889 139.591 122.188C139.334 122.484 139.215 122.867 139.253 123.259C139.282 123.647 139.471 124.012 139.77 124.26C139.901 124.366 140.029 124.449 140.178 124.508L140.168 124.504ZM140.935 122.571C141 122.597 141.052 122.628 141.11 122.672C141.367 122.893 141.4 123.271 141.179 123.528C140.959 123.785 140.58 123.818 140.324 123.598C140.203 123.496 140.122 123.346 140.112 123.18C140.103 123.015 140.152 122.863 140.254 122.742C140.356 122.621 140.506 122.54 140.671 122.531C140.77 122.527 140.861 122.541 140.944 122.574L140.935 122.571Z" fill="#D7FF65"></path><path d="M147.67 124.929C147.874 125.01 148.107 125.049 148.329 125.029C148.721 124.991 149.083 124.812 149.331 124.512C149.856 123.892 149.781 122.969 149.161 122.444C148.541 121.918 147.618 121.994 147.093 122.613C146.836 122.91 146.716 123.292 146.754 123.684C146.783 124.072 146.972 124.437 147.272 124.685C147.393 124.787 147.53 124.874 147.679 124.933L147.67 124.929ZM148.437 122.996C148.492 123.018 148.554 123.053 148.602 123.094C148.859 123.314 148.892 123.693 148.672 123.95C148.57 124.071 148.42 124.151 148.254 124.161C148.089 124.17 147.937 124.121 147.816 124.019C147.695 123.917 147.614 123.767 147.605 123.602C147.595 123.436 147.645 123.284 147.746 123.163C147.922 122.964 148.195 122.9 148.437 122.996Z" fill="#D7FF65"></path><path d="M155.039 135.995C155.207 136.061 155.405 136.022 155.528 135.877C155.687 135.692 155.664 135.425 155.479 135.266L141.772 123.634C141.588 123.475 141.32 123.498 141.161 123.682C141.002 123.866 141.025 124.134 141.209 124.293L154.917 135.925C154.917 135.925 154.993 135.977 155.039 135.995Z" fill="#D7FF65"></path><path d="M167.243 140.135C167.41 140.202 167.609 140.162 167.731 140.017C167.89 139.833 167.867 139.565 167.683 139.406L149.394 123.892C149.209 123.732 148.942 123.756 148.783 123.94C148.624 124.124 148.647 124.392 148.831 124.551L167.12 140.065C167.12 140.065 167.196 140.117 167.243 140.135Z" fill="#D7FF65"></path><path d="M162.976 140.153C163.255 140.264 163.559 140.309 163.871 140.282C164.406 140.236 164.879 139.993 165.225 139.582L166.031 138.633C166.191 138.448 166.168 138.181 165.983 138.022C165.808 137.866 165.532 137.886 165.372 138.07L164.566 139.019C164.366 139.252 164.095 139.392 163.796 139.414C163.497 139.435 163.202 139.339 162.965 139.149L159.706 136.382C159.521 136.223 159.25 136.255 159.095 136.43C158.936 136.615 158.959 136.882 159.143 137.041L162.403 139.808C162.572 139.95 162.762 140.068 162.957 140.146L162.976 140.153Z" fill="#D7FF65"></path><path d="M47.8443 68.3564L32.7341 69.5935L47.8173 82.3952L47.8443 68.3564Z" fill="black"></path><path d="M47.6071 82.9249C47.7559 82.9839 47.9174 82.9834 48.0639 82.9124C48.2623 82.819 48.3973 82.6143 48.4003 82.3896L48.418 68.3472C48.4175 68.1857 48.3502 68.0299 48.2329 67.9188C48.1156 67.8077 47.9539 67.7544 47.7979 67.7678L32.6971 69.0086C32.465 69.0241 32.2724 69.1844 32.1969 69.4019C32.1307 69.6231 32.1964 69.8643 32.3714 70.0197L47.4546 82.8214C47.503 82.8621 47.555 82.8935 47.6108 82.9156L47.6071 82.9249ZM47.2649 68.9764L47.2472 81.147L34.169 70.0441L47.2685 68.9671L47.2649 68.9764Z" fill="black"></path><path d="M24.8037 99.7646L28.4141 110.545L35.0374 97.2607L24.8037 99.7646Z" fill="#D7FF65"></path><path d="M28.2001 111.084C28.2559 111.106 28.3117 111.128 28.3692 111.119C28.5995 111.135 28.822 111.008 28.9254 110.802L35.5524 97.5084C35.6521 97.3113 35.6309 97.0663 35.4855 96.8903C35.3495 96.718 35.1134 96.6351 34.8981 96.6896L24.6644 99.1935C24.5104 99.2292 24.3715 99.3355 24.2939 99.4768C24.2163 99.6182 24.2038 99.7854 24.2525 99.9338L27.8592 110.723C27.9136 110.885 28.0365 111.009 28.1945 111.071L28.2001 111.084ZM33.9702 98.1074L28.5135 109.046L25.5382 100.164L33.9609 98.1037L33.9702 98.1074Z" fill="#111111"></path><path d="M78.9561 30.9724L73.8026 20.8282L69.1948 34.9437L78.9561 30.9724Z" fill="#D7FF65"></path><path d="M68.981 35.4833C69.1205 35.5386 69.2727 35.5344 69.4119 35.482L79.1732 31.5106C79.3253 31.4526 79.4401 31.326 79.4991 31.1773C79.5581 31.0286 79.5483 30.8633 79.468 30.7131L74.3145 20.569C74.2118 20.3669 73.9941 20.2376 73.762 20.2531C73.53 20.2687 73.328 20.4252 73.2618 20.6464L68.6539 34.7619C68.5821 34.9701 68.6478 35.2113 68.8136 35.3631C68.8676 35.4167 68.929 35.4519 68.994 35.4777L68.981 35.4833ZM78.1587 30.678L70.1278 33.9479L73.9186 22.3269L78.1587 30.678Z" fill="#111111"></path><path d="M27.8091 36.9821L21.3832 49.8496L39.1887 43.9045L27.8091 36.9821Z" fill="#D7FF65"></path><path d="M21.1694 50.3885C21.2903 50.4364 21.4388 50.4415 21.565 50.3947L39.3704 44.4497C39.5801 44.3822 39.7299 44.1942 39.7552 43.9676C39.7806 43.7409 39.6722 43.5259 39.4825 43.4076L28.0992 36.4945C27.9615 36.4076 27.798 36.3858 27.6403 36.4309C27.4826 36.4759 27.353 36.5859 27.2847 36.7309L20.8588 49.5983C20.7554 49.8047 20.7859 50.0535 20.9406 50.2331C21.0002 50.2998 21.0765 50.3516 21.1601 50.3848L21.1694 50.3885ZM37.8289 43.7523L22.5149 48.8673L28.0325 37.802L37.8196 43.7486L37.8289 43.7523Z" fill="#111111"></path><path d="M86.5111 105.647L95.4983 125.466L100.919 122.484L103.981 129.195L98.6533 132.375L98.6162 132.36L103.226 142.547L115.559 116.574L86.5111 105.647Z" fill="#D7FF65"></path><path d="M103.016 143.077C103.081 143.103 103.149 143.119 103.226 143.117C103.45 143.12 103.65 142.995 103.754 142.789L116.083 116.825C116.151 116.68 116.155 116.509 116.093 116.367C116.035 116.215 115.925 116.085 115.759 116.041L86.7157 105.104C86.5019 105.019 86.2514 105.081 86.0903 105.243C85.9348 105.418 85.8928 105.66 85.9919 105.871L94.9754 125.699C95.0371 125.842 95.1637 125.957 95.3161 126.007C95.4648 126.066 95.6337 126.047 95.7746 125.963L100.647 123.28L103.247 128.958L98.4438 131.819C98.3566 131.849 98.2843 131.895 98.2176 131.955C98.0529 132.126 97.9979 132.374 98.0876 132.581L102.706 142.772C102.772 142.905 102.88 143.012 103.019 143.068L103.016 143.077ZM114.765 116.894L103.238 141.186L99.3616 132.624L104.276 129.699C104.528 129.552 104.622 129.234 104.504 128.962L101.429 122.256C101.358 122.109 101.232 121.995 101.088 121.949C100.94 121.89 100.771 121.909 100.63 121.993L95.7578 124.676L87.6061 106.684L114.77 116.907L114.765 116.894Z" fill="#111111"></path></g><path d="M241.456 74.1233C221.498 64.0941 199.999 73.539 193.438 95.2246C186.876 116.91 197.741 142.619 217.699 152.649C237.657 162.678 259.156 153.233 265.717 131.547C272.278 109.862 261.414 84.1525 241.456 74.1233Z" fill="white"></path><path d="M217.699 152.648C237.346 162.522 258.467 153.514 265.384 132.553H197.652C202.206 141.11 209.108 148.329 217.691 152.648H217.699Z" fill="#D7FF65"></path><path d="M241.656 73.7239C231.984 68.8646 221.631 68.3395 212.5 72.2595C203.176 76.2608 196.252 84.367 193.008 95.0989C186.403 116.947 197.385 142.945 217.499 153.055C222.883 155.762 228.474 157.123 233.954 157.123C238.316 157.123 242.604 156.258 246.655 154.527C255.979 150.526 262.903 142.42 266.147 131.688C272.76 109.839 261.77 83.8419 241.656 73.7313V73.7239ZM265.288 131.422C262.118 141.895 255.379 149.801 246.299 153.691C237.42 157.5 227.334 156.99 217.906 152.249C198.163 142.323 187.387 116.799 193.875 95.3503C197.044 84.8774 203.784 76.9708 212.863 73.0805C216.795 71.3941 220.965 70.5584 225.208 70.5584C230.548 70.5584 236.006 71.8897 241.256 74.5301C261 84.4558 271.775 109.98 265.288 131.429V131.422Z" fill="#111111"></path><path d="M235.717 70.1221L200.451 70.2256L202.628 156.598L235.976 156.583C242.012 156.569 246.848 137.198 246.774 113.323C246.707 89.4483 241.753 70.1073 235.717 70.1295V70.1221Z" fill="white"></path><path d="M202.628 156.598L235.976 156.583C239.775 156.576 243.1 148.891 245.018 137.242L202.14 137.368L202.621 156.598H202.628Z" fill="#D7FF65"></path><path d="M200.185 70.418C194.179 70.4328 189.357 89.722 189.432 113.493C189.506 137.265 194.43 156.524 200.436 156.502C206.442 156.487 211.256 137.198 211.189 113.427C211.123 89.6555 206.191 70.3958 200.185 70.418Z" fill="#D7FF65"></path><path d="M154.107 94.4851C155.647 107.465 147.827 146.177 147.827 146.177C147.827 146.177 153.225 149.202 156.817 149.816C160.409 150.43 192.224 151.887 195.823 151.687C199.422 151.487 203.406 151.709 203.406 151.709L203.473 74.6855L155.78 67.7627C155.78 67.7627 152.574 81.5048 154.107 94.4851Z" fill="#FFDBC4"></path><path d="M201.282 74.7002C195.876 74.715 191.536 92.0812 191.603 113.478C191.669 134.883 196.105 152.22 201.511 152.205C206.917 152.19 211.257 134.824 211.191 113.427C211.131 92.022 206.688 74.6854 201.282 74.7002Z" fill="#FFDBC4"></path><path d="M186.647 65.3515C179.538 58.0663 190.816 34.0657 185.884 26.3071C180.108 17.2172 169.377 22.2984 162.682 30.1162C155.988 37.9413 150.1 71.5569 150.1 71.5569L209.671 92.0813C209.745 87.4883 205.28 75.3512 205.28 75.3512C205.28 75.3512 193.756 72.6442 186.64 65.3589L186.647 65.3515Z" fill="#FFDBC4"></path><path d="M200.229 69.7822H200.221C198.696 69.7822 197.614 70.5071 196.37 72.3487L197.111 72.8443C198.325 71.0322 199.17 70.6772 200.221 70.6698C202.872 70.6698 205.538 75.1519 207.545 82.9696C209.626 91.0906 210.789 101.904 210.826 113.42C210.893 136.607 206.153 156.214 200.473 156.236C198.999 156.236 197.481 154.816 196.081 152.139L195.289 152.553C196.874 155.593 198.622 157.131 200.473 157.131H200.48C206.857 157.109 211.796 137.916 211.73 113.42C211.693 101.837 210.522 90.9427 208.427 82.7551C206.286 74.3901 203.376 69.7822 200.236 69.7822H200.229Z" fill="#111111"></path><path d="M235.725 69.6787H235.718V70.5737H235.725C238.376 70.5737 241.05 75.0557 243.049 82.8735C245.13 90.9945 246.293 101.808 246.323 113.324C246.36 124.832 245.256 135.653 243.227 143.788C241.272 151.628 238.628 156.125 235.97 156.133V157.028C239.117 157.02 241.998 152.39 244.094 144.003C246.145 135.793 247.248 124.899 247.219 113.316C247.182 101.734 246.012 90.8392 243.916 82.6516C241.776 74.2865 238.865 69.6787 235.725 69.6787Z" fill="#111111"></path><path d="M165.482 84.1608L152.012 62.4678C152.012 62.4678 126.655 66.1954 121.989 74.9747C117.323 83.754 118.368 97.1706 140.185 103.502C162.002 109.833 169.111 100.669 170.459 95.8171C172.429 88.6946 165.49 84.1608 165.49 84.1608H165.482Z" fill="#FFDBC4"></path><path d="M161.564 104.411L123.077 93.7529C119.974 95.8091 117.515 98.5161 116.938 102.037C115.086 113.316 117.671 124.454 140.391 127.339C163.112 130.223 168.34 120.106 168.725 115.12C169.288 107.798 161.564 104.403 161.564 104.403V104.411Z" fill="#FFDBC4"></path><path d="M162.09 124.795L126.521 123.234C125.528 124.995 125.225 126.969 125.306 129.144C125.676 138.759 131.386 148.056 149.604 146.843C167.815 145.63 169.355 136.2 168.422 131.91C167.052 125.609 162.09 124.795 162.09 124.795Z" fill="#FFDBC4"></path><path d="M196.118 152.234L203.702 152.212L148.33 146.924C148.33 146.924 169.295 162.13 196.118 152.234Z" fill="#FFDBC4"></path><path d="M186.173 44.3688C187.439 36.8765 188.639 29.8057 186.262 26.0633C184.285 22.9495 181.648 21.2557 178.419 21.0265C172.48 20.6049 166.215 25.2941 162.342 29.8205C155.647 37.6457 149.9 70.0927 149.663 71.4684L150.544 71.6237C150.604 71.2909 156.484 38.0377 163.023 30.3974C167.792 24.8355 173.672 21.5812 178.36 21.914C181.285 22.1211 183.692 23.6743 185.506 26.5366C187.699 29.9906 186.528 36.8987 185.292 44.2135C183.848 52.7561 182.352 61.5871 186.321 65.655C193.445 72.9476 205.065 75.7434 205.176 75.7656L205.383 74.8928C205.265 74.8632 193.897 72.1267 186.965 65.0263C183.307 61.2839 184.766 52.6821 186.173 44.3614V44.3688Z" fill="#111111"></path><path d="M165.727 83.7826L165.238 84.5296C165.305 84.574 171.881 88.9747 170.022 95.6904C169.652 97.0365 168.319 100.431 164.016 102.828C158.528 105.89 150.33 105.971 140.303 103.064C130.454 100.202 123.907 95.5277 121.374 89.5442C118.819 83.5015 120.908 77.947 122.381 75.1734C126.891 66.6974 151.826 62.9402 152.078 62.9032L151.945 62.0156C150.901 62.1709 126.306 65.8838 121.589 74.7518C120.041 77.6659 117.849 83.5015 120.552 89.8844C123.196 96.1268 129.943 100.979 140.059 103.915C145.45 105.476 149.886 106.075 153.515 106.075C158.617 106.075 162.135 104.906 164.46 103.604C169.052 101.045 170.489 97.3768 170.888 95.9197C172.925 88.5605 165.801 83.8122 165.727 83.7678V83.7826Z" fill="#111111"></path><path d="M161.749 103.997L161.386 104.818C161.46 104.847 168.807 108.183 168.281 115.091C168.177 116.459 167.533 119.958 163.845 122.961C160.498 125.69 153.722 128.582 140.451 126.895C130.283 125.601 123.588 122.635 119.996 117.82C117.086 113.93 116.256 108.93 117.382 102.103C117.878 99.0858 119.878 96.401 123.329 94.123L122.832 93.376C119.167 95.8019 117.034 98.6938 116.493 101.963C115.331 109.048 116.212 114.255 119.27 118.36C123.018 123.375 129.905 126.459 140.332 127.783C143.094 128.131 145.583 128.286 147.827 128.286C156.617 128.286 161.631 125.912 164.408 123.649C168.363 120.424 169.051 116.637 169.17 115.15C169.747 107.599 161.823 104.026 161.749 103.989V103.997Z" fill="#111111"></path><path d="M162.164 124.351L162.016 125.231C162.061 125.239 166.689 126.06 167.978 131.999C168.193 132.99 168.696 136.473 166.178 139.816C163.342 143.581 157.595 145.852 149.575 146.384C141.355 146.932 135.126 145.356 131.068 141.71C127.795 138.766 125.958 134.41 125.758 129.114C125.669 126.807 126.04 125.002 126.914 123.441L126.136 123.005C125.173 124.721 124.766 126.673 124.862 129.151C125.077 134.698 127.017 139.269 130.468 142.383C134.171 145.711 139.555 147.39 146.494 147.39C147.509 147.39 148.553 147.353 149.634 147.279C158.047 146.717 163.853 144.387 166.897 140.356C169.644 136.71 169.096 132.894 168.859 131.806C167.437 125.283 162.379 124.381 162.164 124.344V124.351Z" fill="#111111"></path><path d="M172.924 85.832C172.85 86.0983 165.674 112.606 170.65 136.23L171.524 136.045C166.592 112.636 173.709 86.335 173.783 86.0687L172.916 85.832H172.924Z" fill="#111111"></path><path d="M196.112 151.784C196.06 151.784 196.009 151.791 195.957 151.813C169.674 161.502 148.79 146.71 148.583 146.555L148.057 147.28C148.212 147.398 160.335 155.992 177.754 155.992C183.419 155.992 189.64 155.082 196.194 152.679L205.28 152.657V151.762L196.112 151.784Z" fill="#111111"></path><path d="M235.712 69.697L200.447 69.8076L200.449 70.7026L235.715 70.5919L235.712 69.697Z" fill="#111111"></path><path d="M236.169 156.129L200.208 156.273L200.211 157.168L236.173 157.024L236.169 156.129Z" fill="#111111"></path><path d="M226.06 136.17C222.527 136.177 219.669 139.047 219.683 142.575C219.691 146.103 222.564 148.958 226.097 148.943C229.629 148.936 232.488 146.066 232.473 142.538C232.466 139.01 229.592 136.155 226.06 136.17Z" fill="#DCDCE6"></path><path d="M226.059 135.727C224.23 135.727 222.512 136.451 221.223 137.746C219.935 139.04 219.224 140.763 219.231 142.583C219.231 144.41 219.957 146.126 221.253 147.413C222.541 148.692 224.252 149.402 226.074 149.402H226.096C227.925 149.402 229.643 148.677 230.932 147.383C232.221 146.089 232.931 144.365 232.924 142.546C232.924 140.719 232.198 139.003 230.902 137.716C229.606 136.429 227.873 135.741 226.059 135.727ZM226.096 148.5H226.081C222.808 148.5 220.142 145.845 220.135 142.575C220.135 140.985 220.742 139.491 221.867 138.367C222.986 137.243 224.482 136.621 226.066 136.614H226.081C227.666 136.614 229.155 137.228 230.273 138.345C231.399 139.462 232.021 140.956 232.028 142.538C232.035 145.815 229.377 148.485 226.096 148.5Z" fill="#111111"></path><path d="M226.066 138.167C223.637 138.167 221.675 140.149 221.682 142.568C221.69 144.994 223.659 146.954 226.089 146.946C228.518 146.946 230.48 144.971 230.473 142.546C230.473 140.12 228.495 138.16 226.066 138.167Z" fill="#8B75F3"></path><path d="M226.089 146.481V147.376C228.133 147.376 229.954 146.074 230.628 144.151L229.784 143.855C229.236 145.423 227.747 146.474 226.089 146.481Z" fill="#111111"></path><path d="M226.08 137.746H226.066C224.777 137.746 223.57 138.256 222.659 139.166C221.748 140.076 221.252 141.289 221.252 142.576C221.252 144.528 222.429 146.266 224.236 147.014L224.577 146.185C223.103 145.579 222.155 144.159 222.148 142.568C222.148 141.518 222.548 140.534 223.289 139.795C224.029 139.055 225.014 138.641 226.058 138.641C227.643 138.611 229.065 139.573 229.68 141.023L230.502 140.675C229.739 138.892 227.999 137.746 226.066 137.746H226.08Z" fill="#111111"></path><path d="M224.689 140.342C224.2 140.342 223.808 140.734 223.815 141.222C223.815 141.71 224.215 142.102 224.697 142.095C225.185 142.095 225.578 141.703 225.57 141.215C225.57 140.726 225.178 140.335 224.689 140.342Z" fill="#111111"></path><path d="M227.452 140.335C226.963 140.335 226.571 140.727 226.578 141.215C226.578 141.703 226.97 142.095 227.459 142.088C227.948 142.088 228.341 141.696 228.333 141.208C228.333 140.72 227.933 140.335 227.452 140.335Z" fill="#111111"></path><path d="M224.696 143.034C224.207 143.034 223.822 143.434 223.822 143.914C223.822 144.403 224.214 144.795 224.703 144.787C225.192 144.787 225.584 144.395 225.577 143.907C225.577 143.419 225.177 143.027 224.696 143.034Z" fill="#111111"></path><path d="M227.459 143.027C226.97 143.027 226.577 143.427 226.585 143.908C226.585 144.388 226.977 144.78 227.466 144.78C227.955 144.78 228.347 144.388 228.34 143.9C228.34 143.412 227.947 143.02 227.459 143.027Z" fill="#111111"></path><path d="M187.231 30.0503L186.372 29.7988C186.335 29.9172 182.855 41.7584 182.351 43.0158C181.744 44.5468 184.069 46.7804 184.343 47.0319L184.958 46.3737C184.054 45.5379 182.914 44.0365 183.188 43.3486C183.706 42.0543 187.091 30.5384 187.239 30.0503H187.231Z" fill="#111111"></path><path d="M159.779 115.646C159.698 115.587 159.602 115.55 159.505 115.55C158.883 115.55 144.257 115.668 143.361 123.619C142.931 127.45 146.353 128.227 146.39 128.234L146.575 127.362C146.464 127.339 143.909 126.733 144.25 123.723C145.012 116.977 157.75 116.489 159.342 116.452C160.002 117.029 163.149 120.084 161.831 124.299L162.69 124.566C164.326 119.314 159.831 115.683 159.787 115.646H159.779Z" fill="#111111"></path><path d="M163.193 93.3237C163.112 93.2645 163.015 93.2275 162.912 93.2275C162.29 93.2275 147.663 93.3459 146.767 101.297C146.338 105.128 149.759 105.905 149.796 105.912L149.981 105.039C149.87 105.017 147.315 104.411 147.656 101.4C148.419 94.655 161.156 94.1669 162.749 94.1299C163.4 94.7068 166.555 97.7614 165.237 101.977L166.096 102.243C167.74 96.9922 163.237 93.3607 163.193 93.3311V93.3237Z" fill="#111111"></path><path d="M161.259 134.255C160.704 134.203 147.714 133.123 146.596 140.845C146.389 142.28 146.7 143.508 147.514 144.506C149.329 146.703 152.987 146.91 153.135 146.917L153.18 146.022C153.18 146.022 149.766 145.83 148.203 143.937C147.551 143.145 147.307 142.154 147.477 140.978C148.41 134.536 159.474 135.039 161 135.135C161.637 135.875 164.562 139.588 162.266 143.293L163.029 143.767C165.91 139.122 161.585 134.447 161.541 134.396C161.467 134.314 161.363 134.27 161.259 134.255Z" fill="#111111"></path><path d="M231.948 156.521L231.528 157.312L264.07 174.534L264.489 173.743L231.948 156.521Z" fill="#111111"></path><defs><clipPath id="clip0_3899_14598"><rect width="170.26" height="109.97" fill="white" transform="matrix(-0.929576 -0.36863 -0.36863 0.929576 198.808 62.7627)"></rect></clipPath></defs></svg>