<?xml version="1.0" encoding="UTF-8"?>
<svg xmlns="http://www.w3.org/2000/svg" width="354" height="31" viewBox="0 0 354 31" fill="none">
  <path d="M24.0972 19.9696C39.598 21.1323 55.7165 24.6167 71.5527 25.9579C104.297 28.731 135.118 28.5188 167.794 26.2906C219.188 22.7859 274.339 21.0036 322.69 6.49597C329.015 4.59834 335.25 3.99457 341.983 3.50183C342.18 3.48743 351.655 2.65094 350.964 3.16915C342.646 9.40821 315.162 9.44915 305.061 10.1555C213.291 16.5725 120.525 12.4843 28.5323 12.4843C20.1782 12.4843 11.3251 10.6754 3.47397 12.8169C1.06929 13.4729 8.46896 13.6972 11.0136 13.8982C14.0104 14.1348 17.0952 13.9813 20.1056 13.9813" stroke="#8B75F3" stroke-width="6" stroke-linecap="round"></path>
</svg>
