<?xml version="1.0" encoding="UTF-8"?>
<svg xmlns="http://www.w3.org/2000/svg" width="50" height="36" viewBox="0 0 50 36" fill="none">
  <path d="M41.5848 1.3846C41.1062 2.52111 40.6674 3.73879 40.2685 5.03765C39.9494 6.25533 39.75 7.47301 39.6702 8.69069C39.6702 9.82719 39.8697 10.8825 40.2685 11.8567C40.6674 12.7496 41.3854 13.4802 42.4225 14.0485C44.4967 15.185 46.2517 16.6462 47.6877 18.4321C49.2035 20.1369 49.9613 22.2475 49.9613 24.7641C49.9613 26.3065 49.6821 27.7677 49.1237 29.1477C48.5653 30.5278 47.7675 31.7454 46.7304 32.8008C45.7731 33.7749 44.6163 34.5461 43.2601 35.1144C41.9039 35.6826 40.468 35.9667 38.9522 35.9667C35.9207 35.9667 33.3679 34.8708 31.2937 32.679C29.2195 30.4872 28.1027 27.8489 27.9431 24.7641C27.7038 21.5169 28.1027 18.5133 29.1398 15.7532C30.2566 12.912 31.533 10.436 32.969 8.32538C34.4848 6.21474 35.9606 4.50998 37.3966 3.21112C38.8326 1.83109 39.8298 0.93812 40.3882 0.532227C40.5478 0.613405 40.7472 0.735173 40.9865 0.897531L41.3455 1.26284C41.4253 1.34401 41.5051 1.3846 41.5848 1.3846ZM14.0621 1.3846C13.5834 2.52111 13.1446 3.73879 12.7458 5.03765C12.4267 6.25533 12.2272 7.47301 12.1474 8.69069C12.1474 9.82719 12.3469 10.8825 12.7458 11.8567C13.1446 12.7496 13.8626 13.4802 14.8997 14.0485C16.9739 15.185 18.729 16.6462 20.1649 18.4321C21.6807 20.1369 22.4386 22.2475 22.4386 24.7641C22.4386 26.3065 22.1593 27.7677 21.6009 29.1477C21.0425 30.5278 20.2447 31.7454 19.2076 32.8008C18.2503 33.7749 17.0936 34.5461 15.7374 35.1144C14.3812 35.6826 12.9452 35.9667 11.4295 35.9667C8.39796 35.9667 5.84512 34.8708 3.77094 32.679C1.69676 30.4872 0.579891 27.8489 0.420338 24.7641C0.18101 21.5169 0.579891 18.5133 1.61698 15.7532C2.73385 12.912 4.01027 10.436 5.44624 8.32538C6.96198 6.21474 8.43784 4.50998 9.87381 3.21112C11.3098 1.83109 12.307 0.93812 12.8654 0.532227C13.025 0.613405 13.2244 0.735173 13.4637 0.897531L13.8227 1.26284C13.9025 1.34401 13.9823 1.3846 14.0621 1.3846Z" fill="#C2B5FF"></path>
</svg>
