<?xml version="1.0" encoding="UTF-8"?>
<svg xmlns="http://www.w3.org/2000/svg" width="50" height="36" viewBox="0 0 50 36" fill="none">
  <path d="M41.266 1.27035C40.7873 2.40685 40.3486 3.62453 39.9497 4.92339C39.6306 6.14107 39.4311 7.35875 39.3514 8.57643C39.3514 9.71293 39.5508 10.7683 39.9497 11.7424C40.3486 12.6354 41.0666 13.366 42.1036 13.9342C44.1778 15.0707 45.9329 16.5319 47.3689 18.3179C48.8846 20.0226 49.6425 22.1333 49.6425 24.6498C49.6425 26.1922 49.3633 27.6534 48.8048 29.0335C48.2464 30.4135 47.4486 31.6312 46.4116 32.6865C45.4542 33.6607 44.2975 34.4319 42.9413 35.0001C41.5851 35.5684 40.1491 35.8525 38.6334 35.8525C35.6019 35.8525 33.049 34.7566 30.9749 32.5647C28.9007 30.3729 27.7838 27.7346 27.6243 24.6498C27.3849 21.4027 27.7838 18.3991 28.8209 15.639C29.9378 12.7977 31.2142 10.3218 32.6502 8.21113C34.1659 6.10048 35.6418 4.39573 37.0777 3.09687C38.5137 1.71683 39.5109 0.823862 40.0694 0.417969C40.2289 0.499147 40.4283 0.620916 40.6677 0.783273L41.0267 1.14858C41.1064 1.22976 41.1862 1.27035 41.266 1.27035ZM13.7432 1.27035C13.2646 2.40685 12.8258 3.62453 12.4269 4.92339C12.1078 6.14107 11.9084 7.35875 11.8286 8.57643C11.8286 9.71293 12.028 10.7683 12.4269 11.7424C12.8258 12.6354 13.5438 13.366 14.5809 13.9342C16.655 15.0707 18.4101 16.5319 19.8461 18.3179C21.3618 20.0226 22.1197 22.1333 22.1197 24.6498C22.1197 26.1922 21.8405 27.6534 21.2821 29.0335C20.7236 30.4135 19.9259 31.6312 18.8888 32.6865C17.9315 33.6607 16.7747 34.4319 15.4185 35.0001C14.0623 35.5684 12.6263 35.8525 11.1106 35.8525C8.07911 35.8525 5.52627 34.7566 3.45209 32.5647C1.37791 30.3729 0.261043 27.7346 0.101491 24.6498C-0.137838 21.4027 0.261043 18.3991 1.29813 15.639C2.415 12.7977 3.69142 10.3218 5.12739 8.21113C6.64314 6.10048 8.119 4.39573 9.55497 3.09687C10.9909 1.71683 11.9881 0.823862 12.5466 0.417969C12.7061 0.499147 12.9056 0.620916 13.1449 0.783273L13.5039 1.14858C13.5837 1.22976 13.6634 1.27035 13.7432 1.27035Z" fill="#D7FF65"></path>
</svg>
