<?xml version="1.0" encoding="UTF-8"?>
<svg xmlns="http://www.w3.org/2000/svg" width="50" height="36" viewBox="0 0 50 36" fill="none">
  <path d="M41.5172 1.26937C41.0386 2.40587 40.5998 3.62355 40.2009 4.92241C39.8818 6.14009 39.6824 7.35777 39.6026 8.57545C39.6026 9.71195 39.802 10.7673 40.2009 11.7414C40.5998 12.6344 41.3178 13.365 42.3549 13.9332C44.429 15.0698 46.1841 16.531 47.6201 18.3169C49.1358 20.0217 49.8937 22.1323 49.8937 24.6488C49.8937 26.1912 49.6145 27.6525 49.0561 29.0325C48.4976 30.4125 47.6999 31.6302 46.6628 32.6855C45.7055 33.6597 44.5487 34.4309 43.1925 34.9991C41.8363 35.5674 40.4003 35.8515 38.8846 35.8515C35.8531 35.8515 33.3003 34.7556 31.2261 32.5638C29.1519 30.3719 28.035 27.7336 27.8755 24.6488C27.6362 21.4017 28.035 18.3981 29.0721 15.638C30.189 12.7967 31.4654 10.3208 32.9014 8.21015C34.4171 6.0995 35.893 4.39475 37.329 3.09589C38.7649 1.71585 39.7621 0.822886 40.3206 0.416992C40.4801 0.498171 40.6796 0.619939 40.9189 0.782296L41.2779 1.1476C41.3577 1.22878 41.4374 1.26937 41.5172 1.26937ZM13.9944 1.26937C13.5158 2.40587 13.077 3.62355 12.6781 4.92241C12.359 6.14009 12.1596 7.35777 12.0798 8.57545C12.0798 9.71195 12.2792 10.7673 12.6781 11.7414C13.077 12.6344 13.795 13.365 14.8321 13.9332C16.9063 15.0698 18.6613 16.531 20.0973 18.3169C21.6131 20.0217 22.3709 22.1323 22.3709 24.6488C22.3709 26.1912 22.0917 27.6525 21.5333 29.0325C20.9749 30.4125 20.1771 31.6302 19.14 32.6855C18.1827 33.6597 17.0259 34.4309 15.6697 34.9991C14.3135 35.5674 12.8776 35.8515 11.3618 35.8515C8.33033 35.8515 5.77749 34.7556 3.70331 32.5638C1.62913 30.3719 0.512264 27.7336 0.352712 24.6488C0.113383 21.4017 0.512264 18.3981 1.54935 15.638C2.66622 12.7967 3.94264 10.3208 5.37861 8.21015C6.89436 6.0995 8.37022 4.39475 9.80619 3.09589C11.2422 1.71585 12.2394 0.822886 12.7978 0.416992C12.9573 0.498171 13.1568 0.619939 13.3961 0.782296L13.7551 1.1476C13.8349 1.22878 13.9147 1.26937 13.9944 1.26937Z" fill="#B5FDEA"></path>
</svg>
