<svg xmlns="http://www.w3.org/2000/svg" width="110" height="106" viewBox="0 0 110 106" fill="none"><path d="M95.9118 14.9235L13.279 68.1227C9.65364 70.5843 6.15696 76.7103 5.46519 81.9067L4.54084 90.1242C3.86453 95.2244 7.59865 98.6414 11.1901 101.335L94.9232 41.0733C98.5486 38.6116 103.074 31.346 103.766 26.1496L104.068 19.2632C101.62 14.4634 98.4068 14.424 95.9118 14.9235Z" fill="#D7FF65"></path><path d="M12.3889 102.868C9.34013 102.83 4.03782 96.704 4.63273 92.1142L5.46432 82.9537C6.16667 77.6948 9.74747 71.3219 13.4789 68.8776L95.5121 15.1566C96.3132 14.5917 97.1238 14.4101 97.9747 14.4206C101.165 14.4597 104.882 17.2826 104.348 21.49L104.333 21.5856L102.466 28.7865C101.764 34.0454 98.1983 40.3227 94.4515 42.8626L14.4107 102.222C13.6958 102.692 13.0979 102.876 12.3889 102.868ZM97.8212 15.3764C97.1122 15.3677 96.4433 15.5511 95.7285 16.0212L13.6397 69.6457C10.1363 71.9971 6.75874 77.9894 6.11778 82.8659L5.28619 92.0265C5.86223 97.2138 9.86346 101.783 12.4868 101.815C13.054 101.822 13.581 101.637 14.1387 101.261L94.2505 41.9024C97.7539 39.5511 101.131 33.5588 101.772 28.6823L101.788 28.5867L103.654 21.3857C104.081 17.8474 100.586 15.4103 97.8212 15.3764Z" fill="#0A0A0A"></path><path d="M100.154 21.4384L20.1922 74.1125C16.8041 76.3617 13.5509 81.9604 12.9229 86.7103L11.494 97.7056C10.88 102.368 13.1736 104.422 16.6289 102.174L96.6574 49.5005C100.046 47.2513 103.299 41.6526 103.927 36.9028L105.356 25.9074C105.917 21.1567 103.609 19.1901 100.154 21.4384Z" fill="white"></path><path d="M13.9325 103.545C11.7845 103.519 10.7419 101.216 11.1581 97.7849L12.5868 86.7903C13.2289 81.9528 16.591 76.0916 20.1128 73.8442L100.127 21.1747C101.113 20.482 102.042 20.141 102.915 20.1517C105.062 20.1781 106.105 22.4814 105.689 25.9121L104.26 36.9067C103.618 41.7441 100.256 47.6054 96.7343 49.8527L16.7055 102.61C15.7341 103.215 14.8051 103.556 13.9325 103.545ZM102.72 20.9422C101.982 20.9332 101.201 21.1879 100.297 21.7935L20.2683 74.5509C16.9621 76.7128 13.7907 82.224 13.2051 86.7098L11.7764 97.7044C11.4307 100.695 12.2613 102.644 14.0065 102.665C14.7448 102.674 15.5255 102.42 16.4298 101.814L96.5257 49.0573C99.832 46.8954 103.003 41.3842 103.589 36.8984L105.018 25.9038C105.363 22.9128 104.466 20.9636 102.72 20.9422Z" fill="#0A0A0A"></path><path d="M96.8632 41.635C96.8632 41.635 96.8768 41.5481 96.955 41.462C97.7442 39.7303 98.2099 37.9944 98.2331 36.6012C98.2661 33.9018 96.72 33.0111 94.6914 34.3785C94.4702 34.5499 94.249 34.7212 94.0278 34.8926C91.6965 36.9529 89.7644 41.0214 89.6907 43.9816C89.6538 45.4617 90.0866 46.4252 90.8868 46.6968C91.493 46.9658 92.2964 46.8019 93.1677 46.2035C93.3889 46.0321 93.6101 45.8608 93.8314 45.6894C94.2738 45.3467 94.6652 44.9163 95.0701 44.3989C95.3049 44.1407 95.6419 44.0579 95.8599 44.322L97.0147 45.6432C97.3996 46.0836 98.0736 45.918 98.441 45.226C98.7948 44.6209 98.7741 43.9239 98.4539 43.4843L96.8632 41.635ZM93.9193 44.2971C93.7628 44.4693 93.6198 44.5545 93.3986 44.7259C92.7485 45.153 92.2038 45.3202 91.7135 45.1397C91.172 44.8715 90.8279 44.1703 90.8615 43.1257C90.8776 40.9486 92.3369 37.832 93.9909 36.3727C94.1475 36.2005 94.2904 36.1152 94.4981 36.0308C95.9548 35.0044 97.0888 35.6286 97.0351 37.631C97.0015 38.6757 96.6684 39.9778 96.0766 41.2765C95.563 42.4892 94.7395 43.6109 93.9193 44.2971Z" fill="#8B75F3"></path><path d="M91.4561 47.3197C91.1966 47.3164 91.002 47.3139 90.821 47.2244C89.9023 46.8641 89.4169 45.8121 89.4161 44.1562C89.4521 41.0193 91.4817 36.7749 93.963 34.6279C94.1848 34.4564 94.4203 34.198 94.6934 34.1143C95.4103 33.6877 96.035 33.4343 96.6189 33.4417C97.9164 33.4583 98.699 34.6884 98.6589 36.6052C98.6221 38.0863 98.22 39.8241 97.3638 41.5562L98.8704 43.1441C99.3726 43.6735 99.339 44.7188 98.8921 45.4975C98.5509 46.016 98.1072 46.3589 97.653 46.3531C97.3935 46.3498 97.1476 46.2595 96.9938 45.9961L95.8357 44.674C95.7844 44.5862 95.6683 44.4976 95.4977 44.7569C95.0916 45.2746 94.6343 45.7045 94.2418 46.1352C94.0199 46.3067 93.7845 46.5651 93.5113 46.6488C92.6647 47.0737 92.04 47.3271 91.4561 47.3197ZM96.4451 34.1367C95.991 34.1309 95.4447 34.2982 94.8576 34.7265C94.6358 34.8979 94.4139 35.0694 94.192 35.2409C91.9326 37.2164 90.0872 41.1146 90.0408 43.9028C90.0312 45.2099 90.4277 45.9993 91.1005 46.2693C91.6571 46.4508 92.398 46.2859 93.1933 45.7732C93.4152 45.6017 93.6371 45.4303 93.8589 45.2588C94.2378 44.9151 94.6302 44.4843 95.0227 44.0536C95.3503 43.622 95.9478 43.5425 96.2826 43.8954L97.4408 45.2174C97.7243 45.4825 98.1272 45.4005 98.3899 44.9681C98.639 44.6227 98.5909 44.0992 98.3722 43.835L96.7119 41.9836C96.5957 41.895 96.5717 41.6332 96.6638 41.4601L96.7559 41.287C97.5336 39.6411 97.987 37.991 98.0102 36.5969C97.9821 35.115 97.4183 34.1491 96.4451 34.1367ZM92.1177 45.5851C91.923 45.5827 91.7933 45.581 91.6123 45.4915C90.9395 45.2215 90.5566 44.3451 90.5526 43.1249C90.5958 40.7725 92.0728 37.5668 93.8885 35.9342C94.0455 35.7619 94.1889 35.6766 94.4107 35.5051C94.9193 35.163 95.4007 34.9949 95.8548 35.0007C96.828 35.0131 97.3918 35.979 97.4199 37.4609C97.4375 38.594 97.025 39.9832 96.4179 41.3698C95.8108 42.7564 94.9851 43.8788 94.084 44.6516C93.927 44.8239 93.7052 44.9954 93.5618 45.0807C93.0532 45.4228 92.5718 45.591 92.1177 45.5851ZM95.7835 35.8712C95.4592 35.8671 95.1075 36.0369 94.6774 36.2929C94.5341 36.3782 94.3907 36.4635 94.2337 36.6358C92.6398 38.0969 91.2823 40.9555 91.215 43.0463C91.2086 43.9177 91.4377 44.5307 91.9294 44.7112C92.2915 44.8902 92.8377 44.7229 93.3463 44.3808C93.4897 44.2954 93.6467 44.1231 93.79 44.0378C94.5477 43.3503 95.295 42.3141 95.8749 41.1014C96.4548 39.8887 96.7751 38.6727 96.7951 37.7143C96.7911 36.4942 96.4323 35.8795 95.7835 35.8712Z" fill="#0A0A0A"></path><path d="M23.8165 75.4335L23.2391 76.0959L22.1524 90.4883L22.7298 89.8259L23.8165 75.4335Z" fill="white"></path><path d="M22.0264 90.9251C21.981 90.924 21.9356 90.9229 21.9445 90.8381C21.8627 90.7512 21.8262 90.6654 21.844 90.4959L23.0412 76.0806C23.059 75.9111 23.1222 75.7427 23.2219 75.6601L23.8743 75.0809C23.974 74.9983 24.0194 74.9994 24.1013 75.0863C24.1831 75.1732 24.2196 75.259 24.2018 75.4285L23.0046 89.8438C22.9868 90.0133 22.9236 90.1818 22.8239 90.2644L22.1715 90.8436C22.1261 90.8425 22.0718 90.9261 22.0264 90.9251ZM23.4772 76.2609L22.3781 89.744L22.5321 89.5777L23.6312 76.0946L23.4772 76.2609Z" fill="#8B75F3"></path><path d="M81.9398 53.0106L24.0586 89.8369L24.3157 90.5304L82.197 53.704L81.9398 53.0106Z" fill="#0A0A0A"></path><path d="M55.933 45.8733L52.955 44.0591C51.7897 43.4112 51.7897 40.4307 53.6672 37.2559C55.4798 34.081 58.0694 32.6556 59.2347 33.3035L62.1479 35.1177L55.933 45.8733Z" fill="#8B75F3"></path><path d="M55.9338 46.1969C55.8691 46.1969 55.8043 46.1969 55.7396 46.1321L52.8263 44.3179C51.5316 43.5404 51.4668 40.4952 53.409 37.1259C54.898 34.599 57.0344 32.8496 58.5881 32.8496C58.9118 32.8496 59.1707 32.9144 59.4297 33.044L62.3429 34.923C62.4724 34.9878 62.5372 35.1821 62.4724 35.3765L56.1928 46.0673C56.128 46.1321 56.0633 46.1969 55.9985 46.1969C55.9338 46.1969 55.9338 46.1969 55.9338 46.1969ZM58.5881 33.4975C57.4228 33.4975 55.4806 34.8582 53.9916 37.4499C52.179 40.5599 52.3084 43.2812 53.15 43.7996L55.8043 45.4842L61.7603 35.3765L59.106 33.6919C58.9118 33.5623 58.7823 33.4975 58.5881 33.4975Z" fill="#0A0A0A"></path><path d="M61.4362 41.9853C63.2489 38.8105 63.3137 35.8948 62.1484 35.2469C60.9831 34.5989 58.4582 36.0244 56.5808 39.1992C54.7681 42.3741 54.7034 45.2897 55.8687 45.9377C57.034 46.5856 59.6235 45.0954 61.4362 41.9853Z" fill="white"></path><path d="M56.5805 46.3912C56.2569 46.3912 55.9979 46.3264 55.7389 46.1968C54.4442 45.4193 54.3794 42.3741 56.3216 39.0048C57.8106 36.4779 59.8822 34.7285 61.5007 34.7285C61.8244 34.7285 62.0833 34.7933 62.3423 34.9229C63.0544 35.3117 63.3781 36.3483 63.2486 37.709C63.1192 39.0696 62.6013 40.6894 61.7596 42.1797C60.2707 44.6418 58.1343 46.3912 56.5805 46.3912ZM61.5007 35.3764C60.3354 35.3764 58.3932 36.7371 56.9042 39.3288C55.0916 42.4389 55.221 45.1602 56.0626 45.6785C56.1921 45.7433 56.3863 45.8081 56.5805 45.8081C57.7458 45.8081 59.688 44.4474 61.177 41.8557C62.0186 40.4303 62.5365 38.94 62.6013 37.709C62.666 36.6723 62.4718 35.83 62.0186 35.5708C61.8891 35.3764 61.6949 35.3764 61.5007 35.3764Z" fill="#0A0A0A"></path><path d="M52.8247 15.1611L57.0975 36.154L40.2007 28.3789C40.2007 28.4436 44.7971 20.6685 52.8247 15.1611Z" fill="#8B75F3"></path><path d="M57.097 36.4777C57.0322 36.4777 57.0322 36.4777 56.9675 36.4777L40.0707 28.7026C40.0059 28.6378 39.9412 28.573 39.8765 28.5082C39.8765 28.4434 39.8765 28.3138 39.8765 28.249C39.9412 28.1842 44.6671 20.3443 52.63 14.9017C52.6948 14.8369 52.8242 14.8369 52.9537 14.8369C53.0832 14.9017 53.1479 14.9665 53.1479 15.0961L57.3559 36.0241C57.3559 36.0889 57.4207 36.0889 57.4207 36.1537C57.4207 36.3481 57.2912 36.4777 57.097 36.4777ZM40.6533 28.249L56.6438 35.6354L52.63 15.744C45.8972 20.4739 41.5597 26.8236 40.6533 28.249Z" fill="#111111"></path><path d="M54.767 39.6532L52.8896 38.6813L36.9639 26.8242L54.767 39.6532Z" fill="#0A0A0A"></path><path d="M54.767 39.9769C54.7022 39.9769 54.6375 39.9769 54.6375 39.9121L52.7601 39.005L36.7696 27.0831C36.6401 26.9535 36.5754 26.7592 36.7049 26.6296C36.8343 26.5 37.0285 26.4352 37.158 26.5648L54.9612 39.3937C55.0907 39.4585 55.1554 39.5881 55.1554 39.7177C55.0907 39.8473 54.9612 39.9769 54.767 39.9769Z" fill="#0A0A0A"></path><path d="M57.0976 36.1544C57.0976 36.1544 55.7381 37.5798 54.767 39.6532L36.9639 26.8242L57.0976 36.1544Z" fill="white"></path><path d="M54.767 39.9769C54.7022 39.9769 54.6375 39.9769 54.5728 39.9121L36.7696 27.0832C36.6401 26.9536 36.5754 26.824 36.7049 26.6296C36.7696 26.5 36.9638 26.4352 37.0933 26.5L57.2271 35.8302C57.2918 35.895 57.4213 35.9598 57.4213 36.0894C57.4213 36.2189 57.4213 36.2837 57.3565 36.3485C57.3565 36.3485 55.997 37.774 55.0907 39.7825C55.0259 39.8473 54.9612 39.9121 54.8965 39.9769C54.8317 39.9769 54.8317 39.9769 54.767 39.9769ZM39.8771 28.5734L54.6375 39.1994C55.3496 37.8388 56.1265 36.8021 56.5797 36.2837L39.8771 28.5734Z" fill="#0A0A0A"></path><path d="M77.6849 10.2363C80.6629 15.0958 84.353 22.547 85.4536 31.1644L78.0086 27.212C77.0375 19.3721 75.1601 13.6703 72.1821 10.3011H77.6849V10.2363Z" fill="#8B75F3"></path><path d="M85.5182 31.4884C85.4535 31.4884 85.3888 31.4884 85.3888 31.4236L77.8791 27.4065C77.8143 27.3417 77.7496 27.2769 77.6849 27.1473C76.649 19.0482 74.7716 13.6056 71.9231 10.366C71.8584 10.3012 71.7936 10.1068 71.8584 10.042C71.9231 9.91245 72.0526 9.84766 72.1821 9.84766H77.7496C77.8791 9.84766 77.9438 9.91245 78.0085 9.97724C80.9218 14.7071 84.6766 22.2231 85.8419 30.9701C85.8419 31.0349 85.8419 31.0349 85.8419 31.0997C85.8419 31.3589 85.6477 31.5532 85.5182 31.4884ZM78.2675 26.9529L85.0651 30.5813C83.835 22.2879 80.3391 15.1607 77.4906 10.5604H72.8294C75.4837 13.9296 77.2964 19.3074 78.2675 26.9529Z" fill="#0A0A0A"></path><path d="M45.1216 3.69272C48.747 1.55456 52.5018 0.712254 55.8035 0.38829C62.3421 -0.259637 73.3477 4.14627 73.3477 4.14627C73.3477 4.14627 64.8669 2.39687 50.8834 11.5974C35.9934 21.3811 22.0099 47.8814 24.2757 66.6713L16.7013 62.5893C14.1117 40.4302 26.93 14.2539 45.1216 3.69272Z" fill="#F1F0F0"></path><path d="M24.276 66.9957C24.2113 66.9957 24.1466 66.9957 24.1466 66.9309L16.5721 62.849C16.5074 62.7842 16.4427 62.7194 16.3779 62.5898C13.7884 40.6251 26.6066 14.06 44.9925 3.43402C48.1647 1.61982 51.79 0.453549 55.8038 0.0647928C56.257 0 56.7749 0 57.2281 0C63.8315 0 73.3481 3.75798 73.4775 3.82277C73.607 3.88757 73.7365 4.08194 73.6718 4.21153C73.607 4.34111 73.4775 4.4707 73.2833 4.40591C73.2833 4.40591 72.6359 4.27632 71.4706 4.27632C68.1042 4.27632 61.0477 5.24821 51.0779 11.7923C36.9649 21.1224 22.3339 47.0395 24.5997 66.5422C24.5997 66.607 24.5997 66.607 24.5997 66.6718C24.5997 66.8661 24.4703 66.9957 24.276 66.9957ZM17.0253 62.3954L23.8876 66.0886C21.9454 46.4564 36.5764 20.6041 50.7542 11.2739C60.5298 4.85946 67.651 3.69319 71.2117 3.69319C68.0395 2.59171 61.8893 0.647928 57.2281 0.647928C56.7102 0.647928 56.257 0.647928 55.8686 0.71272C51.9843 1.10148 48.4236 2.20295 45.3162 4.01715C27.1893 14.5136 14.5005 40.6899 17.0253 62.3954Z" fill="#0A0A0A"></path><path d="M16.894 49.3071L25.0511 53.2595C25.3748 51.5749 25.828 49.8255 26.3459 48.0761L17.9946 44.0589C17.9299 43.9941 17.8651 43.9941 17.8004 43.9941C17.412 45.7435 17.0883 47.5577 16.894 49.3071Z" fill="#0A0A0A"></path><path d="M18.2544 42.1148L26.7999 46.2615H26.8647C27.2531 45.0304 27.7063 43.7994 28.1594 42.5683L19.355 38.292C18.9018 39.5878 18.5781 40.8837 18.2544 42.1148Z" fill="#0A0A0A"></path><path d="M24.728 55.0731C24.21 58.5719 23.8216 62.7187 24.2748 66.671L16.7003 62.5891C16.2472 59.0255 16.3119 54.9435 16.7003 51.1855L24.728 55.0731Z" fill="#0A0A0A"></path><path d="M24.2749 66.9955C24.2102 66.9955 24.1454 66.9955 24.1454 66.9307L16.571 62.8487C16.5063 62.7839 16.4415 62.7191 16.3768 62.5896C15.9883 59.2851 15.9883 55.268 16.3768 51.1212C16.3768 50.9917 16.4415 50.9269 16.571 50.8621C16.6357 50.7973 16.7652 50.7973 16.8947 50.8621L24.9223 54.7496C25.0518 54.8144 25.1165 54.944 25.1165 55.0736C24.4044 59.4795 24.2749 63.2375 24.6633 66.4771C24.6633 66.5419 24.6633 66.5419 24.6633 66.6067C24.5986 66.8659 24.4691 66.9955 24.2749 66.9955ZM17.0242 62.3952L23.8865 66.0884C23.5628 62.9783 23.757 59.4147 24.4044 55.268L17.0242 51.7044C16.6357 55.5272 16.7005 59.2851 17.0242 62.3952Z" fill="#0A0A0A"></path><path d="M54.5084 12.1807L51.7246 13.8005V20.215L54.5084 18.5304V12.1807Z" fill="white"></path><path d="M51.7241 20.5394C51.6593 20.5394 51.5946 20.5394 51.5946 20.4746C51.4651 20.4098 51.4004 20.2802 51.4004 20.2155V13.801C51.4004 13.6714 51.4651 13.6066 51.5299 13.5418L54.3136 11.8572C54.4431 11.7924 54.5079 11.7924 54.6373 11.8572C54.7668 11.922 54.8315 12.0516 54.8315 12.1164L54.7668 18.5308C54.7668 18.6604 54.7021 18.7252 54.6373 18.79L51.9183 20.4746C51.8536 20.5394 51.7888 20.5394 51.7241 20.5394ZM52.0478 13.9954V19.6323L54.1194 18.3365V12.6995L52.0478 13.9954Z" fill="#0A0A0A"></path><path d="M49.9771 12.1816L51.725 13.8015V20.2159L49.9771 19.0497V12.1816Z" fill="#0A0A0A"></path><path d="M51.7245 20.5395C51.6597 20.5395 51.595 20.5395 51.5303 20.4747L49.7823 19.2436C49.7176 19.1788 49.6528 19.114 49.6528 18.9845V12.1164C49.6528 11.9868 49.7176 11.8573 49.8471 11.7925C49.9765 11.7277 50.106 11.7925 50.1707 11.8573L51.9187 13.5419C51.9834 13.6067 52.0482 13.6715 52.0482 13.801V20.2155C52.0482 20.3451 51.9834 20.4747 51.854 20.4747C51.854 20.5395 51.7892 20.5395 51.7245 20.5395ZM50.3002 18.8549L51.4008 19.6324V13.9954L50.3002 12.9587V18.8549Z" fill="#0A0A0A"></path><path d="M51.7251 17.3003V13.8663L54.5089 12.1816V15.4213C53.473 16.0044 52.5667 16.458 51.7251 17.3003Z" fill="#BDB6B6"></path><path d="M80.014 20.0211L79.2372 17.1055L74.5112 20.0211V23.2608L80.014 20.0211Z" fill="white"></path><path d="M74.5112 23.5849C74.4465 23.5849 74.3817 23.5849 74.3817 23.5201C74.2522 23.4553 74.1875 23.3257 74.1875 23.2609V20.0213C74.1875 19.8917 74.2522 19.8269 74.317 19.7621L79.0429 16.8464C79.1076 16.7817 79.2371 16.7817 79.3019 16.8464C79.3666 16.9112 79.4961 16.976 79.4961 17.0408L80.2729 19.9565C80.3377 20.0861 80.2729 20.2157 80.1435 20.3453L74.6407 23.6497C74.6407 23.5849 74.5759 23.5849 74.5112 23.5849ZM74.8349 20.2157V22.7426L79.6256 19.8917L79.0429 17.624L74.8349 20.2157Z" fill="#0A0A0A"></path><path d="M77.7483 16.1982L79.2373 17.1053L74.5113 20.021L72.8281 19.1787L77.7483 16.1982Z" fill="#0A0A0A"></path><path d="M74.5113 20.3451C74.4466 20.3451 74.4466 20.3451 74.3818 20.2803L72.6986 19.5028C72.5691 19.438 72.5044 19.3732 72.5044 19.2436C72.5044 19.1141 72.5691 18.9845 72.6339 18.9197L77.554 15.9392C77.6835 15.8744 77.813 15.8744 77.8777 15.9392L79.3667 16.8463C79.4314 16.9111 79.4962 17.0407 79.4962 17.1055C79.4962 17.2351 79.4314 17.2999 79.3667 17.3647L74.6408 20.2803C74.6408 20.3451 74.576 20.3451 74.5113 20.3451ZM73.5402 19.1789L74.5113 19.6324L78.6546 17.1055L77.813 16.5871L73.5402 19.1789Z" fill="#0A0A0A"></path><path d="M72.8276 19.1787V22.224L74.5108 23.2607V20.021C74.5108 20.021 72.9571 19.3083 72.8276 19.1787Z" fill="#D7FF65"></path><path d="M74.5108 23.5848C74.4461 23.5848 74.3813 23.5848 74.3166 23.52L72.6334 22.4834C72.5686 22.4186 72.5039 22.289 72.5039 22.2242V19.1789C72.5039 19.0493 72.5686 18.9198 72.6981 18.855C72.8276 18.7902 72.9571 18.855 73.0218 18.9198C73.1513 18.9845 73.9282 19.3733 74.5755 19.6325C74.705 19.6973 74.7698 19.8269 74.7698 19.9564V23.1961C74.7698 23.3257 74.705 23.3905 74.5755 23.4552C74.6403 23.5848 74.5755 23.5848 74.5108 23.5848ZM73.1513 22.0946L74.1871 22.7425V20.2804C73.7339 20.086 73.4102 19.8916 73.1513 19.8269V22.0946Z" fill="#0A0A0A"></path><path d="M34.5682 48.3998V45.1602L29.0654 48.3998V51.7042L34.5682 48.3998Z" fill="white"></path><path d="M29.0654 52.028C29.0007 52.028 28.9359 52.028 28.9359 51.9632C28.8064 51.8984 28.7417 51.7688 28.7417 51.704V48.4644C28.7417 48.3348 28.8064 48.27 28.8712 48.2052L34.374 44.9656C34.5035 44.9008 34.5682 44.9008 34.6977 44.9656C34.8271 45.0304 34.8919 45.16 34.8919 45.2248V48.4644C34.8919 48.594 34.8271 48.6588 34.7624 48.7236L29.2596 52.028C29.1949 51.9632 29.1301 52.028 29.0654 52.028ZM29.3891 48.594V51.1209L34.2445 48.2052V45.6783L29.3891 48.594Z" fill="#0A0A0A"></path><path d="M33.0793 44.2529L34.5683 45.16L29.0655 48.3997L27.3823 47.6222L33.0793 44.2529Z" fill="#0A0A0A"></path><path d="M29.065 48.7238C29.0003 48.7238 29.0003 48.7238 28.9355 48.659L27.2523 47.8815C27.1228 47.8167 27.0581 47.7519 27.0581 47.6223C27.0581 47.4927 27.1228 47.3631 27.1876 47.2983L32.8846 43.9939C33.0141 43.9291 33.1436 43.9291 33.2083 43.9939L34.6973 44.901C34.8268 44.9658 34.8268 45.0954 34.8268 45.1602C34.8268 45.2898 34.762 45.3546 34.6973 45.4193L29.1945 48.659C29.1945 48.7238 29.1297 48.7238 29.065 48.7238ZM28.0939 47.5575L29.065 48.0111L33.9204 45.0954L33.0788 44.577L28.0939 47.5575Z" fill="#0A0A0A"></path><path d="M30.8779 47.2983L34.568 45.1602V48.3998L31.1369 50.4084L30.8779 47.2983Z" fill="#BDB6B6"></path><path d="M27.3823 47.6221V50.6673L29.0655 51.704V48.4644C29.0655 48.3996 27.5118 47.7517 27.3823 47.6221Z" fill="#D7FF65"></path><path d="M29.065 52.0282C29.0003 52.0282 28.9355 52.0282 28.8708 51.9634L27.1876 50.9267C27.1228 50.8619 27.0581 50.7323 27.0581 50.6675V47.6223C27.0581 47.4927 27.1228 47.3631 27.2523 47.2983C27.3818 47.2335 27.5113 47.2983 27.576 47.3631C27.7055 47.4279 28.4824 47.8167 29.1297 48.0758C29.2592 48.1406 29.324 48.2702 29.324 48.3998V51.6394C29.324 51.769 29.2592 51.8338 29.1297 51.8986C29.1945 51.9634 29.1297 52.0282 29.065 52.0282ZM27.7055 50.4732L28.7413 51.1211V48.5942C28.2881 48.3998 27.9644 48.2054 27.7055 48.1406V50.4732Z" fill="#0A0A0A"></path><path d="M29.2598 63.6909C27.0586 44.901 37.87 22.8067 53.0836 13.6061C70.1099 3.30407 83.0577 11.9863 85.5178 31.2297L90.5027 28.2493C87.5894 6.21974 70.5631 -3.04562 52.3068 7.5156C34.1152 18.012 21.6206 44.5123 24.2749 66.6714L29.2598 63.6909Z" fill="#D7FF65"></path><path d="M24.2748 66.9958C24.2101 66.9958 24.1453 66.9958 24.1453 66.931C24.0159 66.8662 23.9511 66.8014 23.9511 66.6718C21.2968 44.4479 33.9856 17.7533 52.1772 7.19204C57.2269 4.27637 62.2118 2.78613 67.0672 2.78613C79.4323 2.78613 88.7547 12.7642 90.8263 28.1849C90.8263 28.3145 90.7616 28.4441 90.6968 28.5089L85.7119 31.4893C85.6472 31.5541 85.5177 31.5541 85.3882 31.4893C85.2588 31.4245 85.194 31.3597 85.194 31.2302C83.4461 17.6237 76.5838 9.52458 66.7435 9.52458C62.5355 9.52458 58.0685 11.0148 53.2778 13.8657C37.8052 23.1959 27.3823 45.0958 29.5834 63.6265C29.5834 63.7561 29.5187 63.8857 29.4539 63.9505L24.469 66.931C24.4043 66.9958 24.3396 66.9958 24.2748 66.9958ZM67.0672 3.43406C62.3412 3.43406 57.4211 4.8595 52.5009 7.77518C34.633 18.142 22.2032 44.2535 24.5338 66.1534L28.936 63.4969C26.7996 44.7718 37.3521 22.7423 52.9541 13.2826C57.8095 10.3669 62.4707 8.87665 66.7435 8.87665C76.778 8.87665 83.8993 17.0405 85.7767 30.647L90.1789 27.9905C88.0425 12.829 79.2381 3.43406 67.0672 3.43406Z" fill="#0A0A0A"></path></svg>