<svg xmlns="http://www.w3.org/2000/svg" width="265" height="241" viewBox="0 0 265 241" fill="none"><g clip-path="url(#clip0_4151_3245)"><g style="mix-blend-mode:multiply" opacity="0.5"><path d="M103.737 192.295C46.5576 192.295 0.204437 165.796 0.204437 133.108C0.204437 100.42 46.5576 73.9209 103.737 73.9209C160.917 73.9209 207.27 100.42 207.27 133.108C207.27 165.796 160.917 192.295 103.737 192.295Z" fill="#0B0B0B"></path></g><path d="M103.87 174.928C103.87 174.928 97.4912 182.504 93.2042 189.295C87.4249 198.442 70.8013 195.715 66.4395 186.135C62.0776 176.555 71.8731 162.951 71.8731 162.951L103.876 174.928H103.87Z" fill="#FFEADC"></path><path d="M71.5849 162.758L71.7404 162.542L104.446 174.78L104.135 175.15C104.071 175.224 97.7273 182.789 93.4922 189.483C91.1759 193.149 86.8658 195.255 81.7952 195.255C81.3861 195.255 80.9655 195.244 80.5506 195.215C74.1605 194.788 68.3581 191.196 66.1167 186.278C64.2901 182.277 64.6646 176.932 67.1942 170.824C69.0899 166.242 71.5618 162.792 71.5849 162.758ZM66.7505 185.999C68.8882 190.695 74.4544 194.122 80.5967 194.532C85.9439 194.896 90.542 192.864 92.9102 189.119C96.6268 183.233 101.968 176.687 103.299 175.082L71.9997 163.373C70.7897 165.143 62.815 177.359 66.7505 186.005V185.999Z" fill="#0B0B0B"></path><path d="M116.327 179.465C61.5089 179.465 17.0699 154.062 17.0699 122.726C17.0699 91.3895 61.5089 65.9863 116.327 65.9863C171.145 65.9863 215.584 91.3895 215.584 122.726C215.584 154.062 171.145 179.465 116.327 179.465Z" fill="#D8C7FF"></path><path d="M116.327 65.6445C171.245 65.6445 215.93 91.2536 215.93 122.726C215.93 154.198 171.251 179.807 116.327 179.807C61.4032 179.807 16.7242 154.198 16.7242 122.726C16.7242 91.2536 61.4032 65.6445 116.327 65.6445ZM116.327 179.129C170.865 179.129 215.239 153.828 215.239 122.731C215.239 91.635 170.871 66.3333 116.327 66.3333C61.7835 66.3333 17.4156 91.635 17.4156 122.731C17.4156 153.828 61.7835 179.129 116.327 179.129Z" fill="#0B0B0B"></path><path d="M116.327 67.4258C170.007 67.4258 213.677 92.2323 213.677 122.725C213.677 153.218 170.007 178.025 116.327 178.025C62.6479 178.025 18.9772 153.218 18.9772 122.725C18.9772 92.2323 62.6479 67.4258 116.327 67.4258ZM116.327 177.347C169.626 177.347 212.986 152.848 212.986 122.731C212.986 92.6136 169.626 68.1145 116.327 68.1145C63.0282 68.1145 19.6687 92.6136 19.6687 122.731C19.6687 152.848 63.0282 177.347 116.327 177.347Z" fill="#0B0B0B"></path><path d="M116.327 174.343C64.4876 174.343 22.4632 151.233 22.4632 122.726C22.4632 94.2189 64.4876 71.1094 116.327 71.1094C168.167 71.1094 210.191 94.2189 210.191 122.726C210.191 151.233 168.167 174.343 116.327 174.343Z" fill="#8B75F3"></path><path d="M116.327 70.7676C168.272 70.7676 210.537 94.077 210.537 122.726C210.537 151.374 168.272 174.684 116.327 174.684C64.3822 174.684 22.1175 151.374 22.1175 122.726C22.1175 94.077 64.3822 70.7676 116.327 70.7676ZM116.327 174.007C167.892 174.007 209.846 151.004 209.846 122.731C209.846 94.4584 167.892 71.4563 116.327 71.4563C64.7625 71.4563 22.809 94.4584 22.809 122.731C22.809 151.004 64.7625 174.007 116.327 174.007Z" fill="#0B0B0B"></path><path d="M116.327 86.2324C152.766 86.2324 182.412 102.603 182.412 122.725C182.412 142.847 152.766 159.217 116.327 159.217C79.8879 159.217 50.2421 142.847 50.2421 122.725C50.2421 102.603 79.8879 86.2324 116.327 86.2324ZM116.327 158.534C152.386 158.534 181.721 142.471 181.721 122.725C181.721 102.979 152.386 86.9155 116.327 86.9155C80.2682 86.9155 50.9335 102.979 50.9335 122.725C50.9335 142.471 80.2682 158.534 116.327 158.534Z" fill="#D8C7FF"></path><path d="M176.835 150.554C188.647 144.116 195.417 153.833 196.512 159.058C197.607 164.284 196.149 173.636 186.342 177.023C176.529 180.41 167.875 177.063 165.12 172.366C165.12 172.366 168.238 171.393 172.467 169.469C172.467 169.469 166.601 156.127 176.84 150.548L176.835 150.554Z" fill="#FFEADC"></path><path d="M172.023 169.299C171.222 167.232 167.16 155.438 176.673 150.253C181.174 147.799 185.339 147.412 189.05 149.103C193.406 151.084 196.149 155.615 196.852 158.99C197.849 163.754 196.956 173.721 186.457 177.347C183.64 178.321 180.891 178.753 178.344 178.753C172.035 178.753 166.924 176.118 164.827 172.543L164.608 172.173L165.017 172.042C165.045 172.031 168.019 171.097 172.023 169.299ZM186.227 176.698C196.276 173.226 197.129 163.686 196.172 159.127C195.504 155.916 192.894 151.607 188.756 149.723C187.339 149.08 185.852 148.756 184.297 148.756C182.003 148.756 179.566 149.456 177.002 150.85C167.16 156.212 172.721 169.202 172.778 169.333L172.911 169.64L172.605 169.782C169.292 171.285 166.63 172.224 165.639 172.555C168.653 177.12 177.008 179.88 186.221 176.698H186.227Z" fill="#0B0B0B"></path><path d="M179.75 154.158C186.924 152.723 188.733 149.285 188.751 149.251L189.062 149.405L188.751 149.257L189.062 149.405L189.373 149.553C189.298 149.706 187.483 153.218 180.206 154.761C180.465 156.605 182.165 166.162 189.171 166.162C189.275 166.162 189.379 166.162 189.488 166.157C191.736 166.066 193.453 165.366 194.599 164.079C196.42 162.024 196.178 159.121 196.172 159.093L196.864 159.03C196.875 159.161 197.14 162.246 195.124 164.529C193.85 165.969 191.966 166.749 189.517 166.845C189.402 166.845 189.281 166.851 189.166 166.851C180.839 166.851 179.491 154.653 179.48 154.528C179.462 154.351 179.583 154.192 179.756 154.158H179.75Z" fill="#0B0B0B"></path><path d="M152.968 169.668C152.093 165.268 152.058 158.534 158.604 154.971C170.416 148.533 177.186 158.25 178.281 163.475C179.37 168.701 177.918 178.053 168.111 181.44C158.298 184.827 149.644 181.48 146.889 176.783C146.889 176.783 147.846 176.487 149.413 175.895C151.966 174.934 153.498 172.309 152.974 169.663L152.968 169.668Z" fill="#FFEADC"></path><path d="M149.286 175.577C151.718 174.661 153.124 172.201 152.628 169.731C151.827 165.724 151.522 158.438 158.431 154.67C162.931 152.216 167.097 151.829 170.807 153.52C175.164 155.501 177.906 160.032 178.609 163.407C179.606 168.171 178.713 178.138 168.215 181.764C165.397 182.738 162.648 183.17 160.102 183.17C153.792 183.17 148.681 180.535 146.584 176.96L146.371 176.59L146.78 176.459C146.78 176.459 147.748 176.158 149.286 175.577ZM167.99 181.115C178.039 177.643 178.892 168.103 177.935 163.544C177.267 160.333 174.657 156.024 170.519 154.14C169.108 153.497 167.615 153.173 166.06 153.173C163.766 153.173 161.329 153.873 158.765 155.267C152.565 158.643 152.375 164.921 153.308 169.594C153.867 172.395 152.277 175.173 149.534 176.209C148.572 176.573 147.84 176.824 147.408 176.966C150.421 181.531 158.776 184.292 167.99 181.11V181.115Z" fill="#0B0B0B"></path><path d="M161.531 158.574C169.171 157.379 170.485 153.753 170.496 153.713L170.825 153.821L170.496 153.713L170.825 153.821L171.153 153.923C171.101 154.083 169.776 157.868 161.968 159.194C162.239 161.096 163.991 170.898 171.245 170.579C173.493 170.488 175.21 169.788 176.356 168.501C178.183 166.446 177.935 163.543 177.929 163.515L178.621 163.452C178.632 163.583 178.903 166.668 176.881 168.951C175.607 170.391 173.723 171.171 171.274 171.268C171.159 171.268 171.038 171.273 170.928 171.273C162.602 171.273 161.254 159.075 161.242 158.955C161.225 158.773 161.352 158.614 161.531 158.585V158.574Z" fill="#0B0B0B"></path><path d="M125.915 175.952C125.921 171.626 127.068 163.571 135.267 161.573C148.364 158.386 152.357 169.497 152.04 174.825C151.724 180.153 147.863 188.81 137.503 189.568C127.137 190.33 119.658 184.877 118.229 179.64C118.229 179.64 120.101 179.561 123.005 179.185C124.653 178.969 125.915 177.597 125.915 175.952Z" fill="#FFEADC"></path><path d="M122.959 178.844C124.446 178.65 125.569 177.41 125.569 175.952C125.569 171.33 126.831 163.276 135.186 161.244C140.176 160.026 144.302 160.72 147.442 163.304C151.13 166.333 152.588 171.416 152.386 174.848C152.098 179.703 148.618 189.101 137.526 189.915C136.857 189.966 136.206 189.989 135.561 189.989C126.203 189.989 119.318 184.974 117.889 179.738L117.773 179.328L118.206 179.311C118.206 179.311 120.101 179.225 122.954 178.855L122.959 178.844ZM137.474 189.226C148.088 188.447 151.418 179.453 151.695 174.802C151.891 171.535 150.502 166.703 146.999 163.822C144.988 162.172 142.539 161.341 139.681 161.341C138.327 161.341 136.88 161.528 135.348 161.898C127.454 163.822 126.261 171.524 126.255 175.947C126.255 177.745 124.872 179.277 123.046 179.516C120.971 179.783 119.404 179.903 118.678 179.948C120.389 185.128 127.73 189.938 137.468 189.221L137.474 189.226Z" fill="#0B0B0B"></path><path d="M137.145 165.797C144.192 166.338 147.097 163.384 147.131 163.355L147.632 163.822C147.511 163.953 144.59 166.942 137.416 166.503C137.18 168.387 136.298 178.303 143.392 179.886C145.587 180.375 147.431 180.136 148.871 179.185C151.17 177.666 151.695 174.802 151.7 174.768L152.38 174.882C152.357 175.013 151.804 178.058 149.257 179.743C148.186 180.455 146.924 180.808 145.495 180.808C144.78 180.808 144.031 180.717 143.236 180.54C134.8 178.662 136.754 166.202 136.777 166.076C136.806 165.9 136.967 165.775 137.145 165.792V165.797Z" fill="#0B0B0B"></path><path d="M176.5 77.6028C186.204 73.2369 197.255 73.8005 206.578 79.2308C215.083 84.1887 220.684 92.7212 222.217 102.216C222.505 103.98 222.655 105.768 222.655 107.572V125.571C222.655 138.145 233.101 147.195 244.539 147.195C248.031 147.195 251.615 146.347 255.02 144.503L234.144 155.978C226.993 159.906 218.304 159.912 211.148 156.001C208.025 154.288 205.858 151.521 204.879 148.391C211.724 140.683 215.585 131.963 215.585 122.73C215.585 112.854 211.177 103.565 203.404 95.4762C202.412 95.7779 201.456 96.1878 200.534 96.7114L198.661 97.9182C191.816 91.0648 182.228 85.1677 170.715 80.6595L174.029 78.838C174.847 78.3883 175.665 77.9785 176.512 77.6085L176.5 77.6028Z" fill="#8B75F3"></path><path d="M173.85 78.531C174.703 78.0586 175.521 77.6544 176.356 77.2901C186.244 72.8389 197.325 73.4422 206.751 78.9352C215.21 83.8646 220.966 92.3288 222.557 102.165C222.85 103.929 222.995 105.751 222.995 107.567V125.565C222.995 137.303 232.658 146.848 244.533 146.848C248.129 146.848 251.603 145.955 254.847 144.202C255.014 144.111 255.222 144.173 255.314 144.338C255.406 144.503 255.343 144.708 255.181 144.799L234.305 156.275C230.647 158.284 226.636 159.286 222.62 159.286C218.621 159.286 214.622 158.29 210.969 156.292C207.863 154.59 205.582 151.818 204.533 148.488C204.498 148.374 204.521 148.249 204.602 148.163C211.649 140.234 215.222 131.673 215.222 122.725C215.222 113.339 211.096 104.055 203.283 95.8637C202.378 96.154 201.508 96.5354 200.707 96.9964L198.834 98.2032C198.696 98.2942 198.517 98.2715 198.396 98.1576C191.649 91.401 182.026 85.4584 170.566 80.973C170.439 80.9217 170.358 80.8079 170.347 80.677C170.335 80.5461 170.404 80.4208 170.525 80.3582L173.838 78.5367L173.85 78.531ZM198.702 97.4746L200.355 96.4101C201.277 95.8808 202.268 95.4538 203.294 95.1408C203.421 95.1066 203.553 95.1408 203.646 95.2318C211.678 103.588 215.924 113.094 215.924 122.719C215.924 131.787 212.34 140.445 205.265 148.465C206.285 151.545 208.428 154.112 211.315 155.694C218.414 159.576 226.884 159.57 233.977 155.671L250.082 146.82C248.278 147.292 246.429 147.526 244.539 147.526C232.283 147.526 222.309 137.673 222.309 125.56V107.561C222.309 105.779 222.165 103.998 221.877 102.262C220.321 92.6305 214.68 84.3427 206.4 79.5158C197.169 74.1367 186.319 73.5504 176.639 77.9049C175.821 78.2635 175.014 78.6619 174.184 79.123L171.505 80.5973C182.643 85.0429 192.029 90.866 198.696 97.4689L198.702 97.4746Z" fill="#0B0B0B"></path><path d="M222.499 102.017C222.539 102.074 222.562 102.148 222.562 102.222H222.211L221.934 102.41C217.849 96.6836 209.92 93.8432 203.496 95.7956L203.294 95.141C209.99 93.1032 218.247 96.0574 222.499 102.011V102.017Z" fill="#0B0B0B"></path><path d="M198.131 149.912C196.259 146.918 194.426 142.085 198.131 137.713C204.942 129.676 212.703 134.896 215.008 138.419C217.313 141.943 218.938 149.211 212.721 154.454C206.503 159.696 199.191 159.674 195.821 157.004C195.821 157.004 196.374 156.566 197.273 155.769C198.955 154.277 199.324 151.813 198.131 149.912Z" fill="#FFEADC"></path><path d="M197.042 155.512C198.604 154.129 198.938 151.847 197.837 150.093C195.775 146.798 194.098 141.937 197.866 137.497C200.476 134.417 203.444 132.954 206.671 133.148C210.462 133.381 213.798 135.948 215.296 138.237C217.411 141.47 219.635 149.069 212.946 154.715C209.292 157.795 205.213 159.133 201.733 159.133C199.272 159.133 197.106 158.467 195.607 157.277L195.273 157.009L195.607 156.742C195.607 156.742 196.166 156.298 197.042 155.518V155.512ZM212.496 154.192C218.823 148.858 216.714 141.663 214.72 138.607C213.314 136.455 210.185 134.047 206.63 133.831C206.457 133.82 206.279 133.814 206.106 133.814C203.306 133.814 200.718 135.197 198.396 137.935C194.899 142.067 196.483 146.633 198.425 149.735C199.704 151.773 199.312 154.419 197.503 156.025C197.019 156.457 196.633 156.782 196.38 156.992C199.9 159.417 206.728 159.059 212.496 154.197V154.192Z" fill="#0B0B0B"></path><path d="M206.44 133.307L207.086 133.546C207.039 133.66 205.974 136.386 201.888 139.836C202.655 141.185 206.717 147.742 211.868 145.528C213.47 144.839 214.513 143.86 214.974 142.613C215.711 140.627 214.709 138.589 214.697 138.566L215.314 138.259C215.36 138.35 216.46 140.57 215.625 142.835C215.101 144.27 213.925 145.385 212.139 146.154C211.303 146.512 210.497 146.666 209.73 146.666C204.689 146.666 201.179 139.984 201.139 139.91C201.064 139.767 201.105 139.596 201.226 139.494C205.334 136.084 206.423 133.335 206.434 133.307H206.44Z" fill="#0B0B0B"></path><path d="M218.333 121.62C225.443 121.398 232.56 121.279 239.67 121.171L245.006 121.114C246.619 121.131 248.1 120.63 249.373 119.77C251.874 117.995 253.113 114.625 252.105 111.745L244.798 92.0041C242.367 85.4011 239.958 78.7925 237.596 72.1612C237.382 71.5578 237.694 70.8918 238.299 70.6698C238.915 70.4421 239.601 70.7495 239.831 71.3586C241.658 76.1684 243.456 80.9897 245.242 85.811C245.271 85.7996 245.294 85.7825 245.323 85.7711C246.037 85.5093 246.832 85.8622 247.103 86.5737C250.001 94.2069 252.848 101.857 255.665 109.525L259.883 121.023L261.975 126.778L263.018 129.658L263.542 131.098C263.715 131.587 263.894 132.02 264.055 132.612L264.297 133.449L264.441 134.314C264.562 134.889 264.528 135.475 264.562 136.056C264.499 137.217 264.343 138.39 263.917 139.477C263.173 141.691 261.612 143.575 259.705 144.913C257.769 146.199 255.372 146.894 253.107 146.82L246.919 146.751C238.667 146.62 230.416 146.484 222.159 146.228C221.808 146.216 221.519 145.937 221.508 145.584C221.496 145.214 217.786 122.525 217.774 122.218C217.763 121.899 218.016 121.638 218.339 121.626L218.333 121.62Z" fill="white"></path><path d="M218.322 121.279C225.461 121.057 232.49 120.937 239.664 120.829L245.006 120.772C246.481 120.761 247.91 120.339 249.166 119.491C251.615 117.749 252.71 114.539 251.776 111.858L244.47 92.1176C241.796 84.8601 239.439 78.371 237.261 72.2747C236.985 71.5006 237.394 70.6354 238.172 70.3508C238.967 70.0548 239.854 70.4532 240.154 71.2387C241.715 75.3542 243.352 79.7315 245.449 85.3838C246.273 85.213 247.12 85.6513 247.426 86.4539C250.082 93.4496 252.882 100.958 255.988 109.405L260.206 120.903L264.003 131.365C264.13 131.712 264.262 132.071 264.383 132.515L264.631 133.392L264.77 134.24C264.862 134.667 264.867 135.094 264.879 135.509C264.879 135.685 264.885 135.862 264.896 136.073C264.816 137.541 264.608 138.628 264.234 139.585C263.508 141.748 261.963 143.74 259.889 145.197C257.993 146.455 255.66 147.167 253.447 147.167C253.332 147.167 253.211 147.167 253.096 147.161L246.901 147.098C238.546 146.967 230.37 146.831 222.136 146.575C221.6 146.558 221.168 146.125 221.151 145.607C221.122 145.294 220.073 138.81 219.151 133.084C217.855 125.064 217.423 122.372 217.417 122.229C217.4 121.723 217.803 121.301 218.316 121.284L218.322 121.279ZM219.843 132.97C221.203 141.389 221.848 145.374 221.854 145.567C221.854 145.738 221.998 145.874 222.171 145.88C230.399 146.136 238.575 146.273 246.924 146.404L253.124 146.472C255.308 146.552 257.636 145.874 259.509 144.634C261.456 143.267 262.908 141.395 263.594 139.351C263.946 138.452 264.136 137.427 264.216 136.073C264.205 135.89 264.199 135.708 264.199 135.52C264.193 135.122 264.182 134.741 264.101 134.359L263.969 133.534L263.727 132.691C263.611 132.27 263.49 131.94 263.364 131.593L255.349 109.632C252.243 101.185 249.442 93.6773 246.786 86.6873C246.688 86.4311 246.498 86.2262 246.244 86.1124C246.106 86.0498 245.956 86.0213 245.812 86.0213C245.691 86.0213 245.57 86.0441 245.461 86.0839L245.392 86.1181C245.305 86.1579 245.202 86.1579 245.115 86.1181C245.029 86.0839 244.96 86.0099 244.925 85.9188C242.776 80.1185 241.11 75.6616 239.514 71.4664C239.347 71.0338 238.863 70.8175 238.425 70.9769C237.999 71.1363 237.774 71.6087 237.924 72.0356C240.096 78.132 242.453 84.621 245.127 91.8729L252.433 111.619C253.47 114.585 252.266 118.119 249.569 120.038C248.186 120.971 246.619 121.432 245.011 121.444L239.681 121.501C232.508 121.614 225.484 121.734 218.35 121.95C218.224 121.95 218.12 122.064 218.12 122.178C218.143 122.44 219.007 127.79 219.848 132.959L219.843 132.97Z" fill="#0B0B0B"></path><path d="M252.105 111.745C252.105 111.745 264.337 138.384 263.911 139.477C263.168 141.692 261.606 143.576 259.699 144.913C257.763 146.2 255.366 146.894 253.101 146.82L245 121.12C246.613 121.137 248.094 120.636 249.368 119.777C251.868 118.001 253.107 114.631 252.099 111.751L252.105 111.745Z" fill="#0B0B0B"></path><path d="M250.56 145.152H246.832L239.128 120.704H242.85L250.56 145.152Z" fill="#0B0B0B"></path><path d="M245.438 145.152H244.481L236.777 120.704H237.734L245.438 145.152Z" fill="#0B0B0B"></path><path d="M222.159 144.896C230.41 144.64 238.662 144.504 246.919 144.373L253.107 144.304C254.98 144.322 256.697 143.741 258.172 142.745C261.076 140.684 262.511 136.774 261.341 133.432L252.865 110.527C250.042 102.865 247.247 95.1981 244.504 87.508C244.257 86.8078 244.62 86.0337 245.323 85.7718C246.037 85.51 246.832 85.8629 247.103 86.5744C250.001 94.2076 252.848 101.858 255.665 109.525L259.883 121.023L261.975 126.778L263.018 129.658L263.542 131.099C263.715 131.588 263.894 132.021 264.055 132.613L264.297 133.449L264.441 134.315C264.562 134.89 264.527 135.476 264.562 136.056C264.499 137.218 264.343 138.39 263.917 139.477C263.173 141.692 261.612 143.576 259.705 144.913C257.769 146.2 255.372 146.894 253.107 146.82L246.919 146.752C238.667 146.621 230.416 146.485 222.159 146.228C221.808 146.217 221.519 145.938 221.508 145.585C221.496 145.215 221.79 144.908 222.159 144.896Z" fill="white"></path><path d="M222.148 144.555C230.382 144.299 238.558 144.162 246.913 144.031L253.107 143.963C254.807 143.963 256.495 143.462 257.97 142.466C260.834 140.434 262.113 136.683 261.019 133.546L252.543 110.641C249.437 102.216 246.7 94.6858 244.182 87.6161C243.871 86.7452 244.332 85.7718 245.207 85.4474C245.64 85.288 246.112 85.3051 246.527 85.4929C246.948 85.6807 247.27 86.0223 247.432 86.4492C250.088 93.4449 252.888 100.953 255.994 109.4L260.212 120.898L264.009 131.36C264.136 131.708 264.268 132.066 264.389 132.51L264.637 133.387L264.775 134.235C264.868 134.662 264.873 135.089 264.885 135.504C264.885 135.681 264.891 135.857 264.902 136.068C264.821 137.536 264.614 138.624 264.24 139.58C263.513 141.743 261.969 143.735 259.895 145.192C257.999 146.45 255.666 147.162 253.453 147.162C253.338 147.162 253.217 147.162 253.101 147.156L246.907 147.094C238.552 146.963 230.376 146.826 222.142 146.57C221.606 146.553 221.174 146.12 221.157 145.597C221.151 145.329 221.249 145.073 221.433 144.874C221.618 144.68 221.871 144.566 222.148 144.555ZM222.171 145.887C230.399 146.143 238.575 146.28 246.925 146.411L253.124 146.479C255.308 146.559 257.636 145.881 259.509 144.64C261.456 143.274 262.908 141.401 263.594 139.358C263.946 138.459 264.136 137.434 264.216 136.079C264.205 135.897 264.199 135.715 264.199 135.527C264.193 135.129 264.182 134.747 264.101 134.366L263.969 133.541L263.727 132.698C263.611 132.277 263.49 131.947 263.364 131.599L255.349 109.639C252.243 101.192 249.443 93.6839 246.786 86.6939C246.688 86.4378 246.498 86.2329 246.245 86.119C246.106 86.0564 245.962 86.028 245.818 86.028C245.697 86.028 245.57 86.0507 245.455 86.0906C244.931 86.2841 244.654 86.8704 244.839 87.3941C247.357 94.4581 250.094 101.989 253.199 110.413L261.675 133.324C262.868 136.74 261.485 140.821 258.374 143.029C256.778 144.105 254.968 144.646 253.119 144.652L246.93 144.72C238.581 144.851 230.405 144.987 222.176 145.244C222.09 145.244 222.009 145.283 221.946 145.346C221.883 145.409 221.854 145.494 221.86 145.579C221.86 145.75 222.004 145.887 222.176 145.893L222.171 145.887Z" fill="#0B0B0B"></path><path d="M248.751 65.2802L241.318 135.396L231.2 97.4011L238.345 27.0117L248.751 65.2802Z" fill="white"></path><path d="M238.316 26.6702C238.477 26.6645 238.633 26.7612 238.679 26.9206L249.085 65.1891C249.097 65.2289 249.102 65.2688 249.097 65.3143L241.664 135.436C241.646 135.601 241.514 135.726 241.347 135.744C241.335 135.744 241.329 135.744 241.318 135.744C241.162 135.744 241.024 135.641 240.984 135.487L230.86 97.4921C230.848 97.4523 230.848 97.4125 230.848 97.3726L237.993 26.9832C238.01 26.8182 238.143 26.6929 238.31 26.6759L238.316 26.6702ZM241.174 133.501L248.405 65.3029L238.5 28.9015L231.551 97.3726L241.174 133.507V133.501Z" fill="#0B0B0B"></path><path d="M247.253 67.5574L240.99 126.79L232.519 95.0904L238.529 35.5674L247.253 67.5574Z" fill="#B489DE"></path><path d="M238.5 35.2255C238.673 35.2141 238.817 35.3165 238.863 35.4759L247.587 67.4659C247.599 67.5058 247.604 67.5456 247.599 67.5912L241.335 126.818C241.318 126.983 241.186 127.108 241.018 127.126C241.013 127.126 241.001 127.126 240.99 127.126C240.834 127.126 240.696 127.023 240.655 126.869L232.185 95.1697C232.174 95.1299 232.174 95.09 232.174 95.0502L238.183 35.5328C238.201 35.3678 238.333 35.2425 238.5 35.2255ZM240.846 124.894L246.907 67.5855L238.691 37.4568L232.877 95.0616L240.851 124.9L240.846 124.894Z" fill="#0B0B0B"></path><path d="M241.67 29.539L251.909 67.4318H249.264L238.345 27.0117C239.906 27.0117 241.272 28.0477 241.675 29.539H241.67Z" fill="white"></path><path d="M238.345 26.6699C240.056 26.6699 241.566 27.814 242.004 29.4477L252.237 67.3405C252.266 67.4429 252.243 67.5511 252.18 67.6365C252.116 67.7219 252.012 67.7674 251.903 67.7674H249.258C249.103 67.7674 248.964 67.6649 248.924 67.5112L238.011 27.1025C237.982 27.0001 238.011 26.8919 238.068 26.8065C238.132 26.7212 238.235 26.6756 238.345 26.6756V26.6699ZM249.529 67.09H251.459L241.335 29.6242C241.013 28.4345 240.004 27.5636 238.8 27.3871L249.529 67.09Z" fill="#0B0B0B"></path><path d="M251.908 68.1429L244.942 132.743C244.781 134.252 243.49 135.396 241.957 135.396H241.318L248.924 64.8643C250.704 64.8643 252.093 66.3898 251.908 68.1429Z" fill="white"></path><path d="M248.924 64.5225C249.869 64.5225 250.779 64.9209 251.413 65.6154C252.047 66.3098 252.352 67.2433 252.249 68.1768L245.282 132.783C245.104 134.468 243.669 135.737 241.957 135.737H241.318C241.22 135.737 241.128 135.697 241.059 135.623C240.995 135.549 240.961 135.453 240.972 135.362L248.578 64.8298C248.595 64.6534 248.745 64.5225 248.924 64.5225ZM241.957 135.054C243.317 135.054 244.452 134.047 244.597 132.709L251.563 68.1028C251.644 67.3629 251.402 66.6229 250.894 66.0707C250.462 65.5926 249.869 65.2909 249.229 65.2169L241.698 135.048H241.952L241.957 135.054Z" fill="#0B0B0B"></path><path d="M98.4591 138.253L91.1701 133.915V76.3047L98.4591 80.6364V138.253Z" fill="#D8C7FF"></path><path d="M91.003 76.0038C91.1125 75.9412 91.245 75.9469 91.3487 76.0038L98.6377 80.3413C98.7414 80.4039 98.8048 80.512 98.8048 80.6316V138.248C98.8048 138.373 98.7357 138.487 98.632 138.544C98.5801 138.572 98.5225 138.589 98.4648 138.589C98.4072 138.589 98.3438 138.572 98.2862 138.538L90.9972 134.201C90.8935 134.138 90.8301 134.03 90.8301 133.91V76.2941C90.8301 76.1689 90.8993 76.0551 91.003 75.9981V76.0038ZM91.5216 133.722L98.1191 137.644V80.8251L91.5216 76.9032V133.722Z" fill="#0B0B0B"></path><path d="M108.514 132.623L98.4589 138.253V80.6366L108.514 75.0127V132.623Z" fill="white"></path><path d="M98.2918 80.3414L108.347 74.7118C108.456 74.6492 108.583 74.6549 108.692 74.7118C108.796 74.7745 108.865 74.8826 108.865 75.0078V132.624C108.865 132.749 108.796 132.863 108.692 132.92L98.6376 138.55C98.5857 138.578 98.5281 138.595 98.4647 138.595C98.4013 138.595 98.3437 138.578 98.2918 138.55C98.1881 138.487 98.119 138.373 98.119 138.254V80.6374C98.119 80.5122 98.1881 80.3983 98.2918 80.3414ZM98.8104 137.667L108.174 132.425V75.5941L98.8104 80.8366V137.667Z" fill="#0B0B0B"></path><g style="mix-blend-mode:multiply" opacity="0.4"><path d="M108.289 104.56L98.6721 109.945L91.1066 118.096V85.833L108.301 96.1871L108.289 104.56Z" fill="#0B0B0B"></path></g><path d="M83.7656 5.9273L87.5628 3.74151C90.732 1.92001 94.1258 0.992188 97.6522 0.992188C100.579 0.992188 103.328 1.65248 105.8 2.83645C113.256 6.40544 156.523 29.7206 159.283 31.1208C166.492 34.7695 171.493 42.6133 171.493 51.6753V75.9752C171.493 77.7397 170.571 79.3222 169.09 80.102L122.527 104.778C121.922 105.096 121.271 105.261 120.603 105.261C118.217 105.261 116.275 103.189 116.275 100.645L71.0372 76.5899C70.4322 76.9087 68.0122 77.734 67.3438 77.734C64.9583 77.734 63.0164 75.6621 63.0164 73.1177V42.9719C63.0164 27.4722 70.9623 13.2702 83.7599 5.91592L83.7656 5.9273Z" fill="#8B75F3"></path><path d="M83.5928 5.6369L87.3899 3.45111C90.6167 1.59546 94.0682 0.65625 97.6522 0.65625C100.556 0.65625 103.351 1.28808 105.955 2.53467C111.158 5.02784 134.161 17.3286 147.909 24.6772C154.12 28.0014 158.615 30.3978 159.445 30.8248C166.976 34.6385 171.839 42.8238 171.839 51.6866V75.9864C171.839 77.8762 170.848 79.5725 169.257 80.4149L122.694 105.09C122.037 105.438 121.334 105.614 120.608 105.614C118.096 105.614 116.045 103.502 115.941 100.867L71.043 76.9883C70.219 77.3639 68.0352 78.0925 67.3553 78.0925C64.7796 78.0925 62.6822 75.8669 62.6822 73.1347V42.9946C62.6822 27.3696 70.6973 13.0595 83.5985 5.64259L83.5928 5.6369ZM63.3679 73.1347C63.3679 75.4912 65.1542 77.4095 67.3495 77.4095C67.9257 77.4095 70.2766 76.6239 70.8816 76.3052C70.9854 76.254 71.1064 76.254 71.2101 76.3052L116.442 100.36C116.552 100.417 116.627 100.537 116.627 100.662C116.627 103.019 118.413 104.937 120.608 104.937C121.219 104.937 121.813 104.789 122.366 104.493L168.929 79.8173C170.295 79.0944 171.147 77.6258 171.147 75.9864V51.6866C171.147 43.08 166.428 35.128 159.128 31.4338C158.286 31.0069 153.792 28.6048 147.575 25.2806C133.832 17.932 110.842 5.6369 105.65 3.15511C103.143 1.95406 100.447 1.345 97.6522 1.345C94.1892 1.345 90.8587 2.25575 87.7414 4.04878L83.9442 6.23458C71.2562 13.5319 63.3737 27.6144 63.3737 42.9946V73.1347H63.3679Z" fill="#0B0B0B"></path><path d="M94.1201 2.72271C94.6732 2.59179 95.2321 2.48933 95.7968 2.40964C95.9063 2.39256 96.0158 2.40964 96.1138 2.46656L154.207 33.506C154.455 33.6369 154.541 33.9386 154.409 34.1833L153.896 35.1055C153.763 35.3445 153.458 35.4356 153.216 35.3047L93.9991 3.64484C93.59 3.42854 93.6706 2.82517 94.1201 2.72271Z" fill="#B5FDEA"></path><path d="M85.2812 6.79301C85.2812 6.79301 85.2927 6.78732 85.2985 6.78163L87.8223 5.33581C88.1738 5.1309 88.6117 5.1252 88.9689 5.31874L145.587 35.8515C146.152 36.1589 146.365 36.8591 146.054 37.4226L144.855 39.5913C144.544 40.1491 143.835 40.3597 143.271 40.0524L85.3273 8.79665C84.5321 8.36974 84.5091 7.24269 85.287 6.79301H85.2812Z" fill="#B5FDEA"></path><path d="M137.491 35.4415L140.557 33.6769C153.037 26.5048 168.18 36.1416 168.18 51.26V75.5599C168.18 76.2714 167.8 76.926 167.2 77.2448L120.637 101.92C119.467 102.541 118.09 101.63 118.09 100.235V70.0954C118.09 55.6202 125.541 42.3119 137.485 35.4415H137.491Z" fill="#B5FDEA"></path><path d="M137.318 35.1453L140.384 33.3808C146.111 30.0907 152.68 30.0679 158.413 33.3238C164.746 36.9213 168.526 43.6267 168.526 51.2599V75.5597C168.526 76.4022 168.082 77.1649 167.368 77.5463L120.804 102.222C120.505 102.381 120.182 102.461 119.859 102.461C119.502 102.461 119.151 102.364 118.828 102.176C118.154 101.778 117.75 101.055 117.75 100.235V70.0953C117.75 55.4778 125.247 42.0898 137.318 35.1453ZM118.442 100.235C118.442 100.81 118.718 101.311 119.185 101.584C119.594 101.823 120.067 101.835 120.482 101.618L167.045 76.9429C167.529 76.6868 167.84 76.146 167.84 75.5597V51.2599C167.84 43.8771 164.187 37.388 158.073 33.9158C155.336 32.3562 152.398 31.582 149.459 31.582C146.52 31.582 143.513 32.3789 140.741 33.9727L137.676 35.7373C125.817 42.5565 118.448 55.7168 118.448 70.0953V100.235H118.442Z" fill="#0B0B0B"></path><path d="M137.843 36.5289L140.908 34.7643C143.38 33.3412 146.013 32.624 148.733 32.624C157.929 32.624 165.408 40.6784 165.408 50.5771V74.8144L119.467 99.1598V69.4068C119.467 55.6375 126.503 43.0407 137.837 36.5232L137.843 36.5289Z" fill="#0B0B0B"></path><path d="M137.67 36.2326L140.735 34.468C143.265 33.0165 145.956 32.2822 148.739 32.2822C158.125 32.2822 165.76 40.4903 165.76 50.5769V74.8141C165.76 74.9394 165.691 75.0532 165.575 75.1158L119.635 99.4612C119.583 99.4897 119.525 99.5011 119.473 99.5011C119.41 99.5011 119.352 99.484 119.295 99.4499C119.191 99.3872 119.127 99.2791 119.127 99.1596V69.4066C119.127 55.5177 126.232 42.8071 137.664 36.2326H137.67ZM119.825 98.5903L165.074 74.6092V50.5769C165.074 40.866 157.751 32.9653 148.744 32.9653C146.088 32.9653 143.513 33.6711 141.092 35.06L138.021 36.8246C126.797 43.2795 119.825 55.7624 119.825 69.4123V98.596V98.5903Z" fill="#0B0B0B"></path><path d="M176.42 104.92C181.375 118.666 177.48 131.24 166.249 137.746L163.207 139.505C160.758 140.923 157.86 141.646 154.599 141.646C143.582 141.646 131.717 133.603 128.151 123.721L119.427 99.5235L165.708 75.2236L176.42 104.925V104.92Z" fill="#B489DE"></path><path d="M119.266 99.2217L165.547 74.9218C165.633 74.8763 165.743 74.8706 165.835 74.9048C165.927 74.9389 166.002 75.0129 166.036 75.1097L176.748 104.811C181.761 118.717 177.808 131.456 166.428 138.042L163.386 139.801C160.879 141.253 157.923 141.987 154.605 141.987C143.449 141.987 131.441 133.847 127.834 123.835L119.11 99.6373C119.053 99.4779 119.122 99.3014 119.272 99.2217H119.266ZM128.479 123.601C132 133.358 143.714 141.298 154.599 141.298C157.797 141.298 160.632 140.592 163.034 139.209L166.077 137.45C177.157 131.035 180.995 118.615 176.097 105.033L165.524 75.7074L119.859 99.6828L128.485 123.601H128.479Z" fill="#0B0B0B"></path><path d="M128.024 100.422L159.496 83.892C161.358 82.9129 163.662 83.8009 164.371 85.759L171.856 106.518C176.045 118.136 173.032 128.268 163.795 133.613L160.753 135.372C159.053 136.357 156.978 136.852 154.593 136.852C145.61 136.852 135.59 130.101 132.709 122.104L126.388 104.572C125.811 102.978 126.509 101.208 128.018 100.411L128.024 100.422Z" fill="#B489DE"></path><path d="M127.863 100.121L159.335 83.5905C160.309 83.0782 161.461 83.0099 162.493 83.4027C163.524 83.7954 164.331 84.6151 164.699 85.6454L172.184 106.405C176.437 118.188 173.366 128.473 163.973 133.909L160.931 135.668C159.179 136.681 157.047 137.199 154.593 137.199C145.477 137.199 135.307 130.34 132.38 122.223L126.059 104.691C125.431 102.95 126.203 100.986 127.857 100.115L127.863 100.121ZM126.716 104.464L133.037 121.996C135.872 129.868 145.748 136.516 154.599 136.516C156.926 136.516 158.937 136.032 160.585 135.082L163.628 133.323C172.709 128.063 175.665 118.091 171.533 106.638L164.048 85.8788C163.743 85.0363 163.086 84.3703 162.245 84.0459C161.882 83.9093 161.502 83.841 161.121 83.841C160.62 83.841 160.119 83.9605 159.663 84.1996L128.191 100.73C126.843 101.441 126.209 103.046 126.722 104.469L126.716 104.464Z" fill="#0B0B0B"></path><path d="M131.493 100.792L161.121 85.2358C162.873 84.3137 165.045 85.1447 165.708 86.9947L172.755 106.536C176.696 117.471 173.861 127.005 165.172 132.037L162.308 133.693C160.707 134.621 158.759 135.088 156.506 135.088C148.053 135.088 138.621 128.73 135.907 121.205L129.954 104.703C129.413 103.2 130.07 101.538 131.493 100.787V100.792Z" fill="#B5FDEA"></path><path d="M131.332 100.491L160.96 84.9342C161.882 84.4504 162.971 84.3878 163.951 84.7578C164.924 85.1334 165.685 85.9076 166.036 86.8809L173.083 106.422C177.088 117.528 174.195 127.21 165.345 132.333L162.481 133.989C160.828 134.946 158.817 135.429 156.506 135.429C147.92 135.429 138.338 128.969 135.578 121.319L129.626 104.817C129.032 103.172 129.764 101.305 131.326 100.485L131.332 100.491ZM130.283 104.589L136.235 121.091C138.903 128.491 148.191 134.746 156.512 134.746C158.701 134.746 160.591 134.291 162.135 133.397L164.999 131.741C173.539 126.8 176.316 117.419 172.432 106.65L165.385 87.1086C165.103 86.3231 164.486 85.697 163.697 85.3953C163.357 85.2644 163 85.2017 162.648 85.2017C162.176 85.2017 161.709 85.3156 161.283 85.5376L131.654 101.094C130.392 101.76 129.799 103.263 130.283 104.595V104.589Z" fill="#0B0B0B"></path><path d="M122.781 94.9927L134.386 88.828C134.8 88.606 135.308 88.6117 135.717 88.8394L135.913 88.9476C136.869 89.4713 136.863 90.826 135.913 91.3497L124.435 97.6111C124.066 97.8103 123.628 97.8274 123.248 97.6737L123.662 96.8768L123.299 96.5523L122.689 97.3663C122.291 97.1158 122.049 96.6775 122.049 96.2108C122.049 95.7042 122.331 95.2431 122.781 95.004V94.9927Z" fill="#D8C7FF"></path><path d="M122.619 94.6906L134.224 88.526C134.748 88.2471 135.371 88.2528 135.889 88.5374L136.085 88.6455C136.644 88.9529 136.978 89.5164 136.978 90.1483C136.978 90.7801 136.644 91.3436 136.079 91.6453L124.601 97.9067C124.348 98.0433 124.066 98.1173 123.783 98.1173C123.558 98.1173 123.334 98.0718 123.115 97.9864C123.023 97.9522 122.953 97.8782 122.919 97.7872C122.902 97.7359 122.896 97.6847 122.902 97.6278C122.786 97.7132 122.631 97.7245 122.504 97.6449C122.003 97.3261 121.703 96.791 121.703 96.2047C121.703 95.5729 122.055 94.9923 122.619 94.6963V94.6906ZM122.637 96.8536L123.023 96.3357C123.08 96.256 123.167 96.2104 123.265 96.199C123.363 96.1934 123.461 96.2218 123.53 96.2844L123.893 96.6089C124.008 96.7113 124.037 96.8821 123.968 97.0187L123.754 97.4229C123.933 97.4229 124.106 97.3887 124.261 97.3033L135.739 91.0419C136.074 90.8598 136.275 90.5183 136.281 90.1426C136.281 89.7612 136.079 89.4254 135.745 89.2375L135.549 89.1294C135.394 89.044 135.215 88.9984 135.042 88.9984C134.869 88.9984 134.702 89.0383 134.547 89.1237L122.942 95.2883C122.602 95.4704 122.395 95.8177 122.395 96.199C122.395 96.4438 122.481 96.6715 122.631 96.8536H122.637Z" fill="#0B0B0B"></path><path d="M128.041 95.9032L127.356 95.8235C127.575 94.0077 125.933 93.7117 125.748 93.6832L125.846 93.0059C126.716 93.1311 128.289 93.8938 128.041 95.9032Z" fill="#0B0B0B"></path><path d="M132.426 93.6151L131.741 93.5354C131.965 91.7196 130.318 91.4236 130.133 91.3951L130.231 90.7178C131.095 90.843 132.674 91.6057 132.426 93.6151Z" fill="#0B0B0B"></path><path d="M145.69 83.0679L157.295 76.9032C157.71 76.6812 158.211 76.6869 158.626 76.9146L158.822 77.0228C159.779 77.5465 159.773 78.9012 158.822 79.4249L147.344 85.6863C146.975 85.8855 146.537 85.9026 146.157 85.7489L146.572 84.952L146.209 84.6275L145.598 85.4415C145.201 85.191 144.959 84.7527 144.959 84.286C144.959 83.7794 145.241 83.3183 145.69 83.0792V83.0679Z" fill="#D8C7FF"></path><path d="M145.523 82.7717L157.128 76.607C157.653 76.3281 158.275 76.3338 158.793 76.6184L158.989 76.7266C159.548 77.034 159.883 77.5975 159.883 78.2293C159.883 78.8611 159.548 79.4247 158.984 79.7264L147.506 85.9877C147.252 86.1244 146.97 86.1927 146.687 86.1927C146.463 86.1927 146.238 86.1471 146.019 86.0617C145.927 86.0276 145.858 85.9536 145.823 85.8625C145.806 85.8113 145.8 85.7601 145.806 85.7031C145.691 85.7885 145.535 85.7999 145.408 85.7202C144.907 85.4015 144.607 84.8664 144.607 84.2744C144.607 83.6426 144.959 83.062 145.518 82.766L145.523 82.7717ZM145.541 84.9347L145.927 84.4167C145.984 84.337 146.071 84.2915 146.169 84.2801C146.261 84.2687 146.365 84.3029 146.434 84.3655L146.797 84.6899C146.912 84.7924 146.941 84.9632 146.872 85.0998L146.664 85.5039C146.854 85.5039 147.016 85.4641 147.171 85.3787L158.649 79.123C158.989 78.9408 159.191 78.5993 159.191 78.2236C159.191 77.8423 158.989 77.5064 158.655 77.3186L158.459 77.2104C158.304 77.125 158.125 77.0795 157.952 77.0795C157.779 77.0795 157.612 77.1193 157.457 77.2047L145.852 83.3693C145.512 83.5515 145.304 83.8987 145.304 84.2744C145.304 84.5192 145.391 84.7469 145.541 84.929V84.9347Z" fill="#0B0B0B"></path><path d="M150.951 83.9841L150.265 83.8987C150.484 82.0829 148.842 81.7869 148.658 81.7584L148.756 81.0811C149.62 81.2063 151.199 81.969 150.951 83.9784V83.9841Z" fill="#0B0B0B"></path><path d="M155.336 81.6903L154.651 81.6106C154.875 79.7948 153.233 79.4988 153.043 79.4703L153.141 78.793C154.011 78.9182 155.584 79.6809 155.336 81.6903Z" fill="#0B0B0B"></path><g style="mix-blend-mode:multiply" opacity="0.4"><path d="M116.166 100.356L71.0432 76.6021V57.5391L116.166 81.5145V100.356Z" fill="#0B0B0B"></path></g><path d="M94.8751 41.1341C103.311 44.1224 109.067 53.7365 107.724 62.6163C106.382 71.4961 98.4591 76.2661 90.0234 73.2834C81.5877 70.295 75.8314 60.681 77.174 51.8012C78.5166 42.9271 86.4394 38.1514 94.8751 41.1341Z" fill="white"></path><path d="M83.2701 41.6742C86.687 39.6535 90.8529 39.3461 94.9901 40.8147C103.558 43.8486 109.424 53.6505 108.064 62.6669C107.396 67.1068 105.108 70.6815 101.622 72.7421C99.6286 73.9204 97.3814 74.518 95.0304 74.518C93.3537 74.518 91.6251 74.2163 89.9022 73.6016C81.334 70.5677 75.4682 60.7657 76.8281 51.7494C77.4965 47.3095 79.784 43.7348 83.2701 41.6742ZM90.1385 72.9584C94.0797 74.353 98.0325 74.0683 101.271 72.1558C104.572 70.2034 106.745 66.7938 107.384 62.5645C108.698 53.8555 103.034 44.3837 94.7596 41.4579C93.1117 40.8773 91.4637 40.587 89.8676 40.587C87.6435 40.587 85.5115 41.1505 83.6273 42.2662C80.3257 44.2186 78.1534 47.6225 77.5138 51.8575C76.2 60.5665 81.8641 70.0383 90.1385 72.9641V72.9584Z" fill="#0B0B0B"></path><path d="M88.3272 60.1575L88.7575 59.8866L89.0748 60.2131L98.0983 51.4443L100.237 53.6029L89.5544 63.9879L89.5527 63.9896C89.2435 64.293 88.809 64.4473 88.3638 64.41L88.3638 64.41L88.3608 64.4097C88.2564 64.4016 88.147 64.3792 88.0344 64.3438C87.7232 64.2461 87.4481 64.0534 87.2542 63.7905C87.2542 63.7905 87.2542 63.7905 87.2542 63.7905L82.6251 57.5146L85.0755 55.7534L88.3272 60.1575Z" fill="#D7FF65" stroke="#0B0B0B"></path><path d="M70.6974 50.3486H71.3888V76.6009H70.6974V50.3486Z" fill="#0B0B0B"></path><path d="M115.947 88.3838H116.638V100.753H115.947V88.3838Z" fill="#0B0B0B"></path><path d="M158.655 30.3754L158.315 30.9674C158.269 30.939 153.544 28.3547 146.883 29.2256L146.791 28.5483C153.694 27.6432 158.459 30.2616 158.655 30.3754Z" fill="#0B0B0B"></path><path d="M162.226 87.9214L162.891 88.1074L150.978 129.695L150.313 129.509L162.226 87.9214Z" fill="#0B0B0B"></path><path d="M134.147 103.668L171.245 118.579L170.985 119.212L133.886 104.3L134.147 103.668Z" fill="#0B0B0B"></path><path d="M155.671 109.468C157.37 109.468 158.747 110.828 158.747 112.507C158.747 114.187 157.37 115.547 155.671 115.547C153.971 115.547 152.594 114.187 152.594 112.507C152.594 110.828 153.971 109.468 155.671 109.468Z" fill="#B5FDEA"></path><path d="M155.671 109.126C157.561 109.126 159.093 110.64 159.093 112.507C159.093 114.374 157.555 115.888 155.671 115.888C153.786 115.888 152.248 114.368 152.248 112.507C152.248 110.646 153.786 109.126 155.671 109.126ZM155.671 115.205C157.174 115.205 158.402 113.993 158.402 112.507C158.402 111.021 157.174 109.809 155.671 109.809C154.167 109.809 152.939 111.021 152.939 112.507C152.939 113.993 154.167 115.205 155.671 115.205Z" fill="#0B0B0B"></path><path d="M140.075 83.0593C137.837 82.2118 136.684 79.6967 137.503 77.4469L146.003 54.0737C146.822 51.824 149.304 50.6841 151.541 51.5316L191.541 66.665C193.778 67.5126 194.931 70.0277 194.112 72.2774L185.608 95.653C184.789 97.9027 182.307 99.0426 180.069 98.1951L140.069 83.0617L140.075 83.0593Z" fill="#D7FF65"></path><path d="M139.953 83.3801C138.782 82.9388 137.852 82.0645 137.328 80.9159L137.323 80.9055C136.802 79.7621 136.752 78.486 137.176 77.3166L145.68 53.9411C146.563 51.5163 149.245 50.279 151.659 51.1981L191.659 66.3315C192.829 66.7728 193.759 67.647 194.286 68.788L194.29 68.7985C194.812 69.9419 194.865 71.2104 194.438 72.3873L185.939 95.7605C185.056 98.1853 182.372 99.4173 179.96 98.5035L139.96 83.3701L139.953 83.3801ZM185.285 95.5203L193.785 72.1472C194.534 70.0748 193.478 67.7566 191.417 66.9806L151.417 51.8471C149.361 51.0688 147.07 52.1212 146.318 54.1883L137.814 77.5639C137.44 78.5963 137.514 79.6906 137.939 80.6242C138.365 81.5577 139.147 82.341 140.182 82.7305L180.181 97.8639C182.242 98.6399 184.528 97.5899 185.28 95.5227L185.285 95.5203Z" fill="#0B0B0B"></path><path d="M166.513 82.4538C164.188 82.9513 161.756 82.0341 160.32 80.1045L146.093 61.0511C144.828 59.3602 144.507 57.1748 145.221 55.2013L145.675 53.9482L146.318 54.1931L145.864 55.4462C145.223 57.1961 145.516 59.141 146.636 60.6382L160.863 79.6916C162.143 81.4011 164.3 82.2223 166.362 81.781L189.411 76.8257C191.227 76.4336 192.687 75.1519 193.328 73.4019L193.381 73.2574L194.024 73.5023L193.971 73.6469C193.252 75.6227 191.603 77.0666 189.563 77.5037L166.515 82.459L166.513 82.4538Z" fill="#0B0B0B"></path><path d="M138.775 72.8466L151.017 66.7354L151.325 67.3545L139.083 73.4657L138.775 72.8466Z" fill="#0B0B0B"></path><path d="M181.486 78.7688L182.117 78.5061L187.489 91.289L186.858 91.5517L181.486 78.7688Z" fill="#0B0B0B"></path><path d="M174.234 93.0976L175.907 88.4932L183.387 91.3242L181.714 95.9286L174.234 93.0976Z" fill="white"></path><path d="M176.885 91.2628C176.297 91.0433 176.06 90.7145 175.864 90.4492C175.692 90.2106 175.55 90.0221 175.157 89.8723C174.763 89.7225 174.537 89.7751 174.254 89.8408C173.938 89.9155 173.545 89.9999 172.963 89.7781C172.375 89.5586 172.137 89.2298 171.941 88.9645C171.765 88.7283 171.628 88.5374 171.234 88.3876C170.841 88.2378 170.615 88.2904 170.329 88.3509C170.013 88.4256 169.62 88.51 169.033 88.2905L169.269 87.6438C169.663 87.7936 169.889 87.741 170.174 87.6805C170.493 87.6111 170.883 87.5214 171.466 87.7432C172.054 87.9627 172.291 88.2915 172.487 88.5568C172.664 88.7931 172.801 88.9839 173.194 89.1338C173.588 89.2836 173.814 89.231 174.099 89.1705C174.415 89.0958 174.808 89.0114 175.391 89.2332C175.978 89.4526 176.216 89.7814 176.412 90.0468C176.583 90.2854 176.723 90.4686 177.117 90.6184C177.51 90.7683 177.736 90.7157 178.019 90.6499C178.335 90.5752 178.728 90.4908 179.311 90.7126L179.074 91.3594C178.68 91.2096 178.454 91.2621 178.172 91.3279C177.855 91.4026 177.462 91.487 176.88 91.2652L176.885 91.2628Z" fill="#0B0B0B"></path><path d="M176.286 92.9116C175.704 92.6898 175.461 92.3634 175.265 92.0981C175.094 91.8595 174.951 91.671 174.558 91.5211C174.164 91.3713 173.938 91.4239 173.656 91.4897C173.339 91.5643 172.946 91.6488 172.364 91.4269C171.776 91.2075 171.539 90.8787 171.342 90.6134C171.166 90.3771 171.029 90.1862 170.635 90.0364C170.242 89.8866 170.016 89.9392 169.731 89.9997C169.415 90.0744 169.022 90.1588 168.439 89.937L168.676 89.2903C169.069 89.4401 169.295 89.3875 169.58 89.327C169.899 89.2576 170.29 89.1679 170.872 89.3897C171.46 89.6092 171.697 89.938 171.893 90.2033C172.07 90.4396 172.207 90.6304 172.6 90.7802C172.994 90.93 173.22 90.8774 173.503 90.8117C173.819 90.737 174.212 90.6526 174.795 90.8744C175.382 91.0939 175.62 91.4227 175.816 91.688C175.987 91.9266 176.127 92.1099 176.521 92.2597C176.914 92.4095 177.14 92.3569 177.423 92.2912C177.741 92.2217 178.132 92.132 178.715 92.3539L178.478 93.0006C178.085 92.8508 177.858 92.9034 177.576 92.9691C177.259 93.0438 176.866 93.1282 176.284 92.9064L176.286 92.9116Z" fill="#0B0B0B"></path><path d="M7.85067 208.346L44.774 188.332C51.0489 184.929 58.6317 184.86 64.97 188.145L103.299 207.993C107.108 209.968 107.16 215.336 103.391 217.385L66.4681 237.405C60.1932 240.809 52.6104 240.877 46.2721 237.592L7.94285 217.744C4.13412 215.769 4.08228 210.401 7.85067 208.352V208.346Z" fill="#D8C7FF"></path><path d="M7.67797 208.033L44.6013 188.013C50.9972 184.547 58.678 184.473 65.1373 187.82L103.467 207.668C105.374 208.659 106.526 210.52 106.549 212.649C106.572 214.778 105.454 216.662 103.564 217.686L66.6412 237.706C63.3798 239.476 59.7843 240.358 56.1888 240.358C52.5933 240.358 49.2685 239.539 46.1052 237.899L7.77593 218.045C5.86869 217.055 4.71627 215.193 4.69322 213.064C4.67017 210.936 5.78801 209.051 7.67797 208.027V208.033ZM8.11012 217.419L46.4394 237.273C52.6854 240.506 60.107 240.438 66.2897 237.085L103.213 217.072C104.867 216.178 105.84 214.527 105.823 212.666C105.806 210.805 104.798 209.177 103.127 208.311L64.7973 188.463C61.7319 186.875 58.3899 186.084 55.0479 186.084C51.7059 186.084 48.0988 186.937 44.947 188.645L8.0237 208.664C6.36998 209.558 5.39619 211.209 5.41348 213.07C5.43076 214.931 6.43913 216.559 8.11012 217.425V217.419Z" fill="#0B0B0B"></path><path d="M8.44997 209.421L45.3733 189.402C48.3292 187.796 51.677 186.948 55.0535 186.948C58.4301 186.948 61.5243 187.734 64.3938 189.219L102.723 209.068C104.1 209.78 104.93 211.123 104.947 212.66C104.965 214.197 104.158 215.557 102.792 216.291L65.8689 236.305C62.913 237.91 59.5652 238.758 56.1887 238.758C52.9504 238.758 49.7179 237.973 46.8484 236.487L8.51911 216.639C7.14198 215.927 6.31226 214.584 6.29497 213.047C6.27768 211.51 7.08437 210.15 8.44997 209.415V209.421ZM8.85909 216.012L47.1883 235.861C49.9541 237.295 53.0714 238.053 56.1944 238.053C59.3175 238.053 62.671 237.233 65.5232 235.69L102.447 215.671C103.57 215.062 104.239 213.941 104.221 212.671C104.21 211.402 103.524 210.292 102.389 209.706L64.0596 189.857C61.2939 188.423 58.1823 187.665 55.0535 187.665C51.9247 187.665 48.577 188.485 45.7248 190.028L8.80147 210.047C7.67786 210.656 7.00945 211.777 7.02674 213.047C7.03827 214.316 7.72397 215.426 8.85909 216.012Z" fill="white"></path><path d="M73.8033 188.6C73.8033 188.6 72.3282 187.792 70.3057 186.693C71.51 188.441 72.7027 190.251 73.8033 191.998V188.595V188.6Z" fill="#9357F5"></path><path d="M73.6824 179.806C70.2539 176.1 66.3415 173.129 61.9508 170.886C57.3354 168.53 53.2674 167.477 49.741 167.733C46.2146 167.989 39.692 170.129 37.7617 172.725C35.8372 175.321 38.6721 178.127 38.6721 182.578C38.6721 187.029 38.5338 191.999 40.441 196.569C42.354 201.14 44.7165 206.092 48.2083 209.929C51.7001 213.765 57.1683 215.712 61.7549 218.052C63.7774 219.088 67.903 223.397 67.903 223.397L72.8699 220.869L71.1874 214.91C68.2776 214.932 65.1372 214.079 61.7549 212.354C58.4359 210.658 55.5031 208.398 52.962 205.574C50.4209 202.751 48.4503 199.615 47.0616 196.165C45.673 192.716 44.9758 189.261 44.9758 185.8C44.9758 182.339 45.6845 179.715 47.1077 177.717C48.531 175.719 50.5304 174.609 53.1061 174.387C55.6817 174.159 58.6319 174.899 61.9451 176.59C63.4201 177.347 66.8889 181.741 70.3 186.699C72.3225 187.798 73.7976 188.606 73.7976 188.606V192.01C76.6556 196.558 78.8682 200.674 78.8682 201.988C78.8682 207.299 77.8714 209.445 75.8835 208.426C75.2497 208.102 74.7426 207.607 74.3681 206.929C73.9878 206.258 73.7976 205.375 73.7976 204.277V192.01C72.6971 190.263 71.5043 188.447 70.3 186.705C66.6642 184.73 61.2651 181.798 59.4789 180.888C58.3611 180.318 57.2951 179.954 56.2809 179.806C55.2553 179.652 54.2124 179.795 53.2443 180.17L47.6782 182.322C47.6782 182.322 48.9516 185.823 48.9516 188.356C48.9516 190.889 49.4356 193.376 50.3979 195.824C51.3601 198.266 52.6508 200.44 54.2642 202.341C55.8776 204.242 57.612 205.671 59.4789 206.622C63.0514 208.443 65.6097 208.261 67.1597 206.075C67.7302 207.84 68.6118 209.405 69.816 210.771C71.0145 212.138 75.2381 217.01 75.2381 217.01C75.2381 217.01 78.0846 215.855 79.5136 215.132C81.1154 214.329 82.3082 213.737 83.2128 211.984C84.1117 210.236 84.5611 207.817 84.5611 204.738C84.5611 200.56 83.6046 196.285 81.6916 191.919C79.7786 187.553 77.1108 183.517 73.6824 179.812V179.806ZM64.9125 200.861C64.0424 201.442 62.9131 201.379 61.5244 200.668C60.13 199.956 59.0122 198.863 58.1594 197.383C57.3066 195.903 56.8802 194.236 56.8802 192.391C56.8802 190.547 57.3066 189.318 58.1594 188.731C59.0122 188.145 60.1358 188.202 61.5244 188.908C62.9131 189.619 64.0424 190.707 64.9125 192.181C65.7826 193.655 66.2147 195.311 66.2147 197.161C66.2147 199.011 65.7826 200.275 64.9125 200.861Z" fill="#9357F5"></path><path d="M61.6916 188.589C60.1761 187.814 58.92 187.763 57.952 188.435C56.984 189.101 56.5172 190.399 56.5172 192.391C56.5172 194.383 56.9609 196.034 57.8425 197.565C58.7299 199.102 59.9111 200.252 61.3573 200.992C62.1698 201.407 62.9131 201.618 63.5815 201.618C64.152 201.618 64.6648 201.464 65.1142 201.163C66.0822 200.514 66.5778 199.165 66.5778 197.167C66.5778 195.169 66.1226 193.524 65.2237 192.004C64.3248 190.478 63.1321 189.334 61.6858 188.594L61.6916 188.589ZM64.7109 200.565C63.956 201.071 62.965 201.003 61.6916 200.354C60.372 199.683 59.2888 198.624 58.4763 197.206C57.6581 195.789 57.2432 194.167 57.2432 192.391C57.2432 190.615 57.6235 189.539 58.3668 189.021C58.6953 188.793 59.0698 188.68 59.4962 188.68C60.0321 188.68 60.6486 188.862 61.3631 189.226C62.6826 189.903 63.7774 190.956 64.6072 192.362C65.4369 193.774 65.8633 195.385 65.8633 197.161C65.8633 198.937 65.4772 200.053 64.7166 200.565H64.7109Z" fill="#0B0B0B"></path><path d="M73.9531 179.567C70.5073 175.85 66.5315 172.821 62.1178 170.567C57.462 168.194 53.2961 167.118 49.7178 167.374C46.1742 167.63 39.4786 169.81 37.4734 172.508C36.2404 174.165 36.7762 175.884 37.4043 177.87C37.8307 179.231 38.3147 180.773 38.3147 182.572V183.431C38.3032 187.615 38.2974 192.351 40.1125 196.7C41.9678 201.14 44.3533 206.212 47.9489 210.162C50.7089 213.196 54.6329 215.046 58.4301 216.833C59.5306 217.351 60.5735 217.846 61.5934 218.364C63.5352 219.36 67.6033 223.59 67.6436 223.635C67.7127 223.709 67.8107 223.749 67.9087 223.749C67.9663 223.749 68.0239 223.738 68.0757 223.709L73.0426 221.182C73.1982 221.102 73.2731 220.932 73.227 220.766L71.5445 214.807C71.4984 214.653 71.3774 214.545 71.193 214.545C68.3408 214.545 65.2408 213.72 61.9276 212.029C58.6663 210.361 55.7392 208.107 53.2384 205.329C50.7319 202.551 48.7671 199.421 47.4015 196.023C46.0359 192.63 45.3444 189.186 45.3444 185.794C45.3444 182.401 46.0416 179.845 47.413 177.916C48.7671 176.02 50.6916 174.95 53.1462 174.734C55.6412 174.518 58.5511 175.246 61.7893 176.903C63.0512 177.546 66.0072 181.24 69.0956 185.623C65.5923 183.716 61.2247 181.354 59.6574 180.557C58.5107 179.971 57.3987 179.595 56.3442 179.441C55.2955 179.282 54.1777 179.419 53.1232 179.828L47.557 181.98C47.3727 182.054 47.2805 182.253 47.3496 182.435C47.3611 182.47 48.6057 185.902 48.6057 188.35C48.6057 190.917 49.1013 193.472 50.0751 195.949C51.0489 198.419 52.3684 200.645 53.999 202.569C55.6355 204.498 57.4275 205.967 59.3232 206.94C62.7574 208.693 65.3561 208.654 67.0386 206.809C67.6205 208.363 68.4618 209.769 69.5451 211.004C70.7436 212.37 74.9672 217.243 74.9672 217.243C75.0709 217.363 75.238 217.397 75.3821 217.34C75.4973 217.294 78.2573 216.173 79.7266 215.427C81.3285 214.619 82.5904 213.981 83.5354 212.148C84.4573 210.355 84.924 207.862 84.924 204.737C84.924 200.531 83.9502 196.171 82.0257 191.776C80.1069 187.393 77.3872 183.284 73.9473 179.572L73.9531 179.567ZM82.89 211.818C82.0488 213.446 80.9367 214.01 79.3521 214.807C78.1939 215.393 76.062 216.275 75.3475 216.571C74.5465 215.643 71.1527 211.733 70.0982 210.526C68.9343 209.206 68.0642 207.669 67.5168 205.955C67.4765 205.825 67.3612 205.728 67.2287 205.711C67.0904 205.688 66.9579 205.745 66.8772 205.859C65.4367 207.896 63.0743 208.039 59.6631 206.291C57.8481 205.363 56.131 203.952 54.558 202.096C52.9791 200.235 51.7 198.072 50.755 195.675C49.81 193.285 49.3318 190.814 49.3318 188.338C49.3318 186.198 48.4675 183.454 48.1505 182.515L53.394 180.489C54.3332 180.124 55.3186 180.01 56.2405 180.147C57.2143 180.295 58.2514 180.642 59.3289 181.194C61.0806 182.088 66.3759 184.963 70.0118 186.938C71.193 188.651 72.3627 190.427 73.4518 192.146V204.271C73.4518 205.426 73.6592 206.377 74.0625 207.1C74.4774 207.834 75.0363 208.386 75.7278 208.739C76.4307 209.097 77.053 209.12 77.5831 208.802C78.7183 208.118 79.2426 205.955 79.2426 201.982C79.2426 200.576 77.0358 196.427 74.172 191.85V188.606C74.172 188.475 74.1029 188.355 73.9876 188.293C73.9473 188.27 72.5529 187.507 70.6284 186.46C67.1884 181.479 63.6793 177.068 62.1293 176.271C58.7643 174.552 55.7219 173.795 53.0886 174.028C50.415 174.261 48.3061 175.434 46.8253 177.512C45.3675 179.561 44.6242 182.35 44.6242 185.799C44.6242 189.249 45.3329 192.818 46.7388 196.296C48.139 199.768 50.1442 202.967 52.7083 205.813C55.2725 208.659 58.263 210.965 61.605 212.672C64.9124 214.363 68.0469 215.234 70.928 215.268L72.4607 220.687L67.9951 222.958C67.1538 222.093 63.7657 218.672 61.9392 217.738C60.9077 217.215 59.813 216.697 58.7527 216.196C55.0189 214.437 51.1583 212.621 48.502 209.689C44.9756 205.819 42.6305 200.815 40.7981 196.432C39.035 192.215 39.0407 187.752 39.0522 183.437V182.578C39.0522 180.671 38.5509 179.071 38.1073 177.66C37.5195 175.787 37.0528 174.301 38.0727 172.935C39.8935 170.482 46.3355 168.342 49.787 168.091C50.1154 168.068 50.4496 168.057 50.7953 168.057C54.0106 168.057 57.704 169.116 61.8009 171.205C66.1339 173.419 70.0464 176.396 73.4345 180.05C76.8226 183.71 79.4904 187.746 81.3803 192.055C83.2645 196.358 84.2153 200.622 84.2153 204.732C84.2153 207.743 83.7716 210.128 82.9015 211.818H82.89ZM71.5042 187.758C72.4261 188.264 73.1233 188.64 73.4402 188.816V190.706C72.8122 189.727 72.1611 188.737 71.5042 187.763V187.758ZM74.1662 204.271V193.307C76.6612 197.343 78.5108 200.844 78.5108 201.982C78.5108 206.462 77.7964 207.828 77.1971 208.192C76.8975 208.375 76.5229 208.346 76.0504 208.101C75.48 207.811 75.0306 207.367 74.6848 206.752C74.3391 206.138 74.1605 205.301 74.1605 204.271H74.1662Z" fill="#0B0B0B"></path><path d="M69.902 189.543L68.5617 190.42L68.9626 191.018L70.3029 190.141L69.902 189.543Z" fill="#0B0B0B"></path><path d="M66.1252 182.981L60.7786 186.479L61.1795 187.077L66.5261 183.579L66.1252 182.981Z" fill="#0B0B0B"></path><path d="M70.7054 213.622L65.3513 217.109L65.751 217.708L71.105 214.221L70.7054 213.622Z" fill="#0B0B0B"></path><path d="M68.6462 181.901C65.2178 178.195 61.3053 175.224 56.9146 172.981C52.2992 170.625 48.2312 169.571 44.7048 169.828C41.1784 170.084 38.453 171.507 36.5284 174.102C34.5982 176.698 33.6359 180.222 33.6359 184.673C33.6359 189.124 34.5924 193.689 36.5054 198.26C38.4184 202.831 41.1208 207.037 44.6126 210.88C48.1044 214.716 52.1436 217.807 56.7245 220.146C58.747 221.182 60.7637 221.985 62.7689 222.566C64.7741 223.146 66.4912 223.419 67.9144 223.397L66.1627 217.004C63.2529 217.027 60.1126 216.173 56.7302 214.449C53.4113 212.752 50.4784 210.492 47.9373 207.669C45.3905 204.846 43.4256 201.709 42.0312 198.26C40.6426 194.811 39.9454 191.355 39.9454 187.895C39.9454 184.434 40.6541 181.81 42.0773 179.812C43.5005 177.814 45.5 176.704 48.0756 176.482C50.6513 176.26 53.5957 176.994 56.9146 178.685C60.2624 180.398 63.2183 182.618 65.7767 185.344C68.335 188.077 70.3172 191.065 71.7289 194.315C73.1348 197.571 73.8378 200.821 73.8378 204.077C73.8378 209.388 72.841 211.534 70.8531 210.515C70.2192 210.191 69.7122 209.696 69.3376 209.018C68.9573 208.347 68.7672 207.459 68.7672 206.366V190.695L61.0403 186.75V189.266C59.4269 186.489 57.2315 184.394 54.4542 182.971C52.5585 182.003 50.8011 181.639 49.1935 181.872C47.5858 182.111 46.3009 182.965 45.3559 184.434C44.4052 185.902 43.9327 187.9 43.9327 190.439C43.9327 192.978 44.4167 195.465 45.379 197.907C46.3412 200.349 47.6319 202.523 49.2453 204.43C50.8587 206.332 52.5931 207.76 54.46 208.711C58.0325 210.532 60.5908 210.35 62.1408 208.164C62.7113 209.929 63.5929 211.494 64.7971 212.86C65.9956 214.227 67.4362 215.337 69.1129 216.196C71.1354 217.232 72.9274 217.574 74.4947 217.226C76.0562 216.879 77.2893 215.832 78.1939 214.079C79.0928 212.331 79.5423 209.912 79.5423 206.832C79.5423 202.654 78.5857 198.38 76.6727 194.014C74.7597 189.648 72.0919 185.612 68.6635 181.906L68.6462 181.901ZM59.8763 202.956C59.0063 203.537 57.8769 203.474 56.4882 202.768C55.0996 202.057 53.976 200.964 53.1232 199.484C52.2704 198.004 51.844 196.336 51.844 194.492C51.844 192.648 52.2704 191.424 53.1232 190.832C53.976 190.24 55.0996 190.297 56.4882 191.008C57.8769 191.72 59.0063 192.807 59.8763 194.281C60.7464 195.755 61.1785 197.412 61.1785 199.262C61.1785 201.112 60.7406 202.381 59.8763 202.962V202.956Z" fill="#F1ECFF"></path><path d="M56.6554 190.677C55.14 189.903 53.8839 189.852 52.9159 190.524C51.9478 191.19 51.4811 192.488 51.4811 194.48C51.4811 196.472 51.9248 198.123 52.8064 199.654C53.6937 201.191 54.875 202.341 56.3212 203.081C57.1337 203.496 57.877 203.707 58.5454 203.707C59.1158 203.707 59.6287 203.553 60.0781 203.251C61.0461 202.597 61.5417 201.253 61.5417 199.256C61.5417 197.258 61.0865 195.613 60.1876 194.093C59.2887 192.567 58.096 191.423 56.6497 190.683L56.6554 190.677ZM59.6748 202.654C58.9142 203.16 57.9289 203.092 56.6554 202.443C55.3359 201.766 54.2527 200.707 53.4402 199.295C52.622 197.878 52.2071 196.256 52.2071 194.48C52.2071 192.704 52.5874 191.628 53.3307 191.11C53.6592 190.882 54.0337 190.768 54.4543 190.768C54.9902 190.768 55.6067 190.951 56.3155 191.315C57.635 191.992 58.7298 193.045 59.5595 194.451C60.3893 195.863 60.8157 197.474 60.8157 199.25C60.8157 201.026 60.4296 202.141 59.669 202.654H59.6748Z" fill="#0B0B0B"></path><path d="M68.9171 181.661C65.4714 177.944 61.4898 174.916 57.0818 172.662C52.4261 170.283 48.2601 169.213 44.6818 169.469C41.0633 169.731 38.2226 171.216 36.2404 173.886C34.2755 176.533 33.2787 180.159 33.2787 184.667C33.2787 189.175 34.2525 193.797 36.1713 198.391C38.09 202.979 40.8385 207.259 44.3419 211.113C47.8452 214.966 51.9593 218.114 56.5574 220.459C58.5857 221.495 60.637 222.321 62.6652 222.901C64.6128 223.465 66.3069 223.749 67.7243 223.749C67.7877 223.749 67.8569 223.749 67.9202 223.749C68.0297 223.749 68.1392 223.692 68.2026 223.607C68.2717 223.522 68.289 223.408 68.2602 223.3L66.5085 216.907C66.4682 216.754 66.3242 216.645 66.157 216.645C63.3048 216.645 60.2048 215.814 56.8916 214.124C53.6303 212.456 50.7032 210.202 48.2025 207.424C45.696 204.641 43.7369 201.51 42.3655 198.117C40.9999 194.725 40.3027 191.281 40.3027 187.889C40.3027 184.496 40.9999 181.94 42.3713 180.011C43.7253 178.115 45.6499 177.045 48.1045 176.829C50.5995 176.612 53.5093 177.341 56.7476 178.997C60.0435 180.682 62.9937 182.897 65.5117 185.583C68.0297 188.27 70.0119 191.253 71.3948 194.452C72.7777 197.645 73.4749 200.884 73.4749 204.071C73.4749 208.551 72.7604 209.917 72.1611 210.282C71.8615 210.464 71.487 210.435 71.0145 210.191C70.444 209.9 69.9946 209.456 69.6489 208.841C69.3031 208.227 69.1245 207.39 69.1245 206.36V190.689C69.1245 190.558 69.0496 190.433 68.9286 190.37L61.2017 186.42C61.0864 186.363 60.9539 186.369 60.8444 186.431C60.7349 186.494 60.6716 186.614 60.6716 186.739V188.002C59.1043 185.703 57.0703 183.904 54.6099 182.646C52.6565 181.644 50.8127 181.269 49.1244 181.513C47.4131 181.77 46.0359 182.68 45.0333 184.234C44.0538 185.754 43.5525 187.837 43.5525 190.433C43.5525 193.029 44.048 195.556 45.0218 198.032C45.9956 200.502 47.3151 202.728 48.9458 204.652C50.5822 206.582 52.3742 208.05 54.2699 209.024C57.7099 210.783 60.3028 210.737 61.9911 208.893C62.573 210.447 63.4143 211.858 64.4976 213.088C65.7249 214.482 67.2115 215.632 68.9171 216.503C71.0087 217.573 72.8987 217.932 74.5466 217.562C76.2118 217.192 77.5371 216.071 78.4879 214.226C79.4098 212.433 79.8765 209.94 79.8765 206.821C79.8765 202.614 78.9027 198.254 76.9782 193.86C75.0594 189.477 72.3397 185.367 68.8998 181.656L68.9171 181.661ZM77.854 213.913C76.9955 215.575 75.8661 216.543 74.4026 216.873C72.9332 217.198 71.2046 216.867 69.2686 215.877C67.6437 215.046 66.2262 213.953 65.0623 212.627C63.8983 211.306 63.0282 209.769 62.4809 208.056C62.4405 207.925 62.3253 207.828 62.1927 207.811C62.0545 207.788 61.9219 207.851 61.8413 207.959C60.4008 209.997 58.0383 210.139 54.6272 208.392C52.8121 207.464 51.095 206.052 49.522 204.197C47.9432 202.335 46.664 200.172 45.719 197.776C44.774 195.385 44.2958 192.915 44.2958 190.439C44.2958 187.963 44.7567 186.033 45.6614 184.627C46.5603 183.238 47.73 182.453 49.2512 182.231C50.7781 182.003 52.4722 182.362 54.293 183.289C57.0011 184.673 59.1677 186.744 60.7349 189.443C60.8156 189.585 60.9827 189.653 61.144 189.613C61.3054 189.573 61.4149 189.431 61.4149 189.266V187.336L68.4158 190.917V206.365C68.4158 207.515 68.6232 208.471 69.0323 209.194C69.4472 209.929 70.0061 210.481 70.7033 210.834C71.4063 211.192 72.0286 211.215 72.5587 210.896C73.6938 210.213 74.2182 208.05 74.2182 204.077C74.2182 200.793 73.4979 197.463 72.0804 194.178C70.663 190.905 68.6405 187.849 66.0649 185.105C63.4892 182.356 60.4699 180.09 57.0991 178.371C53.734 176.652 50.6917 175.901 48.0584 176.129C45.3848 176.362 43.2759 177.535 41.795 179.612C40.3372 181.661 39.5939 184.451 39.5939 187.9C39.5939 191.349 40.3027 194.918 41.7086 198.396C43.1088 201.869 45.114 205.068 47.6781 207.914C50.2422 210.76 53.2327 213.065 56.5747 214.773C59.8822 216.463 63.0167 217.334 65.8977 217.368L67.4535 223.043C66.1686 223.009 64.6359 222.736 62.8842 222.229C60.9021 221.655 58.8911 220.852 56.9032 219.833C52.38 217.522 48.3408 214.431 44.895 210.646C41.4436 206.855 38.7411 202.643 36.8512 198.129C34.967 193.621 34.0105 189.095 34.0105 184.678C34.0105 180.261 34.9612 176.84 36.8339 174.318C38.6893 171.825 41.3514 170.436 44.7452 170.192C45.0737 170.169 45.4079 170.158 45.7536 170.158C48.9688 170.158 52.6623 171.216 56.7591 173.305C61.0922 175.52 65.0046 178.497 68.3927 182.151C71.7808 185.805 74.4544 189.847 76.3386 194.156C78.2228 198.459 79.1735 202.722 79.1735 206.832C79.1735 209.843 78.7299 212.228 77.8598 213.913H77.854Z" fill="#0B0B0B"></path><path d="M91.5502 210.401C93.4171 209.154 96.4941 209.097 98.4301 210.276C100.366 211.448 100.418 213.412 98.5511 214.659C96.6842 215.905 93.6073 215.962 91.6712 214.784C89.7351 213.611 89.6833 211.648 91.5502 210.401Z" fill="#0B0B0B"></path><path d="M95.0996 202.279C96.0561 202.267 96.8974 202.779 97.3526 203.542C97.5716 203.912 97.6983 204.345 97.7041 204.806L97.7732 211.636C97.7848 213.042 96.6439 214.192 95.2206 214.209C93.7974 214.221 92.6277 213.094 92.6162 211.688L92.547 204.857C92.5355 203.451 93.6764 202.301 95.0996 202.284V202.279Z" fill="#D7FF65"></path><path d="M95.0941 201.92C96.1371 201.937 97.1282 202.461 97.664 203.36C97.9233 203.793 98.0616 204.294 98.0674 204.8L98.1365 211.631C98.1423 212.405 97.8484 213.139 97.2953 213.691C96.7479 214.243 96.0103 214.557 95.2267 214.562H95.1979C94.4258 214.562 93.694 214.266 93.1408 213.731C92.5819 213.185 92.265 212.462 92.2592 211.688L92.1901 204.857C92.1728 203.258 93.4808 201.937 95.0999 201.926L95.0941 201.92ZM92.9737 211.682C92.9737 212.268 93.2157 212.815 93.6363 213.225C94.057 213.634 94.6274 213.862 95.2094 213.851C95.8029 213.851 96.356 213.612 96.7709 213.196C97.1858 212.781 97.4105 212.228 97.4047 211.642L97.3356 204.812C97.3356 204.43 97.2261 204.054 97.036 203.724C96.6384 203.053 95.9066 202.637 95.1172 202.637H95.0941C93.8726 202.649 92.8873 203.639 92.8988 204.846L92.9679 211.682H92.9737Z" fill="#0B0B0B"></path><path d="M96.9149 198.658L104.181 194.798C105.189 194.263 105.829 193.233 105.858 192.1L106.002 186.397C106.054 184.33 107.229 182.441 109.073 181.462L110.369 180.773C111.389 180.232 112.035 179.185 112.052 178.041L112.173 169.297C112.184 168.574 112.784 168 113.515 168.011C114.011 168.017 114.443 168.296 114.662 168.7C114.766 168.887 114.823 169.104 114.818 169.337L114.697 178.08C114.668 180.175 113.492 182.088 111.625 183.078L110.329 183.767C109.321 184.302 108.675 185.338 108.652 186.465L108.514 192.168C108.462 194.235 107.287 196.125 105.443 197.104L98.1768 200.963C97.1742 201.498 96.5289 202.528 96.5001 203.65C96.4828 204.372 95.872 204.942 95.146 204.919C94.4142 204.902 93.838 204.298 93.861 203.576C93.9187 201.515 95.0941 199.631 96.9322 198.658H96.9149Z" fill="#0B0B0B"></path><path d="M96.742 198.345L104.008 194.485C104.901 194.013 105.472 193.097 105.495 192.095L105.639 186.391C105.69 184.2 106.941 182.19 108.9 181.149L110.196 180.46C111.101 179.982 111.672 179.054 111.683 178.041L111.804 169.298C111.816 168.381 112.588 167.664 113.51 167.658C114.12 167.664 114.679 168 114.973 168.535C115.106 168.785 115.175 169.064 115.175 169.343L115.054 178.086C115.025 180.306 113.775 182.344 111.793 183.397L110.496 184.086C109.603 184.558 109.032 185.475 109.009 186.477L108.865 192.18C108.808 194.377 107.563 196.381 105.604 197.423L98.3381 201.282C97.4507 201.754 96.8803 202.665 96.8515 203.667C96.8284 204.572 96.0736 205.289 95.169 205.289C95.1517 205.289 95.1402 205.289 95.1229 205.289C94.6734 205.278 94.2528 205.09 93.9474 204.771C93.6362 204.447 93.4749 204.025 93.4864 203.581C93.5441 201.396 94.7944 199.392 96.7478 198.356L96.742 198.345ZM94.466 204.265C94.6388 204.447 94.8809 204.555 95.1402 204.561C95.1459 204.561 95.1574 204.561 95.169 204.561C95.6875 204.561 96.1139 204.151 96.1255 203.638C96.16 202.386 96.8745 201.236 97.9924 200.644L105.258 196.785C106.987 195.869 108.088 194.093 108.139 192.157L108.283 186.454C108.312 185.196 109.032 184.046 110.15 183.448L111.447 182.76C113.198 181.832 114.299 180.033 114.328 178.069L114.449 169.326C114.449 169.161 114.414 169.007 114.334 168.865C114.166 168.558 113.85 168.37 113.498 168.364C112.951 168.381 112.53 168.774 112.524 169.298L112.403 178.041C112.386 179.316 111.666 180.483 110.531 181.08L109.234 181.769C107.506 182.686 106.399 184.461 106.353 186.397L106.209 192.1C106.174 193.358 105.46 194.508 104.342 195.106L97.0762 198.965C95.3533 199.882 94.2528 201.646 94.1952 203.581C94.1894 203.838 94.2816 204.077 94.4545 204.259L94.466 204.265Z" fill="#0B0B0B"></path><path d="M117.457 154.265L152.507 135.253C153.792 134.553 155.313 134.582 156.575 135.316C157.837 136.056 158.592 137.359 158.592 138.811V147.827C158.592 148.22 158.269 148.544 157.866 148.544C157.463 148.544 157.14 148.226 157.14 147.827V138.811C157.14 137.872 156.65 137.029 155.832 136.551C155.014 136.073 154.028 136.056 153.199 136.511L118.148 155.523C115.699 156.849 114.178 159.394 114.178 162.154V169.036C114.178 169.429 113.855 169.753 113.452 169.753C113.049 169.753 112.726 169.435 112.726 169.036V162.154C112.726 158.87 114.535 155.853 117.451 154.271L117.457 154.265Z" fill="#0B0B0B"></path><path d="M158.938 144.48C161.773 144.48 163.91 145.744 163.91 147.418C163.91 149.091 161.773 150.355 158.938 150.355C156.103 150.355 153.965 149.091 153.965 147.418C153.965 145.744 156.103 144.48 158.938 144.48Z" fill="#0B0B0B"></path><path d="M158.938 144.121C161.98 144.121 164.273 145.538 164.273 147.417C164.273 149.295 161.98 150.713 158.938 150.713C155.895 150.713 153.602 149.295 153.602 147.417C153.602 145.538 155.895 144.121 158.938 144.121ZM158.938 149.995C161.525 149.995 163.547 148.863 163.547 147.417C163.547 145.971 161.519 144.838 158.938 144.838C156.356 144.838 154.328 145.971 154.328 147.417C154.328 148.863 156.351 149.995 158.938 149.995Z" fill="#0B0B0B"></path><path d="M158.938 146.198C160.943 146.198 162.458 147.092 162.458 148.276C162.458 149.46 160.943 150.354 158.938 150.354C156.933 150.354 155.417 149.46 155.417 148.276C155.417 147.092 156.933 146.198 158.938 146.198Z" fill="#D7FF65"></path><path d="M158.938 145.84C161.151 145.84 162.822 146.887 162.822 148.276C162.822 149.665 161.151 150.712 158.938 150.712C156.725 150.712 155.054 149.665 155.054 148.276C155.054 146.887 156.725 145.84 158.938 145.84ZM158.938 149.995C160.707 149.995 162.096 149.238 162.096 148.276C162.096 147.314 160.707 146.557 158.938 146.557C157.169 146.557 155.78 147.314 155.78 148.276C155.78 149.238 157.169 149.995 158.938 149.995Z" fill="#0B0B0B"></path></g><defs><clipPath id="clip0_4151_3245"><rect width="264.698" height="239.709" fill="white" transform="matrix(-1 0 0 1 264.902 0.65625)"></rect></clipPath></defs></svg>