<svg xmlns="http://www.w3.org/2000/svg" width="113" height="154" viewBox="0 0 113 154" fill="none"><g clip-path="url(#clip0_4117_3716)"><g style="mix-blend-mode:multiply" opacity="0.5"><path d="M24.9606 145.337L85.0766 154L75.6181 131.341L113 132.805C113 132.805 112.381 124.546 108.246 121.131L57.9064 115.983L65.423 136.455L32.5441 135.732L24.9438 145.337H24.9606Z" fill="#32303C"></path></g><path d="M8.88916 74.3503C8.93938 75.6792 10.0778 77.1091 11.1994 77.2941C17.4604 78.3034 23.8889 80.9107 30.468 81.9704C31.6901 82.1723 32.8619 83.7872 32.7782 85.1497L25.1109 144.933L33.8831 136.64C33.8831 136.64 54.6918 77.8828 58.7933 66.377C59.262 65.0481 57.9563 62.9454 56.55 62.7436L39.7926 58.4709C38.7379 58.2018 38.0683 57.1757 38.2357 56.1159L46.5056 3.44811C46.74 1.95101 45.5346 0.992185 44.346 1.00901C43.6429 1.02583 37.0806 5.26482 36.6955 6.08907L8.88916 74.3503Z" fill="#FFFCB0"></path><path d="M25.1111 145.943C24.9605 145.943 24.7931 145.909 24.6591 145.825C24.2741 145.623 24.0565 145.219 24.1234 144.799L31.7907 85.0154C31.8409 84.1743 30.9704 83.0809 30.3175 82.9632C26.9191 82.4249 23.5542 81.4661 20.3065 80.5409C17.0923 79.6325 14.0622 78.7747 11.0322 78.2868C9.42505 78.0345 7.95187 76.2178 7.86816 74.4011C7.86816 74.2497 7.8849 74.1151 7.93513 73.9806L35.7582 5.70246C36.2772 4.57542 43.1409 0.0168214 44.3128 0C45.2502 0 46.1877 0.386892 46.7904 1.07657C47.3931 1.76625 47.6274 2.65778 47.4935 3.59978L39.2068 56.2676C39.1231 56.8227 39.4579 57.361 40.0104 57.4956L56.7679 61.7682C57.6384 61.886 58.6093 62.6093 59.2455 63.669C59.8649 64.712 60.0491 65.8222 59.7142 66.7305C55.6128 78.2364 34.804 136.994 34.804 136.994C34.7538 137.145 34.6534 137.28 34.5529 137.397L25.7808 145.69C25.5966 145.875 25.3455 145.959 25.0944 145.959L25.1111 145.943ZM9.91054 74.502C10.0445 75.3431 10.7978 76.201 11.367 76.2851C14.5142 76.7897 17.7452 77.6981 20.859 78.5896C24.0565 79.498 27.3544 80.4232 30.6356 80.9614C32.3431 81.2306 33.9 83.3333 33.7828 85.2004L26.4671 142.259L33.0128 136.068C34.419 132.065 53.8885 77.1093 57.8393 66.024C57.9565 65.7212 57.8393 65.183 57.5379 64.6951C57.2199 64.1737 56.7679 63.7868 56.3996 63.7363L39.5249 59.4469C37.968 59.0431 36.9803 57.546 37.2314 55.948L45.5181 3.28017C45.5683 2.92693 45.5014 2.64096 45.3005 2.40546C45.0828 2.15314 44.7313 1.98493 44.3797 2.01857C43.6431 2.25407 38.1856 5.78656 37.5662 6.61081L9.91054 74.502Z" fill="#004643"></path><path d="M1.00439 80.4899C1.07136 81.8188 2.19299 83.2486 3.31462 83.4337C9.57565 84.443 16.0041 87.0503 22.5832 88.11C23.8053 88.3119 24.9771 89.9268 24.8934 91.2893L21.562 142.477C21.4114 144.765 25.1111 144.95 25.1111 144.95C25.1111 144.95 46.8071 84.0224 50.9085 72.5166C51.3773 71.1877 50.0715 69.085 48.6485 68.8832L31.7069 64.5601C30.7694 64.3246 30.15 63.3994 30.3007 62.4238L38.8385 8.15788C39.1733 5.98792 36.1934 5.06274 35.2727 7.06449L1.00439 80.4899Z" fill="#D7FF65"></path><path d="M25.1111 145.942C25.1111 145.942 25.0776 145.942 25.0609 145.942C24.793 145.942 22.4493 145.774 21.244 144.428C20.7418 143.857 20.5074 143.167 20.5576 142.393L23.889 91.2055C23.956 90.314 23.0855 89.2038 22.4326 89.1028C19.0342 88.5645 15.6861 87.6057 12.4384 86.6805C9.22415 85.7722 6.19407 84.9143 3.164 84.4265C1.55689 84.1741 0.0837037 82.3574 0 80.5407C0 80.3725 0.0334815 80.2211 0.100444 80.0697L34.3687 6.62746C34.9881 5.28175 36.4111 4.64254 37.8341 5.07989C39.2403 5.51725 40.0773 6.84614 39.843 8.3096L31.3052 62.5586C31.2382 63.0128 31.5228 63.4502 31.9581 63.5511L48.8997 67.8742C49.7702 67.992 50.7412 68.7153 51.3773 69.775C51.9967 70.818 52.1809 71.9282 51.8461 72.8365L26.0486 145.27C25.8979 145.673 25.5296 145.942 25.0944 145.942H25.1111ZM2.02563 80.6585C2.1763 81.4995 2.91289 82.3406 3.46533 82.4247C6.61259 82.9294 9.84356 83.8377 12.9741 84.7293C16.1716 85.6376 19.4695 86.5628 22.7507 87.1011C24.4582 87.3702 26.0151 89.4729 25.8979 91.3401L22.5665 142.528C22.5665 142.763 22.6 142.931 22.7507 143.083C23.1022 143.47 23.8221 143.705 24.4415 143.823L49.9711 72.1637C50.0883 71.8609 49.9711 71.3226 49.6698 70.8348C49.3517 70.3133 48.8997 69.9264 48.5314 69.876L31.4893 65.536C30.0329 65.166 29.1121 63.753 29.3465 62.2727L37.8508 8.00682C37.968 7.30032 37.4156 7.06482 37.2314 7.01435C37.064 6.96389 36.4781 6.84614 36.1767 7.48535L2.02563 80.6585Z" fill="#004643"></path><path d="M51.0089 71.2387C50.6741 71.2387 50.3393 71.0705 50.1384 70.7509C49.8538 70.2799 50.0045 69.6575 50.49 69.3715L58.0735 64.8129C58.5422 64.527 59.1617 64.6784 59.4462 65.1662C59.7308 65.6372 59.5802 66.2596 59.0947 66.5455L51.5111 71.1041C51.3437 71.2051 51.1763 71.2387 50.9922 71.2387H51.0089Z" fill="#004643"></path><path d="M30.8029 63.7865C30.4513 63.7865 30.1332 63.6183 29.9323 63.2987C29.6478 62.8277 29.7984 62.2053 30.2839 61.9194L37.8675 57.3608C38.3362 57.0748 38.9556 57.2262 39.2402 57.714C39.5248 58.185 39.3741 58.8074 38.8886 59.0934L31.3051 63.652C31.1377 63.7529 30.9703 63.8034 30.7861 63.8034L30.8029 63.7865Z" fill="#004643"></path></g><defs><clipPath id="clip0_4117_3716"><rect width="113" height="154" fill="white"></rect></clipPath></defs></svg>