<svg xmlns="http://www.w3.org/2000/svg" width="479" height="386" viewBox="0 0 479 386" fill="none"><g clip-path="url(#clip0_3899_13778)"><path d="M98.9638 308.761L137.125 305.158L140.147 243.965C140.147 243.965 136.97 243.987 134.121 243.683C131.272 243.379 105.932 243.27 103.054 243.615C100.176 243.959 95.7698 246.145 95.7698 246.145C95.7698 246.145 100.44 277.212 98.6995 287.459C96.9589 297.711 98.9638 308.756 98.9638 308.756V308.761Z" fill="#FFEFE4"></path><path d="M102.945 338.951C107.954 345.429 116.272 349.892 121.224 342.898C125.452 336.932 117.444 317.413 123.384 311.906C129.324 306.404 138.59 304.711 138.59 304.711C138.59 304.711 142.623 295.244 142.744 291.59L94.5977 305.526C94.5977 305.526 97.9353 332.468 102.939 338.945L102.945 338.951Z" fill="#FFEFE4"></path><path d="M72.4006 301.693C75.7555 308.848 95.7526 312.824 95.7526 312.824L107.322 296.128C107.322 296.128 113.021 292.806 111.74 287.063C110.867 283.156 105.582 275.594 87.9973 279.754C70.4072 283.919 69.0457 294.539 72.4063 301.693H72.4006Z" fill="#FFEFE4"></path><path d="M74.021 286.817L105.025 279.881C105.025 279.881 111.292 277.488 111.137 271.648C111.034 267.672 107.282 259.427 89.1179 260.816C70.9476 262.204 68.4544 270.954 69.477 279.984C69.7987 282.807 71.6427 285.056 74.0267 286.812L74.021 286.817Z" fill="#FFEFE4"></path><path d="M77.9325 263.541L106.248 263.713C106.248 263.713 110.223 263.266 111.562 258.309C112.475 254.935 111.631 247.385 97.2115 245.698C82.7924 244.011 77.8808 251.172 77.2029 258.796C77.0478 260.523 77.2144 262.101 77.9325 263.541Z" fill="#FFEFE4"></path><path d="M134.379 243.265C113.463 234.338 96.2002 245.583 96.2002 245.583L140.399 243.58L134.379 243.259V243.265Z" fill="#FFEFE4"></path><path d="M102.675 339.164C105.57 342.911 110.356 346.886 115.095 346.789C117.663 346.737 119.823 345.498 121.517 343.106C123.557 340.231 122.885 334.563 122.178 328.567C121.391 321.901 120.575 315.004 123.631 312.17C129.428 306.8 138.573 305.079 138.665 305.062L138.539 304.379C138.447 304.396 129.106 306.152 123.16 311.66C119.846 314.729 120.679 321.803 121.489 328.648C122.184 334.511 122.833 340.048 120.954 342.704C119.398 344.907 117.421 346.049 115.083 346.095C111.338 346.169 106.794 343.358 103.232 338.74C98.3377 332.411 94.9886 305.756 94.9599 305.486L94.2705 305.572C94.4084 306.674 97.6771 332.681 102.686 339.164H102.675Z" fill="#111111"></path><path d="M72.0911 301.842C75.4862 309.077 94.8687 313.001 95.6901 313.162L95.828 312.479C95.6269 312.439 75.963 308.457 72.7231 301.544C70.0863 295.921 71.1433 290.121 75.5494 286.03L75.0784 285.52C70.4367 289.822 69.328 295.927 72.0969 301.836L72.0911 301.842Z" fill="#111111"></path><path d="M73.814 287.097L74.2277 286.54C71.5736 284.59 70.0915 282.375 69.8158 279.954C68.506 268.387 74.6413 264.773 79.3749 263.063L79.1393 262.409C68.799 266.15 68.4715 274.257 69.1264 280.028C69.4251 282.645 70.9992 285.026 73.814 287.097Z" fill="#111111"></path><path d="M86.9172 261.126L87.4802 260.718C86.113 258.813 86.4921 256.891 86.6357 256.346C87.4859 253.225 89.8987 252.904 89.9963 252.893L89.9159 252.204C89.7953 252.216 86.9402 252.577 85.9636 256.169C85.797 256.788 85.3662 258.974 86.9115 261.126H86.9172Z" fill="#111111"></path><path d="M82.0808 281.194L82.6438 280.787C81.2765 278.882 81.6557 276.96 81.7993 276.415C82.6495 273.294 85.0623 272.972 85.1599 272.961L85.0795 272.272C84.9589 272.284 82.1038 272.645 81.1272 276.237C80.9606 276.857 80.5297 279.042 82.075 281.194H82.0808Z" fill="#111111"></path><path d="M81.3919 295.606C81.6791 296.18 82.8223 298.096 85.4074 298.67L85.5567 297.993C83.2646 297.488 82.2651 295.801 82.0123 295.296C80.5589 292.404 82.1387 290.557 82.2076 290.482L81.6906 290.023C81.6102 290.115 79.7202 292.284 81.3919 295.612V295.606Z" fill="#111111"></path><path d="M77.6222 263.695L78.2426 263.386C77.605 262.106 77.3867 260.66 77.5475 258.825C77.9209 254.619 79.5582 251.228 82.2754 249.019C85.6475 246.283 90.6568 245.279 97.1712 246.042C97.4642 246.076 97.7572 246.111 98.0387 246.151L98.1364 245.462C97.8491 245.422 97.5504 245.382 97.2517 245.348C90.5477 244.562 85.3603 245.617 81.8388 248.48C78.9722 250.81 77.2488 254.367 76.8582 258.761C76.6858 260.729 76.9271 262.296 77.6222 263.69V263.695Z" fill="#111111"></path><path d="M134.242 243.58C134.282 243.598 134.322 243.603 134.362 243.609L141.647 243.994L141.681 243.299L134.46 242.921C113.636 234.068 96.1836 245.181 96.0112 245.296L96.3904 245.875C96.5627 245.766 113.745 234.837 134.242 243.586V243.58Z" fill="#111111"></path><path d="M121.764 340.145L122.442 339.984C122.345 339.588 120.116 330.311 119.754 329.261C119.558 328.693 120.529 327.551 121.282 326.915L120.834 326.387C120.61 326.576 118.674 328.251 119.099 329.485C119.449 330.506 121.747 340.053 121.77 340.145H121.764Z" fill="#111111"></path><path d="M134.351 308.424C134.42 308.424 162.569 310.07 162.569 310.07C167.36 310.323 172.065 295.154 173.076 276.192C174.087 257.224 171.013 241.648 166.222 241.395C166.222 241.395 138.579 240.076 137.987 240.047C133.213 239.794 127.124 255.916 126.125 274.803C125.119 293.685 129.583 308.177 134.357 308.43L134.351 308.424Z" fill="#D8C7FF"></path><path d="M126.119 274.797C125.114 293.679 129.577 308.171 134.351 308.423C134.42 308.423 162.569 310.07 162.569 310.07C167.36 310.322 172.065 295.153 173.076 276.191C173.914 260.42 171.933 247 168.486 242.777C166.498 250.115 165.418 251.016 162.764 250.878C162.764 250.878 134.621 249.238 134.546 249.232C133.621 249.186 131.404 248.842 130.307 251.234C128.222 257.499 126.602 265.836 126.125 274.797H126.119Z" fill="white"></path><path d="M127.734 298.687C129.388 304.963 131.795 308.641 134.334 308.773C134.455 308.779 162.552 310.42 162.552 310.42C165.045 310.551 167.538 307.006 169.572 300.442C171.565 294.017 172.933 285.411 173.421 276.214C174.369 258.428 171.807 243.987 167.492 241.446C167.09 241.211 166.671 241.073 166.24 241.05C165.964 241.038 138.591 239.73 138.011 239.702C132.697 239.421 126.751 256.472 125.78 274.785C125.309 283.626 126.005 292.118 127.739 298.692L127.734 298.687ZM137.965 240.39C138.551 240.419 165.924 241.727 166.2 241.738C166.544 241.756 166.872 241.865 167.199 242.054C171.146 244.383 173.633 259.145 172.726 276.174C172.237 285.319 170.882 293.862 168.906 300.236C166.998 306.375 164.695 309.834 162.586 309.725C161.438 309.656 134.438 308.084 134.369 308.079C133.99 308.056 133.61 307.935 133.231 307.712C131.433 306.65 129.687 303.363 128.406 298.509C126.688 292.003 125.999 283.586 126.47 274.814C126.935 266.059 128.578 257.143 130.968 250.356C133.208 243.999 135.828 240.27 137.971 240.384L137.965 240.39Z" fill="#111111"></path><path d="M162.069 305.388C166.366 305.618 170.582 292.02 171.484 275.021C172.386 258.021 169.635 244.051 165.338 243.827C161.041 243.598 156.824 257.195 155.922 274.195C155.02 291.194 157.772 305.164 162.069 305.388Z" fill="#D8C7FF"></path><path d="M157.525 257.213C160.329 257.362 162.724 255.211 162.873 252.405C163.023 249.606 160.869 247.213 158.059 247.064C155.256 246.915 152.855 249.066 152.711 251.872C152.562 254.672 154.716 257.064 157.525 257.213Z" fill="#DCDCE6"></path><path d="M157.507 257.563C160.5 257.723 163.062 255.417 163.223 252.428C163.298 250.982 162.809 249.588 161.839 248.509C161.459 248.091 161.029 247.735 160.558 247.459C159.817 247.023 158.972 246.765 158.087 246.719C156.64 246.645 155.244 247.132 154.164 248.102C153.084 249.072 152.446 250.403 152.371 251.848C152.211 254.838 154.52 257.396 157.513 257.557L157.507 257.563ZM154.623 248.624C155.565 247.781 156.778 247.35 158.047 247.419C159.311 247.488 160.477 248.045 161.322 248.98C162.166 249.921 162.597 251.131 162.528 252.394C162.39 254.998 160.155 257.006 157.542 256.869C156.755 256.828 156.025 256.593 155.393 256.22C153.917 255.348 152.963 253.713 153.061 251.889C153.13 250.626 153.681 249.462 154.623 248.618V248.624Z" fill="#111111"></path><path d="M157.611 255.629C159.541 255.732 161.184 254.252 161.287 252.324C161.391 250.397 159.909 248.756 157.978 248.653C156.048 248.549 154.405 250.03 154.302 251.951C154.198 253.879 155.68 255.52 157.611 255.623V255.629Z" fill="#8B75F3"></path><path d="M160.805 251.251L161.472 251.056C161.19 250.109 160.558 249.329 159.742 248.847C159.225 248.543 158.628 248.354 158.002 248.325L157.967 249.019C159.289 249.094 160.432 249.989 160.805 251.257V251.251Z" fill="#111111"></path><path d="M154.951 254.693C155.634 255.451 156.571 255.898 157.593 255.955C159.133 256.036 160.563 255.198 161.235 253.81L160.609 253.506C160.058 254.636 158.886 255.33 157.628 255.261C156.789 255.215 156.025 254.848 155.468 254.229C154.91 253.609 154.623 252.806 154.669 251.974C154.738 250.706 155.554 249.616 156.749 249.191L156.513 248.537C155.054 249.059 154.054 250.39 153.974 251.934C153.922 252.955 154.267 253.93 154.951 254.693Z" fill="#111111"></path><path d="M156.605 253.851C156.99 253.874 157.317 253.576 157.34 253.191C157.363 252.807 157.065 252.48 156.68 252.457C156.295 252.44 155.967 252.732 155.944 253.117C155.921 253.501 156.22 253.828 156.605 253.851Z" fill="#111111"></path><path d="M158.794 253.965C159.179 253.988 159.507 253.689 159.53 253.305C159.553 252.921 159.254 252.594 158.869 252.571C158.484 252.548 158.157 252.846 158.134 253.23C158.111 253.615 158.41 253.942 158.794 253.965Z" fill="#111111"></path><path d="M156.721 251.711C157.106 251.734 157.433 251.435 157.456 251.051C157.479 250.667 157.18 250.34 156.795 250.317C156.411 250.294 156.083 250.592 156.06 250.976C156.037 251.361 156.336 251.688 156.721 251.711Z" fill="#111111"></path><path d="M158.909 251.825C159.294 251.848 159.621 251.55 159.644 251.165C159.661 250.781 159.368 250.454 158.983 250.431C158.598 250.408 158.271 250.706 158.248 251.091C158.225 251.475 158.524 251.802 158.909 251.825Z" fill="#111111"></path><path d="M150.498 107.396L15.7061 181.774C6.14127 187.052 0.258757 197.11 0.350671 208.022C0.442585 218.934 6.49744 228.894 16.1484 234.006L58.2165 256.301L91.6618 237.253L43.4642 209.33C42.2119 208.607 42.2291 206.794 43.4987 206.094L80.6206 185.612C84.9003 183.248 90.0993 183.26 94.3733 185.629L135.688 208.022C139.789 210.248 144.741 210.271 148.866 208.085L168.49 197.672C171.77 195.928 171.793 191.24 168.53 189.468L128.066 167.54C124.877 165.767 124.883 161.183 128.077 159.421L167.307 137.775C173.063 134.602 179.934 134.59 185.696 137.757L230.154 162.164L246.899 131.745L202.442 107.338C186.167 98.4053 166.75 98.4283 150.498 107.396Z" fill="#8B75F3"></path><path d="M241.396 133.087L200.592 110.683C193.187 106.621 184.863 104.47 176.516 104.47C168.169 104.47 159.77 106.638 152.342 110.735L17.5559 185.119C9.2204 189.72 4.09044 198.481 4.17661 207.993C4.25703 217.506 9.53062 226.181 17.9465 230.638L51.1104 248.212C51.1621 248.24 51.2195 248.252 51.2712 248.252C51.3976 248.252 51.5182 248.183 51.5814 248.068C51.6733 247.896 51.6044 247.69 51.4378 247.598L18.274 230.025C10.0878 225.687 4.95213 217.242 4.87745 207.988C4.79703 198.733 9.78912 190.202 17.9006 185.727L152.693 111.343C160.017 107.304 168.261 105.164 176.527 105.164C184.794 105.164 192.969 107.281 200.27 111.291L241.074 133.695C241.241 133.787 241.453 133.724 241.545 133.558C241.637 133.391 241.574 133.179 241.407 133.087H241.396Z" fill="white"></path><path d="M170.119 196.691L126.204 170.879C123.516 169.388 121.85 166.548 121.85 163.472C121.85 160.397 123.527 157.569 126.221 156.083L165.451 134.436C168.847 132.566 172.673 131.573 176.51 131.573C180.347 131.573 184.145 132.554 187.528 134.413L213.689 148.774C213.856 148.865 214.068 148.802 214.16 148.636C214.252 148.469 214.189 148.257 214.022 148.165L187.861 133.805C184.374 131.894 180.451 130.879 176.51 130.879C172.569 130.879 168.611 131.9 165.113 133.828L125.882 155.475C122.97 157.081 121.155 160.145 121.149 163.472C121.149 166.8 122.947 169.87 125.859 171.487L169.774 197.299C169.872 197.351 169.889 197.362 169.884 197.448C169.884 197.534 169.866 197.546 169.809 197.575L150.185 207.988C147.451 209.439 143.998 209.422 141.287 207.948L96.556 181.688C93.7813 180.145 90.639 179.336 87.4679 179.336C84.2969 179.336 81.189 180.139 78.4259 181.665L41.304 202.148C39.2933 203.255 38.0353 205.372 38.0123 207.661C37.9893 209.95 39.2072 212.09 41.1891 213.238L77.7882 234.437C77.9548 234.535 78.1674 234.477 78.265 234.311C78.3627 234.144 78.3052 233.932 78.1386 233.835L41.5395 212.635C39.7701 211.608 38.6844 209.709 38.7074 207.667C38.7304 205.624 39.8506 203.742 41.6429 202.756L78.7648 182.274C81.4246 180.805 84.4348 180.03 87.4679 180.03C90.5011 180.03 93.5458 180.816 96.217 182.296L140.953 208.556C142.43 209.359 144.096 209.778 145.773 209.778C147.451 209.778 149.059 209.37 150.513 208.596L170.136 198.183C170.429 198.028 170.579 197.781 170.579 197.448C170.579 196.949 170.234 196.76 170.108 196.691H170.119Z" fill="white"></path><path d="M169.263 189.532L128.232 167.236C126.848 166.467 126.021 165.062 126.021 163.478C126.021 161.895 126.853 160.495 128.238 159.726L131.265 158.056L130.932 157.448L127.905 159.118C126.291 160.007 125.331 161.636 125.325 163.478C125.325 165.32 126.285 166.949 127.893 167.844L168.924 190.146C170.343 190.915 171.188 192.338 171.176 193.95C171.17 195.562 170.314 196.979 168.884 197.737L149.26 208.15C145.227 210.29 140.425 210.267 136.415 208.092L94.5284 185.331C90.1222 182.882 84.8544 182.876 80.4425 185.314L76.2317 187.638L76.5649 188.246L80.7757 185.922C84.9808 183.605 89.9959 183.61 94.1895 185.94L136.076 208.701C138.208 209.854 140.546 210.433 142.889 210.433C145.233 210.433 147.485 209.877 149.588 208.764L169.211 198.351C170.866 197.473 171.86 195.826 171.871 193.956C171.883 192.085 170.9 190.433 169.257 189.538L169.263 189.532Z" fill="#111111"></path><path d="M150.332 107.092L15.5336 181.47C5.85961 186.812 -0.0918414 196.989 7.29127e-05 208.028C0.0919872 219.067 6.21578 229.141 15.9817 234.316L45.1243 249.761L45.4517 249.147L16.3091 233.702C6.76726 228.648 0.787089 218.808 0.695175 208.022C0.603261 197.236 6.41684 187.299 15.8725 182.078L150.665 107.694C166.813 98.7843 186.104 98.7613 202.269 107.637L246.727 132.043L247.06 131.435L202.602 107.029C186.224 98.0384 166.681 98.0614 150.326 107.086L150.332 107.092Z" fill="#111111"></path><path d="M43.6649 206.398L81.637 185.445L81.3038 184.837L43.3317 205.789C42.6251 206.18 42.2 206.891 42.1885 207.7C42.1828 208.503 42.5907 209.226 43.2915 209.633L78.6096 230.098L78.96 229.496L43.6419 209.031C43.1651 208.756 42.8836 208.257 42.8894 207.706C42.8951 207.155 43.1881 206.662 43.6707 206.398H43.6649Z" fill="#111111"></path><path d="M167.135 137.472L126.997 159.623L127.336 160.232L167.474 138.08C173.121 134.965 179.871 134.953 185.529 138.063L211.116 152.113L211.449 151.505L185.862 137.455C179.997 134.236 172.994 134.242 167.135 137.472Z" fill="#111111"></path><g style="mix-blend-mode:multiply" opacity="0.5"><path d="M79.1643 161.971L85.4644 167.391H127.161L132.722 165.58L131.029 161.971H79.1643Z" fill="#32303C"></path></g><path d="M76.2693 162.91L84.2082 167.323V122.635L76.2693 118.215V162.91Z" fill="#D7FF65"></path><path d="M84.4304 122.24L76.4915 117.826C76.3504 117.746 76.1825 117.753 76.0415 117.826C75.9004 117.907 75.8198 118.055 75.8198 118.215V162.91C75.8198 163.078 75.9071 163.226 76.0549 163.306L83.9938 167.727C84.061 167.767 84.1416 167.787 84.2155 167.787C84.2893 167.787 84.3767 167.767 84.4438 167.727C84.5849 167.646 84.6655 167.499 84.6655 167.338V122.643C84.6655 122.482 84.5782 122.327 84.4304 122.247V122.24ZM83.752 166.559L76.7198 162.649V118.994L83.752 122.904V166.559Z" fill="#111111"></path><path d="M76.2695 118.229L84.2555 122.65L91.5026 118.598L83.5166 114.171L76.2695 118.229Z" fill="#F8E3C3"></path><path d="M91.7244 118.202L83.7385 113.775C83.5974 113.701 83.4362 113.701 83.2952 113.775L76.0481 117.833C75.907 117.914 75.813 118.068 75.813 118.229C75.813 118.39 75.9003 118.544 76.0481 118.625L84.034 123.052C84.1012 123.092 84.1818 123.112 84.2557 123.112C84.3295 123.112 84.4101 123.092 84.4773 123.052L91.7244 118.994C91.8655 118.913 91.9595 118.759 91.9528 118.598C91.9461 118.437 91.8655 118.283 91.7177 118.202H91.7244ZM84.2557 122.133L77.2033 118.222L83.5168 114.687L90.5692 118.598L84.2557 122.133Z" fill="#111111"></path><path d="M84.356 167.39L91.5023 163.58V118.597L84.356 122.601V167.39Z" fill="#D7FF65"></path><path d="M91.2813 118.201L84.135 122.212C83.9939 122.293 83.8999 122.447 83.8999 122.608V167.397C83.8999 167.558 83.9805 167.706 84.1215 167.786C84.1954 167.826 84.276 167.853 84.3566 167.853C84.4305 167.853 84.5044 167.833 84.5716 167.799L91.7179 163.989C91.8657 163.909 91.9597 163.755 91.9597 163.587V118.597C91.9597 118.436 91.8724 118.288 91.7381 118.208C91.597 118.127 91.4291 118.127 91.2881 118.208L91.2813 118.201ZM91.053 163.312L84.8133 166.632V122.87L91.053 119.368V163.305V163.312Z" fill="#111111"></path><g style="mix-blend-mode:multiply" opacity="0.5"><path d="M98.1865 172.645L104.487 178.065H137.095L142.663 176.253L140.971 172.645H98.1865Z" fill="#32303C"></path></g><g style="mix-blend-mode:multiply" opacity="0.5"><path d="M117.321 182.391L122.52 187.811H149.399L153.987 185.993L152.59 182.391H117.321Z" fill="#32303C"></path></g><path d="M114.433 183.322L122.372 187.742V161.192L114.433 156.778V183.322Z" fill="#D7FF65"></path><path d="M122.587 160.797L114.648 156.383C114.507 156.303 114.339 156.309 114.198 156.383C114.057 156.464 113.976 156.611 113.976 156.772V183.322C113.976 183.49 114.063 183.637 114.211 183.718L122.15 188.138C122.217 188.179 122.291 188.199 122.372 188.199C122.452 188.199 122.533 188.179 122.6 188.138C122.741 188.058 122.822 187.91 122.822 187.749V161.199C122.822 161.032 122.734 160.884 122.587 160.804V160.797ZM121.915 186.971L114.883 183.06V157.55L121.915 161.461V186.971Z" fill="#111111"></path><path d="M95.2979 173.582L103.237 177.996V142.377L95.2979 137.963V173.582Z" fill="#D7FF65"></path><path d="M103.452 141.981L95.513 137.567C95.3719 137.493 95.204 137.493 95.063 137.567C94.9219 137.648 94.8413 137.795 94.8413 137.956V173.575C94.8413 173.743 94.9286 173.89 95.0764 173.971L103.015 178.385C103.082 178.425 103.163 178.445 103.237 178.445C103.311 178.445 103.398 178.425 103.465 178.385C103.606 178.304 103.687 178.157 103.687 177.996V142.377C103.687 142.209 103.6 142.061 103.452 141.981ZM102.774 177.224L95.7413 173.314V138.734L102.774 142.645V177.224Z" fill="#111111"></path><path d="M95.2979 137.97L103.277 142.397L110.524 138.338L102.545 133.918L95.2979 137.97Z" fill="#F8E3C3"></path><path d="M110.745 137.944L102.759 133.516C102.618 133.442 102.457 133.442 102.316 133.516L95.0691 137.575C94.928 137.655 94.834 137.809 94.834 137.97C94.834 138.138 94.9213 138.286 95.0691 138.366L103.055 142.793C103.122 142.834 103.203 142.854 103.277 142.854C103.351 142.854 103.431 142.834 103.498 142.793L110.745 138.735C110.886 138.655 110.98 138.5 110.974 138.339C110.974 138.172 110.886 138.024 110.739 137.944H110.745ZM103.277 141.874L96.2243 137.97L102.538 134.435L109.59 138.346L103.277 141.881V141.874Z" fill="#111111"></path><path d="M103.384 178.063L110.523 174.26V138.339L103.384 142.35V178.063Z" fill="#D7FF65"></path><path d="M110.302 137.943L103.156 141.955C103.015 142.035 102.927 142.189 102.927 142.35V178.063C102.927 178.224 103.008 178.372 103.149 178.452C103.223 178.493 103.303 178.519 103.384 178.519C103.458 178.519 103.532 178.499 103.599 178.466L110.745 174.656C110.893 174.575 110.987 174.421 110.987 174.253V138.339C110.987 138.178 110.9 138.031 110.759 137.95C110.618 137.87 110.45 137.87 110.309 137.95L110.302 137.943ZM110.074 173.985L103.834 177.305V142.612L110.074 139.11V173.978V173.985Z" fill="#111111"></path><path d="M114.434 156.784L122.42 161.211L129.667 157.153L121.681 152.732L114.434 156.784Z" fill="#F8E3C3"></path><path d="M129.882 156.758L121.896 152.331C121.755 152.257 121.593 152.257 121.452 152.331L114.205 156.389C114.064 156.47 113.97 156.624 113.97 156.785C113.97 156.952 114.058 157.1 114.205 157.181L122.191 161.608C122.258 161.648 122.339 161.661 122.413 161.661C122.487 161.661 122.567 161.641 122.635 161.601L129.882 157.543C130.023 157.462 130.117 157.308 130.117 157.147C130.117 156.979 130.029 156.832 129.882 156.751V156.758ZM122.413 160.689L115.361 156.785L121.674 153.25L128.726 157.154L122.413 160.689Z" fill="#111111"></path><path d="M122.521 187.81L129.667 184V157.155L122.521 161.167V187.81Z" fill="#D7FF65"></path><path d="M129.438 156.759L122.292 160.771C122.151 160.851 122.057 161.005 122.057 161.166V187.803C122.057 187.964 122.137 188.112 122.278 188.192C122.352 188.233 122.433 188.26 122.513 188.26C122.587 188.26 122.661 188.239 122.728 188.206L129.875 184.396C130.022 184.315 130.116 184.161 130.116 183.993V157.148C130.116 156.987 130.029 156.84 129.888 156.759C129.747 156.679 129.579 156.672 129.438 156.759ZM129.21 183.725L122.97 187.045V161.428L129.21 157.926V183.725Z" fill="#111111"></path><g style="mix-blend-mode:multiply" opacity="0.5"><path d="M135.952 192.949L141.151 198.369H158.943L163.53 196.558L162.14 192.949H135.952Z" fill="#32303C"></path></g><path d="M133.064 193.887L141.003 198.301V180.827L133.064 176.413V193.887Z" fill="#D7FF65"></path><path d="M141.225 180.432L133.286 176.018C133.145 175.937 132.977 175.944 132.836 176.018C132.695 176.098 132.615 176.246 132.615 176.407V193.881C132.615 194.049 132.702 194.196 132.85 194.277L140.788 198.691C140.856 198.731 140.936 198.751 141.01 198.751C141.084 198.751 141.171 198.731 141.239 198.691C141.38 198.61 141.46 198.463 141.46 198.302V180.827C141.46 180.66 141.373 180.512 141.225 180.432ZM140.553 197.53L133.521 193.619V177.185L140.553 181.096V197.53Z" fill="#111111"></path><path d="M133.065 176.42L141.051 180.847L148.298 176.789L140.312 172.368L133.065 176.42Z" fill="#F8E3C3"></path><path d="M148.512 176.393L140.526 171.965C140.385 171.892 140.224 171.892 140.083 171.965L132.836 176.024C132.695 176.104 132.601 176.259 132.608 176.42C132.608 176.587 132.695 176.735 132.843 176.815L140.829 181.243C140.896 181.283 140.976 181.296 141.05 181.296C141.124 181.296 141.205 181.276 141.272 181.236L148.519 177.178C148.66 177.097 148.754 176.943 148.754 176.782C148.754 176.614 148.667 176.467 148.519 176.386L148.512 176.393ZM141.043 180.324L133.991 176.413L140.305 172.878L147.357 176.782L141.043 180.317V180.324Z" fill="#111111"></path><path d="M141.15 198.369L148.297 194.559V176.79L141.15 180.801V198.369Z" fill="#D7FF65"></path><path d="M148.068 176.394L140.922 180.406C140.781 180.486 140.694 180.634 140.694 180.802V198.37C140.694 198.531 140.774 198.678 140.915 198.759C140.989 198.799 141.07 198.826 141.15 198.826C141.224 198.826 141.298 198.806 141.365 198.772L148.512 194.962C148.659 194.882 148.753 194.727 148.753 194.56V176.79C148.753 176.629 148.666 176.482 148.532 176.401C148.391 176.321 148.223 176.321 148.082 176.401L148.068 176.394ZM147.84 194.291L141.6 197.612V181.063L147.84 177.562V194.284V194.291Z" fill="#111111"></path><g style="mix-blend-mode:multiply" opacity="0.5"><path d="M476.685 177.718L368.152 115.56C362.918 112.565 357.007 110.942 350.975 110.85L203.24 108.566C203.073 108.566 202.913 108.566 202.758 108.578C198.868 108.87 197.806 114.155 201.166 116.145L238.667 135.073C241.224 136.364 241.999 139.651 240.282 141.94C237.553 145.583 238.437 150.764 242.223 153.294L292.385 186.789C292.541 186.892 292.701 186.984 292.862 187.07L350.63 216.278C350.809 216.37 350.992 216.45 351.176 216.519C356.421 218.395 361.614 215.888 361.614 212.819C361.614 212.4 361.143 202.36 361.143 202.36C361.051 201.889 360.994 201.43 360.959 200.983C360.959 200.965 360.959 200.943 360.954 200.925C360.925 200.495 360.925 200.076 360.948 199.669C360.948 199.64 360.948 199.606 360.948 199.571C360.977 199.175 361.028 198.791 361.103 198.418C361.109 198.378 361.114 198.344 361.126 198.303C361.206 197.936 361.31 197.586 361.442 197.242C361.459 197.202 361.471 197.162 361.488 197.121C361.62 196.783 361.775 196.462 361.953 196.146C361.976 196.106 361.999 196.066 362.022 196.026C362.206 195.716 362.413 195.417 362.637 195.131C362.665 195.09 362.694 195.056 362.729 195.016C362.964 194.729 363.217 194.459 363.493 194.201C363.527 194.167 363.567 194.132 363.602 194.098C363.889 193.84 364.194 193.593 364.521 193.358C364.561 193.329 364.601 193.3 364.642 193.272C364.975 193.037 365.337 192.813 365.716 192.606C365.756 192.583 365.802 192.56 365.848 192.537C366.239 192.325 366.646 192.13 367.083 191.946C367.123 191.929 367.169 191.912 367.209 191.895C367.658 191.711 368.123 191.539 368.611 191.378C368.646 191.367 368.686 191.356 368.72 191.344C369.226 191.183 369.749 191.04 370.3 190.908C370.323 190.908 370.352 190.897 370.375 190.891C370.806 190.788 371.248 190.696 371.702 190.61C371.995 190.558 372.293 190.535 372.592 190.535C375.694 190.569 393.922 190.782 393.922 190.782C395.783 190.81 396.932 190.363 397.323 189.565C398.121 187.936 399.96 187.087 401.769 187.116C428.051 187.494 459.836 187.816 474.347 187.953C476.909 187.976 479 185.911 479 183.352V181.705C479 180.053 478.116 178.533 476.685 177.712V177.718Z" fill="#32303C"></path></g><path d="M334.545 180.482C329.617 172.415 327.974 162.817 329.869 153.643C330.323 151.44 329.295 149.196 327.347 148.066L231.153 94.457C227.982 104.601 229.315 115.616 234.813 124.715L254.953 155.467C256.533 158.078 255.671 161.48 253.04 163.029L219.744 182.645C216.12 184.779 216.148 190.023 219.79 192.123L304.202 238.704C308.62 241.251 314.066 241.246 318.472 238.687L351.986 219.255C355.128 217.43 356.157 213.385 354.267 210.281L334.545 180.482Z" fill="white"></path><path d="M334.545 180.482C329.163 171.67 327.703 161.033 330.484 151.124L322.878 176.879C322.878 176.879 236.967 127.722 237.07 127.894L254.959 155.467C256.539 158.078 255.677 161.48 253.046 163.029L225.868 179.036L300.503 220.207C305.294 224.992 304.42 230.224 299.98 235.055L299.922 236.237L304.196 238.704C308.614 241.251 314.06 241.246 318.466 238.687L351.98 219.255C355.123 217.43 356.151 213.385 354.261 210.281L334.54 180.482H334.545Z" fill="#ABD1C6"></path><path d="M331.219 184.356C325.837 175.543 322.878 176.886 322.878 176.886C322.878 176.886 314.744 171.929 304.949 165.956L284.09 178.245L347.029 219.238C350.177 217.414 351.337 213.449 349.441 210.351L331.219 184.356Z" fill="#8B75F3"></path><path d="M249.225 205.679L248.889 206.286L268.814 217.285L269.15 216.677L249.225 205.679Z" fill="#8B75F3"></path><path d="M331.512 184.171C326.825 176.5 323.579 176.362 322.832 176.448L241.04 129.787L240.695 130.39L322.591 177.108C322.671 177.154 322.763 177.166 322.855 177.143C322.884 177.137 325.997 176.471 330.932 184.544L349.211 210.78C350.01 212.094 350.245 213.638 349.866 215.124C349.487 216.615 348.545 217.86 347.212 218.635L317.65 236.283C313.675 238.589 308.729 238.595 304.742 236.294L281.798 223.632L281.465 224.24L304.403 236.897C306.5 238.101 308.844 238.71 311.188 238.71C313.531 238.71 315.904 238.101 318.007 236.879L347.568 219.231C349.062 218.365 350.119 216.965 350.544 215.296C350.969 213.626 350.711 211.893 349.797 210.402L331.512 184.165V184.171Z" fill="#8B75F3"></path><path d="M334.839 180.304C329.961 172.318 328.313 162.88 330.208 153.718C330.691 151.371 329.611 148.984 327.52 147.768L231.332 94.1588C231.24 94.1072 231.13 94.1014 231.033 94.1416C230.935 94.1818 230.86 94.2621 230.832 94.3596C227.632 104.589 228.976 115.72 234.531 124.911L254.666 155.651C255.384 156.833 255.585 158.227 255.246 159.564C254.908 160.906 254.063 162.031 252.874 162.731L219.578 182.347C217.768 183.414 216.694 185.301 216.706 187.401C216.717 189.501 217.809 191.377 219.63 192.427L304.036 239.002C306.288 240.299 308.81 240.947 311.331 240.947C313.853 240.947 316.398 240.293 318.656 238.985L352.17 219.553C353.773 218.624 354.905 217.126 355.364 215.33C355.818 213.535 355.542 211.681 354.566 210.092L334.85 180.304H334.839ZM354.675 215.158C354.267 216.77 353.244 218.119 351.808 218.951L318.294 238.383C314.003 240.873 308.666 240.878 304.363 238.394L219.957 191.819C218.354 190.895 217.395 189.237 217.384 187.39C217.372 185.542 218.32 183.879 219.917 182.938L253.213 163.322C254.569 162.524 255.522 161.245 255.907 159.725C256.292 158.204 256.056 156.626 255.241 155.272L235.106 124.532C229.74 115.645 228.379 104.893 231.36 94.9678L327.175 148.365C329.008 149.426 329.95 151.52 329.525 153.568C327.6 162.903 329.278 172.519 334.253 180.666L353.968 210.454C354.836 211.871 355.088 213.54 354.681 215.153L354.675 215.158Z" fill="#8B75F3"></path><path d="M338.113 82.8125L187.689 0.855291C186.414 0.161079 184.995 0.224189 183.846 0.809392V0.797918L177.849 3.8731L174.913 127.707C174.804 129.307 175.637 130.828 177.044 131.597L326.721 219.303L332.575 216.296C333.712 215.654 334.551 214.478 334.654 213.009L343.007 91.7282C343.26 88.0564 341.353 84.5796 338.118 82.8125H338.113Z" fill="#D7FF65"></path><path d="M183.847 0.809392V0.797918L177.849 3.87311L330.048 84.7402L337.441 82.4453L187.69 0.855291C186.414 0.161079 184.995 0.224189 183.847 0.809392Z" fill="#D7FF65"></path><path d="M338.28 82.5079L187.856 0.550715C186.564 -0.154972 185.076 -0.183658 183.76 0.464656C183.737 0.470393 183.714 0.481867 183.691 0.493342L177.688 3.56853C177.573 3.6259 177.504 3.74065 177.499 3.86687L174.563 127.683C174.443 129.416 175.35 131.068 176.867 131.894L326.544 219.6C326.595 219.629 326.658 219.646 326.722 219.646C326.773 219.646 326.831 219.635 326.882 219.606L332.748 216.594C334.057 215.854 334.896 214.523 335 213.025L343.352 91.7449C343.611 87.9526 341.623 84.3266 338.28 82.5022V82.5079ZM342.657 91.699L334.305 212.98C334.218 214.259 333.523 215.361 332.415 215.986L326.727 218.906L177.211 131.292C175.925 130.592 175.155 129.192 175.258 127.718L178.188 4.09062L183.938 1.14166C183.938 1.14166 183.979 1.12444 184.002 1.11871C185.128 0.544978 186.414 0.556452 187.517 1.15887L337.947 83.1161C341.055 84.8085 342.899 88.1763 342.657 91.699Z" fill="#8B75F3"></path><path d="M335.281 85.6117L185.271 3.87829C180.175 1.10144 173.92 4.5266 173.523 10.3098L165.285 129.886C165.073 132.985 166.681 135.922 169.41 137.408L319.42 219.141C324.51 221.918 330.771 218.493 331.168 212.71L339.406 93.1333C339.618 90.0352 338.01 87.0977 335.281 85.6117Z" fill="white"></path><path d="M329.8 211.896C329.053 218.081 322.7 218.833 320.58 217.679L165.526 133.364C165.394 133.29 165.273 133.221 165.153 133.123C165.325 134.431 166.112 135.613 167.313 136.262L320.632 219.636C323.326 221.105 330.185 219.28 331.173 213.136L339.491 92.2049C339.577 90.9657 339.095 89.3306 338.233 88.4814C338.233 88.5101 329.794 211.896 329.794 211.896H329.8Z" fill="#DCDCE6"></path><path d="M335.442 85.308L185.438 3.57456C182.944 2.21482 179.963 2.22056 177.47 3.58029C174.977 4.94577 173.374 7.45296 173.178 10.2814L173.523 10.3044L173.178 10.2814L164.941 129.858C164.717 133.082 166.411 136.163 169.249 137.707L319.259 219.434C320.506 220.111 321.867 220.456 323.234 220.456C324.602 220.456 325.975 220.111 327.227 219.429C329.72 218.063 331.323 215.556 331.518 212.727L339.75 93.1509C339.974 89.9265 338.28 86.8456 335.442 85.3022V85.308ZM339.055 93.1107L330.823 212.687C330.645 215.281 329.174 217.581 326.888 218.832C324.602 220.083 321.873 220.088 319.587 218.838L169.582 137.104C166.98 135.687 165.435 132.864 165.636 129.91L173.874 10.3331C174.052 7.73983 175.522 5.43918 177.809 4.18845C178.952 3.56308 180.21 3.24753 181.468 3.24753C182.726 3.24753 183.973 3.55734 185.11 4.18271L335.12 85.9104C337.722 87.3275 339.273 90.1503 339.067 93.105L339.055 93.1107Z" fill="#8B75F3"></path><path d="M335.31 94.676L179.285 9.66658C178.308 9.13301 177.108 9.78707 177.022 10.9001L168.456 127.35C168.41 127.947 168.721 128.52 169.249 128.807L325.274 213.817C326.25 214.35 327.457 213.696 327.537 212.583L336.102 96.1333C336.148 95.5366 335.838 94.9629 335.31 94.676Z" fill="#362B67"></path><path d="M335.476 94.3668L179.452 9.35736C178.889 9.04755 178.216 9.04755 177.653 9.35736C177.09 9.66144 176.723 10.2294 176.677 10.8663L168.112 127.316C168.06 128.05 168.439 128.75 169.088 129.1L325.113 214.11C325.394 214.265 325.704 214.339 326.015 214.339C326.325 214.339 326.635 214.265 326.917 214.11C327.48 213.8 327.841 213.238 327.893 212.601L336.458 96.1511C336.51 95.4167 336.131 94.7167 335.482 94.3668H335.476ZM327.192 212.555C327.164 212.957 326.934 213.312 326.578 213.507C326.221 213.702 325.796 213.702 325.446 213.507L169.421 128.498C169.014 128.274 168.772 127.832 168.807 127.373L177.372 10.9236C177.401 10.522 177.63 10.1663 177.987 9.97125C178.165 9.87372 178.36 9.82782 178.555 9.82782C178.751 9.82782 178.946 9.87372 179.124 9.97125L335.149 94.9807C335.557 95.2044 335.798 95.6462 335.763 96.1052L327.198 212.555H327.192Z" fill="#8B75F3"></path><path d="M314.181 120.989L310.602 119.061C309.688 118.573 308.58 119.181 308.499 120.208L308.114 125.441C308.074 126.003 308.367 126.531 308.861 126.8L312.44 128.728C313.348 129.222 314.462 128.608 314.543 127.581L314.927 122.348C314.968 121.786 314.675 121.258 314.181 120.989Z" fill="#F4FDBC"></path><path d="M314.347 120.684L310.768 118.756C310.24 118.469 309.602 118.469 309.074 118.756C308.545 119.049 308.201 119.577 308.155 120.179L307.77 125.411C307.718 126.106 308.08 126.771 308.695 127.098L312.274 129.026C312.538 129.169 312.825 129.238 313.118 129.238C313.411 129.238 313.704 129.164 313.968 129.02C314.497 128.728 314.841 128.2 314.887 127.597L315.272 122.365C315.324 121.671 314.962 121.005 314.347 120.678V120.684ZM314.198 127.551C314.169 127.924 313.968 128.24 313.641 128.418C313.313 128.596 312.94 128.596 312.613 128.418L309.034 126.49C308.66 126.289 308.436 125.888 308.471 125.463L308.856 120.231C308.884 119.858 309.085 119.542 309.413 119.364C309.74 119.186 310.114 119.186 310.441 119.364L314.02 121.292C314.393 121.493 314.612 121.894 314.583 122.319L314.198 127.551Z" fill="black"></path><path d="M313.147 136.606L309.568 134.678C308.66 134.185 307.546 134.799 307.465 135.826L307.08 141.058C307.04 141.621 307.333 142.148 307.827 142.418L311.406 144.346C312.314 144.839 313.428 144.225 313.509 143.198L313.893 137.966C313.934 137.404 313.646 136.876 313.147 136.606Z" fill="#F4FDBC"></path><path d="M313.308 136.296L309.729 134.368C309.195 134.082 308.563 134.082 308.034 134.368C307.506 134.661 307.161 135.189 307.121 135.791L306.736 141.024C306.684 141.718 307.046 142.383 307.661 142.71L311.24 144.638C311.504 144.782 311.791 144.85 312.084 144.85C312.377 144.85 312.67 144.776 312.934 144.632C313.463 144.34 313.808 143.812 313.848 143.21L314.233 137.977C314.284 137.283 313.922 136.617 313.308 136.29V136.296ZM313.158 143.164C313.13 143.537 312.929 143.852 312.601 144.03C312.274 144.208 311.9 144.208 311.573 144.03L307.994 142.102C307.621 141.902 307.396 141.5 307.431 141.075L307.816 135.843C307.845 135.47 308.046 135.154 308.373 134.977C308.54 134.885 308.718 134.839 308.89 134.839C309.062 134.839 309.241 134.885 309.401 134.971L312.98 136.899C313.354 137.099 313.578 137.501 313.543 137.926L313.158 143.158V143.164Z" fill="black"></path><path d="M312.107 152.216L308.528 150.289C307.62 149.795 306.5 150.409 306.425 151.436L306.04 156.669C306 157.231 306.293 157.759 306.787 158.028L310.366 159.956C311.274 160.449 312.394 159.836 312.469 158.809L312.853 153.576C312.894 153.014 312.601 152.486 312.107 152.216Z" fill="#F4FDBC"></path><path d="M312.273 151.912L308.694 149.985C308.166 149.698 307.528 149.698 307 149.985C306.471 150.277 306.127 150.805 306.081 151.408L305.696 156.64C305.644 157.334 306.012 158 306.621 158.327L310.2 160.254C310.464 160.398 310.751 160.467 311.044 160.467C311.337 160.467 311.63 160.392 311.894 160.249C312.423 159.962 312.767 159.428 312.813 158.826L313.198 153.593C313.25 152.899 312.888 152.234 312.273 151.907V151.912ZM312.124 158.78C312.095 159.153 311.894 159.468 311.567 159.646C311.239 159.824 310.866 159.824 310.538 159.646L306.96 157.719C306.586 157.518 306.362 157.116 306.397 156.692L306.781 151.459C306.81 151.086 307.011 150.771 307.339 150.593C307.666 150.415 308.04 150.415 308.367 150.593L311.946 152.521C312.319 152.721 312.543 153.123 312.509 153.548L312.124 158.78Z" fill="black"></path><path d="M311.073 167.833L307.494 165.905C306.586 165.418 305.472 166.026 305.391 167.053L305.006 172.285C304.966 172.848 305.259 173.375 305.753 173.645L309.332 175.573C310.245 176.066 311.354 175.452 311.435 174.425L311.819 169.193C311.86 168.631 311.567 168.103 311.073 167.833Z" fill="#F4FDBC"></path><path d="M311.234 167.529L307.655 165.602C307.126 165.315 306.489 165.321 305.96 165.602C305.432 165.894 305.087 166.422 305.047 167.025L304.662 172.257C304.61 172.951 304.972 173.617 305.587 173.944L309.166 175.871C309.43 176.015 309.717 176.084 310.01 176.084C310.303 176.084 310.596 176.009 310.86 175.866C311.389 175.573 311.734 175.045 311.779 174.443L312.164 169.21C312.216 168.516 311.854 167.851 311.239 167.524L311.234 167.529ZM311.084 174.397C311.056 174.77 310.855 175.085 310.527 175.263C310.2 175.441 309.826 175.441 309.499 175.263L305.92 173.336C305.547 173.135 305.322 172.733 305.357 172.309L305.742 167.076C305.771 166.703 305.972 166.388 306.299 166.21C306.627 166.032 307 166.032 307.327 166.21L310.906 168.138C311.28 168.338 311.498 168.74 311.469 169.165L311.084 174.397Z" fill="black"></path><path d="M310.033 183.45L306.454 181.522C305.547 181.029 304.432 181.643 304.352 182.67L303.967 187.902C303.927 188.464 304.214 188.992 304.714 189.262L308.293 191.189C309.2 191.683 310.315 191.069 310.395 190.042L310.78 184.81C310.82 184.247 310.527 183.72 310.033 183.45Z" fill="#F4FDBC"></path><path d="M310.2 183.146L306.621 181.218C306.087 180.931 305.455 180.931 304.926 181.218C304.398 181.511 304.053 182.039 304.013 182.641L303.628 187.873C303.576 188.568 303.938 189.233 304.553 189.56L308.132 191.488C308.396 191.631 308.683 191.7 308.976 191.7C309.269 191.7 309.562 191.626 309.826 191.482C310.355 191.189 310.7 190.662 310.74 190.059L311.125 184.827C311.176 184.133 310.814 183.467 310.2 183.14V183.146ZM310.05 190.013C310.022 190.386 309.821 190.702 309.493 190.88C309.166 191.058 308.792 191.058 308.459 190.88L304.88 188.952C304.507 188.751 304.289 188.35 304.317 187.925L304.702 182.693C304.731 182.32 304.932 182.004 305.259 181.826C305.426 181.734 305.598 181.694 305.776 181.694C305.955 181.694 306.127 181.74 306.288 181.826L309.867 183.754C310.24 183.955 310.464 184.356 310.43 184.781L310.045 190.013H310.05Z" fill="black"></path><path d="M263.984 72.2478C243.424 61.9149 221.278 71.6454 214.517 93.9806C207.761 116.322 218.946 142.805 239.506 153.144L285.314 177.401C286.848 178.216 288.542 176.563 287.738 175.026C283.183 166.334 282.022 156.167 284.659 146.551L289.324 130.258L289.284 130.275C295.338 108.18 284.194 82.4028 263.978 72.2421L263.984 72.2478Z" fill="white"></path><path d="M286.807 96.6489C282.028 85.6562 273.98 76.8782 264.139 71.9384C254.206 66.9469 243.573 66.4134 234.204 70.4295C224.627 74.5374 217.521 82.8622 214.189 93.8835C207.393 116.339 218.687 143.064 239.351 153.454L285.159 177.711C285.48 177.883 285.825 177.969 286.164 177.969C286.71 177.969 287.244 177.751 287.663 177.338C288.335 176.673 288.485 175.703 288.048 174.871C283.481 166.156 282.395 156.133 284.992 146.649L289.657 130.355L289.823 129.65H289.806C292.523 119.064 291.466 107.378 286.802 96.6489H286.807ZM288.956 130.189L288.829 130.746L284.331 146.46C281.689 156.116 282.792 166.323 287.439 175.187C287.795 175.864 287.537 176.483 287.181 176.839C286.83 177.183 286.181 177.459 285.486 177.097L239.667 152.834C219.285 142.587 208.152 116.236 214.85 94.0843C218.124 83.2638 225.093 75.0882 234.474 71.0663C243.654 67.1305 254.08 67.6584 263.823 72.558C273.514 77.429 281.448 86.0808 286.164 96.9243C290.869 107.745 291.857 119.558 288.944 130.183L288.956 130.189Z" fill="#8B75F3"></path><path d="M197.536 29.6568C191.423 26.5874 184.84 29.479 182.829 36.117C180.819 42.7551 184.145 50.6324 190.257 53.7018C196.369 56.7713 202.953 53.8797 204.963 47.2416C206.974 40.6036 203.648 32.7263 197.536 29.6568Z" fill="#D7FF65"></path><path d="M194.467 27.5711C202.062 30.2203 209.464 39.9733 209.352 48.4276C209.301 57.2071 200.61 59.9891 192.201 55.8155C184.998 51.9997 179.946 43.5567 180.058 36.3434C180.17 29.1301 186.544 24.7499 194.462 27.5711" fill="white"></path><path d="M202.89 47.8328C201.621 45.3261 200.357 42.8675 199.099 40.4569C198.223 41.2656 197.343 42.051 196.459 42.8133C195.609 41.1494 194.757 39.518 193.904 37.9192C193.06 38.6133 192.214 39.2779 191.367 39.9131C190.554 38.3824 189.741 36.8827 188.928 35.4141C187.765 36.2228 186.603 36.9649 185.443 37.6403C186.552 39.7163 187.642 41.8558 188.713 44.0589C189.566 43.6034 190.425 43.1216 191.289 42.6134C192.064 44.2525 192.834 45.9273 193.598 47.6376C194.532 47.0892 195.459 46.4974 196.381 45.8622C197.211 47.6686 198.044 49.5153 198.88 51.4023C200.23 50.3209 201.566 49.1311 202.89 47.8328Z" fill="#362B67"></path><path d="M311.833 97.4671L311.499 98.0762L330.862 108.655L331.196 108.046L311.833 97.4671Z" fill="white"></path><path d="M311.836 106.51L311.503 107.119L330.866 117.698L331.199 117.089L311.836 106.51Z" fill="white"></path><path d="M311.848 101.602L311.515 102.211L321.388 107.605L321.722 106.996L311.848 101.602Z" fill="white"></path><path d="M317.786 123.594L317.452 124.203L329.694 130.891L330.028 130.282L317.786 123.594Z" fill="white"></path><path d="M317.773 126.185L317.439 126.794L323.679 130.203L324.012 129.594L317.773 126.185Z" fill="white"></path><path d="M316.5 139.412L316.166 140.021L328.408 146.71L328.741 146.101L316.5 139.412Z" fill="white"></path><path d="M316.472 141.979L316.139 142.588L322.379 145.996L322.712 145.386L316.472 141.979Z" fill="white"></path><path d="M315.204 155.205L314.871 155.814L327.113 162.503L327.446 161.893L315.204 155.205Z" fill="white"></path><path d="M315.194 157.801L314.861 158.41L321.1 161.819L321.434 161.21L315.194 157.801Z" fill="white"></path><path d="M313.912 171.01L313.578 171.619L325.82 178.307L326.154 177.698L313.912 171.01Z" fill="white"></path><path d="M313.913 173.618L313.58 174.227L319.819 177.635L320.153 177.026L313.913 173.618Z" fill="white"></path><path d="M312.625 186.826L312.292 187.435L324.533 194.123L324.867 193.514L312.625 186.826Z" fill="white"></path><path d="M312.619 189.419L312.285 190.028L318.525 193.437L318.858 192.828L312.619 189.419Z" fill="white"></path><path d="M307.523 87.5664L299.802 192.58L300.495 192.631L308.217 87.6173L307.523 87.5664Z" fill="white"></path><path d="M311.107 125.509L310.004 123.123L309.373 123.415L310.746 126.381C310.797 126.496 310.912 126.577 311.039 126.582C311.044 126.582 311.056 126.582 311.061 126.582C311.182 126.582 311.291 126.519 311.354 126.422L313.911 122.377L313.325 122.004L311.107 125.509Z" fill="#8B75F3"></path><path d="M310.067 141.079L308.964 138.692L308.333 138.985L309.705 141.951C309.757 142.066 309.872 142.14 309.998 142.152C310.004 142.152 310.016 142.152 310.021 142.152C310.142 142.152 310.251 142.088 310.314 141.991L312.871 137.946L312.285 137.573L310.067 141.079Z" fill="#8B75F3"></path><path d="M309.034 156.835L307.931 154.448L307.299 154.74L308.672 157.707C308.724 157.821 308.838 157.896 308.965 157.907C308.971 157.907 308.982 157.907 308.988 157.907C309.108 157.907 309.218 157.844 309.281 157.747L311.837 153.702L311.251 153.329L309.039 156.835H309.034Z" fill="#8B75F3"></path><path d="M308 172.439L306.897 170.052L306.265 170.345L307.638 173.311C307.689 173.426 307.804 173.506 307.931 173.512C307.936 173.512 307.948 173.512 307.954 173.512C308.074 173.512 308.183 173.449 308.247 173.351L310.803 169.307L310.217 168.934L308.005 172.439H308Z" fill="#8B75F3"></path><path d="M306.96 187.873L305.857 185.486L305.225 185.779L306.598 188.745C306.65 188.859 306.765 188.934 306.891 188.946C306.897 188.946 306.908 188.946 306.914 188.946C307.035 188.946 307.144 188.882 307.207 188.785L309.763 184.74L309.177 184.367L306.96 187.873Z" fill="#8B75F3"></path><g style="mix-blend-mode:multiply" opacity="0.4"><path d="M316.078 105.09C309.948 106.157 303.313 122.984 296.448 122.766C296.448 122.766 296.994 119.313 291.686 117.5C291.646 117.488 275.704 93.8906 275.704 93.8906C275.704 93.8906 260.515 107.563 248.44 118.291C243.046 123.082 238.462 127.861 235.239 131.9C235.199 131.952 235.153 132.003 235.113 132.061C234.883 132.348 234.665 132.635 234.446 132.916C234.406 132.967 234.366 133.025 234.326 133.076C233.826 133.736 233.366 134.367 232.947 134.981C232.935 135.004 232.918 135.021 232.907 135.038C232.723 135.308 232.545 135.578 232.378 135.836C232.338 135.899 232.298 135.962 232.258 136.025C232.114 136.249 231.982 136.467 231.855 136.679C231.821 136.742 231.781 136.8 231.746 136.863C231.597 137.115 231.459 137.368 231.327 137.609C231.327 137.615 231.315 137.626 231.315 137.632C231.178 137.884 231.057 138.131 230.948 138.366C230.925 138.412 230.908 138.458 230.885 138.504C230.804 138.687 230.724 138.859 230.655 139.032C230.632 139.095 230.603 139.158 230.58 139.221C230.523 139.376 230.471 139.525 230.425 139.668C230.408 139.726 230.391 139.783 230.373 139.835C230.322 140.013 230.281 140.185 230.247 140.351C230.247 140.363 230.247 140.374 230.241 140.386C230.212 140.558 230.195 140.724 230.189 140.879C230.189 140.925 230.189 140.965 230.189 141.005C230.189 141.114 230.189 141.218 230.207 141.315C230.212 141.361 230.218 141.407 230.23 141.447C230.247 141.539 230.276 141.619 230.304 141.699C230.322 141.734 230.327 141.774 230.345 141.808C230.396 141.917 230.459 142.015 230.54 142.101L242.707 155.446L243.092 155.119C243.069 155.641 243.184 156.054 243.448 156.347C244.074 157.035 245.453 156.984 247.389 156.312L247.441 156.261L248.348 157.265C248.928 158.716 250.273 161.338 250.273 161.338C240.22 171.246 275.429 175.584 275.497 175.613C282.988 184.844 293.122 181.826 294.139 178.648C300.998 181.235 306.226 177.976 309.207 173.622C310.569 171.631 310.385 166.708 310.385 166.708C315.813 166.416 319.151 162.818 320.599 158.934C322.931 152.681 313.429 138.515 313.429 138.515L313.32 138.538C317.508 132.554 323.925 122.789 324.551 118.228C325.493 111.407 323.235 103.833 316.06 105.09H316.078Z" fill="#32303C"></path></g><path d="M265.312 86.0068C249.83 78.227 233.154 85.5536 228.064 102.375C222.974 119.197 231.402 139.14 246.883 146.92C262.365 154.699 279.042 147.373 284.132 130.551C289.222 113.729 280.794 93.7866 265.312 86.0068Z" fill="white"></path><path d="M246.883 146.92C262.124 154.58 278.508 147.592 283.873 131.332H231.333C234.865 137.97 240.22 143.57 246.878 146.92H246.883Z" fill="#D7FF65"></path><path d="M265.467 85.6975C257.965 81.9281 249.934 81.5208 242.85 84.5616C235.618 87.6654 230.247 93.9535 227.731 102.278C222.606 119.226 231.126 139.393 246.728 147.236C250.904 149.336 255.242 150.391 259.493 150.391C262.876 150.391 266.202 149.72 269.345 148.377C276.577 145.274 281.949 138.986 284.465 130.661C289.595 113.713 281.07 93.5462 265.467 85.7033V85.6975ZM283.798 130.454C281.34 138.578 276.112 144.711 269.069 147.729C262.181 150.684 254.357 150.288 247.044 146.61C231.729 138.911 223.37 119.112 228.403 102.473C230.861 94.3494 236.089 88.2162 243.132 85.1984C246.182 83.8903 249.417 83.242 252.708 83.242C256.85 83.242 261.084 84.2747 265.157 86.3229C280.472 94.0224 288.831 113.822 283.798 130.46V130.454Z" fill="#111111"></path><path d="M260.86 82.9043L233.504 82.9846L235.193 149.985L261.061 149.973C265.743 149.962 269.494 134.936 269.437 116.416C269.385 97.8958 265.542 82.8928 260.86 82.91V82.9043Z" fill="white"></path><path d="M235.193 149.985L261.061 149.974C264.008 149.968 266.587 144.007 268.075 134.971L234.814 135.068L235.187 149.985H235.193Z" fill="#D7FF65"></path><path d="M233.297 83.1338C228.639 83.1453 224.899 98.1081 224.956 116.548C225.014 134.987 228.834 149.927 233.493 149.91C238.152 149.899 241.886 134.936 241.834 116.496C241.782 98.0565 237.956 83.1166 233.297 83.1338Z" fill="#D7FF65"></path><path d="M197.554 101.803C198.749 111.872 192.683 141.901 192.683 141.901C192.683 141.901 196.871 144.248 199.657 144.724C202.443 145.2 227.122 146.33 229.914 146.175C232.706 146.02 235.796 146.192 235.796 146.192L235.848 86.4443L198.853 81.0742C198.853 81.0742 196.365 91.7341 197.554 101.803Z" fill="#FFEFE4"></path><path d="M234.147 86.4561C229.954 86.4675 226.587 99.9387 226.639 116.537C226.691 133.14 230.132 146.589 234.325 146.577C238.519 146.566 241.885 133.094 241.834 116.497C241.788 99.8928 238.341 86.4446 234.147 86.4561Z" fill="#FFEFE4"></path><path d="M222.796 79.2045C217.281 73.5532 226.031 54.9357 222.205 48.9173C217.724 41.8662 209.4 45.8077 204.207 51.872C199.014 57.9421 194.447 84.0181 194.447 84.0181L240.656 99.939C240.714 96.3762 237.25 86.9613 237.25 86.9613C237.25 86.9613 228.311 84.8614 222.791 79.2102L222.796 79.2045Z" fill="#FFEFE4"></path><path d="M233.332 82.6416H233.326C232.143 82.6416 231.304 83.2039 230.339 84.6324L230.913 85.0168C231.856 83.6112 232.51 83.3358 233.326 83.3301C235.383 83.3301 237.451 86.8069 239.008 92.8712C240.622 99.1707 241.524 107.559 241.552 116.492C241.604 134.478 237.928 149.688 233.521 149.705C232.378 149.705 231.201 148.603 230.115 146.526L229.5 146.848C230.73 149.206 232.085 150.399 233.521 150.399H233.527C238.473 150.382 242.305 135.494 242.253 116.492C242.225 107.507 241.317 99.056 239.691 92.7048C238.031 86.2159 235.773 82.6416 233.338 82.6416H233.332Z" fill="#111111"></path><path d="M260.866 82.5596H260.86V83.2538H260.866C262.922 83.2538 264.996 86.7306 266.547 92.7949C268.162 99.0944 269.063 107.482 269.086 116.415C269.115 125.343 268.259 133.736 266.685 140.047C265.169 146.129 263.118 149.617 261.055 149.623V150.317C263.497 150.311 265.732 146.72 267.357 140.214C268.949 133.845 269.805 125.394 269.782 116.41C269.753 107.425 268.845 98.974 267.219 92.6228C265.559 86.1339 263.302 82.5596 260.866 82.5596Z" fill="#111111"></path><path d="M206.378 93.7933L195.928 76.9658C195.928 76.9658 176.258 79.8574 172.639 86.6676C169.02 93.4777 169.83 103.885 186.754 108.796C203.678 113.707 209.192 106.599 210.238 102.835C211.766 97.3103 206.383 93.7933 206.383 93.7933H206.378Z" fill="#FFEFE4"></path><path d="M203.339 109.504L173.484 101.236C171.077 102.831 169.17 104.931 168.721 107.662C167.285 116.411 169.29 125.052 186.915 127.289C204.539 129.527 208.595 121.678 208.894 117.811C209.33 112.131 203.339 109.498 203.339 109.498V109.504Z" fill="#FFEFE4"></path><path d="M203.747 125.315L176.155 124.104C175.385 125.47 175.15 127.002 175.213 128.689C175.5 136.147 179.929 143.359 194.061 142.418C208.187 141.477 209.382 134.162 208.658 130.834C207.596 125.946 203.747 125.315 203.747 125.315Z" fill="#FFEFE4"></path><path d="M230.143 146.6L236.026 146.583L193.073 142.48C193.073 142.48 209.336 154.276 230.143 146.6Z" fill="#FFEFE4"></path><path d="M222.428 62.9272C223.411 57.1153 224.341 51.6305 222.497 48.7274C220.963 46.312 218.918 44.9982 216.414 44.8203C211.806 44.4933 206.946 48.1307 203.942 51.642C198.749 57.712 194.291 82.8815 194.107 83.9487L194.791 84.0691C194.837 83.8109 199.398 58.0161 204.471 52.0895C208.17 47.775 212.731 45.2506 216.368 45.5088C218.637 45.6695 220.504 46.8743 221.911 49.0946C223.612 51.7739 222.704 57.1326 221.745 62.8067C220.624 69.4333 219.464 76.2836 222.543 79.4391C228.07 85.0961 237.083 87.2648 237.169 87.282L237.33 86.605C237.238 86.5821 228.42 84.4593 223.043 78.9515C220.205 76.0484 221.337 69.3759 222.428 62.9215V62.9272Z" fill="#111111"></path><path d="M206.567 93.5011L206.188 94.0805C206.24 94.1149 211.341 97.5286 209.899 102.738C209.612 103.782 208.578 106.416 205.24 108.275C200.984 110.65 194.624 110.713 186.846 108.458C179.206 106.238 174.127 102.612 172.163 97.9704C170.181 93.283 171.801 88.9743 172.944 86.8228C176.442 80.2479 195.785 77.3334 195.98 77.3047L195.877 76.6162C195.067 76.7367 175.989 79.6168 172.329 86.4958C171.129 88.7563 169.428 93.283 171.525 98.2343C173.576 103.077 178.809 106.84 186.656 109.118C190.838 110.329 194.28 110.793 197.094 110.793C201.052 110.793 203.781 109.887 205.585 108.877C209.147 106.892 210.261 104.046 210.571 102.916C212.151 97.2073 206.625 93.524 206.567 93.4896V93.5011Z" fill="#111111"></path><path d="M203.483 109.182L203.201 109.819C203.259 109.842 208.957 112.429 208.549 117.788C208.469 118.849 207.969 121.563 205.108 123.893C202.512 126.01 197.255 128.253 186.961 126.945C179.074 125.941 173.88 123.64 171.094 119.905C168.837 116.887 168.193 113.009 169.066 107.713C169.451 105.373 171.002 103.29 173.679 101.523L173.294 100.943C170.451 102.825 168.796 105.068 168.377 107.604C167.475 113.101 168.159 117.14 170.531 120.324C173.438 124.214 178.781 126.606 186.869 127.633C189.012 127.903 190.942 128.023 192.683 128.023C199.502 128.023 203.391 126.182 205.545 124.426C208.613 121.925 209.147 118.987 209.239 117.834C209.687 111.976 203.54 109.205 203.483 109.176V109.182Z" fill="#111111"></path><path d="M203.805 124.97L203.69 125.653C203.724 125.658 207.315 126.295 208.314 130.902C208.481 131.671 208.871 134.373 206.918 136.967C204.718 139.887 200.26 141.648 194.039 142.061C187.662 142.486 182.831 141.264 179.683 138.435C177.144 136.152 175.719 132.773 175.564 128.665C175.495 126.875 175.782 125.475 176.46 124.264L175.857 123.926C175.11 125.257 174.794 126.771 174.869 128.693C175.035 132.996 176.541 136.542 179.218 138.957C182.09 141.539 186.266 142.842 191.649 142.842C192.436 142.842 193.246 142.813 194.085 142.756C200.611 142.32 205.114 140.512 207.475 137.385C209.607 134.557 209.182 131.597 208.998 130.753C207.895 125.693 203.971 124.993 203.805 124.964V124.97Z" fill="#111111"></path><path d="M212.151 95.0898C212.094 95.2964 206.527 115.859 210.388 134.184L211.066 134.04C207.24 115.882 212.76 95.48 212.818 95.2734L212.146 95.0898H212.151Z" fill="#111111"></path><path d="M230.138 146.25C230.097 146.25 230.057 146.255 230.017 146.273C209.629 153.788 193.429 142.314 193.268 142.193L192.861 142.756C192.981 142.847 202.385 149.514 215.897 149.514C220.291 149.514 225.117 148.808 230.201 146.944L237.249 146.927V146.232L230.138 146.25Z" fill="#111111"></path><path d="M260.855 82.5733L233.5 82.6592L233.502 83.3534L260.858 83.2676L260.855 82.5733Z" fill="#111111"></path><path d="M261.211 149.622L233.315 149.733L233.318 150.428L261.214 150.316L261.211 149.622Z" fill="#111111"></path><path d="M253.37 134.141C250.629 134.146 248.412 136.372 248.423 139.109C248.429 141.846 250.658 144.06 253.398 144.049C256.138 144.043 258.356 141.817 258.344 139.08C258.339 136.344 256.11 134.129 253.37 134.141Z" fill="#EBCDF5"></path><path d="M253.369 133.796C251.95 133.796 250.618 134.358 249.618 135.362C248.619 136.366 248.067 137.703 248.073 139.114C248.073 140.531 248.636 141.863 249.641 142.861C250.641 143.853 251.968 144.404 253.381 144.404H253.398C254.817 144.404 256.15 143.842 257.149 142.838C258.149 141.834 258.7 140.497 258.695 139.086C258.695 137.669 258.132 136.338 257.126 135.339C256.121 134.341 254.777 133.807 253.369 133.796ZM253.398 143.704H253.387C250.847 143.704 248.779 141.645 248.774 139.109C248.774 137.875 249.245 136.716 250.118 135.844C250.985 134.972 252.146 134.49 253.375 134.484H253.387C254.616 134.484 255.771 134.961 256.638 135.827C257.511 136.693 257.994 137.852 258 139.08C258.005 141.622 255.943 143.693 253.398 143.704Z" fill="#111111"></path><path d="M253.375 135.688C251.491 135.688 249.969 137.226 249.974 139.102C249.98 140.984 251.508 142.504 253.392 142.499C255.277 142.499 256.799 140.967 256.793 139.085C256.793 137.203 255.259 135.683 253.375 135.688Z" fill="#8B75F3"></path><path d="M253.392 142.137V142.832C254.978 142.832 256.391 141.822 256.914 140.33L256.259 140.101C255.834 141.317 254.679 142.132 253.392 142.137Z" fill="#111111"></path><path d="M253.386 135.361H253.375C252.375 135.361 251.439 135.757 250.732 136.463C250.026 137.169 249.641 138.109 249.641 139.108C249.641 140.622 250.554 141.971 251.956 142.55L252.22 141.908C251.077 141.437 250.342 140.336 250.336 139.102C250.336 138.287 250.646 137.524 251.221 136.951C251.795 136.377 252.559 136.056 253.369 136.056C254.598 136.033 255.701 136.778 256.178 137.903L256.816 137.633C256.224 136.251 254.874 135.361 253.375 135.361H253.386Z" fill="#111111"></path><path d="M252.306 137.375C251.927 137.375 251.623 137.679 251.628 138.058C251.628 138.436 251.939 138.741 252.312 138.735C252.691 138.735 252.996 138.431 252.99 138.052C252.99 137.673 252.686 137.369 252.306 137.375Z" fill="#111111"></path><path d="M254.449 137.369C254.07 137.369 253.766 137.673 253.772 138.052C253.772 138.431 254.076 138.735 254.455 138.729C254.834 138.729 255.139 138.425 255.133 138.046C255.133 137.667 254.823 137.369 254.449 137.369Z" fill="#111111"></path><path d="M252.312 139.463C251.933 139.463 251.634 139.773 251.634 140.146C251.634 140.524 251.939 140.828 252.318 140.823C252.697 140.823 253.002 140.519 252.996 140.14C252.996 139.761 252.686 139.457 252.312 139.463Z" fill="#111111"></path><path d="M254.455 139.457C254.076 139.457 253.771 139.767 253.777 140.14C253.777 140.513 254.082 140.817 254.461 140.817C254.84 140.817 255.144 140.513 255.139 140.134C255.139 139.755 254.834 139.451 254.455 139.457Z" fill="#111111"></path><path d="M223.25 51.8191L222.583 51.624C222.555 51.7158 219.855 60.9012 219.464 61.8766C218.993 63.0642 220.797 64.7968 221.009 64.9919L221.486 64.4813C220.785 63.833 219.901 62.6683 220.113 62.1347C220.515 61.1307 223.141 52.1978 223.256 51.8191H223.25Z" fill="#111111"></path><path d="M201.955 118.217C201.891 118.171 201.817 118.143 201.742 118.143C201.259 118.143 189.914 118.234 189.219 124.402C188.885 127.374 191.539 127.976 191.568 127.982L191.712 127.305C191.626 127.288 189.644 126.817 189.908 124.482C190.5 119.25 200.38 118.871 201.616 118.843C202.127 119.29 204.568 121.66 203.546 124.93L204.212 125.136C205.482 121.063 201.995 118.246 201.96 118.217H201.955Z" fill="#111111"></path><path d="M204.603 100.903C204.539 100.857 204.465 100.828 204.384 100.828C203.902 100.828 192.556 100.92 191.861 107.088C191.528 110.059 194.182 110.662 194.211 110.668L194.354 109.991C194.268 109.973 192.286 109.503 192.55 107.168C193.142 101.935 203.023 101.557 204.258 101.528C204.763 101.976 207.211 104.345 206.188 107.615L206.854 107.822C208.13 103.748 204.637 100.931 204.603 100.908V100.903Z" fill="#111111"></path><path d="M203.103 132.652C202.673 132.612 192.596 131.775 191.729 137.764C191.568 138.877 191.809 139.83 192.441 140.604C193.849 142.308 196.687 142.469 196.802 142.475L196.836 141.78C196.836 141.78 194.188 141.631 192.976 140.162C192.47 139.549 192.28 138.78 192.413 137.868C193.136 132.87 201.719 133.26 202.902 133.335C203.396 133.909 205.666 136.789 203.885 139.663L204.476 140.03C206.711 136.427 203.356 132.801 203.322 132.761C203.264 132.698 203.184 132.664 203.103 132.652Z" fill="#111111"></path><path d="M257.936 149.925L257.611 150.538L282.853 163.898L283.179 163.284L257.936 149.925Z" fill="#111111"></path><path d="M170.752 276.118L199.66 292.206V258.304L170.752 242.217V276.118Z" fill="#D9F3EC" fill-opacity="0.93"></path><path d="M200.044 257.61L171.137 241.522C170.896 241.39 170.597 241.39 170.35 241.534C170.109 241.677 169.959 241.935 169.959 242.217V276.118C169.959 276.405 170.115 276.669 170.367 276.807L199.274 292.894C199.395 292.963 199.527 292.992 199.659 292.992C199.791 292.992 199.935 292.957 200.061 292.883C200.303 292.739 200.452 292.481 200.452 292.2V258.298C200.452 258.011 200.297 257.747 200.044 257.61ZM198.872 290.857L171.545 275.654V243.559L198.872 258.763V290.857Z" fill="#111111"></path><path d="M170.753 242.257L199.832 258.373L226.223 243.599L197.144 227.483L170.753 242.257Z" fill="#8B75F3"></path><path d="M169.127 242.257L199.826 259.274L227.837 243.594L197.138 226.577L169.127 242.257ZM224.597 243.6L199.826 257.467L172.372 242.251L197.143 228.384L224.597 243.6Z" fill="#32303C"></path><path d="M200.199 292.448L226.222 278.581V243.601L200.199 258.202V292.448Z" fill="#111111"></path><path d="M225.832 242.912L199.808 257.514C199.561 257.651 199.406 257.915 199.406 258.202V292.448C199.406 292.723 199.55 292.982 199.791 293.125C199.918 293.2 200.055 293.24 200.199 293.24C200.325 293.24 200.452 293.211 200.572 293.148L226.596 279.281C226.854 279.143 227.015 278.874 227.015 278.587V243.606C227.015 243.325 226.866 243.067 226.624 242.924C226.383 242.78 226.084 242.78 225.837 242.918L225.832 242.912ZM225.429 278.105L200.986 291.128V258.661L225.429 244.949V278.105Z" fill="#111111"></path><path d="M199.659 324.725L228.566 340.806V306.905L199.659 290.817V324.725Z" fill="#CACACC"></path><path d="M228.951 306.217L200.044 290.13C199.803 289.998 199.504 289.998 199.257 290.141C199.016 290.285 198.866 290.543 198.866 290.824V324.726C198.866 325.013 199.021 325.276 199.274 325.414L228.181 341.501C228.302 341.57 228.434 341.599 228.566 341.599C228.698 341.599 228.842 341.565 228.968 341.49C229.209 341.347 229.359 341.088 229.359 340.807V306.906C229.359 306.619 229.204 306.355 228.951 306.217ZM227.779 339.465L200.452 324.261V292.167L227.779 307.37V339.465Z" fill="#111111"></path><path d="M199.659 290.858L228.739 306.974L255.13 292.2L226.05 276.084L199.659 290.858Z" fill="#B5FDEA"></path><path d="M198.04 290.864L228.739 307.88L256.75 292.2L226.05 275.184L198.04 290.864ZM253.51 292.206L228.739 306.073L201.285 290.858L226.056 276.991L253.51 292.206Z" fill="#32303C"></path><path d="M229.106 341.047L255.129 327.18V292.2L229.106 306.802V341.047Z" fill="#111111"></path><path d="M254.739 291.512L228.716 306.113C228.469 306.257 228.313 306.515 228.313 306.802V341.048C228.313 341.323 228.457 341.581 228.698 341.725C228.825 341.799 228.963 341.839 229.106 341.839C229.233 341.839 229.359 341.811 229.48 341.748L255.503 327.881C255.761 327.743 255.922 327.473 255.922 327.186V292.206C255.922 291.925 255.773 291.667 255.532 291.523C255.29 291.38 254.992 291.38 254.745 291.518L254.739 291.512ZM254.337 326.704L229.893 339.728V307.261L254.337 293.549V326.704Z" fill="#111111"></path><g style="mix-blend-mode:multiply" opacity="0.6"><path d="M160.901 351.617L184.799 364.899L206.554 352.724L182.581 339.437L160.901 351.617Z" fill="#32303C"></path></g><g style="mix-blend-mode:multiply" opacity="0.6"><path d="M184.626 364.588L208.524 377.875L230.279 365.695L206.306 352.413L184.626 364.588Z" fill="#32303C"></path></g><g style="mix-blend-mode:multiply" opacity="0.6"><path d="M139.565 363.818L163.463 377.106L185.218 364.925L161.245 351.644L139.565 363.818Z" fill="#32303C"></path></g><path d="M143.775 323.125L172.682 339.207V305.305L143.775 289.224V323.125Z" fill="#CACACC"></path><path d="M173.068 304.617L144.161 288.529C143.919 288.397 143.621 288.397 143.374 288.541C143.132 288.684 142.983 288.942 142.983 289.223V323.125C142.983 323.412 143.138 323.676 143.391 323.814L172.298 339.901C172.418 339.964 172.551 339.998 172.683 339.998C172.815 339.998 172.958 339.964 173.085 339.889C173.326 339.746 173.475 339.488 173.475 339.207V305.305C173.475 305.018 173.32 304.754 173.068 304.617ZM171.896 337.864L144.568 322.66V290.566L171.896 305.77V337.864Z" fill="#111111"></path><path d="M143.776 289.255L172.85 305.371L199.24 290.598L170.167 274.487L143.776 289.255Z" fill="#B5FDEA"></path><path d="M142.15 289.262L172.849 306.279L200.86 290.599L170.161 273.582L142.15 289.262ZM197.62 290.605L172.849 304.472L145.396 289.256L170.167 275.389L197.62 290.605Z" fill="#32303C"></path><path d="M173.223 339.446L199.24 325.579V290.599L173.223 305.206V339.446Z" fill="#111111"></path><path d="M198.855 289.91L172.832 304.512C172.585 304.649 172.43 304.913 172.43 305.2V339.44C172.43 339.716 172.574 339.974 172.815 340.117C172.941 340.192 173.079 340.232 173.223 340.232C173.349 340.232 173.481 340.203 173.596 340.14L199.619 326.273C199.878 326.135 200.039 325.866 200.039 325.579V290.599C200.039 290.318 199.889 290.059 199.648 289.916C199.407 289.772 199.108 289.772 198.861 289.91H198.855ZM198.453 325.103L174.01 338.126V305.659L198.453 291.941V325.097V325.103Z" fill="#111111"></path><path d="M218.02 250.392L246.927 266.473V232.572L218.02 216.484V250.392Z" fill="#D9F3EC" fill-opacity="0.93"></path><path d="M247.312 231.884L218.405 215.797C218.164 215.665 217.865 215.665 217.618 215.808C217.377 215.952 217.228 216.21 217.228 216.491V250.393C217.228 250.68 217.383 250.943 217.636 251.081L246.543 267.168C246.663 267.237 246.795 267.266 246.928 267.266C247.06 267.266 247.203 267.232 247.33 267.157C247.571 267.014 247.72 266.755 247.72 266.474V232.573C247.72 232.286 247.565 232.022 247.312 231.884ZM246.141 265.132L218.813 249.928V217.834L246.141 233.037V265.132Z" fill="#111111"></path><path d="M218.021 216.524L247.101 232.64L273.492 217.866L244.412 201.756L218.021 216.524Z" fill="#B5FDEA"></path><path d="M216.401 216.531L247.1 233.547L275.111 217.867L244.412 200.851L216.401 216.531ZM271.871 217.873L247.1 231.74L219.646 216.525L244.417 202.658L271.871 217.873Z" fill="#32303C"></path><path d="M247.467 266.715L273.491 252.848V217.868L247.467 232.475V266.715Z" fill="#111111"></path><path d="M273.106 217.18L247.083 231.781C246.836 231.919 246.681 232.183 246.681 232.47V266.716C246.681 266.991 246.824 267.249 247.066 267.393C247.192 267.467 247.33 267.507 247.473 267.507C247.6 267.507 247.726 267.479 247.847 267.416L273.87 253.549C274.129 253.411 274.289 253.141 274.289 252.854V217.874C274.289 217.593 274.14 217.335 273.899 217.191C273.658 217.048 273.359 217.048 273.112 217.186L273.106 217.18ZM272.704 252.372L248.26 265.396V232.929L272.704 219.217V252.372Z" fill="#111111"></path><path d="M246.927 298.995L275.84 315.083V281.175L246.927 265.094V298.995Z" fill="#CACACC"></path><path d="M276.225 280.487L247.318 264.399C247.077 264.267 246.778 264.267 246.531 264.411C246.29 264.554 246.14 264.812 246.14 265.094V298.995C246.14 299.282 246.295 299.546 246.548 299.684L275.455 315.771C275.576 315.84 275.708 315.869 275.84 315.869C275.972 315.869 276.116 315.834 276.242 315.76C276.484 315.616 276.633 315.358 276.633 315.077V281.175C276.633 280.888 276.478 280.624 276.225 280.487ZM275.053 313.734L247.726 298.53V266.436L275.053 281.64V313.734Z" fill="#111111"></path><path d="M246.928 265.128L276.008 281.244L302.399 266.476L273.325 250.36L246.928 265.128Z" fill="#8B75F3"></path><path d="M245.308 265.133L276.007 282.15L304.018 266.47L273.318 249.453L245.308 265.133ZM300.778 266.476L276.007 280.343L248.553 265.127L273.324 251.26L300.778 266.476Z" fill="#32303C"></path><path d="M276.375 315.316L302.398 301.449V266.475L276.375 281.076V315.316Z" fill="#111111"></path><path d="M302.013 265.786L275.99 280.388C275.743 280.531 275.588 280.789 275.588 281.076V315.322C275.588 315.597 275.732 315.856 275.973 315.999C276.099 316.074 276.237 316.114 276.381 316.114C276.507 316.114 276.633 316.085 276.754 316.022L302.777 302.155C303.036 302.017 303.197 301.748 303.197 301.461V266.48C303.197 266.199 303.047 265.941 302.806 265.798C302.565 265.654 302.266 265.654 302.019 265.792L302.013 265.786ZM301.611 300.979L277.168 314.002V281.535L301.611 267.823V300.979Z" fill="#111111"></path><g style="mix-blend-mode:multiply" opacity="0.6"><path d="M225.513 336.152L249.405 349.44L271.166 337.259L247.187 323.978L225.513 336.152Z" fill="#32303C"></path></g><g style="mix-blend-mode:multiply" opacity="0.6"><path d="M249.238 349.13L273.13 362.412L294.891 350.238L270.918 336.95L249.238 349.13Z" fill="#32303C"></path></g><g style="mix-blend-mode:multiply" opacity="0.6"><path d="M204.171 348.363L228.069 361.645L249.824 349.47L225.857 336.183L204.171 348.363Z" fill="#32303C"></path></g><path d="M191.043 297.393L219.95 313.48V279.579L191.043 263.491V297.393Z" fill="#CACACC"></path><path d="M220.335 278.884L191.428 262.797C191.187 262.665 190.888 262.665 190.641 262.808C190.4 262.952 190.25 263.21 190.25 263.491V297.393C190.25 297.68 190.406 297.943 190.658 298.081L219.565 314.168C219.686 314.232 219.818 314.266 219.95 314.266C220.082 314.266 220.226 314.232 220.352 314.157C220.594 314.014 220.743 313.755 220.743 313.474V279.573C220.743 279.286 220.588 279.022 220.335 278.884ZM219.163 312.132L191.836 296.928V264.834L219.163 280.037V312.132Z" fill="#111111"></path><path d="M191.044 263.529L220.123 279.645L246.514 264.872L217.435 248.756L191.044 263.529Z" fill="#B5FDEA"></path><path d="M189.424 263.531L220.123 280.547L248.134 264.867L217.434 247.851L189.424 263.531ZM244.894 264.873L220.123 278.74L192.669 263.525L217.44 249.658L244.894 264.873Z" fill="#32303C"></path><path d="M220.49 313.716L246.513 299.854V264.874L220.49 279.475V313.716Z" fill="#111111"></path><path d="M246.123 264.186L220.1 278.787C219.853 278.925 219.698 279.189 219.698 279.475V313.716C219.698 313.991 219.841 314.249 220.082 314.393C220.209 314.467 220.347 314.507 220.49 314.507C220.617 314.507 220.749 314.479 220.864 314.416L246.887 300.549C247.145 300.411 247.306 300.141 247.306 299.854V264.874C247.306 264.593 247.157 264.335 246.916 264.191C246.674 264.048 246.376 264.048 246.129 264.186H246.123ZM245.721 299.378L221.277 312.402V279.934L245.721 266.217V299.372V299.378Z" fill="#111111"></path></g><defs><clipPath id="clip0_3899_13778"><rect width="479" height="385.957" fill="white"></rect></clipPath></defs></svg>