<svg xmlns="http://www.w3.org/2000/svg" width="273" height="261" viewBox="0 0 273 261" fill="none"><g clip-path="url(#clip0_3845_4547)"><path d="M175.548 117.586L161.421 162.847C157.675 174.853 159.277 187.893 165.826 198.629L181.983 225.124C184.209 228.77 183 233.532 179.307 235.677L139.947 258.537C134.765 261.545 128.374 261.553 123.188 258.558L64.3762 224.587C60.097 222.116 60.0685 215.946 64.3234 213.435L103.427 190.359C106.518 188.536 107.527 184.539 105.672 181.462L89.0188 153.848C82.5632 143.145 81.0012 130.186 84.7232 118.249L97.6831 76.7368C99.2411 71.7431 105.029 69.4803 109.557 72.0972L171.838 108.075C175.146 109.983 176.687 113.935 175.548 117.582V117.586Z" fill="#D3C6F9"></path><path d="M131.551 261C128.623 261 125.698 260.247 123.082 258.737L64.2706 224.766C62.196 223.569 60.9513 221.42 60.9391 219.027C60.9269 216.63 62.1512 214.473 64.2177 213.256L103.321 190.18C104.769 189.326 105.79 187.958 106.201 186.33C106.612 184.702 106.36 183.009 105.493 181.573L88.8399 153.959C82.3558 143.21 80.7857 130.174 84.524 118.193L97.4839 76.68C98.2445 74.2381 100.047 72.3049 102.43 71.3729C104.81 70.4409 107.446 70.6444 109.663 71.9224L171.944 107.9C175.361 109.874 176.927 113.883 175.748 117.651L161.62 162.912C157.89 174.861 159.489 187.84 166.005 198.523L182.163 225.018C183.269 226.829 183.59 228.962 183.066 231.017C182.541 233.072 181.247 234.794 179.413 235.86L140.053 258.721C137.433 260.243 134.492 261.004 131.551 261.004V261ZM105.481 71.2101C104.505 71.2101 103.52 71.3933 102.581 71.7596C100.319 72.6427 98.6025 74.4823 97.8784 76.8021L84.9185 118.315C81.2128 130.182 82.7708 143.096 89.1938 153.743L105.847 181.357C106.775 182.891 107.039 184.694 106.604 186.432C106.164 188.17 105.074 189.627 103.529 190.538L64.4251 213.614C62.4929 214.754 61.3418 216.777 61.354 219.023C61.3662 221.27 62.5296 223.28 64.4739 224.404L123.286 258.375C128.395 261.325 134.736 261.317 139.837 258.354L179.197 235.494C180.934 234.485 182.163 232.857 182.659 230.907C183.151 228.958 182.85 226.943 181.801 225.226L165.643 198.731C159.066 187.946 157.451 174.841 161.218 162.778L175.345 117.517C176.464 113.936 174.975 110.126 171.729 108.25L109.447 72.2724C108.219 71.5602 106.852 71.202 105.477 71.202L105.481 71.2101Z" fill="black"></path><g style="mix-blend-mode:multiply" opacity="0.5"><path d="M181.984 225.124L165.826 198.629C159.501 188.264 157.789 175.749 161.055 164.089L154.913 184.922C153.505 189.7 147.957 191.841 143.706 189.248C127.069 179.09 91.5735 157.43 91.667 157.581L105.672 181.463C107.527 184.536 106.518 188.532 103.427 190.36L71.5112 209.191L118.844 236.801C124.469 242.429 123.444 248.583 118.23 254.268L118.16 255.656L123.184 258.558C128.37 261.554 134.765 261.545 139.943 258.538L179.303 235.677C182.996 233.533 184.205 228.771 181.98 225.124H181.984Z" fill="#32303B"></path></g><g style="mix-blend-mode:multiply" opacity="0.5"><path d="M173.486 235.657L106.571 195.988L128.899 178.793C128.899 178.793 155.596 192.81 161.917 203.18L176.321 225.202C178.546 228.844 177.18 233.512 173.486 235.661V235.657Z" fill="#32303B"></path></g><g style="mix-blend-mode:multiply" opacity="0.5"><path d="M185.006 136.69C180.052 134.761 175.459 133.732 170.191 134.444L175.919 116.467C177.342 111.994 172.046 108.437 168.446 111.445L69.8923 193.803L150.471 236.821C154.189 238.807 158.7 238.571 162.194 236.207L176.761 226.349L178.005 218.6L221.502 218.613C226.684 218.613 231.814 217.583 236.598 215.581L269.026 201.987C273.862 199.96 274.416 193.331 269.99 190.522L185.01 136.694L185.006 136.69Z" fill="#32303B"></path></g><path d="M191.571 51.2964C191.571 51.2964 137.816 223.488 137.751 223.655C136.941 225.82 135.265 227.546 133.203 228.588L126.78 232.014L54.9025 186.859C51.1317 184.682 49.3744 180.181 50.672 176.021L102.483 2.1447L111.465 0.492341C114.617 -0.175116 117.904 0.345826 120.69 1.95749L187.345 40.4583C191.116 42.6357 192.873 47.137 191.575 51.2964H191.571Z" fill="#8575E9"></path><path d="M126.776 232.254L126.674 232.189L54.7967 187.03C50.9201 184.792 49.1425 180.234 50.4808 175.956L102.32 1.96155L111.424 0.288835C114.625 -0.390831 117.953 0.13825 120.792 1.7784L187.447 40.2793C191.327 42.5218 193.105 47.08 191.771 51.3615C186.267 68.988 138.011 223.565 137.946 223.728C137.145 225.873 135.493 227.668 133.301 228.775L126.776 232.254ZM102.646 2.32783L50.8754 176.078C49.5981 180.177 51.2984 184.531 55.0082 186.676L126.788 231.774L133.105 228.404C135.208 227.342 136.787 225.629 137.555 223.582C137.747 223 190.835 52.9528 191.372 51.2353C192.649 47.141 190.949 42.7822 187.235 40.6374L120.585 2.13655C117.835 0.549306 114.609 0.0365042 111.505 0.695821L102.646 2.32376V2.32783Z" fill="#111111"></path><path d="M183.729 55.5207L130.083 227.375C129.225 232.49 122.627 235.067 117.465 232.087L46.4782 191.084C42.7073 188.906 40.9501 184.405 42.2477 180.246L95.8934 8.39179C97.671 2.69805 104.265 0.121834 109.427 3.10504L180.413 44.1089C184.184 46.2862 185.942 50.7875 183.725 55.5248L183.729 55.5207Z" fill="#D3C6F9"></path><path d="M122.171 233.569C120.52 233.569 118.856 233.133 117.359 232.27L46.3724 191.266C42.4917 189.024 40.7101 184.47 42.0484 180.184L95.6981 8.32636C96.5646 5.55071 98.6147 3.35299 101.32 2.2989C104.025 1.24073 107.019 1.46864 109.537 2.92158L180.523 43.9254C184.628 46.2981 186.027 51.0924 183.924 55.5937L130.282 227.435C129.904 229.69 128.374 231.615 126.092 232.694C124.856 233.276 123.518 233.565 122.171 233.565V233.569ZM104.781 2.05877C103.663 2.05877 102.54 2.26634 101.466 2.68553C98.8791 3.69486 96.9185 5.79897 96.0927 8.45252L42.447 180.306C41.1697 184.401 42.87 188.759 46.5839 190.904L117.571 231.908C120.166 233.406 123.286 233.56 125.918 232.319C128.073 231.302 129.522 229.487 129.88 227.342L183.533 55.4472V55.435C185.584 51.0639 184.286 46.5871 180.312 44.2876L109.325 3.2838C107.918 2.46983 106.356 2.05877 104.786 2.05877H104.781Z" fill="black"></path><path d="M181.91 54.0933L128.269 225.947C127.423 228.658 124.945 230.477 122.106 230.477C120.975 230.477 119.897 230.184 118.897 229.606L47.91 188.602C45.2823 187.084 44.0782 183.999 44.9853 181.097L98.631 9.24346C99.4771 6.537 101.95 4.71777 104.79 4.71777C105.92 4.71777 106.998 5.01487 107.999 5.58872L131.214 18.9989C132.271 19.6094 132.865 20.3053 133.187 21.1722C133.935 23.2031 135.408 24.8799 137.283 25.9584C139.256 27.0939 143.084 29.2549 145.239 30.4881C147.375 31.7131 149.893 32.3033 152.297 31.7783C152.797 31.6684 153.326 31.7294 153.798 32.0021L178.982 46.5885C181.613 48.1065 182.813 51.1915 181.906 54.0933H181.91Z" fill="white"></path><path d="M122.102 230.684C120.931 230.684 119.816 230.383 118.791 229.789L47.8043 188.785C45.0911 187.214 43.8463 184.031 44.7819 181.04L98.4317 9.18196C99.3022 6.38597 101.857 4.50977 104.79 4.50977C105.949 4.50977 107.063 4.81094 108.101 5.40513L131.32 18.8153C132.377 19.4258 133.036 20.1543 133.386 21.0985C134.106 23.0439 135.526 24.7044 137.389 25.7748C138.414 26.3649 139.935 27.2277 141.465 28.0946C142.884 28.9004 144.308 29.7103 145.345 30.3045C147.607 31.5987 150.06 32.0505 152.256 31.5743C152.838 31.4482 153.408 31.5336 153.908 31.8226L179.091 46.409C181.805 47.9758 183.049 51.1625 182.114 54.1539L128.472 226.008C127.602 228.804 125.043 230.68 122.11 230.68L122.102 230.684ZM104.79 4.92489C102.044 4.92489 99.6479 6.68714 98.8303 9.30813L45.1806 181.162C44.3019 183.966 45.4694 186.953 48.0117 188.423L118.998 229.426C119.962 229.984 121.008 230.269 122.102 230.269C124.852 230.269 127.248 228.507 128.065 225.886L181.711 54.0318C182.59 51.2277 181.422 48.2404 178.88 46.7712L153.696 32.1848C153.29 31.9487 152.822 31.8796 152.342 31.9854C150.048 32.486 147.485 32.0179 145.138 30.6708C144.1 30.0766 142.677 29.2667 141.257 28.4609C139.728 27.594 138.206 26.7271 137.181 26.1411C135.233 25.0219 133.748 23.284 132.995 21.2491C132.682 20.3985 132.084 19.7432 131.112 19.1816L107.897 5.77142C106.925 5.21385 105.88 4.92896 104.794 4.92896L104.79 4.92489Z" fill="black"></path><path d="M137.661 23.4101C137.527 23.8619 137.08 24.0572 136.665 23.8497C136.25 23.6421 136.026 23.1049 136.16 22.6572C136.295 22.2054 136.742 22.0101 137.157 22.2177C137.572 22.4252 137.796 22.9624 137.661 23.4101Z" fill="#12184E"></path><path d="M147.591 30.5485C147.359 30.5485 147.127 30.4875 146.911 30.3654L138.821 25.6525C138.178 25.2781 137.958 24.4519 138.333 23.8048C138.707 23.1577 139.532 22.942 140.179 23.3164L148.27 28.0293C148.917 28.4037 149.132 29.2299 148.758 29.877C148.506 30.3084 148.054 30.5485 147.591 30.5485Z" fill="#12184E"></path><g style="mix-blend-mode:multiply" opacity="0.5"><path d="M92.8507 16.8574C92.8507 16.8574 114.06 22.4291 123.989 28.0536L167.519 52.6966C169.125 53.6082 169.882 55.5211 169.329 57.2833L148.843 121.16C148.095 123.541 145.345 124.627 143.177 123.398L101.535 99.8256C91.7524 94.2865 81.1803 90.473 70.2705 88.4747L92.8507 16.8574Z" fill="#32303B"></path></g><path d="M33.8643 83.8666C31.0168 84.2777 28.7104 81.5794 29.5606 78.8282L49.578 15.2977C50.0296 13.8407 51.2824 12.7744 52.7956 12.5709L57.201 11.9726C78.8944 9.03009 100.954 13.275 120.003 24.0601L163.532 48.7031C165.143 49.6147 165.896 51.5276 165.343 53.2898L144.857 117.166C144.109 119.547 141.359 120.634 139.191 119.405L97.5492 95.832C78.2314 84.8963 55.8343 80.6881 33.8683 83.8666H33.8643Z" fill="#D3C6F9"></path><path d="M141.115 120.121C140.415 120.121 139.716 119.942 139.085 119.584L97.4433 96.0114C78.2679 85.1571 55.6999 80.9163 33.8926 84.0745C32.4811 84.278 31.0899 83.753 30.1665 82.6704C29.2432 81.5879 28.9421 80.1309 29.3611 78.7674L49.3786 15.2329C49.8505 13.7067 51.1806 12.5794 52.767 12.3636L57.1724 11.7654C78.7804 8.83101 101.129 13.1329 120.105 23.8773L163.634 48.5203C165.318 49.4726 166.119 51.5035 165.538 53.3512L145.052 117.232C144.678 118.424 143.796 119.372 142.632 119.832C142.14 120.028 141.627 120.121 141.115 120.121ZM48.0769 82.6379C65.3527 82.6379 82.5472 87.0985 97.6467 95.6492L139.288 119.222C140.269 119.775 141.432 119.857 142.478 119.446C143.523 119.031 144.32 118.18 144.654 117.106L165.139 53.225C165.66 51.5645 164.94 49.7372 163.427 48.8825L119.897 24.2395C100.999 13.5398 78.7397 9.25835 57.2253 12.1764L52.8199 12.7747C51.3962 12.966 50.2003 13.9794 49.7732 15.355L29.7557 78.8895C29.3774 80.1105 29.6499 81.4251 30.4798 82.3978C31.3096 83.3705 32.5625 83.8426 33.8316 83.6594C38.5583 82.9757 43.3217 82.6379 48.0769 82.6379Z" fill="black"></path><path d="M107.125 30.0431L106.893 30.792L106.401 32.3711C104.79 31.7321 103.167 31.142 101.531 30.5885C95.3484 28.4925 88.9661 26.9907 82.4902 26.1076L83.2224 23.7471C91.4068 24.8988 99.4447 27.0152 107.133 30.0431H107.125Z" fill="black"></path><path d="M75.2942 22.9373L74.5498 25.3303C68.379 24.96 62.1594 25.1553 56.0171 25.9083L56.8144 23.3605C62.9404 22.6809 69.1438 22.5343 75.2902 22.9373H75.2942Z" fill="black"></path><path d="M99.9816 35.5171L99.2535 37.841C88.7831 34.3084 77.8693 32.481 66.8171 32.4199L67.5737 29.9902C78.6177 30.1286 89.5153 31.9926 99.9816 35.5171Z" fill="black"></path><path d="M59.853 30.1779L59.0801 32.6686C57.3025 32.7948 55.5126 32.9657 53.7432 33.1774L54.5404 30.6337C56.3059 30.4343 58.0875 30.2837 59.857 30.1738L59.853 30.1779Z" fill="black"></path><path d="M98.1876 42.9405L97.4636 45.2685C82.7586 40.2259 66.8902 38.5695 51.4612 40.4538L52.2585 37.9102C67.6834 36.1845 83.4989 37.9102 98.1876 42.9405Z" fill="black"></path><path d="M97.2683 50.677L96.5483 53.005C93.4731 51.898 90.3165 50.9334 87.1477 50.1357L87.8677 47.8037C91.0324 48.6136 94.1849 49.57 97.2683 50.677Z" fill="black"></path><path d="M78.2515 45.8225L77.5234 48.1708C68.1309 46.7179 58.6164 46.5713 49.1792 47.7313L49.9765 45.1835C59.3893 44.1254 68.8835 44.337 78.2515 45.8225Z" fill="black"></path><path d="M96.3491 58.4265L95.6332 60.7586C87.4123 57.6858 78.8211 55.6753 70.0876 54.78L70.8239 52.4072C79.5493 53.3433 88.1241 55.3701 96.3491 58.4306V58.4265Z" fill="black"></path><path d="M59.7148 51.7922L58.9623 54.2301C54.9393 54.2504 50.8918 54.5068 46.9014 55.0033L47.6986 52.4556C51.681 52.0079 55.7121 51.7841 59.7148 51.7881V51.7922Z" fill="black"></path><path d="M93.1923 65.3655L92.4723 67.6935C77.2264 62.1625 60.7112 60.2945 44.6191 62.2846L45.4164 59.7369C61.5044 57.9217 77.9626 59.8549 93.1923 65.3655Z" fill="black"></path><path d="M92.566 73.233L91.842 75.5691C76.116 69.5619 59.0436 67.4904 42.3413 69.5579L43.1427 67.0101C59.8327 65.1217 76.8563 67.2625 92.566 73.233Z" fill="black"></path><path d="M130.221 85.3001C130.046 85.3001 129.871 85.3001 129.692 85.292C118.12 84.9745 107.991 74.2382 107.116 61.3571C106.673 54.8331 108.723 48.6266 112.742 44.3248C116.232 40.5886 120.951 38.5293 126.032 38.5293C126.206 38.5293 126.381 38.5293 126.56 38.5374C138.137 38.8549 148.262 49.5912 149.136 62.4723C149.58 68.9963 147.53 75.2028 143.511 79.5046C140.021 83.2408 135.302 85.3001 130.221 85.3001Z" fill="#111111"></path><path d="M126.032 38.7247C126.206 38.7247 126.377 38.7247 126.552 38.7328C138.048 39.0462 148.071 49.6848 148.941 62.4845C149.795 75.0929 141.452 85.1048 130.221 85.1048C130.046 85.1048 129.876 85.1048 129.701 85.0967C118.205 84.7833 108.182 74.1447 107.312 61.345C106.457 48.7365 114.8 38.7247 126.032 38.7247ZM126.032 38.334C120.898 38.334 116.127 40.4137 112.6 44.1905C108.544 48.533 106.478 54.7925 106.921 61.3694C107.804 74.3482 118.014 85.1658 129.684 85.4874C129.863 85.4914 130.042 85.4955 130.217 85.4955C135.351 85.4955 140.122 83.4158 143.649 79.639C147.705 75.2964 149.775 69.037 149.328 62.4601C148.445 49.4813 138.235 38.6636 126.564 38.3421C126.385 38.3381 126.211 38.334 126.032 38.334Z" fill="black"></path><path d="M125.47 95.7227L123.648 97.1145L121.215 95.9546L122.265 98.6367L121 100.647L123.473 100.908L125.12 103.309L125.6 100.794L127.882 100.265L125.706 98.4454L125.47 95.7227Z" fill="#D7FF65"></path><path d="M125.076 103.488C125.023 103.488 124.974 103.468 124.946 103.427L123.335 101.079L120.939 100.822C120.882 100.814 120.837 100.786 120.817 100.741C120.796 100.696 120.805 100.639 120.837 100.586L122.053 98.653L121.032 96.0442C121.008 95.975 121.032 95.8936 121.106 95.8367C121.179 95.7797 121.272 95.7634 121.341 95.796L123.66 96.903L125.365 95.6006C125.421 95.5558 125.499 95.5396 125.56 95.5518C125.621 95.5681 125.666 95.6128 125.67 95.6739L125.901 98.3437L128.037 100.13C128.086 100.171 128.098 100.24 128.066 100.305C128.037 100.37 127.968 100.423 127.891 100.444L125.767 100.932L125.316 103.305C125.299 103.382 125.234 103.451 125.149 103.48C125.125 103.488 125.096 103.492 125.072 103.492L125.076 103.488ZM121.301 100.493L123.538 100.733C123.587 100.737 123.624 100.761 123.648 100.794L125.023 102.796L125.401 100.798C125.417 100.712 125.495 100.639 125.588 100.619L127.463 100.187L125.552 98.5879C125.523 98.5635 125.507 98.535 125.503 98.4984L125.291 96.0605L123.75 97.2408C123.68 97.2937 123.587 97.31 123.522 97.2774L121.594 96.3576L122.452 98.5472C122.468 98.592 122.46 98.6449 122.432 98.6978L121.301 100.497V100.493Z" fill="#040100"></path><path d="M133.541 100.712L131.718 102.108L129.286 100.948L130.335 103.626L129.07 105.636L131.543 105.901L133.191 108.302L133.667 105.783L135.953 105.258L133.776 103.439L133.541 100.712Z" fill="#D7FF65"></path><path d="M133.146 108.477C133.093 108.477 133.044 108.453 133.016 108.416L131.405 106.068L129.009 105.811C128.952 105.803 128.907 105.775 128.887 105.73C128.867 105.685 128.875 105.628 128.907 105.575L130.124 103.642L129.103 101.033C129.078 100.964 129.103 100.883 129.176 100.826C129.245 100.769 129.343 100.752 129.412 100.785L131.73 101.892L133.435 100.59C133.492 100.545 133.569 100.524 133.63 100.541C133.691 100.557 133.736 100.602 133.74 100.663L133.972 103.333L136.107 105.119C136.156 105.16 136.168 105.229 136.136 105.294C136.103 105.359 136.038 105.412 135.961 105.433L133.838 105.921L133.386 108.294C133.374 108.371 133.305 108.44 133.223 108.469C133.199 108.477 133.17 108.481 133.146 108.481V108.477ZM129.371 105.482L131.608 105.722C131.657 105.726 131.694 105.75 131.718 105.783L133.093 107.785L133.471 105.787C133.488 105.701 133.565 105.628 133.659 105.608L135.534 105.176L133.622 103.577C133.593 103.552 133.577 103.524 133.577 103.487L133.366 101.049L131.824 102.226C131.755 102.279 131.661 102.295 131.596 102.262L129.668 101.342L130.526 103.532C130.543 103.577 130.535 103.63 130.506 103.683L129.375 105.482H129.371Z" fill="#040100"></path><path d="M117.375 90.8311L115.549 92.227L113.12 91.0671L114.17 93.7451L112.905 95.7556L115.378 96.0201L117.025 98.4213L117.501 95.9021L119.787 95.3771L117.611 93.5579L117.375 90.8311Z" fill="#D7FF65"></path><path d="M116.981 98.5961C116.928 98.5961 116.879 98.5717 116.851 98.535L115.24 96.1867L112.844 95.9303C112.787 95.9222 112.742 95.8937 112.722 95.8489C112.701 95.8042 112.71 95.7472 112.742 95.6943L113.958 93.7611L112.937 91.1523C112.913 91.0831 112.937 91.0017 113.011 90.9448C113.084 90.8878 113.177 90.8715 113.247 90.9041L115.565 92.0111L117.27 90.7087C117.327 90.6639 117.404 90.6436 117.465 90.6599C117.526 90.6761 117.571 90.7209 117.575 90.782L117.806 93.4518L119.942 95.2385C119.991 95.2792 120.003 95.3483 119.971 95.4135C119.942 95.4786 119.873 95.5315 119.796 95.5518L117.672 96.0402L117.221 98.4129C117.209 98.4903 117.139 98.5595 117.058 98.588C117.034 98.5961 117.005 98.6002 116.981 98.6002V98.5961ZM113.206 95.6007L115.439 95.8408C115.488 95.8449 115.524 95.8693 115.549 95.9018L116.924 97.9042L117.302 95.9059C117.318 95.8204 117.396 95.7472 117.489 95.7268L119.369 95.2954L117.457 93.696C117.428 93.6716 117.412 93.6431 117.408 93.6064L117.196 91.1686L115.655 92.3448C115.585 92.3977 115.492 92.414 115.427 92.3814L113.499 91.4616L114.357 93.6512C114.373 93.696 114.369 93.7489 114.337 93.8018L113.206 95.6007Z" fill="#040100"></path><path d="M109.256 86.0195L107.434 87.4155L105.005 86.2556L106.055 88.9336L104.79 90.9441L107.259 91.2086L108.91 93.6098L109.386 91.0906L111.672 90.5656L109.496 88.7463L109.256 86.0195Z" fill="#D7FF65"></path><path d="M108.866 93.7849C108.813 93.7849 108.764 93.7645 108.736 93.7238L107.125 91.3755L104.729 91.1191C104.672 91.111 104.627 91.0825 104.607 91.0377C104.586 90.993 104.595 90.936 104.627 90.8831L105.843 88.9499L104.822 86.3411C104.798 86.2719 104.822 86.1905 104.9 86.1335C104.977 86.0766 105.066 86.0603 105.136 86.0928L107.454 87.1998L109.159 85.8975C109.216 85.8527 109.293 85.8364 109.354 85.8487C109.419 85.8649 109.46 85.9097 109.464 85.9707L109.696 88.6406L111.831 90.4232C111.88 90.4639 111.892 90.5331 111.86 90.5982C111.827 90.6633 111.762 90.7203 111.685 90.7365L109.561 91.2249L109.11 93.5977C109.094 93.675 109.028 93.7442 108.947 93.7727C108.923 93.7808 108.894 93.7849 108.87 93.7849H108.866ZM105.091 90.7935L107.328 91.0336C107.377 91.0377 107.414 91.0621 107.438 91.0947L108.813 93.0971L109.191 91.0988C109.207 91.0133 109.285 90.94 109.378 90.9197L111.254 90.4883L109.342 88.8888C109.313 88.8644 109.297 88.8359 109.293 88.7993L109.081 86.3615L107.54 87.5376C107.47 87.5905 107.377 87.6068 107.308 87.5743L105.38 86.6545L106.238 88.8441C106.254 88.8888 106.246 88.9417 106.218 88.9946L105.087 90.7935H105.091Z" fill="#040100"></path><path d="M101.173 81.0791L99.3511 82.471L96.9226 81.3152L97.9721 83.9931L96.707 86.0036L99.1762 86.2641L100.828 88.6653L101.304 86.1501L103.59 85.6251L101.413 83.8059L101.173 81.0791Z" fill="#D7FF65"></path><path d="M100.783 88.8444C100.73 88.8444 100.681 88.8241 100.653 88.7834L99.042 86.4351L96.6461 86.1787C96.5891 86.1705 96.5444 86.1421 96.524 86.0973C96.5037 86.0525 96.5118 85.9955 96.5444 85.9426L97.7606 84.0095L96.7396 81.4007C96.7152 81.3356 96.7437 81.2501 96.8169 81.1931C96.8861 81.1361 96.9837 81.1199 97.0528 81.1524L99.3715 82.2594L101.076 80.9571C101.137 80.9123 101.21 80.896 101.271 80.9082C101.332 80.9245 101.377 80.9693 101.381 81.0303L101.613 83.7001L103.748 85.4827C103.797 85.5234 103.809 85.5926 103.777 85.6577C103.744 85.7229 103.679 85.7758 103.602 85.7961L101.479 86.2845L101.027 88.6572C101.011 88.7346 100.946 88.8037 100.864 88.8322C100.84 88.8404 100.811 88.8444 100.787 88.8444H100.783ZM97.0081 85.849L99.2413 86.0891C99.2901 86.0932 99.3267 86.1176 99.3511 86.1502L100.726 88.1526L101.104 86.1543C101.121 86.0688 101.198 85.9955 101.291 85.9752L103.167 85.5438L101.255 83.9443C101.226 83.9199 101.21 83.8914 101.21 83.8548L100.999 81.417L99.4569 82.5931C99.3877 82.6461 99.2942 82.6623 99.225 82.6298L97.2969 81.71L98.1552 83.8996C98.1715 83.9443 98.1633 83.9972 98.1349 84.0502L97.004 85.849H97.0081Z" fill="#040100"></path><g style="mix-blend-mode:multiply" opacity="0.5"><path d="M63.6767 101.853C63.6767 101.853 84.886 107.424 94.8195 113.049L138.349 137.692C139.96 138.603 140.712 140.516 140.159 142.278L119.674 206.155C118.925 208.536 116.175 209.622 114.007 208.393L72.3654 184.821C62.5825 179.282 52.0103 175.468 41.1006 173.47L63.6808 101.857L63.6767 101.853Z" fill="#32303B"></path></g><path d="M4.69018 168.867C1.84275 169.278 -0.463678 166.579 0.386485 163.828L20.404 100.298C20.8555 98.8407 22.1084 97.7744 23.6216 97.5709L28.027 96.9726C49.7204 94.0301 71.7758 98.275 90.8292 109.06L134.358 133.703C135.965 134.615 136.722 136.528 136.169 138.29L115.683 202.166C114.935 204.547 112.185 205.634 110.017 204.405L68.3751 180.832C49.0573 169.896 26.6602 165.688 4.69425 168.867H4.69018Z" fill="#D3C6F9"></path><path d="M111.941 205.121C111.237 205.121 110.541 204.942 109.911 204.583L68.2692 181.011C49.0938 170.157 26.5258 165.916 4.71854 169.074C3.30702 169.277 1.91585 168.752 0.992465 167.67C0.0690825 166.587 -0.231932 165.126 0.187048 163.767L20.2045 100.232C20.6764 98.7061 22.0065 97.5787 23.593 97.363L27.9984 96.7648C49.6063 93.8345 71.9546 98.1322 90.9308 108.877L134.46 133.52C136.144 134.472 136.945 136.503 136.364 138.351L115.878 202.231C115.504 203.424 114.621 204.372 113.458 204.832C112.966 205.027 112.453 205.121 111.941 205.121ZM18.9028 167.637C36.1786 167.637 53.3731 172.098 68.4726 180.649L110.114 204.221C111.095 204.775 112.254 204.856 113.303 204.445C114.349 204.03 115.146 203.179 115.48 202.105L135.965 138.224C136.486 136.564 135.766 134.741 134.252 133.882L90.7233 109.239C71.8245 98.5392 49.5657 94.2577 28.0512 97.1758L23.6459 97.7741C22.2221 97.9654 21.0262 98.9788 20.5991 100.354L0.581621 163.889C0.203319 165.11 0.475859 166.424 1.30568 167.397C2.13551 168.37 3.38838 168.842 4.65752 168.659C9.38427 167.975 14.1476 167.637 18.9028 167.637Z" fill="black"></path><path d="M77.9505 115.038L77.7186 115.787L77.2264 117.366C75.6156 116.727 73.9925 116.137 72.3532 115.584C66.1702 113.488 59.7879 111.986 53.312 111.103L54.0442 108.742C62.2286 109.894 70.2665 112.01 77.9545 115.038H77.9505Z" fill="black"></path><path d="M46.1202 107.936L45.3758 110.329C39.205 109.959 32.9853 110.154 26.843 110.907L27.6403 108.36C33.7664 107.68 39.9697 107.533 46.1161 107.936H46.1202Z" fill="black"></path><path d="M70.8076 120.516L70.0794 122.84C59.609 119.307 48.6952 117.48 37.6431 117.419L38.3997 114.989C49.4437 115.128 60.3412 116.992 70.8076 120.516Z" fill="black"></path><path d="M30.6789 115.177L29.906 117.668C28.1284 117.794 26.3386 117.965 24.5691 118.176L25.3664 115.633C27.1318 115.433 28.9135 115.283 30.6829 115.173L30.6789 115.177Z" fill="black"></path><path d="M69.0135 127.94L68.2895 130.267C53.5845 125.225 37.7161 123.568 22.2871 125.453L23.0844 122.909C38.5094 121.184 54.3248 122.909 69.0135 127.94Z" fill="black"></path><path d="M68.0942 135.676L67.3742 138.004C64.299 136.897 61.1424 135.932 57.9736 135.135L58.6936 132.803C61.8583 133.613 65.0109 134.569 68.0942 135.676Z" fill="black"></path><path d="M49.0775 130.822L48.3493 133.17C38.9569 131.717 29.4423 131.57 20.0051 132.73L20.8024 130.183C30.2152 129.124 39.7094 129.336 49.0775 130.822Z" fill="black"></path><path d="M67.1751 143.426L66.4591 145.758C58.2382 142.685 49.6471 140.674 40.9136 139.779L41.6498 137.406C50.3752 138.342 58.95 140.369 67.1751 143.43V143.426Z" fill="black"></path><path d="M30.5408 136.791L29.7882 139.229C25.7652 139.249 21.7178 139.506 17.7273 140.002L18.5246 137.455C22.5069 137.007 26.5381 136.783 30.5408 136.787V136.791Z" fill="black"></path><path d="M64.0183 150.361L63.2983 152.689C48.0523 147.158 31.5372 145.29 15.4451 147.28L16.2424 144.732C32.3304 142.917 48.7886 144.85 64.0183 150.361Z" fill="black"></path><path d="M63.3919 158.227L62.6679 160.563C46.9419 154.556 29.8695 152.485 13.1672 154.552L13.9686 152.004C30.6586 150.116 47.6822 152.257 63.3919 158.227Z" fill="black"></path><path d="M96.2962 180.722L94.4738 182.114L92.0413 180.954L93.0908 183.636L91.8257 185.642L94.2989 185.907L95.9463 188.308L96.4263 185.789L98.7083 185.264L96.5321 183.444L96.2962 180.722Z" fill="black"></path><path d="M95.9016 188.487C95.8447 188.487 95.7999 188.467 95.7715 188.426L94.1606 186.078L91.7647 185.821C91.7078 185.813 91.663 185.785 91.6427 185.74C91.6223 185.695 91.6305 185.638 91.663 185.585L92.8793 183.652L91.8583 181.043C91.8298 180.978 91.8583 180.893 91.9315 180.836C92.0006 180.779 92.0983 180.762 92.1674 180.795L94.4861 181.902L96.1904 180.6C96.2474 180.555 96.3247 180.539 96.3857 180.551C96.4467 180.567 96.4915 180.612 96.4955 180.673L96.7274 183.343L98.863 185.125C98.9118 185.166 98.924 185.235 98.8914 185.3C98.863 185.365 98.7938 185.422 98.7165 185.439L96.5932 185.927L96.1416 188.3C96.1254 188.377 96.0603 188.446 95.9749 188.475C95.9504 188.483 95.926 188.487 95.8976 188.487H95.9016ZM92.1267 185.496L94.36 185.732C94.4088 185.736 94.4454 185.76 94.4698 185.793L95.8447 187.795L96.223 185.797C96.2393 185.711 96.3165 185.638 96.4101 185.618L98.2853 185.186L96.3735 183.587C96.345 183.562 96.3288 183.534 96.3247 183.497L96.1132 181.06L94.5715 182.236C94.5023 182.289 94.4088 182.305 94.3437 182.272L92.4156 181.353L93.2739 183.542C93.2901 183.587 93.2861 183.644 93.2535 183.693L92.1227 185.492L92.1267 185.496Z" fill="#040100"></path><path d="M104.366 185.712L102.544 187.104L100.112 185.948L101.161 188.626L99.896 190.636L102.369 190.901L104.017 193.298L104.493 190.783L106.779 190.258L104.602 188.439L104.366 185.712Z" fill="black"></path><path d="M103.972 193.477C103.919 193.477 103.87 193.457 103.842 193.416L102.231 191.068L99.835 190.811C99.7781 190.807 99.7333 190.775 99.713 190.73C99.6927 190.685 99.7008 190.628 99.7333 190.575L100.95 188.642L99.9286 186.033C99.9042 185.964 99.9327 185.883 100.006 185.826C100.075 185.769 100.173 185.752 100.242 185.785L102.56 186.892L104.265 185.59C104.322 185.545 104.399 185.524 104.46 185.541C104.521 185.557 104.566 185.602 104.57 185.663L104.802 188.333L106.937 190.115C106.986 190.156 106.998 190.225 106.966 190.29C106.933 190.355 106.868 190.408 106.791 190.429L104.668 190.917L104.216 193.29C104.204 193.367 104.135 193.436 104.053 193.465C104.029 193.473 104 193.477 103.976 193.477H103.972ZM100.197 190.482L102.434 190.722C102.483 190.726 102.52 190.75 102.544 190.783L103.919 192.785L104.297 190.787C104.314 190.701 104.391 190.628 104.484 190.608L106.364 190.176L104.452 188.577C104.423 188.552 104.407 188.524 104.403 188.487L104.192 186.049L102.65 187.226C102.581 187.279 102.487 187.295 102.422 187.262L100.494 186.342L101.352 188.532C101.369 188.577 101.365 188.634 101.332 188.683L100.201 190.482H100.197Z" fill="#040100"></path><path d="M88.2012 175.83L86.3748 177.222L83.9463 176.066L84.9958 178.744L83.7307 180.755L86.2039 181.019L87.8514 183.416L88.3273 180.901L90.6134 180.376L88.4371 178.557L88.2012 175.83Z" fill="#D7FF65"></path><path d="M87.8067 183.595C87.7538 183.595 87.705 183.575 87.6765 183.534L86.0657 181.186L83.6697 180.929C83.6128 180.921 83.568 180.893 83.5477 180.848C83.5274 180.803 83.5355 180.746 83.568 180.693L84.7843 178.76L83.7633 176.151C83.7389 176.082 83.7674 176.001 83.8406 175.944C83.9138 175.887 84.0074 175.871 84.0765 175.903L86.3951 177.01L88.0995 175.708C88.1565 175.663 88.2338 175.643 88.2948 175.659C88.3599 175.675 88.4006 175.72 88.4046 175.781L88.6365 178.451L90.7721 180.237C90.8209 180.278 90.8331 180.347 90.8046 180.412C90.7721 180.478 90.707 180.535 90.6297 180.551L88.5063 181.039L88.0548 183.412C88.0385 183.489 87.9734 183.558 87.8921 183.587C87.8677 183.595 87.8392 183.599 87.8148 183.599L87.8067 183.595ZM84.0318 180.604L86.265 180.844C86.3138 180.848 86.3504 180.872 86.3748 180.905L87.7497 182.907L88.128 180.909C88.1443 180.824 88.2216 180.75 88.3151 180.73L90.1944 180.299L88.2826 178.699C88.2541 178.675 88.2378 178.646 88.2338 178.61L88.0223 176.172L86.4806 177.348C86.4114 177.401 86.3179 177.417 86.2528 177.385L84.3247 176.465L85.183 178.654C85.1992 178.699 85.1952 178.752 85.1626 178.805L84.0318 180.604Z" fill="#040100"></path><path d="M80.0821 171.019L78.2598 172.41L75.8313 171.255L76.8808 173.933L75.6157 175.943L78.0849 176.208L79.7364 178.605L80.2123 176.09L82.4984 175.565L80.3221 173.745L80.0821 171.019Z" fill="#D7FF65"></path><path d="M79.6917 178.784C79.6347 178.784 79.59 178.764 79.5615 178.723L77.9507 176.375L75.5548 176.118C75.4978 176.11 75.4531 176.082 75.4327 176.037C75.4124 175.992 75.4205 175.935 75.4531 175.882L76.6693 173.949L75.6483 171.34C75.6239 171.271 75.6524 171.19 75.7256 171.133C75.7988 171.076 75.8924 171.059 75.9615 171.092L78.2802 172.199L79.9846 170.897C80.0456 170.852 80.1188 170.835 80.1798 170.848C80.2408 170.864 80.2856 170.909 80.2896 170.97L80.5215 173.64L82.6571 175.422C82.7059 175.463 82.7181 175.532 82.6896 175.597C82.6571 175.662 82.592 175.719 82.5147 175.736L80.3913 176.224L79.9398 178.597C79.9235 178.674 79.8584 178.743 79.7771 178.772C79.7527 178.78 79.7242 178.784 79.6998 178.784H79.6917ZM75.9168 175.793L78.15 176.033C78.1988 176.037 78.2354 176.061 78.2598 176.094L79.6347 178.096L80.013 176.098C80.0293 176.012 80.1066 175.939 80.2001 175.919L82.0754 175.487L80.1635 173.888C80.1351 173.863 80.1188 173.835 80.1188 173.798L79.9073 171.36L78.3656 172.537C78.2964 172.59 78.2029 172.606 78.1378 172.573L76.2097 171.653L77.068 173.843C77.0842 173.888 77.0761 173.941 77.0476 173.994L75.9168 175.793Z" fill="#040100"></path><path d="M71.9994 166.078L70.177 167.47L67.7486 166.31L68.798 168.992L67.533 171.003L70.0021 171.263L71.6536 173.664L72.1295 171.149L74.4156 170.624L72.2394 168.801L71.9994 166.078Z" fill="#D7FF65"></path><path d="M71.6089 173.843C71.552 173.843 71.5072 173.823 71.4787 173.782L69.8679 171.434L67.472 171.178C67.415 171.17 67.3703 171.141 67.35 171.096C67.3296 171.052 67.3377 170.995 67.3703 170.942L68.5866 169.008L67.5655 166.4C67.5411 166.331 67.5696 166.249 67.6428 166.192C67.7161 166.135 67.8096 166.119 67.8788 166.151L70.1974 167.258L71.9018 165.956C71.9628 165.911 72.036 165.895 72.097 165.907C72.1621 165.924 72.2028 165.968 72.2069 166.029L72.4387 168.699L74.5743 170.482C74.6231 170.522 74.6353 170.592 74.6028 170.657C74.5702 170.722 74.5052 170.779 74.4279 170.795L72.3045 171.284L71.853 173.656C71.8367 173.734 71.7716 173.803 71.6903 173.831C71.6659 173.839 71.6374 173.843 71.613 173.843H71.6089ZM67.834 170.848L70.0672 171.088C70.116 171.092 70.1526 171.117 70.1771 171.149L71.552 173.152L71.9303 171.153C71.9465 171.068 72.0238 170.995 72.1174 170.974L73.9926 170.543L72.0808 168.943C72.0523 168.919 72.036 168.89 72.036 168.854L71.8245 166.416L70.2828 167.592C70.2137 167.645 70.1201 167.661 70.055 167.629L68.1269 166.709L68.9852 168.899C69.0015 168.943 68.9933 168.996 68.9649 169.049L67.834 170.848Z" fill="#040100"></path><path d="M100.828 170.559C100.649 170.559 100.474 170.559 100.295 170.551C88.5918 170.23 78.3491 159.371 77.4664 146.348C77.019 139.751 79.0935 133.475 83.1572 129.124C86.684 125.347 91.4595 123.268 96.5931 123.268C96.772 123.268 96.9469 123.268 97.1259 123.276C108.829 123.597 119.072 134.456 119.954 147.479C120.402 154.076 118.327 160.352 114.263 164.703C110.737 168.48 105.965 170.559 100.828 170.559Z" fill="#D7FF65"></path><path d="M96.589 123.463C96.7639 123.463 96.9389 123.463 97.1178 123.471C108.744 123.789 118.88 134.545 119.759 147.491C120.625 160.242 112.189 170.364 100.828 170.364C100.653 170.364 100.478 170.364 100.299 170.356C88.6732 170.038 78.5363 159.282 77.6577 146.336C76.7912 133.585 85.2278 123.463 96.589 123.463ZM96.589 123.072C91.3986 123.072 86.5742 125.176 83.0108 128.994C78.9105 133.385 76.8197 139.714 77.2712 146.364C78.1621 159.485 88.486 170.425 100.287 170.747C100.466 170.751 100.645 170.755 100.824 170.755C106.014 170.755 110.838 168.651 114.402 164.833C118.502 160.442 120.593 154.113 120.141 147.463C119.251 134.342 108.927 123.402 97.126 123.08C96.947 123.076 96.768 123.072 96.589 123.072Z" fill="black"></path><path fill-rule="evenodd" clip-rule="evenodd" d="M115.836 61.418C112.678 63.6869 110.199 67.1902 108.889 69.7288L108 69.2702C109.356 66.6421 111.927 62.9953 115.253 60.6059C118.596 58.2037 122.769 57.0375 127.192 59.5654C131.588 62.0771 133.588 66.9304 134.339 71.8491C135.091 76.7795 134.61 81.8914 133.934 85.1026L132.955 84.8966C133.612 81.7745 134.081 76.7862 133.35 72C132.618 67.2019 130.701 62.7218 126.696 60.4336C122.72 58.1614 118.976 59.1619 115.836 61.418Z" fill="#D7FF65"></path><path d="M136.444 53.5C136.444 57.156 133.694 60 130.444 60C127.194 60 124.444 57.156 124.444 53.5C124.444 49.844 127.194 47 130.444 47C133.694 47 136.444 49.844 136.444 53.5Z" stroke="#D7FF65" stroke-width="2"></path><path fill-rule="evenodd" clip-rule="evenodd" d="M86.3917 146.418C83.2339 148.687 80.7545 152.19 79.4443 154.729L78.5557 154.27C79.9121 151.642 82.4827 147.995 85.8082 145.606C89.1515 143.204 93.3244 142.038 97.748 144.565C102.144 147.077 104.143 151.93 104.894 156.849C105.647 161.78 105.165 166.891 104.489 170.103L103.511 169.897C104.168 166.774 104.636 161.786 103.906 157C103.173 152.202 101.256 147.722 97.2519 145.434C93.2756 143.161 89.5317 144.162 86.3917 146.418Z" fill="black"></path><path d="M107 138.5C107 142.156 104.25 145 101 145C97.7502 145 95 142.156 95 138.5C95 134.844 97.7502 132 101 132C104.25 132 107 134.844 107 138.5Z" stroke="black" stroke-width="2"></path></g><defs><clipPath id="clip0_3845_4547"><rect width="273" height="261" fill="white"></rect></clipPath></defs></svg>