<?xml version="1.0" encoding="UTF-8"?>
<svg xmlns="http://www.w3.org/2000/svg" width="166" height="15" viewBox="0 0 166 15" fill="none">
  <path d="M11.8211 9.46663C19.037 9.97823 26.5405 11.5114 33.9125 12.1015C49.1553 13.3216 63.5034 13.2283 78.7146 12.2479C102.639 10.7058 128.313 9.9216 150.821 3.53823C153.765 2.70327 156.668 2.43761 159.802 2.22081C159.894 2.21447 164.305 1.84641 163.983 2.07443C160.111 4.81961 147.317 4.83763 142.614 5.14841C99.8943 7.97191 56.7098 6.17307 13.8857 6.17307C9.99675 6.17307 5.87547 5.37718 2.22064 6.31945C1.10122 6.60806 4.54589 6.70678 5.73049 6.79519C7.12553 6.8993 8.56154 6.83178 9.96295 6.83178" stroke="#D7FF65" stroke-width="3" stroke-linecap="round"></path>
</svg>
