<svg xmlns="http://www.w3.org/2000/svg" width="162" height="28" viewBox="0 0 162 28" fill="none"><path d="M77.5702 9.00391C79.0416 9.00391 80.2625 9.49002 81.2642 10.4299C82.266 11.3697 82.7356 12.7308 82.7356 14.4484V22.3235H79.1355V15.129C79.1355 14.254 78.9163 13.5734 78.5094 13.0873C78.1024 12.6012 77.5389 12.3743 76.8189 12.3743C76.0675 12.3743 75.4414 12.6336 74.9719 13.1521C74.5023 13.6706 74.2518 14.3512 74.2518 15.2262V22.2911H70.6517V15.1614C70.6517 14.3188 70.4326 13.6382 69.9943 13.1521C69.556 12.666 68.9925 12.4067 68.3038 12.4067C67.5525 12.4067 66.9577 12.666 66.4881 13.1845C66.0185 13.703 65.7681 14.416 65.7681 15.291V22.3235H62.168V9.36039H65.6742V11.2076C66.0185 10.5271 66.5507 9.97614 67.2394 9.58725C67.9282 9.19835 68.7108 9.00391 69.5247 9.00391C70.3074 9.00391 71.0274 9.19835 71.6848 9.55484C72.3109 9.91133 72.8118 10.4623 73.1249 11.2076C73.5944 10.5271 74.2205 9.97614 75.0032 9.58725C75.7858 9.19835 76.6623 9.00391 77.5702 9.00391Z" fill="black"></path><path d="M87.2109 8.03149C86.6161 8.03149 86.0839 7.83704 85.6769 7.41574C85.2699 6.99444 85.0508 6.47591 85.0508 5.82776C85.0508 5.21201 85.2699 4.66107 85.6769 4.23977C86.0839 3.81847 86.5847 3.62402 87.2109 3.62402C87.8057 3.62402 88.3065 3.81847 88.7135 4.23977C89.1205 4.66107 89.3396 5.1796 89.3396 5.82776C89.3396 6.4435 89.1205 6.99444 88.7135 7.41574C88.3065 7.80463 87.8057 8.03149 87.2109 8.03149ZM88.9639 9.36021V22.3233H85.3638V9.36021H88.9639Z" fill="black"></path><path d="M95.2544 22.3237H91.6543V9.36057H95.1605V11.143C95.5049 10.5273 96.0057 10.0087 96.7258 9.58743C97.4458 9.16613 98.2284 8.97168 99.105 8.97168C100.451 8.97168 101.609 9.42539 102.549 10.3652C103.488 11.305 103.957 12.6338 103.957 14.3514V22.2913H100.357V15.356C100.357 14.4162 100.138 13.7032 99.6998 13.1847C99.2615 12.6662 98.6667 12.4069 97.9154 12.4069C97.1014 12.4069 96.444 12.6986 95.9744 13.2495C95.4736 13.8004 95.2231 14.5458 95.2231 15.4532V22.3237H95.2544Z" fill="black"></path><path d="M112.294 22.6485C110.478 22.6485 109.038 22.13 107.973 21.093C106.94 20.0559 106.408 18.5976 106.408 16.7503V9.36133H110.008V16.7827C110.008 17.5281 110.196 18.1438 110.603 18.5652C111.01 19.0189 111.574 19.2133 112.294 19.2133C113.014 19.2133 113.577 18.9865 113.984 18.5652C114.391 18.1114 114.579 17.5281 114.579 16.7827V9.36133H118.179V16.7503C118.179 18.63 117.647 20.0883 116.614 21.093C115.581 22.13 114.141 22.6485 112.294 22.6485Z" fill="black"></path><path d="M129.099 18.6264L130.1 21.5755C129.036 22.2885 127.752 22.645 126.25 22.645C123.276 22.645 121.773 20.895 121.773 17.4273V12.4041H119.77V9.32536H121.773V4.75586H125.342V9.35777H129.349V12.4365H125.342V17.0708C125.342 18.5292 125.905 19.2746 127.001 19.2746C127.627 19.2422 128.316 19.0477 129.099 18.6264Z" fill="black"></path><path d="M139.897 18.6264L140.899 21.5755C139.835 22.2885 138.551 22.645 137.049 22.645C134.075 22.645 132.572 20.895 132.572 17.4273V12.4041H130.568V9.32536H132.572V4.75586H136.141V9.35777H140.21V12.4365H136.203V17.0708C136.203 18.5292 136.767 19.2746 137.863 19.2746C138.426 19.2422 139.115 19.0477 139.897 18.6264Z" fill="black"></path><path d="M144.254 8.03149C143.659 8.03149 143.127 7.83704 142.72 7.41574C142.313 6.99444 142.094 6.47591 142.094 5.82776C142.094 5.21201 142.313 4.66107 142.72 4.23977C143.127 3.81847 143.628 3.62402 144.254 3.62402C144.849 3.62402 145.349 3.81847 145.756 4.23977C146.163 4.66107 146.383 5.1796 146.383 5.82776C146.383 6.4435 146.163 6.99444 145.756 7.41574C145.349 7.80463 144.849 8.03149 144.254 8.03149ZM146.007 9.36021V22.3233H142.407V9.36021H146.007Z" fill="black"></path><path d="M158.108 10.7215V9.36039H161.489V22.3235H158.108V20.9948C157.043 22.0967 155.76 22.6476 154.257 22.6476C152.473 22.6476 151.001 21.9994 149.812 20.6707C148.653 19.3744 148.09 17.7216 148.09 15.7447C148.09 13.8327 148.685 12.2123 149.843 10.916C151.001 9.65206 152.473 9.00391 154.257 9.00391C155.76 9.00391 157.043 9.58725 158.108 10.7215ZM151.659 15.8096C151.659 16.7818 151.94 17.592 152.535 18.2725C153.161 18.9207 153.944 19.2772 154.852 19.2772C155.791 19.2772 156.542 18.9531 157.168 18.2725C157.795 17.592 158.108 16.7818 158.108 15.842C158.108 14.9021 157.795 14.0919 157.168 13.4438C156.542 12.7956 155.76 12.4391 154.852 12.4391C153.944 12.4391 153.161 12.7632 152.535 13.4438C151.972 14.0595 151.659 14.8697 151.659 15.8096Z" fill="black"></path><rect y="13.5352" width="19.1423" height="19.1423" rx="2" transform="rotate(-45 0 13.5352)" fill="black" fill-opacity="0.63"></rect><rect x="13.418" y="13.5352" width="19.1423" height="19.1423" rx="2" transform="rotate(-45 13.418 13.5352)" fill="black" fill-opacity="0.63"></rect><rect x="26.5684" y="13.5352" width="19.1423" height="19.1423" rx="2" transform="rotate(-45 26.5684 13.5352)" fill="black" fill-opacity="0.63"></rect></svg>