<svg xmlns="http://www.w3.org/2000/svg" width="148" height="26" viewBox="0 0 148 26" fill="none"><path d="M70.783 8.8739C72.1256 8.8739 73.2397 9.31748 74.1538 10.1751C75.0679 11.0327 75.4964 12.2747 75.4964 13.842V21.028H72.2113V14.463C72.2113 13.6646 72.0113 13.0436 71.64 12.6C71.2686 12.1564 70.7544 11.9494 70.0974 11.9494C69.4118 11.9494 68.8405 12.186 68.412 12.6591C67.9835 13.1323 67.755 13.7533 67.755 14.5517V20.9984H64.4699V14.4926C64.4699 13.7237 64.27 13.1027 63.87 12.6591C63.4701 12.2155 62.9559 11.979 62.3275 11.979C61.6419 11.979 61.0991 12.2155 60.6706 12.6887C60.2421 13.1618 60.0136 13.8124 60.0136 14.6109V21.028H56.7285V9.19919H59.9279V10.8848C60.2421 10.2638 60.7278 9.76106 61.3562 9.4062C61.9847 9.05133 62.6988 8.8739 63.4415 8.8739C64.1557 8.8739 64.8127 9.05133 65.4126 9.37663C65.9839 9.70192 66.441 10.2046 66.7266 10.8848C67.1551 10.2638 67.7264 9.76106 68.4406 9.4062C69.1547 9.05133 69.9546 8.8739 70.783 8.8739Z" fill="white"></path><path d="M79.579 7.98834C79.0362 7.98834 78.5506 7.81091 78.1792 7.42648C77.8079 7.04204 77.6079 6.56889 77.6079 5.97745C77.6079 5.41558 77.8079 4.91286 78.1792 4.52842C78.5506 4.14398 79.0077 3.96655 79.579 3.96655C80.1217 3.96655 80.5788 4.14398 80.9501 4.52842C81.3215 4.91286 81.5215 5.38601 81.5215 5.97745C81.5215 6.53932 81.3215 7.04204 80.9501 7.42648C80.5788 7.78134 80.1217 7.98834 79.579 7.98834ZM81.1787 9.2008V21.0296H77.8936V9.2008H81.1787Z" fill="white"></path><path d="M86.9201 21.0249H83.635V9.19605H86.8344V10.8225C87.1486 10.2606 87.6057 9.78749 88.2627 9.40305C88.9197 9.01862 89.6339 8.84119 90.4337 8.84119C91.6621 8.84119 92.719 9.25519 93.576 10.1128C94.433 10.9704 94.8615 12.1828 94.8615 13.7501V20.9953H91.5764V14.6669C91.5764 13.8093 91.3764 13.1587 90.9765 12.6855C90.5766 12.2124 90.0338 11.9758 89.3482 11.9758C88.6055 11.9758 88.0056 12.242 87.5771 12.7447C87.1201 13.2474 86.8915 13.9276 86.8915 14.7556V21.0249H86.9201Z" fill="white"></path><path d="M102.467 21.3235C100.81 21.3235 99.4962 20.8503 98.525 19.904C97.5823 18.9577 97.0967 17.627 97.0967 15.9414V9.19897H100.382V15.971C100.382 16.6511 100.553 17.213 100.925 17.5974C101.296 18.0114 101.81 18.1889 102.467 18.1889C103.124 18.1889 103.638 17.9819 104.01 17.5974C104.381 17.1834 104.552 16.6511 104.552 15.971V9.19897H107.837V15.9414C107.837 17.6566 107.352 18.9873 106.409 19.904C105.467 20.8503 104.152 21.3235 102.467 21.3235Z" fill="white"></path><path d="M117.803 17.6572L118.717 20.3482C117.746 20.9988 116.575 21.3241 115.203 21.3241C112.49 21.3241 111.119 19.7272 111.119 16.563V11.9794H109.29V9.17002H111.119V5.00037H114.375V9.19959H118.031V12.0089H114.375V16.2377C114.375 17.5685 114.889 18.2486 115.889 18.2486C116.46 18.2191 117.089 18.0416 117.803 17.6572Z" fill="white"></path><path d="M127.656 17.6572L128.57 20.3482C127.599 20.9988 126.428 21.3241 125.056 21.3241C122.343 21.3241 120.972 19.7272 120.972 16.563V11.9794H119.143V9.17002H120.972V5.00037H124.228V9.19959H127.942V12.0089H124.285V16.2377C124.285 17.5685 124.799 18.2486 125.799 18.2486C126.313 18.2191 126.942 18.0416 127.656 17.6572Z" fill="white"></path><path d="M131.631 7.98834C131.088 7.98834 130.603 7.81091 130.231 7.42648C129.86 7.04204 129.66 6.56889 129.66 5.97745C129.66 5.41558 129.86 4.91286 130.231 4.52842C130.603 4.14398 131.06 3.96655 131.631 3.96655C132.174 3.96655 132.631 4.14398 133.002 4.52842C133.374 4.91286 133.574 5.38601 133.574 5.97745C133.574 6.53932 133.374 7.04204 133.002 7.42648C132.631 7.78134 132.174 7.98834 131.631 7.98834ZM133.231 9.2008V21.0296H129.946V9.2008H133.231Z" fill="white"></path><path d="M144.273 10.4412V9.19919H147.358V21.028H144.273V19.8155C143.302 20.821 142.13 21.3237 140.759 21.3237C139.131 21.3237 137.788 20.7323 136.703 19.5198C135.646 18.3369 135.132 16.8288 135.132 15.0249C135.132 13.2801 135.674 11.8015 136.731 10.6187C137.788 9.46534 139.131 8.8739 140.759 8.8739C142.13 8.8739 143.302 9.4062 144.273 10.4412ZM138.388 15.084C138.388 15.9712 138.645 16.7105 139.188 17.3315C139.759 17.9229 140.473 18.2482 141.302 18.2482C142.159 18.2482 142.844 17.9525 143.416 17.3315C143.987 16.7105 144.273 15.9712 144.273 15.1136C144.273 14.256 143.987 13.5167 143.416 12.9253C142.844 12.3338 142.13 12.0085 141.302 12.0085C140.473 12.0085 139.759 12.3043 139.188 12.9253C138.674 13.4871 138.388 14.2264 138.388 15.084Z" fill="white"></path><rect y="13.009" width="17.4672" height="17.4672" rx="2.05679" transform="rotate(-45 0 13.009)" fill="white" fill-opacity="0.63"></rect><rect x="12.2417" y="13.009" width="17.4672" height="17.4672" rx="2.05679" transform="rotate(-45 12.2417 13.009)" fill="white" fill-opacity="0.63"></rect><rect x="24.2437" y="13.009" width="17.4672" height="17.4672" rx="2.05679" transform="rotate(-45 24.2437 13.009)" fill="white" fill-opacity="0.63"></rect></svg>