<svg xmlns="http://www.w3.org/2000/svg" width="58" height="53" viewBox="0 0 58 53" fill="none"><g id="Group 44255"><g id="Group 44254"><g id="Group 44247"><g id="Vector"><mask id="path-1-outside-1_4086_9109" maskUnits="userSpaceOnUse" x="0" y="35.9307" width="19" height="17" fill="black"><rect fill="white" y="35.9307" width="19" height="17"></rect><path d="M1.95244 50.2617C1.72469 44.9502 2.29213 38.0482 9.07056 37.8089C11.9965 37.7047 14.359 39.048 15.7255 41.6111C17.1807 44.3364 16.7677 47.7295 16.482 50.6748L16.9144 50.2424C11.9039 50.1498 6.88957 50.061 1.8791 49.9684C1.31937 49.9568 1.31937 50.8253 1.8791 50.8369C6.88957 50.9295 11.9039 51.0183 16.9144 51.111C17.1691 51.1148 17.3274 50.9102 17.3467 50.6786C17.6787 47.2392 17.8833 43.823 16.208 40.6847C14.8839 38.2026 12.3401 37.1372 9.66116 36.9519C6.90887 36.7628 4.60822 37.8398 2.94836 40.0053C0.755795 42.8618 0.933359 46.8802 1.07618 50.2656C1.09935 50.8253 1.96788 50.8253 1.94472 50.2656L1.95244 50.2617Z"></path></mask><path d="M1.95244 50.2617C1.72469 44.9502 2.29213 38.0482 9.07056 37.8089C11.9965 37.7047 14.359 39.048 15.7255 41.6111C17.1807 44.3364 16.7677 47.7295 16.482 50.6748L16.9144 50.2424C11.9039 50.1498 6.88957 50.061 1.8791 49.9684C1.31937 49.9568 1.31937 50.8253 1.8791 50.8369C6.88957 50.9295 11.9039 51.0183 16.9144 51.111C17.1691 51.1148 17.3274 50.9102 17.3467 50.6786C17.6787 47.2392 17.8833 43.823 16.208 40.6847C14.8839 38.2026 12.3401 37.1372 9.66116 36.9519C6.90887 36.7628 4.60822 37.8398 2.94836 40.0053C0.755795 42.8618 0.933359 46.8802 1.07618 50.2656C1.09935 50.8253 1.96788 50.8253 1.94472 50.2656L1.95244 50.2617Z" fill="#8B75F3"></path><path d="M1.95244 50.2617C1.72469 44.9502 2.29213 38.0482 9.07056 37.8089C11.9965 37.7047 14.359 39.048 15.7255 41.6111C17.1807 44.3364 16.7677 47.7295 16.482 50.6748L16.9144 50.2424C11.9039 50.1498 6.88957 50.061 1.8791 49.9684C1.31937 49.9568 1.31937 50.8253 1.8791 50.8369C6.88957 50.9295 11.9039 51.0183 16.9144 51.111C17.1691 51.1148 17.3274 50.9102 17.3467 50.6786C17.6787 47.2392 17.8833 43.823 16.208 40.6847C14.8839 38.2026 12.3401 37.1372 9.66116 36.9519C6.90887 36.7628 4.60822 37.8398 2.94836 40.0053C0.755795 42.8618 0.933359 46.8802 1.07618 50.2656C1.09935 50.8253 1.96788 50.8253 1.94472 50.2656L1.95244 50.2617Z" stroke="#8B75F3" stroke-width="1.2" mask="url(#path-1-outside-1_4086_9109)"></path></g><g id="Vector_2"><mask id="path-2-outside-2_4086_9109" maskUnits="userSpaceOnUse" x="3.01562" y="24.3916" width="13" height="11" fill="black"><rect fill="white" x="3.01562" y="24.3916" width="13" height="11"></rect><path d="M7.27171 33.7598C10.1707 34.4121 13.0195 34.4044 14.2161 31.243C15.3549 28.2243 12.7801 25.9005 10.0317 25.4527C7.42225 25.0281 4.87069 26.8694 4.13341 29.309C3.4077 31.7178 6.18314 34.2114 8.41431 34.0686C8.97017 34.0338 8.97403 33.1653 8.41431 33.2C6.07892 33.3467 4.31097 30.7759 5.31075 28.6451C6.19086 26.769 8.5031 26.0819 10.3907 26.3869C12.7145 26.7652 13.9382 28.7918 13.3785 31.0113C12.6759 33.8022 9.6071 33.3969 7.50331 32.9221C6.95903 32.7986 6.72743 33.6362 7.27171 33.7598Z"></path></mask><path d="M7.27171 33.7598C10.1707 34.4121 13.0195 34.4044 14.2161 31.243C15.3549 28.2243 12.7801 25.9005 10.0317 25.4527C7.42225 25.0281 4.87069 26.8694 4.13341 29.309C3.4077 31.7178 6.18314 34.2114 8.41431 34.0686C8.97017 34.0338 8.97403 33.1653 8.41431 33.2C6.07892 33.3467 4.31097 30.7759 5.31075 28.6451C6.19086 26.769 8.5031 26.0819 10.3907 26.3869C12.7145 26.7652 13.9382 28.7918 13.3785 31.0113C12.6759 33.8022 9.6071 33.3969 7.50331 32.9221C6.95903 32.7986 6.72743 33.6362 7.27171 33.7598Z" fill="#8B75F3"></path><path d="M7.27171 33.7598C10.1707 34.4121 13.0195 34.4044 14.2161 31.243C15.3549 28.2243 12.7801 25.9005 10.0317 25.4527C7.42225 25.0281 4.87069 26.8694 4.13341 29.309C3.4077 31.7178 6.18314 34.2114 8.41431 34.0686C8.97017 34.0338 8.97403 33.1653 8.41431 33.2C6.07892 33.3467 4.31097 30.7759 5.31075 28.6451C6.19086 26.769 8.5031 26.0819 10.3907 26.3869C12.7145 26.7652 13.9382 28.7918 13.3785 31.0113C12.6759 33.8022 9.6071 33.3969 7.50331 32.9221C6.95903 32.7986 6.72743 33.6362 7.27171 33.7598Z" stroke="#8B75F3" stroke-width="1.2" mask="url(#path-2-outside-2_4086_9109)"></path></g></g><g id="Group 44248"><g id="Vector_3"><mask id="path-3-outside-3_4086_9109" maskUnits="userSpaceOnUse" x="19.458" y="28.7031" width="19" height="17" fill="black"><rect fill="white" x="19.458" y="28.7031" width="19" height="17"></rect><path d="M21.4104 43.0342C21.1827 37.7226 21.7501 30.8207 28.5286 30.5813C31.4546 30.4771 33.817 31.8205 35.1835 34.3836C36.6387 37.1089 36.2257 40.5019 35.9401 43.4472L36.3724 43.0149C31.3619 42.9222 26.3476 42.8335 21.3371 42.7408C20.7774 42.7292 20.7774 43.5978 21.3371 43.6093C26.3476 43.702 31.3619 43.7908 36.3724 43.8834C36.6272 43.8873 36.7854 43.6827 36.8047 43.4511C37.1367 40.0117 37.3413 36.5955 35.666 33.4572C34.3419 30.9751 31.7981 29.9097 29.1192 29.7244C26.3669 29.5352 24.0662 30.6122 22.4064 32.7778C20.2138 35.6343 20.3914 39.6527 20.5342 43.038C20.5574 43.5978 21.4259 43.5978 21.4027 43.038L21.4104 43.0342Z"></path></mask><path d="M21.4104 43.0342C21.1827 37.7226 21.7501 30.8207 28.5286 30.5813C31.4546 30.4771 33.817 31.8205 35.1835 34.3836C36.6387 37.1089 36.2257 40.5019 35.9401 43.4472L36.3724 43.0149C31.3619 42.9222 26.3476 42.8335 21.3371 42.7408C20.7774 42.7292 20.7774 43.5978 21.3371 43.6093C26.3476 43.702 31.3619 43.7908 36.3724 43.8834C36.6272 43.8873 36.7854 43.6827 36.8047 43.4511C37.1367 40.0117 37.3413 36.5955 35.666 33.4572C34.3419 30.9751 31.7981 29.9097 29.1192 29.7244C26.3669 29.5352 24.0662 30.6122 22.4064 32.7778C20.2138 35.6343 20.3914 39.6527 20.5342 43.038C20.5574 43.5978 21.4259 43.5978 21.4027 43.038L21.4104 43.0342Z" fill="#8B75F3"></path><path d="M21.4104 43.0342C21.1827 37.7226 21.7501 30.8207 28.5286 30.5813C31.4546 30.4771 33.817 31.8205 35.1835 34.3836C36.6387 37.1089 36.2257 40.5019 35.9401 43.4472L36.3724 43.0149C31.3619 42.9222 26.3476 42.8335 21.3371 42.7408C20.7774 42.7292 20.7774 43.5978 21.3371 43.6093C26.3476 43.702 31.3619 43.7908 36.3724 43.8834C36.6272 43.8873 36.7854 43.6827 36.8047 43.4511C37.1367 40.0117 37.3413 36.5955 35.666 33.4572C34.3419 30.9751 31.7981 29.9097 29.1192 29.7244C26.3669 29.5352 24.0662 30.6122 22.4064 32.7778C20.2138 35.6343 20.3914 39.6527 20.5342 43.038C20.5574 43.5978 21.4259 43.5978 21.4027 43.038L21.4104 43.0342Z" stroke="#8B75F3" stroke-width="1.2" mask="url(#path-3-outside-3_4086_9109)"></path></g><g id="Vector_4"><mask id="path-4-outside-4_4086_9109" maskUnits="userSpaceOnUse" x="22.4736" y="17.1641" width="13" height="11" fill="black"><rect fill="white" x="22.4736" y="17.1641" width="13" height="11"></rect><path d="M26.7297 26.5322C29.6287 27.1846 32.4775 27.1769 33.6741 24.0154C34.8129 20.9968 32.2381 18.673 29.4897 18.2252C26.8803 17.8006 24.3287 19.6419 23.5914 22.0815C22.8657 24.4902 25.6412 26.9839 27.8723 26.841C28.4282 26.8063 28.432 25.9378 27.8723 25.9725C25.5369 26.1192 23.769 23.5483 24.7688 21.4175C25.6489 19.5415 27.9611 18.8544 29.8487 19.1593C32.1725 19.5376 33.3962 21.5642 32.8365 23.7838C32.1339 26.5747 29.0651 26.1694 26.9613 25.6946C26.417 25.5711 26.1854 26.4087 26.7297 26.5322Z"></path></mask><path d="M26.7297 26.5322C29.6287 27.1846 32.4775 27.1769 33.6741 24.0154C34.8129 20.9968 32.2381 18.673 29.4897 18.2252C26.8803 17.8006 24.3287 19.6419 23.5914 22.0815C22.8657 24.4902 25.6412 26.9839 27.8723 26.841C28.4282 26.8063 28.432 25.9378 27.8723 25.9725C25.5369 26.1192 23.769 23.5483 24.7688 21.4175C25.6489 19.5415 27.9611 18.8544 29.8487 19.1593C32.1725 19.5376 33.3962 21.5642 32.8365 23.7838C32.1339 26.5747 29.0651 26.1694 26.9613 25.6946C26.417 25.5711 26.1854 26.4087 26.7297 26.5322Z" fill="#8B75F3"></path><path d="M26.7297 26.5322C29.6287 27.1846 32.4775 27.1769 33.6741 24.0154C34.8129 20.9968 32.2381 18.673 29.4897 18.2252C26.8803 17.8006 24.3287 19.6419 23.5914 22.0815C22.8657 24.4902 25.6412 26.9839 27.8723 26.841C28.4282 26.8063 28.432 25.9378 27.8723 25.9725C25.5369 26.1192 23.769 23.5483 24.7688 21.4175C25.6489 19.5415 27.9611 18.8544 29.8487 19.1593C32.1725 19.5376 33.3962 21.5642 32.8365 23.7838C32.1339 26.5747 29.0651 26.1694 26.9613 25.6946C26.417 25.5711 26.1854 26.4087 26.7297 26.5322Z" stroke="#8B75F3" stroke-width="1.2" mask="url(#path-4-outside-4_4086_9109)"></path></g></g><g id="Group 44249"><g id="Vector_5"><mask id="path-5-outside-5_4086_9109" maskUnits="userSpaceOnUse" x="38.916" y="36.4863" width="19" height="17" fill="black"><rect fill="white" x="38.916" y="36.4863" width="19" height="17"></rect><path d="M40.8685 50.8174C40.6407 45.5058 41.2081 38.6039 47.9866 38.3645C50.9126 38.2603 53.275 39.6037 54.6415 42.1668C56.0967 44.8921 55.6837 48.2851 55.3981 51.2304L55.8304 50.7981C50.8199 50.7054 45.8056 50.6167 40.7951 50.524C40.2354 50.5124 40.2354 51.381 40.7951 51.3926C45.8056 51.4852 50.8199 51.574 55.8304 51.6666C56.0852 51.6705 56.2434 51.4659 56.2627 51.2343C56.5947 47.7949 56.7993 44.3787 55.124 41.2404C53.8 38.7583 51.2561 37.6929 48.5772 37.5076C45.8249 37.3184 43.5242 38.3954 41.8644 40.561C39.6718 43.4175 39.8494 47.4359 39.9922 50.8212C40.0154 51.381 40.8839 51.381 40.8607 50.8212L40.8685 50.8174Z"></path></mask><path d="M40.8685 50.8174C40.6407 45.5058 41.2081 38.6039 47.9866 38.3645C50.9126 38.2603 53.275 39.6037 54.6415 42.1668C56.0967 44.8921 55.6837 48.2851 55.3981 51.2304L55.8304 50.7981C50.8199 50.7054 45.8056 50.6167 40.7951 50.524C40.2354 50.5124 40.2354 51.381 40.7951 51.3926C45.8056 51.4852 50.8199 51.574 55.8304 51.6666C56.0852 51.6705 56.2434 51.4659 56.2627 51.2343C56.5947 47.7949 56.7993 44.3787 55.124 41.2404C53.8 38.7583 51.2561 37.6929 48.5772 37.5076C45.8249 37.3184 43.5242 38.3954 41.8644 40.561C39.6718 43.4175 39.8494 47.4359 39.9922 50.8212C40.0154 51.381 40.8839 51.381 40.8607 50.8212L40.8685 50.8174Z" fill="#8B75F3"></path><path d="M40.8685 50.8174C40.6407 45.5058 41.2081 38.6039 47.9866 38.3645C50.9126 38.2603 53.275 39.6037 54.6415 42.1668C56.0967 44.8921 55.6837 48.2851 55.3981 51.2304L55.8304 50.7981C50.8199 50.7054 45.8056 50.6167 40.7951 50.524C40.2354 50.5124 40.2354 51.381 40.7951 51.3926C45.8056 51.4852 50.8199 51.574 55.8304 51.6666C56.0852 51.6705 56.2434 51.4659 56.2627 51.2343C56.5947 47.7949 56.7993 44.3787 55.124 41.2404C53.8 38.7583 51.2561 37.6929 48.5772 37.5076C45.8249 37.3184 43.5242 38.3954 41.8644 40.561C39.6718 43.4175 39.8494 47.4359 39.9922 50.8212C40.0154 51.381 40.8839 51.381 40.8607 50.8212L40.8685 50.8174Z" stroke="#8B75F3" stroke-width="1.2" mask="url(#path-5-outside-5_4086_9109)"></path></g><g id="Vector_6"><mask id="path-6-outside-6_4086_9109" maskUnits="userSpaceOnUse" x="41.9316" y="24.9473" width="13" height="11" fill="black"><rect fill="white" x="41.9316" y="24.9473" width="13" height="11"></rect><path d="M46.1877 34.3154C49.0867 34.9678 51.9355 34.9601 53.1321 31.7986C54.2709 28.78 51.6962 26.4562 48.9477 26.0084C46.3383 25.5838 43.7867 27.4251 43.0494 29.8647C42.3237 32.2734 45.0992 34.7671 47.3303 34.6242C47.8862 34.5895 47.89 33.721 47.3303 33.7557C44.9949 33.9024 43.227 31.3315 44.2268 29.2007C45.1069 27.3247 47.4191 26.6376 49.3067 26.9425C51.6305 27.3208 52.8542 29.3474 52.2945 31.567C51.5919 34.3579 48.5231 33.9526 46.4193 33.4778C45.875 33.3543 45.6434 34.1919 46.1877 34.3154Z"></path></mask><path d="M46.1877 34.3154C49.0867 34.9678 51.9355 34.9601 53.1321 31.7986C54.2709 28.78 51.6962 26.4562 48.9477 26.0084C46.3383 25.5838 43.7867 27.4251 43.0494 29.8647C42.3237 32.2734 45.0992 34.7671 47.3303 34.6242C47.8862 34.5895 47.89 33.721 47.3303 33.7557C44.9949 33.9024 43.227 31.3315 44.2268 29.2007C45.1069 27.3247 47.4191 26.6376 49.3067 26.9425C51.6305 27.3208 52.8542 29.3474 52.2945 31.567C51.5919 34.3579 48.5231 33.9526 46.4193 33.4778C45.875 33.3543 45.6434 34.1919 46.1877 34.3154Z" fill="#8B75F3"></path><path d="M46.1877 34.3154C49.0867 34.9678 51.9355 34.9601 53.1321 31.7986C54.2709 28.78 51.6962 26.4562 48.9477 26.0084C46.3383 25.5838 43.7867 27.4251 43.0494 29.8647C42.3237 32.2734 45.0992 34.7671 47.3303 34.6242C47.8862 34.5895 47.89 33.721 47.3303 33.7557C44.9949 33.9024 43.227 31.3315 44.2268 29.2007C45.1069 27.3247 47.4191 26.6376 49.3067 26.9425C51.6305 27.3208 52.8542 29.3474 52.2945 31.567C51.5919 34.3579 48.5231 33.9526 46.4193 33.4778C45.875 33.3543 45.6434 34.1919 46.1877 34.3154Z" stroke="#8B75F3" stroke-width="1.2" mask="url(#path-6-outside-6_4086_9109)"></path></g></g><g id="Group 44250"><g id="Vector_7"><mask id="path-7-outside-7_4086_9109" maskUnits="userSpaceOnUse" x="7.7832" y="22.5879" width="19" height="17" fill="black"><rect fill="white" x="7.7832" y="22.5879" width="19" height="17"></rect><path d="M9.73564 36.919C9.50789 31.6074 10.0753 24.7054 16.8538 24.4661C19.7798 24.3619 22.1422 25.7052 23.5087 28.2684C24.9639 30.9936 24.5509 34.3867 24.2652 37.332L24.6976 36.8997C19.6871 36.807 14.6728 36.7182 9.6623 36.6256C9.10258 36.614 9.10258 37.4825 9.6623 37.4941C14.6728 37.5868 19.6871 37.6755 24.6976 37.7682C24.9524 37.772 25.1106 37.5675 25.1299 37.3358C25.4619 33.8965 25.6665 30.4802 23.9912 27.3419C22.6671 24.8598 20.1233 23.7944 17.4444 23.6092C14.6921 23.42 12.3914 24.497 10.7316 26.6625C8.539 29.519 8.71656 33.5375 8.85939 36.9228C8.88255 37.4825 9.75108 37.4825 9.72792 36.9228L9.73564 36.919Z"></path></mask><path d="M9.73564 36.919C9.50789 31.6074 10.0753 24.7054 16.8538 24.4661C19.7798 24.3619 22.1422 25.7052 23.5087 28.2684C24.9639 30.9936 24.5509 34.3867 24.2652 37.332L24.6976 36.8997C19.6871 36.807 14.6728 36.7182 9.6623 36.6256C9.10258 36.614 9.10258 37.4825 9.6623 37.4941C14.6728 37.5868 19.6871 37.6755 24.6976 37.7682C24.9524 37.772 25.1106 37.5675 25.1299 37.3358C25.4619 33.8965 25.6665 30.4802 23.9912 27.3419C22.6671 24.8598 20.1233 23.7944 17.4444 23.6092C14.6921 23.42 12.3914 24.497 10.7316 26.6625C8.539 29.519 8.71656 33.5375 8.85939 36.9228C8.88255 37.4825 9.75108 37.4825 9.72792 36.9228L9.73564 36.919Z" fill="#8B75F3"></path><path d="M9.73564 36.919C9.50789 31.6074 10.0753 24.7054 16.8538 24.4661C19.7798 24.3619 22.1422 25.7052 23.5087 28.2684C24.9639 30.9936 24.5509 34.3867 24.2652 37.332L24.6976 36.8997C19.6871 36.807 14.6728 36.7182 9.6623 36.6256C9.10258 36.614 9.10258 37.4825 9.6623 37.4941C14.6728 37.5868 19.6871 37.6755 24.6976 37.7682C24.9524 37.772 25.1106 37.5675 25.1299 37.3358C25.4619 33.8965 25.6665 30.4802 23.9912 27.3419C22.6671 24.8598 20.1233 23.7944 17.4444 23.6092C14.6921 23.42 12.3914 24.497 10.7316 26.6625C8.539 29.519 8.71656 33.5375 8.85939 36.9228C8.88255 37.4825 9.75108 37.4825 9.72792 36.9228L9.73564 36.919Z" stroke="#8B75F3" stroke-width="1.2" mask="url(#path-7-outside-7_4086_9109)"></path></g><g id="Vector_8"><mask id="path-8-outside-8_4086_9109" maskUnits="userSpaceOnUse" x="10.7988" y="11.0488" width="13" height="11" fill="black"><rect fill="white" x="10.7988" y="11.0488" width="13" height="11"></rect><path d="M15.0549 20.417C17.9539 21.0694 20.8027 21.0616 21.9993 17.9002C23.1381 14.8815 20.5633 12.5577 17.8149 12.11C15.2055 11.6853 12.6539 13.5266 11.9166 15.9662C11.1909 18.375 13.9663 20.8686 16.1975 20.7258C16.7534 20.6911 16.7572 19.8225 16.1975 19.8573C13.8621 20.004 12.0942 17.4331 13.094 15.3023C13.9741 13.4263 16.2863 12.7392 18.1739 13.0441C20.4977 13.4224 21.7214 15.449 21.1617 17.6686C20.4591 20.4595 17.3903 20.0541 15.2865 19.5793C14.7422 19.4558 14.5106 20.2935 15.0549 20.417Z"></path></mask><path d="M15.0549 20.417C17.9539 21.0694 20.8027 21.0616 21.9993 17.9002C23.1381 14.8815 20.5633 12.5577 17.8149 12.11C15.2055 11.6853 12.6539 13.5266 11.9166 15.9662C11.1909 18.375 13.9663 20.8686 16.1975 20.7258C16.7534 20.6911 16.7572 19.8225 16.1975 19.8573C13.8621 20.004 12.0942 17.4331 13.094 15.3023C13.9741 13.4263 16.2863 12.7392 18.1739 13.0441C20.4977 13.4224 21.7214 15.449 21.1617 17.6686C20.4591 20.4595 17.3903 20.0541 15.2865 19.5793C14.7422 19.4558 14.5106 20.2935 15.0549 20.417Z" fill="#8B75F3"></path><path d="M15.0549 20.417C17.9539 21.0694 20.8027 21.0616 21.9993 17.9002C23.1381 14.8815 20.5633 12.5577 17.8149 12.11C15.2055 11.6853 12.6539 13.5266 11.9166 15.9662C11.1909 18.375 13.9663 20.8686 16.1975 20.7258C16.7534 20.6911 16.7572 19.8225 16.1975 19.8573C13.8621 20.004 12.0942 17.4331 13.094 15.3023C13.9741 13.4263 16.2863 12.7392 18.1739 13.0441C20.4977 13.4224 21.7214 15.449 21.1617 17.6686C20.4591 20.4595 17.3903 20.0541 15.2865 19.5793C14.7422 19.4558 14.5106 20.2935 15.0549 20.417Z" stroke="#8B75F3" stroke-width="1.2" mask="url(#path-8-outside-8_4086_9109)"></path></g></g><g id="Group 44251"><g id="Vector_9"><mask id="path-9-outside-9_4086_9109" maskUnits="userSpaceOnUse" x="32.8008" y="22.5879" width="19" height="17" fill="black"><rect fill="white" x="32.8008" y="22.5879" width="19" height="17"></rect><path d="M34.7532 36.919C34.5255 31.6074 35.0929 24.7054 41.8713 24.4661C44.7973 24.3619 47.1597 25.7052 48.5262 28.2684C49.9815 30.9936 49.5685 34.3867 49.2828 37.332L49.7152 36.8997C44.7047 36.807 39.6904 36.7182 34.6799 36.6256C34.1202 36.614 34.1202 37.4825 34.6799 37.4941C39.6904 37.5868 44.7047 37.6755 49.7152 37.7682C49.9699 37.772 50.1282 37.5675 50.1475 37.3358C50.4795 33.8965 50.6841 30.4802 49.0087 27.3419C47.6847 24.8598 45.1409 23.7944 42.4619 23.6092C39.7097 23.42 37.409 24.497 35.7491 26.6625C33.5566 29.519 33.7341 33.5375 33.877 36.9228C33.9001 37.4825 34.7687 37.4825 34.7455 36.9228L34.7532 36.919Z"></path></mask><path d="M34.7532 36.919C34.5255 31.6074 35.0929 24.7054 41.8713 24.4661C44.7973 24.3619 47.1597 25.7052 48.5262 28.2684C49.9815 30.9936 49.5685 34.3867 49.2828 37.332L49.7152 36.8997C44.7047 36.807 39.6904 36.7182 34.6799 36.6256C34.1202 36.614 34.1202 37.4825 34.6799 37.4941C39.6904 37.5868 44.7047 37.6755 49.7152 37.7682C49.9699 37.772 50.1282 37.5675 50.1475 37.3358C50.4795 33.8965 50.6841 30.4802 49.0087 27.3419C47.6847 24.8598 45.1409 23.7944 42.4619 23.6092C39.7097 23.42 37.409 24.497 35.7491 26.6625C33.5566 29.519 33.7341 33.5375 33.877 36.9228C33.9001 37.4825 34.7687 37.4825 34.7455 36.9228L34.7532 36.919Z" fill="#8B75F3"></path><path d="M34.7532 36.919C34.5255 31.6074 35.0929 24.7054 41.8713 24.4661C44.7973 24.3619 47.1597 25.7052 48.5262 28.2684C49.9815 30.9936 49.5685 34.3867 49.2828 37.332L49.7152 36.8997C44.7047 36.807 39.6904 36.7182 34.6799 36.6256C34.1202 36.614 34.1202 37.4825 34.6799 37.4941C39.6904 37.5868 44.7047 37.6755 49.7152 37.7682C49.9699 37.772 50.1282 37.5675 50.1475 37.3358C50.4795 33.8965 50.6841 30.4802 49.0087 27.3419C47.6847 24.8598 45.1409 23.7944 42.4619 23.6092C39.7097 23.42 37.409 24.497 35.7491 26.6625C33.5566 29.519 33.7341 33.5375 33.877 36.9228C33.9001 37.4825 34.7687 37.4825 34.7455 36.9228L34.7532 36.919Z" stroke="#8B75F3" stroke-width="1.2" mask="url(#path-9-outside-9_4086_9109)"></path></g><g id="Vector_10"><mask id="path-10-outside-10_4086_9109" maskUnits="userSpaceOnUse" x="35.8164" y="11.0488" width="13" height="11" fill="black"><rect fill="white" x="35.8164" y="11.0488" width="13" height="11"></rect><path d="M40.0725 20.417C42.9715 21.0694 45.8203 21.0616 47.0169 17.9002C48.1556 14.8815 45.5809 12.5577 42.8325 12.11C40.223 11.6853 37.6715 13.5266 36.9342 15.9662C36.2085 18.375 38.9839 20.8686 41.2151 20.7258C41.771 20.6911 41.7748 19.8225 41.2151 19.8573C38.8797 20.004 37.1118 17.4331 38.1115 15.3023C38.9916 13.4263 41.3039 12.7392 43.1915 13.0441C45.5153 13.4224 46.739 15.449 46.1792 17.6686C45.4767 20.4595 42.4079 20.0541 40.3041 19.5793C39.7598 19.4558 39.5282 20.2935 40.0725 20.417Z"></path></mask><path d="M40.0725 20.417C42.9715 21.0694 45.8203 21.0616 47.0169 17.9002C48.1556 14.8815 45.5809 12.5577 42.8325 12.11C40.223 11.6853 37.6715 13.5266 36.9342 15.9662C36.2085 18.375 38.9839 20.8686 41.2151 20.7258C41.771 20.6911 41.7748 19.8225 41.2151 19.8573C38.8797 20.004 37.1118 17.4331 38.1115 15.3023C38.9916 13.4263 41.3039 12.7392 43.1915 13.0441C45.5153 13.4224 46.739 15.449 46.1792 17.6686C45.4767 20.4595 42.4079 20.0541 40.3041 19.5793C39.7598 19.4558 39.5282 20.2935 40.0725 20.417Z" fill="#8B75F3"></path><path d="M40.0725 20.417C42.9715 21.0694 45.8203 21.0616 47.0169 17.9002C48.1556 14.8815 45.5809 12.5577 42.8325 12.11C40.223 11.6853 37.6715 13.5266 36.9342 15.9662C36.2085 18.375 38.9839 20.8686 41.2151 20.7258C41.771 20.6911 41.7748 19.8225 41.2151 19.8573C38.8797 20.004 37.1118 17.4331 38.1115 15.3023C38.9916 13.4263 41.3039 12.7392 43.1915 13.0441C45.5153 13.4224 46.739 15.449 46.1792 17.6686C45.4767 20.4595 42.4079 20.0541 40.3041 19.5793C39.7598 19.4558 39.5282 20.2935 40.0725 20.417Z" stroke="#8B75F3" stroke-width="1.2" mask="url(#path-10-outside-10_4086_9109)"></path></g></g><g id="Group 44252"><g id="Vector_11"><mask id="path-11-outside-11_4086_9109" maskUnits="userSpaceOnUse" x="21.126" y="11.4688" width="19" height="17" fill="black"><rect fill="white" x="21.126" y="11.4688" width="19" height="17"></rect><path d="M23.0784 25.7998C22.8507 20.4882 23.4181 13.5863 30.1965 13.347C33.1225 13.2427 35.4849 14.5861 36.8514 17.1492C38.3067 19.8745 37.8937 23.2676 37.608 26.2128L38.0404 25.7805C33.0299 25.6879 28.0155 25.5991 23.0051 25.5064C22.4454 25.4949 22.4454 26.3634 23.0051 26.375C28.0155 26.4676 33.0299 26.5564 38.0404 26.649C38.2951 26.6529 38.4534 26.4483 38.4727 26.2167C38.8047 22.7773 39.0093 19.3611 37.3339 16.2228C36.0099 13.7407 33.4661 12.6753 30.7871 12.49C28.0348 12.3009 25.7342 13.3778 24.0743 15.5434C21.8818 18.3999 22.0593 22.4183 22.2022 25.8037C22.2253 26.3634 23.0939 26.3634 23.0707 25.8037L23.0784 25.7998Z"></path></mask><path d="M23.0784 25.7998C22.8507 20.4882 23.4181 13.5863 30.1965 13.347C33.1225 13.2427 35.4849 14.5861 36.8514 17.1492C38.3067 19.8745 37.8937 23.2676 37.608 26.2128L38.0404 25.7805C33.0299 25.6879 28.0155 25.5991 23.0051 25.5064C22.4454 25.4949 22.4454 26.3634 23.0051 26.375C28.0155 26.4676 33.0299 26.5564 38.0404 26.649C38.2951 26.6529 38.4534 26.4483 38.4727 26.2167C38.8047 22.7773 39.0093 19.3611 37.3339 16.2228C36.0099 13.7407 33.4661 12.6753 30.7871 12.49C28.0348 12.3009 25.7342 13.3778 24.0743 15.5434C21.8818 18.3999 22.0593 22.4183 22.2022 25.8037C22.2253 26.3634 23.0939 26.3634 23.0707 25.8037L23.0784 25.7998Z" fill="#8B75F3"></path><path d="M23.0784 25.7998C22.8507 20.4882 23.4181 13.5863 30.1965 13.347C33.1225 13.2427 35.4849 14.5861 36.8514 17.1492C38.3067 19.8745 37.8937 23.2676 37.608 26.2128L38.0404 25.7805C33.0299 25.6879 28.0155 25.5991 23.0051 25.5064C22.4454 25.4949 22.4454 26.3634 23.0051 26.375C28.0155 26.4676 33.0299 26.5564 38.0404 26.649C38.2951 26.6529 38.4534 26.4483 38.4727 26.2167C38.8047 22.7773 39.0093 19.3611 37.3339 16.2228C36.0099 13.7407 33.4661 12.6753 30.7871 12.49C28.0348 12.3009 25.7342 13.3778 24.0743 15.5434C21.8818 18.3999 22.0593 22.4183 22.2022 25.8037C22.2253 26.3634 23.0939 26.3634 23.0707 25.8037L23.0784 25.7998Z" stroke="#8B75F3" stroke-width="1.2" mask="url(#path-11-outside-11_4086_9109)"></path></g><g id="Vector_12"><mask id="path-12-outside-12_4086_9109" maskUnits="userSpaceOnUse" x="24.1416" y="-0.0703125" width="13" height="11" fill="black"><rect fill="white" x="24.1416" y="-0.0703125" width="13" height="11"></rect><path d="M28.3977 9.29786C31.2967 9.95022 34.1454 9.9425 35.3421 6.78104C36.4808 3.7624 33.9061 1.43859 31.1577 0.990813C28.5482 0.566197 25.9967 2.40749 25.2594 4.8471C24.5337 7.25584 27.3091 9.74949 29.5403 9.60667C30.0961 9.57193 30.1 8.70339 29.5403 8.73814C27.2049 8.88482 25.4369 6.31396 26.4367 4.18316C27.3168 2.30712 29.6291 1.62002 31.5167 1.92497C33.8405 2.30326 35.0642 4.32984 34.5044 6.54943C33.8019 9.34032 30.7331 8.935 28.6293 8.4602C28.085 8.33668 27.8534 9.17433 28.3977 9.29786Z"></path></mask><path d="M28.3977 9.29786C31.2967 9.95022 34.1454 9.9425 35.3421 6.78104C36.4808 3.7624 33.9061 1.43859 31.1577 0.990813C28.5482 0.566197 25.9967 2.40749 25.2594 4.8471C24.5337 7.25584 27.3091 9.74949 29.5403 9.60667C30.0961 9.57193 30.1 8.70339 29.5403 8.73814C27.2049 8.88482 25.4369 6.31396 26.4367 4.18316C27.3168 2.30712 29.6291 1.62002 31.5167 1.92497C33.8405 2.30326 35.0642 4.32984 34.5044 6.54943C33.8019 9.34032 30.7331 8.935 28.6293 8.4602C28.085 8.33668 27.8534 9.17433 28.3977 9.29786Z" fill="#8B75F3"></path><path d="M28.3977 9.29786C31.2967 9.95022 34.1454 9.9425 35.3421 6.78104C36.4808 3.7624 33.9061 1.43859 31.1577 0.990813C28.5482 0.566197 25.9967 2.40749 25.2594 4.8471C24.5337 7.25584 27.3091 9.74949 29.5403 9.60667C30.0961 9.57193 30.1 8.70339 29.5403 8.73814C27.2049 8.88482 25.4369 6.31396 26.4367 4.18316C27.3168 2.30712 29.6291 1.62002 31.5167 1.92497C33.8405 2.30326 35.0642 4.32984 34.5044 6.54943C33.8019 9.34032 30.7331 8.935 28.6293 8.4602C28.085 8.33668 27.8534 9.17433 28.3977 9.29786Z" stroke="#8B75F3" stroke-width="1.2" mask="url(#path-12-outside-12_4086_9109)"></path></g></g><path id="Ellipse 68" d="M9 33.2297C10.1632 33.2297 11.2278 32.8765 12.0084 32.291C12.7891 31.7055 13.3 30.8737 13.3 29.9297C13.3 28.9857 12.7891 28.1539 12.0084 27.5684C11.2278 26.9829 10.1632 26.6297 9 26.6297C7.8368 26.6297 6.77217 26.9829 5.99157 27.5684C5.21089 28.1539 4.7 28.9857 4.7 29.9297C4.7 30.8737 5.21089 31.7055 5.99157 32.291C6.77217 32.8765 7.8368 33.2297 9 33.2297Z" fill="#F2E8FB" stroke="#8B75F3" stroke-width="0.6"></path><ellipse id="Ellipse 69" cx="48" cy="30.4297" rx="4" ry="3.5" fill="#F2E8FB"></ellipse><ellipse id="Ellipse 70" cx="29" cy="22.4297" rx="4" ry="3.5" fill="#F2E8FB"></ellipse></g></g></svg>