<svg xmlns="http://www.w3.org/2000/svg" width="426" height="121" viewBox="0 0 426 121" fill="none"><path d="M8.51162 46.8302H49.3027V58.3042L33.9633 59.4831C9.18465 61.3413 1.43359 67.9035 1.43359 86.3105V90.0212C1.43359 103.494 10.8728 111.617 25.3654 111.617C36.8293 111.617 43.4025 108.916 51.4957 100.648H52.8418V109.421H69.1905V28.9453H8.51162V46.8302ZM49.3027 85.6369C44.255 90.689 36.661 94.0574 30.4243 94.0574C23.694 94.0574 20.8168 91.5256 20.9851 85.9567C21.1533 78.1989 24.0193 76.3407 36.9975 75.1618L49.3027 73.9829V85.6369Z" fill="#8B8B8B"></path><path fill-rule="evenodd" clip-rule="evenodd" d="M103.569 28.9509H135.089V45.3145H152.279V109.422H132.223V47.0042H103.569V109.422H83.5068V4.82373H103.569V28.9509ZM396.87 61.3413L384.733 60.1567C378.002 59.4831 376.32 57.7989 376.32 52.3989C376.32 46.325 378.681 44.8038 388.098 44.8038C396.511 44.8038 398.883 46.1566 400.067 51.8937H418.946C418.441 32.6616 412.541 27.7553 389.108 27.7553C363.488 27.7553 357.082 32.6503 357.082 52.3877C357.082 70.4411 361.799 75.3307 380.852 77.1883L390.796 78.1989C399.73 79.0408 401.918 80.7307 401.918 86.1308C401.918 92.7103 399.22 94.3939 388.266 94.3939C378.659 94.3939 376.129 92.8786 375.625 86.6361H356.556C357.06 106.542 363.129 111.605 387.403 111.605C414.369 111.605 421.11 106.205 421.11 84.2731C421.138 67.9203 416.253 63.1938 396.87 61.3413ZM293.608 62.8573C293.608 36.8774 284.679 27.7666 259.053 27.7666C233.77 27.7666 223.826 39.5551 223.826 68.9309C223.826 100.99 232.592 111.594 260.91 111.594C281.308 111.594 289.9 105.352 292.766 87.804H273.383C271.19 93.2266 268.835 94.4055 260.601 94.4055C248.128 94.4055 244.925 90.863 244.252 75.8469H292.289C293.094 71.5618 293.535 67.2162 293.608 62.8573ZM244.393 59.9884C244.561 48.6884 249.109 44.4726 259.9 44.4726C270.181 44.4726 274.393 48.6884 274.735 59.9884H244.393ZM305.284 32.4875V109.422H325.346V46.1565H349.463V28.9453H325.346V26.756C325.509 22.0294 326.692 20.6821 330.568 20.6821H352.48V4.82373H328.874C312.867 4.82373 305.284 9.71318 305.284 32.4875ZM187.045 109.422H166.988V28.951H216.882V47.8463H187.045V109.422Z" fill="#AAAAAA"></path></svg>