<svg xmlns="http://www.w3.org/2000/svg" width="54" height="40" viewBox="0 0 54 40" fill="none"><g id="uuid-bc27cf74-c996-4781-881f-7e2ccea3d078" clip-path="url(#clip0_4086_9156)"><g id="Group"><g id="Vector"><mask id="path-1-outside-1_4086_9156" maskUnits="userSpaceOnUse" x="20.3218" y="12.9414" width="13" height="13" fill="black"><rect fill="white" x="20.3218" y="12.9414" width="13" height="13"></rect><path d="M31.9857 18.5045C31.9499 18.3391 31.9141 18.1738 31.863 18.0137C31.8067 17.838 31.7453 17.6727 31.6738 17.5022C31.5561 17.2077 31.3925 16.9288 31.2289 16.6601C30.9067 16.1177 30.4823 15.632 30.0118 15.2187C29.5056 14.7796 28.9175 14.4645 28.2885 14.2423C27.9971 14.139 27.6902 14.0718 27.3885 14.015C27.0817 13.9582 26.7647 13.9272 26.4527 13.9478C26.1459 13.9685 25.834 14.0098 25.5374 14.1028C25.384 14.1493 25.2357 14.201 25.0874 14.2578C24.9596 14.2733 24.8317 14.2888 24.7039 14.3198C24.4789 14.3715 24.259 14.4283 24.0442 14.5161C23.8192 14.6143 23.6044 14.7279 23.405 14.8674C22.9755 15.1619 22.6073 15.5545 22.3056 15.9833C22.0141 16.4018 21.7584 16.8461 21.5999 17.3317C21.2522 18.3805 21.2215 19.5532 21.559 20.6071C21.7226 21.1186 21.9169 21.6352 22.2084 22.0847C22.4692 22.4928 22.7811 22.8699 23.1544 23.1799C23.4868 23.4537 23.8346 23.7017 24.2283 23.8877C24.576 24.053 24.934 24.1873 25.3073 24.2752C25.7471 24.3785 26.1919 24.425 26.6471 24.4353C26.7647 24.4353 26.8874 24.4405 27.005 24.4405C27.3067 24.4405 27.6135 24.425 27.9101 24.3733C28.4777 24.2752 29.0198 24.0633 29.5414 23.8102C30.2675 23.4537 30.9323 22.9164 31.3721 22.2242C31.5817 21.8987 31.7607 21.5474 31.8732 21.1702C31.955 20.8913 32.0164 20.6123 32.0573 20.323C32.0982 20.013 32.1391 19.703 32.1238 19.3931C32.1033 19.0882 32.0573 18.7938 31.9908 18.4941L31.9857 18.5045ZM30.8658 20.2661C30.8402 20.4211 30.8096 20.571 30.7686 20.7259C30.7277 20.8551 30.6817 20.9791 30.6357 21.1082C30.5743 21.2426 30.5078 21.3717 30.4363 21.4957C30.3647 21.6094 30.288 21.7127 30.2061 21.816C30.1141 21.9245 30.0221 22.0278 29.9249 22.126C29.8022 22.2397 29.6692 22.3481 29.5363 22.4515C29.434 22.5186 29.3266 22.5858 29.2192 22.6478C28.938 22.7924 28.6516 22.9164 28.3601 23.0301C28.2323 23.0766 28.1096 23.1128 27.9817 23.1489C27.8385 23.1799 27.6902 23.2057 27.5419 23.2264C27.2505 23.2471 26.9539 23.2574 26.6624 23.2471C26.4221 23.2367 26.1817 23.2212 25.9414 23.1851C25.7675 23.1541 25.5936 23.1179 25.4249 23.0663C25.2357 23.0094 25.0516 22.9423 24.8726 22.8648C24.7141 22.7873 24.5607 22.7098 24.4073 22.6168C24.2794 22.5341 24.1567 22.4463 24.034 22.3481C23.8959 22.2345 23.7681 22.1105 23.6402 21.9813C23.5328 21.8574 23.4306 21.7334 23.3334 21.6042C23.2516 21.4802 23.1749 21.3562 23.1033 21.2322C22.9908 21.0153 22.8988 20.7879 22.8118 20.5606C22.7402 20.3643 22.6789 20.168 22.6277 19.9613C22.5868 19.7754 22.5561 19.5894 22.5357 19.3982C22.5255 19.2639 22.5203 19.1296 22.5203 18.9953C22.5306 18.7783 22.551 18.5613 22.5817 18.3443C22.6073 18.1945 22.638 18.0447 22.6789 17.9C22.73 17.7347 22.7863 17.5797 22.8527 17.4195C22.9243 17.2749 22.9959 17.1302 23.0777 16.9907C23.1902 16.8151 23.3078 16.6394 23.4357 16.4741C23.538 16.3501 23.6453 16.2365 23.7578 16.1228C23.855 16.035 23.9522 15.9523 24.0596 15.8748C24.1465 15.818 24.2334 15.7612 24.3203 15.7095C24.4073 15.6682 24.4942 15.6269 24.5811 15.5907C24.6169 15.5804 24.6578 15.5649 24.6936 15.5545C24.8317 15.601 24.9851 15.5959 25.1232 15.5339C25.205 15.4977 25.2817 15.4667 25.3635 15.4305C25.3738 15.4305 25.3789 15.4305 25.3891 15.4305C25.5221 15.4202 25.6448 15.3685 25.7471 15.2911C25.8391 15.2601 25.9311 15.2342 26.0232 15.2084C26.1306 15.1877 26.238 15.1671 26.3505 15.1516C26.463 15.1412 26.5755 15.1361 26.688 15.1309C26.8363 15.1361 26.9794 15.1567 27.1277 15.1774C27.3323 15.2136 27.5317 15.2601 27.7363 15.3117C27.905 15.3634 28.0686 15.4254 28.2323 15.4874C28.3959 15.5649 28.5544 15.6424 28.713 15.7354C28.8817 15.8438 29.0453 15.9575 29.2039 16.0815C29.3624 16.221 29.5158 16.3656 29.6641 16.5206C29.8124 16.6911 29.9505 16.8668 30.0834 17.0527C30.2164 17.2646 30.3442 17.4764 30.4618 17.6934C30.5385 17.8535 30.605 18.0085 30.6715 18.1687C30.7226 18.3236 30.7686 18.4838 30.8044 18.6439C30.8505 18.8558 30.8914 19.0676 30.9221 19.2794C30.9323 19.3931 30.9374 19.5067 30.9374 19.6152C30.9272 19.8322 30.8965 20.044 30.8709 20.2558L30.8658 20.2661Z"></path></mask><path d="M31.9857 18.5045C31.9499 18.3391 31.9141 18.1738 31.863 18.0137C31.8067 17.838 31.7453 17.6727 31.6738 17.5022C31.5561 17.2077 31.3925 16.9288 31.2289 16.6601C30.9067 16.1177 30.4823 15.632 30.0118 15.2187C29.5056 14.7796 28.9175 14.4645 28.2885 14.2423C27.9971 14.139 27.6902 14.0718 27.3885 14.015C27.0817 13.9582 26.7647 13.9272 26.4527 13.9478C26.1459 13.9685 25.834 14.0098 25.5374 14.1028C25.384 14.1493 25.2357 14.201 25.0874 14.2578C24.9596 14.2733 24.8317 14.2888 24.7039 14.3198C24.4789 14.3715 24.259 14.4283 24.0442 14.5161C23.8192 14.6143 23.6044 14.7279 23.405 14.8674C22.9755 15.1619 22.6073 15.5545 22.3056 15.9833C22.0141 16.4018 21.7584 16.8461 21.5999 17.3317C21.2522 18.3805 21.2215 19.5532 21.559 20.6071C21.7226 21.1186 21.9169 21.6352 22.2084 22.0847C22.4692 22.4928 22.7811 22.8699 23.1544 23.1799C23.4868 23.4537 23.8346 23.7017 24.2283 23.8877C24.576 24.053 24.934 24.1873 25.3073 24.2752C25.7471 24.3785 26.1919 24.425 26.6471 24.4353C26.7647 24.4353 26.8874 24.4405 27.005 24.4405C27.3067 24.4405 27.6135 24.425 27.9101 24.3733C28.4777 24.2752 29.0198 24.0633 29.5414 23.8102C30.2675 23.4537 30.9323 22.9164 31.3721 22.2242C31.5817 21.8987 31.7607 21.5474 31.8732 21.1702C31.955 20.8913 32.0164 20.6123 32.0573 20.323C32.0982 20.013 32.1391 19.703 32.1238 19.3931C32.1033 19.0882 32.0573 18.7938 31.9908 18.4941L31.9857 18.5045ZM30.8658 20.2661C30.8402 20.4211 30.8096 20.571 30.7686 20.7259C30.7277 20.8551 30.6817 20.9791 30.6357 21.1082C30.5743 21.2426 30.5078 21.3717 30.4363 21.4957C30.3647 21.6094 30.288 21.7127 30.2061 21.816C30.1141 21.9245 30.0221 22.0278 29.9249 22.126C29.8022 22.2397 29.6692 22.3481 29.5363 22.4515C29.434 22.5186 29.3266 22.5858 29.2192 22.6478C28.938 22.7924 28.6516 22.9164 28.3601 23.0301C28.2323 23.0766 28.1096 23.1128 27.9817 23.1489C27.8385 23.1799 27.6902 23.2057 27.5419 23.2264C27.2505 23.2471 26.9539 23.2574 26.6624 23.2471C26.4221 23.2367 26.1817 23.2212 25.9414 23.1851C25.7675 23.1541 25.5936 23.1179 25.4249 23.0663C25.2357 23.0094 25.0516 22.9423 24.8726 22.8648C24.7141 22.7873 24.5607 22.7098 24.4073 22.6168C24.2794 22.5341 24.1567 22.4463 24.034 22.3481C23.8959 22.2345 23.7681 22.1105 23.6402 21.9813C23.5328 21.8574 23.4306 21.7334 23.3334 21.6042C23.2516 21.4802 23.1749 21.3562 23.1033 21.2322C22.9908 21.0153 22.8988 20.7879 22.8118 20.5606C22.7402 20.3643 22.6789 20.168 22.6277 19.9613C22.5868 19.7754 22.5561 19.5894 22.5357 19.3982C22.5255 19.2639 22.5203 19.1296 22.5203 18.9953C22.5306 18.7783 22.551 18.5613 22.5817 18.3443C22.6073 18.1945 22.638 18.0447 22.6789 17.9C22.73 17.7347 22.7863 17.5797 22.8527 17.4195C22.9243 17.2749 22.9959 17.1302 23.0777 16.9907C23.1902 16.8151 23.3078 16.6394 23.4357 16.4741C23.538 16.3501 23.6453 16.2365 23.7578 16.1228C23.855 16.035 23.9522 15.9523 24.0596 15.8748C24.1465 15.818 24.2334 15.7612 24.3203 15.7095C24.4073 15.6682 24.4942 15.6269 24.5811 15.5907C24.6169 15.5804 24.6578 15.5649 24.6936 15.5545C24.8317 15.601 24.9851 15.5959 25.1232 15.5339C25.205 15.4977 25.2817 15.4667 25.3635 15.4305C25.3738 15.4305 25.3789 15.4305 25.3891 15.4305C25.5221 15.4202 25.6448 15.3685 25.7471 15.2911C25.8391 15.2601 25.9311 15.2342 26.0232 15.2084C26.1306 15.1877 26.238 15.1671 26.3505 15.1516C26.463 15.1412 26.5755 15.1361 26.688 15.1309C26.8363 15.1361 26.9794 15.1567 27.1277 15.1774C27.3323 15.2136 27.5317 15.2601 27.7363 15.3117C27.905 15.3634 28.0686 15.4254 28.2323 15.4874C28.3959 15.5649 28.5544 15.6424 28.713 15.7354C28.8817 15.8438 29.0453 15.9575 29.2039 16.0815C29.3624 16.221 29.5158 16.3656 29.6641 16.5206C29.8124 16.6911 29.9505 16.8668 30.0834 17.0527C30.2164 17.2646 30.3442 17.4764 30.4618 17.6934C30.5385 17.8535 30.605 18.0085 30.6715 18.1687C30.7226 18.3236 30.7686 18.4838 30.8044 18.6439C30.8505 18.8558 30.8914 19.0676 30.9221 19.2794C30.9323 19.3931 30.9374 19.5067 30.9374 19.6152C30.9272 19.8322 30.8965 20.044 30.8709 20.2558L30.8658 20.2661Z" fill="#8B75F3"></path><path d="M31.9857 18.5045C31.9499 18.3391 31.9141 18.1738 31.863 18.0137C31.8067 17.838 31.7453 17.6727 31.6738 17.5022C31.5561 17.2077 31.3925 16.9288 31.2289 16.6601C30.9067 16.1177 30.4823 15.632 30.0118 15.2187C29.5056 14.7796 28.9175 14.4645 28.2885 14.2423C27.9971 14.139 27.6902 14.0718 27.3885 14.015C27.0817 13.9582 26.7647 13.9272 26.4527 13.9478C26.1459 13.9685 25.834 14.0098 25.5374 14.1028C25.384 14.1493 25.2357 14.201 25.0874 14.2578C24.9596 14.2733 24.8317 14.2888 24.7039 14.3198C24.4789 14.3715 24.259 14.4283 24.0442 14.5161C23.8192 14.6143 23.6044 14.7279 23.405 14.8674C22.9755 15.1619 22.6073 15.5545 22.3056 15.9833C22.0141 16.4018 21.7584 16.8461 21.5999 17.3317C21.2522 18.3805 21.2215 19.5532 21.559 20.6071C21.7226 21.1186 21.9169 21.6352 22.2084 22.0847C22.4692 22.4928 22.7811 22.8699 23.1544 23.1799C23.4868 23.4537 23.8346 23.7017 24.2283 23.8877C24.576 24.053 24.934 24.1873 25.3073 24.2752C25.7471 24.3785 26.1919 24.425 26.6471 24.4353C26.7647 24.4353 26.8874 24.4405 27.005 24.4405C27.3067 24.4405 27.6135 24.425 27.9101 24.3733C28.4777 24.2752 29.0198 24.0633 29.5414 23.8102C30.2675 23.4537 30.9323 22.9164 31.3721 22.2242C31.5817 21.8987 31.7607 21.5474 31.8732 21.1702C31.955 20.8913 32.0164 20.6123 32.0573 20.323C32.0982 20.013 32.1391 19.703 32.1238 19.3931C32.1033 19.0882 32.0573 18.7938 31.9908 18.4941L31.9857 18.5045ZM30.8658 20.2661C30.8402 20.4211 30.8096 20.571 30.7686 20.7259C30.7277 20.8551 30.6817 20.9791 30.6357 21.1082C30.5743 21.2426 30.5078 21.3717 30.4363 21.4957C30.3647 21.6094 30.288 21.7127 30.2061 21.816C30.1141 21.9245 30.0221 22.0278 29.9249 22.126C29.8022 22.2397 29.6692 22.3481 29.5363 22.4515C29.434 22.5186 29.3266 22.5858 29.2192 22.6478C28.938 22.7924 28.6516 22.9164 28.3601 23.0301C28.2323 23.0766 28.1096 23.1128 27.9817 23.1489C27.8385 23.1799 27.6902 23.2057 27.5419 23.2264C27.2505 23.2471 26.9539 23.2574 26.6624 23.2471C26.4221 23.2367 26.1817 23.2212 25.9414 23.1851C25.7675 23.1541 25.5936 23.1179 25.4249 23.0663C25.2357 23.0094 25.0516 22.9423 24.8726 22.8648C24.7141 22.7873 24.5607 22.7098 24.4073 22.6168C24.2794 22.5341 24.1567 22.4463 24.034 22.3481C23.8959 22.2345 23.7681 22.1105 23.6402 21.9813C23.5328 21.8574 23.4306 21.7334 23.3334 21.6042C23.2516 21.4802 23.1749 21.3562 23.1033 21.2322C22.9908 21.0153 22.8988 20.7879 22.8118 20.5606C22.7402 20.3643 22.6789 20.168 22.6277 19.9613C22.5868 19.7754 22.5561 19.5894 22.5357 19.3982C22.5255 19.2639 22.5203 19.1296 22.5203 18.9953C22.5306 18.7783 22.551 18.5613 22.5817 18.3443C22.6073 18.1945 22.638 18.0447 22.6789 17.9C22.73 17.7347 22.7863 17.5797 22.8527 17.4195C22.9243 17.2749 22.9959 17.1302 23.0777 16.9907C23.1902 16.8151 23.3078 16.6394 23.4357 16.4741C23.538 16.3501 23.6453 16.2365 23.7578 16.1228C23.855 16.035 23.9522 15.9523 24.0596 15.8748C24.1465 15.818 24.2334 15.7612 24.3203 15.7095C24.4073 15.6682 24.4942 15.6269 24.5811 15.5907C24.6169 15.5804 24.6578 15.5649 24.6936 15.5545C24.8317 15.601 24.9851 15.5959 25.1232 15.5339C25.205 15.4977 25.2817 15.4667 25.3635 15.4305C25.3738 15.4305 25.3789 15.4305 25.3891 15.4305C25.5221 15.4202 25.6448 15.3685 25.7471 15.2911C25.8391 15.2601 25.9311 15.2342 26.0232 15.2084C26.1306 15.1877 26.238 15.1671 26.3505 15.1516C26.463 15.1412 26.5755 15.1361 26.688 15.1309C26.8363 15.1361 26.9794 15.1567 27.1277 15.1774C27.3323 15.2136 27.5317 15.2601 27.7363 15.3117C27.905 15.3634 28.0686 15.4254 28.2323 15.4874C28.3959 15.5649 28.5544 15.6424 28.713 15.7354C28.8817 15.8438 29.0453 15.9575 29.2039 16.0815C29.3624 16.221 29.5158 16.3656 29.6641 16.5206C29.8124 16.6911 29.9505 16.8668 30.0834 17.0527C30.2164 17.2646 30.3442 17.4764 30.4618 17.6934C30.5385 17.8535 30.605 18.0085 30.6715 18.1687C30.7226 18.3236 30.7686 18.4838 30.8044 18.6439C30.8505 18.8558 30.8914 19.0676 30.9221 19.2794C30.9323 19.3931 30.9374 19.5067 30.9374 19.6152C30.9272 19.8322 30.8965 20.044 30.8709 20.2558L30.8658 20.2661Z" stroke="#8B75F3" stroke-width="1.2" mask="url(#path-1-outside-1_4086_9156)"></path></g><g id="Vector_2"><mask id="path-2-outside-2_4086_9156" maskUnits="userSpaceOnUse" x="3.95654" y="-0.0664062" width="46" height="41" fill="black"><rect fill="white" x="3.95654" y="-0.0664062" width="46" height="41"></rect><path d="M47.9197 14.8884C47.8072 14.8626 47.6794 14.8677 47.5618 14.8729C47.301 14.8781 47.035 14.8936 46.7743 14.9039C45.5419 14.9659 44.3146 15.0382 43.0822 15.0951C42.4328 15.1261 41.7782 15.1519 41.1237 15.1829C41.001 15.1881 40.8782 15.1932 40.7555 15.1984C40.7248 15.1209 40.6941 15.0486 40.6583 14.9762C40.5765 14.8057 40.4998 14.6353 40.418 14.4648C40.1419 13.881 39.8197 13.3127 39.4515 12.7806C39.2572 12.4964 39.0578 12.2123 38.843 11.9488C38.7356 11.8145 38.6231 11.6802 38.5106 11.5407C38.4135 11.4219 38.2958 11.3082 38.1936 11.1945C38.0146 10.9982 37.8203 10.8122 37.6208 10.6314C37.7282 10.3679 37.8356 10.1045 37.9481 9.84098C38.2754 9.06088 38.6129 8.28078 38.935 7.50067C39.0629 7.18037 39.201 6.86523 39.3186 6.54492C39.3953 6.32794 39.4669 6.11612 39.5129 5.89397C39.5487 5.72348 39.5436 5.553 39.518 5.38251C39.4975 5.24302 39.426 5.08287 39.3339 4.97955C39.2419 4.87105 39.1396 4.77806 39.0271 4.6954C38.7714 4.50942 38.4953 4.34926 38.2243 4.18394C37.9532 4.01862 37.6822 3.85847 37.4112 3.69832C36.8794 3.38318 36.3475 3.0732 35.7953 2.78906C35.2021 2.48425 34.6038 2.20527 33.9953 1.94179C33.7089 1.8178 33.4225 1.69898 33.1362 1.58015C32.9725 1.51299 32.8089 1.44583 32.6453 1.37867C32.41 1.28051 32.139 1.18752 31.8833 1.26501C31.3618 1.42517 31.239 2.00379 31.1061 2.46875C31.0243 2.76323 30.9373 3.05254 30.8606 3.34701C30.5896 4.33376 30.339 5.32052 30.0731 6.30727C29.8021 6.23494 29.5311 6.16778 29.2549 6.10579C28.9328 6.03863 28.6106 5.98696 28.2833 5.94047C27.7924 5.86814 27.2964 5.81648 26.8055 5.76998C26.7135 5.71832 26.6112 5.69249 26.5038 5.68732C26.514 5.68732 26.5243 5.68732 26.5294 5.68732C26.2277 5.67699 25.9311 5.65632 25.6345 5.65116C25.3123 5.65116 24.9953 5.65116 24.6731 5.66149C24.351 5.67182 24.0339 5.70282 23.7118 5.73382C23.4305 5.75965 23.1544 5.80098 22.8731 5.84231C22.5816 5.8888 22.2902 5.93013 21.9987 5.99213C21.5589 6.08512 21.1191 6.16778 20.6845 6.28661C20.6538 6.29694 20.6231 6.3021 20.5924 6.31244C20.3061 5.78548 20.0299 5.25852 19.7385 4.73157C19.4265 4.16328 19.1095 3.59499 18.7924 3.0267C18.639 2.75289 18.4856 2.47908 18.3322 2.21044C18.1839 1.95212 18.0407 1.68865 17.8669 1.451C17.6368 1.13586 17.2379 0.918875 16.8441 0.934374C16.4862 0.949872 16.1385 1.12552 15.8419 1.31151C15.7191 1.38384 15.5964 1.45616 15.4788 1.53366C14.947 1.89013 14.4305 2.25693 13.9089 2.63407C13.3822 3.01637 12.8555 3.39351 12.3441 3.79647C11.8379 4.19428 11.347 4.60241 10.851 5.01571C10.3856 5.40318 9.91516 5.78548 9.46005 6.18845C9.39357 6.24528 9.33221 6.30727 9.27084 6.36927C9.20948 6.43126 9.16857 6.51392 9.12766 6.59141C9.09187 6.65858 9.07141 6.73607 9.06118 6.81356C9.05607 6.89622 9.05096 6.98922 9.0663 7.06671C9.10721 7.26303 9.16346 7.44901 9.25039 7.62983C9.33221 7.80548 9.41914 7.97597 9.52141 8.14129C9.67993 8.40477 9.84869 8.65791 10.0328 8.90589C10.135 9.04538 10.2373 9.19004 10.3447 9.32953C10.7538 9.85132 11.168 10.3731 11.5924 10.8846C11.8686 11.2204 12.1498 11.5562 12.4362 11.8868C12.2981 12.0883 12.1652 12.2898 12.0424 12.4964C11.8021 12.8891 11.572 13.2869 11.3777 13.7002C11.1885 14.0928 11.0197 14.4958 10.8765 14.9039C10.5748 15.746 10.3396 16.6088 10.2118 17.4974C10.0993 18.2826 10.0635 19.0731 10.0941 19.8635C9.67993 19.8893 9.26573 19.91 8.85153 19.9462C8.29925 19.9927 7.75209 20.0598 7.20493 20.1321C6.94414 20.1683 6.68334 20.2096 6.42255 20.251C6.04925 20.3078 5.64528 20.3491 5.36914 20.6384C5.11346 20.9071 4.97539 21.2636 4.96005 21.6355C4.94471 22.0282 4.9805 22.4156 5.05209 22.8031C5.14414 23.3042 5.27198 23.7899 5.39982 24.2806C5.55834 24.8903 5.74755 25.4999 5.94698 26.0992C6.33562 27.2874 6.72937 28.4756 7.10266 29.669C7.1538 29.8292 7.19982 29.9945 7.25607 30.1547C7.30209 30.2942 7.36857 30.4233 7.46573 30.5266C7.57312 30.6455 7.70607 30.723 7.85437 30.7746C7.96687 30.8159 8.08448 30.8263 8.20721 30.8263C8.28391 30.8263 8.36062 30.8211 8.43221 30.8159C8.63164 30.8004 8.83618 30.754 9.02539 30.6971C9.32198 30.6093 9.61346 30.506 9.89982 30.3923C10.493 30.1495 11.0862 29.8964 11.6794 29.6535C12.1805 29.4469 12.6868 29.2351 13.1879 29.0233C13.4947 29.4211 13.8169 29.8085 14.1595 30.1753C14.4816 30.5163 14.814 30.8521 15.172 31.1518C15.5146 31.4411 15.8623 31.7097 16.2305 31.9629C16.8083 32.3607 17.4118 32.7275 18.0407 33.0478C17.8413 33.5489 17.647 34.0449 17.4629 34.5511C17.3555 34.8508 17.2532 35.1556 17.1561 35.4552C17.0589 35.7497 16.9618 36.039 16.8748 36.3387C16.793 36.6331 16.7214 36.9328 16.6805 37.2324C16.66 37.3874 16.6447 37.5631 16.6958 37.7129C16.7214 37.7904 16.747 37.873 16.7879 37.9454C16.8237 38.0022 16.8595 38.0539 16.9055 38.1055C17.0896 38.3277 17.376 38.4465 17.6368 38.555C18.8129 39.0406 20.035 39.3919 21.2879 39.6037C21.9373 39.7122 22.5868 39.7949 23.2413 39.8414C23.5481 39.862 23.8549 39.8879 24.1618 39.9034C24.3203 39.9137 24.4788 39.924 24.6322 39.9292C24.714 39.9292 24.7958 39.9344 24.8777 39.9344C25.0464 39.9344 25.21 39.9189 25.3686 39.862C25.7316 39.7381 25.9618 39.4126 26.0947 39.0613C26.2123 38.7565 26.2839 38.431 26.3299 38.1055C26.3811 37.7542 26.422 37.4081 26.4578 37.0568C26.5243 36.442 26.5549 35.822 26.5907 35.2073C26.6061 34.9334 26.6214 34.6545 26.6316 34.3807C26.872 34.3703 27.1072 34.3548 27.3475 34.3342C27.6697 34.3032 27.9919 34.2825 28.3089 34.2412C28.6311 34.1998 28.9532 34.1688 29.2703 34.112C29.4953 34.0707 29.7152 34.0294 29.9402 33.988C30.0629 33.9674 30.1907 33.9467 30.3135 33.9157C30.697 33.8227 31.0856 33.74 31.4589 33.6212C31.8271 33.5076 32.1902 33.3732 32.543 33.2286C32.5788 33.3009 32.6146 33.3681 32.6504 33.4404C33.1157 34.3497 33.6066 35.2434 34.0822 36.1475C34.1743 36.3232 34.2663 36.4988 34.3532 36.6745C34.4197 36.8036 34.4862 36.9535 34.5833 37.0619C34.7572 37.2479 34.9822 37.3513 35.2277 37.3513C35.2737 37.3513 35.3146 37.3513 35.3606 37.3409C35.5498 37.3151 35.7237 37.1963 35.8873 37.0981C35.9947 37.0309 36.1021 36.9689 36.2095 36.9018C37.1555 36.2922 38.076 35.6464 39.0015 35.0109C39.518 34.6596 40.0345 34.3083 40.551 33.957C40.8066 33.7865 41.0572 33.6109 41.3129 33.4404C41.4407 33.3577 41.5686 33.2699 41.6913 33.1821C41.8907 33.0426 42.1055 32.9031 42.218 32.681C42.3816 32.3607 42.3561 31.999 42.2231 31.6684C42.0799 31.3119 41.8652 30.9916 41.6248 30.692C41.41 30.4233 41.1748 30.165 40.9396 29.917C40.5254 29.4727 40.101 29.0336 39.6868 28.5893C39.5436 28.4343 39.3953 28.2793 39.2521 28.1243C39.2419 28.114 39.2265 28.0985 39.2163 28.0882C39.2163 28.0882 39.2163 28.083 39.2112 28.083C39.1805 28.0468 39.1498 28.0158 39.114 27.9797C39.4362 27.5612 39.7328 27.1272 40.0294 26.6933C40.1163 26.5641 40.1879 26.4246 40.2697 26.2903C40.3464 26.1663 40.4282 26.0423 40.4947 25.908C40.6225 25.66 40.7453 25.4069 40.868 25.1589C40.9447 25.0091 41.001 24.8438 41.0623 24.6888C41.1083 24.57 41.1646 24.4563 41.2055 24.3375C41.3231 23.9965 41.451 23.6555 41.5481 23.3042C41.8243 23.3301 42.0953 23.3559 42.3714 23.3817C43.0515 23.4489 43.7265 23.5264 44.4015 23.6194C45.0152 23.7072 45.6288 23.8208 46.2475 23.8777C46.4163 23.8932 46.5799 23.9087 46.7487 23.9087C46.7794 23.9087 46.8152 23.9087 46.8458 23.9087C47.0504 23.9087 47.26 23.8983 47.439 23.7899C47.6998 23.6245 47.7868 23.3146 47.8328 23.0252C47.9248 22.4363 47.9606 21.837 48.0015 21.2429C48.0476 20.6023 48.0885 19.9668 48.1243 19.3262C48.16 18.7011 48.1805 18.076 48.2265 17.4509C48.247 17.1409 48.2674 16.8309 48.3032 16.5261C48.3237 16.3556 48.339 16.1851 48.3595 16.0198C48.3799 15.8597 48.4157 15.6943 48.4106 15.5342C48.4004 15.2345 48.2061 14.9711 47.9095 14.9039L47.9197 14.8884ZM47.1271 16.4279C47.0964 16.7276 47.0708 17.0324 47.0555 17.332C47.0197 17.952 46.989 18.5771 46.9532 19.1971C46.9174 19.8222 46.8816 20.4473 46.8356 21.0724C46.7947 21.6097 46.764 22.147 46.6924 22.6843C46.3754 22.6636 46.0583 22.6326 45.7464 22.5861C45.1328 22.4931 44.5191 22.3846 43.9004 22.3123C43.21 22.2296 42.5197 22.1625 41.8294 22.0953C41.8191 22.0953 41.8089 22.0953 41.7987 22.0953C41.4049 22.0592 41.0061 22.023 40.6123 21.9868C40.6123 22.0127 40.6072 22.0385 40.6021 22.0643C40.551 22.3898 40.4794 22.7049 40.3924 23.0201C40.3413 23.1957 40.2799 23.3662 40.2186 23.5367C40.1777 23.6607 40.1368 23.7847 40.0907 23.9087C39.9936 24.136 39.9015 24.3685 39.8044 24.5958C39.743 24.7146 39.6868 24.8386 39.6254 24.9574C39.564 25.0814 39.5078 25.2157 39.4362 25.3346C39.3083 25.5515 39.1805 25.7685 39.0475 25.9855C38.7356 26.4453 38.4288 26.9051 38.0862 27.3391C38.0862 27.3442 38.076 27.3494 38.0708 27.3546C38.0657 27.3649 38.0606 27.3701 38.0504 27.3804C38.0504 27.3804 38.0504 27.3856 38.0453 27.3856C38.0299 27.4011 38.0146 27.4217 37.9993 27.4424C37.9583 27.4889 37.9174 27.5457 37.8765 27.5974C37.8612 27.618 37.8407 27.6387 37.8254 27.6594C37.8254 27.6645 37.8203 27.6697 37.8152 27.6749C37.7896 27.7059 37.764 27.7369 37.7385 27.7679C37.7231 27.7885 37.7078 27.804 37.6924 27.8247C37.6771 27.8402 37.6618 27.8609 37.6464 27.8815C37.6208 27.9125 37.5953 27.9435 37.5697 27.9745C37.5544 27.99 37.539 28.0055 37.5288 28.021C37.5493 28.0468 37.5748 28.0675 37.5953 28.0933C37.7282 28.2328 37.8612 28.3775 37.989 28.517C38.1066 28.6461 38.2294 28.7753 38.347 28.9044C38.9657 29.5709 39.5947 30.227 40.2186 30.8934C40.4333 31.1414 40.6532 31.3842 40.8475 31.6477C40.9089 31.7407 40.9703 31.8337 41.0265 31.9319C41.0572 31.9887 41.0828 32.0507 41.1083 32.1075C40.6481 32.433 40.1777 32.7378 39.7123 33.0478C39.201 33.3991 38.6845 33.7452 38.1731 34.0965C37.6362 34.4633 37.0993 34.8353 36.5623 35.2021C36.1583 35.4759 35.7544 35.7497 35.3402 36.0029C34.885 35.1349 34.4248 34.267 33.9646 33.3991C33.8368 33.1563 33.714 32.9134 33.5862 32.6706C33.4379 32.3865 33.2947 32.1023 33.1464 31.813C33.1157 31.751 33.085 31.689 33.0544 31.627C33.0339 31.6374 33.0135 31.6529 32.993 31.6632C32.8447 31.7407 32.6913 31.8182 32.543 31.8905C32.5174 31.9009 32.4919 31.9164 32.4612 31.9267C32.3078 31.999 32.1544 32.0662 31.9958 32.1333C31.9191 32.1643 31.8424 32.1953 31.7657 32.2263C31.4027 32.3607 31.0345 32.4795 30.6612 32.5725C30.4362 32.6293 30.2163 32.681 29.9913 32.7378C29.8072 32.774 29.6282 32.805 29.4441 32.8411C29.2958 32.8669 29.1424 32.9031 28.989 32.9238C28.6464 32.9703 28.3038 33.0168 27.9612 33.0633C27.6441 33.0891 27.3271 33.1201 27.0049 33.1459C26.8771 33.1563 26.7493 33.1666 26.6214 33.1718C26.5652 33.1718 26.5089 33.1718 26.4527 33.1769C26.3708 33.1769 26.2839 33.1821 26.2021 33.1873C25.9618 33.1976 25.7163 33.2028 25.476 33.2079C25.4606 33.5902 25.4453 33.9725 25.4299 34.3548C25.4146 34.6441 25.4044 34.9334 25.3839 35.2228C25.3583 35.6826 25.3277 36.1372 25.2868 36.5918C25.2458 37.0568 25.1947 37.5114 25.1282 37.9712C25.1027 38.1262 25.0669 38.2812 25.0311 38.4362C25.0055 38.5188 24.9799 38.5963 24.9441 38.6738C24.9339 38.6893 24.9288 38.7048 24.9186 38.7203C24.8879 38.7203 24.8572 38.7203 24.8265 38.7203C23.7936 38.6738 22.7657 38.5911 21.743 38.4517C21.3595 38.3897 20.9811 38.3225 20.6027 38.2398C20.2396 38.1572 19.8868 38.0642 19.5339 37.9609C18.997 37.7852 18.4703 37.5992 17.9487 37.3874C17.9129 37.3719 17.872 37.3512 17.8362 37.3306C17.8771 37.0981 17.9282 36.8656 17.9896 36.6331C18.1993 35.9512 18.4191 35.2693 18.6697 34.6028C18.9254 33.9157 19.1964 33.2389 19.4828 32.5621C19.5032 32.5156 19.5237 32.464 19.5441 32.4175C19.4316 32.371 19.3191 32.3245 19.2066 32.278C19.0686 32.216 18.9356 32.154 18.8027 32.0868C18.7413 32.0558 18.6799 32.0249 18.6237 31.9939C18.2402 31.8027 17.8669 31.5961 17.5038 31.3739C17.0129 31.0691 16.5424 30.7385 16.0924 30.3768C15.6885 30.041 15.31 29.6794 14.9521 29.2919C14.676 28.9923 14.4152 28.6771 14.1646 28.3568C14.1237 28.3052 14.0879 28.2587 14.047 28.207C13.96 28.0882 13.8731 27.9745 13.7862 27.8557C13.7095 27.7472 13.6379 27.6387 13.5612 27.5302C13.0498 27.7472 12.5385 27.9642 12.0271 28.176C11.526 28.3826 11.0248 28.5945 10.5237 28.8011C10.0941 28.9819 9.66459 29.1679 9.22993 29.3332C9.01005 29.4159 8.79016 29.4882 8.56516 29.5502C8.47823 29.5709 8.38618 29.5864 8.29925 29.6019C8.14584 29.1214 7.99755 28.6358 7.83903 28.1553C7.66005 27.6025 7.47596 27.0549 7.29698 26.5021C6.92369 25.3501 6.55039 24.198 6.27425 23.0201C6.20778 22.7256 6.15153 22.426 6.11573 22.1263C6.1055 22.0075 6.10039 21.8835 6.10039 21.7647C6.10039 21.7234 6.1055 21.6769 6.11062 21.6355C6.11573 21.6045 6.12084 21.5684 6.13107 21.5374C6.13107 21.527 6.13618 21.5167 6.1413 21.5064C6.1413 21.5064 6.1413 21.496 6.15153 21.4909C6.90323 21.3462 7.66516 21.2532 8.42709 21.1654C9.17368 21.0931 9.92028 21.0466 10.672 21.0052C10.8919 20.9949 11.1169 20.9846 11.3368 20.9742C11.3214 20.8606 11.3112 20.7521 11.301 20.6384C11.2856 20.499 11.2754 20.3543 11.2703 20.2096C11.2703 20.1786 11.2703 20.1476 11.2703 20.1218C11.2652 20.0133 11.26 19.9048 11.2549 19.7912C11.2447 19.5225 11.2447 19.2539 11.2498 18.9852C11.2652 18.4996 11.3112 18.014 11.3828 17.5335C11.4595 17.0789 11.5566 16.6294 11.6794 16.1903C11.8379 15.6478 12.0271 15.1106 12.247 14.5888C12.4515 14.129 12.6868 13.6847 12.9424 13.2559C13.0498 13.0802 13.1572 12.9097 13.2697 12.7444C13.3515 12.6204 13.4385 12.4964 13.5254 12.3724C13.5561 12.3259 13.5868 12.2846 13.6174 12.2381C13.7248 12.0935 13.8322 11.9436 13.9447 11.8042C13.6788 11.4993 13.4129 11.1945 13.147 10.8846C12.3493 9.95464 11.5771 9.00405 10.851 8.01213C10.6873 7.76932 10.5288 7.52651 10.3907 7.26819C10.3498 7.1907 10.314 7.10804 10.2833 7.02538C10.585 6.76707 10.8919 6.51392 11.1936 6.26077C11.5618 5.95597 11.9248 5.64599 12.293 5.34635C12.7072 5.01054 13.1214 4.6799 13.5458 4.3596C13.9191 4.07545 14.2975 3.80681 14.6708 3.533C15.2998 3.08353 15.9186 2.6134 16.5936 2.23627C16.66 2.2001 16.7316 2.17427 16.7981 2.14328C16.8135 2.14328 16.8237 2.13294 16.839 2.13294C16.8493 2.13811 16.8595 2.14328 16.8748 2.14844C16.885 2.15877 16.8902 2.16911 16.9004 2.17944C17.0436 2.39126 17.1663 2.6134 17.2941 2.83039C17.4424 3.0887 17.5907 3.35218 17.7339 3.61566C18.0305 4.14778 18.3271 4.6799 18.6237 5.21719C18.8896 5.69765 19.1453 6.17811 19.4061 6.66374C19.447 6.7464 19.493 6.8239 19.539 6.90656C19.6873 7.18553 19.8407 7.45934 19.989 7.73316C20.168 7.67116 20.347 7.6195 20.5311 7.56267C20.5515 7.5575 20.572 7.55234 20.5924 7.542C20.7663 7.49034 20.9453 7.44385 21.1191 7.39735C21.1754 7.38185 21.2316 7.36635 21.2879 7.35602C21.6765 7.27336 22.0652 7.1907 22.4589 7.10804C22.6328 7.07188 22.8118 7.05638 22.9856 7.03055C23.1748 7.00471 23.3589 6.97372 23.543 6.94789C23.8907 6.91689 24.2385 6.87556 24.5862 6.86523C24.7907 6.86006 24.9953 6.84456 25.1947 6.84456C25.3635 6.84456 25.5322 6.84456 25.7061 6.84973C25.8441 6.85489 25.9873 6.86523 26.1254 6.87039C26.1868 6.90139 26.2583 6.92205 26.335 6.93239C27.0049 6.99438 27.6748 7.06671 28.3447 7.1597C28.6208 7.2062 28.9021 7.25269 29.1731 7.31469C29.4646 7.38185 29.751 7.45934 30.0373 7.542C30.3135 7.62466 30.5896 7.70732 30.8606 7.79515C30.9169 7.61433 30.9731 7.42835 31.0243 7.24236C31.0805 7.04088 31.1368 6.83939 31.193 6.63791C31.2799 6.3176 31.3669 5.9973 31.4487 5.67182C31.7044 4.68507 31.9652 3.69832 32.2464 2.71673C32.2669 2.65473 32.2822 2.58757 32.3027 2.52558C32.5123 2.60824 32.722 2.70123 32.9316 2.78906C33.2231 2.91305 33.5197 3.03704 33.8112 3.16619C34.1436 3.31601 34.476 3.46067 34.7981 3.62599C35.1919 3.82747 35.5805 4.03412 35.9691 4.24594C36.6339 4.61791 37.2885 5.01054 37.943 5.40834C38.076 5.491 38.2038 5.57366 38.3316 5.66666C38.3163 5.72865 38.301 5.79065 38.2856 5.85781C38.1066 6.4106 37.8714 6.94789 37.6464 7.48518C37.4419 7.9708 37.2373 8.45126 37.0328 8.93689C36.91 9.23137 36.7873 9.52068 36.6697 9.81515C36.6595 9.84099 36.6441 9.87198 36.6339 9.89781C36.4856 10.2543 36.3373 10.6108 36.189 10.9672C36.3066 11.0654 36.4191 11.1635 36.5368 11.2669C36.7106 11.427 36.8845 11.5872 37.0532 11.7473C37.1299 11.8197 37.2066 11.892 37.2833 11.9643C37.3703 12.0573 37.4572 12.1503 37.5441 12.2433C37.6311 12.3363 37.7078 12.4396 37.7896 12.5378C37.9583 12.7444 38.1118 12.9511 38.2703 13.1629C38.3674 13.2972 38.4595 13.4367 38.5566 13.571C38.6436 13.695 38.7203 13.8293 38.8021 13.9636C38.9657 14.2375 39.1191 14.5164 39.2674 14.8006C39.339 14.9556 39.4157 15.1054 39.4873 15.2604C39.518 15.3327 39.5538 15.3999 39.5794 15.4722C39.6765 15.7047 39.7737 15.9372 39.8657 16.1696C39.8964 16.2575 39.9271 16.3453 39.9578 16.4331C40.1419 16.428 40.3311 16.4176 40.5152 16.4073C41.768 16.3505 43.0208 16.2988 44.2737 16.2368C44.8924 16.2058 45.5061 16.1696 46.1248 16.1386C46.4265 16.1231 46.7282 16.1076 47.0299 16.0921C47.0708 16.0921 47.1118 16.0921 47.1527 16.087C47.1373 16.2006 47.1271 16.3143 47.1169 16.4279H47.1271Z"></path></mask><path d="M47.9197 14.8884C47.8072 14.8626 47.6794 14.8677 47.5618 14.8729C47.301 14.8781 47.035 14.8936 46.7743 14.9039C45.5419 14.9659 44.3146 15.0382 43.0822 15.0951C42.4328 15.1261 41.7782 15.1519 41.1237 15.1829C41.001 15.1881 40.8782 15.1932 40.7555 15.1984C40.7248 15.1209 40.6941 15.0486 40.6583 14.9762C40.5765 14.8057 40.4998 14.6353 40.418 14.4648C40.1419 13.881 39.8197 13.3127 39.4515 12.7806C39.2572 12.4964 39.0578 12.2123 38.843 11.9488C38.7356 11.8145 38.6231 11.6802 38.5106 11.5407C38.4135 11.4219 38.2958 11.3082 38.1936 11.1945C38.0146 10.9982 37.8203 10.8122 37.6208 10.6314C37.7282 10.3679 37.8356 10.1045 37.9481 9.84098C38.2754 9.06088 38.6129 8.28078 38.935 7.50067C39.0629 7.18037 39.201 6.86523 39.3186 6.54492C39.3953 6.32794 39.4669 6.11612 39.5129 5.89397C39.5487 5.72348 39.5436 5.553 39.518 5.38251C39.4975 5.24302 39.426 5.08287 39.3339 4.97955C39.2419 4.87105 39.1396 4.77806 39.0271 4.6954C38.7714 4.50942 38.4953 4.34926 38.2243 4.18394C37.9532 4.01862 37.6822 3.85847 37.4112 3.69832C36.8794 3.38318 36.3475 3.0732 35.7953 2.78906C35.2021 2.48425 34.6038 2.20527 33.9953 1.94179C33.7089 1.8178 33.4225 1.69898 33.1362 1.58015C32.9725 1.51299 32.8089 1.44583 32.6453 1.37867C32.41 1.28051 32.139 1.18752 31.8833 1.26501C31.3618 1.42517 31.239 2.00379 31.1061 2.46875C31.0243 2.76323 30.9373 3.05254 30.8606 3.34701C30.5896 4.33376 30.339 5.32052 30.0731 6.30727C29.8021 6.23494 29.5311 6.16778 29.2549 6.10579C28.9328 6.03863 28.6106 5.98696 28.2833 5.94047C27.7924 5.86814 27.2964 5.81648 26.8055 5.76998C26.7135 5.71832 26.6112 5.69249 26.5038 5.68732C26.514 5.68732 26.5243 5.68732 26.5294 5.68732C26.2277 5.67699 25.9311 5.65632 25.6345 5.65116C25.3123 5.65116 24.9953 5.65116 24.6731 5.66149C24.351 5.67182 24.0339 5.70282 23.7118 5.73382C23.4305 5.75965 23.1544 5.80098 22.8731 5.84231C22.5816 5.8888 22.2902 5.93013 21.9987 5.99213C21.5589 6.08512 21.1191 6.16778 20.6845 6.28661C20.6538 6.29694 20.6231 6.3021 20.5924 6.31244C20.3061 5.78548 20.0299 5.25852 19.7385 4.73157C19.4265 4.16328 19.1095 3.59499 18.7924 3.0267C18.639 2.75289 18.4856 2.47908 18.3322 2.21044C18.1839 1.95212 18.0407 1.68865 17.8669 1.451C17.6368 1.13586 17.2379 0.918875 16.8441 0.934374C16.4862 0.949872 16.1385 1.12552 15.8419 1.31151C15.7191 1.38384 15.5964 1.45616 15.4788 1.53366C14.947 1.89013 14.4305 2.25693 13.9089 2.63407C13.3822 3.01637 12.8555 3.39351 12.3441 3.79647C11.8379 4.19428 11.347 4.60241 10.851 5.01571C10.3856 5.40318 9.91516 5.78548 9.46005 6.18845C9.39357 6.24528 9.33221 6.30727 9.27084 6.36927C9.20948 6.43126 9.16857 6.51392 9.12766 6.59141C9.09187 6.65858 9.07141 6.73607 9.06118 6.81356C9.05607 6.89622 9.05096 6.98922 9.0663 7.06671C9.10721 7.26303 9.16346 7.44901 9.25039 7.62983C9.33221 7.80548 9.41914 7.97597 9.52141 8.14129C9.67993 8.40477 9.84869 8.65791 10.0328 8.90589C10.135 9.04538 10.2373 9.19004 10.3447 9.32953C10.7538 9.85132 11.168 10.3731 11.5924 10.8846C11.8686 11.2204 12.1498 11.5562 12.4362 11.8868C12.2981 12.0883 12.1652 12.2898 12.0424 12.4964C11.8021 12.8891 11.572 13.2869 11.3777 13.7002C11.1885 14.0928 11.0197 14.4958 10.8765 14.9039C10.5748 15.746 10.3396 16.6088 10.2118 17.4974C10.0993 18.2826 10.0635 19.0731 10.0941 19.8635C9.67993 19.8893 9.26573 19.91 8.85153 19.9462C8.29925 19.9927 7.75209 20.0598 7.20493 20.1321C6.94414 20.1683 6.68334 20.2096 6.42255 20.251C6.04925 20.3078 5.64528 20.3491 5.36914 20.6384C5.11346 20.9071 4.97539 21.2636 4.96005 21.6355C4.94471 22.0282 4.9805 22.4156 5.05209 22.8031C5.14414 23.3042 5.27198 23.7899 5.39982 24.2806C5.55834 24.8903 5.74755 25.4999 5.94698 26.0992C6.33562 27.2874 6.72937 28.4756 7.10266 29.669C7.1538 29.8292 7.19982 29.9945 7.25607 30.1547C7.30209 30.2942 7.36857 30.4233 7.46573 30.5266C7.57312 30.6455 7.70607 30.723 7.85437 30.7746C7.96687 30.8159 8.08448 30.8263 8.20721 30.8263C8.28391 30.8263 8.36062 30.8211 8.43221 30.8159C8.63164 30.8004 8.83618 30.754 9.02539 30.6971C9.32198 30.6093 9.61346 30.506 9.89982 30.3923C10.493 30.1495 11.0862 29.8964 11.6794 29.6535C12.1805 29.4469 12.6868 29.2351 13.1879 29.0233C13.4947 29.4211 13.8169 29.8085 14.1595 30.1753C14.4816 30.5163 14.814 30.8521 15.172 31.1518C15.5146 31.4411 15.8623 31.7097 16.2305 31.9629C16.8083 32.3607 17.4118 32.7275 18.0407 33.0478C17.8413 33.5489 17.647 34.0449 17.4629 34.5511C17.3555 34.8508 17.2532 35.1556 17.1561 35.4552C17.0589 35.7497 16.9618 36.039 16.8748 36.3387C16.793 36.6331 16.7214 36.9328 16.6805 37.2324C16.66 37.3874 16.6447 37.5631 16.6958 37.7129C16.7214 37.7904 16.747 37.873 16.7879 37.9454C16.8237 38.0022 16.8595 38.0539 16.9055 38.1055C17.0896 38.3277 17.376 38.4465 17.6368 38.555C18.8129 39.0406 20.035 39.3919 21.2879 39.6037C21.9373 39.7122 22.5868 39.7949 23.2413 39.8414C23.5481 39.862 23.8549 39.8879 24.1618 39.9034C24.3203 39.9137 24.4788 39.924 24.6322 39.9292C24.714 39.9292 24.7958 39.9344 24.8777 39.9344C25.0464 39.9344 25.21 39.9189 25.3686 39.862C25.7316 39.7381 25.9618 39.4126 26.0947 39.0613C26.2123 38.7565 26.2839 38.431 26.3299 38.1055C26.3811 37.7542 26.422 37.4081 26.4578 37.0568C26.5243 36.442 26.5549 35.822 26.5907 35.2073C26.6061 34.9334 26.6214 34.6545 26.6316 34.3807C26.872 34.3703 27.1072 34.3548 27.3475 34.3342C27.6697 34.3032 27.9919 34.2825 28.3089 34.2412C28.6311 34.1998 28.9532 34.1688 29.2703 34.112C29.4953 34.0707 29.7152 34.0294 29.9402 33.988C30.0629 33.9674 30.1907 33.9467 30.3135 33.9157C30.697 33.8227 31.0856 33.74 31.4589 33.6212C31.8271 33.5076 32.1902 33.3732 32.543 33.2286C32.5788 33.3009 32.6146 33.3681 32.6504 33.4404C33.1157 34.3497 33.6066 35.2434 34.0822 36.1475C34.1743 36.3232 34.2663 36.4988 34.3532 36.6745C34.4197 36.8036 34.4862 36.9535 34.5833 37.0619C34.7572 37.2479 34.9822 37.3513 35.2277 37.3513C35.2737 37.3513 35.3146 37.3513 35.3606 37.3409C35.5498 37.3151 35.7237 37.1963 35.8873 37.0981C35.9947 37.0309 36.1021 36.9689 36.2095 36.9018C37.1555 36.2922 38.076 35.6464 39.0015 35.0109C39.518 34.6596 40.0345 34.3083 40.551 33.957C40.8066 33.7865 41.0572 33.6109 41.3129 33.4404C41.4407 33.3577 41.5686 33.2699 41.6913 33.1821C41.8907 33.0426 42.1055 32.9031 42.218 32.681C42.3816 32.3607 42.3561 31.999 42.2231 31.6684C42.0799 31.3119 41.8652 30.9916 41.6248 30.692C41.41 30.4233 41.1748 30.165 40.9396 29.917C40.5254 29.4727 40.101 29.0336 39.6868 28.5893C39.5436 28.4343 39.3953 28.2793 39.2521 28.1243C39.2419 28.114 39.2265 28.0985 39.2163 28.0882C39.2163 28.0882 39.2163 28.083 39.2112 28.083C39.1805 28.0468 39.1498 28.0158 39.114 27.9797C39.4362 27.5612 39.7328 27.1272 40.0294 26.6933C40.1163 26.5641 40.1879 26.4246 40.2697 26.2903C40.3464 26.1663 40.4282 26.0423 40.4947 25.908C40.6225 25.66 40.7453 25.4069 40.868 25.1589C40.9447 25.0091 41.001 24.8438 41.0623 24.6888C41.1083 24.57 41.1646 24.4563 41.2055 24.3375C41.3231 23.9965 41.451 23.6555 41.5481 23.3042C41.8243 23.3301 42.0953 23.3559 42.3714 23.3817C43.0515 23.4489 43.7265 23.5264 44.4015 23.6194C45.0152 23.7072 45.6288 23.8208 46.2475 23.8777C46.4163 23.8932 46.5799 23.9087 46.7487 23.9087C46.7794 23.9087 46.8152 23.9087 46.8458 23.9087C47.0504 23.9087 47.26 23.8983 47.439 23.7899C47.6998 23.6245 47.7868 23.3146 47.8328 23.0252C47.9248 22.4363 47.9606 21.837 48.0015 21.2429C48.0476 20.6023 48.0885 19.9668 48.1243 19.3262C48.16 18.7011 48.1805 18.076 48.2265 17.4509C48.247 17.1409 48.2674 16.8309 48.3032 16.5261C48.3237 16.3556 48.339 16.1851 48.3595 16.0198C48.3799 15.8597 48.4157 15.6943 48.4106 15.5342C48.4004 15.2345 48.2061 14.9711 47.9095 14.9039L47.9197 14.8884ZM47.1271 16.4279C47.0964 16.7276 47.0708 17.0324 47.0555 17.332C47.0197 17.952 46.989 18.5771 46.9532 19.1971C46.9174 19.8222 46.8816 20.4473 46.8356 21.0724C46.7947 21.6097 46.764 22.147 46.6924 22.6843C46.3754 22.6636 46.0583 22.6326 45.7464 22.5861C45.1328 22.4931 44.5191 22.3846 43.9004 22.3123C43.21 22.2296 42.5197 22.1625 41.8294 22.0953C41.8191 22.0953 41.8089 22.0953 41.7987 22.0953C41.4049 22.0592 41.0061 22.023 40.6123 21.9868C40.6123 22.0127 40.6072 22.0385 40.6021 22.0643C40.551 22.3898 40.4794 22.7049 40.3924 23.0201C40.3413 23.1957 40.2799 23.3662 40.2186 23.5367C40.1777 23.6607 40.1368 23.7847 40.0907 23.9087C39.9936 24.136 39.9015 24.3685 39.8044 24.5958C39.743 24.7146 39.6868 24.8386 39.6254 24.9574C39.564 25.0814 39.5078 25.2157 39.4362 25.3346C39.3083 25.5515 39.1805 25.7685 39.0475 25.9855C38.7356 26.4453 38.4288 26.9051 38.0862 27.3391C38.0862 27.3442 38.076 27.3494 38.0708 27.3546C38.0657 27.3649 38.0606 27.3701 38.0504 27.3804C38.0504 27.3804 38.0504 27.3856 38.0453 27.3856C38.0299 27.4011 38.0146 27.4217 37.9993 27.4424C37.9583 27.4889 37.9174 27.5457 37.8765 27.5974C37.8612 27.618 37.8407 27.6387 37.8254 27.6594C37.8254 27.6645 37.8203 27.6697 37.8152 27.6749C37.7896 27.7059 37.764 27.7369 37.7385 27.7679C37.7231 27.7885 37.7078 27.804 37.6924 27.8247C37.6771 27.8402 37.6618 27.8609 37.6464 27.8815C37.6208 27.9125 37.5953 27.9435 37.5697 27.9745C37.5544 27.99 37.539 28.0055 37.5288 28.021C37.5493 28.0468 37.5748 28.0675 37.5953 28.0933C37.7282 28.2328 37.8612 28.3775 37.989 28.517C38.1066 28.6461 38.2294 28.7753 38.347 28.9044C38.9657 29.5709 39.5947 30.227 40.2186 30.8934C40.4333 31.1414 40.6532 31.3842 40.8475 31.6477C40.9089 31.7407 40.9703 31.8337 41.0265 31.9319C41.0572 31.9887 41.0828 32.0507 41.1083 32.1075C40.6481 32.433 40.1777 32.7378 39.7123 33.0478C39.201 33.3991 38.6845 33.7452 38.1731 34.0965C37.6362 34.4633 37.0993 34.8353 36.5623 35.2021C36.1583 35.4759 35.7544 35.7497 35.3402 36.0029C34.885 35.1349 34.4248 34.267 33.9646 33.3991C33.8368 33.1563 33.714 32.9134 33.5862 32.6706C33.4379 32.3865 33.2947 32.1023 33.1464 31.813C33.1157 31.751 33.085 31.689 33.0544 31.627C33.0339 31.6374 33.0135 31.6529 32.993 31.6632C32.8447 31.7407 32.6913 31.8182 32.543 31.8905C32.5174 31.9009 32.4919 31.9164 32.4612 31.9267C32.3078 31.999 32.1544 32.0662 31.9958 32.1333C31.9191 32.1643 31.8424 32.1953 31.7657 32.2263C31.4027 32.3607 31.0345 32.4795 30.6612 32.5725C30.4362 32.6293 30.2163 32.681 29.9913 32.7378C29.8072 32.774 29.6282 32.805 29.4441 32.8411C29.2958 32.8669 29.1424 32.9031 28.989 32.9238C28.6464 32.9703 28.3038 33.0168 27.9612 33.0633C27.6441 33.0891 27.3271 33.1201 27.0049 33.1459C26.8771 33.1563 26.7493 33.1666 26.6214 33.1718C26.5652 33.1718 26.5089 33.1718 26.4527 33.1769C26.3708 33.1769 26.2839 33.1821 26.2021 33.1873C25.9618 33.1976 25.7163 33.2028 25.476 33.2079C25.4606 33.5902 25.4453 33.9725 25.4299 34.3548C25.4146 34.6441 25.4044 34.9334 25.3839 35.2228C25.3583 35.6826 25.3277 36.1372 25.2868 36.5918C25.2458 37.0568 25.1947 37.5114 25.1282 37.9712C25.1027 38.1262 25.0669 38.2812 25.0311 38.4362C25.0055 38.5188 24.9799 38.5963 24.9441 38.6738C24.9339 38.6893 24.9288 38.7048 24.9186 38.7203C24.8879 38.7203 24.8572 38.7203 24.8265 38.7203C23.7936 38.6738 22.7657 38.5911 21.743 38.4517C21.3595 38.3897 20.9811 38.3225 20.6027 38.2398C20.2396 38.1572 19.8868 38.0642 19.5339 37.9609C18.997 37.7852 18.4703 37.5992 17.9487 37.3874C17.9129 37.3719 17.872 37.3512 17.8362 37.3306C17.8771 37.0981 17.9282 36.8656 17.9896 36.6331C18.1993 35.9512 18.4191 35.2693 18.6697 34.6028C18.9254 33.9157 19.1964 33.2389 19.4828 32.5621C19.5032 32.5156 19.5237 32.464 19.5441 32.4175C19.4316 32.371 19.3191 32.3245 19.2066 32.278C19.0686 32.216 18.9356 32.154 18.8027 32.0868C18.7413 32.0558 18.6799 32.0249 18.6237 31.9939C18.2402 31.8027 17.8669 31.5961 17.5038 31.3739C17.0129 31.0691 16.5424 30.7385 16.0924 30.3768C15.6885 30.041 15.31 29.6794 14.9521 29.2919C14.676 28.9923 14.4152 28.6771 14.1646 28.3568C14.1237 28.3052 14.0879 28.2587 14.047 28.207C13.96 28.0882 13.8731 27.9745 13.7862 27.8557C13.7095 27.7472 13.6379 27.6387 13.5612 27.5302C13.0498 27.7472 12.5385 27.9642 12.0271 28.176C11.526 28.3826 11.0248 28.5945 10.5237 28.8011C10.0941 28.9819 9.66459 29.1679 9.22993 29.3332C9.01005 29.4159 8.79016 29.4882 8.56516 29.5502C8.47823 29.5709 8.38618 29.5864 8.29925 29.6019C8.14584 29.1214 7.99755 28.6358 7.83903 28.1553C7.66005 27.6025 7.47596 27.0549 7.29698 26.5021C6.92369 25.3501 6.55039 24.198 6.27425 23.0201C6.20778 22.7256 6.15153 22.426 6.11573 22.1263C6.1055 22.0075 6.10039 21.8835 6.10039 21.7647C6.10039 21.7234 6.1055 21.6769 6.11062 21.6355C6.11573 21.6045 6.12084 21.5684 6.13107 21.5374C6.13107 21.527 6.13618 21.5167 6.1413 21.5064C6.1413 21.5064 6.1413 21.496 6.15153 21.4909C6.90323 21.3462 7.66516 21.2532 8.42709 21.1654C9.17368 21.0931 9.92028 21.0466 10.672 21.0052C10.8919 20.9949 11.1169 20.9846 11.3368 20.9742C11.3214 20.8606 11.3112 20.7521 11.301 20.6384C11.2856 20.499 11.2754 20.3543 11.2703 20.2096C11.2703 20.1786 11.2703 20.1476 11.2703 20.1218C11.2652 20.0133 11.26 19.9048 11.2549 19.7912C11.2447 19.5225 11.2447 19.2539 11.2498 18.9852C11.2652 18.4996 11.3112 18.014 11.3828 17.5335C11.4595 17.0789 11.5566 16.6294 11.6794 16.1903C11.8379 15.6478 12.0271 15.1106 12.247 14.5888C12.4515 14.129 12.6868 13.6847 12.9424 13.2559C13.0498 13.0802 13.1572 12.9097 13.2697 12.7444C13.3515 12.6204 13.4385 12.4964 13.5254 12.3724C13.5561 12.3259 13.5868 12.2846 13.6174 12.2381C13.7248 12.0935 13.8322 11.9436 13.9447 11.8042C13.6788 11.4993 13.4129 11.1945 13.147 10.8846C12.3493 9.95464 11.5771 9.00405 10.851 8.01213C10.6873 7.76932 10.5288 7.52651 10.3907 7.26819C10.3498 7.1907 10.314 7.10804 10.2833 7.02538C10.585 6.76707 10.8919 6.51392 11.1936 6.26077C11.5618 5.95597 11.9248 5.64599 12.293 5.34635C12.7072 5.01054 13.1214 4.6799 13.5458 4.3596C13.9191 4.07545 14.2975 3.80681 14.6708 3.533C15.2998 3.08353 15.9186 2.6134 16.5936 2.23627C16.66 2.2001 16.7316 2.17427 16.7981 2.14328C16.8135 2.14328 16.8237 2.13294 16.839 2.13294C16.8493 2.13811 16.8595 2.14328 16.8748 2.14844C16.885 2.15877 16.8902 2.16911 16.9004 2.17944C17.0436 2.39126 17.1663 2.6134 17.2941 2.83039C17.4424 3.0887 17.5907 3.35218 17.7339 3.61566C18.0305 4.14778 18.3271 4.6799 18.6237 5.21719C18.8896 5.69765 19.1453 6.17811 19.4061 6.66374C19.447 6.7464 19.493 6.8239 19.539 6.90656C19.6873 7.18553 19.8407 7.45934 19.989 7.73316C20.168 7.67116 20.347 7.6195 20.5311 7.56267C20.5515 7.5575 20.572 7.55234 20.5924 7.542C20.7663 7.49034 20.9453 7.44385 21.1191 7.39735C21.1754 7.38185 21.2316 7.36635 21.2879 7.35602C21.6765 7.27336 22.0652 7.1907 22.4589 7.10804C22.6328 7.07188 22.8118 7.05638 22.9856 7.03055C23.1748 7.00471 23.3589 6.97372 23.543 6.94789C23.8907 6.91689 24.2385 6.87556 24.5862 6.86523C24.7907 6.86006 24.9953 6.84456 25.1947 6.84456C25.3635 6.84456 25.5322 6.84456 25.7061 6.84973C25.8441 6.85489 25.9873 6.86523 26.1254 6.87039C26.1868 6.90139 26.2583 6.92205 26.335 6.93239C27.0049 6.99438 27.6748 7.06671 28.3447 7.1597C28.6208 7.2062 28.9021 7.25269 29.1731 7.31469C29.4646 7.38185 29.751 7.45934 30.0373 7.542C30.3135 7.62466 30.5896 7.70732 30.8606 7.79515C30.9169 7.61433 30.9731 7.42835 31.0243 7.24236C31.0805 7.04088 31.1368 6.83939 31.193 6.63791C31.2799 6.3176 31.3669 5.9973 31.4487 5.67182C31.7044 4.68507 31.9652 3.69832 32.2464 2.71673C32.2669 2.65473 32.2822 2.58757 32.3027 2.52558C32.5123 2.60824 32.722 2.70123 32.9316 2.78906C33.2231 2.91305 33.5197 3.03704 33.8112 3.16619C34.1436 3.31601 34.476 3.46067 34.7981 3.62599C35.1919 3.82747 35.5805 4.03412 35.9691 4.24594C36.6339 4.61791 37.2885 5.01054 37.943 5.40834C38.076 5.491 38.2038 5.57366 38.3316 5.66666C38.3163 5.72865 38.301 5.79065 38.2856 5.85781C38.1066 6.4106 37.8714 6.94789 37.6464 7.48518C37.4419 7.9708 37.2373 8.45126 37.0328 8.93689C36.91 9.23137 36.7873 9.52068 36.6697 9.81515C36.6595 9.84099 36.6441 9.87198 36.6339 9.89781C36.4856 10.2543 36.3373 10.6108 36.189 10.9672C36.3066 11.0654 36.4191 11.1635 36.5368 11.2669C36.7106 11.427 36.8845 11.5872 37.0532 11.7473C37.1299 11.8197 37.2066 11.892 37.2833 11.9643C37.3703 12.0573 37.4572 12.1503 37.5441 12.2433C37.6311 12.3363 37.7078 12.4396 37.7896 12.5378C37.9583 12.7444 38.1118 12.9511 38.2703 13.1629C38.3674 13.2972 38.4595 13.4367 38.5566 13.571C38.6436 13.695 38.7203 13.8293 38.8021 13.9636C38.9657 14.2375 39.1191 14.5164 39.2674 14.8006C39.339 14.9556 39.4157 15.1054 39.4873 15.2604C39.518 15.3327 39.5538 15.3999 39.5794 15.4722C39.6765 15.7047 39.7737 15.9372 39.8657 16.1696C39.8964 16.2575 39.9271 16.3453 39.9578 16.4331C40.1419 16.428 40.3311 16.4176 40.5152 16.4073C41.768 16.3505 43.0208 16.2988 44.2737 16.2368C44.8924 16.2058 45.5061 16.1696 46.1248 16.1386C46.4265 16.1231 46.7282 16.1076 47.0299 16.0921C47.0708 16.0921 47.1118 16.0921 47.1527 16.087C47.1373 16.2006 47.1271 16.3143 47.1169 16.4279H47.1271Z" fill="#8B75F3"></path><path d="M47.9197 14.8884C47.8072 14.8626 47.6794 14.8677 47.5618 14.8729C47.301 14.8781 47.035 14.8936 46.7743 14.9039C45.5419 14.9659 44.3146 15.0382 43.0822 15.0951C42.4328 15.1261 41.7782 15.1519 41.1237 15.1829C41.001 15.1881 40.8782 15.1932 40.7555 15.1984C40.7248 15.1209 40.6941 15.0486 40.6583 14.9762C40.5765 14.8057 40.4998 14.6353 40.418 14.4648C40.1419 13.881 39.8197 13.3127 39.4515 12.7806C39.2572 12.4964 39.0578 12.2123 38.843 11.9488C38.7356 11.8145 38.6231 11.6802 38.5106 11.5407C38.4135 11.4219 38.2958 11.3082 38.1936 11.1945C38.0146 10.9982 37.8203 10.8122 37.6208 10.6314C37.7282 10.3679 37.8356 10.1045 37.9481 9.84098C38.2754 9.06088 38.6129 8.28078 38.935 7.50067C39.0629 7.18037 39.201 6.86523 39.3186 6.54492C39.3953 6.32794 39.4669 6.11612 39.5129 5.89397C39.5487 5.72348 39.5436 5.553 39.518 5.38251C39.4975 5.24302 39.426 5.08287 39.3339 4.97955C39.2419 4.87105 39.1396 4.77806 39.0271 4.6954C38.7714 4.50942 38.4953 4.34926 38.2243 4.18394C37.9532 4.01862 37.6822 3.85847 37.4112 3.69832C36.8794 3.38318 36.3475 3.0732 35.7953 2.78906C35.2021 2.48425 34.6038 2.20527 33.9953 1.94179C33.7089 1.8178 33.4225 1.69898 33.1362 1.58015C32.9725 1.51299 32.8089 1.44583 32.6453 1.37867C32.41 1.28051 32.139 1.18752 31.8833 1.26501C31.3618 1.42517 31.239 2.00379 31.1061 2.46875C31.0243 2.76323 30.9373 3.05254 30.8606 3.34701C30.5896 4.33376 30.339 5.32052 30.0731 6.30727C29.8021 6.23494 29.5311 6.16778 29.2549 6.10579C28.9328 6.03863 28.6106 5.98696 28.2833 5.94047C27.7924 5.86814 27.2964 5.81648 26.8055 5.76998C26.7135 5.71832 26.6112 5.69249 26.5038 5.68732C26.514 5.68732 26.5243 5.68732 26.5294 5.68732C26.2277 5.67699 25.9311 5.65632 25.6345 5.65116C25.3123 5.65116 24.9953 5.65116 24.6731 5.66149C24.351 5.67182 24.0339 5.70282 23.7118 5.73382C23.4305 5.75965 23.1544 5.80098 22.8731 5.84231C22.5816 5.8888 22.2902 5.93013 21.9987 5.99213C21.5589 6.08512 21.1191 6.16778 20.6845 6.28661C20.6538 6.29694 20.6231 6.3021 20.5924 6.31244C20.3061 5.78548 20.0299 5.25852 19.7385 4.73157C19.4265 4.16328 19.1095 3.59499 18.7924 3.0267C18.639 2.75289 18.4856 2.47908 18.3322 2.21044C18.1839 1.95212 18.0407 1.68865 17.8669 1.451C17.6368 1.13586 17.2379 0.918875 16.8441 0.934374C16.4862 0.949872 16.1385 1.12552 15.8419 1.31151C15.7191 1.38384 15.5964 1.45616 15.4788 1.53366C14.947 1.89013 14.4305 2.25693 13.9089 2.63407C13.3822 3.01637 12.8555 3.39351 12.3441 3.79647C11.8379 4.19428 11.347 4.60241 10.851 5.01571C10.3856 5.40318 9.91516 5.78548 9.46005 6.18845C9.39357 6.24528 9.33221 6.30727 9.27084 6.36927C9.20948 6.43126 9.16857 6.51392 9.12766 6.59141C9.09187 6.65858 9.07141 6.73607 9.06118 6.81356C9.05607 6.89622 9.05096 6.98922 9.0663 7.06671C9.10721 7.26303 9.16346 7.44901 9.25039 7.62983C9.33221 7.80548 9.41914 7.97597 9.52141 8.14129C9.67993 8.40477 9.84869 8.65791 10.0328 8.90589C10.135 9.04538 10.2373 9.19004 10.3447 9.32953C10.7538 9.85132 11.168 10.3731 11.5924 10.8846C11.8686 11.2204 12.1498 11.5562 12.4362 11.8868C12.2981 12.0883 12.1652 12.2898 12.0424 12.4964C11.8021 12.8891 11.572 13.2869 11.3777 13.7002C11.1885 14.0928 11.0197 14.4958 10.8765 14.9039C10.5748 15.746 10.3396 16.6088 10.2118 17.4974C10.0993 18.2826 10.0635 19.0731 10.0941 19.8635C9.67993 19.8893 9.26573 19.91 8.85153 19.9462C8.29925 19.9927 7.75209 20.0598 7.20493 20.1321C6.94414 20.1683 6.68334 20.2096 6.42255 20.251C6.04925 20.3078 5.64528 20.3491 5.36914 20.6384C5.11346 20.9071 4.97539 21.2636 4.96005 21.6355C4.94471 22.0282 4.9805 22.4156 5.05209 22.8031C5.14414 23.3042 5.27198 23.7899 5.39982 24.2806C5.55834 24.8903 5.74755 25.4999 5.94698 26.0992C6.33562 27.2874 6.72937 28.4756 7.10266 29.669C7.1538 29.8292 7.19982 29.9945 7.25607 30.1547C7.30209 30.2942 7.36857 30.4233 7.46573 30.5266C7.57312 30.6455 7.70607 30.723 7.85437 30.7746C7.96687 30.8159 8.08448 30.8263 8.20721 30.8263C8.28391 30.8263 8.36062 30.8211 8.43221 30.8159C8.63164 30.8004 8.83618 30.754 9.02539 30.6971C9.32198 30.6093 9.61346 30.506 9.89982 30.3923C10.493 30.1495 11.0862 29.8964 11.6794 29.6535C12.1805 29.4469 12.6868 29.2351 13.1879 29.0233C13.4947 29.4211 13.8169 29.8085 14.1595 30.1753C14.4816 30.5163 14.814 30.8521 15.172 31.1518C15.5146 31.4411 15.8623 31.7097 16.2305 31.9629C16.8083 32.3607 17.4118 32.7275 18.0407 33.0478C17.8413 33.5489 17.647 34.0449 17.4629 34.5511C17.3555 34.8508 17.2532 35.1556 17.1561 35.4552C17.0589 35.7497 16.9618 36.039 16.8748 36.3387C16.793 36.6331 16.7214 36.9328 16.6805 37.2324C16.66 37.3874 16.6447 37.5631 16.6958 37.7129C16.7214 37.7904 16.747 37.873 16.7879 37.9454C16.8237 38.0022 16.8595 38.0539 16.9055 38.1055C17.0896 38.3277 17.376 38.4465 17.6368 38.555C18.8129 39.0406 20.035 39.3919 21.2879 39.6037C21.9373 39.7122 22.5868 39.7949 23.2413 39.8414C23.5481 39.862 23.8549 39.8879 24.1618 39.9034C24.3203 39.9137 24.4788 39.924 24.6322 39.9292C24.714 39.9292 24.7958 39.9344 24.8777 39.9344C25.0464 39.9344 25.21 39.9189 25.3686 39.862C25.7316 39.7381 25.9618 39.4126 26.0947 39.0613C26.2123 38.7565 26.2839 38.431 26.3299 38.1055C26.3811 37.7542 26.422 37.4081 26.4578 37.0568C26.5243 36.442 26.5549 35.822 26.5907 35.2073C26.6061 34.9334 26.6214 34.6545 26.6316 34.3807C26.872 34.3703 27.1072 34.3548 27.3475 34.3342C27.6697 34.3032 27.9919 34.2825 28.3089 34.2412C28.6311 34.1998 28.9532 34.1688 29.2703 34.112C29.4953 34.0707 29.7152 34.0294 29.9402 33.988C30.0629 33.9674 30.1907 33.9467 30.3135 33.9157C30.697 33.8227 31.0856 33.74 31.4589 33.6212C31.8271 33.5076 32.1902 33.3732 32.543 33.2286C32.5788 33.3009 32.6146 33.3681 32.6504 33.4404C33.1157 34.3497 33.6066 35.2434 34.0822 36.1475C34.1743 36.3232 34.2663 36.4988 34.3532 36.6745C34.4197 36.8036 34.4862 36.9535 34.5833 37.0619C34.7572 37.2479 34.9822 37.3513 35.2277 37.3513C35.2737 37.3513 35.3146 37.3513 35.3606 37.3409C35.5498 37.3151 35.7237 37.1963 35.8873 37.0981C35.9947 37.0309 36.1021 36.9689 36.2095 36.9018C37.1555 36.2922 38.076 35.6464 39.0015 35.0109C39.518 34.6596 40.0345 34.3083 40.551 33.957C40.8066 33.7865 41.0572 33.6109 41.3129 33.4404C41.4407 33.3577 41.5686 33.2699 41.6913 33.1821C41.8907 33.0426 42.1055 32.9031 42.218 32.681C42.3816 32.3607 42.3561 31.999 42.2231 31.6684C42.0799 31.3119 41.8652 30.9916 41.6248 30.692C41.41 30.4233 41.1748 30.165 40.9396 29.917C40.5254 29.4727 40.101 29.0336 39.6868 28.5893C39.5436 28.4343 39.3953 28.2793 39.2521 28.1243C39.2419 28.114 39.2265 28.0985 39.2163 28.0882C39.2163 28.0882 39.2163 28.083 39.2112 28.083C39.1805 28.0468 39.1498 28.0158 39.114 27.9797C39.4362 27.5612 39.7328 27.1272 40.0294 26.6933C40.1163 26.5641 40.1879 26.4246 40.2697 26.2903C40.3464 26.1663 40.4282 26.0423 40.4947 25.908C40.6225 25.66 40.7453 25.4069 40.868 25.1589C40.9447 25.0091 41.001 24.8438 41.0623 24.6888C41.1083 24.57 41.1646 24.4563 41.2055 24.3375C41.3231 23.9965 41.451 23.6555 41.5481 23.3042C41.8243 23.3301 42.0953 23.3559 42.3714 23.3817C43.0515 23.4489 43.7265 23.5264 44.4015 23.6194C45.0152 23.7072 45.6288 23.8208 46.2475 23.8777C46.4163 23.8932 46.5799 23.9087 46.7487 23.9087C46.7794 23.9087 46.8152 23.9087 46.8458 23.9087C47.0504 23.9087 47.26 23.8983 47.439 23.7899C47.6998 23.6245 47.7868 23.3146 47.8328 23.0252C47.9248 22.4363 47.9606 21.837 48.0015 21.2429C48.0476 20.6023 48.0885 19.9668 48.1243 19.3262C48.16 18.7011 48.1805 18.076 48.2265 17.4509C48.247 17.1409 48.2674 16.8309 48.3032 16.5261C48.3237 16.3556 48.339 16.1851 48.3595 16.0198C48.3799 15.8597 48.4157 15.6943 48.4106 15.5342C48.4004 15.2345 48.2061 14.9711 47.9095 14.9039L47.9197 14.8884ZM47.1271 16.4279C47.0964 16.7276 47.0708 17.0324 47.0555 17.332C47.0197 17.952 46.989 18.5771 46.9532 19.1971C46.9174 19.8222 46.8816 20.4473 46.8356 21.0724C46.7947 21.6097 46.764 22.147 46.6924 22.6843C46.3754 22.6636 46.0583 22.6326 45.7464 22.5861C45.1328 22.4931 44.5191 22.3846 43.9004 22.3123C43.21 22.2296 42.5197 22.1625 41.8294 22.0953C41.8191 22.0953 41.8089 22.0953 41.7987 22.0953C41.4049 22.0592 41.0061 22.023 40.6123 21.9868C40.6123 22.0127 40.6072 22.0385 40.6021 22.0643C40.551 22.3898 40.4794 22.7049 40.3924 23.0201C40.3413 23.1957 40.2799 23.3662 40.2186 23.5367C40.1777 23.6607 40.1368 23.7847 40.0907 23.9087C39.9936 24.136 39.9015 24.3685 39.8044 24.5958C39.743 24.7146 39.6868 24.8386 39.6254 24.9574C39.564 25.0814 39.5078 25.2157 39.4362 25.3346C39.3083 25.5515 39.1805 25.7685 39.0475 25.9855C38.7356 26.4453 38.4288 26.9051 38.0862 27.3391C38.0862 27.3442 38.076 27.3494 38.0708 27.3546C38.0657 27.3649 38.0606 27.3701 38.0504 27.3804C38.0504 27.3804 38.0504 27.3856 38.0453 27.3856C38.0299 27.4011 38.0146 27.4217 37.9993 27.4424C37.9583 27.4889 37.9174 27.5457 37.8765 27.5974C37.8612 27.618 37.8407 27.6387 37.8254 27.6594C37.8254 27.6645 37.8203 27.6697 37.8152 27.6749C37.7896 27.7059 37.764 27.7369 37.7385 27.7679C37.7231 27.7885 37.7078 27.804 37.6924 27.8247C37.6771 27.8402 37.6618 27.8609 37.6464 27.8815C37.6208 27.9125 37.5953 27.9435 37.5697 27.9745C37.5544 27.99 37.539 28.0055 37.5288 28.021C37.5493 28.0468 37.5748 28.0675 37.5953 28.0933C37.7282 28.2328 37.8612 28.3775 37.989 28.517C38.1066 28.6461 38.2294 28.7753 38.347 28.9044C38.9657 29.5709 39.5947 30.227 40.2186 30.8934C40.4333 31.1414 40.6532 31.3842 40.8475 31.6477C40.9089 31.7407 40.9703 31.8337 41.0265 31.9319C41.0572 31.9887 41.0828 32.0507 41.1083 32.1075C40.6481 32.433 40.1777 32.7378 39.7123 33.0478C39.201 33.3991 38.6845 33.7452 38.1731 34.0965C37.6362 34.4633 37.0993 34.8353 36.5623 35.2021C36.1583 35.4759 35.7544 35.7497 35.3402 36.0029C34.885 35.1349 34.4248 34.267 33.9646 33.3991C33.8368 33.1563 33.714 32.9134 33.5862 32.6706C33.4379 32.3865 33.2947 32.1023 33.1464 31.813C33.1157 31.751 33.085 31.689 33.0544 31.627C33.0339 31.6374 33.0135 31.6529 32.993 31.6632C32.8447 31.7407 32.6913 31.8182 32.543 31.8905C32.5174 31.9009 32.4919 31.9164 32.4612 31.9267C32.3078 31.999 32.1544 32.0662 31.9958 32.1333C31.9191 32.1643 31.8424 32.1953 31.7657 32.2263C31.4027 32.3607 31.0345 32.4795 30.6612 32.5725C30.4362 32.6293 30.2163 32.681 29.9913 32.7378C29.8072 32.774 29.6282 32.805 29.4441 32.8411C29.2958 32.8669 29.1424 32.9031 28.989 32.9238C28.6464 32.9703 28.3038 33.0168 27.9612 33.0633C27.6441 33.0891 27.3271 33.1201 27.0049 33.1459C26.8771 33.1563 26.7493 33.1666 26.6214 33.1718C26.5652 33.1718 26.5089 33.1718 26.4527 33.1769C26.3708 33.1769 26.2839 33.1821 26.2021 33.1873C25.9618 33.1976 25.7163 33.2028 25.476 33.2079C25.4606 33.5902 25.4453 33.9725 25.4299 34.3548C25.4146 34.6441 25.4044 34.9334 25.3839 35.2228C25.3583 35.6826 25.3277 36.1372 25.2868 36.5918C25.2458 37.0568 25.1947 37.5114 25.1282 37.9712C25.1027 38.1262 25.0669 38.2812 25.0311 38.4362C25.0055 38.5188 24.9799 38.5963 24.9441 38.6738C24.9339 38.6893 24.9288 38.7048 24.9186 38.7203C24.8879 38.7203 24.8572 38.7203 24.8265 38.7203C23.7936 38.6738 22.7657 38.5911 21.743 38.4517C21.3595 38.3897 20.9811 38.3225 20.6027 38.2398C20.2396 38.1572 19.8868 38.0642 19.5339 37.9609C18.997 37.7852 18.4703 37.5992 17.9487 37.3874C17.9129 37.3719 17.872 37.3512 17.8362 37.3306C17.8771 37.0981 17.9282 36.8656 17.9896 36.6331C18.1993 35.9512 18.4191 35.2693 18.6697 34.6028C18.9254 33.9157 19.1964 33.2389 19.4828 32.5621C19.5032 32.5156 19.5237 32.464 19.5441 32.4175C19.4316 32.371 19.3191 32.3245 19.2066 32.278C19.0686 32.216 18.9356 32.154 18.8027 32.0868C18.7413 32.0558 18.6799 32.0249 18.6237 31.9939C18.2402 31.8027 17.8669 31.5961 17.5038 31.3739C17.0129 31.0691 16.5424 30.7385 16.0924 30.3768C15.6885 30.041 15.31 29.6794 14.9521 29.2919C14.676 28.9923 14.4152 28.6771 14.1646 28.3568C14.1237 28.3052 14.0879 28.2587 14.047 28.207C13.96 28.0882 13.8731 27.9745 13.7862 27.8557C13.7095 27.7472 13.6379 27.6387 13.5612 27.5302C13.0498 27.7472 12.5385 27.9642 12.0271 28.176C11.526 28.3826 11.0248 28.5945 10.5237 28.8011C10.0941 28.9819 9.66459 29.1679 9.22993 29.3332C9.01005 29.4159 8.79016 29.4882 8.56516 29.5502C8.47823 29.5709 8.38618 29.5864 8.29925 29.6019C8.14584 29.1214 7.99755 28.6358 7.83903 28.1553C7.66005 27.6025 7.47596 27.0549 7.29698 26.5021C6.92369 25.3501 6.55039 24.198 6.27425 23.0201C6.20778 22.7256 6.15153 22.426 6.11573 22.1263C6.1055 22.0075 6.10039 21.8835 6.10039 21.7647C6.10039 21.7234 6.1055 21.6769 6.11062 21.6355C6.11573 21.6045 6.12084 21.5684 6.13107 21.5374C6.13107 21.527 6.13618 21.5167 6.1413 21.5064C6.1413 21.5064 6.1413 21.496 6.15153 21.4909C6.90323 21.3462 7.66516 21.2532 8.42709 21.1654C9.17368 21.0931 9.92028 21.0466 10.672 21.0052C10.8919 20.9949 11.1169 20.9846 11.3368 20.9742C11.3214 20.8606 11.3112 20.7521 11.301 20.6384C11.2856 20.499 11.2754 20.3543 11.2703 20.2096C11.2703 20.1786 11.2703 20.1476 11.2703 20.1218C11.2652 20.0133 11.26 19.9048 11.2549 19.7912C11.2447 19.5225 11.2447 19.2539 11.2498 18.9852C11.2652 18.4996 11.3112 18.014 11.3828 17.5335C11.4595 17.0789 11.5566 16.6294 11.6794 16.1903C11.8379 15.6478 12.0271 15.1106 12.247 14.5888C12.4515 14.129 12.6868 13.6847 12.9424 13.2559C13.0498 13.0802 13.1572 12.9097 13.2697 12.7444C13.3515 12.6204 13.4385 12.4964 13.5254 12.3724C13.5561 12.3259 13.5868 12.2846 13.6174 12.2381C13.7248 12.0935 13.8322 11.9436 13.9447 11.8042C13.6788 11.4993 13.4129 11.1945 13.147 10.8846C12.3493 9.95464 11.5771 9.00405 10.851 8.01213C10.6873 7.76932 10.5288 7.52651 10.3907 7.26819C10.3498 7.1907 10.314 7.10804 10.2833 7.02538C10.585 6.76707 10.8919 6.51392 11.1936 6.26077C11.5618 5.95597 11.9248 5.64599 12.293 5.34635C12.7072 5.01054 13.1214 4.6799 13.5458 4.3596C13.9191 4.07545 14.2975 3.80681 14.6708 3.533C15.2998 3.08353 15.9186 2.6134 16.5936 2.23627C16.66 2.2001 16.7316 2.17427 16.7981 2.14328C16.8135 2.14328 16.8237 2.13294 16.839 2.13294C16.8493 2.13811 16.8595 2.14328 16.8748 2.14844C16.885 2.15877 16.8902 2.16911 16.9004 2.17944C17.0436 2.39126 17.1663 2.6134 17.2941 2.83039C17.4424 3.0887 17.5907 3.35218 17.7339 3.61566C18.0305 4.14778 18.3271 4.6799 18.6237 5.21719C18.8896 5.69765 19.1453 6.17811 19.4061 6.66374C19.447 6.7464 19.493 6.8239 19.539 6.90656C19.6873 7.18553 19.8407 7.45934 19.989 7.73316C20.168 7.67116 20.347 7.6195 20.5311 7.56267C20.5515 7.5575 20.572 7.55234 20.5924 7.542C20.7663 7.49034 20.9453 7.44385 21.1191 7.39735C21.1754 7.38185 21.2316 7.36635 21.2879 7.35602C21.6765 7.27336 22.0652 7.1907 22.4589 7.10804C22.6328 7.07188 22.8118 7.05638 22.9856 7.03055C23.1748 7.00471 23.3589 6.97372 23.543 6.94789C23.8907 6.91689 24.2385 6.87556 24.5862 6.86523C24.7907 6.86006 24.9953 6.84456 25.1947 6.84456C25.3635 6.84456 25.5322 6.84456 25.7061 6.84973C25.8441 6.85489 25.9873 6.86523 26.1254 6.87039C26.1868 6.90139 26.2583 6.92205 26.335 6.93239C27.0049 6.99438 27.6748 7.06671 28.3447 7.1597C28.6208 7.2062 28.9021 7.25269 29.1731 7.31469C29.4646 7.38185 29.751 7.45934 30.0373 7.542C30.3135 7.62466 30.5896 7.70732 30.8606 7.79515C30.9169 7.61433 30.9731 7.42835 31.0243 7.24236C31.0805 7.04088 31.1368 6.83939 31.193 6.63791C31.2799 6.3176 31.3669 5.9973 31.4487 5.67182C31.7044 4.68507 31.9652 3.69832 32.2464 2.71673C32.2669 2.65473 32.2822 2.58757 32.3027 2.52558C32.5123 2.60824 32.722 2.70123 32.9316 2.78906C33.2231 2.91305 33.5197 3.03704 33.8112 3.16619C34.1436 3.31601 34.476 3.46067 34.7981 3.62599C35.1919 3.82747 35.5805 4.03412 35.9691 4.24594C36.6339 4.61791 37.2885 5.01054 37.943 5.40834C38.076 5.491 38.2038 5.57366 38.3316 5.66666C38.3163 5.72865 38.301 5.79065 38.2856 5.85781C38.1066 6.4106 37.8714 6.94789 37.6464 7.48518C37.4419 7.9708 37.2373 8.45126 37.0328 8.93689C36.91 9.23137 36.7873 9.52068 36.6697 9.81515C36.6595 9.84099 36.6441 9.87198 36.6339 9.89781C36.4856 10.2543 36.3373 10.6108 36.189 10.9672C36.3066 11.0654 36.4191 11.1635 36.5368 11.2669C36.7106 11.427 36.8845 11.5872 37.0532 11.7473C37.1299 11.8197 37.2066 11.892 37.2833 11.9643C37.3703 12.0573 37.4572 12.1503 37.5441 12.2433C37.6311 12.3363 37.7078 12.4396 37.7896 12.5378C37.9583 12.7444 38.1118 12.9511 38.2703 13.1629C38.3674 13.2972 38.4595 13.4367 38.5566 13.571C38.6436 13.695 38.7203 13.8293 38.8021 13.9636C38.9657 14.2375 39.1191 14.5164 39.2674 14.8006C39.339 14.9556 39.4157 15.1054 39.4873 15.2604C39.518 15.3327 39.5538 15.3999 39.5794 15.4722C39.6765 15.7047 39.7737 15.9372 39.8657 16.1696C39.8964 16.2575 39.9271 16.3453 39.9578 16.4331C40.1419 16.428 40.3311 16.4176 40.5152 16.4073C41.768 16.3505 43.0208 16.2988 44.2737 16.2368C44.8924 16.2058 45.5061 16.1696 46.1248 16.1386C46.4265 16.1231 46.7282 16.1076 47.0299 16.0921C47.0708 16.0921 47.1118 16.0921 47.1527 16.087C47.1373 16.2006 47.1271 16.3143 47.1169 16.4279H47.1271Z" stroke="#8B75F3" stroke-width="1.2" mask="url(#path-2-outside-2_4086_9156)"></path></g></g><g id="Group_2"><g id="Vector_3"><mask id="path-3-outside-3_4086_9156" maskUnits="userSpaceOnUse" x="-0.999023" y="3.13281" width="7" height="11" fill="black"><rect fill="white" x="-0.999023" y="3.13281" width="7" height="11"></rect><path d="M0.393973 12.6006C0.0922681 12.4921 -0.0764819 12.1357 0.0360181 11.8308C0.209882 11.3814 0.393973 10.9371 0.588291 10.498C0.578064 10.5238 0.567836 10.5444 0.557609 10.5703C0.603632 10.467 0.649655 10.3585 0.695677 10.2551C0.695677 10.2603 0.690564 10.2706 0.68545 10.2758C1.09454 9.33555 1.52409 8.40562 1.96386 7.48086C2.18375 7.0159 2.44454 6.57677 2.70534 6.13247C2.83318 5.91549 2.97125 5.70368 3.1042 5.48669C3.19113 5.3472 3.28318 5.20772 3.37522 5.07339C3.54909 4.81508 3.73318 4.54127 3.95818 4.32429C4.07579 4.21063 4.20875 4.1383 4.37238 4.13314C4.5309 4.12797 4.68431 4.1848 4.79681 4.29329C5.02181 4.50511 5.06272 4.91841 4.8275 5.14055C4.76613 5.19738 4.715 5.25938 4.65875 5.32654C4.3417 5.73984 4.07068 6.18414 3.78943 6.62843C3.61045 6.92808 3.43659 7.23288 3.27295 7.54286C3.07352 7.92 2.88943 8.3023 2.70534 8.68977C2.37806 9.37171 2.07636 10.064 1.76954 10.7563C1.7542 10.7873 1.73886 10.8234 1.72863 10.8544C1.73886 10.8286 1.74909 10.8079 1.75931 10.7821C1.7184 10.8751 1.6775 10.9732 1.63659 11.0662C1.46784 11.4589 1.3042 11.8515 1.15079 12.2493C1.05875 12.4921 0.828632 12.6419 0.588291 12.6419C0.521814 12.6419 0.455336 12.6316 0.388859 12.6058L0.393973 12.6006Z"></path></mask><path d="M0.393973 12.6006C0.0922681 12.4921 -0.0764819 12.1357 0.0360181 11.8308C0.209882 11.3814 0.393973 10.9371 0.588291 10.498C0.578064 10.5238 0.567836 10.5444 0.557609 10.5703C0.603632 10.467 0.649655 10.3585 0.695677 10.2551C0.695677 10.2603 0.690564 10.2706 0.68545 10.2758C1.09454 9.33555 1.52409 8.40562 1.96386 7.48086C2.18375 7.0159 2.44454 6.57677 2.70534 6.13247C2.83318 5.91549 2.97125 5.70368 3.1042 5.48669C3.19113 5.3472 3.28318 5.20772 3.37522 5.07339C3.54909 4.81508 3.73318 4.54127 3.95818 4.32429C4.07579 4.21063 4.20875 4.1383 4.37238 4.13314C4.5309 4.12797 4.68431 4.1848 4.79681 4.29329C5.02181 4.50511 5.06272 4.91841 4.8275 5.14055C4.76613 5.19738 4.715 5.25938 4.65875 5.32654C4.3417 5.73984 4.07068 6.18414 3.78943 6.62843C3.61045 6.92808 3.43659 7.23288 3.27295 7.54286C3.07352 7.92 2.88943 8.3023 2.70534 8.68977C2.37806 9.37171 2.07636 10.064 1.76954 10.7563C1.7542 10.7873 1.73886 10.8234 1.72863 10.8544C1.73886 10.8286 1.74909 10.8079 1.75931 10.7821C1.7184 10.8751 1.6775 10.9732 1.63659 11.0662C1.46784 11.4589 1.3042 11.8515 1.15079 12.2493C1.05875 12.4921 0.828632 12.6419 0.588291 12.6419C0.521814 12.6419 0.455336 12.6316 0.388859 12.6058L0.393973 12.6006Z" fill="#8B75F3"></path><path d="M0.393973 12.6006C0.0922681 12.4921 -0.0764819 12.1357 0.0360181 11.8308C0.209882 11.3814 0.393973 10.9371 0.588291 10.498C0.578064 10.5238 0.567836 10.5444 0.557609 10.5703C0.603632 10.467 0.649655 10.3585 0.695677 10.2551C0.695677 10.2603 0.690564 10.2706 0.68545 10.2758C1.09454 9.33555 1.52409 8.40562 1.96386 7.48086C2.18375 7.0159 2.44454 6.57677 2.70534 6.13247C2.83318 5.91549 2.97125 5.70368 3.1042 5.48669C3.19113 5.3472 3.28318 5.20772 3.37522 5.07339C3.54909 4.81508 3.73318 4.54127 3.95818 4.32429C4.07579 4.21063 4.20875 4.1383 4.37238 4.13314C4.5309 4.12797 4.68431 4.1848 4.79681 4.29329C5.02181 4.50511 5.06272 4.91841 4.8275 5.14055C4.76613 5.19738 4.715 5.25938 4.65875 5.32654C4.3417 5.73984 4.07068 6.18414 3.78943 6.62843C3.61045 6.92808 3.43659 7.23288 3.27295 7.54286C3.07352 7.92 2.88943 8.3023 2.70534 8.68977C2.37806 9.37171 2.07636 10.064 1.76954 10.7563C1.7542 10.7873 1.73886 10.8234 1.72863 10.8544C1.73886 10.8286 1.74909 10.8079 1.75931 10.7821C1.7184 10.8751 1.6775 10.9732 1.63659 11.0662C1.46784 11.4589 1.3042 11.8515 1.15079 12.2493C1.05875 12.4921 0.828632 12.6419 0.588291 12.6419C0.521814 12.6419 0.455336 12.6316 0.388859 12.6058L0.393973 12.6006Z" stroke="#8B75F3" stroke-width="1.2" mask="url(#path-3-outside-3_4086_9156)"></path></g><g id="Vector_4"><mask id="path-4-outside-4_4086_9156" maskUnits="userSpaceOnUse" x="1.34668" y="8.78906" width="5" height="8" fill="black"><rect fill="white" x="1.34668" y="8.78906" width="5" height="8"></rect><path d="M2.73619 15.1066C2.42937 14.993 2.27596 14.6469 2.37823 14.3369C2.60835 13.6653 2.84869 12.9937 3.08903 12.3272C3.21176 11.9811 3.3396 11.6401 3.46232 11.294C3.52369 11.1235 3.58505 10.953 3.65153 10.7877C3.74869 10.5345 3.84073 10.2607 4.00948 10.0437C4.2038 9.78025 4.56687 9.70275 4.83789 9.89907C5.09869 10.0851 5.18051 10.4725 4.98107 10.736C4.97596 10.7463 4.96573 10.7515 4.96062 10.7618C4.92482 10.8238 4.89414 10.8858 4.86857 10.9478C4.73051 11.2733 4.61289 11.6143 4.49528 11.9449C4.38278 12.2497 4.27539 12.5545 4.16289 12.8593C3.93789 13.4844 3.71289 14.1147 3.49812 14.745C3.4163 14.9878 3.17596 15.1376 2.93562 15.1376C2.86914 15.1376 2.80266 15.1273 2.73619 15.1015V15.1066Z"></path></mask><path d="M2.73619 15.1066C2.42937 14.993 2.27596 14.6469 2.37823 14.3369C2.60835 13.6653 2.84869 12.9937 3.08903 12.3272C3.21176 11.9811 3.3396 11.6401 3.46232 11.294C3.52369 11.1235 3.58505 10.953 3.65153 10.7877C3.74869 10.5345 3.84073 10.2607 4.00948 10.0437C4.2038 9.78025 4.56687 9.70275 4.83789 9.89907C5.09869 10.0851 5.18051 10.4725 4.98107 10.736C4.97596 10.7463 4.96573 10.7515 4.96062 10.7618C4.92482 10.8238 4.89414 10.8858 4.86857 10.9478C4.73051 11.2733 4.61289 11.6143 4.49528 11.9449C4.38278 12.2497 4.27539 12.5545 4.16289 12.8593C3.93789 13.4844 3.71289 14.1147 3.49812 14.745C3.4163 14.9878 3.17596 15.1376 2.93562 15.1376C2.86914 15.1376 2.80266 15.1273 2.73619 15.1015V15.1066Z" fill="#8B75F3"></path><path d="M2.73619 15.1066C2.42937 14.993 2.27596 14.6469 2.37823 14.3369C2.60835 13.6653 2.84869 12.9937 3.08903 12.3272C3.21176 11.9811 3.3396 11.6401 3.46232 11.294C3.52369 11.1235 3.58505 10.953 3.65153 10.7877C3.74869 10.5345 3.84073 10.2607 4.00948 10.0437C4.2038 9.78025 4.56687 9.70275 4.83789 9.89907C5.09869 10.0851 5.18051 10.4725 4.98107 10.736C4.97596 10.7463 4.96573 10.7515 4.96062 10.7618C4.92482 10.8238 4.89414 10.8858 4.86857 10.9478C4.73051 11.2733 4.61289 11.6143 4.49528 11.9449C4.38278 12.2497 4.27539 12.5545 4.16289 12.8593C3.93789 13.4844 3.71289 14.1147 3.49812 14.745C3.4163 14.9878 3.17596 15.1376 2.93562 15.1376C2.86914 15.1376 2.80266 15.1273 2.73619 15.1015V15.1066Z" stroke="#8B75F3" stroke-width="1.2" mask="url(#path-4-outside-4_4086_9156)"></path></g></g><g id="Group_3"><g id="Vector_5"><mask id="path-5-outside-5_4086_9156" maskUnits="userSpaceOnUse" x="46.9653" y="4.93555" width="6" height="8" fill="black"><rect fill="white" x="46.9653" y="4.93555" width="6" height="8"></rect><path d="M50.3283 11.7743C50.0062 11.0148 49.6687 10.2657 49.3363 9.51146C49.0039 8.76235 48.6715 8.01841 48.3136 7.2848C48.2369 7.14531 48.1602 7.01099 48.0732 6.88184C48.0732 6.88184 48.0732 6.88183 48.0732 6.887C47.9045 6.62869 47.9301 6.27738 48.1755 6.07073C48.4158 5.86925 48.8198 5.88992 49.0141 6.15339C49.1369 6.32388 49.2391 6.5047 49.3414 6.68552C49.4028 6.79918 49.4539 6.91283 49.5102 7.02649C49.5562 7.12465 49.6073 7.22281 49.6533 7.32097C49.863 7.78076 50.0675 8.23539 50.2721 8.69519C50.6556 9.55278 51.0391 10.4052 51.4073 11.2731C51.5352 11.5728 51.4073 11.9293 51.1107 12.0687C51.034 12.1049 50.9522 12.1204 50.8704 12.1204C50.6403 12.1204 50.4153 11.9913 50.3232 11.7691L50.3283 11.7743Z"></path></mask><path d="M50.3283 11.7743C50.0062 11.0148 49.6687 10.2657 49.3363 9.51146C49.0039 8.76235 48.6715 8.01841 48.3136 7.2848C48.2369 7.14531 48.1602 7.01099 48.0732 6.88184C48.0732 6.88184 48.0732 6.88183 48.0732 6.887C47.9045 6.62869 47.9301 6.27738 48.1755 6.07073C48.4158 5.86925 48.8198 5.88992 49.0141 6.15339C49.1369 6.32388 49.2391 6.5047 49.3414 6.68552C49.4028 6.79918 49.4539 6.91283 49.5102 7.02649C49.5562 7.12465 49.6073 7.22281 49.6533 7.32097C49.863 7.78076 50.0675 8.23539 50.2721 8.69519C50.6556 9.55278 51.0391 10.4052 51.4073 11.2731C51.5352 11.5728 51.4073 11.9293 51.1107 12.0687C51.034 12.1049 50.9522 12.1204 50.8704 12.1204C50.6403 12.1204 50.4153 11.9913 50.3232 11.7691L50.3283 11.7743Z" fill="#8B75F3"></path><path d="M50.3283 11.7743C50.0062 11.0148 49.6687 10.2657 49.3363 9.51146C49.0039 8.76235 48.6715 8.01841 48.3136 7.2848C48.2369 7.14531 48.1602 7.01099 48.0732 6.88184C48.0732 6.88184 48.0732 6.88183 48.0732 6.887C47.9045 6.62869 47.9301 6.27738 48.1755 6.07073C48.4158 5.86925 48.8198 5.88992 49.0141 6.15339C49.1369 6.32388 49.2391 6.5047 49.3414 6.68552C49.4028 6.79918 49.4539 6.91283 49.5102 7.02649C49.5562 7.12465 49.6073 7.22281 49.6533 7.32097C49.863 7.78076 50.0675 8.23539 50.2721 8.69519C50.6556 9.55278 51.0391 10.4052 51.4073 11.2731C51.5352 11.5728 51.4073 11.9293 51.1107 12.0687C51.034 12.1049 50.9522 12.1204 50.8704 12.1204C50.6403 12.1204 50.4153 11.9913 50.3232 11.7691L50.3283 11.7743Z" stroke="#8B75F3" stroke-width="1.2" mask="url(#path-5-outside-5_4086_9156)"></path></g><g id="Vector_6"><mask id="path-6-outside-6_4086_9156" maskUnits="userSpaceOnUse" x="50.4448" y="4.77539" width="5" height="7" fill="black"><rect fill="white" x="50.4448" y="4.77539" width="5" height="7"></rect><path d="M53.1255 10.596C52.9772 10.5185 52.8851 10.3893 52.8289 10.2343C52.5323 9.39222 52.2255 8.56045 51.9187 7.72352C51.7806 7.35671 51.6425 6.98474 51.4942 6.62311C51.3664 6.32347 51.4942 5.96699 51.7908 5.8275C52.0823 5.69318 52.4505 5.82751 52.5783 6.12715C52.8442 6.75743 53.0692 7.40838 53.3044 8.04899C53.5294 8.65861 53.7493 9.26823 53.9641 9.88301C54.0715 10.193 53.8669 10.5391 53.5652 10.6321C53.509 10.6476 53.4527 10.6579 53.3965 10.6579C53.2993 10.6579 53.2073 10.6373 53.1204 10.5908L53.1255 10.596Z"></path></mask><path d="M53.1255 10.596C52.9772 10.5185 52.8851 10.3893 52.8289 10.2343C52.5323 9.39222 52.2255 8.56045 51.9187 7.72352C51.7806 7.35671 51.6425 6.98474 51.4942 6.62311C51.3664 6.32347 51.4942 5.96699 51.7908 5.8275C52.0823 5.69318 52.4505 5.82751 52.5783 6.12715C52.8442 6.75743 53.0692 7.40838 53.3044 8.04899C53.5294 8.65861 53.7493 9.26823 53.9641 9.88301C54.0715 10.193 53.8669 10.5391 53.5652 10.6321C53.509 10.6476 53.4527 10.6579 53.3965 10.6579C53.2993 10.6579 53.2073 10.6373 53.1204 10.5908L53.1255 10.596Z" fill="#8B75F3"></path><path d="M53.1255 10.596C52.9772 10.5185 52.8851 10.3893 52.8289 10.2343C52.5323 9.39222 52.2255 8.56045 51.9187 7.72352C51.7806 7.35671 51.6425 6.98474 51.4942 6.62311C51.3664 6.32347 51.4942 5.96699 51.7908 5.8275C52.0823 5.69318 52.4505 5.82751 52.5783 6.12715C52.8442 6.75743 53.0692 7.40838 53.3044 8.04899C53.5294 8.65861 53.7493 9.26823 53.9641 9.88301C54.0715 10.193 53.8669 10.5391 53.5652 10.6321C53.509 10.6476 53.4527 10.6579 53.3965 10.6579C53.2993 10.6579 53.2073 10.6373 53.1204 10.5908L53.1255 10.596Z" stroke="#8B75F3" stroke-width="1.2" mask="url(#path-6-outside-6_4086_9156)"></path></g></g></g><defs><clipPath id="clip0_4086_9156"><rect width="54" height="39" fill="white" transform="translate(0 0.929688)"></rect></clipPath></defs></svg>