<svg xmlns="http://www.w3.org/2000/svg" width="45" height="31" viewBox="0 0 45 31" fill="none"><path d="M5.67334 15.5474L5.91725 15.4926C5.81345 15.0309 5.39185 14.8693 5.05691 14.9243C4.88819 14.9519 4.71821 15.0355 4.60132 15.1829C4.47946 15.3366 4.43243 15.5386 4.48199 15.7593L4.4821 15.7598C4.79 17.1175 5.09698 18.4745 5.40397 19.8316L5.40409 19.8322C5.71112 21.1894 6.01816 22.5467 6.32614 23.9047C6.43011 24.3661 6.85155 24.5276 7.18638 24.4726C7.35509 24.4449 7.52507 24.3613 7.64196 24.2139C7.76383 24.0603 7.81086 23.8583 7.7613 23.6375L7.76118 23.637C7.45325 22.2792 7.14623 20.922 6.8392 19.5647L6.83919 19.5647C6.53217 18.2074 6.22512 16.8501 5.91715 15.4921L5.67334 15.5474ZM5.67334 15.5474C5.53729 14.9423 4.58934 15.0962 4.72591 15.7045L5.67334 15.5474Z" fill="#D7FF65" stroke="#D7FF65" stroke-width="0.5" stroke-linejoin="round"></path><path d="M13.8095 22.0194L13.8097 22.0193L14.0191 23.2185L14.0705 23.4632L14.0703 23.4633L8.05282 24.726L8.05262 24.7261C7.83103 24.7724 7.63008 24.7207 7.47843 24.5973C7.33297 24.4789 7.24972 24.3088 7.22172 24.1399C7.16622 23.8053 7.32501 23.3799 7.79183 23.2822C7.79186 23.2822 7.79188 23.2822 7.79191 23.2822C7.79195 23.2822 7.79198 23.2822 7.79201 23.2822L13.8095 22.0194Z" fill="#D7FF65" stroke="#D7FF65" stroke-width="0.5" stroke-linejoin="round"></path><path d="M13.3604 22.839L13.3604 22.8395C13.3731 23.065 13.4736 23.2469 13.6383 23.3574C13.7951 23.4627 13.9837 23.4858 14.1513 23.4574C14.4823 23.4014 14.8326 23.1186 14.8071 22.6548L13.3604 22.839ZM13.3604 22.839C13.2024 19.9242 12.6812 17.0347 11.7889 14.2561L11.7888 14.256M13.3604 22.839L11.7888 14.256M11.7888 14.256C11.6475 13.8152 11.9118 13.451 12.2148 13.3091M11.7888 14.256L12.2148 13.3091M12.2148 13.3091C12.3684 13.2372 12.5562 13.2086 12.7351 13.2689M12.2148 13.3091L12.7351 13.2689M12.7351 13.2689C12.9235 13.3324 13.0667 13.4827 13.1354 13.6973M12.7351 13.2689L13.1354 13.6973M13.1354 13.6973C14.0682 16.6033 14.641 19.603 14.8071 22.6547L13.1354 13.6973Z" fill="#D7FF65" stroke="#D7FF65" stroke-width="0.5" stroke-linejoin="round"></path><path d="M4.52327 14.8807C4.52966 14.6963 4.61285 14.5205 4.7738 14.3858C4.78174 14.3779 4.7903 14.3703 4.79946 14.3633C6.87451 12.7793 9.56136 12.25 12.0837 12.8921L12.0837 12.8921L12.0846 12.8923C12.31 12.9506 12.4507 13.1239 12.5189 13.2949C12.5864 13.4641 12.5992 13.667 12.536 13.8429L12.536 13.8429L12.5354 13.8444C12.3774 14.2752 11.9458 14.3617 11.6208 14.28L11.6204 14.2799C9.59895 13.7673 7.37352 14.24 5.71974 15.5051L5.71952 15.5052C5.33999 15.7949 4.91478 15.6372 4.69869 15.3749C4.58987 15.2427 4.51677 15.0681 4.52327 14.8807Z" fill="#D7FF65" stroke="#D7FF65" stroke-width="0.5" stroke-linejoin="round"></path><path d="M24.9238 5.51224L24.9242 5.51196C26.005 4.66715 27.0698 3.80196 28.1367 2.93503L28.1367 2.935C28.3122 2.79245 28.5142 2.74574 28.7048 2.77975C28.8888 2.81257 29.0461 2.91717 29.1554 3.04944C29.2646 3.18165 29.3378 3.35615 29.3336 3.54352C29.3292 3.73796 29.2414 3.92583 29.0654 4.06819C29.0375 4.0908 29.0096 4.11341 28.9817 4.13602C25.1652 7.23052 21.2749 10.3849 16.8478 12.6377C15.6023 13.2726 14.3184 13.8221 12.993 14.2663L12.9929 14.2664C12.5513 14.4141 12.1878 14.145 12.0472 13.8417C11.9758 13.6876 11.9475 13.4998 12.0059 13.3208C12.0674 13.1323 12.215 12.9861 12.4293 12.9145C12.4429 12.91 12.4567 12.9067 12.4706 12.9046C17.0659 11.3564 21.1016 8.51091 24.9238 5.51224Z" fill="#D7FF65" stroke="#D7FF65" stroke-width="0.5" stroke-linejoin="round"></path><path d="M14.458 22.3564C14.4614 22.3559 14.4648 22.3555 14.4682 22.3551C20.5911 21.6954 26.72 22.9248 32.6165 24.3139L32.6165 24.3139C33.0658 24.4198 33.2402 24.8365 33.2074 25.1682C33.1907 25.337 33.1198 25.5137 32.9765 25.6373C32.8253 25.7676 32.6222 25.8137 32.402 25.7621L32.4016 25.762C26.5991 24.3931 20.6104 23.167 14.677 23.8072L14.6768 23.8073C14.2057 23.8577 13.9199 23.5052 13.8641 23.1721C13.8359 23.0036 13.8592 22.8155 13.9596 22.6567C14.0635 22.4926 14.2363 22.3821 14.458 22.3564ZM32.459 25.5187C26.6572 24.15 20.6307 22.9134 14.6501 23.5587L32.5592 24.5573C33.1535 24.6973 33.0634 25.6603 32.459 25.5187Z" fill="#D7FF65" stroke="#D7FF65" stroke-width="0.5" stroke-linejoin="round"></path><path d="M29.2802 3.05139L29.2801 3.05113C29.1631 2.59752 28.7406 2.44054 28.4078 2.49516C28.2397 2.52276 28.0693 2.60596 27.9539 2.75493C27.8331 2.91088 27.7922 3.11428 27.8485 3.33305M29.2802 3.05139L32.5804 19.9519C32.8962 21.5243 33.2433 23.09 33.6431 24.6428C33.6994 24.8616 33.6585 25.065 33.5377 25.2209C33.4224 25.3699 33.252 25.4531 33.0838 25.4807C32.751 25.5353 32.3285 25.3783 32.2115 24.9247L32.2114 24.9245C31.2944 21.3544 30.6582 17.7174 30.0238 14.0908C29.6687 12.0607 29.3141 10.0339 28.9112 8.02402C28.5954 6.45165 28.2484 4.88588 27.8485 3.33305M29.2802 3.05139C30.1972 6.62142 30.8334 10.2585 31.4678 13.885C31.8229 15.9151 32.1775 17.9419 32.5804 19.9518L32.3353 20.0011M29.2802 3.05139L29.1563 7.97479C28.8399 6.39924 28.4918 4.82893 28.0906 3.27071M27.8485 3.33305L28.0906 3.27071M27.8485 3.33305L28.0906 3.27071M28.0906 3.27071C27.9356 2.66874 28.8836 2.51479 29.0381 3.11358C29.953 6.67562 30.5858 10.2938 31.2187 13.9128C31.5742 15.9453 31.9297 17.9779 32.3353 20.0011M32.3353 20.0011C32.6517 21.5766 32.9998 23.1469 33.401 24.7052C33.556 25.3071 32.608 25.4611 32.4535 24.8623L32.3353 20.0011Z" fill="#D7FF65" stroke="#D7FF65" stroke-width="0.5" stroke-linejoin="round"></path><path d="M6.34132 22.4944C6.60346 22.4902 6.79255 22.789 6.77054 23.028L5.41987 15.2165C6.02621 15.0963 6.18451 16.0508 5.57816 16.171L5.575 16.1715C4.02861 16.4737 2.80119 18.0732 3.00133 19.6713C3.20147 21.2694 4.73429 22.5288 6.34132 22.4944ZM5.37152 14.9712C5.59343 14.9273 5.79366 14.981 5.94437 15.1048C6.08915 15.2238 6.17239 15.3938 6.20041 15.5627C6.22847 15.7319 6.20443 15.9191 6.11045 16.0802C6.01324 16.2469 5.84836 16.3723 5.62677 16.4162L5.62679 16.4163L5.61952 16.4175C4.19744 16.6975 3.06652 18.18 3.24939 19.6402C3.43279 21.1046 4.85021 22.2763 6.33597 22.2445L6.33728 22.2444C6.57113 22.2407 6.75291 22.3725 6.86318 22.5209C6.97242 22.668 7.03683 22.8626 7.01949 23.0509L7.01941 23.0518C6.99878 23.2679 6.89275 23.4375 6.74121 23.5492C6.59519 23.6569 6.41721 23.7044 6.24837 23.7089L6.24716 23.7089C4.07457 23.7564 2.00029 21.9481 1.79495 19.752C1.59006 17.561 3.19958 15.3975 5.37152 14.9712Z" fill="#D7FF65" stroke="#D7FF65" stroke-width="0.5" stroke-linejoin="round"></path><path d="M8.66895 17.2954C8.62119 17.0883 8.68544 16.8851 8.7924 16.7358C8.89937 16.5865 9.06986 16.4619 9.2759 16.4358L9.2759 16.4358L9.27804 16.4356C9.68182 16.3881 10.0169 16.6442 10.1039 17.0272L10.1039 17.0274L10.3352 19.1843L10.5787 19.1278C10.5788 19.128 10.5789 19.1283 10.5789 19.1285C10.6267 19.3356 10.5624 19.5389 10.4555 19.6881C10.3485 19.8374 10.178 19.9621 9.97196 19.9881L9.97196 19.9881L9.96981 19.9884C9.56604 20.0358 9.23097 19.7797 9.14398 19.3968L9.14393 19.3965L8.90636 18.3456L8.66895 17.2954ZM8.66895 17.2954C8.669 17.2957 8.66906 17.2959 8.66912 17.2962L8.91266 17.2397M8.66895 17.2954L8.66881 17.2948L8.91266 17.2397M8.91266 17.2397C8.85571 16.9941 9.05931 16.7152 9.30722 16.6839C9.57777 16.6521 9.79997 16.8179 9.86008 17.0825L8.91266 17.2397Z" fill="#D7FF65" stroke="#D7FF65" stroke-width="0.5" stroke-linejoin="round"></path><path d="M35.0369 17.9813C34.7254 17.8607 34.4351 17.5157 34.546 17.0665C35.1312 14.6807 34.7073 12.0176 33.0179 10.2216L33.0178 10.2215C32.863 10.0569 32.8012 9.85892 32.8284 9.66479C32.8545 9.47869 32.9586 9.32045 33.0898 9.21093C33.3431 8.99953 33.7711 8.92213 34.0929 9.235C34.1023 9.24247 34.1113 9.25069 34.1197 9.25965C36.2066 11.4761 36.6226 14.7031 35.9293 17.5301C35.8759 17.7495 35.7434 17.9097 35.5594 17.9861C35.3847 18.0585 35.1951 18.0426 35.0369 17.9813Z" fill="#D7FF65" stroke="#D7FF65" stroke-width="0.5" stroke-linejoin="round"></path><path d="M35.6847 6.81199C35.8627 6.7761 36.0449 6.82077 36.2033 6.94396C36.2199 6.95309 36.2356 6.96415 36.2499 6.97703C39.2048 9.63042 40.399 13.923 39.1996 17.7256C39.1315 17.9414 38.9888 18.0922 38.8057 18.163C38.6303 18.2308 38.4413 18.2166 38.2818 18.155C37.9657 18.0331 37.6819 17.6811 37.8252 17.2301C38.8226 14.0629 37.8276 10.3534 35.3558 8.13847L35.3555 8.13823C35.01 7.82777 35.0594 7.37952 35.2527 7.10587C35.3507 6.96712 35.4997 6.84931 35.6847 6.81199Z" fill="#D7FF65" stroke="#D7FF65" stroke-width="0.5" stroke-linejoin="round"></path><path d="M43.7127 15.7396L43.7127 15.7394C43.7596 11.4351 42.1106 7.12433 39.0658 4.06299C38.7363 3.73002 38.2916 3.81073 38.0327 4.02543C37.9015 4.13422 37.796 4.29216 37.7714 4.47918C37.7457 4.67511 37.8133 4.87156 37.9732 5.03177C41.5085 8.59208 43.0616 13.9978 41.8517 18.8915L43.7127 15.7396ZM43.7127 15.7396C43.6982 16.9664 43.5283 18.1706 43.2347 19.3565L43.2346 19.3566M43.7127 15.7396L43.2346 19.3566M43.2346 19.3566C43.1803 19.5757 43.0474 19.7357 42.8635 19.812M43.2346 19.3566L42.8635 19.812M42.8635 19.812C42.6888 19.8844 42.4993 19.8685 42.3411 19.8071M42.8635 19.812L42.3411 19.8071M42.3411 19.8071C42.0294 19.686 41.7406 19.3404 41.8517 18.8916L42.3411 19.8071Z" fill="#D7FF65" stroke="#D7FF65" stroke-width="0.5" stroke-linejoin="round"></path></svg>