<svg xmlns="http://www.w3.org/2000/svg" width="60" height="55" viewBox="0 0 60 55" fill="none"><g id="uuid-d061b89c-0522-49e0-817c-d8b839daadc8" clip-path="url(#clip0_4086_8787)"><path id="Vector" d="M0.825829 18.655C0.923389 23.8182 2.75264 27.8578 6.85504 31.0476C10.2257 33.6658 14.4794 34.9017 18.694 35.0531C22.8695 35.2045 27.3963 33.871 30.6548 31.2039C34.7475 27.8481 35.7377 23.3639 35.645 18.2495C35.5523 13.3111 34.1133 8.63147 30.5622 5.10956C27.4012 1.96867 22.9671 0.542323 18.5964 0.488591C14.0403 0.434859 9.56234 2.06637 6.13798 5.06072C2.32338 8.39212 0.918511 13.7751 0.825829 18.655C0.811195 19.3633 1.90875 19.3633 1.92338 18.655C2.01118 14.1366 3.24532 9.69635 6.38188 6.34541C9.31356 3.21917 13.6989 1.84655 17.8647 1.6072C22.0403 1.36296 26.0598 2.76488 29.2695 5.4173C32.8792 8.40189 34.2011 12.9007 34.5133 17.4143C34.8402 22.1476 34.0792 26.666 30.4402 29.9681C27.4646 32.6693 23.3086 33.827 19.3818 33.954C15.5964 34.0761 11.8501 32.9184 8.64039 30.9597C4.13312 28.2047 2.02094 23.8475 1.92338 18.655C1.90875 17.9467 0.811195 17.9467 0.825829 18.655Z" fill="#8B75F3"></path><path id="Vector_2" d="M24.9181 18.6542C25.0157 23.8174 26.8449 27.8571 30.9473 31.0468C34.318 33.6651 38.5716 34.9009 42.7862 35.0523C46.9618 35.2038 51.4886 33.8702 54.7471 31.2032C58.8398 27.8473 59.83 23.3631 59.7373 18.2488C59.6446 13.3103 58.2056 8.63073 54.6544 5.10882C51.4935 1.96793 47.0594 0.541582 42.6887 0.48785C38.1326 0.429233 33.6497 2.06562 30.2254 5.05509C26.4108 8.38649 25.0108 13.7695 24.9132 18.6493C24.8986 19.3576 25.9961 19.3576 26.0108 18.6493C26.0986 14.131 27.3327 9.69072 30.4693 6.33978C33.401 3.20866 37.7863 1.84093 41.9521 1.59669C46.1277 1.35245 50.1472 2.75437 53.3569 5.40679C56.9666 8.39137 58.2885 12.8902 58.6007 17.4037C58.9276 22.1371 58.1666 26.6555 54.5276 29.9575C51.552 32.6588 47.396 33.8165 43.4692 33.9435C39.6838 34.0656 35.9375 32.9079 32.7278 30.9491C28.2205 28.1941 26.1083 23.837 26.0108 18.6445C25.9961 17.9362 24.8986 17.9362 24.9132 18.6445L24.9181 18.6542Z" fill="#8B75F3"></path><path id="Vector_3" d="M13.338 37.8036C13.4356 42.9668 15.2648 47.0065 19.3672 50.1963C22.7379 52.8145 26.9916 54.0503 31.2062 54.2018C35.3817 54.3532 39.9085 53.0196 43.167 50.3526C47.2597 46.9967 48.2499 42.5125 48.1572 37.3982C48.0646 32.4597 46.6255 27.7801 43.0744 24.2582C39.9134 21.1222 35.4744 19.6959 31.1086 19.6373C26.5526 19.5786 22.0697 21.215 18.6453 24.2045C14.8307 27.5359 13.4307 32.9189 13.3332 37.7988C13.3185 38.507 14.4161 38.507 14.4307 37.7988C14.5185 33.2804 15.7526 28.8401 18.8892 25.4892C21.8209 22.3581 26.2062 20.9903 30.372 20.7461C34.5476 20.5019 38.5671 21.9038 41.7768 24.5562C45.3865 27.5408 46.7085 32.0396 47.0207 36.5532C47.3475 41.2865 46.5865 45.8049 42.9475 49.107C39.9719 51.8082 35.8159 52.9659 31.8891 53.0929C28.1038 53.215 24.3574 52.0573 21.1477 50.0986C16.6404 47.3436 14.5283 42.9864 14.4307 37.7939C14.4161 37.0856 13.3185 37.0856 13.3332 37.7939L13.338 37.8036Z" fill="#8B75F3"></path><path id="Vector_4" d="M31.3381 7.36688C29.2503 9.25727 27.3723 11.3382 25.704 13.6047C25.4211 13.9857 26.0601 14.3521 26.3381 13.9759C27.9723 11.7583 29.8162 9.7311 31.8601 7.88466C32.2113 7.56715 31.6942 7.04937 31.343 7.36688H31.3381Z" fill="#8B75F3"></path><path id="Vector_5" d="M32.3331 9.30546C29.8404 11.9237 27.421 14.6103 25.0698 17.3555C24.7624 17.7121 25.2795 18.2348 25.5868 17.8733C27.938 15.1232 30.3575 12.4415 32.8502 9.82324C33.177 9.48131 32.6599 8.96352 32.3331 9.30546Z" fill="#8B75F3"></path><path id="Vector_6" d="M33.3818 11.9672C30.5135 15.0544 27.6891 18.1855 24.9087 21.3509C24.5965 21.7026 25.1135 22.2252 25.4257 21.8686C28.2062 18.7033 31.0306 15.5722 33.8988 12.485C34.2208 12.1382 33.7037 11.6204 33.3818 11.9672Z" fill="#8B75F3"></path><path id="Vector_7" d="M34.1572 14.8309C31.3572 18.0842 28.4743 21.2592 25.5036 24.3562C25.1768 24.6981 25.6939 25.2159 26.0207 24.874C28.9865 21.7721 31.8743 18.5971 34.6743 15.3487C34.9816 14.9921 34.4645 14.4743 34.1572 14.8309Z" fill="#8B75F3"></path><path id="Vector_8" d="M34.4743 17.9516C32.1329 20.8824 29.7036 23.7351 27.1768 26.5097C26.8597 26.8565 27.3768 27.3791 27.6939 27.0274C30.2158 24.2529 32.6499 21.4002 34.9914 18.4694C35.284 18.103 34.767 17.5803 34.4743 17.9516Z" fill="#8B75F3"></path><path id="Vector_9" d="M34.5866 22.1779C32.6257 24.1806 30.7038 26.2175 28.8208 28.2936C28.5038 28.6404 29.0208 29.1631 29.3379 28.8114C31.2208 26.7353 33.1428 24.6984 35.1037 22.6956C35.4354 22.3586 34.9183 21.8408 34.5866 22.1779Z" fill="#8B75F3"></path><path id="Vector_10" d="M26.3868 21.1657C29.1819 24.9318 31.8941 28.7566 34.538 32.6302C34.8014 33.0161 35.4355 32.6497 35.1721 32.2589C32.5331 28.3805 29.8161 24.5606 27.021 20.7944C26.7429 20.4183 26.1088 20.7847 26.3868 21.1657Z" fill="#8B75F3"></path><path id="Vector_11" d="M28.772 20.9018C32.6792 25.3274 36.3329 29.9532 39.7182 34.7891C39.9865 35.175 40.6206 34.8087 40.3523 34.4179C36.928 29.5331 33.2402 24.8536 29.289 20.3791C28.9768 20.0225 28.4598 20.5452 28.772 20.8969V20.9018Z" fill="#8B75F3"></path><path id="Vector_12" d="M30.7868 20.6826C34.9283 24.9812 38.6795 29.6119 42.4111 34.2671C42.7087 34.6335 43.2209 34.1157 42.9282 33.7493C39.1965 29.099 35.4405 24.4634 31.3039 20.1648C30.9771 19.8229 30.46 20.3407 30.7868 20.6826Z" fill="#8B75F3"></path><path id="Vector_13" d="M33.7476 21.0775C38.172 24.9999 42.2012 29.3034 45.806 33.9976C46.089 34.3689 46.728 33.9976 46.4402 33.6264C42.7963 28.8833 38.7427 24.5261 34.2696 20.5597C33.9183 20.2471 33.3964 20.7648 33.7525 21.0775H33.7476Z" fill="#8B75F3"></path><path id="Vector_14" d="M38.1574 22.2445C40.6599 24.8236 43.1428 27.4223 45.6013 30.0357C45.9232 30.3776 46.4403 29.8598 46.1183 29.5179C43.655 26.9045 41.1721 24.3058 38.6745 21.7267C38.3477 21.3896 37.8306 21.9074 38.1574 22.2445Z" fill="#8B75F3"></path><path id="Vector_15" d="M16.2902 32.4277C16.7651 32.4277 16.7651 31.6924 16.2902 31.6924C15.8154 31.6924 15.8154 32.4277 16.2902 32.4277Z" fill="#8B75F3"></path><path id="Vector_16" d="M17.364 29.7412C17.8388 29.7412 17.8388 29.0059 17.364 29.0059C16.8891 29.0059 16.8891 29.7412 17.364 29.7412Z" fill="#8B75F3"></path><path id="Vector_17" d="M17.5002 31.8906C17.9751 31.8906 17.9751 31.1553 17.5002 31.1553C17.0253 31.1553 17.0253 31.8906 17.5002 31.8906Z" fill="#8B75F3"></path><path id="Vector_18" d="M20.2517 32.8281C20.7265 32.8281 20.7265 32.0928 20.2517 32.0928C19.7768 32.0928 19.7768 32.8281 20.2517 32.8281Z" fill="#8B75F3"></path><path id="Vector_19" d="M19.0417 33.2969C19.5166 33.2969 19.5166 32.5615 19.0417 32.5615C18.5668 32.5615 18.5668 33.2969 19.0417 33.2969Z" fill="#8B75F3"></path><path id="Vector_20" d="M21.4563 30.6104C21.9311 30.6104 21.9311 29.875 21.4563 29.875C20.9814 29.875 20.9814 30.6104 21.4563 30.6104Z" fill="#8B75F3"></path><path id="Vector_21" d="M19.3103 29.874C19.7851 29.874 19.7851 29.1387 19.3103 29.1387C18.8354 29.1387 18.8354 29.874 19.3103 29.874Z" fill="#8B75F3"></path><path id="Vector_22" d="M19.6467 26.5859C20.1216 26.5859 20.1216 25.8506 19.6467 25.8506C19.1718 25.8506 19.1718 26.5859 19.6467 26.5859Z" fill="#8B75F3"></path><path id="Vector_23" d="M18.7732 27.5234C19.248 27.5234 19.248 26.7881 18.7732 26.7881C18.2983 26.7881 18.2983 27.5234 18.7732 27.5234Z" fill="#8B75F3"></path><path id="Vector_24" d="M22.4616 28.3291C22.9365 28.3291 22.9365 27.5938 22.4616 27.5938C21.9867 27.5938 21.9867 28.3291 22.4616 28.3291Z" fill="#8B75F3"></path><path id="Vector_25" d="M21.6565 25.3057C22.1313 25.3057 22.1313 24.5703 21.6565 24.5703C21.1816 24.5703 21.1816 25.3057 21.6565 25.3057Z" fill="#8B75F3"></path><path id="Vector_26" d="M20.5832 27.8604C21.0581 27.8604 21.0581 27.125 20.5832 27.125C20.1083 27.125 20.1083 27.8604 20.5832 27.8604Z" fill="#8B75F3"></path><path id="Vector_27" d="M24.6076 30.2793C25.0825 30.2793 25.0825 29.5439 24.6076 29.5439C24.1327 29.5439 24.1327 30.2793 24.6076 30.2793Z" fill="#8B75F3"></path><path id="Vector_28" d="M21.861 31.6221C22.3359 31.6221 22.3359 30.8867 21.861 30.8867C21.3862 30.8867 21.3862 31.6221 21.861 31.6221Z" fill="#8B75F3"></path><path id="Vector_29" d="M24.5393 32.0908C25.0141 32.0908 25.0141 31.3555 24.5393 31.3555C24.0644 31.3555 24.0644 32.0908 24.5393 32.0908Z" fill="#8B75F3"></path><path id="Vector_30" d="M23.6711 27.8604C24.146 27.8604 24.146 27.125 23.6711 27.125C23.1962 27.125 23.1962 27.8604 23.6711 27.8604Z" fill="#8B75F3"></path><path id="Vector_31" d="M22.9294 26.0479C23.4043 26.0479 23.4043 25.3125 22.9294 25.3125C22.4545 25.3125 22.4545 26.0479 22.9294 26.0479Z" fill="#8B75F3"></path><path id="Vector_32" d="M23.7346 23.3623C24.2095 23.3623 24.2095 22.627 23.7346 22.627C23.2597 22.627 23.2597 23.3623 23.7346 23.3623Z" fill="#8B75F3"></path><path id="Vector_33" d="M25.0759 25.374C25.5508 25.374 25.5508 24.6387 25.0759 24.6387C24.601 24.6387 24.601 25.374 25.0759 25.374Z" fill="#8B75F3"></path><path id="Vector_34" d="M24.8762 27.7236C25.3511 27.7236 25.3511 26.9883 24.8762 26.9883C24.4013 26.9883 24.4013 27.7236 24.8762 27.7236Z" fill="#8B75F3"></path><path id="Vector_35" d="M27.0905 28.9346C27.5654 28.9346 27.5654 28.1992 27.0905 28.1992C26.6157 28.1992 26.6157 28.9346 27.0905 28.9346Z" fill="#8B75F3"></path><path id="Vector_36" d="M26.2858 30.8164C26.7607 30.8164 26.7607 30.0811 26.2858 30.0811C25.811 30.0811 25.811 30.8164 26.2858 30.8164Z" fill="#8B75F3"></path><path id="Vector_37" d="M27.3591 31.6856C27.834 31.6856 27.834 30.9502 27.3591 30.9502C26.8842 30.9502 26.8842 31.6856 27.3591 31.6856Z" fill="#8B75F3"></path><path id="Vector_38" d="M28.8317 30.8164C29.3066 30.8164 29.3066 30.0811 28.8317 30.0811C28.3569 30.0811 28.3569 30.8164 28.8317 30.8164Z" fill="#8B75F3"></path><path id="Vector_39" d="M25.6125 26.6494C26.0874 26.6494 26.0874 25.9141 25.6125 25.9141C25.1376 25.9141 25.1376 26.6494 25.6125 26.6494Z" fill="#8B75F3"></path><path id="Vector_40" d="M27.8952 24.5C28.3701 24.5 28.3701 23.7646 27.8952 23.7646C27.4203 23.7646 27.4203 24.5 27.8952 24.5Z" fill="#8B75F3"></path><path id="Vector_41" d="M28.9006 22.8887C29.3755 22.8887 29.3755 22.1533 28.9006 22.1533C28.4257 22.1533 28.4257 22.8887 28.9006 22.8887Z" fill="#8B75F3"></path><path id="Vector_42" d="M30.9782 24.8369C31.4531 24.8369 31.4531 24.1016 30.9782 24.1016C30.5034 24.1016 30.5034 24.8369 30.9782 24.8369Z" fill="#8B75F3"></path><path id="Vector_43" d="M32.5876 22.4873C33.0625 22.4873 33.0625 21.752 32.5876 21.752C32.1127 21.752 32.1127 22.4873 32.5876 22.4873Z" fill="#8B75F3"></path><path id="Vector_44" d="M29.905 21.75C30.3799 21.75 30.3799 21.0146 29.905 21.0146C29.4301 21.0146 29.4301 21.75 29.905 21.75Z" fill="#8B75F3"></path><path id="Vector_45" d="M33.0559 21.9502C33.5307 21.9502 33.5307 21.2148 33.0559 21.2148C32.581 21.2148 32.581 21.9502 33.0559 21.9502Z" fill="#8B75F3"></path><path id="Vector_46" d="M31.9196 26.6494C32.3945 26.6494 32.3945 25.9141 31.9196 25.9141C31.4448 25.9141 31.4448 26.6494 31.9196 26.6494Z" fill="#8B75F3"></path><path id="Vector_47" d="M29.5734 26.8545C30.0483 26.8545 30.0483 26.1191 29.5734 26.1191C29.0986 26.1191 29.0986 26.8545 29.5734 26.8545Z" fill="#8B75F3"></path><path id="Vector_48" d="M30.5105 29.1358C30.9853 29.1358 30.9853 28.4004 30.5105 28.4004C30.0356 28.4004 30.0356 29.1358 30.5105 29.1358Z" fill="#8B75F3"></path><path id="Vector_49" d="M22.5979 33.3652C23.0727 33.3652 23.0727 32.6299 22.5979 32.6299C22.123 32.6299 22.123 33.3652 22.5979 33.3652Z" fill="#8B75F3"></path><path id="Vector_50" d="M16.7634 33.835C17.2383 33.835 17.2383 33.0996 16.7634 33.0996C16.2885 33.0996 16.2885 33.835 16.7634 33.835Z" fill="#8B75F3"></path><path id="Vector_51" d="M17.4318 28.1299C17.9067 28.1299 17.9067 27.3945 17.4318 27.3945C16.957 27.3945 16.957 28.1299 17.4318 28.1299Z" fill="#8B75F3"></path><path id="Vector_52" d="M21.593 23.6309C22.0679 23.6309 22.0679 22.8955 21.593 22.8955C21.1181 22.8955 21.1181 23.6309 21.593 23.6309Z" fill="#8B75F3"></path><path id="Vector_53" d="M16.1584 30.21C16.6333 30.21 16.6333 29.4746 16.1584 29.4746C15.6835 29.4746 15.6835 30.21 16.1584 30.21Z" fill="#8B75F3"></path></g><defs><clipPath id="clip0_4086_8787"><rect width="58.9214" height="53.7225" fill="white" transform="translate(0.826172 0.488281)"></rect></clipPath></defs></svg>