<svg xmlns="http://www.w3.org/2000/svg" width="46" height="35" viewBox="0 0 46 35" fill="none"><mask id="path-1-outside-1_3676_27815" maskUnits="userSpaceOnUse" x="-1.07161" y="-0.770084" width="47.104" height="35.5913" fill="black"><rect fill="white" x="-1.07161" y="-0.770084" width="47.104" height="35.5913"></rect><path d="M43.1727 19.9452L43.136 19.4782L43.1177 19.2448L43.0718 19.0137C43.0123 18.7057 42.9523 18.4031 42.8868 18.0999L42.8403 17.8741L42.7715 17.6513L42.628 17.2104C42.4635 16.6111 42.179 16.0579 41.9221 15.5023C41.7882 15.224 41.613 14.9734 41.4557 14.7086L41.2139 14.3161C41.1347 14.1891 41.0327 14.0703 40.9415 13.9527C40.7543 13.7115 40.5725 13.471 40.3847 13.2352C40.1784 13.0189 39.9726 12.7973 39.7663 12.5809L39.4568 12.2565L39.1216 11.9669C38.8961 11.7754 38.6712 11.5786 38.4511 11.3877C38.2125 11.2163 37.9793 11.0455 37.7407 10.8742L37.3852 10.62C37.2623 10.542 37.1388 10.4693 37.016 10.3913C35.0583 9.16567 32.9634 8.34488 30.9067 7.77588C28.8386 7.21102 26.7985 6.89144 24.8341 6.73085C20.8999 6.40908 17.2692 6.71794 14.1302 7.38729C13.9338 7.43046 13.7375 7.47362 13.5466 7.51738L13.2602 7.58301L13.1077 7.62558C13.0741 7.63268 13.0459 7.64036 13.0117 7.65278C12.9498 7.66756 12.8928 7.68825 12.8364 7.70362C12.7236 7.73437 12.6167 7.76039 12.5261 7.78817C12.34 7.83784 12.1875 7.88041 12.086 7.90701C11.9846 7.93362 11.9336 7.94958 11.9336 7.94958C11.9336 7.94958 11.6816 8.05127 11.2988 8.19788C11.1098 8.27415 10.8877 8.35219 10.6574 8.45623C10.427 8.56028 10.1847 8.67378 9.94233 8.78729C9.70058 8.89547 9.46249 9.0202 9.24663 9.14198C9.03076 9.26376 8.83287 9.37135 8.66377 9.46593C8.33524 9.66692 8.14468 9.80761 8.18488 9.79046C8.00689 9.91637 7.83489 10.0376 7.68511 10.1558C7.53475 10.2793 7.41145 10.4058 7.30128 10.5122C7.08579 10.7309 6.94644 10.9041 6.9354 11.0052C6.92437 11.1063 7.02118 11.1222 7.28109 11.0483C7.54043 10.9797 7.92964 10.7746 8.55788 10.5363C8.74572 10.4707 8.93047 10.3832 9.13454 10.3194C9.33377 10.2496 9.54383 10.181 9.7479 10.1172C10.1475 9.96701 10.569 9.86768 10.9261 9.75594C11.2838 9.63887 11.6081 9.57737 11.8332 9.5212C12.0583 9.46503 12.1934 9.43133 12.1934 9.43133C12.1934 9.43133 12.3932 9.35625 12.7588 9.26697C12.9395 9.21671 13.1592 9.15995 13.4132 9.09078C13.475 9.07599 13.5374 9.05589 13.5993 9.04111C13.9865 8.95419 14.3852 8.86313 14.7833 8.77739C15.5891 8.61774 16.4256 8.47758 17.2965 8.37348C19.0276 8.16409 20.872 8.06936 22.7933 8.12297C24.7141 8.1819 26.7069 8.38327 28.7311 8.79801C30.75 9.21216 32.8003 9.83967 34.7251 10.8141C34.9635 10.9371 35.2074 11.0606 35.4458 11.1835C35.6771 11.3218 35.9078 11.4654 36.139 11.6037L36.4884 11.8141C36.601 11.8856 36.7065 11.9724 36.8186 12.0493C37.0367 12.2076 37.2603 12.3666 37.4778 12.5303C37.6894 12.6987 37.8884 12.882 38.0988 13.061L38.4092 13.3264C38.5082 13.4233 38.5957 13.5244 38.6946 13.6213C38.881 13.8193 39.0735 14.0125 39.2593 14.2158C39.4272 14.4333 39.5903 14.6449 39.7581 14.8624C40.3895 15.7495 40.9352 16.7188 41.2403 17.7856L41.3722 18.1822C41.4184 18.3111 41.4303 18.4523 41.4645 18.5906C41.5166 18.8655 41.5748 19.1356 41.6269 19.4104C41.6622 19.6888 41.6753 19.9701 41.6992 20.2526C41.7231 20.5352 41.7524 20.8183 41.7379 21.102C41.7404 22.2327 41.5512 23.364 41.1315 24.4001C40.7221 25.4428 40.0556 26.382 39.2143 27.1676C38.3682 27.9473 37.3515 28.5845 36.2476 29.0669C35.1432 29.5547 33.9602 29.91 32.7395 30.1589C30.2975 30.6621 27.7344 30.7699 25.1812 30.6366C22.6232 30.4973 20.0589 30.1151 17.5579 29.503C15.0636 28.8809 12.6038 28.0418 10.4035 26.8327C9.85669 26.5254 9.32845 26.1986 8.84272 25.8334C8.36549 25.4906 7.91553 25.0485 7.4644 24.6171C6.5693 23.7389 5.74667 22.7986 5.05777 21.7868C4.37429 20.7755 3.79574 19.7058 3.45913 18.5763C3.10513 17.4557 2.98109 16.2848 3.09993 15.1459C3.33879 12.8573 4.62223 10.7796 6.31138 9.19839C8.00768 7.60181 10.0691 6.42188 12.1979 5.57766C14.3376 4.73463 16.5663 4.22967 18.7576 4.01669C20.9489 3.80371 23.1179 3.89513 25.1445 4.28859C26.1578 4.48532 27.1413 4.75416 28.0734 5.09275C28.3045 5.18257 28.5356 5.27239 28.7613 5.36162L28.8552 5.40417L28.9647 5.45381C30.1511 5.97087 30.8944 6.43419 30.93 6.4596C30.9613 6.47378 31.0382 6.47141 31.0604 6.46846C32.061 6.33006 31.9827 5.64326 31.7872 5.27742C31.7659 5.22127 31.7503 5.21418 31.7195 5.19468C31.6786 5.16867 30.869 4.66044 29.5936 4.10674L29.4732 4.05592L29.4106 4.02755L29.348 3.99919C29.2276 3.94837 29.1013 3.90228 28.9755 3.85087C27.9831 3.46263 26.9435 3.15538 25.8736 2.92556C23.7176 2.46414 21.4444 2.32367 19.1375 2.49174C16.8355 2.66571 14.4956 3.13699 12.2201 3.97058C9.95057 4.79945 7.73107 5.97289 5.80481 7.61974C4.8495 8.44671 3.96316 9.39425 3.24742 10.4842C2.88714 11.0262 2.56723 11.5996 2.31418 12.2125C2.05089 12.819 1.84479 13.4532 1.71868 14.1069C1.58176 14.7595 1.51401 15.4303 1.52799 16.1047C1.51846 16.4428 1.55879 16.7755 1.5883 17.1071C1.64003 17.4357 1.67436 17.7732 1.75914 18.1001C1.88965 18.7603 2.1162 19.3933 2.36072 20.0121C2.62805 20.6226 2.91819 21.2249 3.26707 21.7905C3.94744 22.9306 4.77527 23.9737 5.67248 24.9329C6.12379 25.4128 6.59366 25.8732 7.08632 26.3253C7.31913 26.5499 7.60063 26.7798 7.87422 26.9819C8.14722 27.1893 8.42796 27.3761 8.71411 27.5634C10.9989 29.0024 13.504 29.9272 16.0431 30.6404C18.5883 31.3488 21.1884 31.8049 23.8026 32.031C26.418 32.2465 29.0524 32.238 31.6451 31.8589C32.9417 31.6667 34.2206 31.3864 35.4659 30.9625C36.0906 30.7562 36.6984 30.5049 37.2934 30.22C37.8884 29.935 38.4605 29.6099 39.0053 29.2334C40.0991 28.4915 41.0581 27.5304 41.7762 26.4191C42.1274 25.8599 42.4166 25.2671 42.6426 24.6512C42.868 24.0406 43.014 23.4052 43.1155 22.7757C43.2063 22.1451 43.2537 21.5097 43.2399 20.8838C43.2412 20.5717 43.1985 20.2602 43.1775 19.9511L43.1727 19.9452Z"></path></mask><path d="M43.1727 19.9452L43.136 19.4782L43.1177 19.2448L43.0718 19.0137C43.0123 18.7057 42.9523 18.4031 42.8868 18.0999L42.8403 17.8741L42.7715 17.6513L42.628 17.2104C42.4635 16.6111 42.179 16.0579 41.9221 15.5023C41.7882 15.224 41.613 14.9734 41.4557 14.7086L41.2139 14.3161C41.1347 14.1891 41.0327 14.0703 40.9415 13.9527C40.7543 13.7115 40.5725 13.471 40.3847 13.2352C40.1784 13.0189 39.9726 12.7973 39.7663 12.5809L39.4568 12.2565L39.1216 11.9669C38.8961 11.7754 38.6712 11.5786 38.4511 11.3877C38.2125 11.2163 37.9793 11.0455 37.7407 10.8742L37.3852 10.62C37.2623 10.542 37.1388 10.4693 37.016 10.3913C35.0583 9.16567 32.9634 8.34488 30.9067 7.77588C28.8386 7.21102 26.7985 6.89144 24.8341 6.73085C20.8999 6.40908 17.2692 6.71794 14.1302 7.38729C13.9338 7.43046 13.7375 7.47362 13.5466 7.51738L13.2602 7.58301L13.1077 7.62558C13.0741 7.63268 13.0459 7.64036 13.0117 7.65278C12.9498 7.66756 12.8928 7.68825 12.8364 7.70362C12.7236 7.73437 12.6167 7.76039 12.5261 7.78817C12.34 7.83784 12.1875 7.88041 12.086 7.90701C11.9846 7.93362 11.9336 7.94958 11.9336 7.94958C11.9336 7.94958 11.6816 8.05127 11.2988 8.19788C11.1098 8.27415 10.8877 8.35219 10.6574 8.45623C10.427 8.56028 10.1847 8.67378 9.94233 8.78729C9.70058 8.89547 9.46249 9.0202 9.24663 9.14198C9.03076 9.26376 8.83287 9.37135 8.66377 9.46593C8.33524 9.66692 8.14468 9.80761 8.18488 9.79046C8.00689 9.91637 7.83489 10.0376 7.68511 10.1558C7.53475 10.2793 7.41145 10.4058 7.30128 10.5122C7.08579 10.7309 6.94644 10.9041 6.9354 11.0052C6.92437 11.1063 7.02118 11.1222 7.28109 11.0483C7.54043 10.9797 7.92964 10.7746 8.55788 10.5363C8.74572 10.4707 8.93047 10.3832 9.13454 10.3194C9.33377 10.2496 9.54383 10.181 9.7479 10.1172C10.1475 9.96701 10.569 9.86768 10.9261 9.75594C11.2838 9.63887 11.6081 9.57737 11.8332 9.5212C12.0583 9.46503 12.1934 9.43133 12.1934 9.43133C12.1934 9.43133 12.3932 9.35625 12.7588 9.26697C12.9395 9.21671 13.1592 9.15995 13.4132 9.09078C13.475 9.07599 13.5374 9.05589 13.5993 9.04111C13.9865 8.95419 14.3852 8.86313 14.7833 8.77739C15.5891 8.61774 16.4256 8.47758 17.2965 8.37348C19.0276 8.16409 20.872 8.06936 22.7933 8.12297C24.7141 8.1819 26.7069 8.38327 28.7311 8.79801C30.75 9.21216 32.8003 9.83967 34.7251 10.8141C34.9635 10.9371 35.2074 11.0606 35.4458 11.1835C35.6771 11.3218 35.9078 11.4654 36.139 11.6037L36.4884 11.8141C36.601 11.8856 36.7065 11.9724 36.8186 12.0493C37.0367 12.2076 37.2603 12.3666 37.4778 12.5303C37.6894 12.6987 37.8884 12.882 38.0988 13.061L38.4092 13.3264C38.5082 13.4233 38.5957 13.5244 38.6946 13.6213C38.881 13.8193 39.0735 14.0125 39.2593 14.2158C39.4272 14.4333 39.5903 14.6449 39.7581 14.8624C40.3895 15.7495 40.9352 16.7188 41.2403 17.7856L41.3722 18.1822C41.4184 18.3111 41.4303 18.4523 41.4645 18.5906C41.5166 18.8655 41.5748 19.1356 41.6269 19.4104C41.6622 19.6888 41.6753 19.9701 41.6992 20.2526C41.7231 20.5352 41.7524 20.8183 41.7379 21.102C41.7404 22.2327 41.5512 23.364 41.1315 24.4001C40.7221 25.4428 40.0556 26.382 39.2143 27.1676C38.3682 27.9473 37.3515 28.5845 36.2476 29.0669C35.1432 29.5547 33.9602 29.91 32.7395 30.1589C30.2975 30.6621 27.7344 30.7699 25.1812 30.6366C22.6232 30.4973 20.0589 30.1151 17.5579 29.503C15.0636 28.8809 12.6038 28.0418 10.4035 26.8327C9.85669 26.5254 9.32845 26.1986 8.84272 25.8334C8.36549 25.4906 7.91553 25.0485 7.4644 24.6171C6.5693 23.7389 5.74667 22.7986 5.05777 21.7868C4.37429 20.7755 3.79574 19.7058 3.45913 18.5763C3.10513 17.4557 2.98109 16.2848 3.09993 15.1459C3.33879 12.8573 4.62223 10.7796 6.31138 9.19839C8.00768 7.60181 10.0691 6.42188 12.1979 5.57766C14.3376 4.73463 16.5663 4.22967 18.7576 4.01669C20.9489 3.80371 23.1179 3.89513 25.1445 4.28859C26.1578 4.48532 27.1413 4.75416 28.0734 5.09275C28.3045 5.18257 28.5356 5.27239 28.7613 5.36162L28.8552 5.40417L28.9647 5.45381C30.1511 5.97087 30.8944 6.43419 30.93 6.4596C30.9613 6.47378 31.0382 6.47141 31.0604 6.46846C32.061 6.33006 31.9827 5.64326 31.7872 5.27742C31.7659 5.22127 31.7503 5.21418 31.7195 5.19468C31.6786 5.16867 30.869 4.66044 29.5936 4.10674L29.4732 4.05592L29.4106 4.02755L29.348 3.99919C29.2276 3.94837 29.1013 3.90228 28.9755 3.85087C27.9831 3.46263 26.9435 3.15538 25.8736 2.92556C23.7176 2.46414 21.4444 2.32367 19.1375 2.49174C16.8355 2.66571 14.4956 3.13699 12.2201 3.97058C9.95057 4.79945 7.73107 5.97289 5.80481 7.61974C4.8495 8.44671 3.96316 9.39425 3.24742 10.4842C2.88714 11.0262 2.56723 11.5996 2.31418 12.2125C2.05089 12.819 1.84479 13.4532 1.71868 14.1069C1.58176 14.7595 1.51401 15.4303 1.52799 16.1047C1.51846 16.4428 1.55879 16.7755 1.5883 17.1071C1.64003 17.4357 1.67436 17.7732 1.75914 18.1001C1.88965 18.7603 2.1162 19.3933 2.36072 20.0121C2.62805 20.6226 2.91819 21.2249 3.26707 21.7905C3.94744 22.9306 4.77527 23.9737 5.67248 24.9329C6.12379 25.4128 6.59366 25.8732 7.08632 26.3253C7.31913 26.5499 7.60063 26.7798 7.87422 26.9819C8.14722 27.1893 8.42796 27.3761 8.71411 27.5634C10.9989 29.0024 13.504 29.9272 16.0431 30.6404C18.5883 31.3488 21.1884 31.8049 23.8026 32.031C26.418 32.2465 29.0524 32.238 31.6451 31.8589C32.9417 31.6667 34.2206 31.3864 35.4659 30.9625C36.0906 30.7562 36.6984 30.5049 37.2934 30.22C37.8884 29.935 38.4605 29.6099 39.0053 29.2334C40.0991 28.4915 41.0581 27.5304 41.7762 26.4191C42.1274 25.8599 42.4166 25.2671 42.6426 24.6512C42.868 24.0406 43.014 23.4052 43.1155 22.7757C43.2063 22.1451 43.2537 21.5097 43.2399 20.8838C43.2412 20.5717 43.1985 20.2602 43.1775 19.9511L43.1727 19.9452Z" fill="#D7FF65"></path><path d="M43.1727 19.9452L43.136 19.4782L43.1177 19.2448L43.0718 19.0137C43.0123 18.7057 42.9523 18.4031 42.8868 18.0999L42.8403 17.8741L42.7715 17.6513L42.628 17.2104C42.4635 16.6111 42.179 16.0579 41.9221 15.5023C41.7882 15.224 41.613 14.9734 41.4557 14.7086L41.2139 14.3161C41.1347 14.1891 41.0327 14.0703 40.9415 13.9527C40.7543 13.7115 40.5725 13.471 40.3847 13.2352C40.1784 13.0189 39.9726 12.7973 39.7663 12.5809L39.4568 12.2565L39.1216 11.9669C38.8961 11.7754 38.6712 11.5786 38.4511 11.3877C38.2125 11.2163 37.9793 11.0455 37.7407 10.8742L37.3852 10.62C37.2623 10.542 37.1388 10.4693 37.016 10.3913C35.0583 9.16567 32.9634 8.34488 30.9067 7.77588C28.8386 7.21102 26.7985 6.89144 24.8341 6.73085C20.8999 6.40908 17.2692 6.71794 14.1302 7.38729C13.9338 7.43046 13.7375 7.47362 13.5466 7.51738L13.2602 7.58301L13.1077 7.62558C13.0741 7.63268 13.0459 7.64036 13.0117 7.65278C12.9498 7.66756 12.8928 7.68825 12.8364 7.70362C12.7236 7.73437 12.6167 7.76039 12.5261 7.78817C12.34 7.83784 12.1875 7.88041 12.086 7.90701C11.9846 7.93362 11.9336 7.94958 11.9336 7.94958C11.9336 7.94958 11.6816 8.05127 11.2988 8.19788C11.1098 8.27415 10.8877 8.35219 10.6574 8.45623C10.427 8.56028 10.1847 8.67378 9.94233 8.78729C9.70058 8.89547 9.46249 9.0202 9.24663 9.14198C9.03076 9.26376 8.83287 9.37135 8.66377 9.46593C8.33524 9.66692 8.14468 9.80761 8.18488 9.79046C8.00689 9.91637 7.83489 10.0376 7.68511 10.1558C7.53475 10.2793 7.41145 10.4058 7.30128 10.5122C7.08579 10.7309 6.94644 10.9041 6.9354 11.0052C6.92437 11.1063 7.02118 11.1222 7.28109 11.0483C7.54043 10.9797 7.92964 10.7746 8.55788 10.5363C8.74572 10.4707 8.93047 10.3832 9.13454 10.3194C9.33377 10.2496 9.54383 10.181 9.7479 10.1172C10.1475 9.96701 10.569 9.86768 10.9261 9.75594C11.2838 9.63887 11.6081 9.57737 11.8332 9.5212C12.0583 9.46503 12.1934 9.43133 12.1934 9.43133C12.1934 9.43133 12.3932 9.35625 12.7588 9.26697C12.9395 9.21671 13.1592 9.15995 13.4132 9.09078C13.475 9.07599 13.5374 9.05589 13.5993 9.04111C13.9865 8.95419 14.3852 8.86313 14.7833 8.77739C15.5891 8.61774 16.4256 8.47758 17.2965 8.37348C19.0276 8.16409 20.872 8.06936 22.7933 8.12297C24.7141 8.1819 26.7069 8.38327 28.7311 8.79801C30.75 9.21216 32.8003 9.83967 34.7251 10.8141C34.9635 10.9371 35.2074 11.0606 35.4458 11.1835C35.6771 11.3218 35.9078 11.4654 36.139 11.6037L36.4884 11.8141C36.601 11.8856 36.7065 11.9724 36.8186 12.0493C37.0367 12.2076 37.2603 12.3666 37.4778 12.5303C37.6894 12.6987 37.8884 12.882 38.0988 13.061L38.4092 13.3264C38.5082 13.4233 38.5957 13.5244 38.6946 13.6213C38.881 13.8193 39.0735 14.0125 39.2593 14.2158C39.4272 14.4333 39.5903 14.6449 39.7581 14.8624C40.3895 15.7495 40.9352 16.7188 41.2403 17.7856L41.3722 18.1822C41.4184 18.3111 41.4303 18.4523 41.4645 18.5906C41.5166 18.8655 41.5748 19.1356 41.6269 19.4104C41.6622 19.6888 41.6753 19.9701 41.6992 20.2526C41.7231 20.5352 41.7524 20.8183 41.7379 21.102C41.7404 22.2327 41.5512 23.364 41.1315 24.4001C40.7221 25.4428 40.0556 26.382 39.2143 27.1676C38.3682 27.9473 37.3515 28.5845 36.2476 29.0669C35.1432 29.5547 33.9602 29.91 32.7395 30.1589C30.2975 30.6621 27.7344 30.7699 25.1812 30.6366C22.6232 30.4973 20.0589 30.1151 17.5579 29.503C15.0636 28.8809 12.6038 28.0418 10.4035 26.8327C9.85669 26.5254 9.32845 26.1986 8.84272 25.8334C8.36549 25.4906 7.91553 25.0485 7.4644 24.6171C6.5693 23.7389 5.74667 22.7986 5.05777 21.7868C4.37429 20.7755 3.79574 19.7058 3.45913 18.5763C3.10513 17.4557 2.98109 16.2848 3.09993 15.1459C3.33879 12.8573 4.62223 10.7796 6.31138 9.19839C8.00768 7.60181 10.0691 6.42188 12.1979 5.57766C14.3376 4.73463 16.5663 4.22967 18.7576 4.01669C20.9489 3.80371 23.1179 3.89513 25.1445 4.28859C26.1578 4.48532 27.1413 4.75416 28.0734 5.09275C28.3045 5.18257 28.5356 5.27239 28.7613 5.36162L28.8552 5.40417L28.9647 5.45381C30.1511 5.97087 30.8944 6.43419 30.93 6.4596C30.9613 6.47378 31.0382 6.47141 31.0604 6.46846C32.061 6.33006 31.9827 5.64326 31.7872 5.27742C31.7659 5.22127 31.7503 5.21418 31.7195 5.19468C31.6786 5.16867 30.869 4.66044 29.5936 4.10674L29.4732 4.05592L29.4106 4.02755L29.348 3.99919C29.2276 3.94837 29.1013 3.90228 28.9755 3.85087C27.9831 3.46263 26.9435 3.15538 25.8736 2.92556C23.7176 2.46414 21.4444 2.32367 19.1375 2.49174C16.8355 2.66571 14.4956 3.13699 12.2201 3.97058C9.95057 4.79945 7.73107 5.97289 5.80481 7.61974C4.8495 8.44671 3.96316 9.39425 3.24742 10.4842C2.88714 11.0262 2.56723 11.5996 2.31418 12.2125C2.05089 12.819 1.84479 13.4532 1.71868 14.1069C1.58176 14.7595 1.51401 15.4303 1.52799 16.1047C1.51846 16.4428 1.55879 16.7755 1.5883 17.1071C1.64003 17.4357 1.67436 17.7732 1.75914 18.1001C1.88965 18.7603 2.1162 19.3933 2.36072 20.0121C2.62805 20.6226 2.91819 21.2249 3.26707 21.7905C3.94744 22.9306 4.77527 23.9737 5.67248 24.9329C6.12379 25.4128 6.59366 25.8732 7.08632 26.3253C7.31913 26.5499 7.60063 26.7798 7.87422 26.9819C8.14722 27.1893 8.42796 27.3761 8.71411 27.5634C10.9989 29.0024 13.504 29.9272 16.0431 30.6404C18.5883 31.3488 21.1884 31.8049 23.8026 32.031C26.418 32.2465 29.0524 32.238 31.6451 31.8589C32.9417 31.6667 34.2206 31.3864 35.4659 30.9625C36.0906 30.7562 36.6984 30.5049 37.2934 30.22C37.8884 29.935 38.4605 29.6099 39.0053 29.2334C40.0991 28.4915 41.0581 27.5304 41.7762 26.4191C42.1274 25.8599 42.4166 25.2671 42.6426 24.6512C42.868 24.0406 43.014 23.4052 43.1155 22.7757C43.2063 22.1451 43.2537 21.5097 43.2399 20.8838C43.2412 20.5717 43.1985 20.2602 43.1775 19.9511L43.1727 19.9452Z" stroke="#D7FF65" stroke-width="0.8" mask="url(#path-1-outside-1_3676_27815)"></path><path d="M31.2675 16.4517L31.2275 16.635C31.2247 16.6339 31.2168 16.631 31.2068 16.6258L31.2063 16.6255C31.201 16.6228 31.1695 16.6067 31.1427 16.572C31.1267 16.5514 31.1019 16.5107 31.101 16.4532C31.1009 16.4484 31.101 16.4437 31.1012 16.439C31.1775 16.446 31.2344 16.4504 31.2675 16.4517ZM27.7313 14.4156L27.686 14.6104L27.7313 14.4156L27.7237 14.4138L27.7159 14.4127L26.321 14.2012L26.321 14.2012L26.3195 14.201C22.2479 13.6163 18.1263 13.258 13.986 13.3028L13.9857 13.3028C13.1391 13.313 12.2847 13.3386 11.4382 13.3867L11.4231 13.3876L11.4083 13.3907C11.3545 13.402 11.3024 13.4326 11.2793 13.4466C11.2635 13.4563 11.2476 13.4667 11.2336 13.477L11.2335 13.4771C11.2267 13.482 11.2104 13.4939 11.194 13.5101C10.9902 13.6943 10.8588 13.8795 10.7934 14.0655C10.7262 14.2563 10.7325 14.4363 10.7857 14.5958C10.8872 14.9003 11.1509 15.1085 11.3348 15.2151C11.3599 15.2309 11.3946 15.2519 11.4354 15.2642C11.4821 15.2784 11.5231 15.277 11.5425 15.2764C11.5434 15.2764 11.5442 15.2764 11.545 15.2763L11.545 15.2764L11.551 15.2761C12.3678 15.226 13.1934 15.2035 14.0144 15.1911C18.0302 15.1466 22.0545 15.4943 26.0525 16.065C26.0528 16.0651 26.053 16.0651 26.0532 16.0651L27.2315 16.2421L27.2314 16.2424L27.2415 16.2434L27.2415 16.2434L27.2417 16.2434L27.2422 16.2435L27.2445 16.2437L27.2535 16.2446L27.2886 16.248L27.4216 16.2613L27.8951 16.3087C28.2863 16.348 28.8059 16.4007 29.3199 16.4541C29.5877 16.4819 29.8632 16.5113 30.1168 16.5384C30.3398 16.5621 30.5459 16.5841 30.715 16.6017C30.9003 16.6209 31.0528 16.636 31.1542 16.6444C31.2035 16.6485 31.2458 16.6514 31.2744 16.652C31.2818 16.6522 31.2908 16.6522 31.3 16.6518L31.3005 16.6518C31.3037 16.6517 31.312 16.6513 31.3231 16.6499C31.7329 16.682 32.1129 16.6997 32.4155 16.6955C32.5718 16.6934 32.7119 16.6853 32.8269 16.6693C32.9321 16.6547 33.0494 16.6295 33.1331 16.5728C33.1789 16.5418 33.2379 16.4853 33.2546 16.3951C33.2714 16.3043 33.2361 16.2293 33.2021 16.1818C33.1404 16.0955 33.03 16.0244 32.9102 15.9615C32.6563 15.828 32.2192 15.6619 31.5598 15.4552C30.7774 15.1964 29.8224 14.9301 29.0647 14.7341L29.0647 14.734L29.0619 14.7334C28.6801 14.6405 28.3475 14.5611 28.1104 14.5049C27.9918 14.4768 27.8971 14.4545 27.832 14.4392L27.7573 14.4217L27.7379 14.4172L27.733 14.416L27.7317 14.4157L27.7314 14.4156L27.7313 14.4156L27.7313 14.4156Z" fill="#D7FF65" stroke="#D7FF65" stroke-width="0.4"></path><path d="M10.1106 18.4883C10.1681 18.6275 10.26 18.7432 10.3609 18.8366L10.3319 18.8472L10.6753 19.0652C10.7069 19.0853 10.7474 19.1082 10.7977 19.1185C10.8229 19.1237 10.8445 19.1244 10.86 19.1243C10.8685 19.1243 10.8845 19.1236 10.8887 19.1234C10.8893 19.1234 10.8896 19.1234 10.8897 19.1234L10.8988 19.1231L10.9077 19.122C11.7182 19.0233 12.5316 18.9567 13.3516 18.9012C17.2986 18.6566 21.2883 18.9039 25.2723 19.3226L26.4622 19.4525L26.4622 19.4528L26.4723 19.4533L26.4839 19.2537L26.4723 19.4533L26.4723 19.4533L26.4725 19.4534L26.4731 19.4534L26.4754 19.4535L26.4844 19.454L26.5197 19.4561L26.6534 19.4639L27.1293 19.4914C27.5224 19.5141 28.0448 19.5442 28.5617 19.5737C28.7233 19.583 28.8847 19.5923 29.0416 19.6014C29.3858 19.6212 29.7085 19.6399 29.965 19.6535C30.1514 19.6634 30.3048 19.6708 30.4066 19.6741C30.4563 19.6757 30.4985 19.6765 30.5269 19.6757C30.5344 19.6755 30.5431 19.6752 30.552 19.6744L30.5525 19.6743C30.5559 19.6741 30.5648 19.6733 30.5765 19.6711C30.9893 19.6801 31.3708 19.6759 31.6734 19.6541C31.8295 19.6428 31.9691 19.6266 32.083 19.6038C32.1873 19.5829 32.303 19.5508 32.3832 19.4889C32.4272 19.4551 32.4824 19.3951 32.4937 19.3043C32.505 19.2129 32.4657 19.1402 32.429 19.0946C32.3624 19.0119 32.248 18.9472 32.1249 18.8913C31.8638 18.7727 31.4184 18.6325 30.7498 18.4653C29.9574 18.246 28.9914 18.0312 28.2255 17.8716C27.8417 17.7915 27.5072 17.7252 27.2686 17.6788C27.1493 17.6556 27.054 17.6374 26.9884 17.625L26.913 17.6108L26.8935 17.6072L26.8884 17.6063L26.8872 17.606L26.8868 17.606L26.8867 17.6059L26.8503 17.8026L26.8867 17.6059L26.8794 17.6046L26.872 17.6038L25.4761 17.4514L25.4756 17.4514C21.4386 17.0215 17.3372 16.7624 13.2319 17.0114L13.2316 17.0114C12.3803 17.0642 11.5305 17.1338 10.6809 17.2416L10.6588 17.2444L10.6378 17.252C10.5956 17.2673 10.5532 17.2945 10.5294 17.3106C10.515 17.3204 10.5007 17.3308 10.488 17.3408C10.4807 17.3467 10.4642 17.3598 10.4486 17.3764C10.2554 17.5742 10.1354 17.7682 10.0821 17.9588C10.0276 18.1536 10.0463 18.3328 10.1106 18.4883ZM30.3441 19.4771C30.3441 19.4753 30.344 19.4735 30.3441 19.4717C30.4209 19.4748 30.4781 19.4763 30.5112 19.476L30.4817 19.6618C30.4789 19.661 30.4708 19.6585 30.4605 19.6539L30.4601 19.6537C30.455 19.6515 30.4211 19.6367 30.3915 19.602C30.3736 19.5809 30.3454 19.5384 30.3441 19.4771Z" fill="#D7FF65" stroke="#D7FF65" stroke-width="0.4"></path><path d="M21.5517 22.0107C21.2872 21.9461 20.8529 21.8891 20.2163 21.8331L20.2131 21.8292L20.1317 21.8203C19.3234 21.7321 18.3513 21.6422 17.5738 21.5789L17.5726 21.5788C17.1791 21.5493 16.8414 21.5232 16.602 21.5044L16.3221 21.4824L16.2475 21.4764L16.2283 21.4749L16.2234 21.4745L16.2222 21.4744L16.2219 21.4744L16.2218 21.4744L16.2218 21.4744L16.2058 21.6737L16.2218 21.4744L16.214 21.4737L16.2061 21.4737L14.8047 21.4715L14.8047 21.4715L14.8041 21.4715L14.0758 21.4727L14.0758 21.4727L14.0737 21.4727C13.2289 21.4829 12.381 21.4983 11.5294 21.5406L11.5136 21.5414L11.498 21.5446C11.4443 21.556 11.3921 21.5865 11.3691 21.6005C11.3532 21.6102 11.3374 21.6207 11.3234 21.6309L11.3232 21.631C11.3165 21.6359 11.3002 21.6478 11.2838 21.664C11.0787 21.8491 10.9464 22.0346 10.88 22.2205C10.8119 22.4113 10.8174 22.5913 10.8704 22.7509C10.9715 23.0555 11.236 23.2623 11.4191 23.3684C11.4442 23.3843 11.4789 23.4052 11.5197 23.4176C11.5665 23.4317 11.6074 23.4304 11.6269 23.4298C11.6277 23.4297 11.6285 23.4297 11.6293 23.4297L11.6293 23.4297L11.6328 23.4295C12.4491 23.39 13.2746 23.3729 14.1016 23.361L14.817 23.3586L14.818 23.3586L16.0159 23.3602L16.0159 23.3606L16.0279 23.3599L16.0161 23.1602L16.0279 23.3599L16.0279 23.3599L16.0281 23.3599L16.0286 23.3598L16.031 23.3597L16.04 23.3592L16.0755 23.3571L16.2097 23.3491C16.3252 23.3422 16.4901 23.3322 16.6876 23.3201C17.0826 23.2959 17.6081 23.263 18.1297 23.2284C18.6525 23.1936 19.1708 23.1516 19.5475 23.1163C19.7354 23.0987 19.8899 23.0826 19.9924 23.0698C20.0421 23.0635 20.0853 23.0574 20.1146 23.0515C20.1223 23.0499 20.1317 23.0479 20.1415 23.0452L20.1421 23.045C20.145 23.0442 20.1527 23.0421 20.1629 23.0383C20.5777 22.9829 20.9557 22.9132 21.251 22.8381C21.4038 22.7993 21.5385 22.758 21.6463 22.715C21.7443 22.6759 21.8521 22.6235 21.9188 22.5486L21.9189 22.5486L21.9228 22.544C21.9578 22.5022 21.999 22.4326 21.9917 22.3421C21.9843 22.2505 21.9313 22.1875 21.8864 22.1503C21.8056 22.0834 21.6816 22.0424 21.5517 22.0107ZM19.8991 22.8795C19.9728 22.871 20.0281 22.8638 20.0612 22.858L20.0578 23.0432C20.0544 23.0427 20.0456 23.0411 20.0342 23.0375L20.0338 23.0374C20.027 23.0353 19.9945 23.0251 19.9627 22.9966C19.9442 22.98 19.9169 22.949 19.9038 22.9013C19.9018 22.8939 19.9002 22.8867 19.8991 22.8795Z" fill="#D7FF65" stroke="#D7FF65" stroke-width="0.4"></path></svg>