<svg xmlns="http://www.w3.org/2000/svg" width="170" height="178" viewBox="0 0 170 178" fill="none"><path d="M132.613 143.788C141.456 135.036 147.764 123.62 157.612 115.784C159.173 114.464 158.762 110.789 156.434 110.598C143.269 109.167 130.136 104.667 116.936 105.032C114.488 105.138 113.497 109.313 116.148 110.408C120.125 112.05 123.663 114.359 127.601 116.524C110.203 122.205 93.1286 128.789 74.8796 131.46C65.0131 132.932 53.7012 134.153 44.0176 129.191C32.3646 123.145 35.9361 109.134 41.973 101.381C47.2507 94.6623 74.0431 76.7223 58.4835 65.4418C49.3163 58.7664 40.2902 59.4298 30.3006 59.9264C27.4525 60.1753 24.643 59.9009 21.953 59.3292C11.4746 57.197 23.0774 45.4251 26.4037 43.9869C33.0565 41.1103 40.8801 40.8748 48.1407 40.3299C50.3876 40.2949 49.976 36.6195 47.6482 36.4285C36.7725 35.7116 18.7167 35.7657 13.9779 48.4078C10.0369 59.492 17.2346 65.0846 26.6655 65.5512C32.8854 65.8862 66.0221 63.7789 55.5517 78.715C48.6784 88.5494 38.3021 94.2794 32.515 105.256C28.5249 113.046 30.7615 123.716 36.5989 130.556C43.8041 138.694 56.4836 138.769 65.3902 138.403C87.616 137.375 109.261 129.674 129.662 121.652C128.397 128.217 127.574 135.389 127.754 142.204C128.042 144.905 131.334 145.263 132.613 143.788ZM129.313 111.839C135.977 112.78 142.882 114.4 149.627 115.568C143.825 121.454 139.149 127.958 133.791 134.451C134.697 128.777 136.086 123.188 134.827 117.776C134.623 116.574 133.698 115.884 132.735 115.717C131.968 114.207 130.801 112.839 129.313 111.839Z" fill="#0B0B0B"></path></svg>