<svg xmlns="http://www.w3.org/2000/svg" width="144" height="43" viewBox="0 0 144 43" fill="none"><g id="demand-curve-logos-idkbsdUVVz 1" clip-path="url(#clip0_4506_23362)"><g id="Group"><g id="Group_2"><g id="Group_3"><g id="Group_4"><path id="Vector" d="M63.0503 18.5596V5.53955H68.1903C72.2703 5.53955 75.1003 8.13955 75.1003 12.0396C75.1003 15.9796 72.2703 18.5596 68.2103 18.5596H63.0503ZM72.2703 12.0396C72.2703 9.74955 70.8603 7.97955 68.2103 7.97955H65.8303V16.1196H68.1903C70.7703 16.1196 72.2703 14.2696 72.2703 12.0396Z" fill="#AAAAAA"></path><path id="Vector_2" d="M76.8804 18.5596V5.53955H86.1004V7.97955H79.6504V10.7096H85.9604V13.1496H79.6504V16.1196H86.1004V18.5596H76.8804Z" fill="#AAAAAA"></path><path id="Vector_3" d="M99.3903 18.5596V9.16955L95.7203 18.5596H94.5103L90.8403 9.16955V18.5596H88.0703V5.53955H91.9603L95.1203 13.6796L98.2803 5.53955H102.19V18.5696H99.3903V18.5596Z" fill="#AAAAAA"></path><path id="Vector_4" d="M113.57 18.5598L112.75 16.3498H107.16L106.34 18.5598H103.2L108.22 5.52979H111.7L116.72 18.5598H113.57ZM109.96 8.30979L107.93 13.9198H111.99L109.96 8.30979Z" fill="#AAAAAA"></path><path id="Vector_5" d="M126.71 18.5596L120.5 10.0596V18.5596H117.73V5.53955H120.58L126.61 13.7196V5.53955H129.38V18.5696H126.71V18.5596Z" fill="#AAAAAA"></path><path id="Vector_6" d="M131.77 18.5596V5.53955H136.91C140.99 5.53955 143.82 8.13955 143.82 12.0396C143.82 15.9796 140.99 18.5596 136.93 18.5596H131.77ZM140.98 12.0396C140.98 9.74955 139.57 7.97955 136.92 7.97955H134.54V16.1196H136.9C139.48 16.1196 140.98 14.2696 140.98 12.0396Z" fill="#AAAAAA"></path><path id="Vector_7" d="M62.4302 29.8699C62.4302 25.8499 65.4602 23.1299 69.3802 23.1299C72.2302 23.1299 73.8902 24.6699 74.8102 26.3099L72.4302 27.4799C71.8802 26.4199 70.7102 25.5899 69.3802 25.5899C67.0002 25.5899 65.2802 27.4099 65.2802 29.8699C65.2802 32.3299 67.0002 34.1499 69.3802 34.1499C70.7102 34.1499 71.8802 33.3099 72.4302 32.2599L74.8102 33.4099C73.8902 35.0299 72.2302 36.6099 69.3802 36.6099C65.4502 36.6099 62.4302 33.8799 62.4302 29.8699Z" fill="#AAAAAA"></path><path id="Vector_8" d="M76.27 31.1596V23.3496H79.08V31.0796C79.08 32.8996 80.13 34.1496 82.15 34.1496C84.17 34.1496 85.2 32.8996 85.2 31.0796V23.3496H88.03V31.1596C88.03 34.3796 86.12 36.6096 82.15 36.6096C78.18 36.6096 76.27 34.3796 76.27 31.1596Z" fill="#AAAAAA"></path><path id="Vector_9" d="M97.7701 36.3796L95.2102 31.7496H93.1802V36.3796H90.4102V23.3496H96.5002C99.2102 23.3496 100.89 25.1296 100.89 27.5496C100.89 29.8396 99.4301 31.0896 98.0201 31.4196L100.97 36.3796H97.7701ZM98.0402 27.5296C98.0402 26.4596 97.2002 25.7896 96.1102 25.7896H93.1802V29.3096H96.1102C97.2002 29.3096 98.0402 28.6396 98.0402 27.5296Z" fill="#AAAAAA"></path><path id="Vector_10" d="M106.23 36.3796L101.21 23.3496H104.35L107.96 33.3496L111.57 23.3496H114.71L109.69 36.3796H106.23Z" fill="#AAAAAA"></path><path id="Vector_11" d="M115.73 36.3796V23.3496H124.95V25.7896H118.51V28.5196H124.82V30.9596H118.51V33.9296H124.95V36.3696H115.73V36.3796Z" fill="#AAAAAA"></path></g></g></g><g id="Group_5"><g id="Group_6"><path id="Vector_12" d="M31.5599 28.5898C30.6199 31.6298 29.1199 34.4198 27.1699 36.8498C30.7899 39.8698 35.4399 41.6898 40.4999 41.6898H48.2999V32.6898H40.4999C36.9299 32.6898 33.7299 31.0998 31.5599 28.5898Z" fill="#AAAAAA"></path><path id="Vector_13" d="M16.96 13.34C17.98 10.34 19.55 7.59 21.56 5.23C17.89 1.99 13.08 0 7.8 0H0V9H7.8C11.49 9 14.79 10.69 16.96 13.34Z" fill="#AAAAAA"></path></g><path id="Vector_14" d="M40.5 0.450195C29 0.450195 19.65 9.81019 19.65 21.3002C19.65 27.8302 14.34 33.1502 7.8 33.1502H0V42.1502H7.8C19.29 42.1502 28.65 32.8002 28.65 21.3002C28.65 14.7702 33.96 9.4502 40.5 9.4502H48.3V0.450195H40.5Z" fill="#AAAAAA"></path></g></g></g><defs><clipPath id="clip0_4506_23362"><rect width="143.82" height="42.15" fill="white"></rect></clipPath></defs></svg>