<svg xmlns="http://www.w3.org/2000/svg" width="301" height="341" viewBox="0 0 301 341" fill="none"><path d="M214.082 332.617C216.483 334.557 218.894 335.826 220.903 336.006C222.788 336.177 224.258 335.428 225.159 333.854C227.564 329.636 229.512 328.439 230.719 328.178C231.691 327.968 232.254 328.361 232.278 328.38C232.671 328.667 233.235 328.59 233.531 328.205C233.828 327.819 233.77 327.27 233.391 326.964C233.275 326.869 232.198 326.061 230.449 326.401C228.135 326.847 225.828 329.052 223.6 332.965C223.053 333.929 222.249 334.321 221.072 334.22C216.2 333.78 207.939 325.027 205.282 317.49C204.255 314.575 203.586 310.568 206.232 308.011C207.777 306.519 209.965 305.083 212.076 303.693C216.723 300.637 221.533 297.475 221.049 292.953C220.361 286.543 208.784 279.342 183.51 269.588C154.06 258.228 137.861 246.388 132.53 232.328C128.397 221.429 130.63 208.709 139.767 191.068C148.827 173.58 151.623 163.068 149.124 155.937C147.039 149.975 141.537 146.54 132.747 142.617C132.294 142.413 131.756 142.62 131.557 143.077C131.353 143.53 131.563 144.062 132.016 144.266C140.354 147.985 145.553 151.183 147.428 156.535C149.745 163.156 146.98 173.238 138.172 190.242C128.784 208.375 126.527 221.554 130.851 232.972C136.378 247.545 152.902 259.718 182.864 271.275C206.766 280.491 218.671 287.649 219.26 293.151C219.628 296.584 215.288 299.432 211.093 302.196C208.91 303.636 206.655 305.118 204.985 306.726C202.347 309.273 201.859 313.203 203.587 318.097C205.485 323.477 209.776 329.137 214.096 332.628L214.082 332.617Z" fill="#0B0B0B"></path><g style="mix-blend-mode:multiply"><path d="M300.012 78.5818C299.964 76.2426 299.146 73.9224 297.568 72.1442C297.596 71.8114 297.606 71.4691 297.596 71.1268C297.577 70.3851 297.482 69.6624 297.33 68.9587L297.568 68.8351C298.395 68.4167 298.766 67.3612 298.376 66.4578L297.92 65.3928C296.779 62.7208 294.078 61.3705 291.52 62.0076L195.527 7.22622L195.289 6.6652C194.119 3.93611 191.314 2.58583 188.709 3.33704L188.519 3.23246C182.633 -0.0861836 175.691 0.08496 169.957 3.68887L63.1995 70.8225C60.3182 72.6292 58.6446 75.8622 58.7207 79.4661C58.7207 79.7134 58.7397 79.9606 58.7588 80.1983C57.1803 81.9765 56.372 84.2777 56.3149 86.5884V110.532C56.3815 113.841 57.9885 117.122 61.1075 118.89L167.703 179.729C173.599 183.057 180.664 182.886 186.408 179.263L295.581 110.608C298.471 108.792 299.936 105.673 300.012 102.525V87.3967V78.5818Z" fill="#BCC4C1"></path></g><path d="M278.873 91.3421H273.367L151.538 26.9281C144.796 23.4098 136.723 23.5904 130.152 27.4226L5.86962 99.8241H0.27832V125.185C0.354392 128.694 2.18963 132.164 5.76502 134.038L127.623 198.471C134.365 201.998 142.438 201.808 149.009 197.986L273.805 125.27C277.114 123.34 278.788 120.04 278.873 116.712V100.689V91.3516V91.3421Z" fill="#B39FF7"></path><path d="M137.874 201.267C134.327 201.267 130.771 200.411 127.5 198.699L5.6418 134.266C2.19954 132.469 0.0980447 129.074 0.0219727 125.185V99.5583H5.80345L130.02 27.1853C136.714 23.2866 144.797 23.1059 151.662 26.6908L273.434 91.0763H279.14V116.703C279.035 120.364 277.095 123.645 273.929 125.489L149.133 198.205C145.633 200.24 141.754 201.267 137.865 201.267H137.874ZM0.544968 100.091V125.176C0.62104 128.856 2.61793 132.079 5.88903 133.791L127.747 198.224C134.441 201.723 142.343 201.542 148.876 197.739L273.672 125.023C276.677 123.274 278.522 120.164 278.607 116.694V91.6088L273.254 91.5802L151.424 27.1663C144.73 23.6669 136.828 23.8476 130.305 27.6512L5.94608 100.091H0.544968Z" fill="#0B0B0B"></path><path d="M271.874 91.324L150.539 26.929C143.845 23.4297 135.829 23.5913 129.277 27.3474V199.185C131.968 200.164 134.802 200.601 137.616 200.506V152.999H149.74V196.503L272.302 124.786C275.611 122.856 277.285 119.556 277.37 116.228V91.3145H271.874V91.324Z" fill="#D3C6F9"></path><path d="M136.855 200.811C134.231 200.811 131.644 200.354 129.181 199.461L128.991 199.394V27.1954L129.134 27.1098C135.809 23.2777 143.854 23.116 150.662 26.6819L271.94 91.0484H277.655V116.247C277.55 119.918 275.611 123.208 272.435 125.053L149.445 197.017V153.294H137.892V200.792H137.616C137.359 200.811 137.102 200.811 136.846 200.811H136.855ZM129.562 198.985C132.063 199.869 134.668 200.278 137.331 200.231V152.714H150.035V196.009L272.159 124.549C275.154 122.799 276.999 119.689 277.084 116.228V91.6094L271.74 91.5714L150.405 27.1764C143.816 23.7341 136.037 23.8577 129.571 27.5092V198.976L129.562 198.985Z" fill="#0B0B0B"></path><path d="M273.387 84.5537L151.538 20.1302C144.796 16.6119 136.723 16.7926 130.153 20.6247L5.35637 93.3211C-1.5852 97.3719 -1.35698 107.48 5.76526 111.207L127.623 175.641C134.365 179.168 142.438 178.978 149.009 175.156L273.805 102.44C280.747 98.3894 280.518 88.2813 273.396 84.5537H273.387Z" fill="#8B75F3"></path><path d="M137.874 178.436C134.327 178.436 130.771 177.58 127.5 175.868L5.64158 111.445C2.20883 109.647 0.107342 106.262 0.0217609 102.392C-0.0638202 98.5219 1.87602 95.0417 5.22319 93.0923L130.019 20.3864C136.714 16.4877 144.796 16.3071 151.662 19.892L273.52 84.325C276.953 86.1222 279.054 89.5074 279.14 93.3776C279.225 97.2477 277.285 100.728 273.938 102.677L149.142 175.393C145.643 177.428 141.763 178.455 137.874 178.455V178.436ZM141.288 17.857C137.493 17.857 133.709 18.8555 130.295 20.8429L5.48944 93.5487C2.31343 95.403 0.468684 98.7026 0.554265 102.373C0.639846 106.053 2.63674 109.258 5.88882 110.96L127.747 175.393C134.441 178.892 142.343 178.711 148.876 174.908L273.672 102.192C276.848 100.338 278.693 97.0385 278.607 93.368C278.522 89.6881 276.525 86.4835 273.273 84.7814L151.424 20.3484C148.229 18.6748 144.758 17.8475 141.297 17.8475L141.288 17.857Z" fill="#0B0B0B"></path><path d="M273.387 82.5088L151.538 18.0853C144.796 14.567 136.723 14.7476 130.153 18.5798L5.35637 91.2761C-1.5852 95.327 -1.35698 105.435 5.76526 109.163L127.623 173.596C134.365 177.123 142.438 176.933 149.009 173.101L273.805 100.386C280.747 96.3349 280.518 86.2268 273.396 82.4993L273.387 82.5088Z" fill="#D3C6F9"></path><path d="M137.874 176.411C134.317 176.411 130.761 175.555 127.49 173.843L5.63204 109.41C2.18978 107.613 0.0882864 104.218 0.00270536 100.339C-0.0828757 96.459 1.86647 92.9787 5.21364 91.0198L130.01 18.314C136.704 14.4153 144.806 14.2251 151.671 17.8195L273.529 82.2525C276.972 84.0497 279.073 87.4445 279.159 91.3241C279.244 95.2038 277.295 98.6841 273.948 100.643L149.151 173.358C145.652 175.393 141.763 176.42 137.874 176.42V176.411ZM141.288 15.8321C137.493 15.8321 133.709 16.8306 130.305 18.818L5.49891 91.5238C2.33241 93.3686 0.487665 96.6682 0.573246 100.329C0.658827 104 2.64621 107.204 5.89829 108.906L127.756 173.339C134.451 176.839 142.334 176.658 148.866 172.854L273.662 100.139C276.829 98.2942 278.674 94.9946 278.588 91.3336C278.503 87.6632 276.515 84.4586 273.263 82.7565L151.415 18.3235C148.22 16.6499 144.758 15.8226 141.297 15.8226L141.288 15.8321Z" fill="#0B0B0B"></path><path d="M275.792 83.2608L270.41 81.0833L151.272 18.0861C144.682 14.6438 136.79 14.8245 130.362 18.5616L8.82705 89.3751L3.35938 91.9711V97.2961C3.43545 100.729 5.23265 104.124 8.72246 105.949L127.88 168.956C134.47 172.398 142.362 172.218 148.79 168.481L270.829 97.3722C274.062 95.4894 275.697 92.2659 275.783 89.0043V83.2513L275.792 83.2608Z" fill="#B39FF7"></path><path d="M137.912 171.704C134.441 171.704 130.961 170.867 127.756 169.193L8.59898 106.187C5.23279 104.428 3.16933 101.099 3.09326 97.3053V91.7996L8.71308 89.1371L130.229 18.3425C136.771 14.5294 144.682 14.3487 151.396 17.8575L270.534 80.8547L276.059 83.0798V89.0135C275.964 92.5984 274.062 95.8124 270.962 97.6096L148.923 168.718C145.5 170.715 141.706 171.713 137.902 171.713L137.912 171.704ZM3.62577 92.1324V97.2958C3.70184 100.89 5.65118 104.047 8.84621 105.711L128.004 168.718C134.546 172.141 142.267 171.961 148.657 168.243L270.696 97.1342C273.624 95.4225 275.431 92.3796 275.517 88.9944V83.4317L270.306 81.3302L151.139 18.3235C144.597 14.9003 136.875 15.0809 130.485 18.799L8.96032 89.603L3.62577 92.1324Z" fill="#0B0B0B"></path><path d="M270.429 74.8252L151.272 11.8185C144.682 8.37627 136.79 8.55694 130.362 12.294L8.32309 83.4023C1.53366 87.3581 1.75237 97.2474 8.72247 100.889L127.88 163.896C134.47 167.338 142.362 167.158 148.79 163.421L270.829 92.3123C277.618 88.3565 277.39 78.4671 270.429 74.8252Z" fill="#D3C6F9"></path><path d="M137.912 166.663C134.441 166.663 130.961 165.826 127.747 164.153L8.58928 101.146C5.22309 99.3871 3.15964 96.0684 3.07406 92.2743C2.98848 88.4802 4.89028 85.0665 8.1804 83.1552L130.219 12.0564C136.771 8.24327 144.692 8.06259 151.405 11.5714L270.562 74.5781C273.929 76.3373 275.992 79.6559 276.078 83.45C276.163 87.2441 274.261 90.6578 270.981 92.5691L148.942 163.677C145.519 165.674 141.715 166.673 137.912 166.673V166.663ZM141.249 9.63157C137.541 9.63157 133.842 10.611 130.514 12.5508L8.46567 83.6497C5.36573 85.4564 3.56853 88.6704 3.6446 92.2553C3.73018 95.8402 5.67002 98.9687 8.85554 100.633L128.013 163.639C134.555 167.063 142.267 166.882 148.647 163.164L270.686 92.0651C273.786 90.2584 275.583 87.0444 275.507 83.4595C275.431 79.8746 273.482 76.7461 270.296 75.0821L151.139 12.0754C148.02 10.4398 144.625 9.63157 141.249 9.63157Z" fill="#0B0B0B"></path><path d="M137.902 163.106C134.945 163.106 132.007 162.384 129.382 161.014L10.2437 98.0173C8.01857 96.8572 6.66829 94.6797 6.61124 92.1883C6.55419 89.6969 7.80937 87.4623 9.95841 86.2071L131.997 15.1083C134.802 13.4727 138.007 12.6074 141.249 12.6074C144.207 12.6074 147.145 13.3301 149.76 14.6994L268.908 77.6966C271.133 78.8567 272.483 81.0342 272.54 83.5256C272.597 86.0169 271.342 88.2516 269.193 89.5068L147.154 160.615C144.349 162.251 141.145 163.116 137.902 163.116V163.106Z" fill="white"></path><path d="M137.902 163.383C134.907 163.383 131.921 162.651 129.258 161.262L10.1201 98.2557C7.81897 97.048 6.41164 94.7849 6.34507 92.1984C6.28802 89.612 7.58124 87.2823 9.82537 85.9795L131.864 14.8807C134.707 13.2261 137.959 12.3418 141.249 12.3418C144.245 12.3418 147.231 13.074 149.884 14.4623L269.031 77.4595C271.333 78.6671 272.74 80.9303 272.806 83.5167C272.863 86.1032 271.561 88.4328 269.326 89.7356L147.288 160.844C144.444 162.499 141.192 163.383 137.902 163.383ZM141.249 12.8838C138.054 12.8838 134.897 13.7396 132.13 15.3466L10.0916 86.4455C8.02817 87.6531 6.82052 89.7927 6.87758 92.1889C6.93463 94.5757 8.23737 96.6676 10.3674 97.7897L129.515 160.787C132.092 162.137 134.992 162.85 137.902 162.85C141.107 162.85 144.254 162.004 147.021 160.388L269.06 89.2792C271.123 88.0715 272.331 85.932 272.274 83.5357C272.217 81.149 270.914 79.057 268.784 77.9349L149.636 14.9378C147.059 13.5875 144.159 12.8743 141.249 12.8743V12.8838Z" fill="#0B0B0B"></path><g style="mix-blend-mode:multiply"><path d="M147.742 17.2861C147.115 15.9263 146.021 14.8898 144.728 14.2717L149.597 12.0276C152.83 10.5347 156.671 11.942 158.164 15.1846L158.687 16.3161C159.125 17.267 158.706 18.3891 157.765 18.836L147.001 23.7997C148.36 21.974 148.741 19.4636 147.742 17.2956V17.2861Z" fill="#CDD9E2"></path></g><g style="mix-blend-mode:multiply"><path d="M266.065 79.4941C265.437 78.1343 264.344 77.0978 263.05 76.4797L267.919 74.2356C271.152 72.7427 274.994 74.15 276.486 77.3926L277.01 78.5242C277.447 79.4751 277.029 80.5971 276.087 81.044L265.323 86.0077C266.683 84.182 267.063 81.6716 266.065 79.5036V79.4941Z" fill="#CDD9E2"></path></g><g style="mix-blend-mode:multiply"><path d="M143.445 151.325C142.817 149.965 141.723 148.929 140.43 148.311L145.299 146.067C148.532 144.574 152.373 145.981 153.866 149.224L154.389 150.355C154.827 151.306 154.408 152.428 153.458 152.875L142.703 157.839C144.063 156.013 144.443 153.503 143.445 151.335V151.325Z" fill="#CDD9E2"></path></g><g style="mix-blend-mode:multiply"><path d="M21.9162 89.1552C21.2886 87.7954 20.1951 86.7589 18.9019 86.1408L23.7705 83.8967C27.0035 82.4038 30.8452 83.8112 32.3381 87.0537L32.8611 88.1853C33.2985 89.1362 32.8801 90.2583 31.9292 90.7052L21.1745 95.6689C22.5343 93.8432 22.9147 91.3328 21.9162 89.1647V89.1552Z" fill="#CDD9E2"></path></g><path d="M137.912 166.702C134.431 166.702 130.942 165.865 127.737 164.182L8.5702 101.175C5.1945 99.4063 3.12154 96.0782 3.03596 92.2651C2.95038 88.452 4.86169 85.0287 8.16131 83.1174L130.2 12.0186C136.761 8.19596 144.692 8.01528 151.424 11.5336L270.581 74.5403C273.957 76.309 276.03 79.6371 276.116 83.4502C276.201 87.2633 274.29 90.6866 271 92.5979L148.961 163.706C145.528 165.703 141.725 166.711 137.912 166.711V166.702ZM141.249 9.66985C137.55 9.66985 133.861 10.6398 130.533 12.5796L8.48462 83.688C5.39419 85.4852 3.6065 88.6897 3.68257 92.2651C3.76815 95.8404 5.69848 98.9594 8.86498 100.614L128.022 163.621C134.555 167.034 142.248 166.863 148.619 163.145L270.657 92.0369C273.748 90.2397 275.536 87.0351 275.459 83.4597C275.374 79.8844 273.434 76.7654 270.277 75.1108L151.12 12.1042C148.001 10.4781 144.625 9.66033 141.249 9.66033V9.66985Z" fill="#0B0B0B"></path><path d="M139.575 134.828C191.262 134.828 233.163 113.664 233.163 87.5584C233.163 61.4523 191.262 40.2891 139.575 40.2891C87.8884 40.2891 45.9878 61.4523 45.9878 87.5584C45.9878 113.664 87.8884 134.828 139.575 134.828Z" fill="#D3C6F9"></path><path d="M139.576 135.113C87.818 135.113 45.7026 113.784 45.7026 87.5585C45.7026 61.3326 87.818 40.0039 139.576 40.0039C191.333 40.0039 233.448 61.3326 233.448 87.5585C233.448 113.784 191.333 135.113 139.576 135.113ZM139.576 40.584C88.1318 40.584 46.2732 61.6559 46.2732 87.5679C46.2732 113.48 88.1318 134.552 139.576 134.552C191.019 134.552 232.878 113.48 232.878 87.5679C232.878 61.6559 191.019 40.584 139.576 40.584Z" fill="#0B0B0B"></path><path d="M139.576 134.827C189.031 134.827 229.122 114.579 229.122 89.6018C229.122 64.6248 189.031 44.377 139.576 44.377C90.1205 44.377 50.0293 64.6248 50.0293 89.6018C50.0293 114.579 90.1205 134.827 139.576 134.827Z" fill="#B39FF7"></path><path d="M139.576 135.093C90.0528 135.093 49.7632 114.687 49.7632 89.6024C49.7632 64.5177 90.0528 44.1113 139.576 44.1113C189.099 44.1113 229.388 64.5177 229.388 89.6024C229.388 114.687 189.099 135.093 139.576 135.093ZM139.576 44.6438C90.3476 44.6438 50.3052 64.8124 50.3052 89.6024C50.3052 114.392 90.3571 134.561 139.576 134.561C188.794 134.561 228.846 114.392 228.846 89.6024C228.846 64.8124 188.794 44.6438 139.576 44.6438Z" fill="#0B0B0B"></path><path d="M169.252 175.365C169.252 173.644 169.271 171.143 169.281 169.479C169.281 168.395 169.908 167.254 170.926 166.502C180.33 159.58 190.295 153.741 200.613 149.11C201.497 148.711 202.324 149.158 202.315 150.023L202.277 155.881C202.277 157.108 201.459 158.401 200.242 159.114L171.144 176.164C170.222 176.706 169.243 176.287 169.252 175.355V175.365Z" fill="#C2C4CF"></path><path d="M173.94 175.098C173.731 174.984 173.616 174.775 173.607 174.527C173.588 173.329 173.512 169.735 173.521 168.356C173.521 167.272 174.149 166.131 175.166 165.38C189.734 154.663 202.105 149.148 204.92 147.959C205.3 147.797 205.69 147.797 205.985 147.959L208.581 149.566L207.621 155.566C207.621 156.793 206.803 158.086 205.586 158.799L176.498 176.695L173.949 175.098H173.94Z" fill="#0B0B0B"></path><path d="M176.498 177.019L173.807 175.336C173.522 175.174 173.35 174.889 173.341 174.537C173.312 173.12 173.246 169.697 173.255 168.356C173.255 167.177 173.93 165.96 175.005 165.171C189.744 154.331 202.419 148.73 204.816 147.722C205.263 147.532 205.738 147.532 206.109 147.722L208.867 149.433L207.878 155.614C207.878 156.888 207.003 158.277 205.719 159.028L176.488 177.009L176.498 177.019ZM205.491 148.112C205.348 148.112 205.187 148.15 205.025 148.216C202.648 149.224 190.02 154.796 175.328 165.608C174.387 166.302 173.797 167.358 173.797 168.366C173.797 169.697 173.854 173.12 173.883 174.537C173.883 174.689 173.959 174.813 174.073 174.879H174.092L176.507 176.401L205.453 158.591C206.584 157.925 207.355 156.717 207.364 155.586L208.296 149.719L205.852 148.207C205.748 148.15 205.633 148.121 205.5 148.121L205.491 148.112Z" fill="#0B0B0B"></path><path d="M176.032 175.829C176.032 174.108 176.051 171.616 176.06 169.943C176.06 168.859 176.688 167.717 177.705 166.966C187.11 160.044 197.075 154.205 207.393 149.574C208.277 149.175 209.104 149.622 209.095 150.487L209.057 156.345C209.057 157.571 208.239 158.865 207.022 159.578L177.924 176.637C177.002 177.179 176.022 176.761 176.032 175.829Z" fill="#FFA5F6"></path><path d="M177.097 177.17C176.84 177.17 176.593 177.113 176.374 176.98C175.975 176.742 175.737 176.324 175.746 175.829L175.775 169.953C175.775 168.774 176.45 167.547 177.534 166.748C186.929 159.826 196.942 153.968 207.269 149.328C207.811 149.09 208.381 149.099 208.8 149.375C209.171 149.613 209.38 150.022 209.38 150.497L209.342 156.355C209.342 157.677 208.457 159.074 207.164 159.826L178.067 176.885C177.743 177.075 177.41 177.17 177.087 177.17H177.097ZM208.029 149.727C207.858 149.727 207.687 149.765 207.506 149.851C197.208 154.472 187.243 160.31 177.876 167.205C176.944 167.889 176.355 168.945 176.355 169.943L176.326 175.829C176.326 176.124 176.45 176.352 176.669 176.485C176.964 176.656 177.391 176.618 177.791 176.39L206.888 159.331C208.01 158.675 208.771 157.467 208.781 156.345L208.819 150.488C208.819 150.212 208.705 149.984 208.505 149.851C208.372 149.765 208.22 149.727 208.048 149.727H208.029Z" fill="#0B0B0B"></path><path d="M183.563 168.804L183.592 169.764L183.268 169.955V170.278L182.945 170.468V170.791L181.966 171.371L181.633 171.562L180.653 172.142V171.818L180.321 172.008V171.685L179.988 171.875L179.969 171.238V170.915L179.95 170.592V170.268L179.912 169.308L180.244 169.118V168.794L180.568 168.604V168.281L181.214 167.891L181.547 167.701L181.87 167.511L182.859 166.931V167.254L183.192 167.064V167.387L183.525 167.197L183.544 167.834L183.573 168.794L183.563 168.804ZM181.557 168.367L181.224 168.557L180.901 168.747V169.07L180.577 169.26V169.584L180.596 169.907L180.615 170.544V170.867L180.634 171.191L180.958 171.001V171.324L181.29 171.134L181.614 170.943L181.947 170.753L182.27 170.563L182.603 170.373V170.05L182.926 169.859V169.536L182.907 169.213L182.878 168.252V167.929L182.546 168.119V167.796L182.213 167.986L181.889 168.176L181.557 168.367Z" fill="#0B0B0B"></path><path d="M187.148 165.704L187.119 164.743V164.42L187.766 164.03V164.354L187.785 164.677L187.852 167.244L187.871 167.881L187.215 168.271L187.196 167.634L186.872 167.824V167.501L186.539 167.691V167.368L186.207 167.558V167.235L185.874 167.425V167.102L185.541 167.292V166.969L185.208 167.159V166.835L184.875 167.026L184.904 167.986L184.942 169.593L184.609 169.783L184.286 169.973V169.65L184.267 169.327V169.003L184.238 168.366V168.043L184.219 167.72V167.396L184.2 167.073V166.75L184.181 166.427V166.103L184.504 165.913L184.837 165.723V166.046L185.17 165.856V166.179L185.503 165.989V166.312L185.836 166.122V166.446L186.169 166.255V166.579L186.501 166.389V166.712L186.834 166.522V166.845L187.167 166.655L187.138 165.694L187.148 165.704Z" fill="#0B0B0B"></path><path d="M188.451 164.611V164.288L188.118 164.478V164.155L188.099 163.831L188.755 163.441V163.765L189.088 163.575V163.898L189.421 163.708V164.031L189.754 163.841V164.164L190.087 163.974V164.297L190.419 164.107V164.43L190.752 164.24V164.563L191.085 164.373V164.697L191.418 164.506V164.83L191.751 164.64V164.963L192.083 164.773V165.096L192.102 165.419L191.779 165.609L191.456 165.8V165.476L191.123 165.667V165.343L190.79 165.533V165.21L190.457 165.4V165.077L190.125 165.267V164.944L189.792 165.134V164.811L189.459 165.001V164.678L189.126 164.868V164.544L188.793 164.735V164.411L188.46 164.602L188.451 164.611Z" fill="#0B0B0B"></path><path d="M196.362 161.244L196.39 162.205L196.067 162.395V162.718L195.744 162.908V163.232L194.764 163.812L194.441 164.002L193.452 164.582V164.259L193.119 164.449V164.126L192.787 164.316L192.768 163.679V163.355L192.748 163.032V162.709L192.71 161.748L193.034 161.558V161.235L193.357 161.045V160.721L194.004 160.332L194.327 160.141L194.66 159.951L195.639 159.371V159.694L195.972 159.504V159.828L196.305 159.637L196.324 160.274L196.352 161.235L196.362 161.244ZM194.356 160.807L194.023 160.997L193.699 161.187V161.511L193.376 161.701V162.024L193.395 162.347L193.414 162.985V163.308L193.433 163.631L193.756 163.441V163.764L194.089 163.574L194.422 163.384L194.745 163.194L195.078 163.004L195.401 162.813V162.49L195.725 162.3V161.977L195.706 161.653L195.677 160.693V160.37L195.344 160.56V160.236L195.012 160.427L194.688 160.617L194.356 160.807Z" fill="#0B0B0B"></path><path d="M196.971 159.247V158.923L196.952 158.6L197.275 158.41L197.608 158.22L198.587 157.64L200.556 156.479L200.575 157.117L200.251 157.307L199.918 157.497L199.262 157.887L198.939 158.077L198.606 158.267L197.95 158.657L197.627 158.847L197.655 159.808L199.947 158.448L199.966 159.085L197.674 160.445L197.712 162.052L197.389 162.242L197.056 162.432V162.109L197.037 161.786V161.462L197.009 160.825V160.502L196.99 160.179V159.855L196.971 159.532V159.209V159.247Z" fill="#0B0B0B"></path><path d="M201.24 156.727V156.404L201.221 156.08L201.544 155.89L201.877 155.7L202.857 155.12L204.825 153.96L204.844 154.597L204.521 154.787L204.188 154.977L203.532 155.367L203.209 155.557L202.876 155.748L202.22 156.138L201.896 156.328L201.925 157.288L204.217 155.928L204.236 156.565L201.944 157.925L201.982 159.532L201.659 159.722L201.326 159.913V159.589L201.307 159.266V158.943L201.278 158.306V157.982L201.259 157.659V157.336L201.24 157.012V156.689V156.727Z" fill="#0B0B0B"></path><path d="M260.122 87.5005C264.706 87.5005 268.423 85.4952 268.423 83.0217C268.423 80.5482 264.706 78.543 260.122 78.543C255.537 78.543 251.82 80.5482 251.82 83.0217C251.82 85.4952 255.537 87.5005 260.122 87.5005Z" fill="#0B0B0B"></path><path d="M260.122 87.7673C255.396 87.7673 251.554 85.6373 251.554 83.0223C251.554 80.4074 255.396 78.2773 260.122 78.2773C264.848 78.2773 268.689 80.4074 268.689 83.0223C268.689 85.6373 264.848 87.7673 260.122 87.7673ZM260.122 78.8098C255.691 78.8098 252.087 80.7021 252.087 83.0223C252.087 85.3425 255.691 87.2348 260.122 87.2348C264.553 87.2348 268.157 85.3425 268.157 83.0223C268.157 80.7021 264.553 78.8098 260.122 78.8098Z" fill="#0B0B0B"></path><path d="M267.615 77.5742H252.619V83.5364H252.638C252.686 85.6759 256.014 87.4065 260.122 87.4065C264.23 87.4065 267.558 85.6759 267.605 83.5364V77.5742H267.615Z" fill="#0B0B0B"></path><path d="M260.122 87.6724C255.995 87.6724 252.686 85.9893 252.391 83.8023H252.372L252.353 83.536V77.3076H267.891L267.862 83.8023C267.567 85.9893 264.258 87.6724 260.131 87.6724H260.122ZM252.886 83.3268L252.905 83.5265C252.952 85.5139 256.185 87.1399 260.122 87.1399C264.059 87.1399 267.292 85.5234 267.339 83.5265V83.2698V77.8401H252.876V83.3268H252.886Z" fill="#0B0B0B"></path><path d="M267.615 77.5066C267.615 79.6746 264.258 81.4243 260.122 81.4243C255.986 81.4243 252.629 79.6746 252.629 77.5066C252.629 75.3385 255.986 73.5889 260.122 73.5889C264.258 73.5889 267.615 75.3385 267.615 77.5066Z" fill="#FFA5F6"></path><path d="M260.122 81.7097C255.757 81.7097 252.343 79.8649 252.343 77.5067C252.343 75.1485 255.757 73.3037 260.122 73.3037C264.486 73.3037 267.9 75.1485 267.9 77.5067C267.9 79.8649 264.486 81.7097 260.122 81.7097ZM260.122 73.8743C256.213 73.8743 252.923 75.5383 252.923 77.5067C252.923 79.4751 256.223 81.1392 260.122 81.1392C264.02 81.1392 267.329 79.4751 267.329 77.5067C267.329 75.5383 264.03 73.8743 260.122 73.8743Z" fill="#0B0B0B"></path><path d="M149.016 20.8518C149.016 23.3242 145.298 25.3305 140.715 25.3305C136.132 25.3305 132.414 23.3242 132.414 20.8518C132.414 18.3795 136.132 16.373 140.715 16.373C145.298 16.373 149.016 18.3795 149.016 20.8518Z" fill="#0B0B0B"></path><path d="M140.715 25.5974C135.989 25.5974 132.147 23.4674 132.147 20.8524C132.147 18.2375 135.989 16.1074 140.715 16.1074C145.441 16.1074 149.283 18.2375 149.283 20.8524C149.283 23.4674 145.441 25.5974 140.715 25.5974ZM140.715 16.6399C136.284 16.6399 132.68 18.5322 132.68 20.8524C132.68 23.1726 136.284 25.0649 140.715 25.0649C145.146 25.0649 148.75 23.1726 148.75 20.8524C148.75 18.5322 145.146 16.6399 140.715 16.6399Z" fill="#0B0B0B"></path><path d="M148.209 15.4043H133.213V21.3664H133.232C133.279 23.506 136.608 25.2366 140.715 25.2366C144.823 25.2366 148.152 23.506 148.199 21.3664V15.4043H148.209Z" fill="#0B0B0B"></path><path d="M140.715 25.5123C136.588 25.5123 133.279 23.8292 132.984 21.6421H132.965L132.946 21.3758V15.1475H148.484L148.455 21.6421C148.161 23.8292 144.852 25.5123 140.725 25.5123H140.715ZM133.479 21.1666L133.498 21.3663C133.545 23.3537 136.778 24.9798 140.715 24.9798C144.652 24.9798 147.885 23.3632 147.932 21.3663V21.1096V15.68H133.469V21.1666H133.479Z" fill="#0B0B0B"></path><path d="M148.199 15.3367C148.199 17.5047 144.842 19.2544 140.706 19.2544C136.57 19.2544 133.213 17.5047 133.213 15.3367C133.213 13.1686 136.57 11.4189 140.706 11.4189C144.842 11.4189 148.199 13.1686 148.199 15.3367Z" fill="#FFA5F6"></path><path d="M140.715 19.5397C136.351 19.5397 132.937 17.695 132.937 15.3368C132.937 12.9785 136.351 11.1338 140.715 11.1338C145.08 11.1338 148.494 12.9785 148.494 15.3368C148.494 17.695 145.08 19.5397 140.715 19.5397ZM140.715 11.7043C136.807 11.7043 133.517 13.3684 133.517 15.3368C133.517 17.3051 136.75 18.9692 140.715 18.9692C144.681 18.9692 147.914 17.3051 147.914 15.3368C147.914 13.3684 144.614 11.7043 140.715 11.7043Z" fill="#0B0B0B"></path><path d="M145.137 154.854C145.137 157.326 141.419 159.332 136.836 159.332C132.253 159.332 128.535 157.326 128.535 154.854C128.535 152.381 132.253 150.375 136.836 150.375C141.419 150.375 145.137 152.381 145.137 154.854Z" fill="#0B0B0B"></path><path d="M136.836 159.598C132.11 159.598 128.268 157.468 128.268 154.853C128.268 152.238 132.11 150.108 136.836 150.108C141.562 150.108 145.403 152.238 145.403 154.853C145.403 157.468 141.562 159.598 136.836 159.598ZM136.836 150.641C132.404 150.641 128.801 152.533 128.801 154.853C128.801 157.174 132.404 159.066 136.836 159.066C141.267 159.066 144.871 157.174 144.871 154.853C144.871 152.533 141.267 150.641 136.836 150.641Z" fill="#0B0B0B"></path><path d="M144.329 149.416H129.333V155.378H129.352C129.4 157.518 132.728 159.248 136.836 159.248C140.944 159.248 144.272 157.518 144.319 155.378V149.416H144.329Z" fill="#0B0B0B"></path><path d="M136.836 159.514C132.709 159.514 129.4 157.831 129.105 155.644H129.086L129.067 155.378V149.149H144.605L144.576 155.644C144.281 157.831 140.972 159.514 136.845 159.514H136.836ZM129.599 155.169L129.618 155.368C129.666 157.356 132.899 158.982 136.836 158.982C140.772 158.982 144.006 157.365 144.053 155.368V155.112V149.682H129.59V155.169H129.599Z" fill="#0B0B0B"></path><path d="M144.319 149.338C144.319 151.506 140.963 153.255 136.826 153.255C132.69 153.255 129.333 151.506 129.333 149.338C129.333 147.17 132.69 145.42 136.826 145.42C140.963 145.42 144.319 147.17 144.319 149.338Z" fill="#FFA5F6"></path><path d="M136.836 153.542C132.471 153.542 129.058 151.697 129.058 149.339C129.058 146.981 132.471 145.136 136.836 145.136C141.201 145.136 144.614 146.981 144.614 149.339C144.614 151.697 141.201 153.542 136.836 153.542ZM136.836 145.706C132.928 145.706 129.638 147.37 129.638 149.339C129.638 151.307 132.937 152.971 136.836 152.971C140.735 152.971 144.034 151.345 144.034 149.339C144.034 147.332 140.735 145.706 136.836 145.706Z" fill="#0B0B0B"></path><path d="M16.4293 97.1616C21.014 97.1616 24.7307 95.1564 24.7307 92.6828C24.7307 90.2093 21.014 88.2041 16.4293 88.2041C11.8446 88.2041 8.12793 90.2093 8.12793 92.6828C8.12793 95.1564 11.8446 97.1616 16.4293 97.1616Z" fill="#0B0B0B"></path><path d="M16.4294 97.4285C11.7035 97.4285 7.86182 95.2984 7.86182 92.6835C7.86182 90.0685 11.7035 87.9385 16.4294 87.9385C21.1554 87.9385 24.997 90.0685 24.997 92.6835C24.997 95.2984 21.1554 97.4285 16.4294 97.4285ZM16.4294 88.471C11.9982 88.471 8.39432 90.3633 8.39432 92.6835C8.39432 95.0037 11.9982 96.896 16.4294 96.896C20.8606 96.896 24.4645 95.0037 24.4645 92.6835C24.4645 90.3633 20.8606 88.471 16.4294 88.471Z" fill="#0B0B0B"></path><path d="M23.9227 87.2451H8.91748V93.2073H8.9365C8.98404 95.3468 12.3122 97.0774 16.4201 97.0774C20.528 97.0774 23.8561 95.3468 23.9037 93.2073V87.2451H23.9227Z" fill="#0B0B0B"></path><path d="M16.43 97.3433C12.3031 97.3433 8.99395 95.6603 8.69917 93.4732H8.68015L8.66113 93.2069V86.9785H24.1893L24.1608 93.4732C23.866 95.6603 20.5569 97.3433 16.43 97.3433ZM9.19364 92.9977L9.21266 93.1974C9.2602 95.1848 12.4933 96.8108 16.43 96.8108C20.3667 96.8108 23.5998 95.1943 23.6473 93.1974V92.9407V87.511H9.18413V92.9977H9.19364Z" fill="#0B0B0B"></path><path d="M23.9134 87.1687C23.9134 89.3367 20.5568 91.0864 16.4203 91.0864C12.2839 91.0864 8.92725 89.3367 8.92725 87.1687C8.92725 85.0006 12.2839 83.251 16.4203 83.251C20.5568 83.251 23.9134 85.0006 23.9134 87.1687Z" fill="#FFA5F6"></path><path d="M16.4297 91.3718C12.0651 91.3718 8.65137 89.527 8.65137 87.1688C8.65137 84.8106 12.0651 82.9658 16.4297 82.9658C20.7944 82.9658 24.2081 84.8106 24.2081 87.1688C24.2081 89.527 20.7944 91.3718 16.4297 91.3718ZM16.4297 83.5364C12.5215 83.5364 9.22191 85.2004 9.22191 87.1688C9.22191 89.1372 12.5215 90.8013 16.4297 90.8013C20.3379 90.8013 23.6281 89.1372 23.6281 87.1688C23.6281 85.2004 20.3284 83.5364 16.4297 83.5364Z" fill="#0B0B0B"></path><path d="M37.7766 143.529L28.3057 138.346V134.058L37.7766 139.24V143.529Z" fill="#D3C6F9"></path><path d="M38.062 144.005L28.0205 138.508V133.573L38.062 139.069V144.005ZM28.591 138.166L37.4915 143.035V139.402L28.591 134.534V138.166Z" fill="#0B0B0B"></path><path d="M37.3015 140.761L29.8369 136.672V134.951L37.3015 139.031V140.761Z" fill="#0B0B0B"></path><path d="M37.3016 141.027C37.3016 141.027 37.216 141.018 37.178 140.999L29.7134 136.91C29.6279 136.862 29.5708 136.777 29.5708 136.672V134.942C29.5708 134.847 29.6183 134.761 29.7039 134.713C29.7895 134.666 29.8846 134.666 29.9702 134.713L37.4347 138.793C37.5203 138.84 37.5774 138.926 37.5774 139.03V140.761C37.5774 140.856 37.5298 140.942 37.4443 140.989C37.4062 141.018 37.3587 141.027 37.3111 141.027H37.3016ZM30.1033 136.52L37.0354 140.314V139.192L30.1033 135.398V136.52Z" fill="#0B0B0B"></path><path d="M24.6355 136.397L15.1646 131.215V126.936L24.6355 132.118V136.397Z" fill="#0B0B0B"></path><path d="M24.6357 136.663C24.6357 136.663 24.5501 136.654 24.512 136.635L15.0411 131.453C14.9555 131.405 14.8984 131.319 14.8984 131.215V126.936C14.8984 126.841 14.946 126.755 15.0316 126.708C15.1171 126.66 15.2122 126.66 15.2978 126.708L24.7688 131.89C24.8544 131.937 24.9114 132.023 24.9114 132.128V136.407C24.9114 136.502 24.8639 136.587 24.7783 136.635C24.7403 136.663 24.6927 136.673 24.6452 136.673L24.6357 136.663ZM15.4309 131.053L24.3694 135.941V132.27L15.4309 127.383V131.053Z" fill="#0B0B0B"></path><path d="M69.6912 159.988L60.2202 154.805V150.526L69.6912 155.709V159.988Z" fill="#D3C6F9"></path><path d="M69.9858 160.473L59.9443 154.977V150.042L69.9858 155.538V160.473ZM60.5149 154.635L69.4153 159.503V155.871L60.5149 151.002V154.635Z" fill="#0B0B0B"></path><path d="M69.2248 157.222L61.7603 153.143V151.412L69.2248 155.501V157.222Z" fill="#0B0B0B"></path><path d="M69.225 157.498C69.225 157.498 69.1394 157.488 69.1013 157.46L61.6368 153.371C61.5512 153.323 61.4941 153.238 61.4941 153.133V151.403C61.4941 151.307 61.5417 151.222 61.6273 151.174C61.7033 151.127 61.8079 151.127 61.8935 151.174L69.3581 155.263C69.4437 155.311 69.5007 155.396 69.5007 155.501V157.232C69.5007 157.327 69.4532 157.412 69.3676 157.46C69.3296 157.488 69.282 157.498 69.2345 157.498H69.225ZM62.0266 152.991L68.9587 156.785V155.663L62.0266 151.868V152.991Z" fill="#0B0B0B"></path><path d="M56.5593 152.857L47.0884 147.675V143.396L56.5593 148.578V152.857Z" fill="#D3C6F9"></path><path d="M56.8442 153.343L46.8027 147.846V142.911L56.8442 148.407V153.343ZM47.3733 147.504L56.2737 152.373V148.74L47.3733 143.872V147.504Z" fill="#0B0B0B"></path><path d="M56.0832 150.099L48.6187 146.01V144.289L56.0832 148.368V150.099Z" fill="#0B0B0B"></path><path d="M56.0834 150.366C56.0834 150.366 55.9978 150.356 55.9597 150.337L48.4952 146.258C48.4096 146.21 48.3525 146.125 48.3525 146.02V144.289C48.3525 144.194 48.4001 144.109 48.4857 144.061C48.5712 144.014 48.6663 144.014 48.7519 144.061L56.2165 148.15C56.3021 148.197 56.3591 148.283 56.3591 148.388V150.118C56.3591 150.213 56.3116 150.299 56.226 150.347C56.188 150.375 56.1404 150.385 56.0929 150.385L56.0834 150.366ZM48.885 145.858L55.8171 149.652V148.53L48.885 144.736V145.858Z" fill="#0B0B0B"></path><path d="M112.244 184.549L93.7201 174.241C91.9039 173.253 90.7533 171.37 90.6963 169.306C90.6202 166.539 93.568 164.732 95.9928 166.054L114.516 176.362C116.333 177.351 117.483 179.234 117.54 181.307C117.616 184.074 114.668 185.88 112.244 184.559V184.549Z" fill="#D3C6F9"></path><path d="M113.965 185.272C113.328 185.272 112.7 185.111 112.111 184.797L93.5872 174.489C91.6949 173.453 90.4777 171.465 90.4112 169.307C90.3731 167.909 91.0578 166.625 92.2559 165.893C93.4541 165.161 94.8994 165.123 96.1356 165.798L114.659 176.106C116.551 177.142 117.769 179.129 117.835 181.288C117.873 182.686 117.189 183.97 115.99 184.702C115.363 185.082 114.669 185.282 113.974 185.282L113.965 185.272ZM112.386 184.293C113.432 184.863 114.669 184.835 115.686 184.207C116.704 183.58 117.293 182.496 117.255 181.307C117.198 179.348 116.095 177.551 114.374 176.61L95.8503 166.302C94.8043 165.731 93.5682 165.76 92.5507 166.387C91.5332 167.015 90.9437 168.099 90.9817 169.288C91.0388 171.246 92.1418 173.044 93.8629 173.985L112.386 184.293Z" fill="#0B0B0B"></path><path d="M92.2271 166.254C91.8848 166.815 91.6946 167.471 91.7136 168.203C91.7707 170.276 92.9213 172.149 94.7375 173.148L113.261 183.455C114.545 184.159 115.971 183.978 117.017 183.246C116.076 184.796 114.012 185.519 112.234 184.539L93.7105 174.232C91.8943 173.243 90.7437 171.36 90.6867 169.287C90.6486 167.984 91.2857 166.9 92.2271 166.244V166.254Z" fill="#8B75F3"></path><path d="M113.955 185.253C113.328 185.253 112.7 185.101 112.111 184.778L93.5872 174.47C91.6949 173.443 90.4872 171.456 90.4207 169.307C90.3826 167.985 90.9817 166.796 92.0752 166.045L93.1117 165.332L92.4556 166.407C92.1228 166.949 91.9611 167.576 91.9801 168.213C92.0372 170.182 93.1402 171.988 94.8709 172.93L113.394 183.247C114.497 183.846 115.829 183.77 116.875 183.047L117.911 182.334L117.255 183.409C116.532 184.607 115.258 185.272 113.955 185.272V185.253ZM91.5237 167.329C91.1338 167.89 90.9341 168.565 90.9532 169.288C91.0102 171.256 92.1133 173.063 93.8439 174.004L112.367 184.312C113.651 185.006 115.001 184.749 115.952 184.036C115.02 184.283 114.012 184.169 113.138 183.694L94.6141 173.377C92.7218 172.35 91.5142 170.362 91.4476 168.213C91.4476 167.909 91.4666 167.614 91.5237 167.329Z" fill="#0B0B0B"></path><path d="M94.2437 177.286L97.8571 175.137C99.1883 174.348 99.1883 171.895 97.8571 169.651C96.5734 167.492 94.5289 166.313 93.1882 166.941C93.1501 166.96 89.4131 169.156 89.4131 169.156L94.2342 177.296L94.2437 177.286Z" fill="#0B0B0B"></path><path d="M94.1486 177.656L89.0518 169.06L89.28 168.927C93.0265 166.721 93.0646 166.712 93.0741 166.702C94.5385 166.017 96.7445 167.254 98.0853 169.517C99.5117 171.923 99.4736 174.5 97.9902 175.374L94.1486 177.656ZM89.7839 169.251L94.3293 176.924L97.7145 174.918C98.9126 174.205 98.8746 171.904 97.6289 169.793C96.4498 167.796 94.5004 166.626 93.3023 167.187C93.2262 167.235 90.9155 168.585 89.7839 169.251Z" fill="#0B0B0B"></path><path d="M94.196 177.314C95.5272 176.525 95.5272 174.062 94.196 171.818C92.8647 169.574 90.7062 168.394 89.3749 169.184C88.0436 169.973 88.0436 172.426 89.3749 174.67C90.7062 176.914 92.8647 178.094 94.196 177.304V177.314Z" fill="#FFA5F6"></path><path d="M93.2547 177.847C92.7507 177.847 92.2087 177.695 91.6477 177.391C90.6968 176.868 89.8029 175.964 89.1278 174.833C87.6919 172.417 87.7395 169.831 89.2324 168.947C90.7253 168.062 93.0075 169.26 94.4433 171.685C95.8792 174.101 95.8316 176.687 94.3387 177.571C94.0154 177.762 93.6446 177.857 93.2547 177.857V177.847ZM90.3069 169.232C90.0216 169.232 89.7554 169.299 89.5272 169.432C88.3576 170.126 88.3956 172.465 89.6223 174.528C90.2403 175.565 91.0581 176.402 91.9234 176.877C92.7412 177.324 93.4924 177.391 94.0535 177.058C95.2231 176.364 95.185 174.024 93.9584 171.961C92.9694 170.297 91.4765 169.222 90.3164 169.222L90.3069 169.232Z" fill="#0B0B0B"></path><path d="M115.592 182.392C116.4 181.917 116.4 180.424 115.592 179.064C114.783 177.704 113.471 176.991 112.663 177.467C111.855 177.942 111.855 179.435 112.663 180.795C113.471 182.155 114.783 182.868 115.592 182.392Z" fill="#FFA5F6"></path><path d="M115.021 182.83C114.146 182.83 113.119 182.117 112.415 180.938C111.512 179.416 111.56 177.781 112.52 177.21C113.48 176.64 114.935 177.391 115.839 178.912C116.257 179.616 116.485 180.377 116.485 181.052C116.485 181.784 116.219 182.345 115.734 182.63C115.515 182.763 115.278 182.821 115.021 182.821V182.83ZM113.243 177.6C113.09 177.6 112.938 177.638 112.815 177.714C112.159 178.104 112.197 179.454 112.91 180.652C113.623 181.851 114.783 182.535 115.439 182.155C115.744 181.974 115.905 181.594 115.905 181.061C115.905 180.481 115.705 179.825 115.344 179.207C114.764 178.237 113.899 177.6 113.243 177.6Z" fill="#0B0B0B"></path><path d="M16.287 128.809C16.9431 128.467 17.7514 128.41 18.2839 128.676L23.0194 131.415C23.1525 131.481 23.2951 131.719 23.2951 132.004V133.934C23.2951 134.41 23.0099 134.847 22.5629 135.066L18.0937 137.282C17.6753 137.491 17.1713 137.481 16.7625 137.263L11.8653 134.619C11.4374 134.391 11.1807 133.963 11.1807 133.507V132.261C11.1807 131.795 11.4469 131.367 11.8843 131.139L16.306 128.809H16.287Z" fill="#64D8B1"></path><path d="M17.4469 137.728C17.1617 137.728 16.8764 137.661 16.6196 137.519L11.713 134.875C11.19 134.59 10.8667 134.067 10.8667 133.496V132.251C10.8667 131.68 11.1995 131.148 11.7225 130.872L16.1442 128.542C16.8859 128.152 17.7988 128.095 18.4169 128.409L23.1618 131.148C23.3996 131.262 23.5802 131.614 23.5802 131.994V133.924C23.5802 134.514 23.2379 135.056 22.6864 135.322L18.2172 137.538C17.9699 137.661 17.7037 137.718 17.4374 137.718L17.4469 137.728ZM16.4295 129.075L12.0078 131.404C11.675 131.585 11.4658 131.908 11.4658 132.26V133.506C11.4658 133.858 11.6655 134.181 11.9983 134.352L16.8954 136.996C17.2187 137.167 17.6276 137.176 17.9509 137.015L22.4201 134.799C22.772 134.628 22.9812 134.295 22.9812 133.934V132.004C22.9812 131.832 22.9051 131.709 22.8671 131.68L18.1221 128.942C17.6942 128.723 16.981 128.78 16.4104 129.075H16.4295Z" fill="#0B0B0B"></path><mask id="mask0_4086_8886" style="mask-type:luminance" maskUnits="userSpaceOnUse" x="53" y="48" width="173" height="87"><path d="M213.784 112.948C189.222 134.362 134.146 141.57 92.3161 127.754C50.486 113.937 41.6996 85.6382 70.9018 65.7739C98.3448 47.1077 149.646 42.7811 186.959 55.0953C224.282 67.419 236.862 92.8365 213.784 112.958V112.948Z" fill="white"></path></mask><g mask="url(#mask0_4086_8886)"><path d="M214.078 95.3951C199.587 84.5929 155.56 90.6216 155.56 90.6216L152.375 95.262C152.375 95.262 191.076 96.9451 211.083 116.144C211.083 116.144 226.697 104.799 214.078 95.3951Z" fill="#D7FF65"></path><path d="M211.064 116.495L210.903 116.343C191.2 97.439 152.755 95.5562 152.365 95.5372L151.88 95.5182L155.408 90.3738L155.522 90.3548C155.96 90.2977 199.815 84.4402 214.231 95.1758C217.588 97.6767 219.29 100.558 219.271 103.734C219.233 110.476 211.568 116.124 211.236 116.362L211.055 116.495H211.064ZM152.869 95.0332C157.367 95.3185 192.417 98.0475 211.112 115.801C212.272 114.907 218.71 109.658 218.748 103.734C218.767 100.739 217.141 98.0095 213.927 95.6133C200.053 85.277 158.251 90.5449 155.722 90.8778L152.869 95.0332Z" fill="#0B0B0B"></path><path d="M203.009 68.8269C181.414 66.1739 152.469 85.9526 152.469 85.9526L154.485 91.8862C154.485 91.8862 184.79 78.374 218.785 83.5754C218.785 83.5754 219.526 70.8523 203.009 68.8174V68.8269Z" fill="#D7FF65"></path><path d="M154.323 92.2569L152.155 85.8478L152.326 85.7337C152.621 85.534 181.604 65.9169 203.047 68.5604C219.621 70.6049 219.07 83.4705 219.06 83.6037L219.041 83.8984L218.746 83.8509C185.218 78.7161 154.893 92.0001 154.589 92.1428L154.323 92.2664V92.2569ZM152.792 86.0665L154.646 91.5342C157.727 90.2314 186.644 78.4973 218.528 83.2804C218.528 81.3405 217.853 70.9282 202.98 69.0929C182.574 66.5921 155.198 84.4595 152.792 86.0665Z" fill="#0B0B0B"></path><path d="M163.073 55.038C148.495 59.2505 144.14 82.2528 144.14 82.2528L151.728 83.9169C151.728 83.9169 164.765 66.0495 189.888 62.2554C189.888 62.2554 178.544 50.5688 163.073 55.038Z" fill="#D7FF65"></path><path d="M151.843 84.2121L143.836 82.453L143.883 82.1962C143.931 81.968 148.438 58.9847 163.006 54.7817C178.449 50.322 189.974 61.9515 190.088 62.0751L190.449 62.446L189.936 62.5221C165.222 66.2496 152.08 83.8983 151.947 84.0695L151.843 84.2121ZM144.464 82.044L151.624 83.6131C152.917 81.93 165.897 65.8217 189.318 62.0751C187.216 60.1448 176.718 51.3775 163.149 55.2952C149.713 59.1749 144.996 79.5242 144.464 82.044Z" fill="#0B0B0B"></path><path d="M94.6715 57.1113C94.6715 57.1113 70.4521 62.4459 77.4888 80.7127C83.6506 96.7068 119.452 97.4676 125.709 93.0554L124.368 85.8C124.368 85.8 97.6859 75.9106 94.662 57.1113H94.6715Z" fill="#D7FF65"></path><path d="M112.415 95.6229C106.415 95.6229 99.4735 94.8146 93.4923 92.9984C87.5206 91.1822 79.8564 87.5973 77.2414 80.8078C75.4157 76.0724 75.5108 71.7648 77.5362 68.0087C81.9959 59.7074 94.4907 56.8737 94.6144 56.8451L94.8901 56.7881L94.9377 57.0639C97.895 75.5018 124.206 85.4482 124.473 85.5528L124.615 85.6099L126.013 93.1791L125.87 93.2741C123.759 94.7671 118.587 95.6134 112.425 95.6134L112.415 95.6229ZM94.4527 57.4442C92.608 57.9102 81.9769 60.8675 78.0021 68.275C76.0623 71.8884 75.9767 76.0438 77.7359 80.6272C80.2748 87.2169 87.7869 90.7162 93.6444 92.4944C106.406 96.3646 121.534 95.4422 125.414 92.9413L124.13 86.0093C122.019 85.1915 97.5526 75.2926 94.4432 57.4442H94.4527Z" fill="#0B0B0B"></path><path d="M114.622 60.2679C105.988 74.8262 123.884 84.4113 133.041 85.6094L139.736 80.893C139.736 80.893 128.382 64.0715 146.069 52.0902C146.069 52.0902 122.277 47.3642 114.622 60.2774V60.2679Z" fill="#D7FF65"></path><path d="M133.117 85.8854H133.013C127.013 85.0866 116.943 80.6649 113.358 73.2955C111.332 69.14 111.684 64.7088 114.394 60.135C122.058 47.2123 145.888 51.7766 146.126 51.8241L146.753 51.9477L146.221 52.3091C128.962 63.9957 139.507 80.0659 139.964 80.741L140.107 80.9597L133.108 85.8949L133.117 85.8854ZM114.632 60.2681L114.86 60.4013C112.245 64.8134 111.903 69.0735 113.843 73.0577C117.323 80.2085 127.089 84.5161 132.984 85.3244L139.384 80.8076C138.148 78.7822 129.514 63.4441 145.394 52.2235C141.571 51.5959 121.64 48.9619 114.86 60.3917L114.632 60.2586V60.2681Z" fill="#0B0B0B"></path><path d="M57.605 90.0691C57.605 90.0691 46.4889 101.841 66.9999 116.133C86.2746 129.56 120.07 110.979 134.694 99.6351L125.09 94.8046C125.09 94.8046 97.5428 102.05 57.605 90.0596V90.0691Z" fill="#D7FF65"></path><path d="M83.4884 121.059C76.9557 121.059 71.3359 119.491 66.8382 116.353C59.1739 111.008 54.9804 105.398 54.3909 99.6833C53.7823 93.7877 57.2531 90.0411 57.4052 89.8795L57.5193 89.7559L57.681 89.8034C97.0863 101.633 124.738 94.615 125.014 94.5389L125.109 94.5104L135.179 99.5786L134.847 99.8354C127.591 105.465 115.325 113.043 102.668 117.418C95.6599 119.842 89.2224 121.05 83.4884 121.05V121.059ZM57.6905 90.3739C57.1104 91.0586 54.4004 94.5674 54.9329 99.6452C55.5129 105.198 59.6208 110.676 67.1519 115.925C84.8672 128.267 116.798 113.072 134.19 99.6928L125.052 95.0999C123.198 95.5563 95.9547 101.823 57.6905 90.3835V90.3739Z" fill="#0B0B0B"></path><path d="M68.2549 120.907C68.2549 120.907 73.9888 134.781 99.6156 140.154C123.683 145.193 137.48 116.391 141.712 100.045L130.929 99.2744C130.929 99.2744 107.052 113.177 68.2549 120.907Z" fill="#D7FF65"></path><path d="M105.131 141C103.334 141 101.48 140.81 99.5588 140.411C74.0937 135.076 68.0649 121.145 68.0079 121.012L67.8843 120.708L68.2076 120.642C106.51 113.006 130.568 99.1702 130.805 99.0371L130.881 98.999L142.064 99.7978L141.988 100.112C137.861 116.049 125.709 141.01 105.15 141.01L105.131 141ZM68.645 121.098C69.672 123.133 76.5755 135.048 99.6634 139.888C123.075 144.785 136.844 117.447 141.37 100.283L130.996 99.541C129.512 100.387 105.806 113.643 68.645 121.098Z" fill="#0B0B0B"></path><path d="M148.36 98.2559L138.908 101.223C138.908 101.223 141.856 110.608 113.824 131.357C113.824 131.357 125.158 147.151 144.871 146.99C164.583 146.818 161.721 104.731 148.37 98.2653L148.36 98.2559Z" fill="#D7FF65"></path><path d="M144.557 147.256C125.12 147.256 113.71 131.671 113.595 131.519L113.443 131.3L113.653 131.148C141.115 110.827 138.671 101.404 138.642 101.309L138.566 101.052L138.813 100.976L148.37 97.9805L148.465 98.028C157.394 102.355 161.169 120.983 158.345 133.535C156.367 142.33 151.574 147.209 144.852 147.266C144.747 147.266 144.642 147.266 144.547 147.266L144.557 147.256ZM114.185 131.414C115.621 133.268 126.623 146.724 144.557 146.724C144.661 146.724 144.757 146.724 144.861 146.724C153.562 146.648 156.728 138.346 157.831 133.411C160.589 121.173 156.738 102.744 148.332 98.551L139.213 101.413C139.489 103.096 139.641 112.529 114.185 131.424V131.414Z" fill="#0B0B0B"></path><path d="M154.049 94.32L145.167 98.1902C145.167 98.1902 160.04 106.568 164.109 127.031C164.109 127.031 177.023 133.221 192.094 125.681C207.166 118.14 178.525 100.948 154.058 94.3105L154.049 94.32Z" fill="#D7FF65"></path><path d="M176.518 129.665C169.111 129.665 164.062 127.307 163.986 127.269L163.862 127.212L163.833 127.079C159.84 106.967 145.177 98.5041 145.025 98.4185L144.559 98.1523L154.02 94.0254L154.115 94.0539C173.466 99.3029 195.641 111.189 196.506 119.861C196.754 122.324 195.308 124.359 192.199 125.919C186.493 128.771 181.064 129.665 176.518 129.665ZM164.337 126.841C165.678 127.431 177.954 132.451 191.961 125.443C194.842 123.998 196.193 122.144 195.974 119.918C195.156 111.712 173.19 99.7974 154.068 94.5959L145.738 98.2284C148.248 99.8354 160.657 108.584 164.337 126.841Z" fill="#0B0B0B"></path></g><path d="M149.406 84.202C143.263 80.8548 133.583 80.9689 127.45 84.6584C120.927 88.5856 120.898 95.0042 127.783 98.7508C134.667 102.507 145.213 101.813 150.975 97.467C156.386 93.3877 155.549 87.5396 149.406 84.1925V84.202Z" fill="#8B75F3"></path><path d="M138.262 101.432C134.468 101.432 130.674 100.624 127.65 98.9786C124.274 97.1339 122.372 94.5855 122.315 91.7994C122.258 89.0513 124.074 86.3602 127.307 84.4109C133.45 80.7119 143.216 80.5122 149.53 83.9544C152.744 85.7041 154.617 88.1479 154.817 90.8389C154.998 93.3208 153.695 95.7456 151.128 97.6759C147.847 100.148 143.045 101.432 138.262 101.432ZM138.908 82.0336C134.829 82.0336 130.721 82.9845 127.583 84.8768C124.521 86.7215 122.8 89.2414 122.848 91.7898C122.905 94.3763 124.702 96.763 127.907 98.5032C134.582 102.145 145.07 101.565 150.804 97.248C153.21 95.4318 154.446 93.1687 154.275 90.877C154.094 88.3761 152.316 86.0844 149.264 84.4204C146.326 82.8228 142.617 82.0241 138.899 82.0241L138.908 82.0336Z" fill="#0B0B0B"></path><g style="mix-blend-mode:multiply"><path d="M146.982 87.3303C146.335 85.9039 145.108 84.8484 143.625 84.2589L149.587 81.5583C153.552 79.7706 158.003 81.0639 159.543 84.4681L160.076 85.6567C160.532 86.6552 159.952 87.8913 158.782 88.4143L145.612 94.367C147.372 92.332 147.999 89.6029 146.972 87.3303H146.982Z" fill="#CDD9E2"></path></g><path d="M149.854 91.2477C149.854 94.5664 144.862 97.2669 138.7 97.2669C132.538 97.2669 127.546 94.5759 127.546 91.2477C127.546 87.9196 132.538 85.2285 138.7 85.2285C144.862 85.2285 149.854 87.9196 149.854 91.2477Z" fill="#0B0B0B"></path><path d="M138.7 97.5338C132.405 97.5338 127.279 94.7191 127.279 91.2484C127.279 87.7776 132.405 84.9629 138.7 84.9629C144.995 84.9629 150.12 87.7776 150.12 91.2484C150.12 94.7191 144.995 97.5338 138.7 97.5338ZM138.7 85.5049C132.699 85.5049 127.821 88.0819 127.821 91.2484C127.821 94.4149 132.699 96.9918 138.7 96.9918C144.7 96.9918 149.587 94.4149 149.587 91.2484C149.587 88.0819 144.709 85.5049 138.7 85.5049Z" fill="#0B0B0B"></path><path d="M148.77 87.2256H128.621V91.0292H128.649C128.716 93.9104 133.185 96.2306 138.7 96.2306C144.215 96.2306 148.685 93.9104 148.751 91.0292H148.761V87.2256H148.77Z" fill="#0B0B0B"></path><path d="M138.7 96.4972C133.147 96.4972 128.706 94.2341 128.392 91.2958H128.373L128.345 91.0296V86.9502H149.027L148.998 91.2958C148.684 94.2341 144.244 96.4972 138.691 96.4972H138.7ZM128.887 90.8108L128.915 91.0296C128.982 93.7491 133.365 95.9647 138.7 95.9647C144.035 95.9647 148.428 93.7491 148.485 91.0296V90.7728L148.494 87.5017H128.877V90.8204L128.887 90.8108Z" fill="#0B0B0B"></path><path d="M148.76 86.9975C148.76 89.9072 144.253 92.2655 138.7 92.2655C133.146 92.2655 128.639 89.9072 128.639 86.9975C128.639 84.0877 133.146 81.7295 138.7 81.7295C144.253 81.7295 148.76 84.0877 148.76 86.9975Z" fill="#FFA5F6"></path><path d="M138.699 92.5508C132.994 92.5508 128.354 90.0595 128.354 86.9976C128.354 83.9357 132.994 81.4443 138.699 81.4443C144.405 81.4443 149.045 83.9357 149.045 86.9976C149.045 90.0595 144.405 92.5508 138.699 92.5508ZM138.699 82.0244C133.308 82.0244 128.924 84.259 128.924 86.9976C128.924 89.7362 133.308 91.9708 138.699 91.9708C144.091 91.9708 148.475 89.7362 148.475 86.9976C148.475 84.259 144.091 82.0244 138.699 82.0244Z" fill="#0B0B0B"></path><path d="M269.992 124.985L264.572 121.99C263.811 121.553 263.335 120.735 263.335 119.86C263.335 118.015 265.294 116.827 266.939 117.682L272.702 120.649L269.992 124.995V124.985Z" fill="#FFA5F6"></path><path d="M270.087 125.365L264.429 122.246C263.573 121.752 263.041 120.839 263.041 119.86C263.041 118.88 263.535 118.015 264.362 117.511C265.19 117.007 266.197 116.979 267.063 117.425L273.101 120.535L270.087 125.375V125.365ZM265.789 117.682C265.399 117.682 265.009 117.787 264.667 117.996C264.01 118.395 263.621 119.09 263.621 119.86C263.621 120.63 264.039 121.362 264.714 121.743L269.887 124.605L272.293 120.754L266.806 117.929C266.483 117.758 266.14 117.682 265.798 117.682H265.789Z" fill="#0B0B0B"></path><path d="M268.88 122.808C268.718 124.158 269.678 125.252 271.019 125.252C272.36 125.252 273.596 124.158 273.758 122.808C273.919 121.458 272.959 120.364 271.618 120.364C270.277 120.364 269.041 121.458 268.88 122.808Z" fill="#0B0B0B"></path><path d="M271.019 125.518C270.296 125.518 269.64 125.233 269.184 124.719C268.727 124.196 268.518 123.511 268.613 122.779C268.794 121.305 270.144 120.098 271.618 120.098C272.341 120.098 272.997 120.383 273.453 120.896C273.91 121.419 274.119 122.104 274.024 122.836C273.843 124.31 272.493 125.508 271.019 125.508V125.518ZM271.618 120.63C270.401 120.63 269.288 121.619 269.146 122.836C269.079 123.416 269.231 123.958 269.593 124.358C269.945 124.757 270.458 124.976 271.029 124.976C272.246 124.976 273.358 123.987 273.501 122.77C273.568 122.19 273.415 121.648 273.054 121.248C272.702 120.849 272.189 120.63 271.618 120.63Z" fill="#0B0B0B"></path><path d="M256.061 124.662C255.899 126.012 256.859 127.105 258.2 127.105C259.541 127.105 260.777 126.012 260.939 124.662C261.101 123.311 260.14 122.218 258.799 122.218C257.459 122.218 256.222 123.311 256.061 124.662Z" fill="#0B0B0B"></path><path d="M258.21 127.373C257.487 127.373 256.831 127.087 256.375 126.574C255.918 126.051 255.709 125.366 255.804 124.634C255.985 123.16 257.335 121.962 258.809 121.962C259.532 121.962 260.188 122.247 260.644 122.761C261.101 123.284 261.31 123.968 261.215 124.701C261.034 126.174 259.684 127.373 258.21 127.373ZM258.809 122.485C257.592 122.485 256.479 123.474 256.337 124.691C256.27 125.271 256.422 125.813 256.784 126.212C257.136 126.612 257.649 126.831 258.22 126.831C259.437 126.831 260.549 125.842 260.692 124.624C260.758 124.044 260.606 123.502 260.245 123.103C259.893 122.704 259.38 122.485 258.809 122.485Z" fill="#0B0B0B"></path><path d="M247.017 129.722C246.855 131.072 247.816 132.166 249.156 132.166C250.497 132.166 251.733 131.072 251.895 129.722C252.057 128.372 251.096 127.278 249.755 127.278C248.415 127.278 247.178 128.372 247.017 129.722Z" fill="#0B0B0B"></path><path d="M249.166 132.431C248.443 132.431 247.787 132.146 247.33 131.632C246.874 131.109 246.665 130.425 246.76 129.693C246.94 128.219 248.291 127.021 249.765 127.021C250.487 127.021 251.143 127.306 251.6 127.819C252.056 128.342 252.266 129.027 252.17 129.759C251.99 131.233 250.639 132.441 249.166 132.441V132.431ZM249.765 127.543C248.548 127.543 247.435 128.532 247.292 129.75C247.226 130.33 247.378 130.872 247.739 131.271C248.091 131.67 248.605 131.889 249.175 131.889C250.392 131.889 251.505 130.9 251.647 129.683C251.714 129.103 251.562 128.561 251.201 128.162C250.849 127.762 250.335 127.543 249.765 127.543Z" fill="#0B0B0B"></path></svg>