<svg xmlns="http://www.w3.org/2000/svg" width="40" height="41" viewBox="0 0 40 41" fill="none"><g id="uuid-0cf08959-e44c-44e9-8892-1e6b9fc3bfd8" clip-path="url(#clip0_4086_9103)"><path id="Vector" d="M35.8658 2.92152C35.621 5.07236 32.236 7.19434 30.9397 8.76778C29.2112 10.8609 27.3819 12.8963 25.6678 15.0038C25.4229 14.6429 25.1348 14.3109 24.8035 14.0511C21.505 11.4239 14.9512 12.7952 11.1197 12.2755C8.08047 11.8714 2.82299 10.1824 1.56984 14.0366C1.32497 14.8017 1.65627 15.4657 2.18922 15.8699C1.64186 20.8356 0.921661 25.8013 0.77762 30.7671C0.7056 32.9323 0.403115 34.4192 0.129439 36.4112C-0.0146017 37.4217 -0.129834 38.8941 0.662388 39.688C1.49782 40.5397 2.40528 40.0922 3.31273 40.1788C5.6894 40.3809 8.22451 40.4531 10.7308 40.4531C14.0293 40.4531 17.3711 40.3232 20.6552 40.6408C22.1244 40.7851 23.4496 41.4058 24.7747 40.352C25.8118 39.5292 25.8118 38.5621 26.0423 37.364C26.5608 34.7079 26.5896 31.662 26.6329 28.9338C26.6761 26.7974 27.1946 23.4051 27.0794 20.2871C28.491 18.4971 29.9458 16.7072 31.5158 14.9605C33.5468 12.6797 35.3761 10.3557 37.4935 8.14707C39.0635 6.50145 39.9278 5.18785 40.043 2.92152C40.1871 0.207695 36.2115 0.337612 35.9091 2.92152H35.8658ZM22.4845 35.5884C21.9948 37.6382 22.8158 37.2629 20.4391 37.0031C18.8835 36.8299 17.2702 36.9453 15.7146 36.9598C11.6959 36.9886 7.74917 36.5411 3.80247 36.469C3.41356 36.469 3.16869 36.4978 2.98144 36.5556C3.18309 36.3679 3.42796 36.0504 3.68723 35.4441C4.20578 34.1738 3.572 32.0662 3.58641 30.7526C3.58641 28.9627 4.06174 27.317 4.11936 25.5559C4.22018 22.3513 4.42184 19.1611 4.30661 15.9565C4.39303 15.8988 4.49386 15.8555 4.56588 15.7689C4.70992 15.6245 9.11756 16.0287 9.01673 16.0287C11.2926 16.2019 13.2803 16.5917 15.5418 16.5484C17.1118 16.5195 20.4967 15.6967 21.8795 16.5628C22.4989 16.9526 22.8158 17.6454 23.003 18.4394C20.7992 21.4275 18.8259 24.4444 16.8957 27.6202C15.5273 26.2055 14.3174 24.6177 13.0499 23.1597C12.2144 22.207 11.7247 21.4852 10.4427 21.1532C9.18958 20.8212 8.36855 22.3513 9.20398 23.2752C10.1979 24.3723 10.5292 26.0756 11.3502 27.3026C12.5169 29.0348 14.303 30.8104 15.9163 32.1528C16.9101 32.9901 18.3361 32.9179 19.0419 31.7487C20.3383 29.6555 21.6635 27.649 23.0319 25.6859C23.1039 28.9771 23.2335 32.4127 22.4701 35.574L22.4845 35.5884Z" fill="#8B75F3"></path></g><defs><clipPath id="clip0_4086_9103"><rect width="40" height="40" fill="white" transform="translate(0 0.929688)"></rect></clipPath></defs></svg>