<svg xmlns="http://www.w3.org/2000/svg" width="138" height="39" viewBox="0 0 138 39" fill="none"><path fill-rule="evenodd" clip-rule="evenodd" d="M21.6247 28.328V3.65625H15.0741V15.2042H14.9899C14.0421 13.7621 12.0586 12.7994 9.43102 12.7994C4.3918 12.7994 -0.0435914 17.0105 0.000323361 24.2173C0.000323361 30.8666 4.00389 35.1966 9.00651 35.1966C11.7146 35.1966 14.3019 33.9738 15.5937 31.6099H15.7218L15.9816 34.7171H21.7967C21.7089 33.2713 21.6247 30.7365 21.6247 28.328ZM14.9899 21.1547C15.0583 21.5584 15.0865 21.9681 15.0741 22.3775V25.1874C15.0763 25.6982 15.0334 26.2082 14.946 26.7112C14.5919 28.5734 12.9818 29.9151 11.1144 29.9039C8.39903 29.9039 6.63146 27.6293 6.63146 23.998C6.63146 20.6269 8.1392 17.9174 11.1547 17.9174C13.0287 17.9321 14.6329 19.2862 14.9899 21.1547Z" fill="#0068D9"></path><path fill-rule="evenodd" clip-rule="evenodd" d="M34.4185 35.1967C40.0616 35.1967 45.5326 31.61 45.5326 23.7788C45.5326 17.3043 41.2253 12.7996 34.8064 12.7996C28.0106 12.7996 23.5203 17.2597 23.5203 24.1728C23.5203 31.086 28.2595 35.1967 34.4185 35.1967ZM34.5905 30.4281C31.7909 30.4281 30.2832 27.674 30.2832 23.9981C30.2832 20.8463 31.4872 17.5681 34.5905 17.5681C37.5621 17.5681 38.7697 20.8054 38.7697 23.9535C38.7697 27.8487 37.1742 30.4281 34.5905 30.4281Z" fill="#0068D9"></path><path d="M63.3657 34.1484C62.2019 34.717 60.0062 35.1519 57.5104 35.1519C50.7072 35.1519 46.356 30.9111 46.356 24.2172C46.356 17.9619 50.5755 12.8403 58.4326 12.8403C60.1252 12.832 61.8074 13.1109 63.4096 13.6654L62.3739 18.6087C61.2126 18.133 59.9659 17.9102 58.7144 17.9545C55.2671 17.9545 53.0274 20.4447 53.0713 23.9459C53.0713 27.8411 55.655 29.941 58.8425 29.941C60.1257 29.974 61.4018 29.7361 62.5899 29.2423L63.3657 34.1409" fill="#0068D9"></path><path fill-rule="evenodd" clip-rule="evenodd" d="M75.3435 30.2124C72.2841 30.2124 69.5687 28.8966 69.3967 26.1425V26.1277H82.9663C83.1111 25.2595 83.1834 24.3805 83.1822 23.4999C83.1822 18.2073 80.5986 12.8254 73.7918 12.8254C66.469 12.8254 63.1534 18.8206 63.1534 24.247C63.1534 30.9371 67.2448 35.1371 74.3956 35.1371C77.2355 35.1371 79.863 34.7022 82.0185 33.7842L81.1585 29.2758C79.2869 29.9224 77.3202 30.2392 75.3435 30.2124ZM73.4039 17.2446C76.4194 17.2446 77.1074 19.9579 77.1074 21.5784H69.3564C69.5284 19.8278 70.6482 17.2446 73.4039 17.2446Z" fill="#0068D9"></path><path fill-rule="evenodd" clip-rule="evenodd" d="M91.4968 3.65625H84.9498V28.3243C84.9498 30.7327 84.862 33.3122 84.7778 34.7134H90.3294L90.5892 31.74H90.6807C92.1445 34.2785 94.5562 35.1966 97.0118 35.1966C101.835 35.1966 106.618 31.346 106.618 23.6486C106.662 17.0849 102.999 12.8403 97.9596 12.8403C95.0283 12.8403 92.8325 14.0223 91.5846 15.862H91.4968V3.65625ZM91.6249 26.7967C91.536 26.4106 91.493 26.015 91.4968 25.6185V22.4667C91.4954 22.0543 91.5384 21.6431 91.6249 21.2402C92.0067 19.3804 93.5906 18.0265 95.4601 17.962C98.5195 17.962 99.9833 20.586 99.9833 23.9088C99.9833 27.7594 98.2597 29.9485 95.4601 29.9485C93.6233 29.9098 92.0454 28.6131 91.6249 26.7967Z" fill="#0068D9"></path><path fill-rule="evenodd" clip-rule="evenodd" d="M118.376 35.1967C124.023 35.1967 129.49 31.61 129.49 23.7788H129.494C129.494 17.3043 125.187 12.7996 118.768 12.7996C111.961 12.7996 107.482 17.2597 107.482 24.1728C107.482 31.086 112.217 35.1967 118.376 35.1967ZM118.556 30.4281C115.752 30.4281 114.245 27.674 114.245 23.9981H114.241C114.241 20.8463 115.449 17.5681 118.556 17.5681C121.527 17.5681 122.731 20.8054 122.731 23.9535C122.731 27.8487 121.139 30.4281 118.556 30.4281Z" fill="#0068D9"></path><path fill-rule="evenodd" clip-rule="evenodd" d="M136.071 19.5757C137.271 19.0456 138.033 17.8294 137.999 16.5014C137.992 15.6514 137.653 14.839 137.055 14.2435C136.458 13.6481 135.652 13.3184 134.815 13.3273C133.507 13.3172 132.324 14.1142 131.824 15.3419C131.325 16.5696 131.609 17.9824 132.542 18.913C133.476 19.8436 134.872 20.1057 136.071 19.5757ZM132.378 16.5126C132.363 17.176 132.612 17.8176 133.068 18.2926C133.528 18.7702 134.158 19.0385 134.815 19.0362C135.463 19.0336 136.082 18.7645 136.531 18.2903C136.98 17.8162 137.22 17.1774 137.197 16.52C137.232 15.6229 136.78 14.7785 136.02 14.3195C135.261 13.8605 134.315 13.8605 133.555 14.3195C132.797 14.7772 132.346 15.6182 132.378 16.5126ZM134.303 18.1442H133.571V14.9738C133.968 14.9115 134.369 14.8792 134.771 14.8772C135.144 14.8371 135.518 14.9247 135.836 15.1262C136.051 15.2827 136.173 15.5384 136.162 15.8064C136.137 16.1747 135.871 16.4798 135.514 16.5497V16.5906C135.818 16.6873 135.971 16.94 136.067 17.3637C136.107 17.6308 136.183 17.891 136.294 18.1368H135.532C135.408 17.8947 135.324 17.6335 135.283 17.3637C135.229 17.0366 135.038 16.8805 134.639 16.8805H134.295L134.303 18.1442ZM134.665 16.3676H134.321L134.332 15.457C134.463 15.4278 134.597 15.4141 134.731 15.4161C135.188 15.4161 135.397 15.5685 135.397 15.8993C135.397 16.2301 135.064 16.3676 134.665 16.3676Z" fill="#0068D9"></path></svg>