<svg xmlns="http://www.w3.org/2000/svg" width="147" height="35" viewBox="0 0 147 35" fill="none"><g clip-path="url(#clip0_4086_8532)"><path d="M23.4846 1.5918V27.1171C23.4846 29.6062 23.5752 32.2317 23.6671 33.7251H17.5204L17.2473 30.5118H17.1101C15.745 32.9559 13.0132 34.2243 10.1443 34.2243C4.86334 34.2243 0.629231 29.7426 0.629231 22.8631C0.583954 15.3958 5.27358 11.0518 10.5998 11.0518C13.3768 11.0518 15.4719 12.0474 16.4735 13.5395H16.5641V1.5918H23.4846ZM16.5641 20.9618C16.5641 20.6004 16.5641 20.1026 16.4735 19.6948C16.0633 17.8849 14.5609 16.3464 12.4205 16.3464C9.23465 16.3464 7.64034 19.1519 7.64034 22.638C7.64034 26.3928 9.50768 28.7469 12.3752 28.7469C14.3784 28.7469 16.018 27.3885 16.4282 25.4436C16.5188 24.9444 16.5641 24.4015 16.5641 23.8601V20.9618Z" fill="#8D8C8E"></path><path d="M37.008 34.2233C30.4977 34.2233 25.4897 29.9693 25.4897 22.8171C25.4897 15.6226 30.2233 11.0508 37.4169 11.0508C44.2016 11.0508 48.754 15.7126 48.754 22.4106C48.754 30.5122 42.9722 34.2233 37.008 34.2233ZM37.1905 29.2901C39.9222 29.2901 41.6057 26.6196 41.6057 22.592C41.6057 19.3337 40.3311 15.984 37.1905 15.984C33.9113 15.984 32.6367 19.3787 32.6367 22.6371C32.6367 26.4382 34.231 29.2901 37.1905 29.2901Z" fill="#8D8C8E"></path><path d="M67.6044 33.1362C66.375 33.7241 64.0536 34.1769 61.4124 34.1769C54.2188 34.1769 49.6211 29.7865 49.6211 22.862C49.6211 16.3903 54.083 11.0957 62.3687 11.0957C64.1894 11.0957 66.1926 11.4121 67.6497 11.955L66.5575 17.0696C65.7384 16.7081 64.5091 16.3903 62.687 16.3903C59.0456 16.3903 56.6775 18.9708 56.7228 22.5906C56.7228 26.6195 59.4545 28.7922 62.8242 28.7922C64.4624 28.7922 65.7384 28.5194 66.7853 28.068L67.6044 33.1362Z" fill="#8D8C8E"></path><path d="M73.9788 24.8547C74.1613 27.7052 77.0288 29.0636 80.2614 29.0636C82.6295 29.0636 84.5421 28.7472 86.4081 28.113L87.3191 32.7748C85.0415 33.7254 82.2645 34.1782 79.2611 34.1782C71.7026 34.1782 67.3779 29.8329 67.3779 22.9084C67.3779 17.296 70.8835 11.0957 78.6231 11.0957C85.8167 11.0957 88.5485 16.6631 88.5485 22.1391C88.5485 23.3162 88.4113 24.3568 88.3207 24.8547H73.9788ZM82.1287 20.1479C82.1287 18.473 81.4002 15.6675 78.2129 15.6675C75.3001 15.6675 74.116 18.3366 73.9335 20.1479H82.1287Z" fill="#8D8C8E"></path><path d="M90.4164 1.5918H97.3369V14.2187H97.4275C98.7474 12.3175 101.07 11.0968 104.166 11.0968C109.493 11.0968 113.364 15.4858 113.317 22.2752C113.317 30.2404 108.264 34.2243 103.164 34.2243C100.569 34.2243 98.0202 33.2723 96.4725 30.6482H96.3806L96.1076 33.7251H90.2339C90.3258 32.2767 90.4164 29.6062 90.4164 27.1171V1.5918ZM97.3369 24.3115C97.3369 24.7643 97.3822 25.1721 97.4728 25.5336C97.9283 27.3435 99.5212 28.7919 101.526 28.7919C104.485 28.7919 106.306 26.5292 106.306 22.5453C106.306 19.1069 104.758 16.3914 101.526 16.3914C99.6584 16.3914 97.9283 17.7948 97.4728 19.7848C97.3822 20.1926 97.3369 20.6004 97.3369 21.0532V24.3115Z" fill="#8D8C8E"></path><path d="M125.747 34.2233C119.236 34.2233 114.229 29.9693 114.229 22.8171C114.229 15.6226 118.963 11.0508 126.157 11.0508C132.942 11.0508 137.494 15.7126 137.494 22.4106C137.494 30.5122 131.712 34.2233 125.747 34.2233ZM125.929 29.2901C128.661 29.2901 130.346 26.6196 130.346 22.592C130.346 19.3337 129.071 15.984 125.929 15.984C122.651 15.984 121.377 19.3787 121.377 22.6371C121.377 26.4382 122.97 29.2901 125.929 29.2901Z" fill="#8D8C8E"></path><path d="M146.484 14.8815C146.484 16.7228 144.994 18.1835 143.102 18.1835C141.208 18.1835 139.699 16.7228 139.699 14.8815C139.699 13.0403 141.208 11.5986 143.121 11.5986C144.994 11.5986 146.484 13.0403 146.484 14.8815ZM143.121 17.5029C144.551 17.5234 145.639 16.3423 145.639 14.902C145.639 13.4413 144.551 12.2588 143.081 12.2588C141.652 12.2588 140.544 13.4413 140.544 14.8815C140.544 16.3423 141.652 17.5029 143.121 17.5029ZM142.579 16.5823H141.814V13.3008C142.115 13.2599 142.538 13.1998 143.081 13.1998C143.706 13.1998 143.988 13.3008 144.209 13.4603C144.411 13.6008 144.551 13.8409 144.551 14.1614C144.551 14.561 144.249 14.8215 143.867 14.9415V14.9811C144.189 15.082 144.35 15.3412 144.451 15.7817C144.551 16.2822 144.632 16.4623 144.692 16.5823H143.887C143.787 16.4623 143.726 16.1827 143.625 15.7817C143.564 15.4421 143.364 15.2811 142.94 15.2811H142.579V16.5823ZM142.598 14.741H142.961C143.383 14.741 143.726 14.6006 143.726 14.261C143.726 13.9609 143.505 13.7604 143.022 13.7604C142.819 13.7604 142.679 13.7809 142.598 13.8013V14.741Z" fill="#8D8C8E"></path></g><defs><clipPath id="clip0_4086_8532"><rect width="146.808" height="34.0973" fill="white" transform="translate(0 0.68457)"></rect></clipPath></defs></svg>