<svg xmlns="http://www.w3.org/2000/svg" width="44" height="46" viewBox="0 0 44 46" fill="none"><g id="uuid-e1e42f6e-3198-4e01-a28a-6ea6a3a6ab15" clip-path="url(#clip0_4086_8844)"><g id="Group"><g id="Group_2"><path id="Vector" d="M19.6118 29.823C19.3215 29.7936 19.0311 29.7465 18.7408 29.6758C18.6045 29.6404 18.4683 29.611 18.332 29.5697C18.0239 29.4755 17.7158 29.3754 17.4255 29.2516C17.2951 29.1986 17.1648 29.1397 17.0404 29.0808C17.0107 29.069 16.9811 29.0514 16.9515 29.0396C16.8508 28.9925 16.756 28.9218 16.6671 28.857C16.6138 28.8157 16.5723 28.7568 16.5367 28.6979C16.4716 28.5978 16.4656 28.5153 16.4479 28.4034C16.436 28.3268 16.4775 28.1619 16.513 28.103C16.5486 28.05 16.5841 27.9969 16.6256 27.9439C16.6908 27.8732 16.7678 27.8261 16.8567 27.7967C16.993 27.7495 17.147 27.7672 17.2774 27.832C17.4018 27.8968 17.4966 28.0087 17.5381 28.1442C17.5499 28.1796 17.5558 28.2149 17.5618 28.2502C17.5736 28.262 17.5914 28.2738 17.6032 28.2856C17.704 28.3504 17.8106 28.4093 17.9173 28.4623C18.0476 28.5212 18.1779 28.5742 18.3083 28.6272C18.4683 28.6803 18.6223 28.7333 18.7823 28.7745C18.8889 28.804 19.0015 28.8334 19.1082 28.857C19.3629 28.9159 19.6236 28.9512 19.8843 28.9807C20.1806 29.0042 20.4768 29.0101 20.7731 29.0042C20.9271 29.0042 21.0752 28.9866 21.2234 28.9748C21.3241 28.9689 21.4248 28.9571 21.5255 28.9453C21.7448 28.91 21.9699 28.8805 22.1891 28.8452C22.3965 28.804 22.6039 28.7568 22.8112 28.7156C23.0068 28.6744 23.1964 28.6155 23.386 28.5566C23.6467 28.4741 23.9014 28.3798 24.1503 28.2679C24.4169 28.1383 24.6717 27.9852 24.9028 27.7967C25.0686 27.6553 25.2108 27.4962 25.3412 27.3195C25.4834 27.1133 25.596 26.8895 25.6908 26.6598C25.7737 26.4241 25.833 26.1826 25.8626 25.9352C25.8744 25.7173 25.8685 25.4993 25.8389 25.2814C25.7974 25.0752 25.7322 24.869 25.6434 24.6746C25.5486 24.4802 25.4301 24.3035 25.2938 24.1327C25.2523 24.0856 25.2108 24.0325 25.1634 23.9913C25.0923 23.9206 25.0272 23.844 24.9501 23.7792C24.8731 23.7144 24.802 23.6438 24.725 23.5907C24.6598 23.5436 24.5947 23.4965 24.5354 23.4494C24.3458 23.3315 24.1562 23.2078 23.9548 23.1136C23.8481 23.0606 23.7415 23.0017 23.6289 22.9604C23.5163 22.9133 23.4037 22.8662 23.2912 22.8191C23.0245 22.7189 22.7579 22.6306 22.4854 22.5481C22.1714 22.4538 21.8514 22.3714 21.5315 22.2948C20.9034 22.1416 20.2635 22.0415 19.6236 21.9237C19.2622 21.8589 18.9008 21.7764 18.5512 21.6468C18.3379 21.5644 18.1305 21.476 17.9469 21.3405C17.8699 21.2875 17.7988 21.2227 17.7395 21.152C17.704 21.1108 17.6684 21.0695 17.6388 21.0224C17.6032 20.9635 17.5736 20.8987 17.5499 20.8339C17.5321 20.7809 17.5262 20.7161 17.5144 20.6572C17.5084 20.6042 17.5144 20.5394 17.5203 20.4864C17.5321 20.3921 17.5677 20.3096 17.6032 20.2272C17.6625 20.0976 17.7514 19.9915 17.8343 19.8796C17.9291 19.7559 18.0594 19.644 18.1839 19.5498C18.3083 19.4555 18.4327 19.3671 18.5631 19.2847C18.8297 19.108 19.0963 18.9371 19.3689 18.7722C19.6592 18.5955 19.9495 18.4246 20.2458 18.2597C20.542 18.0948 20.8442 17.9593 21.1523 17.8238C21.3004 17.759 21.4485 17.7119 21.6026 17.653C21.6559 17.6353 21.7151 17.6176 21.7685 17.6058C21.8514 17.5823 21.9403 17.5587 22.0232 17.5351C22.1003 17.5116 22.1891 17.4998 22.2662 17.4821C22.3373 17.4645 22.4084 17.4527 22.4795 17.4409C22.5742 17.4232 22.669 17.4114 22.7698 17.3938C22.8527 17.382 22.9297 17.3761 23.0127 17.3702C23.1904 17.3525 23.3623 17.3525 23.54 17.3525C23.6348 17.3525 23.7296 17.3525 23.8185 17.3643C23.8896 17.3643 23.9725 17.3643 24.0377 17.3938C24.097 17.3938 24.097 17.4821 24.0377 17.488C24.0081 17.5057 23.9725 17.5116 23.937 17.5175C23.8837 17.5293 23.8363 17.5351 23.7829 17.541C23.6763 17.5528 23.5637 17.5646 23.4571 17.5764C23.2378 17.5999 23.0245 17.6294 22.8112 17.6647C22.6987 17.6883 22.5861 17.706 22.4735 17.7354C22.3491 17.7708 22.2188 17.8002 22.0943 17.8415C22.0173 17.865 21.9403 17.8945 21.8633 17.918C21.8099 17.9357 21.7625 17.9475 21.7092 17.9711C21.5789 18.0241 21.4485 18.0771 21.3122 18.136C21.1937 18.1949 21.0752 18.2479 20.9567 18.3068C20.8323 18.3657 20.7197 18.4364 20.6012 18.5012C20.3761 18.6249 20.1569 18.7604 19.9436 18.8959C19.5111 19.1727 19.0845 19.4732 18.6816 19.7913C18.6105 19.8502 18.5394 19.9091 18.4742 19.9798C18.4031 20.0563 18.3379 20.1329 18.2727 20.2154C18.2194 20.2979 18.172 20.3803 18.1305 20.4687C18.1246 20.4981 18.1128 20.5217 18.1128 20.5512C18.1128 20.5688 18.1128 20.5865 18.1128 20.6042C18.1128 20.6218 18.1246 20.6336 18.1305 20.6513C18.1424 20.6749 18.1602 20.6984 18.1779 20.7161C18.2135 20.7514 18.255 20.7868 18.2964 20.8162C18.409 20.8869 18.5216 20.9399 18.646 20.9871C18.8652 21.0636 19.0963 21.1167 19.3274 21.1697C19.3985 21.1874 19.4696 21.1932 19.5466 21.2109C19.6177 21.2227 19.6829 21.2345 19.754 21.2463C20.068 21.2934 20.3761 21.3405 20.6901 21.3876C21.0101 21.4407 21.33 21.4937 21.65 21.5585C21.9699 21.6291 22.2899 21.6998 22.6098 21.7882C23.2497 21.9649 23.8837 22.177 24.4762 22.4833C24.5413 22.5186 24.6065 22.5481 24.6658 22.5834L24.9264 22.7425C25.0094 22.7955 25.0864 22.8544 25.1634 22.9133C25.2227 22.9545 25.2819 22.9958 25.3353 23.0429C25.3945 23.09 25.4597 23.143 25.5189 23.1961C25.5841 23.2609 25.6552 23.3257 25.7204 23.3905C25.7796 23.4494 25.827 23.5142 25.8863 23.5731C26.0226 23.7262 26.147 23.8912 26.2477 24.062C26.3603 24.2505 26.4551 24.4567 26.5321 24.6628C26.6151 24.8926 26.6625 25.14 26.698 25.3874C26.7276 25.623 26.7158 25.8586 26.698 26.0943C26.6743 26.324 26.6269 26.5537 26.5558 26.7776C26.4847 26.9955 26.4018 27.2076 26.2951 27.4079C26.1825 27.6317 26.0344 27.8379 25.8744 28.0323C25.7322 28.209 25.5604 28.3622 25.3827 28.5035C25.2108 28.6449 25.0212 28.7686 24.8316 28.8746C24.4288 29.0985 23.9903 29.2693 23.5459 29.4048C23.3089 29.4814 23.066 29.5344 22.8172 29.5874C22.6335 29.6287 22.4558 29.6758 22.2662 29.6993C22.0706 29.7288 21.8751 29.7582 21.6796 29.7877C21.4248 29.8289 21.17 29.8525 20.9153 29.8643C20.779 29.8702 20.6427 29.8761 20.5064 29.8761C20.2043 29.8761 19.9021 29.8584 19.5999 29.8289L19.6118 29.823Z" fill="#8B75F3"></path><path id="Vector_2" d="M20.518 30.0579C20.2336 30.0579 19.9314 30.0402 19.5937 30.0107C19.2797 29.9813 18.9775 29.9283 18.6991 29.8576L18.6161 29.834C18.5035 29.8046 18.391 29.781 18.2843 29.7457C17.9821 29.6514 17.6622 29.5513 17.36 29.4217C17.2297 29.3628 17.0934 29.3098 16.969 29.245L16.8801 29.2037C16.7557 29.1448 16.649 29.0682 16.5602 28.9976C16.4891 28.9386 16.4357 28.868 16.3883 28.7973C16.3113 28.6795 16.2935 28.5675 16.2758 28.4674V28.4321C16.2521 28.3083 16.2995 28.0963 16.3587 28.002C16.3943 27.9431 16.4417 27.8842 16.4831 27.8253C16.5779 27.7193 16.6846 27.6545 16.809 27.6133C16.9986 27.5543 17.2001 27.572 17.3778 27.6604C17.5437 27.7487 17.674 27.9019 17.7333 28.0845C17.7392 28.1022 17.7451 28.1257 17.7511 28.1434C17.8281 28.1905 17.917 28.2436 18.0177 28.2848C18.1421 28.3437 18.2725 28.3967 18.3969 28.4438C18.5391 28.491 18.6931 28.544 18.8472 28.5852L18.9301 28.6088C19.0072 28.6323 19.0842 28.65 19.1671 28.6677C19.4041 28.7207 19.653 28.7619 19.9196 28.7855C20.1981 28.8091 20.4884 28.8149 20.7846 28.8032C20.9328 28.8032 21.0809 28.7855 21.229 28.7737C21.3357 28.7619 21.4305 28.756 21.5193 28.7443L22.4614 28.5852L22.7991 28.5145C22.9828 28.4733 23.1665 28.4203 23.3561 28.3614C23.6168 28.2789 23.8656 28.1846 24.0967 28.0845C24.3692 27.949 24.6062 27.8076 24.8136 27.6427C24.9617 27.5131 25.098 27.3658 25.2224 27.2009C25.3468 27.0124 25.4594 26.8062 25.5483 26.5824C25.6253 26.3644 25.6786 26.1347 25.7083 25.905C25.7201 25.7047 25.7083 25.4985 25.6846 25.2982C25.649 25.1215 25.5838 24.9271 25.5009 24.7386C25.412 24.5678 25.3054 24.4028 25.175 24.2379C25.1395 24.1967 25.1039 24.1554 25.0624 24.1142L24.9973 24.0494C24.9499 24.0023 24.9084 23.9552 24.8551 23.9139L24.778 23.8491C24.7366 23.8079 24.6892 23.7667 24.6418 23.7372L24.4166 23.5782C24.2507 23.4721 24.0789 23.3661 23.9012 23.2777L23.7886 23.2188C23.7234 23.1835 23.6582 23.154 23.5871 23.1246L23.2494 22.9832C22.9472 22.8713 22.6925 22.7888 22.4614 22.7181C22.1592 22.6298 21.8393 22.5414 21.5134 22.4648C21.0216 22.347 20.5121 22.2587 20.0203 22.1703L19.6174 22.0996C19.1612 22.0171 18.8235 21.9288 18.5154 21.8169C18.2547 21.7167 18.0473 21.6166 17.8636 21.487C17.7688 21.4222 17.6918 21.3515 17.6207 21.269C17.5792 21.2219 17.5378 21.1689 17.5022 21.1159C17.4548 21.0452 17.4193 20.9627 17.3956 20.8861C17.3719 20.8213 17.366 20.7624 17.36 20.7094C17.3423 20.6034 17.3541 20.5209 17.36 20.4502C17.3778 20.3265 17.4193 20.2146 17.4548 20.138C17.5141 20.0025 17.6089 19.8847 17.6859 19.7787C17.8222 19.602 17.9703 19.4783 18.0947 19.384C18.2191 19.2898 18.3495 19.1955 18.4858 19.1072C18.7642 18.9245 19.0249 18.7537 19.2916 18.5888C19.5997 18.4003 19.89 18.2294 20.1744 18.0704C20.4765 17.9055 20.7846 17.7641 21.0927 17.6286C21.1994 17.5815 21.312 17.5402 21.4245 17.499L21.549 17.4519C21.5964 17.4342 21.6438 17.4224 21.6912 17.4106L21.9815 17.3282C22.0407 17.3105 22.1 17.2987 22.1651 17.2869L22.2422 17.2693C22.3192 17.2516 22.3903 17.2339 22.4673 17.2221L22.7576 17.175C22.8169 17.1632 22.8761 17.1632 22.9354 17.1574H23.0124C23.1961 17.1338 23.3798 17.1338 23.5575 17.1338C23.6345 17.1338 23.7116 17.1338 23.7827 17.1397H23.8419C23.9367 17.1456 24.0197 17.1515 24.1026 17.1809C24.2033 17.2045 24.2804 17.2928 24.2863 17.3989C24.2863 17.5108 24.2211 17.605 24.1204 17.6345C24.0789 17.6522 24.0374 17.6639 24.0019 17.6698C23.9486 17.6816 23.8952 17.6875 23.8478 17.6934C23.7116 17.7111 23.6049 17.7229 23.4923 17.7346C23.279 17.7582 23.0717 17.7877 22.8584 17.823L22.7636 17.8407C22.6865 17.8583 22.6154 17.8701 22.5384 17.8878L22.414 17.9231C22.331 17.9467 22.2481 17.9644 22.1711 17.9938L21.8867 18.0881C21.8571 18.0999 21.8274 18.1057 21.7978 18.1175L21.4068 18.2825L21.0631 18.4474C20.9802 18.4886 20.8972 18.5299 20.8202 18.577L20.7135 18.6359C20.5002 18.7537 20.2929 18.8833 20.0677 19.0247C19.6234 19.3074 19.2086 19.602 18.8235 19.9083C18.7642 19.9613 18.6991 20.0143 18.6398 20.0791C18.5746 20.1498 18.5095 20.2205 18.4561 20.2971C18.4206 20.356 18.3732 20.4326 18.3376 20.515C18.3376 20.515 18.3376 20.5268 18.3376 20.5386C18.3436 20.5504 18.3554 20.568 18.3613 20.5798C18.3732 20.5916 18.4028 20.6152 18.4384 20.6446C18.5154 20.6917 18.622 20.7448 18.7405 20.7919C18.9301 20.8567 19.1375 20.9038 19.3508 20.9568H19.3864C19.4278 20.9745 19.4752 20.9804 19.5167 20.9922L20.1329 21.0923C20.3343 21.1218 20.5358 21.1512 20.7372 21.1866C21.0394 21.2337 21.3771 21.2926 21.7089 21.3633C22.0881 21.4457 22.3962 21.5164 22.6806 21.593C23.4568 21.8051 24.0611 22.0289 24.5825 22.3058L24.6418 22.3352C24.6892 22.3588 24.7366 22.3824 24.784 22.4118L25.0447 22.5709C25.1098 22.6121 25.1691 22.6533 25.2343 22.7005L25.2994 22.7476C25.3646 22.7888 25.4239 22.8359 25.4831 22.8831L25.5364 22.9302C25.5838 22.9655 25.6312 23.0068 25.6727 23.048L25.8742 23.2424C25.9156 23.2836 25.9571 23.3307 25.9986 23.3779L26.0519 23.4368C26.2 23.6017 26.3245 23.7725 26.437 23.9552C26.5496 24.1378 26.6503 24.3498 26.7333 24.5913C26.8162 24.8093 26.8695 25.0567 26.9051 25.3571C26.9347 25.5751 26.9288 25.8166 26.9051 26.1052C26.8814 26.3468 26.8281 26.5883 26.757 26.8239C26.6859 27.0477 26.5911 27.2716 26.4844 27.4837C26.3719 27.6957 26.2297 27.9078 26.046 28.1375C25.886 28.3378 25.6964 28.4968 25.5305 28.6382C25.3705 28.7737 25.175 28.9033 24.9499 29.027C24.5766 29.2391 24.1441 29.4158 23.6286 29.5748C23.3738 29.6514 23.125 29.7103 22.888 29.7633L22.7576 29.7928C22.6154 29.8222 22.4732 29.8576 22.331 29.8812L21.7445 29.9695C21.5075 30.0049 21.2468 30.0343 20.9624 30.052C20.8202 30.0579 20.678 30.0638 20.5417 30.0638L20.518 30.0579ZM19.6293 29.6337C20.1151 29.6809 20.5121 29.6926 20.915 29.6691C21.1935 29.6514 21.4364 29.6279 21.6615 29.5925L22.2481 29.5041C22.3844 29.4806 22.5147 29.4511 22.651 29.4217L22.7873 29.3922C23.0124 29.3451 23.2553 29.2862 23.4983 29.2155C23.9841 29.0682 24.3929 28.8974 24.7425 28.703C24.9499 28.5852 25.1217 28.4733 25.2698 28.3496C25.4239 28.2259 25.5957 28.0727 25.732 27.9019C25.9038 27.6957 26.0341 27.5013 26.1289 27.3128C26.2297 27.1184 26.3126 26.9182 26.3778 26.712C26.443 26.494 26.4904 26.2879 26.5141 26.0699C26.5437 25.8107 26.5437 25.5986 26.5141 25.4043C26.4785 25.1333 26.4311 24.9153 26.36 24.7209C26.283 24.503 26.1941 24.3145 26.0934 24.1496C25.9986 23.9905 25.8801 23.8315 25.7497 23.6842L25.6905 23.6194C25.6609 23.584 25.6253 23.5487 25.5957 23.5134L25.3942 23.319C25.3587 23.2895 25.3231 23.2542 25.2876 23.2247L25.2283 23.1776C25.175 23.1364 25.1217 23.0951 25.0684 23.0539L24.9973 23.0009C24.9439 22.9596 24.8906 22.9243 24.8373 22.889L24.5766 22.7299C24.541 22.7063 24.4996 22.6887 24.464 22.671L24.3988 22.6357C23.9071 22.3765 23.3264 22.1585 22.574 21.9523C22.2955 21.8758 21.9933 21.8051 21.626 21.7226C21.306 21.6519 20.9683 21.5989 20.6721 21.5518C20.4706 21.5223 20.2751 21.487 20.0736 21.4575L19.4515 21.3574C19.3982 21.3515 19.3449 21.3397 19.2975 21.3279H19.2619C19.0427 21.269 18.8235 21.2219 18.5983 21.1453C18.4502 21.0864 18.3258 21.0216 18.2132 20.9509C18.148 20.9038 18.1066 20.8626 18.0651 20.8213C18.0295 20.7742 18.0058 20.7448 17.994 20.7153C17.9703 20.6623 17.9644 20.6446 17.9584 20.6211L17.9466 20.5032V20.4856C17.9584 20.4502 17.9644 20.4208 17.9762 20.3854C18.0236 20.2676 18.0769 20.1734 18.1362 20.085C18.2132 19.9849 18.2843 19.9024 18.3613 19.8199C18.4324 19.7492 18.5035 19.6844 18.5806 19.6196C18.9775 19.3015 19.4101 18.9952 19.8603 18.7066C20.0855 18.5652 20.3047 18.4238 20.5299 18.3001L20.6306 18.2412C20.6306 18.2412 20.6306 18.2412 20.6365 18.2412C20.5417 18.2884 20.441 18.3414 20.3462 18.3944C20.0499 18.5534 19.7656 18.7243 19.4812 18.901C19.2145 19.0659 18.9538 19.2367 18.6931 19.4017C18.5569 19.49 18.4324 19.5784 18.3139 19.6727C18.2132 19.7492 18.0829 19.8553 17.9999 19.9672C17.9051 20.0909 17.834 20.1793 17.7925 20.2794C17.7511 20.3678 17.7333 20.4326 17.7214 20.4915C17.7214 20.515 17.7096 20.5739 17.7155 20.6093V20.6505C17.7274 20.6859 17.7333 20.7212 17.7392 20.7448C17.757 20.7978 17.7807 20.8567 17.8103 20.8979C17.834 20.9391 17.8636 20.9745 17.8992 21.0098C17.9466 21.0687 18.0058 21.1159 18.071 21.1689C18.2251 21.2808 18.3969 21.3692 18.6339 21.4516C18.9183 21.5577 19.2382 21.6401 19.6708 21.7167L20.0736 21.7874C20.5713 21.8758 21.0868 21.97 21.5904 22.0878C21.9222 22.1644 22.2481 22.2528 22.5562 22.347C22.7991 22.4177 23.0539 22.5061 23.3738 22.6239L23.7175 22.7652C23.7945 22.7947 23.8656 22.8359 23.9426 22.8713L24.0493 22.9243C24.2448 23.0185 24.4285 23.1305 24.6003 23.2424L24.8491 23.4191C24.9084 23.4603 24.9617 23.5075 25.015 23.5546L25.0861 23.6135C25.1454 23.6606 25.1987 23.7195 25.252 23.7725L25.3113 23.8315C25.3587 23.8786 25.4061 23.9316 25.4476 23.9846C25.5957 24.1731 25.7201 24.3616 25.8208 24.5619C25.9156 24.7799 25.9867 24.9978 26.0341 25.2158C26.0697 25.4514 26.0815 25.687 26.0638 25.9226C26.0341 26.1877 25.969 26.441 25.886 26.6943C25.7853 26.9476 25.6609 27.1832 25.5127 27.3953C25.3705 27.5838 25.2106 27.7546 25.0387 27.9078C24.8017 28.0963 24.541 28.2553 24.2448 28.4026C23.996 28.5145 23.7293 28.6147 23.4568 28.703C23.2613 28.7619 23.0657 28.8208 22.8702 28.8621L22.2481 28.9917L21.5727 29.0918C21.4719 29.1036 21.3712 29.1154 21.2764 29.1213C21.1046 29.133 20.9505 29.1448 20.7965 29.1507C20.4884 29.1566 20.1803 29.1507 19.884 29.1271C19.5937 29.0977 19.333 29.0565 19.0783 29.0034C18.9953 28.9858 18.9124 28.9622 18.8294 28.9386L18.7465 28.9151C18.5806 28.8738 18.4206 28.8208 18.2606 28.7678C18.1184 28.7089 17.9821 28.6559 17.8518 28.597C17.7451 28.5499 17.6326 28.4851 17.5141 28.4085L17.3956 28.3083V28.2318C17.3956 28.2318 17.3778 28.1846 17.3719 28.1611C17.3423 28.0727 17.283 28.002 17.2001 27.9549C17.1171 27.9137 17.0164 27.9019 16.9275 27.9313C16.8683 27.949 16.8149 27.9844 16.7735 28.0315C16.7498 28.0668 16.7142 28.114 16.6846 28.1611C16.6668 28.1905 16.6431 28.3025 16.6431 28.3378V28.3731C16.6609 28.4674 16.6727 28.5086 16.7024 28.5616C16.732 28.6029 16.7616 28.65 16.7912 28.6736C16.8623 28.7325 16.9512 28.7914 17.0401 28.8385L17.1112 28.8738C17.2534 28.9445 17.3778 28.9976 17.5082 29.0506C17.7985 29.1743 18.0947 29.2685 18.3969 29.3628C18.4976 29.3922 18.6043 29.4217 18.7109 29.4452L18.7998 29.4688C19.0605 29.5336 19.3449 29.5807 19.6411 29.6102L19.6293 29.6337Z" fill="#8B75F3"></path></g><g id="Group_3"><path id="Vector_3" d="M20.726 32.7508C20.6193 32.7273 20.5304 32.6625 20.4712 32.5741C20.4119 32.4799 20.3942 32.3679 20.4179 32.2619C20.4653 32.0086 20.4949 31.7553 20.5304 31.502C20.5601 31.2958 20.5778 31.0838 20.6015 30.8776C20.6193 30.6361 20.643 30.3946 20.6549 30.153C20.6726 29.888 20.6786 29.6229 20.6845 29.3578C20.7023 28.8512 20.7023 28.3446 20.7023 27.838C20.7023 26.7188 20.6786 25.6055 20.6608 24.4921C20.6489 23.9502 20.6489 23.4083 20.643 22.8663C20.643 22.3656 20.643 21.8649 20.643 21.3642C20.643 21.0873 20.643 20.8105 20.643 20.5336C20.643 20.3157 20.643 20.1036 20.643 19.8856C20.643 19.3084 20.6549 18.7252 20.6549 18.1479C20.6549 17.7002 20.6549 17.2525 20.6549 16.8048C20.6549 16.5456 20.6489 16.2806 20.643 16.0214C20.643 15.9095 20.643 15.7975 20.643 15.6915C20.643 15.5737 20.6371 15.45 20.6549 15.3263V15.3145C20.6549 15.3145 20.6608 15.2733 20.6726 15.2615C20.7082 15.2261 20.7674 15.232 20.7971 15.2733C20.8385 15.3322 20.8445 15.4205 20.8563 15.4912C20.8682 15.556 20.8741 15.6208 20.8859 15.6856C20.9037 15.8211 20.9156 15.9507 20.9333 16.0862C20.957 16.3571 20.9807 16.6222 20.9985 16.8932C21.0222 17.1642 21.0281 17.4351 21.0459 17.7061C21.0637 17.9889 21.0696 18.2657 21.0755 18.5485C21.1111 19.5381 21.1289 20.5277 21.1644 21.5174C21.2 22.6484 21.2474 23.7735 21.3007 24.9045C21.354 25.9353 21.4073 26.9662 21.4429 27.9971C21.4607 28.5508 21.4784 29.1104 21.4844 29.6641C21.4844 30.1943 21.4725 30.7244 21.431 31.2546C21.4133 31.4667 21.3896 31.6728 21.3599 31.879C21.3481 31.9615 21.3303 32.0439 21.3125 32.1323C21.2888 32.2442 21.2533 32.3561 21.2177 32.4622C21.2059 32.4975 21.194 32.527 21.1822 32.5623C21.1466 32.6271 21.0992 32.6742 21.04 32.7155C20.9748 32.7567 20.8978 32.7803 20.8148 32.7803C20.7852 32.7803 20.7556 32.7803 20.726 32.7685V32.7508Z" fill="#8B75F3"></path><path id="Vector_4" d="M20.8141 32.9445C20.7667 32.9445 20.7253 32.9445 20.6779 32.9268C20.5238 32.8915 20.3935 32.7972 20.3046 32.6676C20.2217 32.538 20.192 32.3849 20.2217 32.22C20.2631 31.9961 20.2928 31.7664 20.3224 31.5366V31.4718C20.3579 31.2657 20.3816 31.0595 20.4053 30.8474C20.4231 30.6118 20.4409 30.3703 20.4587 30.1347C20.4764 29.9049 20.4824 29.6693 20.4883 29.4396V29.3453C20.5061 28.8446 20.506 28.338 20.506 27.8314C20.506 26.8948 20.4883 25.9641 20.4705 25.0275L20.4587 24.4855C20.4527 24.0143 20.4468 23.543 20.4409 23.0718V22.8538C20.4409 22.63 20.4409 22.4061 20.4409 22.1764C20.4409 21.8995 20.4409 21.6286 20.4409 21.3517C20.4409 21.1573 20.4409 20.9688 20.4409 20.7744V19.8673C20.4527 19.2841 20.4587 18.7068 20.4587 18.1295C20.4587 17.6818 20.4587 17.2341 20.4587 16.7865L20.4468 15.5907C20.4468 15.4964 20.4468 15.3963 20.4587 15.2961C20.4587 15.2254 20.4824 15.1547 20.5297 15.1076C20.5831 15.0487 20.6601 15.0193 20.743 15.0252C20.826 15.0252 20.903 15.0723 20.9504 15.1371C21.0097 15.2195 21.0274 15.3197 21.0334 15.3904V15.4316C21.0511 15.4905 21.0571 15.5494 21.0689 15.6142C21.0867 15.7733 21.1045 15.9088 21.1163 16.0442C21.14 16.3152 21.1637 16.5862 21.1874 16.8571C21.1993 17.0456 21.2111 17.2341 21.223 17.4226L21.2348 17.6759C21.2467 17.8703 21.2526 18.0647 21.2585 18.2532L21.2704 18.5183C21.2941 19.0956 21.3059 19.6729 21.3237 20.2502C21.3355 20.6625 21.3474 21.0748 21.3592 21.4872C21.4007 22.7066 21.4422 23.814 21.4955 24.8684L21.5311 25.5753C21.5725 26.3705 21.614 27.1658 21.6377 27.961C21.6555 28.5206 21.6733 29.0744 21.6792 29.634C21.6792 30.1641 21.6673 30.7002 21.6199 31.2421C21.6022 31.4542 21.5785 31.6662 21.5488 31.8783C21.537 31.9549 21.5251 32.0256 21.5074 32.1021V32.1434C21.4777 32.2671 21.4363 32.3908 21.3948 32.5027L21.3592 32.6028C21.3 32.7207 21.2289 32.7913 21.14 32.8503C21.0452 32.9151 20.9326 32.9445 20.8141 32.9445ZM20.7667 32.5616C20.8201 32.5734 20.8852 32.5616 20.9386 32.5322C20.9682 32.5086 20.9978 32.485 21.0156 32.4497L21.0452 32.3731C21.0808 32.273 21.1163 32.1787 21.1341 32.0786V32.0373C21.1519 31.9667 21.1696 31.9019 21.1756 31.8312C21.2052 31.625 21.2289 31.4247 21.2467 31.2185C21.2881 30.6943 21.3059 30.1641 21.3 29.6457C21.3 29.092 21.2763 28.5383 21.2585 27.9846C21.2289 27.1893 21.1933 26.3941 21.1519 25.6048L21.1163 24.8979C21.063 23.8435 21.0215 22.7301 20.98 21.5108C20.9682 21.0984 20.9563 20.6861 20.9445 20.2678C20.9267 19.6905 20.9149 19.1192 20.8912 18.5419V18.2709C20.8793 18.0824 20.8734 17.888 20.8615 17.6995V17.5699C20.8556 17.7584 20.8556 17.9469 20.8556 18.1413C20.8556 18.7186 20.8497 19.3018 20.8438 19.879V20.7862C20.8378 20.9747 20.8319 21.1632 20.8378 21.3517C20.8378 21.6286 20.8378 21.9054 20.8378 22.1823C20.8378 22.4061 20.8378 22.63 20.8378 22.8538V23.0718C20.8438 23.543 20.8497 24.0143 20.8556 24.4796L20.8675 25.0216C20.8852 25.9582 20.8971 26.8948 20.903 27.8314C20.903 28.338 20.903 28.8446 20.8852 29.3571V29.4514C20.8734 29.687 20.8675 29.9226 20.8497 30.1641C20.8319 30.4056 20.8141 30.6472 20.7964 30.8887C20.7727 31.1007 20.749 31.3128 20.7253 31.519V31.5838C20.6838 31.8194 20.6542 32.055 20.6127 32.2848C20.6008 32.3554 20.6127 32.4143 20.6423 32.4615C20.6719 32.5086 20.7253 32.5439 20.7786 32.5557L20.7667 32.5616Z" fill="#8B75F3"></path></g><g id="Group_4"><path id="Vector_5" d="M23.1428 32.333C23.1428 32.0208 23.131 31.7086 23.1251 31.3964C23.1191 31.0842 23.1132 30.772 23.1014 30.4656C23.0895 29.9001 23.0717 29.3346 23.048 28.7691C23.0243 28.1624 23.0006 27.5557 22.971 26.9489C22.9532 26.6662 22.9414 26.3775 22.9236 26.0948C22.9118 25.8827 22.8999 25.6765 22.8881 25.4645C22.8821 25.3467 22.8703 25.223 22.8644 25.1052C22.8644 24.9756 22.8466 24.846 22.8407 24.7164C22.8288 24.5043 22.817 24.2922 22.8051 24.0802C22.7933 23.8387 22.7755 23.5913 22.7636 23.3497C22.7222 22.6841 22.6866 22.0243 22.6511 21.3587C22.6214 20.8344 22.5977 20.3043 22.5681 19.78C22.5326 19.1026 22.497 18.4311 22.4615 17.7536C22.4378 17.3295 22.4081 16.9113 22.3844 16.4871C22.3726 16.3163 22.3607 16.1455 22.3489 15.9746C22.337 16.01 22.3133 16.0336 22.2778 16.0336C22.2363 16.0336 22.1889 15.9982 22.1948 15.957C22.2067 15.7626 22.2185 15.5741 22.2304 15.3797C22.2363 15.2913 22.2422 15.203 22.2482 15.1087C22.2482 15.0557 22.2482 15.0027 22.2482 14.9497C22.2482 14.8849 22.2896 14.8319 22.3489 14.8142C22.3844 14.8024 22.4378 14.8142 22.4615 14.8378C22.4733 14.8495 22.4852 14.8672 22.497 14.879C22.5089 14.8967 22.5148 14.9143 22.5207 14.932C22.5385 14.9673 22.5385 15.0204 22.5444 15.0616C22.6214 15.4739 22.6629 15.8863 22.7103 16.2986C22.7459 16.6167 22.7755 16.9348 22.8051 17.2529C22.8584 17.7831 22.8999 18.3191 22.9473 18.8493C23.054 20.0687 23.1606 21.288 23.2732 22.5074C23.3858 23.7503 23.5102 24.9932 23.6287 26.2303C23.6879 26.8252 23.7412 27.4202 23.7946 28.0151C23.8479 28.5806 23.8834 29.1403 23.9249 29.7058C23.9545 30.1476 23.9901 30.5893 24.0197 31.0311C24.0316 31.2255 24.0493 31.4258 24.0612 31.6202C24.079 31.8441 24.0967 32.0738 24.0908 32.2976C24.0908 32.3389 24.0849 32.3801 24.079 32.4213C24.0612 32.5038 24.0197 32.5745 23.9664 32.6334C23.8834 32.7218 23.7649 32.7807 23.6405 32.7866C23.6346 32.7866 23.6287 32.7866 23.6228 32.7866C23.3798 32.7866 23.1488 32.5863 23.1488 32.3389L23.1428 32.333Z" fill="#8B75F3"></path><path id="Vector_6" d="M23.6401 32.9683C23.4387 32.9683 23.2668 32.8976 23.1424 32.768C23.0239 32.6502 22.9587 32.4911 22.9587 32.3321C22.9587 32.0965 22.9587 31.8608 22.9469 31.6311L22.9173 30.4765C22.9054 29.8992 22.8876 29.3337 22.8639 28.7682C22.8402 28.1615 22.8165 27.5548 22.7869 26.948L22.7751 26.7124C22.7632 26.5062 22.7514 26.3001 22.7395 26.0939L22.698 25.3576C22.698 25.2692 22.6862 25.1867 22.6862 25.0984C22.6862 25.01 22.6803 24.9275 22.6743 24.8392L22.4729 21.346C22.4492 20.8924 22.4255 20.4448 22.4018 19.9912L22.3899 19.7673C22.3544 19.0899 22.3188 18.4184 22.2833 17.7409C22.2655 17.4052 22.2418 17.0694 22.224 16.7336L22.2063 16.4745C22.2063 16.3743 22.1944 16.2801 22.1885 16.1799C22.1529 16.1681 22.1174 16.1446 22.0878 16.1151C22.0344 16.0621 22.0107 15.9914 22.0107 15.9207C22.0226 15.7263 22.0344 15.5378 22.0463 15.3435L22.0641 15.0725C22.0641 15.0254 22.0641 14.9782 22.0641 14.9311C22.0581 14.7897 22.147 14.6601 22.2892 14.6071C22.4018 14.5659 22.5381 14.6012 22.6092 14.6837L22.6506 14.7308C22.6862 14.7838 22.698 14.8133 22.704 14.8369C22.7217 14.884 22.7277 14.9429 22.7336 14.9841C22.7988 15.3317 22.8343 15.6733 22.8758 16.0032L22.9054 16.2447C22.9291 16.4627 22.9528 16.6747 22.9706 16.8927L23.0002 17.2049C23.0417 17.6114 23.0772 18.0119 23.1069 18.4184L23.2254 19.7673C23.3024 20.6627 23.3794 21.564 23.4683 22.4594C23.5808 23.7023 23.7053 24.9452 23.8238 26.1822C23.883 26.7772 23.9363 27.3722 23.9897 27.9671C24.0311 28.4501 24.0667 28.9332 24.1022 29.4162L24.2622 31.6664C24.2741 31.8608 24.2918 32.067 24.28 32.2732L24.2681 32.4087C24.2385 32.5441 24.1852 32.6443 24.1082 32.7268C23.9897 32.8563 23.8238 32.9329 23.646 32.9388L23.6401 32.9683ZM22.6447 17.5819C22.6447 17.629 22.6447 17.6761 22.6506 17.7233C22.6862 18.4007 22.7217 19.0722 22.7573 19.7497L22.7691 19.9735C22.7928 20.4271 22.8106 20.8748 22.8402 21.3284L23.0417 24.8156C23.0476 24.904 23.0535 24.9982 23.0595 25.0866C23.0595 25.1691 23.0654 25.2515 23.0713 25.334L23.1128 26.0762C23.1246 26.2824 23.1365 26.4886 23.1483 26.6947L23.1602 26.9304C23.1898 27.5371 23.2135 28.1438 23.2372 28.7565C23.2609 29.322 23.2728 29.8875 23.2905 30.4589L23.3202 31.6193C23.3261 31.8608 23.332 32.0965 23.332 32.3321C23.332 32.4146 23.3794 32.4735 23.409 32.5029C23.4624 32.5618 23.5453 32.5913 23.6164 32.5913C23.6993 32.5913 23.7704 32.5559 23.8238 32.5029C23.8593 32.4676 23.8771 32.4263 23.8889 32.3733V32.2732C23.9008 32.0965 23.8889 31.9021 23.8771 31.7136L23.7171 29.4633C23.6816 28.9803 23.6519 28.5032 23.6045 28.0201C23.5512 27.4252 23.492 26.8302 23.4387 26.2353C23.3202 24.9923 23.2017 23.7494 23.0832 22.5124C23.0002 21.617 22.9232 20.7157 22.8402 19.8145L22.7217 18.4655C22.698 18.171 22.6684 17.8705 22.6447 17.576V17.5819Z" fill="#8B75F3"></path></g></g><g id="Group_5"><g id="Group_6"><path id="Vector_7" d="M39.2223 18.2472C39.2223 18.2472 39.2223 18.2589 39.2223 18.2648C39.2223 18.2648 39.2223 18.2648 39.2223 18.2707C39.2223 18.2589 39.2223 18.253 39.2223 18.2413V18.2472ZM30.2698 6.05352C30.2698 6.05352 30.2342 6.02996 30.2224 6.01228C30.2401 6.02407 30.2579 6.03585 30.2698 6.05352ZM39.2046 18.1176C39.2046 18.1176 39.2046 18.1176 39.2046 18.1117C39.2046 18.0999 39.2046 18.094 39.2046 18.0822C39.2046 18.094 39.2046 18.1058 39.2046 18.1176ZM39.2046 18.1588C39.2046 18.1588 39.2046 18.1352 39.2046 18.1235C39.2046 18.1235 39.2046 18.1235 39.2046 18.1293C39.2046 18.1411 39.2046 18.147 39.2046 18.1588ZM39.246 18.4887C39.246 18.4474 39.2342 18.4062 39.2283 18.365C39.2283 18.3296 39.2164 18.3002 39.2164 18.2648C39.2164 18.2295 39.2046 18.2 39.2046 18.1647C39.2046 18.1941 39.2105 18.2177 39.2164 18.2472L39.252 18.4946L39.246 18.4887ZM1.67603 24.3027C1.68196 24.1201 1.65233 23.9257 1.64048 23.7431C1.62271 23.5075 1.61678 23.266 1.60493 23.0304C1.58716 22.5356 1.56938 22.0407 1.55753 21.54C1.53976 20.5681 1.59308 19.5902 1.71751 18.6301C1.78268 18.0999 1.87155 17.5815 1.96043 17.0572C2.0493 16.5448 2.17965 16.0441 2.30407 15.5375C2.41665 15.078 2.55885 14.6244 2.70697 14.1708C2.85509 13.7114 3.00914 13.2519 3.18096 12.8042C3.38241 12.2799 3.59571 11.7616 3.82678 11.255C3.93343 11.0252 4.05193 10.7955 4.17043 10.5716C4.21783 10.4774 4.27115 10.389 4.32448 10.2948C4.38373 10.1888 4.43705 10.0827 4.50222 9.98258C4.76885 9.55256 5.03547 9.12255 5.32579 8.70431C5.62796 8.27429 5.93606 7.85606 6.26193 7.44371C6.57595 7.03726 6.90182 6.63669 7.25139 6.2538C7.43507 6.04763 7.62466 5.85324 7.82019 5.65296C7.99794 5.47624 8.18753 5.30541 8.37121 5.13458C8.44823 5.06389 8.53118 5.00498 8.6082 4.94019C8.73855 4.83416 8.8689 4.72223 9.00517 4.62209C9.19477 4.48072 9.38437 4.33345 9.57989 4.20386C9.79319 4.06248 10.0065 3.9211 10.2257 3.79151C10.4568 3.65603 10.6879 3.52643 10.9249 3.40862C11.8847 2.92559 12.8979 2.54858 13.9229 2.2246C14.8709 1.91828 15.8366 1.66499 16.8202 1.48827C17.3949 1.38224 17.9755 1.30566 18.5562 1.23497C19.0539 1.17606 19.5516 1.1525 20.0493 1.12894C20.1974 1.12305 20.3455 1.12305 20.4995 1.12305C20.5766 1.12305 20.6595 1.12305 20.7365 1.12305C20.8669 1.12305 20.9972 1.13483 21.1335 1.13483C21.2402 1.13483 21.3409 1.13483 21.4475 1.14661C21.7023 1.17017 21.9571 1.18784 22.2119 1.2173C22.5318 1.25853 22.8517 1.29388 23.1717 1.34689C24.1612 1.50005 25.1388 1.718 26.0808 2.05377C27.1058 2.41899 28.1012 2.87257 29.0433 3.41451C29.9617 3.93878 30.803 4.56908 31.6266 5.22883C32.0295 5.55281 32.4146 5.90036 32.7879 6.2538C33.1315 6.5719 33.4574 6.91355 33.7655 7.27288C34.4528 8.07401 35.069 8.93405 35.62 9.82942C36.1414 10.6836 36.6509 11.5495 37.1545 12.4154C37.6582 13.2872 38.1085 14.1885 38.4817 15.1251C38.6535 15.561 38.8076 16.0028 38.932 16.4505C39.0683 16.9277 39.1335 17.4166 39.2046 17.9055C39.2105 17.9585 39.2164 18.0115 39.2283 18.0646C39.2283 18.0351 39.2223 18.0115 39.2164 17.9821C39.2223 18.041 39.2342 18.0999 39.2401 18.1588C39.246 18.2177 39.2579 18.2766 39.2638 18.3355C39.2638 18.3237 39.2638 18.312 39.2638 18.3002C39.2757 18.3768 39.2816 18.4474 39.2934 18.524C39.3705 19.0718 39.4534 19.6256 39.5304 20.1734C39.5364 20.2382 39.5482 20.2971 39.5541 20.356C39.5541 20.4797 39.5245 20.5975 39.4593 20.7094C39.3705 20.8626 39.2164 20.9804 39.0387 21.0275C38.8609 21.0747 38.6595 21.0511 38.4995 20.9569C38.3573 20.8744 38.2033 20.7094 38.1796 20.5386C38.1025 20.0615 38.0196 19.5843 37.9544 19.1072C37.8892 18.6418 37.8241 18.1765 37.753 17.7111C37.7174 17.4932 37.6878 17.2752 37.6345 17.0572C37.5811 16.8393 37.5219 16.6213 37.4567 16.4093C37.3382 16.0146 37.1901 15.6317 37.036 15.2488C36.6628 14.4006 36.2184 13.5994 35.7444 12.8042C35.223 11.9383 34.7016 11.0724 34.1506 10.2241C33.8721 9.79408 33.5759 9.37584 33.2678 8.96939C33.173 8.85158 33.0782 8.73376 32.9834 8.61006C32.8649 8.46279 32.7405 8.32731 32.616 8.18593C32.3731 7.90318 32.1006 7.64399 31.8339 7.37891C31.5732 7.11973 31.2889 6.87821 31.0104 6.63669C30.7319 6.39518 30.4416 6.16544 30.1513 5.92982C30.1513 5.92982 30.1572 5.93571 30.1631 5.9416C29.9202 5.7531 29.6713 5.5646 29.4166 5.39377C29.1085 5.1817 28.8063 4.96964 28.4864 4.78114C28.1605 4.59264 27.8346 4.39236 27.491 4.22742C27.1532 4.06248 26.8155 3.89754 26.4719 3.74439C26.1756 3.62068 25.8735 3.50876 25.5713 3.39684C25.2513 3.27902 24.9195 3.18477 24.5878 3.09641C23.9182 2.9138 23.2309 2.7901 22.5436 2.67818C22.1941 2.63694 21.8445 2.59571 21.489 2.56626C21.1098 2.53091 20.7247 2.53091 20.3396 2.53091C19.5812 2.53091 18.8287 2.6016 18.0822 2.68407C17.6674 2.74297 17.2468 2.80188 16.832 2.89024C16.3343 2.99627 15.8425 3.09641 15.3508 3.2319C15.096 3.30259 14.8412 3.36738 14.5924 3.44396C14.3376 3.52054 14.0828 3.60301 13.834 3.67959C13.36 3.82685 12.8979 4.00946 12.4357 4.18618C12.2461 4.26276 12.0565 4.34523 11.8728 4.43359C11.6003 4.56908 11.3337 4.69867 11.0671 4.84594C10.9545 4.91073 10.8419 4.96375 10.7353 5.03444C10.599 5.1228 10.4568 5.21116 10.3205 5.29952C10.1131 5.435 9.91169 5.58227 9.71024 5.72364C9.59767 5.81789 9.47917 5.90625 9.3666 6.0005C9.23625 6.10064 9.11775 6.21846 8.99332 6.32449C8.7504 6.54244 8.5134 6.77218 8.28826 7.0078C7.80834 7.5144 7.35804 8.05045 6.9196 8.59828C6.3982 9.28159 5.88273 9.97669 5.43836 10.7189C5.18359 11.143 4.94659 11.5672 4.72737 12.009C4.5437 12.3801 4.3778 12.7571 4.2119 13.1341C3.85048 14.0295 3.48906 14.9248 3.20466 15.8497C3.05654 16.3268 2.91434 16.8098 2.79584 17.2929C2.67734 17.8113 2.56477 18.3237 2.4759 18.848C2.44035 19.066 2.41072 19.2839 2.37517 19.5019C2.28037 20.3148 2.20927 21.1277 2.17373 21.9465C2.15595 22.3824 2.13818 22.8124 2.1204 23.2483C2.11448 23.4427 2.10263 23.6312 2.09078 23.8256C2.07893 23.9788 2.05523 24.1378 2.06115 24.2969C2.0967 24.4088 2.0019 24.5325 1.87748 24.5325C1.75305 24.5325 1.66418 24.4088 1.69381 24.2969L1.67603 24.3027Z" fill="#8B75F3"></path><path id="Vector_8" d="M1.85335 24.9509C1.66968 24.9509 1.49193 24.8625 1.37936 24.7153C1.27864 24.5857 1.23716 24.4207 1.26679 24.2617C1.26679 24.1674 1.25494 24.0732 1.24901 23.973L1.23124 23.7728C1.21939 23.5607 1.20754 23.3427 1.20161 23.1307V23.0482C1.17791 22.5475 1.16014 22.0527 1.15421 21.552C1.13644 20.5624 1.18976 19.5609 1.31418 18.5831C1.37936 18.0471 1.46823 17.5228 1.56303 16.9926C1.65783 16.4742 1.78225 15.9677 1.90668 15.4611C2.02518 14.978 2.1733 14.5186 2.32142 14.0591C2.46955 13.5937 2.62952 13.1284 2.80134 12.6689C3.00872 12.1387 3.22201 11.6145 3.45901 11.0961C3.55381 10.8958 3.65453 10.6955 3.75526 10.4952L3.80858 10.3951C3.84413 10.3303 3.87968 10.2655 3.91523 10.1948L4.02188 10.0004C4.06336 9.92385 4.10483 9.84727 4.15223 9.77658C4.41885 9.34067 4.6914 8.90477 4.98765 8.48064C5.28982 8.04473 5.60976 7.6206 5.93563 7.20237C6.30891 6.71934 6.62885 6.33644 6.94287 5.98889C7.13247 5.78272 7.32207 5.57655 7.52352 5.37627C7.67757 5.22311 7.83754 5.07584 7.99751 4.92858L8.09231 4.84022C8.15156 4.7872 8.21081 4.73419 8.27598 4.68706L8.34708 4.63405C8.51891 4.48678 8.63741 4.39253 8.7559 4.30417L8.91588 4.18636C9.05808 4.08033 9.20027 3.97429 9.3484 3.87415L9.42542 3.82114C9.62094 3.69743 9.81054 3.56784 10.012 3.45003C10.249 3.31454 10.486 3.17906 10.7348 3.05535C11.5939 2.61944 12.536 2.24833 13.7921 1.84188C14.7934 1.51789 15.7888 1.2646 16.7368 1.09377C17.2523 0.999517 17.7974 0.922938 18.5024 0.840469C19.006 0.781563 19.5156 0.758 20.0192 0.728547C20.1733 0.722656 20.3332 0.722656 20.4873 0.722656H20.7184C20.8132 0.722656 20.9079 0.722656 21.0087 0.728547H21.1331C21.2871 0.740328 21.376 0.740328 21.4649 0.752109L21.6308 0.763891C21.8382 0.781563 22.0396 0.799235 22.2411 0.822797C22.5669 0.864032 22.8869 0.905266 23.2127 0.952392C24.3622 1.12911 25.3339 1.37063 26.1989 1.67694C27.2536 2.05394 28.2726 2.5193 29.2266 3.06713C30.2516 3.65031 31.1759 4.36308 31.8632 4.92269C32.2246 5.21133 32.586 5.53532 33.0481 5.96533C33.4096 6.3011 33.7473 6.65454 34.0554 7.01976C34.7427 7.82678 35.3766 8.70448 35.9454 9.62932C36.4728 10.4894 36.9823 11.3553 37.4859 12.2271C38.031 13.1637 38.4695 14.065 38.8368 14.9898C39.0205 15.4552 39.1805 15.9146 39.3049 16.3564C39.453 16.8748 39.5241 17.4226 39.5893 17.8644L39.3937 17.9764L39.6011 17.9528L39.7433 18.9837C39.7611 19.1192 39.7789 19.2546 39.8026 19.3842L39.9329 20.3208V20.3562L40.0692 21.3223L39.8559 20.7921C39.8381 20.8392 39.8144 20.8805 39.7907 20.9276C39.6426 21.175 39.4056 21.3576 39.1271 21.4342C38.8368 21.5108 38.5287 21.4695 38.2739 21.3223C38.0666 21.2044 37.8059 20.9452 37.7525 20.6154L37.6696 20.1029C37.6163 19.7966 37.5689 19.4844 37.5274 19.1781L37.4681 18.7657C37.4207 18.4417 37.3793 18.1177 37.3259 17.7938C37.2963 17.5876 37.2608 17.3814 37.2134 17.1752C37.16 16.9632 37.1008 16.757 37.0415 16.5449C36.9408 16.2151 36.8105 15.8557 36.6327 15.4198C36.3187 14.7071 35.9277 13.9648 35.3648 13.0341C34.8493 12.1741 34.3279 11.3082 33.7828 10.4658C33.5103 10.0417 33.22 9.63521 32.9178 9.22875L32.6393 8.8812C32.5623 8.78695 32.4853 8.6927 32.4023 8.60434L32.2838 8.46886C32.1002 8.25679 31.9046 8.0624 31.7032 7.86212L31.5254 7.6854C31.3062 7.46745 31.0692 7.26128 30.8381 7.06099L30.7256 6.96085C30.4945 6.76057 30.2575 6.56618 30.0205 6.37768L29.8783 6.26576C29.6354 6.07725 29.4102 5.90643 29.1732 5.74738L29.0607 5.6708C28.8 5.49408 28.5393 5.31147 28.2667 5.15242L28.1423 5.08174C27.8638 4.9168 27.5854 4.75775 27.295 4.61048C26.9632 4.44555 26.6255 4.2865 26.2878 4.13334C26.0093 4.02142 25.719 3.9095 25.4228 3.79757C25.1087 3.67976 24.7888 3.5914 24.4688 3.50304C23.7934 3.32043 23.112 3.20262 22.4662 3.09659C22.1344 3.05535 21.7908 3.02001 21.4412 2.99056C21.0679 2.95521 20.7006 2.95521 20.3273 2.95521C19.5689 2.95521 18.8164 3.03179 18.1114 3.10837C17.7144 3.16138 17.3056 3.22029 16.9027 3.30276L16.7486 3.3381C16.3161 3.43235 15.8777 3.52071 15.4511 3.64442L15.2437 3.70332C15.066 3.75045 14.8823 3.80347 14.7105 3.85648L13.9521 4.09211C13.5018 4.23348 13.0574 4.40431 12.613 4.57514L12.5064 4.61637C12.3523 4.68117 12.1924 4.74597 12.0442 4.82255C11.7539 4.96392 11.5051 5.08763 11.2622 5.22311L11.1437 5.28791C11.0785 5.32325 11.0133 5.3586 10.9481 5.39983L10.5334 5.66491C10.3734 5.76505 10.2253 5.87108 10.0772 5.97711L9.6091 6.33644C9.52022 6.40713 9.43135 6.4896 9.3484 6.56618L9.2536 6.64865C9.0166 6.86071 8.79145 7.07867 8.57223 7.3084C8.15749 7.74431 7.73089 8.23912 7.22727 8.87531C6.7355 9.51739 6.22003 10.2184 5.77566 10.9488C5.52681 11.3612 5.29574 11.7794 5.08244 12.2094C4.89877 12.5746 4.7388 12.9458 4.57882 13.3169C4.2174 14.2122 3.86191 15.0958 3.58344 15.9912C3.44124 16.4625 3.29904 16.9337 3.18646 17.4109C3.06797 17.9175 2.96132 18.4241 2.87244 18.9424C2.84282 19.1015 2.82504 19.2605 2.80134 19.4255L2.77764 19.5904C2.67692 20.4445 2.61175 21.2339 2.5762 21.9938L2.52287 23.2956C2.51695 23.49 2.5051 23.6844 2.49325 23.8788L2.4814 24.0437C2.47547 24.1203 2.46362 24.1969 2.46362 24.2735C2.48732 24.4266 2.44585 24.5916 2.35105 24.7212C2.23847 24.8684 2.06073 24.9568 1.87705 24.9568L1.85335 24.9509ZM1.66968 24.2911L1.64598 24.2794L1.66376 24.2911H1.66968ZM30.4708 5.70025L30.5182 5.7356C30.767 5.93588 31.01 6.13027 31.247 6.34233L31.3595 6.43658C31.6084 6.65454 31.8572 6.8666 32.0883 7.10223L32.2661 7.27895C32.4793 7.49101 32.6926 7.70307 32.8882 7.93281L33.0007 8.0624C33.0896 8.16254 33.1844 8.26858 33.2674 8.37461L33.5518 8.73394C33.8717 9.16395 34.1739 9.58808 34.4583 10.024C35.0093 10.8781 35.5366 11.7441 36.058 12.6159C36.6387 13.5819 37.0415 14.3477 37.3733 15.1017C37.5689 15.573 37.7051 15.95 37.8118 16.3093C37.877 16.5332 37.9421 16.757 37.9955 16.9808C38.0488 17.2106 38.0903 17.4403 38.1199 17.67C38.1732 17.9999 38.2147 18.3239 38.2621 18.6538L38.3213 19.0661C38.3628 19.3666 38.4161 19.6729 38.4635 19.9733L38.5465 20.4917C38.5465 20.4917 38.6117 20.5859 38.6709 20.6213C38.7361 20.6625 38.825 20.6743 38.8961 20.6507C38.9672 20.633 39.0323 20.58 39.0679 20.5152C39.0975 20.4681 39.1094 20.421 39.1094 20.368L38.979 19.4903C38.9375 19.1898 38.8901 18.8894 38.8487 18.5831L38.7776 18.0353L38.9909 18.0117L39.1686 17.9116L38.7657 17.9646C38.6946 17.4344 38.6294 16.9985 38.505 16.5626C38.3865 16.1444 38.2443 15.7144 38.0666 15.2784C37.7111 14.3948 37.2904 13.523 36.7631 12.6218C36.2595 11.7558 35.7558 10.8958 35.2344 10.0417C34.6894 9.15217 34.0791 8.30981 33.4214 7.53814C33.1311 7.20237 32.8171 6.8666 32.4793 6.54851C32.035 6.13027 31.6854 5.82396 31.3418 5.5471C30.6782 5.01105 29.7894 4.32184 28.8177 3.76812C27.9053 3.24974 26.9277 2.80205 25.9204 2.43683C25.0969 2.1423 24.1963 1.92435 23.0824 1.74763C22.7684 1.7005 22.4544 1.65927 22.1403 1.62393C21.9507 1.60036 21.7552 1.58858 21.5597 1.57091L21.3938 1.55913C21.3168 1.55324 21.2397 1.55324 21.1686 1.54735L20.9613 1.53557C20.8842 1.53557 20.8072 1.52968 20.7302 1.52968H20.5643C20.3451 1.52968 20.2029 1.52968 20.0548 1.53557C19.5689 1.55913 19.0771 1.58269 18.5913 1.6416C17.904 1.72407 17.3767 1.79475 16.879 1.889C15.9606 2.05394 15.0067 2.30135 14.035 2.61355C12.8204 3.00234 11.9139 3.36167 11.0963 3.77401C10.8652 3.89182 10.64 4.01553 10.4149 4.14512C10.2312 4.25115 10.0475 4.36897 9.86979 4.49267L9.79277 4.54569C9.65649 4.63405 9.53207 4.7283 9.40172 4.82844L9.23582 4.95214C9.12918 5.03461 9.02253 5.11708 8.9218 5.20544L8.7796 5.31736C8.7322 5.3586 8.68481 5.39394 8.63741 5.43517L8.54261 5.52353C8.39448 5.65902 8.24636 5.7945 8.10416 5.94177C7.91456 6.13616 7.73089 6.32466 7.54722 6.53083C7.24505 6.86071 6.93695 7.23182 6.58145 7.69718C6.26743 8.10364 5.95341 8.52187 5.65716 8.946C5.37277 9.35246 5.10614 9.77658 4.85137 10.2007C4.8099 10.2655 4.77435 10.3303 4.7388 10.3951L4.62622 10.5954C4.5966 10.6484 4.56105 10.7073 4.53735 10.7603L4.48403 10.8605C4.38923 11.049 4.2885 11.2375 4.20555 11.426C3.97448 11.9267 3.76711 12.4392 3.57159 12.9516C3.39976 13.3934 3.25164 13.847 3.10352 14.3006C2.96132 14.7424 2.81912 15.1901 2.70654 15.6378C2.58212 16.1385 2.4577 16.6333 2.36882 17.1281C2.33327 17.3402 2.2918 17.5522 2.26217 17.7702C2.30365 17.5817 2.34512 17.3991 2.3866 17.2106C2.5051 16.7158 2.6473 16.2268 2.80134 15.7379C3.08574 14.8131 3.44716 13.9118 3.82043 12.987C3.99226 12.5923 4.15815 12.2094 4.34775 11.8324C4.56105 11.4024 4.79805 10.9724 5.07059 10.5188C5.53274 9.75302 6.06598 9.02847 6.57553 8.35694C7.10285 7.70307 7.54129 7.19059 7.97381 6.73701C8.21081 6.4896 8.44781 6.24808 8.70258 6.02424L8.79145 5.94177C8.89218 5.85341 8.98698 5.76505 9.09363 5.68258L9.59132 5.29969C9.75129 5.18188 9.91719 5.06406 10.0831 4.95803L10.4978 4.69884C10.5749 4.64583 10.6578 4.60459 10.7467 4.55747L10.8474 4.49856C11.1081 4.3513 11.3747 4.2217 11.6413 4.09211C11.8369 3.99786 12.0087 3.92128 12.1805 3.85059L12.2635 3.81525C12.7612 3.62085 13.2174 3.44414 13.6914 3.29687L14.4498 3.06124C14.6334 3.00234 14.823 2.94932 15.0126 2.9022L15.2141 2.84918C15.6585 2.72548 16.1088 2.62534 16.565 2.53109L16.719 2.49574C17.1397 2.40738 17.5663 2.34848 17.9929 2.28957C18.7335 2.2071 19.5156 2.13052 20.3095 2.13052C20.7124 2.13052 21.1035 2.13052 21.4945 2.16586C21.85 2.19532 22.2055 2.23655 22.561 2.27779C23.2424 2.38971 23.9534 2.51341 24.6644 2.7078C25.008 2.80205 25.3457 2.89631 25.6834 3.02001C25.9915 3.13193 26.2937 3.24974 26.5959 3.37345C26.9573 3.53839 27.301 3.69743 27.6387 3.86826C27.9468 4.02142 28.2371 4.19225 28.5333 4.36308L28.6578 4.43376C28.9481 4.60459 29.2266 4.79309 29.505 4.98159L29.6176 5.05817C29.8724 5.229 30.1212 5.4175 30.3641 5.606L30.2101 5.82396L30.376 5.61778L30.4708 5.69436V5.70025Z" fill="#8B75F3"></path></g><g id="Group_7"><path id="Vector_9" d="M39.2818 23.6376C39.0744 23.5787 38.8908 23.4726 38.7426 23.3254C38.636 23.2193 38.5234 23.0485 38.4346 22.913C38.3575 22.7893 38.2983 22.6479 38.2331 22.5125C38.162 22.3593 38.0731 22.212 37.9902 22.0707C37.8006 21.7526 37.6051 21.4404 37.3977 21.1282C37.0126 20.5509 36.5978 19.9971 36.1712 19.4434C35.5432 18.6541 34.8974 17.8765 34.2278 17.1166C33.588 16.3862 32.8888 15.7146 32.1363 15.102C31.923 14.943 31.7098 14.778 31.4787 14.6543C31.4609 14.6543 31.4372 14.6602 31.4194 14.6602C31.2832 14.6602 31.1706 14.5424 31.1706 14.4128C31.1528 14.3421 31.1587 14.2714 31.2002 14.2066C31.2891 14.0594 31.4491 14.0417 31.6031 14.0417C31.8223 14.0417 32.0534 14.1772 32.2489 14.2655C32.3674 14.3186 32.48 14.3834 32.5926 14.4423C32.9303 14.619 33.2621 14.8487 33.5702 15.0726C34.293 15.6086 34.9922 16.1682 35.6558 16.775C36.7341 17.7587 37.7591 18.7837 38.7426 19.8617C38.7545 19.7203 38.7664 19.573 38.7782 19.4316C38.8612 18.4891 38.9856 17.5407 39.1633 16.6159C39.3233 15.7912 39.5188 14.9783 39.7143 14.1654C39.9039 13.3702 40.0995 12.5749 40.2357 11.7679C40.2594 11.6442 40.2772 11.5205 40.3009 11.3909C40.3187 11.2672 40.3365 11.1494 40.3542 11.0257C40.3542 10.9845 40.3661 10.9491 40.372 10.9079C40.4313 10.6958 40.5379 10.5191 40.692 10.36C40.846 10.2069 41.0297 10.1009 41.237 10.042C41.6636 9.92414 42.1317 10.0478 42.4457 10.36C42.6768 10.5898 42.8249 10.9138 42.819 11.2436C42.819 11.3202 42.8131 11.3968 42.8072 11.4734C42.7953 11.6089 42.7775 11.7443 42.7657 11.8739C42.7183 12.2804 42.665 12.6927 42.5998 13.0992C42.5524 13.4173 42.4931 13.7354 42.4339 14.0535C42.3391 14.9842 42.268 15.909 42.2028 16.8457C42.0962 18.5127 42.0488 20.1974 41.717 21.8468C41.6577 22.1531 41.4089 22.4005 41.1185 22.5183C41.0415 22.7952 40.8875 23.0897 40.6801 23.29C40.4194 23.5492 40.058 23.7024 39.6906 23.7024C39.5544 23.7024 39.4181 23.6788 39.2818 23.6376Z" fill="#8B75F3"></path><path id="Vector_10" d="M39.6846 24.1094C39.5069 24.1094 39.3291 24.08 39.1573 24.027C38.8848 23.9504 38.6478 23.809 38.4463 23.6146C38.3101 23.4791 38.1856 23.2965 38.0849 23.1316C38.0138 23.0197 37.9605 22.9019 37.9072 22.7899L37.8598 22.6898C37.7946 22.5484 37.7116 22.4188 37.6346 22.2833C37.4509 21.9711 37.2554 21.6648 37.054 21.3585C36.6985 20.8225 36.3134 20.31 35.8453 19.6974C35.1995 18.8903 34.5536 18.1128 33.9197 17.3941C33.2976 16.6872 32.6103 16.0216 31.8756 15.4266C31.686 15.2853 31.5319 15.1733 31.3779 15.0732C31.0579 15.0555 30.7913 14.7904 30.7617 14.4723C30.7321 14.3074 30.7617 14.1484 30.8446 14.007C31.0579 13.6418 31.4668 13.6418 31.5971 13.6418C31.8697 13.6418 32.1126 13.7596 32.3081 13.8538L32.4088 13.901C32.4977 13.9422 32.5866 13.9893 32.6754 14.0364L32.7762 14.0895C33.0843 14.2485 33.4161 14.4606 33.8071 14.7551C34.6484 15.3854 35.3239 15.9332 35.9223 16.4811C36.7637 17.2468 37.5931 18.0656 38.4108 18.9198C38.4997 18.0715 38.6122 17.2881 38.7604 16.54C38.9203 15.7271 39.104 14.9436 39.3173 14.0718L39.3528 13.9186C39.5247 13.1941 39.7083 12.4401 39.8328 11.6979L39.969 10.8319C40.0579 10.5197 40.2001 10.2782 40.4016 10.0779C40.6089 9.87175 40.8519 9.73038 41.1303 9.6538C41.6991 9.50064 42.3153 9.6538 42.736 10.072C43.0559 10.3842 43.2396 10.826 43.2278 11.2502C43.2278 11.3091 43.2278 11.368 43.2159 11.4328C43.2041 11.6095 43.1922 11.7155 43.1804 11.8157L43.1685 11.9217C43.1211 12.334 43.0619 12.7523 43.0026 13.1587C42.9493 13.4827 42.896 13.8067 42.8367 14.1307C42.7478 15.0202 42.6767 15.945 42.6175 16.8698L42.5642 17.7888C42.4871 19.1495 42.4042 20.5515 42.1316 21.9181C42.0605 22.2833 41.8117 22.6014 41.4621 22.7958C41.3496 23.0963 41.1777 23.3672 40.9763 23.5675C40.6386 23.9033 40.1705 24.0977 39.7024 24.0977L39.6846 24.1094ZM32.4147 14.814C33.1731 15.4325 33.8841 16.1217 34.53 16.8522C35.1698 17.5826 35.8334 18.3661 36.4852 19.1908C36.971 19.8152 37.3621 20.3453 37.7353 20.9049C37.9427 21.223 38.1442 21.5411 38.3397 21.8651C38.4345 22.0183 38.5234 22.1773 38.6004 22.3423L38.6537 22.4542C38.6893 22.5425 38.7307 22.625 38.7781 22.7016C38.8196 22.7664 38.9322 22.949 39.0211 23.0374C39.1277 23.1375 39.2462 23.2082 39.3825 23.2494H39.4062C39.732 23.3672 40.1231 23.2612 40.3838 23.0079C40.526 22.8665 40.6504 22.6427 40.7156 22.4129L40.7689 22.2244L40.9526 22.1479C41.1363 22.0713 41.2785 21.924 41.3081 21.7709C41.5688 20.4572 41.6517 19.0788 41.7287 17.7534L41.7821 16.8286C41.8413 15.892 41.9183 14.9554 42.0131 14.0247C42.0783 13.6771 42.1316 13.359 42.179 13.0468C42.2383 12.6462 42.2975 12.2457 42.3449 11.8451L42.3568 11.7332C42.3686 11.6389 42.3805 11.5447 42.3864 11.4504L42.3983 11.2443C42.3983 11.0381 42.3094 10.8143 42.1435 10.6552C41.9302 10.4431 41.6162 10.3607 41.3318 10.4373C41.1896 10.4785 41.0711 10.5492 40.9644 10.6552C40.8637 10.7612 40.7926 10.8791 40.7511 11.0204L40.6267 11.8333C40.4964 12.5991 40.3127 13.3649 40.1349 14.1071L40.0994 14.2603C39.892 15.1203 39.7083 15.8979 39.5543 16.6931C39.3884 17.5532 39.258 18.4603 39.1751 19.4676L39.0685 20.8284L38.4345 20.1392C37.4391 19.0553 36.4082 18.0244 35.3713 17.0819C34.7906 16.5517 34.1389 16.0216 33.3153 15.4031C32.9658 15.1439 32.6814 14.9554 32.4147 14.8199V14.814Z" fill="#8B75F3"></path></g><g id="Group_8"><path id="Vector_11" d="M34.476 42.1879C34.476 42.1879 34.5294 42.1467 34.559 42.1231C34.4997 42.1643 34.4464 42.2115 34.3872 42.2527C34.4168 42.2291 34.4464 42.2056 34.476 42.182V42.1879ZM6.74734 33.9115C6.74734 33.9115 6.72364 33.8762 6.70587 33.8585C6.71772 33.8762 6.72957 33.8939 6.74734 33.9115ZM25.5649 45.3747C24.9606 45.3689 24.3563 45.3394 23.7578 45.2805C23.0587 45.2098 22.3655 45.1156 21.6723 44.986C21.062 44.874 20.4695 44.6973 19.877 44.5206C18.6505 44.1436 17.4478 43.6841 16.2806 43.1599C15.143 42.6533 14.0469 42.0524 12.9745 41.4103C11.8783 40.7565 10.8059 40.0614 9.83423 39.2367C8.87439 38.4238 8.0686 37.4459 7.27466 36.4799C6.87177 35.9909 6.50442 35.4843 6.14892 34.9601C5.80528 34.4535 5.50311 33.9115 5.22463 33.3637C4.67361 32.2916 4.19962 31.1783 3.6723 30.0944C3.63675 30.0178 3.59528 29.9412 3.55973 29.8647C3.5301 29.8117 3.51233 29.7527 3.47678 29.6997C3.44715 29.6408 3.46493 29.5584 3.5301 29.5348C3.58935 29.4995 3.6723 29.5407 3.7197 29.576C3.8145 29.6408 3.89745 29.7292 3.97447 29.8117C4.13445 29.9884 4.27072 30.1828 4.40107 30.3772C4.66176 30.7483 4.90469 31.1312 5.14761 31.5082C5.669 32.3329 6.19632 33.1575 6.77697 33.9469C7.06136 34.3062 7.34576 34.6538 7.64793 34.9954C7.9501 35.3312 8.2582 35.6611 8.57815 35.9851C8.93364 36.3444 9.29507 36.7096 9.66241 37.0572C9.99421 37.3694 10.3379 37.6639 10.6933 37.9525C11.1318 38.2765 11.5762 38.5828 12.0442 38.8597C12.5893 39.1778 13.1403 39.49 13.6973 39.7963C14.7105 40.3559 15.7532 40.8566 16.8138 41.3161C17.8981 41.752 19.006 42.129 20.1258 42.4589C20.7065 42.6297 21.2871 42.7946 21.8796 42.9242C22.4543 43.0479 23.0291 43.1481 23.6097 43.2364C24.1904 43.3071 24.771 43.3719 25.3576 43.3955C25.7012 43.4132 26.0449 43.4132 26.3885 43.4073C26.6966 43.4073 27.0047 43.3719 27.3069 43.3366C27.846 43.26 28.3852 43.1599 28.9125 43.0244C29.2384 42.9419 29.5583 42.8535 29.8783 42.7534C30.1568 42.665 30.4234 42.5649 30.6959 42.4589C31.1996 42.235 31.6854 41.9935 32.1653 41.7167C32.6215 41.4575 33.0481 41.157 33.4629 40.8507C33.9546 40.4619 34.4286 40.0614 34.8671 39.6137C35.3233 39.1542 35.7321 38.6653 36.135 38.1587C36.372 37.8465 36.609 37.5284 36.8282 37.2044C37.0771 36.8215 37.3141 36.4386 37.5333 36.0381C37.9362 35.2958 38.2917 34.5183 38.6294 33.7407C39.0323 32.757 39.37 31.7556 39.6841 30.7424C40.0218 29.6644 40.3417 28.5805 40.561 27.4731C40.6024 27.2787 40.7624 27.0902 40.9342 26.9959C41.1179 26.8899 41.349 26.8604 41.5563 26.9135C41.7578 26.9665 41.9355 27.102 42.0363 27.2846C42.1488 27.479 42.1666 27.6851 42.1192 27.9031C41.8585 29.1166 41.4556 30.2947 41.0705 31.4787C40.8868 32.0501 40.6972 32.6274 40.4958 33.1988C40.2706 33.8291 40.0218 34.4535 39.7552 35.072C39.5122 35.6375 39.2575 36.1912 38.979 36.7391C38.7124 37.2692 38.4043 37.7699 38.0725 38.2647C37.7229 38.7772 37.3437 39.2779 36.9467 39.761C36.5735 40.2204 36.1824 40.6563 35.7558 41.0746C35.347 41.4751 34.9086 41.8404 34.4583 42.1879C34.1798 42.4 33.8954 42.612 33.611 42.8123C33.3503 42.9949 33.0718 43.1658 32.7993 43.3307C32.272 43.6488 31.715 43.9198 31.1522 44.1672C30.5597 44.4264 29.9494 44.6443 29.3273 44.8151C28.7526 44.9742 28.166 45.1273 27.5735 45.2098C26.9277 45.2982 26.2819 45.3747 25.6301 45.3747C25.6005 45.3747 25.5709 45.3747 25.5412 45.3747H25.5649Z" fill="#8B75F3"></path><path id="Vector_12" d="M25.6482 45.7811H25.5594C24.878 45.7752 24.2737 45.7399 23.7167 45.681C22.9939 45.6103 22.277 45.5042 21.6015 45.3805C20.9616 45.2627 20.3395 45.0801 19.7589 44.9034C18.5561 44.5323 17.3296 44.0728 16.115 43.525C15.0959 43.0655 14.0354 42.5059 12.7674 41.7578C11.8491 41.21 10.6582 40.4618 9.57389 39.5429C8.58443 38.7064 7.76086 37.705 6.96099 36.7331C6.59365 36.2854 6.2263 35.7906 5.81156 35.1838C5.42644 34.6183 5.10056 34.0116 4.86357 33.5462C4.53177 32.9041 4.2296 32.2444 3.92743 31.5905C3.72598 31.1487 3.51861 30.7069 3.30531 30.271L3.13941 29.9235C3.05054 29.7526 3.03869 29.5936 3.09201 29.4522C3.14534 29.3167 3.24606 29.2107 3.38233 29.1577C3.52453 29.0752 3.74968 29.0988 3.95705 29.2402C4.09333 29.3344 4.19997 29.4463 4.28292 29.5406C4.43697 29.7114 4.57325 29.9058 4.70952 30.0943C5.00577 30.5184 5.25461 30.9072 5.49753 31.2901C6.01893 32.1089 6.54032 32.9336 7.10912 33.7053C7.37574 34.0469 7.66014 34.3945 7.95638 34.7302C8.25263 35.0601 8.56073 35.3841 8.87475 35.7022C9.23024 36.0615 9.58574 36.415 9.94716 36.7625C10.273 37.0688 10.6108 37.3575 10.9544 37.6343C11.4521 37.9996 11.8609 38.2764 12.2579 38.5061C12.7971 38.8242 13.3481 39.1306 13.8991 39.4369C14.8708 39.9729 15.9076 40.4736 16.9801 40.939C18.0288 41.3572 19.1308 41.7401 20.2447 42.07C20.7957 42.2349 21.3823 42.3999 21.9689 42.5295C22.4962 42.6414 23.0531 42.7415 23.6752 42.8358C24.3388 42.9182 24.8839 42.9713 25.3816 42.9948C25.7193 43.0066 26.0511 43.0125 26.3889 43.0066C26.6851 43.0066 26.9814 42.9713 27.2776 42.9418C27.8701 42.8534 28.3678 42.7592 28.824 42.6414C29.144 42.5589 29.458 42.4764 29.7661 42.3763C30.0327 42.2879 30.2934 42.1878 30.5541 42.0877C31.0399 41.8756 31.508 41.64 31.9701 41.3749C32.3493 41.1569 32.7345 40.8978 33.2262 40.5325C33.7713 40.1025 34.2098 39.7196 34.583 39.3367C34.9682 38.9479 35.3474 38.512 35.8214 37.9171C36.0465 37.6167 36.2835 37.3103 36.4968 36.9923C36.7456 36.6152 36.9708 36.2382 37.1841 35.8554C37.5929 35.0955 37.9484 34.3179 38.2624 33.5933C38.6002 32.7687 38.9201 31.8497 39.3052 30.6362C39.6252 29.6113 39.951 28.5097 40.1762 27.4082C40.2473 27.0547 40.5139 26.7896 40.7391 26.6601C41.0175 26.4951 41.3612 26.4539 41.6693 26.5364C41.9714 26.6188 42.2381 26.8191 42.398 27.0901C42.558 27.361 42.5995 27.6615 42.5225 27.9972C42.2914 29.0634 41.9537 30.112 41.6219 31.1252L41.4678 31.6082C41.2782 32.1855 41.0946 32.7628 40.8872 33.34C40.668 33.9527 40.4132 34.5948 40.1406 35.2368C39.8622 35.8789 39.6074 36.4326 39.3585 36.9275C39.1038 37.4282 38.8016 37.9465 38.4224 38.4944C38.0847 38.9892 37.6996 39.5017 37.2789 40.0142C36.8701 40.5149 36.4672 40.9567 36.0584 41.3631C35.7029 41.7165 35.3 42.0641 34.8082 42.447L34.6364 42.5766C34.3816 42.771 34.1268 42.9595 33.8661 43.148C33.5995 43.3365 33.327 43.5014 33.0485 43.6722C32.5389 43.9786 31.9998 44.2554 31.3362 44.5441C30.7022 44.8209 30.0682 45.0448 29.458 45.2097C28.8596 45.3746 28.2671 45.5278 27.6509 45.6162C27.0525 45.6986 26.3592 45.787 25.6482 45.787V45.7811ZM5.10649 32.2032C5.26054 32.533 5.42051 32.8629 5.59233 33.1869C5.81748 33.6346 6.12558 34.2119 6.487 34.7361C6.88989 35.3193 7.23947 35.7965 7.59496 36.2265C8.37113 37.169 9.171 38.1409 10.1071 38.9303C11.144 39.8139 12.2994 40.5325 13.1881 41.0627C14.4205 41.7931 15.4574 42.3469 16.4468 42.7887C17.6318 43.3188 18.8227 43.7724 19.9959 44.1317C20.5528 44.3025 21.1512 44.4793 21.7437 44.5853C22.4014 44.709 23.0946 44.8032 23.7937 44.8739C24.327 44.927 24.9076 44.9564 25.5653 44.9682H25.6482C26.3 44.9682 26.9636 44.8857 27.5324 44.8033C28.1012 44.7267 28.664 44.5735 29.2328 44.4204C29.8075 44.2672 30.4 44.0551 31.0044 43.7901C31.6324 43.5191 32.142 43.2599 32.6041 42.983C32.8767 42.8181 33.1374 42.6591 33.3921 42.4823C33.6765 42.2821 33.9491 42.0759 34.2275 41.8638C34.7312 41.475 35.1341 41.1275 35.4836 40.7799C35.8747 40.397 36.2539 39.9788 36.6449 39.5017C37.0537 39.001 37.4211 38.512 37.747 38.0349C38.1025 37.5106 38.3928 37.0276 38.6298 36.5563C38.8727 36.0733 39.1215 35.5314 39.3941 34.907C39.6666 34.2826 39.9096 33.6581 40.1229 33.0573C40.3243 32.4918 40.508 31.9204 40.6917 31.349L40.8457 30.866C41.1716 29.8705 41.5034 28.8455 41.7226 27.8146C41.7581 27.6379 41.7226 27.5495 41.687 27.4847C41.6337 27.3964 41.5448 27.3316 41.45 27.3021C41.3493 27.2727 41.2368 27.2904 41.142 27.3434C41.0472 27.3964 40.9761 27.4906 40.9642 27.5495C40.7391 28.6923 40.4013 29.8174 40.0755 30.8601C39.6903 32.0971 39.3585 33.0337 39.009 33.8879C38.695 34.6065 38.3217 35.4371 37.8951 36.2265C37.6699 36.6329 37.4329 37.0217 37.1722 37.4223C36.953 37.758 36.7042 38.082 36.4613 38.4001C35.9695 39.0245 35.5666 39.484 35.1637 39.8963C34.7667 40.3028 34.3046 40.7034 33.7239 41.1628C33.1966 41.5575 32.7819 41.8344 32.373 42.0641C31.8872 42.341 31.3954 42.5943 30.8681 42.824C30.5778 42.9418 30.2993 43.0419 30.0149 43.1362C29.689 43.2422 29.3573 43.3306 29.0255 43.4131C28.5396 43.5368 28.0123 43.6369 27.3783 43.7312C27.0465 43.7665 26.7266 43.7959 26.4066 43.8018C26.0511 43.8018 25.7016 43.8018 25.3461 43.7901C24.8247 43.7665 24.2618 43.7135 23.5686 43.6251C22.9228 43.5309 22.3481 43.4248 21.803 43.3129C21.1868 43.1774 20.5883 43.0066 20.0196 42.8417C18.876 42.5059 17.7503 42.1171 16.672 41.6812C15.564 41.2041 14.5034 40.6916 13.508 40.1437C12.9511 39.8374 12.3942 39.5252 11.8431 39.2012C11.4225 38.9538 10.9959 38.6652 10.4567 38.2705C10.0775 37.9642 9.72794 37.6638 9.38429 37.3457C9.01102 36.9923 8.6496 36.6329 8.28818 36.2677C7.96823 35.9378 7.64829 35.608 7.34612 35.2604C7.03802 34.9129 6.7477 34.5535 6.45737 34.1942C6.44552 34.1765 6.43368 34.1589 6.4159 34.1412C6.40998 34.1294 6.39813 34.1176 6.38628 34.0999C5.93006 33.4755 5.50346 32.8276 5.10056 32.1914L5.10649 32.2032Z" fill="#8B75F3"></path></g><g id="Group_9"><path id="Vector_13" d="M1.60488 38.2171C1.43306 38.117 1.26124 37.9285 1.22569 37.7282C1.20199 37.6104 1.17236 37.4749 1.17236 37.3571C1.17236 37.2629 1.17236 37.1627 1.17236 37.0685C1.17236 36.9683 1.17829 36.8741 1.18421 36.7739C1.19014 36.5795 1.20199 36.3852 1.21384 36.1908C1.23161 35.802 1.24939 35.4073 1.26124 35.0185C1.29086 34.2586 1.30271 33.4928 1.30864 32.733C1.30864 31.9731 1.29086 31.2191 1.24346 30.4592C1.24346 30.3649 1.23161 30.2766 1.21976 30.1823C1.21384 30.0881 1.20791 29.9997 1.20199 29.9054C1.20199 29.7405 1.23161 29.5756 1.26124 29.4165C1.28494 29.281 1.36196 29.1514 1.42121 29.0277C1.48638 28.8923 1.59896 28.7803 1.69376 28.6743C1.80041 28.5565 1.94853 28.4681 2.07295 28.3739C2.227 28.2678 2.4166 28.2089 2.58842 28.1382C2.71877 28.0852 2.85505 28.0499 2.99132 28.0204C3.03872 27.9792 3.10982 27.9674 3.16314 27.991C3.19277 27.991 3.22832 27.9792 3.25794 27.9733C3.54826 27.9262 3.83858 27.8967 4.13483 27.8791C4.6266 27.8496 5.13615 27.8614 5.62791 27.9144C5.95379 27.9556 6.27966 27.991 6.60553 28.0322C7.01435 28.0793 7.42317 28.1677 7.82607 28.2384C8.43041 28.3444 9.0229 28.5152 9.60947 28.6802C10.1546 28.8333 10.6878 29.0101 11.2151 29.2103C11.9439 29.4813 12.6667 29.77 13.36 30.1293C13.6503 30.2766 13.8695 30.5888 13.9524 30.8951C14.0413 31.2249 13.9939 31.5902 13.8221 31.8847C13.4725 32.4797 12.6549 32.7094 12.0505 32.3442C11.304 31.8965 10.5278 31.5136 9.7339 31.1602C9.4258 31.0364 9.12363 30.9186 8.81553 30.8067C8.63778 30.7419 8.46003 30.6712 8.28229 30.6182C8.05121 30.5475 7.81422 30.4768 7.58314 30.412C7.19802 30.3001 6.80698 30.2118 6.41593 30.1175C6.07821 30.035 5.72864 29.9938 5.38499 29.9349C4.73917 29.8583 4.08743 29.8171 3.44161 29.8819C3.38829 29.8937 3.33496 29.9054 3.27572 29.9172C3.26979 30.0291 3.26387 30.1411 3.25202 30.253C3.19277 31.0482 3.12759 31.8376 3.06834 32.6328C3.06242 32.7388 3.05057 32.8508 3.04464 32.9568C3.04464 33.1924 3.04464 33.4339 3.04464 33.6696C3.03872 34.2881 3.01502 34.9066 2.98539 35.5251C2.97354 35.8079 2.95577 36.0906 2.93207 36.3734C2.90837 36.6974 2.86689 37.0213 2.83727 37.3453C2.84912 37.4396 2.83727 37.5279 2.81357 37.6222C2.7958 37.7223 2.75432 37.8048 2.71285 37.8991C2.59435 38.1524 2.26848 38.3055 2.00778 38.3055C1.85966 38.3055 1.72338 38.2643 1.59303 38.1936L1.60488 38.2171Z" fill="#8B75F3"></path><path id="Vector_14" d="M2.01963 38.7295C1.8004 38.7295 1.59303 38.6706 1.40343 38.5646C1.16644 38.4232 0.893889 38.1522 0.83464 37.7988C0.79909 37.6044 0.775391 37.4807 0.775391 37.3688C0.775391 37.2627 0.775391 37.1626 0.775391 37.0566C0.775391 36.98 0.775391 36.9034 0.78724 36.8268L0.816865 36.173C0.83464 35.7842 0.852415 35.3954 0.864265 35.0066C0.893889 34.2467 0.905739 33.4927 0.911664 32.7328C0.911664 31.9317 0.893889 31.1954 0.84649 30.4885L0.828715 30.2234C0.82279 30.1056 0.81094 30.0172 0.81094 29.923C0.81094 29.7463 0.83464 29.5754 0.864265 29.4282C0.905739 29.1867 0.976838 29.0512 1.03609 28.9393L1.07164 28.8627C1.14866 28.6977 1.26716 28.574 1.35603 28.468C1.52193 28.2854 1.65228 28.1911 1.77078 28.1087L1.85373 28.0498C2.0137 27.932 2.19145 27.8672 2.33957 27.8141L2.45215 27.7729C2.5825 27.7199 2.71284 27.6846 2.84912 27.6492C2.94984 27.5962 3.06834 27.5726 3.18684 27.5844H3.21054C3.51864 27.5314 3.82081 27.4961 4.1289 27.4843C4.68585 27.4548 5.20724 27.4666 5.69309 27.5255L6.6707 27.6433C6.99065 27.6787 7.30467 27.7376 7.61869 27.8024L7.91494 27.8554C8.48373 27.9555 9.0466 28.1146 9.59169 28.2677L9.73389 28.309C10.2494 28.4503 10.7826 28.6271 11.3751 28.8509C12.0861 29.116 12.8445 29.4164 13.5614 29.7875C13.9347 29.9819 14.2368 30.3707 14.3613 30.8066C14.4798 31.2425 14.4205 31.7196 14.1894 32.1084C13.9643 32.4913 13.5792 32.78 13.1348 32.8919C12.6904 33.0038 12.2401 32.939 11.8609 32.7152C11.2033 32.3205 10.4864 31.9494 9.59169 31.5547C9.3073 31.4428 9.00513 31.3191 8.70295 31.213L8.51336 31.1424C8.40671 31.1011 8.30006 31.0599 8.18748 31.0304L7.48834 30.8243C7.1921 30.7359 6.88992 30.6652 6.58775 30.5945L6.3389 30.5356C6.10191 30.4767 5.85898 30.4414 5.62199 30.4001L5.33759 30.353C4.70362 30.2764 4.16445 30.2529 3.68453 30.2882C3.64898 30.783 3.61343 31.2778 3.57196 31.7668L3.47716 33.0038V33.693C3.46531 34.3174 3.44161 34.9418 3.41199 35.5662C3.40014 35.8549 3.38236 36.1435 3.35866 36.4322C3.34681 36.6207 3.32311 36.8092 3.30534 36.9977L3.26979 37.3747C3.28164 37.5043 3.26979 37.6339 3.22831 37.7635C3.21054 37.8695 3.15721 37.9814 3.11574 38.0874C2.90837 38.541 2.41067 38.7413 2.03148 38.7413L2.01963 38.7295ZM1.81225 37.8636C1.99593 37.9637 2.29217 37.8872 2.35735 37.7517C2.3929 37.6692 2.4166 37.6162 2.42845 37.5691C2.44622 37.4925 2.45215 37.4512 2.44622 37.4159V37.3747L2.4877 36.9093C2.50547 36.7267 2.52325 36.5441 2.54102 36.3615C2.56472 36.0846 2.5825 35.8019 2.59435 35.525C2.62397 34.9124 2.64767 34.2939 2.6536 33.6812L2.68322 32.615L2.75432 31.6961C2.79579 31.2072 2.83134 30.7182 2.86689 30.2293L2.90837 29.599L3.38236 29.493C4.01041 29.4282 4.65622 29.4459 5.45016 29.546L5.74641 29.5931C6.00711 29.6344 6.26781 29.6756 6.5285 29.7404L6.77143 29.7993C7.08545 29.8759 7.40539 29.9466 7.71349 30.0408L8.41856 30.247C8.54298 30.2823 8.6674 30.3295 8.79183 30.3766L8.96958 30.4414C9.28952 30.5533 9.59762 30.677 9.90572 30.8007C10.8419 31.2189 11.5943 31.6018 12.2816 32.0142C12.4712 32.1261 12.7023 32.1556 12.9334 32.1025C13.1704 32.0436 13.3718 31.8964 13.4903 31.6961C13.6088 31.4899 13.6443 31.2425 13.5792 31.0187C13.5199 30.8007 13.36 30.5886 13.1881 30.5003C12.5068 30.1468 11.778 29.8641 11.0848 29.6049C10.516 29.3928 10.0005 29.222 9.51467 29.0865L9.36655 29.0453C8.84515 28.898 8.30006 28.7449 7.76681 28.6506L7.46464 28.5917C7.1684 28.5328 6.87215 28.4798 6.56998 28.4444L5.59236 28.3266C5.15392 28.2736 4.674 28.2618 4.17038 28.2913C3.89191 28.3031 3.61343 28.3384 3.33496 28.3796L3.08612 28.4268C2.97354 28.4503 2.86097 28.4798 2.75432 28.521L2.62397 28.574C2.50547 28.6153 2.39882 28.6565 2.32772 28.7095L2.227 28.7802C2.14405 28.8391 2.0611 28.8921 2.0137 28.951L1.95445 29.0158C1.88928 29.0865 1.8241 29.1572 1.8004 29.2161L1.753 29.3104C1.71746 29.3811 1.68191 29.4576 1.67006 29.4989C1.63451 29.6992 1.61673 29.8111 1.61673 29.9053C1.61673 29.9878 1.62266 30.0644 1.62858 30.1468L1.65228 30.4473C1.69968 31.1718 1.71746 31.9258 1.71746 32.7446C1.71746 33.5104 1.69968 34.2821 1.67006 35.0479C1.65821 35.4366 1.64043 35.8313 1.62266 36.226L1.58118 37.086C1.58118 37.1803 1.58118 37.2686 1.58118 37.3629C1.58118 37.4277 1.59896 37.5043 1.61673 37.5808L1.63451 37.6692C1.64636 37.7222 1.72338 37.8224 1.81818 37.8754L1.81225 37.8636Z" fill="#8B75F3"></path></g></g></g><defs><clipPath id="clip0_4086_8844"><rect width="42.4581" height="45.0576" fill="white" transform="translate(0.76416 0.722656)"></rect></clipPath></defs></svg>