<svg xmlns="http://www.w3.org/2000/svg" width="40" height="98" viewBox="0 0 40 98" fill="none"><g clip-path="url(#clip0_4086_9167)"><path d="M33.1203 7.04083C32.829 8.11538 32.5377 9.21231 32.2912 10.3092C31.7534 12.615 31.238 14.9432 30.7898 17.2714C29.8934 21.9054 29.0643 26.5617 28.2128 31.2181C28.0111 32.3374 27.8094 33.4343 27.6077 34.5536C27.787 33.9044 27.9663 33.2552 28.168 32.5836C28.3696 31.8225 28.5713 31.0614 28.773 30.3002C29.7142 25.7558 30.6778 21.2114 31.5293 16.667C31.8878 14.6746 32.2464 12.6598 32.6049 10.6674C32.9411 8.76458 33.2772 6.86174 33.8374 5.00368C33.6806 5.47379 33.5013 5.92152 33.322 6.36924C33.2772 6.48117 33.2324 6.59311 33.1876 6.70504C33.1652 6.81697 33.1203 6.9289 33.0979 7.04083H33.1203ZM23.7982 62.3575C23.7982 62.3575 23.7982 62.3575 23.7982 62.3351V62.3575ZM19.4733 59.2458C19.294 59.201 19.1595 59.1115 19.0475 59.0219C19.182 59.7383 19.294 60.477 19.406 61.2158C19.406 61.171 19.406 61.1262 19.4285 61.0591C19.5181 60.477 19.6077 59.895 19.7198 59.3129C19.6301 59.3129 19.5629 59.2905 19.4733 59.2682V59.2458ZM16.3808 25.823C16.3808 25.823 16.3808 25.7782 16.3584 25.7558C16.4032 26.0021 16.4705 26.2483 16.5153 26.4946C16.5601 26.6737 16.6049 26.8527 16.6273 27.0318C16.6273 26.8527 16.6273 26.6737 16.6273 26.4946C16.5153 26.2707 16.4481 26.0468 16.3584 25.823H16.3808ZM2.80101 5.13799C3.00269 4.82458 3.31641 4.60072 3.67496 4.51118C3.98868 4.44402 4.32482 4.48879 4.61613 4.62311C4.68336 4.37686 4.81781 4.17538 4.99709 4.01868C5.19877 3.83959 5.42286 3.72765 5.66935 3.6605C6.16235 3.54856 6.72258 3.70527 7.05871 4.08584C7.30521 4.37686 7.57412 4.69027 7.7758 5.00368C8.20157 5.00368 8.60493 5.18277 8.94106 5.49618C9.07552 5.63049 9.20997 5.7872 9.32201 5.9439C10.0391 6.81697 10.7114 7.71242 11.3388 8.65265C12.0335 9.63765 12.7058 10.645 13.3556 11.6748C13.9831 12.6822 14.5881 13.712 15.1483 14.7641C15.6862 15.7939 16.224 16.8237 16.6722 17.8982C16.8514 18.3012 17.0083 18.7041 17.1876 19.1071C17.2772 19.2638 17.3668 19.4205 17.4341 19.5772C17.5685 19.8234 17.6806 20.0473 17.815 20.2935C17.9271 20.5174 18.0615 20.7189 18.1511 20.9427C18.3528 20.898 18.5769 20.9204 18.7786 20.9651C19.1147 20.3831 19.4509 19.8234 19.8094 19.2638C21.0643 17.2042 22.4313 15.2342 23.843 13.2642C25.1876 11.4062 26.5321 9.5481 27.8542 7.66765C28.4593 6.79458 29.0643 5.89913 29.6694 5.02606C29.8262 4.77981 29.9831 4.53356 30.1623 4.3097C30.2744 4.04106 30.3864 3.77243 30.4985 3.4814C30.6329 3.14561 30.7898 2.78743 30.9467 2.45163C31.0363 2.22777 31.1259 1.98152 31.2828 1.78004C31.3948 1.66811 31.4845 1.53379 31.5741 1.42186C31.8206 1.198 32.0895 1.06368 32.4032 0.996521C32.9859 0.862203 33.703 1.04129 34.0839 1.51141C34.308 1.73527 34.4425 2.02629 34.5097 2.3397C34.5769 2.65311 34.5545 2.96652 34.4649 3.25754C34.4649 3.25754 34.4649 3.30231 34.4425 3.3247C34.4425 3.39186 34.3976 3.43663 34.3752 3.50379C34.2408 3.86197 34.1287 4.24254 33.9943 4.60072C33.9943 4.60072 33.9943 4.60072 34.0167 4.62311C34.0391 4.64549 34.0615 4.66788 34.0839 4.71265C34.1511 4.44402 34.2408 4.17538 34.3304 3.90675C34.4649 3.4814 34.801 3.168 35.2268 3.07845C35.6077 2.98891 36.1231 3.10084 36.392 3.43663C36.5489 3.63811 36.7282 3.83959 36.773 4.08584C36.7954 4.28731 36.8178 4.4664 36.7954 4.66788C36.773 5.00368 36.7058 5.31708 36.6385 5.65288C36.5937 5.96629 36.5265 6.25731 36.4817 6.57072C36.3696 7.15276 36.2576 7.73481 36.1455 8.33924C35.9439 9.45856 35.7198 10.5555 35.5181 11.6748C35.0475 14.1149 34.5993 16.555 34.1511 19.0175C33.2772 23.853 32.336 28.666 31.35 33.5015C30.4088 38.1802 29.4229 42.8366 28.4369 47.4929C27.4733 52.0821 26.4425 56.6713 25.4341 61.2382C24.9635 63.3201 24.4929 65.402 24.0447 67.5063C23.843 68.4689 23.6413 69.4316 23.4173 70.3942C23.3052 70.9314 23.1932 71.4687 23.0587 71.9836C22.9691 72.297 22.8794 72.6328 22.8122 72.9462C22.7898 73.0581 22.745 73.1701 22.7226 73.2596C22.6778 73.4387 22.6105 73.6178 22.5209 73.7745C22.4313 73.9536 22.3192 74.0879 22.1624 74.1998C21.9159 74.4013 21.6245 74.4909 21.3332 74.4013C21.0643 74.3118 20.773 74.0655 20.7506 73.7745C20.7282 73.573 20.7058 73.3939 20.7058 73.1701C20.7058 73.0134 20.7506 72.8343 20.7506 72.6776C20.7506 72.4985 20.7954 72.3418 20.8178 72.1627C20.8402 71.8941 20.885 71.6254 20.9074 71.3344C20.9747 70.7747 21.0419 70.2375 21.1091 69.6778C21.1091 69.633 21.1091 69.5883 21.1091 69.5659C20.9299 69.7002 20.7282 69.7897 20.5265 69.8345C19.8318 69.9912 19.1371 69.6554 18.801 69.0286C18.5769 68.6256 18.5545 68.2003 18.5769 67.7526C18.4201 67.7973 18.2408 67.8197 18.0839 67.7973C17.7926 67.7973 17.5237 67.7078 17.2772 67.5511C17.0307 67.3944 16.829 67.1929 16.6946 66.9243C16.5377 66.4989 16.3808 66.096 16.2464 65.6706C16.1567 65.3796 16.0895 65.0662 16.0223 64.7528C15.9551 64.4394 15.8654 64.126 15.7982 63.7902C15.6862 63.2977 15.5517 62.7828 15.4397 62.2903C15.1708 61.1038 14.8794 59.9174 14.6105 58.7309C14.0279 56.2908 13.4677 53.873 12.8626 51.4329C11.6974 46.6646 10.5097 41.9187 9.36683 37.1505C8.2912 32.6284 7.30521 28.084 6.34162 23.5396C5.31081 18.637 4.25759 13.7343 3.15955 8.85413C2.95787 7.98106 2.73378 7.13038 2.59933 6.23492C2.57692 6.07822 2.57692 5.9439 2.59933 5.7872C2.59933 5.58572 2.66655 5.38424 2.80101 5.20515V5.13799Z" fill="#0B0B0B"></path><path d="M33.21 69.544C33.21 69.544 33.2548 69.4544 33.2773 69.4097C33.2324 69.5216 33.1876 69.6111 33.1428 69.7231C33.1652 69.6559 33.1876 69.6111 33.2324 69.544H33.21ZM23.9775 84.4981C23.9775 84.4981 23.9775 84.4757 23.9775 84.4533C23.9775 84.4533 23.9775 84.4757 23.9775 84.4981ZM19.3837 88.1022C19.3837 88.1022 19.4509 88.0127 19.4733 87.9903C19.4733 87.9903 19.4733 88.0127 19.4509 88.0351C19.4509 88.0575 19.4061 88.0799 19.3837 88.1246V88.1022ZM20.2577 73.6631C20.1456 73.8198 20.0336 73.9989 19.9215 74.1779C19.9215 74.2003 19.9439 74.2227 19.9663 74.2675C20.168 74.6704 20.3473 75.0734 20.5266 75.4764C20.5938 75.3868 20.661 75.2973 20.7058 75.1853C20.9523 74.8271 21.154 74.4466 21.3781 74.0884C21.6918 73.5735 22.0056 73.0586 22.3417 72.5437C23.2829 71.0215 24.1568 69.4544 25.0756 67.9322C24.8067 68.1112 24.5602 68.268 24.2913 68.4247C24.1792 68.5366 24.0896 68.6485 23.9775 68.7828C23.4621 69.4097 22.9467 70.0365 22.4537 70.6633C22.6106 70.9767 22.633 71.3125 22.633 71.6707C22.633 72.1184 22.3417 72.5437 21.9607 72.7452C21.6022 72.9243 21.2436 72.9019 20.8851 72.7676C20.6834 73.081 20.4593 73.372 20.2577 73.6854V73.6631ZM18.1736 90.1842C18.1288 90.4976 17.8151 90.7886 17.5686 90.9229C17.5686 90.9229 17.5238 90.9229 17.5013 90.9453C17.5462 91.0572 17.591 91.1692 17.6358 91.3035C17.9047 92.0199 18.1736 92.7138 18.3753 93.4526C18.3753 93.4078 18.4201 93.3854 18.4425 93.3406C18.6666 92.9153 18.8907 92.49 19.1148 92.087C19.2717 91.7736 19.4285 91.4826 19.6078 91.1692C19.563 91.102 19.5406 91.0125 19.5182 90.9453C19.4733 90.7886 19.5182 90.6319 19.5406 90.4976C19.6078 90.3185 19.6974 90.1618 19.7647 89.9827C20.0784 89.2439 20.3697 88.5276 20.7058 87.8112C20.661 87.9008 20.6386 87.9679 20.5938 88.0575C21.1316 86.871 21.6694 85.6845 22.2072 84.4757C21.6694 85.2144 21.1092 85.9532 20.549 86.6695C20.549 86.6695 20.549 86.6919 20.549 86.7143C20.6162 86.9605 20.6386 87.2292 20.6162 87.4754C20.6162 87.7888 20.4593 88.0351 20.2801 88.2813C20.1008 88.5052 19.8991 88.6843 19.6078 88.7514C19.3613 88.7962 19.1148 88.7514 18.9131 88.6619C18.7114 88.9082 18.4873 89.1768 18.2857 89.423C18.2633 89.6693 18.2184 89.9155 18.1736 90.1842ZM16.0224 73.1258C16.0672 73.2377 16.112 73.3497 16.1568 73.484C16.1568 73.3497 16.1568 73.2153 16.1568 73.1034C16.112 73.1034 16.0896 73.1258 16.0448 73.1482L16.0224 73.1258ZM2.95793 51.0529C2.95793 51.0529 2.95793 51.0976 2.98034 51.12C2.98034 51.0976 2.98034 51.0752 2.95793 51.0529ZM0.0895839 51.0752C0.17922 50.8066 0.313673 50.5827 0.515354 50.3813C0.784262 50.135 1.25485 49.9112 1.6358 49.9559C1.94953 50.0007 2.21844 50.0231 2.50975 50.2022C2.68902 50.3141 2.84589 50.4484 3.00275 50.5827C3.09238 50.6499 3.18202 50.7395 3.24925 50.829C3.51816 50.6051 3.85429 50.4932 4.19042 50.4932C4.57138 50.4932 4.86269 50.6723 5.1316 50.9185C5.51255 51.2767 5.84869 51.6797 6.16241 52.0826C6.47614 52.0155 6.83468 52.0826 7.10359 52.2393C7.26045 52.3289 7.41731 52.4408 7.57418 52.5527C7.75345 52.6871 7.93272 52.8438 8.11199 52.9781C8.3809 53.2019 8.6274 53.4482 8.8739 53.6721C9.05317 53.8512 9.23244 54.0302 9.41171 54.2093C9.77026 54.5675 10.1512 54.9257 10.5098 55.3063C11.2268 56.0898 11.9663 56.8733 12.661 57.6792C13.3781 58.5075 14.0952 59.3358 14.7899 60.1865C14.8795 60.2984 14.9915 60.4327 15.0812 60.5447C15.2605 60.276 15.5518 60.0969 15.8655 60.0298C16.2016 59.9626 16.5378 60.0298 16.8291 60.1865C17.098 60.3656 17.3669 60.679 17.4117 61.0148C17.5013 61.7088 17.591 62.3803 17.6806 63.0743C17.7254 63.4101 17.7703 63.7235 17.8151 64.0593C18.2857 64.6638 18.7338 65.2906 19.2044 65.9174C19.9439 65.1786 20.7282 64.4623 21.5126 63.7459C22.2745 63.0519 23.0588 62.3803 23.8879 61.7311C25.2997 60.6118 26.7114 59.5149 28.1232 58.418C28.7506 57.9255 29.4005 57.4554 30.028 56.9629C30.3641 56.7166 30.7002 56.448 31.0364 56.2017C31.2156 56.0674 31.3725 55.9555 31.5518 55.8212C31.8207 55.6197 32.112 55.3958 32.4033 55.2167C33.2548 54.2765 34.1064 53.3587 34.9579 52.4184C35.3389 52.0155 35.7422 51.5901 36.1232 51.1872C36.5042 50.8066 36.8627 50.4037 37.2436 50.0231C37.2436 50.0007 37.2885 49.9783 37.3109 49.9559C37.4229 49.7768 37.5574 49.6425 37.7366 49.553C38.0056 49.4187 38.2969 49.3963 38.5882 49.4634C38.8795 49.553 39.126 49.7545 39.2605 50.0231C39.3949 50.2693 39.3949 50.4932 39.3501 50.7395C39.7534 51.0305 39.9775 51.5006 39.9775 52.0155C39.9775 52.4856 39.7534 52.9109 39.5742 53.3363C39.4845 53.5601 39.3949 53.784 39.3053 53.9855C39.0588 54.5899 38.7899 55.1719 38.5434 55.754C38.3193 56.2465 38.0952 56.739 37.8711 57.2091C37.6246 57.724 37.4005 58.2389 37.1316 58.7314C37.0868 58.8209 37.0196 58.9329 36.9747 59.0224C36.9747 59.1791 36.9299 59.3358 36.8627 59.4701C37.0196 60.0746 36.7506 60.7014 36.5714 61.261C36.4369 61.6864 36.3025 62.0893 36.1456 62.4923C35.9215 63.0743 35.6974 63.6788 35.4509 64.2608C35.2941 64.6638 35.1148 65.0667 34.9579 65.4473C34.7114 66.0069 34.4873 66.589 34.2408 67.1486C34.2408 67.1486 34.2408 67.1039 34.2633 67.1039C34.2633 67.1039 34.2633 67.1262 34.2633 67.1486C34.2633 67.1934 34.2408 67.2158 34.2184 67.2606C34.2184 67.2606 34.2184 67.2158 34.2408 67.1934C34.1736 67.3277 34.1288 67.462 34.0616 67.5964C34.0616 67.5516 34.1064 67.5068 34.1288 67.4397C34.0392 67.6411 33.9495 67.865 33.8375 68.0665C33.8823 67.9545 33.9271 67.865 33.9719 67.7531C33.7254 68.3127 33.4789 68.8724 33.21 69.432C33.1876 69.4992 33.1428 69.5887 33.1204 69.6559C33.0532 69.7902 32.9859 69.9245 32.9411 70.0812C32.9859 69.9693 33.0308 69.8798 33.0756 69.7678C32.0896 71.9393 31.0588 74.0884 30.0504 76.2375C29.1092 78.2299 28.1456 80.2223 27.2044 82.2146C25.3669 86.0651 23.4621 89.8708 21.4453 93.6317C21.1764 94.1466 20.8851 94.6614 20.6162 95.1763C20.5041 95.4002 20.3697 95.6017 20.2577 95.8255C20.1232 96.0494 20.0112 96.2956 19.8767 96.5195C19.6302 96.9896 19.2492 97.3702 18.8011 97.6164C18.5994 97.7284 18.1512 97.8403 17.9047 97.7955C17.6806 97.7731 17.4565 97.7508 17.2324 97.6612C16.7843 97.5045 16.4033 97.1911 16.0896 96.8105C15.5742 96.1837 15.2156 95.4674 14.8571 94.751C14.4985 93.9899 14.2072 93.2287 13.8935 92.4452C12.9971 90.1842 12.168 87.9008 11.3613 85.6174C10.0392 81.9012 8.80667 78.1403 7.70863 74.357C7.66381 74.2675 7.619 74.1556 7.59659 74.066C7.14841 72.9691 6.76745 71.8274 6.36409 70.7081C6.00555 69.7231 5.66942 68.7381 5.33328 67.7531C3.89911 63.5221 2.59939 59.2686 1.36689 54.9705C1.27726 54.6347 1.18762 54.3213 1.09799 53.9855C1.05317 53.784 0.985942 53.5825 0.941124 53.381C0.918715 53.2915 0.896306 53.1796 0.873897 53.09C0.60499 52.9557 0.3809 52.7318 0.268856 52.4632C0.17922 52.2617 0.111993 52.0379 0.022357 51.8364C-0.0224609 51.7021 -0.0224609 51.5677 -0.0224609 51.4334C-0.0224609 51.2767 0.022357 51.0976 0.0671749 50.9409L0.0895839 51.0752Z" fill="#0B0B0B"></path></g><defs><clipPath id="clip0_4086_9167"><rect width="40" height="97" fill="white" transform="translate(0 0.929688)"></rect></clipPath></defs></svg>