<svg xmlns="http://www.w3.org/2000/svg" width="25" height="25" viewBox="0 0 25 25" fill="none"><path fill-rule="evenodd" clip-rule="evenodd" d="M12.5 0.0130615C5.87527 0.0130615 0.5 5.38833 0.5 12.0131C0.5 18.6378 5.87527 24.0131 12.5 24.0131C19.1117 24.0131 24.5 18.6378 24.5 12.0131C24.5 5.38833 19.1117 0.0130615 12.5 0.0130615ZM20.4262 5.54451C21.8579 7.28855 22.717 9.51414 22.743 11.9219C22.4046 11.8569 19.0206 11.1671 15.6106 11.5966C15.5325 11.4274 15.4675 11.2451 15.3894 11.063C15.1811 10.5684 14.9469 10.0608 14.7126 9.57924C18.4869 8.04346 20.205 5.83085 20.4262 5.54451ZM12.5 1.78313C15.103 1.78313 17.4848 2.75927 19.2939 4.36014C19.1117 4.62044 17.5629 6.68985 13.9186 8.05644C12.2397 4.97184 10.3786 2.4469 10.0922 2.05644C10.8601 1.87423 11.6671 1.78313 12.5 1.78313ZM8.13995 2.74625C8.41325 3.11067 10.2354 5.64864 11.9404 8.66814C7.15076 9.94366 2.92083 9.91764 2.46529 9.91764C3.12907 6.74191 5.27657 4.09983 8.13995 2.74625ZM2.24404 12.0261C2.24404 11.9219 2.24404 11.8178 2.24404 11.7137C2.68655 11.7267 7.65835 11.7918 12.7733 10.256C13.0727 10.8287 13.346 11.4143 13.6063 12C13.4761 12.0391 13.3329 12.0782 13.2028 12.1172C7.91865 13.8221 5.10738 18.4816 4.8731 18.872C3.2462 17.063 2.24404 14.6552 2.24404 12.0261ZM12.5 22.269C10.1312 22.269 7.94469 21.4621 6.21367 20.1085C6.39588 19.7311 8.47827 15.7224 14.257 13.7051C14.283 13.692 14.2961 13.692 14.3221 13.679C15.7668 17.4143 16.3525 20.551 16.5087 21.449C15.2722 21.9827 13.9186 22.269 12.5 22.269ZM18.2136 20.512C18.1096 19.8872 17.5629 16.8938 16.2223 13.2104C19.4371 12.7028 22.2484 13.5359 22.5998 13.653C22.1573 16.5033 20.5173 18.9632 18.2136 20.512Z" fill="#F1EBF7"></path></svg>