<svg xmlns="http://www.w3.org/2000/svg" width="97" height="77" viewBox="0 0 97 77" fill="none"><g id="uuid-64fef575-69e6-4c78-a10a-53ee1242c095" clip-path="url(#clip0_4504_25793)"><path id="Vector" d="M10.5635 28.8142C23.3174 22.3071 39.0366 17.2096 53.3919 21.3524C67.7473 25.4952 78.0102 37.6745 85.3062 49.5921C86.6216 51.7511 90.0618 49.8049 88.7464 47.6459C82.5029 37.4412 74.3739 27.7084 63.8059 21.6212C53.238 15.534 40.407 14.9332 28.3888 17.8661C21.4887 19.5463 14.8684 22.2153 8.57345 25.4366C6.2994 26.5957 8.30656 29.9777 10.5635 28.8142Z" fill="#D7FF65"></path><path id="Vector_2" d="M7.29636 30.125C13.8837 40.2768 22.3816 49.9992 33.3493 55.7611C44.3169 61.523 56.8658 61.547 68.7179 58.2833C75.445 56.4319 81.9174 53.6341 88.0211 50.3085C90.2576 49.0858 88.2675 45.7082 86.031 46.931C73.6505 53.6801 58.316 59.1122 44.0389 55.6898C29.7619 52.2675 18.4743 40.0872 10.7365 28.1788C9.35627 26.0565 5.91608 28.0027 7.29636 30.125Z" fill="#D7FF65"></path><path id="Vector_3" d="M51.2634 18.8184C43.9801 16.127 35.6197 19.8088 31.6246 26.0766C27.3129 32.8352 28.6053 41.9323 32.9511 48.3531C37.6689 55.3565 46.1129 59.9687 54.6834 57.5984C63.254 55.2281 68.2114 48.0476 68.7221 39.8565C69.2924 30.3712 63.1975 21.8385 54.799 17.5971C52.5326 16.4435 50.5185 19.8063 52.7849 20.9599C58.8533 24.0129 63.7242 29.5136 64.6383 36.3038C65.5524 43.0941 62.5615 49.5728 56.4909 52.7098C43.0959 59.6221 29.3222 42.9287 33.8774 30.4385C36.184 24.1204 43.76 20.1601 50.2807 22.5607C52.6758 23.4433 53.6848 19.672 51.3067 18.7939L51.2634 18.8184Z" fill="#D7FF65"></path><path id="Vector_4" d="M53.5537 33.2561C51.466 32.1855 48.8691 32.111 46.8216 33.3119C44.8822 34.4515 43.6837 36.7015 43.9562 38.9265C44.1037 40.1317 44.5519 41.3085 45.4681 42.178C46.2238 42.8976 47.2312 43.4323 48.2707 43.5806C49.4854 43.7573 50.6149 43.6423 51.7297 43.1108C52.8445 42.5792 53.5894 41.5913 53.9678 40.4709C54.7918 38.0504 53.3094 35.0937 50.7479 34.4186C49.7404 34.153 48.5471 34.7715 48.3247 35.7895C48.1023 36.8075 48.6461 37.9018 49.7265 38.1687C49.829 38.1957 49.9485 38.2272 50.0464 38.2709L49.5523 38.0689C49.6844 38.1217 49.7948 38.1867 49.9223 38.2562C50.1943 38.3996 49.5797 37.9685 49.7402 38.1184C49.7823 38.1654 49.846 38.2002 49.8881 38.2472C49.9302 38.2941 49.9849 38.3624 50.0315 38.3926C50.1624 38.5168 49.73 37.9543 49.8973 38.2137C49.9769 38.3244 50.0349 38.4473 50.11 38.5748C50.2477 38.8085 49.9894 38.3456 50.0281 38.3379C50.0281 38.3379 50.1146 38.5581 50.11 38.5748C50.151 38.6932 50.1703 38.8239 50.2112 38.9424C50.2806 39.1581 50.1681 38.4286 50.176 38.7357C50.1748 38.8072 50.1908 38.8832 50.1896 38.9546C50.1998 39.1188 50.1804 39.2572 50.1735 39.4169L50.242 38.8967C50.2123 39.1401 50.1439 39.3912 50.0459 39.6166L50.251 39.1323C50.1975 39.2617 50.1143 39.3654 50.0608 39.4949C49.9104 39.7782 50.3967 39.1348 50.1701 39.3622C50.1223 39.4034 50.0915 39.4491 50.0437 39.4904L49.8523 39.6552C49.8523 39.6552 50.2771 39.3725 50.0608 39.4949C49.9309 39.5683 49.784 39.6372 49.6542 39.7107C49.5028 39.7964 50.1586 39.5386 49.8444 39.6173C49.784 39.6372 49.7066 39.6527 49.6463 39.6727C49.5472 39.7004 49.0485 39.7843 49.4481 39.7281C49.8478 39.672 49.3411 39.7179 49.2295 39.7243C49.0667 39.7173 48.921 39.7148 48.7628 39.691L49.2933 39.7591C48.9768 39.7116 48.6694 39.6305 48.3882 39.5205L48.8823 39.7225C48.7161 39.6608 48.5715 39.5868 48.4315 39.4961C48.3678 39.4613 48.3086 39.4098 48.2619 39.3796C48.0752 39.2586 48.6637 39.7187 48.427 39.5128C48.3803 39.4826 48.0548 39.1994 48.0684 39.1491C48.0684 39.1491 48.378 39.6255 48.1948 39.2901C48.1447 39.2051 48.0901 39.1369 48.0571 39.0564C48.0195 38.9927 48.0036 38.9167 47.949 38.8485C48.2164 39.2779 48.0855 39.1536 48.007 38.9715C47.9581 38.815 47.9309 38.6464 47.882 38.4899C47.8342 38.262 47.9296 38.9869 47.9047 38.6753C47.8933 38.5826 47.899 38.4944 47.8877 38.4017C47.8821 38.2208 47.8935 38.0444 47.9095 37.8512L47.841 38.3715C47.8856 38.0064 47.9813 37.6548 48.1283 37.3168L47.9232 37.801C48.0121 37.6091 48.1009 37.4172 48.224 37.2343C48.2638 37.1551 48.3208 37.0804 48.3778 37.0057C48.5623 36.7314 48.011 37.4114 48.3641 37.0559C48.4951 36.911 48.6511 36.8086 48.7775 36.6804C48.5042 36.8775 48.4563 36.9187 48.6124 36.8163C48.6602 36.7751 48.7251 36.7384 48.7854 36.7184C48.872 36.6694 48.9585 36.6205 49.0451 36.5715C49.1316 36.5226 49.2307 36.4948 49.3172 36.4459C48.7684 36.7139 49.11 36.5348 49.2694 36.4871C49.4721 36.4149 49.6827 36.3807 49.8979 36.3298C50.2634 36.2646 49.3742 36.3712 49.8376 36.3498C49.9492 36.3433 50.0778 36.3413 50.1894 36.3348C50.4296 36.3264 50.6607 36.3514 50.8918 36.3765L50.3613 36.3084C50.819 36.3752 51.28 36.4967 51.7103 36.664L51.2163 36.462C51.3313 36.5102 51.4588 36.5797 51.5737 36.628C52.4878 37.1022 53.7687 36.9015 54.2905 35.9265C54.7724 35.0308 54.5702 33.7573 53.5708 33.2606L53.5537 33.2561Z" fill="#D7FF65"></path><path id="Vector_5" d="M31.9186 19.084L33.5922 12.9399C33.8612 11.9522 33.2286 10.7806 32.1903 10.5607C31.1521 10.3409 30.0544 10.8769 29.7671 11.9317L28.0935 18.0758C27.8245 19.0635 28.4571 20.2351 29.4953 20.4549C30.5336 20.6748 31.6313 20.1387 31.9186 19.084Z" fill="#D7FF65"></path><path id="Vector_6" d="M42.6511 17.7142L44.7761 9.91267C45.0451 8.92493 44.4342 7.74111 43.3788 7.51677C42.3235 7.29242 41.2428 7.83297 40.9556 8.88768L38.826 16.7059C38.557 17.6937 39.1896 18.8653 40.2278 19.0851C41.2661 19.3049 42.3638 18.7689 42.6511 17.7142Z" fill="#D7FF65"></path><path id="Vector_7" d="M53.2725 21.0521C54.5474 18.5889 55.8348 16.147 57.1096 13.6839C57.5745 12.7837 57.3848 11.5315 56.3899 11.018C55.4758 10.5438 54.1778 10.74 53.6731 11.7194C52.3982 14.1826 51.1108 16.6244 49.8359 19.0876C49.3711 19.9878 49.5608 21.24 50.5557 21.7535C51.4698 22.2277 52.7677 22.0315 53.2725 21.0521Z" fill="#D7FF65"></path><path id="Vector_8" d="M65.178 26.5952C66.7411 23.8133 68.3212 21.0359 69.8797 18.2707C70.3787 17.3794 70.1423 16.097 69.1599 15.6048C68.1776 15.1126 66.982 15.3358 66.4432 16.3062C64.8801 19.0881 63.3 21.8656 61.7415 24.6307C61.2425 25.522 61.4789 26.8044 62.4612 27.2966C63.4436 27.7889 64.6391 27.5657 65.178 26.5952Z" fill="#D7FF65"></path><path id="Vector_9" d="M74.5063 31.9245C75.6635 30.6326 76.8378 29.3451 77.995 28.0532C78.3572 27.6642 78.5965 27.1889 78.5796 26.6462C78.5786 26.1794 78.3648 25.6206 77.9971 25.2905C77.617 24.939 77.1025 24.6778 76.5617 24.7147C76.0595 24.7438 75.521 24.9069 75.1804 25.2837C74.0232 26.5756 72.8489 27.8631 71.6917 29.155C71.3295 29.544 71.0903 30.0192 71.1072 30.562C71.1081 31.0288 71.322 31.5876 71.6896 31.9177C72.0697 32.2691 72.5843 32.5304 73.1251 32.4935C73.6272 32.4643 74.1658 32.3013 74.5063 31.9245Z" fill="#D7FF65"></path><path id="Vector_10" d="M21.8343 46.4995C20.4722 47.7375 19.1272 48.9799 17.765 50.2178C17.0077 50.9154 16.9856 52.2732 17.7458 52.976C18.5528 53.7091 19.7528 53.7383 20.558 52.9996C21.9201 51.7616 23.2652 50.5192 24.6273 49.2813C25.3847 48.5837 25.4068 47.2259 24.6465 46.5231C23.8395 45.79 22.6395 45.7608 21.8343 46.4995Z" fill="#D7FF65"></path><path id="Vector_11" d="M29.4073 53.7704C28.5756 55.3455 27.7439 56.9206 26.8952 58.4913C26.6434 58.9453 26.5533 59.4777 26.6863 59.9973C26.8205 60.4453 27.1596 60.9474 27.5933 61.1694C28.5073 61.6436 29.8053 61.4474 30.31 60.468C31.1417 58.8929 31.9734 57.3178 32.8222 55.7471C33.074 55.2931 33.1641 54.7606 33.0311 54.2411C32.8969 53.793 32.5578 53.291 32.1241 53.069C31.21 52.5948 29.912 52.7909 29.4073 53.7704Z" fill="#D7FF65"></path><path id="Vector_12" d="M41.5688 58.1065L40.2008 63.1289C39.9318 64.1166 40.5644 65.2882 41.6026 65.5081C42.6409 65.7279 43.7386 65.1919 44.0259 64.1371L45.3939 59.1147C45.663 58.127 45.0304 56.9554 43.9921 56.7355C42.9538 56.5157 41.8561 57.0518 41.5688 58.1065Z" fill="#D7FF65"></path><path id="Vector_13" d="M54.8523 60.4056C54.8392 61.9992 54.8477 63.5804 54.8347 65.1739C54.8311 65.6575 55.0711 66.1873 55.4171 66.5297C55.7631 66.8721 56.3505 67.1346 56.8526 67.1054C57.9467 67.0529 58.826 66.2439 58.8309 65.1507C58.844 63.5572 58.8354 61.9759 58.8485 60.3824C58.8521 59.8989 58.6121 59.3691 58.2661 59.0267C57.9201 58.6843 57.3327 58.4218 56.8306 58.4509C55.7365 58.5034 54.8572 59.3124 54.8523 60.4056Z" fill="#D7FF65"></path><path id="Vector_14" d="M64.2987 60.0613C64.7071 60.779 65.1156 61.4968 65.507 62.21C65.6276 62.4392 65.7961 62.6271 66.0169 62.7571C66.207 62.9328 66.4494 63.0505 66.7056 63.1181C66.9617 63.1856 67.2315 63.2029 67.4854 63.1442C67.7473 63.1235 67.9841 63.0603 68.2051 62.9212L68.6173 62.6172C68.8702 62.3608 69.0376 62.082 69.1334 61.7304L69.2019 61.2102C69.2032 60.8696 69.1099 60.54 68.9347 60.2426C68.5262 59.5248 68.1177 58.8071 67.7263 58.0938C67.6057 57.8647 67.4373 57.6767 67.2165 57.5467C67.0264 57.371 66.7839 57.2533 66.5278 57.1858C66.2716 57.1183 66.0018 57.101 65.7479 57.1596C65.486 57.1803 65.2492 57.2435 65.0283 57.3826L64.616 57.6867C64.3632 57.943 64.1957 58.2219 64.0999 58.5734L64.0315 59.0937C64.0302 59.4343 64.1234 59.7639 64.2987 60.0613Z" fill="#D7FF65"></path></g><defs><clipPath id="clip0_4504_25793"><rect width="84.4128" height="56.5481" fill="white" transform="matrix(0.966972 0.254883 -0.262807 0.964848 14.8613 0)"></rect></clipPath></defs></svg>