<svg xmlns="http://www.w3.org/2000/svg" width="428" height="235" viewBox="0 0 428 235" fill="none"><g id="Frame 44255"><rect id="Rectangle 193" x="0.5" y="84.0767" width="152.414" height="150.621" rx="17.931" fill="#D7FF65"></rect><g id="uuid-ea67aa18-5148-401f-a003-4918a884f4a6" clip-path="url(#clip0_4086_10785)"><g id="Group"><g id="Group_2"><path id="Vector" d="M13.5562 88.5112L43.2252 105V70.2359L13.5562 53.7471V88.5112Z" fill="#D8C7FF"></path><path id="Vector_2" d="M43.2253 105.503C43.1412 105.503 43.0571 105.478 42.9815 105.436L13.3124 88.9473C13.1526 88.855 13.0518 88.6873 13.0518 88.5112V53.747C13.0518 53.5709 13.1442 53.4031 13.304 53.3109C13.4553 53.2186 13.6487 53.2186 13.8084 53.3109L43.4775 69.7998C43.6372 69.892 43.7381 70.0597 43.7381 70.2359V105C43.7381 105.176 43.6456 105.344 43.4859 105.436C43.4102 105.486 43.3177 105.503 43.2337 105.503H43.2253ZM14.0606 88.2092L42.7208 104.145V70.5378L14.0606 54.6025V88.2092Z" fill="#0B0B0B"></path></g><g id="Group_3"><path id="Vector_3" d="M13.5562 53.789L43.4018 70.3114L70.4898 55.1645L40.6442 38.6421L13.5562 53.789Z" fill="white"></path><path id="Vector_4" d="M43.4018 70.8147C43.3177 70.8147 43.2337 70.7895 43.158 70.7476L13.3124 54.2252C13.1526 54.1413 13.0518 53.9735 13.0518 53.789C13.0518 53.6045 13.1526 53.4368 13.3124 53.3529L40.4004 38.206C40.5518 38.1221 40.7367 38.1221 40.8881 38.206L70.7337 54.7284C70.8934 54.8206 70.9943 54.9884 70.9943 55.1645C70.9943 55.349 70.8934 55.5168 70.7337 55.6006L43.6456 70.7476C43.57 70.7895 43.4859 70.8147 43.4018 70.8147ZM14.5903 53.789L43.4018 69.7411L69.4558 55.1729L40.6442 39.2208L14.5903 53.789Z" fill="#0B0B0B"></path></g><g id="Group_4"><path id="Vector_5" d="M70.49 91.0274L43.7803 105.243V70.1354L70.49 55.1646V91.0274Z" fill="#0B0B0B"></path><path id="Vector_6" d="M43.7803 105.747C43.6878 105.747 43.6038 105.721 43.5197 105.671C43.3684 105.579 43.2759 105.42 43.2759 105.243V70.1354C43.2759 69.9509 43.3768 69.7831 43.5281 69.6992L70.2378 54.7284C70.3892 54.6446 70.5825 54.6446 70.7423 54.7284C70.8936 54.8207 70.9945 54.98 70.9945 55.1646V91.0274C70.9945 91.2119 70.8936 91.3797 70.7254 91.4719L44.0157 105.688C43.94 105.73 43.856 105.747 43.7803 105.747ZM44.2847 70.4289V104.405L69.9856 90.7255V56.0284L44.2847 70.4373V70.4289Z" fill="#0B0B0B"></path></g></g><g id="Group_5"><g id="Group_6"><path id="Vector_7" d="M68.0854 191.462L97.7629 207.951V173.195L68.0854 156.698V191.462Z" fill="#D8C7FF"></path><path id="Vector_8" d="M97.7629 208.454C97.6788 208.454 97.5947 208.429 97.5191 208.387L67.85 191.898C67.6902 191.806 67.5894 191.646 67.5894 191.462V156.698C67.5894 156.522 67.6818 156.354 67.8416 156.262C67.9929 156.169 68.1863 156.169 68.346 156.262L98.0151 172.75C98.1748 172.843 98.2757 173.002 98.2757 173.187V207.951C98.2757 208.127 98.1832 208.295 98.0235 208.387C97.9478 208.437 97.8553 208.454 97.7713 208.454H97.7629ZM68.5982 191.16L97.2584 207.095V173.488L68.5982 157.553V191.16Z" fill="#0B0B0B"></path></g><g id="Group_7"><path id="Vector_9" d="M68.0854 156.74L97.9311 173.262L125.019 158.115L95.1735 141.593L68.0854 156.74Z" fill="white"></path><path id="Vector_10" d="M97.9311 173.765C97.847 173.765 97.763 173.74 97.6873 173.698L67.8417 157.176C67.6819 157.084 67.5811 156.924 67.5811 156.74C67.5811 156.555 67.6819 156.388 67.8417 156.295L94.9297 141.148C95.0811 141.064 95.266 141.064 95.4258 141.148L125.271 157.671C125.431 157.763 125.532 157.931 125.532 158.115C125.532 158.3 125.431 158.468 125.271 158.551L98.1833 173.698C98.1077 173.74 98.0236 173.765 97.9395 173.765H97.9311ZM69.1196 156.74L97.9311 172.692L123.985 158.124L95.1735 142.172L69.1196 156.74Z" fill="#0B0B0B"></path></g><g id="Group_8"><path id="Vector_11" d="M125.019 193.979L98.3096 208.195V173.087L125.019 158.116V193.979Z" fill="#0B0B0B"></path><path id="Vector_12" d="M98.3096 208.698C98.2171 208.698 98.1331 208.672 98.049 208.63C97.8977 208.538 97.8052 208.379 97.8052 208.194V173.086C97.8052 172.902 97.9061 172.734 98.0658 172.65L124.776 157.679C124.935 157.587 125.129 157.595 125.28 157.679C125.431 157.772 125.532 157.931 125.532 158.115V193.978C125.532 194.163 125.431 194.331 125.263 194.423L98.5534 208.639C98.4778 208.681 98.3937 208.698 98.318 208.698H98.3096ZM98.814 173.38V207.356L124.515 193.676V158.979L98.814 173.38Z" fill="#0B0B0B"></path></g></g><g id="Group_9"><g id="Group_10"><path id="Vector_13" d="M57.0215 118.386L86.6906 134.875V100.11L57.0215 83.6216V118.386Z" fill="#D8C7FF"></path><path id="Vector_14" d="M86.6906 135.378C86.6065 135.378 86.5225 135.353 86.4468 135.311L56.7777 118.822C56.618 118.73 56.5171 118.562 56.5171 118.386V83.6215C56.5171 83.4454 56.6096 83.2777 56.7609 83.1854C56.9206 83.0931 57.1056 83.0931 57.2653 83.1854L86.9344 99.6743C87.0941 99.7665 87.195 99.9343 87.195 100.11V134.875C87.195 135.051 87.1025 135.218 86.9512 135.311C86.8756 135.353 86.7831 135.378 86.699 135.378H86.6906ZM57.5175 118.084L86.1778 134.019V100.412L57.5175 84.477V118.084Z" fill="#0B0B0B"></path></g><g id="Group_11"><path id="Vector_15" d="M57.0215 83.6635L86.8671 100.186L113.955 85.039L84.1095 68.5166L57.0215 83.6635Z" fill="white"></path><path id="Vector_16" d="M86.8671 100.689C86.7831 100.689 86.699 100.672 86.6233 100.622L56.7777 84.0997C56.618 84.0074 56.5171 83.8397 56.5171 83.6635C56.5171 83.4874 56.618 83.3113 56.7777 83.2274L83.8658 68.0805C84.0171 67.9966 84.2021 67.9966 84.3618 68.0805L114.207 84.6029C114.367 84.6952 114.468 84.8629 114.468 85.039C114.468 85.2151 114.367 85.3913 114.207 85.4751L87.1194 100.622C87.0437 100.664 86.9596 100.689 86.8756 100.689H86.8671ZM58.0556 83.6635L86.8671 99.6156L112.921 85.0474L84.1096 69.0953L58.0556 83.6635Z" fill="#0B0B0B"></path></g><g id="Group_12"><path id="Vector_17" d="M113.955 120.902L87.2456 135.118V100.01L113.955 85.0391V120.902Z" fill="#0B0B0B"></path><path id="Vector_18" d="M87.2456 135.621C87.1532 135.621 87.0691 135.596 86.985 135.546C86.8337 135.453 86.7412 135.294 86.7412 135.118V100.01C86.7412 99.8254 86.8421 99.6576 87.0018 99.5738L113.712 84.6029C113.871 84.5191 114.056 84.5191 114.216 84.6029C114.367 84.6952 114.468 84.8545 114.468 85.0391V120.902C114.468 121.086 114.367 121.254 114.199 121.346L87.4895 135.562C87.4138 135.604 87.3297 135.621 87.2541 135.621H87.2456ZM87.7501 100.303V134.279L113.451 120.6V85.8945L87.7501 100.303Z" fill="#0B0B0B"></path></g></g><g id="Group_13"><g id="Group_14"><path id="Vector_19" d="M46.0835 161.998L75.761 178.495V143.731L46.0835 127.242V161.998Z" fill="#D8C7FF"></path><path id="Vector_20" d="M75.761 178.998C75.6769 178.998 75.5929 178.973 75.5172 178.931L45.8397 162.442C45.68 162.35 45.5791 162.191 45.5791 162.006V127.242C45.5791 127.066 45.6716 126.898 45.8313 126.806C45.9827 126.714 46.176 126.714 46.3358 126.806L76.0048 143.295C76.1646 143.387 76.2654 143.555 76.2654 143.731V178.495C76.2654 178.671 76.173 178.839 76.0132 178.931C75.9376 178.982 75.8451 178.998 75.761 178.998ZM46.588 161.704L75.2482 177.64V144.033L46.588 128.098V161.704Z" fill="#0B0B0B"></path></g><g id="Group_15"><path id="Vector_21" d="M46.0835 127.276L75.9375 143.807L103.026 128.66L73.18 112.137L46.0835 127.276Z" fill="white"></path><path id="Vector_22" d="M75.9375 144.302C75.8534 144.302 75.7693 144.285 75.6937 144.234L45.848 127.712C45.6883 127.62 45.5874 127.452 45.5874 127.276C45.5874 127.091 45.6883 126.924 45.848 126.831L72.9361 111.684C73.0874 111.601 73.2724 111.601 73.4237 111.684L103.269 128.207C103.429 128.299 103.53 128.467 103.53 128.643C103.53 128.828 103.429 128.995 103.269 129.079L76.1813 144.226C76.1056 144.268 76.0215 144.293 75.9375 144.293V144.302ZM47.1259 127.276L75.9375 143.228L101.991 128.66L73.1799 112.708L47.1259 127.276Z" fill="#0B0B0B"></path></g><g id="Group_16"><path id="Vector_23" d="M103.026 164.523L76.3159 178.739V143.63L103.026 128.66V164.523Z" fill="#0B0B0B"></path><path id="Vector_24" d="M76.316 179.242C76.2235 179.242 76.1394 179.217 76.0553 179.166C75.904 179.074 75.8115 178.915 75.8115 178.738V143.63C75.8115 143.446 75.9124 143.278 76.0721 143.194L102.782 128.224C102.933 128.14 103.127 128.14 103.286 128.224C103.438 128.316 103.539 128.475 103.539 128.66V164.523C103.539 164.707 103.438 164.883 103.269 164.967L76.5598 179.183C76.4841 179.225 76.4 179.242 76.3244 179.242H76.316ZM76.8204 143.924V177.9L102.521 164.221V129.515L76.8204 143.924Z" fill="#0B0B0B"></path></g></g><g id="Group_17"><g id="Group_18"><path id="Vector_25" d="M24.4097 136.946L54.0871 153.435V118.679L24.4097 102.182V136.946Z" fill="#D8C7FF"></path><path id="Vector_26" d="M54.0871 153.938C54.003 153.938 53.9189 153.913 53.8433 153.871L24.1742 137.382C24.0145 137.29 23.9136 137.122 23.9136 136.938V102.174C23.9136 101.998 24.0061 101.83 24.1658 101.738C24.3171 101.645 24.5105 101.645 24.6702 101.738L54.3393 118.227C54.499 118.319 54.5999 118.487 54.5999 118.663V153.418C54.5999 153.595 54.5074 153.762 54.3477 153.855C54.272 153.896 54.1796 153.922 54.0955 153.922L54.0871 153.938ZM24.9224 136.644L53.5826 152.571V118.965L24.914 103.038V136.644H24.9224Z" fill="#0B0B0B"></path></g><g id="Group_19"><path id="Vector_27" d="M24.4097 102.224L54.2553 118.746L81.3517 103.6L51.4977 87.0771L24.4097 102.224Z" fill="white"></path><path id="Vector_28" d="M54.2553 119.25C54.1713 119.25 54.0872 119.225 54.0115 119.183L24.1659 102.66C24.0062 102.568 23.9053 102.4 23.9053 102.224C23.9053 102.048 24.0062 101.872 24.1659 101.788L51.254 86.641C51.4053 86.5572 51.5902 86.5572 51.75 86.641L81.5956 103.163C81.7553 103.256 81.8562 103.423 81.8562 103.6C81.8562 103.784 81.7553 103.952 81.5956 104.036L54.5075 119.183C54.4319 119.225 54.3478 119.25 54.2637 119.25H54.2553ZM25.4438 102.224L54.2553 118.176L80.3093 103.608L51.4978 87.6559L25.4438 102.224Z" fill="#0B0B0B"></path></g><g id="Group_20"><path id="Vector_29" d="M81.3519 139.462L54.6338 153.678V118.57L81.3519 103.6V139.462Z" fill="#0B0B0B"></path><path id="Vector_30" d="M54.6338 154.182C54.5413 154.182 54.4573 154.156 54.3732 154.115C54.2219 154.022 54.1294 153.863 54.1294 153.678V118.57C54.1294 118.386 54.2303 118.218 54.39 118.134L81.0998 103.163C81.2595 103.08 81.4444 103.08 81.6042 103.163C81.7555 103.256 81.8564 103.415 81.8564 103.6V139.462C81.8564 139.647 81.7555 139.815 81.5874 139.907L54.8776 154.123C54.802 154.165 54.7179 154.182 54.6422 154.182H54.6338ZM55.1383 118.864V152.84L80.8391 139.161V104.455L55.1383 118.864Z" fill="#0B0B0B"></path></g></g><g id="Group_21"><g id="Group_22"><path id="Vector_31" d="M90.9443 137.282L120.613 153.771V119.015L90.9443 102.518V137.282Z" fill="#D8C7FF"></path><path id="Vector_32" d="M120.613 154.274C120.529 154.274 120.445 154.249 120.37 154.207L90.7006 137.718C90.5408 137.626 90.4399 137.458 90.4399 137.273V102.509C90.4399 102.333 90.5324 102.165 90.6922 102.073C90.8435 101.981 91.0368 101.981 91.1966 102.073L120.866 118.562C121.025 118.654 121.126 118.822 121.126 118.998V153.762C121.126 153.938 121.034 154.106 120.882 154.198C120.807 154.24 120.714 154.265 120.63 154.265L120.613 154.274ZM91.4488 136.98L120.109 152.915V119.308L91.4488 103.373V136.98Z" fill="#0B0B0B"></path></g><g id="Group_23"><path id="Vector_33" d="M90.9443 102.56L120.79 119.082L147.878 103.935L118.032 87.4126L90.9443 102.56Z" fill="white"></path><path id="Vector_34" d="M120.79 119.585C120.706 119.585 120.622 119.56 120.546 119.518L90.7006 102.996C90.5408 102.903 90.4399 102.736 90.4399 102.56C90.4399 102.375 90.5408 102.207 90.7006 102.123L117.789 86.9765C117.94 86.8926 118.125 86.8926 118.276 86.9765L148.122 103.499C148.282 103.591 148.382 103.759 148.382 103.935C148.382 104.111 148.282 104.287 148.122 104.371L121.034 119.518C120.958 119.56 120.874 119.585 120.782 119.585H120.79ZM91.9785 102.56L120.79 118.512L146.844 103.943L118.032 87.9913L91.9785 102.56Z" fill="#0B0B0B"></path></g><g id="Group_24"><path id="Vector_35" d="M147.878 139.798L121.168 154.022V118.906L147.878 103.935V139.798Z" fill="#0B0B0B"></path><path id="Vector_36" d="M121.169 154.525C121.076 154.525 120.992 154.5 120.908 154.458C120.757 154.366 120.664 154.207 120.664 154.022V118.914C120.664 118.73 120.765 118.562 120.925 118.478L147.634 103.507C147.794 103.423 147.979 103.423 148.139 103.507C148.299 103.599 148.391 103.759 148.391 103.943V139.806C148.391 139.991 148.29 140.167 148.122 140.251L121.412 154.467C121.337 154.509 121.261 154.525 121.177 154.525H121.169ZM121.673 119.208V153.183L147.374 139.504V104.799L121.673 119.208Z" fill="#0B0B0B"></path></g></g><g id="Group_25"><g id="Group_26"><path id="Vector_37" d="M58.9131 156.203L88.5906 172.7V137.936L58.9131 121.447V156.203Z" fill="#D8C7FF"></path><path id="Vector_38" d="M88.5905 173.203C88.5064 173.203 88.4224 173.178 88.3467 173.136L58.6776 156.647C58.5179 156.555 58.417 156.387 58.417 156.211V121.455C58.417 121.279 58.5095 121.111 58.6692 121.019C58.8205 120.927 59.0139 120.927 59.1736 121.019L88.8427 137.508C89.0025 137.6 89.1033 137.768 89.1033 137.952V172.708C89.1033 172.884 89.0109 173.052 88.8511 173.144C88.7755 173.186 88.683 173.211 88.5989 173.211L88.5905 173.203ZM59.4259 155.909L88.0861 171.844V138.237L59.4259 122.302V155.909Z" fill="#0B0B0B"></path></g><g id="Group_27"><path id="Vector_39" d="M58.9131 121.48L88.7587 138.003L115.847 122.864L86.0011 106.342L58.9131 121.48Z" fill="white"></path><path id="Vector_40" d="M88.7587 138.506C88.6747 138.506 88.5906 138.481 88.5149 138.439L58.6693 121.917C58.5096 121.824 58.4087 121.657 58.4087 121.48C58.4087 121.296 58.5096 121.128 58.6693 121.044L85.7574 105.897C85.9087 105.814 86.0937 105.814 86.2534 105.897L116.099 122.42C116.259 122.512 116.36 122.68 116.36 122.856C116.36 123.032 116.259 123.208 116.099 123.3L89.011 138.447C88.9353 138.489 88.8512 138.514 88.7672 138.514L88.7587 138.506ZM59.9472 121.48L88.7587 137.433L114.813 122.864L86.0012 106.912L59.9472 121.48Z" fill="#0B0B0B"></path></g><g id="Group_28"><path id="Vector_41" d="M115.847 158.727L89.1372 172.943V137.835L115.847 122.864V158.727Z" fill="#0B0B0B"></path><path id="Vector_42" d="M89.1372 173.446C89.0448 173.446 88.9607 173.421 88.8766 173.379C88.7253 173.287 88.6328 173.128 88.6328 172.943V137.835C88.6328 137.651 88.7337 137.483 88.8934 137.399L115.603 122.428C115.754 122.344 115.948 122.344 116.108 122.428C116.267 122.52 116.36 122.68 116.36 122.864V158.727C116.36 158.912 116.259 159.079 116.091 159.172L89.3811 173.388C89.3054 173.43 89.2213 173.446 89.1457 173.446H89.1372ZM89.6417 138.129V172.104L115.343 158.425V123.72L89.6417 138.129Z" fill="#0B0B0B"></path></g></g><g id="Group_29"><g id="Group_30"><path id="Vector_43" d="M105.338 157.738L135.015 174.227V139.471L105.338 122.974V157.738Z" fill="#D8C7FF"></path><path id="Vector_44" d="M135.015 174.73C134.931 174.73 134.847 174.705 134.771 174.663L105.102 158.174C104.943 158.082 104.842 157.922 104.842 157.738V122.974C104.842 122.797 104.934 122.63 105.086 122.537C105.245 122.445 105.43 122.445 105.59 122.537L135.259 139.026C135.419 139.119 135.52 139.286 135.52 139.471V174.235C135.52 174.411 135.427 174.579 135.268 174.671C135.192 174.721 135.099 174.738 135.015 174.738V174.73ZM105.851 157.436L134.511 173.371V139.764L105.851 123.837V157.444V157.436Z" fill="#0B0B0B"></path></g><g id="Group_31"><path id="Vector_45" d="M105.338 123.016L135.184 139.538L162.272 124.391L132.426 107.869L105.338 123.016Z" fill="white"></path><path id="Vector_46" d="M135.184 140.041C135.099 140.041 135.015 140.016 134.94 139.974L105.094 123.452C104.934 123.36 104.833 123.192 104.833 123.016C104.833 122.831 104.934 122.663 105.094 122.571L132.182 107.424C132.334 107.34 132.518 107.34 132.67 107.424L162.515 123.947C162.675 124.039 162.776 124.207 162.776 124.383C162.776 124.567 162.675 124.735 162.515 124.827L135.427 139.974C135.352 140.016 135.268 140.041 135.184 140.041ZM106.372 123.016L135.184 138.968L161.238 124.4L132.426 108.447L106.372 123.016Z" fill="#0B0B0B"></path></g><g id="Group_32"><path id="Vector_47" d="M162.272 160.254L135.562 174.478V139.362L162.272 124.391V160.254Z" fill="#8B75F3"></path><path id="Vector_48" d="M135.562 174.982C135.47 174.982 135.386 174.957 135.301 174.906C135.15 174.814 135.058 174.655 135.058 174.479V139.37C135.058 139.186 135.159 139.018 135.318 138.934L162.028 123.964C162.179 123.871 162.373 123.88 162.532 123.964C162.684 124.056 162.785 124.215 162.785 124.4V160.263C162.785 160.447 162.684 160.623 162.516 160.707L135.806 174.923C135.73 174.965 135.646 174.982 135.57 174.982H135.562ZM136.066 139.664V173.64L161.767 159.961V125.255L136.066 139.664Z" fill="#0B0B0B"></path></g></g><g id="uuid-1b38e5c6-cc28-4074-bc3e-e2b387c94fcc" clip-path="url(#clip1_4086_10785)"><g id="Group_33"><g id="Group_34"><path id="Vector_49" d="M34.0989 81.8168C35.6636 79.4809 38.5877 68.2023 43.6579 65.0906C48.7281 61.979 56.3377 59.0634 57.7057 56.9236C59.0737 54.7838 72.9249 47.5886 80.3378 45.6449C87.7507 43.6927 113.692 42.9169 118.574 47.7762C123.447 52.644 128.133 48.7481 129.501 54.9714C130.869 61.1947 134.4 81.382 100.738 98.5174C67.0766 115.653 51.0794 121.1 46.7872 123.044C43.4185 124.57 41.5204 124.792 38.7929 123.24C36.0654 121.689 30.2086 120.325 30.4053 113.513C30.6019 106.701 27.9685 103.496 27.8659 96.3947C27.7633 88.8415 32.5513 84.1441 34.1074 81.8083L34.0989 81.8168Z" fill="#CAC2EE"></path><path id="Vector_50" d="M42.3156 124.826C41.11 124.826 39.9215 124.476 38.5364 123.692C38.1004 123.445 37.5617 123.189 36.9889 122.925C34.0904 121.569 29.7213 119.515 29.8923 113.513C29.9949 110.077 29.3622 107.597 28.6867 104.979C28.0455 102.482 27.3957 99.9155 27.3444 96.4117C27.2589 89.9326 30.6532 85.5081 32.6882 82.8653C33.0815 82.3538 33.4235 81.9105 33.6714 81.5354C34.0904 80.9045 34.6718 79.4553 35.3387 77.7844C37.0487 73.4707 39.6394 66.9575 43.3929 64.6558C45.3594 63.4537 47.6679 62.2943 49.891 61.169C53.2939 59.464 56.5087 57.8442 57.2697 56.6422C58.7147 54.3745 72.6684 47.1197 80.201 45.1419C84.1426 44.1103 92.6414 43.4795 100.413 43.6415C106.039 43.7608 115.915 44.4087 118.933 47.4181C121.002 49.4811 123.028 49.8818 124.815 50.2399C127.056 50.6832 129.167 51.1009 129.997 54.869C134.776 76.6761 116.847 90.8959 100.969 98.9862C74.0364 112.695 58.4923 118.901 51.0196 121.876C49.1813 122.609 47.8475 123.138 47.001 123.521C45.197 124.34 43.752 124.834 42.3156 124.834V124.826ZM34.5264 82.0981C34.2614 82.4902 33.9108 82.9591 33.5004 83.4876C31.551 86.0281 28.2849 90.2736 28.3704 96.4031C28.4131 99.7876 29.0544 102.294 29.6785 104.724C30.3625 107.418 31.0123 109.967 30.9097 113.547C30.7558 118.884 34.4495 120.614 37.4164 122.004C38.0063 122.285 38.5621 122.541 39.0409 122.814C41.4691 124.195 43.1535 124.144 46.5735 122.601C47.4456 122.209 48.7794 121.671 50.6348 120.93C58.0905 117.955 73.6089 111.765 100.499 98.0826C116.06 90.1628 133.639 76.2669 128.996 55.0992C128.312 51.9875 126.842 51.6977 124.619 51.2544C122.781 50.8878 120.498 50.4359 118.206 48.1512C113.563 43.5051 87.7508 44.2212 80.4661 46.1308C72.7881 48.1427 59.3559 55.2782 58.1418 57.1878C57.2269 58.6285 54.0463 60.2227 50.3612 62.0727C48.1467 63.1809 45.8639 64.3318 43.9401 65.5168C40.4773 67.6395 37.9636 73.9651 36.3049 78.1509C35.5866 79.9497 35.0223 81.3734 34.5435 82.0981H34.5264Z" fill="#0B0B0B"></path></g><g id="Group_35"><path id="Vector_51" d="M38.9808 100.486C38.6901 98.4404 32.7136 90.7423 35.3043 89.3783C37.6213 88.1592 41.3235 97.8607 43.0763 96.4029C44.8291 94.9451 47.4625 100.776 47.7618 98.1591C48.0525 95.5334 46.1714 90.5632 48.2235 88.5258C50.2755 86.4883 47.4454 80.9555 52.6524 77.6733C55.91 75.6273 58.5862 77.1533 61.8096 77.1533C65.0329 77.1533 69.7098 74.2377 70.0005 71.0238C70.2913 67.8098 71.7533 63.4365 73.5146 62.5584C75.2674 61.6803 79.0722 57.5968 78.2001 55.5593C77.3194 53.5133 82.2956 53.5133 81.1242 56.139C79.9529 58.7647 80.9618 58.7392 82.4751 58.9949C85.2112 59.4553 83.4584 56.0452 98.9768 54.6812C101.662 54.4425 102.192 50.018 107.459 50.5977C112.725 51.1774 114.478 50.7426 119.754 51.0325C125.02 51.3224 132.339 53.0785 131.749 63.5814C131.168 74.0843 115.504 104.868 89.1699 117.119C62.8356 129.369 46.5989 126.454 41.6228 122.95C38.2028 120.546 36.9459 113.325 38.9894 110.401C41.0414 107.486 43.3756 101.646 43.3756 101.646C43.3756 101.646 39.2801 102.524 38.9894 100.478L38.9808 100.486Z" fill="#D7FF65"></path><path id="Vector_52" d="M55.1662 126.488C48.2064 126.488 43.5637 124.953 41.315 123.376C37.8437 120.938 36.2705 113.376 38.5534 110.12C40.0838 107.937 41.8195 104.016 42.5377 102.302C41.5801 102.405 40.1266 102.43 39.2374 101.808C38.8013 101.509 38.5363 101.075 38.4593 100.563C38.3738 99.975 37.6043 98.5854 36.8519 97.2384C35.3813 94.6042 33.7226 91.6204 34.2185 89.9495C34.3553 89.4976 34.6374 89.1481 35.0478 88.9265C36.6552 88.0825 38.2541 90.4269 39.9556 92.8992C40.8362 94.1864 42.0503 95.9511 42.6403 96.0364C43.9998 94.9537 45.3849 96.3944 46.3938 97.443C46.6418 97.6988 46.9838 98.0568 47.2061 98.2358C47.2061 98.2017 47.2146 98.1506 47.2232 98.0994C47.3172 97.2555 47.1633 96.1046 47.0009 94.8855C46.676 92.4473 46.3083 89.6767 47.8302 88.1592C48.4715 87.5198 48.5399 86.3178 48.6168 84.9367C48.7451 82.473 48.9161 79.404 52.3532 77.2386C54.7814 75.7126 56.9446 76.0451 59.0308 76.3605C59.92 76.4969 60.8349 76.6333 61.784 76.6333C64.8449 76.6333 69.2054 73.8371 69.4619 70.9727C69.7356 68.023 71.1207 63.1637 73.2582 62.0981C75.0195 61.22 78.3968 57.3752 77.6957 55.7554C77.405 55.0819 77.5589 54.4255 78.1061 54.0078C78.8927 53.4025 80.3377 53.4366 81.1414 54.076C81.8168 54.6045 81.9707 55.4315 81.5603 56.3437C81.0046 57.5968 81.073 57.989 81.1328 58.0998C81.2354 58.2874 81.7484 58.3641 82.2443 58.4493L82.5265 58.492C83.2362 58.6113 83.5012 58.4323 84.2023 57.9549C85.6815 56.9575 88.4346 55.0905 98.8914 54.1698C99.7549 54.093 100.379 53.4622 101.157 52.6608C102.44 51.348 104.039 49.7112 107.476 50.0863C110.511 50.4273 112.332 50.4187 114.435 50.4102C115.949 50.4102 117.522 50.4017 119.745 50.521C128.483 51.007 132.681 55.4144 132.228 63.607C131.647 74.0502 116.351 105.013 89.3495 117.579C74.8229 124.34 63.3743 126.479 55.1405 126.479L55.1662 126.488ZM43.3671 101.143C43.521 101.143 43.6578 101.211 43.7604 101.322C43.8801 101.467 43.9143 101.663 43.8459 101.842C43.7518 102.081 41.4604 107.767 39.3998 110.699C37.5701 113.3 38.6218 120.222 41.905 122.532C46.6418 125.866 62.562 128.926 88.9305 116.65C115.154 104.451 130.664 73.5046 131.219 63.5473C131.647 55.9174 127.876 51.9959 119.702 51.5355C117.513 51.4162 115.957 51.4162 114.461 51.4247C112.409 51.4247 110.485 51.4417 107.39 51.0922C104.44 50.7683 103.158 52.0811 101.918 53.3599C101.063 54.238 100.251 55.0734 99.0025 55.1757C88.8108 56.0709 86.203 57.8441 84.7923 58.7903C84.0313 59.3019 83.4841 59.677 82.364 59.4894L82.0904 59.4468C81.3124 59.3274 80.5856 59.2081 80.2436 58.5772C79.9358 58.0146 80.0555 57.2217 80.6369 55.9259C80.9533 55.2183 80.6284 54.9626 80.5172 54.8773C80.0299 54.4937 79.1236 54.5278 78.7388 54.8177C78.6191 54.9114 78.5165 55.0393 78.6533 55.3462C79.6793 57.7332 75.6351 62.0555 73.7284 63.0103C72.2322 63.7519 70.7872 67.8781 70.4965 71.0579C70.1887 74.4509 65.3323 77.6478 61.7925 77.6478C60.7665 77.6478 59.8089 77.5029 58.8855 77.358C56.8078 77.0425 55.0123 76.7612 52.909 78.0911C49.9164 79.9751 49.7711 82.635 49.6514 84.9794C49.5659 86.5053 49.4889 87.9546 48.5655 88.8753C47.4027 90.0347 47.7362 92.5411 48.0269 94.7491C48.1979 96.0279 48.3603 97.2384 48.2492 98.2103C48.2235 98.4404 48.1466 99.131 47.5994 99.31C46.9752 99.5231 46.428 98.9434 45.6585 98.1506C44.7094 97.1617 43.8886 96.3859 43.3927 96.7951C43.1362 97.0082 42.8284 97.0935 42.5035 97.0509C41.5117 96.9145 40.5626 95.6016 39.1091 93.4789C37.9976 91.8591 36.3303 89.4209 35.5266 89.8301C35.3556 89.9239 35.2616 90.0433 35.2017 90.2393C34.8255 91.501 36.5184 94.536 37.7497 96.744C38.6474 98.3637 39.3656 99.6425 39.4768 100.418C39.511 100.657 39.6221 100.827 39.8188 100.972C40.6481 101.544 42.5719 101.305 43.2474 101.16C43.2816 101.16 43.3158 101.151 43.35 101.151L43.3671 101.143Z" fill="#0B0B0B"></path></g><g id="Group_36"><path id="Vector_53" d="M57.7055 56.915C57.7055 56.915 57.7226 56.898 57.7226 56.8894C59.9542 56.3524 62.8099 55.7471 64.3319 55.7471C67.0593 55.7471 67.6578 57.7164 65.8965 58.6626C64.1951 59.5748 59.5182 60.4444 58.7401 63.1724C57.962 65.8919 58.2784 69.336 54.5847 67.4179C51.2331 65.6788 54.5334 61.0582 53.5844 59.8476C55.5937 58.7649 57.1583 57.776 57.7055 56.915Z" fill="#D7FF65"></path><path id="Vector_54" d="M56.3805 68.4918C55.8076 68.4918 55.1322 68.2872 54.3456 67.878C51.8661 66.5907 52.4902 63.9991 52.9519 62.1151C53.14 61.3564 53.3709 60.4101 53.1742 60.1628C53.0802 60.0435 53.046 59.89 53.0716 59.7451C53.1058 59.6002 53.1999 59.4723 53.3281 59.3956C54.7474 58.6283 56.7054 57.5115 57.2612 56.642C57.2612 56.642 57.2612 56.6335 57.2697 56.6249C57.2697 56.6164 57.2954 56.5908 57.3039 56.5823C57.3723 56.4885 57.4835 56.4203 57.5946 56.3862C60.7923 55.619 63.0581 55.2354 64.3235 55.2354C66.2473 55.2354 67.1451 56.0964 67.3503 56.9063C67.564 57.7502 67.0938 58.5942 66.1276 59.1143C65.6574 59.3615 65.0246 59.6002 64.2808 59.873C62.357 60.5806 59.7321 61.5439 59.2191 63.3171C59.0738 63.8286 58.9626 64.3828 58.86 64.9198C58.5693 66.3947 58.2957 67.7928 57.227 68.3043C56.9705 68.4236 56.6883 68.4918 56.372 68.4918H56.3805ZM54.2259 60.0776C54.3541 60.6829 54.166 61.4757 53.9523 62.3538C53.4222 64.5106 53.1828 66.1133 54.8244 66.9658C55.7307 67.4347 56.3891 67.5711 56.7995 67.3836C57.4065 67.0937 57.6374 65.9428 57.8768 64.7238C57.9879 64.1696 58.0991 63.5984 58.2615 63.0358C58.9113 60.7596 61.8269 59.694 63.9559 58.9097C64.657 58.6539 65.264 58.4323 65.6659 58.2106C66.196 57.9207 66.4696 57.5201 66.3756 57.1535C66.2644 56.7102 65.589 56.2584 64.3406 56.2584C63.1949 56.2584 61.0147 56.6335 58.0392 57.341C57.4835 58.0913 56.3207 58.9352 54.2344 60.0776H54.2259Z" fill="#0B0B0B"></path></g><g id="Group_37"><path id="Vector_55" d="M36.0313 77.4091C39.0922 72.3793 45.8724 63.1723 49.0702 67.8355C50.8315 70.4015 44.094 75.9513 44.436 77.3324C44.9661 79.4892 44.436 83.9479 44.436 85.4994C44.436 87.051 41.5119 88.0228 41.3152 85.8916C41.1186 83.7518 40.7338 82.3878 40.7338 82.3878L32.7651 83.5983C33.3038 82.8907 33.774 82.294 34.099 81.7995C34.5949 81.0579 35.2361 79.404 36.0313 77.4006V77.4091Z" fill="#D7FF65"></path><path id="Vector_56" d="M42.5549 87.6477C41.5802 87.6477 40.9048 86.9913 40.8022 85.9512C40.6739 84.5787 40.4687 83.5301 40.3404 82.9759L32.8335 84.1183C32.6283 84.1524 32.4231 84.0501 32.3119 83.8711C32.2093 83.6921 32.2179 83.4704 32.3461 83.2999L32.6625 82.8822C33.0558 82.3707 33.4063 81.9188 33.6628 81.5352C34.0818 80.9044 34.6546 79.4636 35.3215 77.7842L35.5438 77.2301C35.5438 77.2301 35.5695 77.1789 35.578 77.1533C37.1427 74.5788 42.5891 66.1645 46.7787 66.0537C47.856 66.0025 48.7708 66.5311 49.4805 67.5541C50.7801 69.4467 48.4972 72.3367 46.659 74.6555C45.9237 75.5847 44.9062 76.8635 44.9233 77.2301C45.3252 78.8498 45.1456 81.6546 45.0259 83.7006C44.9832 84.4508 44.9404 85.0902 44.9404 85.5079C44.9404 86.7014 43.7263 87.5965 42.6404 87.6392C42.6062 87.6392 42.572 87.6392 42.5378 87.6392L42.5549 87.6477ZM40.7338 81.8847C40.9561 81.8847 41.1613 82.0382 41.2297 82.2598C41.2468 82.3195 41.6315 83.6921 41.8282 85.8574C41.8795 86.3945 42.136 86.6503 42.6062 86.6247C43.2047 86.5991 43.9229 86.0961 43.9229 85.5079C43.9229 85.0731 43.9657 84.4082 44.0084 83.6324C44.1281 81.6546 44.2991 78.9436 43.9315 77.4602C43.7519 76.7271 44.4701 75.7723 45.8553 74.0246C47.4028 72.0724 49.5147 69.404 48.6426 68.1338C48.1381 67.4006 47.5311 67.0852 46.8129 67.0767C43.8973 67.1534 39.4341 72.8141 36.4844 77.6478L36.2792 78.1678C35.5609 79.9666 34.9966 81.3903 34.5178 82.1064C34.3554 82.3536 34.1587 82.6179 33.9279 82.9163L40.6483 81.8933C40.6483 81.8933 40.6996 81.8933 40.7252 81.8933L40.7338 81.8847Z" fill="#0B0B0B"></path></g><g id="Group_38"><path id="Vector_57" d="M82.7662 47.5797C87.6483 46.2157 105.561 44.4425 107.638 46.4033C108.528 47.2472 104.235 48.5686 99.2336 48.0827C90.675 47.2472 91.1709 52.5754 88.6401 52.7203C86.6907 52.8312 87.1353 48.8158 86.2802 48.9437C82.3814 49.532 81.9282 47.8184 82.7662 47.5797Z" fill="#D7FF65"></path><path id="Vector_58" d="M88.5459 53.2319C87.0411 53.2319 86.6648 51.5098 86.4169 50.359C86.357 50.0691 86.263 49.6599 86.186 49.4723C83.3303 49.8645 82.0991 49.0461 81.9196 48.2192C81.8084 47.7077 82.1077 47.2303 82.6292 47.0853C86.947 45.8748 105.578 43.7435 107.989 46.0282C108.262 46.2925 108.339 46.642 108.185 46.9745C107.621 48.2021 103.243 48.9864 99.1736 48.5857C93.7956 48.0572 92.2652 49.9924 91.0339 51.5439C90.3756 52.3794 89.7514 53.1637 88.657 53.2319C88.6143 53.2319 88.5801 53.2319 88.5373 53.2319H88.5459ZM86.3399 48.4238C87.0411 48.4238 87.2292 49.2933 87.4173 50.1458C87.6738 51.3393 87.9132 52.26 88.6057 52.2089C89.2042 52.1748 89.5975 51.7144 90.2302 50.9131C91.47 49.353 93.3339 47.0001 99.2762 47.5713C103.406 47.9805 106.433 47.145 107.125 46.6676C104.723 45.2013 88.3749 46.5482 82.8943 48.0742H82.8772C82.937 48.1424 83.6467 48.8074 86.186 48.4323C86.2373 48.4323 86.2801 48.4238 86.3229 48.4238H86.3399Z" fill="#0B0B0B"></path></g><g id="Group_39"><path id="Vector_59" d="M32.1583 108.262C34.8858 109.336 34.4241 103.718 35.3732 103.888C38.7248 104.494 34.5951 115.167 36.8352 117.409C39.0753 119.643 53.7131 118.773 53.7131 118.773L53.2086 120.444C50.0793 121.697 47.9845 122.516 46.7875 123.053C43.4188 124.579 41.5207 124.8 38.7932 123.249C36.0657 121.697 30.2089 120.333 30.4055 113.522C30.5509 108.424 29.1059 105.338 28.3364 101.135C29.3197 103.428 30.6535 107.673 32.1669 108.27L32.1583 108.262Z" fill="#D7FF65"></path><path id="Vector_60" d="M42.3155 124.826C41.1099 124.826 39.9214 124.476 38.5363 123.692C38.1003 123.445 37.5616 123.189 36.9888 122.925C34.0903 121.569 29.7212 119.515 29.8922 113.513C29.9948 110.077 29.3621 107.597 28.6866 104.971C28.3874 103.786 28.071 102.558 27.8316 101.228C27.7803 100.973 27.9342 100.717 28.1907 100.649C28.4387 100.572 28.7037 100.7 28.8149 100.939C29.0201 101.416 29.2424 101.979 29.4732 102.575C30.2256 104.502 31.3713 107.409 32.3632 107.801C32.8249 107.989 33.0472 107.869 33.1156 107.827C33.697 107.52 33.9791 106.241 34.1843 105.312C34.4323 104.204 34.6375 103.249 35.4754 103.394C37.7583 103.803 37.3735 107.213 36.9631 110.819C36.681 113.343 36.356 116.198 37.2111 117.051C38.7415 118.568 47.9072 118.611 53.6956 118.261C53.8581 118.244 54.0205 118.321 54.1317 118.458C54.2343 118.585 54.2685 118.764 54.2172 118.918L53.7127 120.589C53.67 120.742 53.5588 120.862 53.4135 120.913L51.028 121.868C49.1897 122.601 47.8645 123.129 47.018 123.513C45.2139 124.331 43.769 124.826 42.3326 124.826H42.3155ZM30.1829 106.753C30.6446 108.765 30.9866 110.862 30.9096 113.53C30.7557 118.867 34.4494 120.597 37.4163 121.987C38.0062 122.26 38.562 122.524 39.0408 122.797C41.469 124.178 43.1534 124.127 46.5734 122.584C47.4455 122.192 48.7793 121.654 50.6262 120.921L52.7808 120.06L53.0031 119.327C49.7711 119.489 38.5876 119.89 36.4672 117.776C35.2616 116.574 35.5865 113.718 35.9285 110.7C36.2363 107.989 36.5784 104.937 35.4583 104.451C35.3642 104.69 35.2616 105.158 35.1761 105.525C34.9111 106.71 34.5862 108.193 33.5858 108.722C33.1156 108.969 32.5684 108.978 31.9699 108.748C31.3115 108.492 30.7215 107.742 30.1829 106.761V106.753Z" fill="#0B0B0B"></path></g></g><g id="Group_40"><g id="Group_41"><path id="Vector_61" d="M51.4638 94.0672C50.6858 89.0119 60.4414 80.4527 64.7336 78.509C69.0257 76.5568 74.4807 76.5568 77.2082 71.8935C79.9442 67.2218 88.5285 63.3344 92.8206 60.2227C94.7102 58.8502 97.147 58.3813 99.4042 57.9977C102.251 57.4947 104.834 57.1196 105.706 55.1674C107.262 51.655 118.18 53.6073 127.551 54.383C136.913 55.1674 134.964 59.8306 140.821 60.2227C146.669 60.6063 149.405 68.3812 149.405 71.8935C149.405 75.4059 149.773 78.9267 152.817 85.0221C157.818 95.0306 151.355 103.01 146.669 106.906C141.992 110.802 138.906 110.35 136.135 110.802C134.631 111.041 130.578 113.325 130.578 113.325C130.578 113.325 124.208 125.388 122.524 127.068C115.88 133.683 109.998 133.359 106.877 133.359C103.756 133.359 104.526 134.919 100.635 135.695C96.728 136.471 87.7504 134.144 87.7504 134.144C87.7504 134.144 81.5174 139.199 75.2758 137.255C69.0343 135.312 65.5202 138.807 56.9359 137.639C48.3516 136.471 44.0594 128.304 44.0594 123.632C44.0594 118.96 40.1777 112.336 46.7955 105.738C49.9163 102.626 52.259 99.1311 51.4724 94.0672H51.4638Z" fill="#CAC2EE"></path><path id="Vector_62" d="M60.4501 138.389C59.3472 138.389 58.1587 138.321 56.8591 138.142C48.2833 136.974 43.538 128.824 43.538 123.632C43.538 122.507 43.2986 121.228 43.0421 119.873C42.2555 115.704 41.2723 110.512 46.428 105.38C49.1127 102.703 51.7547 99.2676 50.9595 94.1525C50.1302 88.7817 60.0483 80.0776 64.52 78.0487C65.8196 77.4604 67.2304 77.0427 68.5898 76.6335C71.856 75.6702 74.9425 74.7495 76.7637 71.6378C78.7559 68.2363 83.6038 65.3207 87.8788 62.7547C89.6145 61.7061 91.2647 60.7257 92.513 59.8136C94.4453 58.4154 96.8308 57.921 99.3103 57.4947L99.6523 57.4351C102.26 56.9832 104.509 56.5826 105.227 54.9543C106.646 51.7488 113.931 52.499 122.361 53.3686C124.106 53.5476 125.867 53.7267 127.577 53.8716C132.963 54.3234 134.742 56.0199 136.307 57.5203C137.495 58.6541 138.427 59.5493 140.838 59.7113C146.789 60.1034 149.901 67.8527 149.901 71.8936C149.901 75.1502 150.158 78.5858 153.261 84.792C158.776 95.8149 150.705 104.204 146.986 107.298C143.044 110.58 140.103 110.879 137.734 111.117C137.204 111.169 136.7 111.22 136.204 111.305C135.084 111.484 132.151 113.027 130.946 113.701C130.21 115.099 124.516 125.798 122.874 127.434C116.368 133.913 110.451 133.896 107.27 133.879H106.86C105.424 133.879 104.936 134.22 104.269 134.698C103.577 135.192 102.722 135.806 100.713 136.198C97.0616 136.931 89.358 135.081 87.8446 134.706C86.6818 135.593 80.9618 139.574 75.0964 137.75C71.9928 136.778 69.5816 137.213 66.7857 137.707C64.9304 138.04 62.904 138.398 60.433 138.398L60.4501 138.389ZM112.153 53.6499C109.049 53.6499 106.749 54.0762 106.167 55.372C105.218 57.5033 102.602 57.9551 99.8319 58.441L99.4898 58.5007C97.13 58.9014 94.8728 59.3702 93.12 60.6405C91.8375 61.5697 90.1703 62.5672 88.4175 63.6243C84.245 66.1306 79.5168 68.9695 77.6529 72.1493C75.6351 75.6105 72.198 76.625 68.8891 77.6054C67.5553 77.9975 66.1872 78.4067 64.9475 78.9694C60.9204 80.7937 51.2331 89.2336 51.9684 93.9906C52.832 99.5659 50.0105 103.24 47.1462 106.105C42.3752 110.862 43.2644 115.55 44.0425 119.685C44.3076 121.092 44.5555 122.413 44.5555 123.632C44.5555 127.622 48.309 135.951 56.9873 137.127C61.0657 137.682 64.0155 137.153 66.6147 136.693C69.4192 136.19 72.0697 135.721 75.4128 136.761C81.3124 138.602 87.3487 133.786 87.4086 133.743C87.5368 133.641 87.7078 133.598 87.8617 133.641C87.9472 133.666 96.7709 135.934 100.516 135.184C102.303 134.826 103.038 134.314 103.679 133.854C104.406 133.334 105.099 132.848 106.86 132.848H107.27C110.519 132.865 115.932 132.882 122.139 126.701C123.473 125.371 128.338 116.42 130.099 113.087C130.142 113.001 130.219 112.925 130.304 112.882C130.475 112.788 134.451 110.546 136.033 110.299C136.546 110.214 137.076 110.163 137.623 110.103C139.966 109.864 142.617 109.6 146.319 106.514C149.858 103.573 157.519 95.6188 152.338 85.2524C149.14 78.8586 148.875 75.1502 148.875 71.9021C148.875 68.8757 146.464 61.1179 140.77 60.7428C137.982 60.5552 136.82 59.4385 135.597 58.262C134.16 56.8809 132.527 55.3208 127.5 54.9031C125.781 54.7582 124.012 54.5792 122.267 54.4001C118.702 54.0336 115.077 53.6585 112.153 53.6585V53.6499Z" fill="#0B0B0B"></path></g><g id="Group_42"><path id="Vector_63" d="M95.5482 122.464C100.618 122.464 91.0936 118.398 93.9237 115.056C97.4207 110.939 110.041 113.752 113.161 109.089C115.119 106.156 117.761 101.22 119.89 97.4689C120.361 96.642 123.139 93.0444 122.378 101.058C121.9 106.088 119.146 113.956 113.495 117.801C104.911 123.632 99.8404 123.632 97.891 127.912C96.8393 130.214 96.2408 133.308 95.9159 135.678C91.9914 135.243 87.7505 134.135 87.7505 134.135C87.7505 134.135 86.4424 132.831 86.4424 130.111C86.4424 127.392 90.4866 122.473 95.5568 122.473L95.5482 122.464Z" fill="#D7FF65"></path><path id="Vector_64" d="M95.916 136.19C95.916 136.19 95.8732 136.19 95.8561 136.19C91.9402 135.755 87.6566 134.647 87.6138 134.638C87.5283 134.613 87.4428 134.57 87.383 134.51C87.3231 134.451 85.9209 133.027 85.9209 130.12C85.9209 126.974 90.3242 121.961 95.5483 121.961C96.1297 121.961 96.4033 121.902 96.523 121.868C96.3862 121.586 95.8219 121.007 95.4029 120.572C93.9494 119.088 91.7606 116.838 93.539 114.741C95.3602 112.601 99.1735 112.226 103.209 111.825C107.168 111.433 111.263 111.032 112.743 108.816C114.17 106.684 115.94 103.505 117.659 100.427C118.283 99.3187 118.882 98.2275 119.454 97.2301C119.463 97.213 120.686 95.1159 121.925 95.4995C122.943 95.8235 123.242 97.554 122.9 101.118C122.361 106.753 119.283 114.502 113.794 118.236C110.16 120.708 107.168 122.132 104.757 123.283C101.55 124.817 99.4215 125.823 98.3698 128.142C97.3267 130.427 96.7453 133.547 96.4375 135.763C96.4033 136.019 96.181 136.207 95.9331 136.207L95.916 136.19ZM88.0328 133.683C88.7766 133.871 92.1967 134.706 95.4799 135.116C95.8134 132.882 96.4119 129.932 97.4293 127.707C98.6434 125.047 100.892 123.973 104.312 122.353C106.689 121.22 109.647 119.804 113.213 117.383C118.42 113.837 121.352 106.412 121.874 101.015C122.276 96.8209 121.618 96.4714 121.618 96.4714C121.438 96.4287 120.72 97.0766 120.352 97.7331C119.779 98.7305 119.181 99.8132 118.557 100.921C116.829 104.016 115.051 107.213 113.598 109.378C111.845 111.996 107.51 112.422 103.312 112.839C99.6523 113.198 95.8732 113.573 94.3256 115.397C93.2312 116.684 94.4453 118.117 96.1468 119.856C97.1215 120.853 97.8226 121.569 97.5234 122.277C97.2583 122.899 96.3862 122.984 95.5654 122.984C90.6833 122.984 86.964 127.741 86.964 130.12C86.964 132.208 87.7677 133.359 88.0413 133.692L88.0328 133.683Z" fill="#0B0B0B"></path></g><g id="Group_43"><path id="Vector_65" d="M107.449 129.08C110.673 126.454 114.281 124.246 116.624 121.032C118.966 117.818 121.206 123.829 117.402 126.454C113.597 129.08 106.868 133.36 106.868 133.36C106.868 133.36 104.235 131.706 107.449 129.08Z" fill="#D7FF65"></path><path id="Vector_66" d="M106.868 133.871C106.774 133.871 106.68 133.845 106.595 133.794C106.543 133.76 105.423 133.044 105.346 131.757C105.287 130.734 105.885 129.702 107.133 128.688C107.997 127.98 108.886 127.307 109.775 126.633C112.229 124.775 114.546 123.027 116.214 120.734C117.069 119.566 117.889 119.549 118.3 119.634C119.069 119.805 119.659 120.572 119.873 121.68C120.172 123.18 119.77 125.431 117.693 126.872C113.922 129.472 107.21 133.743 107.142 133.786C107.056 133.837 106.962 133.862 106.868 133.862V133.871ZM107.775 129.472C106.808 130.256 106.321 131.024 106.364 131.688C106.398 132.157 106.68 132.524 106.894 132.729C108.262 131.859 113.811 128.304 117.103 126.028C118.779 124.877 119.095 123.07 118.864 121.876C118.727 121.203 118.411 120.7 118.069 120.631C117.778 120.563 117.402 120.828 117.034 121.331C115.273 123.743 112.785 125.627 110.382 127.443C109.502 128.108 108.621 128.773 107.766 129.472H107.775Z" fill="#0B0B0B"></path></g><g id="Group_44"><path id="Vector_67" d="M143.446 91.7314C143.155 89.6939 140.068 82.3368 141.838 81.6292C144.754 80.4613 148.422 90.5635 145.489 96.4031C142.565 102.243 150.978 98.56 149.055 102.592C148.789 103.146 145.156 108.423 140.18 110.171C138.897 110.512 137.007 110.7 137.007 110.7L136.127 110.793C136.127 110.793 134.075 105.738 137.88 101.365C141.684 96.9914 143.728 93.7774 143.437 91.7399L143.446 91.7314Z" fill="#D7FF65"></path><path id="Vector_68" d="M136.127 111.305C135.922 111.305 135.734 111.177 135.657 110.981C135.571 110.759 133.536 105.584 137.504 101.024C139.992 98.1591 143.266 94.0841 142.941 91.7994C142.864 91.2453 142.531 90.1711 142.18 89.0373C140.881 84.8174 140.086 81.7824 141.65 81.1516C142.129 80.9555 143.095 80.8191 144.215 82.0211C146.584 84.5787 148.354 91.8335 145.951 96.6246C145.421 97.6817 145.259 98.466 145.472 98.9093C145.729 99.4208 146.584 99.5913 147.413 99.7533C148.345 99.9323 149.32 100.12 149.705 100.887C149.961 101.39 149.893 102.012 149.516 102.805C149.2 103.462 145.481 108.841 140.342 110.648C139 111.006 137.127 111.194 137.05 111.202L136.178 111.296C136.178 111.296 136.144 111.296 136.118 111.296L136.127 111.305ZM143.95 91.663C144.25 93.7431 142.497 96.8377 138.273 101.697C135.255 105.175 136.11 109.046 136.486 110.239L136.956 110.188C136.956 110.188 138.829 110 140.052 109.676C144.797 108.006 148.345 102.891 148.602 102.37C148.824 101.902 148.892 101.535 148.798 101.347C148.636 101.032 147.892 100.887 147.234 100.759C146.208 100.563 145.045 100.333 144.566 99.3611C144.19 98.6024 144.352 97.5624 145.045 96.1728C147.225 91.825 145.592 85.0134 143.472 82.7202C143.104 82.3281 142.565 81.9018 142.044 82.1064C141.223 82.4304 142.642 87.0168 143.172 88.7389C143.548 89.9665 143.873 91.0236 143.967 91.663H143.95Z" fill="#0B0B0B"></path></g><g id="Group_45"><path id="Vector_69" d="M130.279 83.2746C132.912 83.8543 134.964 78.6114 134.374 73.9396C133.793 69.2679 131.86 62.0642 136.546 63.2321C141.231 64.4001 145.789 77.7248 141.103 75.099C136.418 72.4733 136.717 75.6787 137.298 79.7708C137.888 83.8543 133.494 89.1057 133.494 91.1517C133.494 93.1978 133.776 103.189 131.724 105.525C129.672 107.861 127.406 105.141 127.5 101.254C127.645 95.5677 130.27 96.2583 130.86 92.763C131.441 89.2592 132.613 85.619 129.398 85.3206C126.183 85.0307 127.645 82.6949 130.279 83.2746Z" fill="#D7FF65"></path><path id="Vector_70" d="M130.15 106.897C129.851 106.897 129.595 106.829 129.406 106.752C127.91 106.173 126.918 103.905 126.987 101.228C127.081 97.7244 128.098 96.4798 128.996 95.3715C129.603 94.6298 130.125 93.9819 130.347 92.6605C130.424 92.2087 130.509 91.7484 130.595 91.288C130.963 89.3358 131.339 87.3153 130.655 86.4031C130.39 86.0536 129.962 85.8661 129.347 85.8064C127.833 85.67 127.303 85.1244 127.124 84.6896C126.953 84.2804 127.038 83.8286 127.354 83.4535C127.842 82.8823 128.962 82.4475 130.381 82.7544C130.86 82.8567 131.339 82.7033 131.809 82.277C133.339 80.8874 134.263 77.1705 133.861 73.9821C133.776 73.2831 133.656 72.5243 133.536 71.74C132.989 68.2277 132.425 64.5875 133.989 63.1638C134.622 62.5841 135.528 62.4392 136.665 62.7205C139.786 63.4963 142.762 69.0802 143.437 72.584C143.745 74.1867 143.574 75.2438 142.916 75.7042C142.403 76.0708 141.71 76.0111 140.855 75.5337C138.94 74.4595 138.222 74.5959 137.965 74.7664C137.187 75.295 137.563 77.9377 137.811 79.6854C138.196 82.3623 136.631 85.3972 135.374 87.8354C134.673 89.1908 134.015 90.4781 134.015 91.1346V91.8166C134.066 96.8549 133.912 103.794 132.117 105.84C131.399 106.659 130.706 106.88 130.159 106.88L130.15 106.897ZM129.449 83.6922C128.774 83.6922 128.321 83.9309 128.141 84.1355C128.098 84.1866 128.047 84.2633 128.073 84.323C128.124 84.4509 128.483 84.7237 129.441 84.809C130.355 84.8942 131.039 85.2267 131.476 85.8064C132.433 87.0766 132.031 89.2249 131.612 91.4926C131.527 91.9359 131.441 92.3877 131.364 92.8396C131.099 94.4252 130.432 95.2436 129.791 96.0279C128.953 97.0509 128.09 98.1081 128.013 101.262C127.944 103.743 128.876 105.448 129.783 105.806C130.279 106.002 130.809 105.798 131.339 105.192C132.493 103.871 133.049 99.3783 132.98 91.8507V91.1601C132.98 90.2479 133.63 88.9862 134.451 87.392C135.639 85.0818 137.119 82.2088 136.785 79.8559C136.366 76.9233 136.161 74.7835 137.375 73.948C138.204 73.3854 139.47 73.6155 141.351 74.6641C141.881 74.9625 142.197 74.9795 142.308 74.8943C142.479 74.7749 142.693 74.1952 142.42 72.7971C141.813 69.6343 139.102 64.4085 136.409 63.735C135.605 63.5389 135.041 63.6071 134.673 63.9396C133.51 64.9967 134.083 68.6625 134.545 71.6036C134.673 72.3965 134.793 73.1637 134.878 73.8798C135.332 77.4689 134.306 81.416 132.502 83.0613C131.783 83.7092 130.971 83.9564 130.167 83.7774C129.911 83.7177 129.671 83.6922 129.458 83.6922H129.449Z" fill="#0B0B0B"></path></g><g id="Group_46"><path id="Vector_71" d="M146.806 69.7028C148.157 70.811 149.388 71.7829 149.388 71.8937C149.388 72.6184 147.875 73.4027 146.951 72.9167C144.754 71.7488 144.318 67.6653 146.806 69.7028Z" fill="#D7FF65"></path><path id="Vector_72" d="M147.61 73.5815C147.302 73.5815 146.994 73.5218 146.712 73.3684C145.361 72.6523 144.566 70.9899 144.609 69.8646C144.634 69.1059 145.019 68.8245 145.25 68.7137C145.754 68.492 146.387 68.6881 147.139 69.3019L148.071 70.0607C149.807 71.4673 149.91 71.5525 149.91 71.885C149.91 72.3624 149.585 72.8313 149.012 73.1723C148.644 73.394 148.14 73.573 147.618 73.573L147.61 73.5815ZM145.677 69.6515H145.66C145.66 69.6515 145.583 69.8561 145.66 70.2653C145.797 70.9984 146.327 71.9959 147.191 72.4562C147.507 72.6267 148.037 72.5585 148.473 72.2942C148.644 72.1919 148.747 72.0896 148.807 72.0129C148.525 71.7657 147.943 71.2883 147.413 70.862L146.473 70.0948C145.968 69.677 145.72 69.6515 145.669 69.6515H145.677Z" fill="#0B0B0B"></path></g><g id="Group_47"><path id="Vector_73" d="M63.2633 124.996C65.8967 120.623 72.5658 123.777 67.6495 129.958C65.8283 132.243 75.2591 137.255 75.2591 137.255L62.2373 134.92C62.2373 134.92 54.6277 133.462 51.4128 132.294C48.198 131.126 44.5386 122.371 44.5386 122.371C44.5386 122.371 54.1916 129.37 56.5344 130.248C58.8771 131.126 60.6298 129.37 63.2633 124.996Z" fill="#D7FF65"></path><path id="Vector_74" d="M75.2675 137.758C75.2675 137.758 75.2076 137.758 75.1734 137.758L62.1516 135.423C61.8353 135.363 54.4565 133.939 51.2417 132.771C47.8473 131.544 44.2221 122.933 44.0682 122.567C43.9827 122.354 44.0425 122.106 44.2221 121.97C44.4016 121.834 44.6581 121.825 44.8377 121.961C44.9317 122.03 54.4651 128.935 56.7138 129.77C58.5948 130.478 60.1338 129.208 62.8271 124.732C63.742 123.215 65.204 122.345 66.7601 122.456C68.0512 122.533 69.12 123.249 69.6244 124.374C70.0434 125.312 70.4025 127.332 68.0597 130.273C67.9486 130.418 67.9144 130.572 67.9571 130.785C68.2992 132.422 72.7709 135.346 75.5069 136.804C75.7292 136.923 75.8318 137.187 75.7463 137.426C75.6779 137.63 75.4727 137.767 75.2589 137.767L75.2675 137.758ZM45.7953 123.897C47.1719 126.778 49.6001 131.083 51.5923 131.808C54.7387 132.95 62.2628 134.399 62.3397 134.408L72.4972 136.232C70.2486 134.826 67.3073 132.694 66.9482 130.989C66.8456 130.486 66.9482 130.018 67.256 129.634C68.7181 127.793 69.2397 126.028 68.6839 124.792C68.3419 124.016 67.598 123.53 66.7003 123.47C65.546 123.411 64.4174 124.067 63.7077 125.252C61.0914 129.6 59.142 131.765 56.3547 130.717C54.5335 130.035 48.6425 125.917 45.7868 123.888L45.7953 123.897Z" fill="#0B0B0B"></path></g><g id="Group_48"><path id="Vector_75" d="M56.6198 102.516C63.6308 98.4661 63.9985 88.5259 70.2743 85.9513C72.2408 85.1414 75.259 83.9394 78.4823 82.6777C80.902 81.7229 82.6548 85.0391 80.5087 86.4969C77.6102 88.4747 74.8999 90.1371 73.2326 90.7339C68.0598 92.5753 68.0598 97.9717 70.736 98.9947C75.7805 100.93 67.6921 106.923 62.8955 106.923C61.1513 106.923 57.2097 109.029 52.8834 111.706C50.4466 113.214 47.873 109.958 49.9336 107.963C52.3533 105.619 54.7045 103.607 56.6112 102.507L56.6198 102.516Z" fill="#D7FF65"></path><path id="Vector_76" d="M51.6094 112.609C50.6689 112.609 49.831 112.115 49.3265 111.467C48.5485 110.478 48.3005 108.85 49.5916 107.597C52.3276 104.945 54.6105 103.087 56.3718 102.064C59.7405 100.12 61.536 96.7356 63.2717 93.4534C65.0758 90.0519 66.7773 86.8294 70.0947 85.4654C72.0612 84.6556 75.0879 83.4535 78.3028 82.1918C79.8418 81.5865 81.1243 82.4135 81.6715 83.4365C82.2187 84.4595 82.176 85.9855 80.8165 86.9147C77.4307 89.225 74.9426 90.6657 73.4207 91.2113C70.5564 92.2343 69.5133 94.3315 69.4962 95.9513C69.4791 97.1704 70.0434 98.1763 70.9326 98.5173C72.8735 99.259 72.9504 100.529 72.8222 101.22C72.3092 103.956 66.7602 107.443 62.9126 107.443C61.9293 107.443 59.4498 108.261 53.1741 112.149C52.6439 112.473 52.1138 112.618 51.6179 112.618L51.6094 112.609ZM56.8848 102.95C55.1919 103.931 52.9774 105.738 50.3098 108.33C49.4719 109.14 49.6172 110.171 50.1388 110.836C50.6603 111.501 51.635 111.893 52.6268 111.279C57.9023 108.006 61.2624 106.42 62.9041 106.42C66.23 106.42 71.3858 103.3 71.8047 101.032C71.8475 100.785 71.9928 100.026 70.5564 99.4721C69.2653 98.9777 68.436 97.5881 68.4616 95.9427C68.4873 93.9735 69.7099 91.45 73.0701 90.2565C74.5151 89.7365 76.9177 88.3384 80.2351 86.0792C81.0816 85.4995 81.1158 84.5788 80.7652 83.9224C80.4403 83.3171 79.705 82.7545 78.679 83.1551C75.4641 84.4254 72.446 85.6189 70.4794 86.4288C67.504 87.6479 65.888 90.7084 64.178 93.9479C62.374 97.3494 60.51 100.87 56.8848 102.967V102.95Z" fill="#0B0B0B"></path></g><g id="Group_49"><path id="Vector_77" d="M74.6777 111.134C75.5583 109.097 80.2352 103.402 85.7928 103.402C91.3503 103.402 100.713 102.823 102.474 99.0289C104.227 95.2352 91.3503 93.7774 90.179 90.2736C89.0076 86.7698 99.5328 77.1876 101.593 80.3505C103.09 82.6437 97.5663 86.7784 97.857 88.8244C98.1477 90.8704 102.474 91.7314 105.398 94.647C108.322 97.5626 110.537 102.763 108.784 104.809C107.031 106.855 103.645 106.318 97.7886 106.028C91.9403 105.738 84.1341 105.013 82.2787 107.776C75.2078 118.347 86.2545 125.806 82.3043 127.289C76.7724 129.378 74.6691 117.699 73.2071 116.531C71.745 115.363 56.0043 123.146 58.0221 119.353C60.4418 114.783 73.797 113.18 74.6691 111.134H74.6777Z" fill="#D7FF65"></path><path id="Vector_78" d="M80.9875 128.065C77.5162 128.065 75.5582 123.112 74.1987 119.702C73.7285 118.517 73.1984 117.179 72.8906 116.932C72.3006 116.676 68.6668 117.955 66.2557 118.79C60.8093 120.7 58.3383 121.433 57.5517 120.521C57.2525 120.171 57.261 119.702 57.5688 119.106C59.1078 116.199 64.52 114.502 68.8635 113.13C71.1207 112.422 73.9337 111.535 74.1987 110.922C75.182 108.637 80.0727 102.882 85.7927 102.882C94.8985 102.882 100.807 101.399 102.004 98.7989C102.14 98.5005 102.158 98.2277 102.046 97.9549C101.559 96.7358 98.7632 95.6105 96.2922 94.6216C93.2056 93.3855 90.29 92.2261 89.683 90.4188C88.7083 87.4947 94.206 81.6635 98.0706 79.8051C100.576 78.603 101.619 79.447 102.012 80.0608C103.064 81.672 101.482 83.7777 100.08 85.6362C99.2249 86.7786 98.2502 88.0658 98.3528 88.7308C98.4725 89.6004 99.7892 90.3335 101.311 91.186C102.748 91.9874 104.372 92.8996 105.749 94.2636C108.921 97.4264 111.101 102.857 109.16 105.116C107.476 107.077 104.654 106.915 99.9773 106.633C99.2762 106.591 98.5409 106.548 97.7543 106.506L96.0699 106.412C90.7859 106.122 84.2195 105.764 82.6975 108.023C78.4909 114.306 80.9448 119.455 82.5607 122.865C83.373 124.57 83.9544 125.806 83.5697 126.77C83.3901 127.204 83.031 127.528 82.4838 127.742C81.9537 127.938 81.4492 128.031 80.979 128.031L80.9875 128.065ZM72.6854 115.9C73.0616 115.9 73.3352 115.977 73.5318 116.13C74.0277 116.531 74.4296 117.503 75.1564 119.327C76.5415 122.831 78.6448 128.134 82.1332 126.812C82.4923 126.676 82.5864 126.522 82.6291 126.42C82.8514 125.875 82.2957 124.698 81.6459 123.343C80.0299 119.95 77.3281 114.263 81.8596 107.494C83.6979 104.741 90.3071 105.107 96.1383 105.431L97.8227 105.525C98.6093 105.559 99.3531 105.61 100.054 105.653C104.415 105.909 107.048 106.062 108.399 104.485C109.921 102.712 107.826 97.8015 105.039 95.0223C103.765 93.7521 102.2 92.8825 100.824 92.1067C99.0624 91.1263 97.549 90.2738 97.3524 88.9098C97.1985 87.8271 98.1561 86.5399 99.2762 85.0565C100.473 83.4623 101.824 81.655 101.166 80.649C100.67 79.8818 99.3018 80.3933 98.5323 80.7599C94.9327 82.4905 89.9651 87.9976 90.6748 90.1289C91.1279 91.4844 94.0777 92.6609 96.6855 93.7094C99.6011 94.8774 102.354 95.9771 103.013 97.6139C103.226 98.151 103.201 98.7051 102.944 99.2678C101.157 103.13 92.6328 103.94 85.8012 103.94C80.637 103.94 76.0285 109.319 75.1564 111.365C74.7289 112.362 72.8136 113.002 69.1884 114.144C65.0159 115.457 59.8346 117.085 58.4922 119.617C58.364 119.856 58.3725 119.941 58.3725 119.941C58.9796 120.282 63.3316 118.765 65.9308 117.852C69.5304 116.591 71.5739 115.926 72.6939 115.926L72.6854 115.9Z" fill="#0B0B0B"></path></g><g id="Group_50"><path id="Vector_79" d="M99.3959 58.0061C102.243 57.5031 104.825 57.128 105.697 55.1758C105.697 55.1758 106.869 60.521 112.136 64.3147C117.402 68.1083 114.76 75.4058 114.478 77.4518C114.188 79.4978 123.43 86.6248 120.626 89.7108C119.591 90.8361 116.24 87.6648 113.008 84.161C109.793 80.6657 110.674 75.1244 111.546 72.7886C112.426 70.4442 109.494 71.0324 106.869 72.4902C104.235 73.9565 93.6161 74.5106 94.2744 69.5917C94.8558 65.2183 100.781 66.2243 105.176 65.9344C109.254 65.6531 100.61 58.9524 99.3959 58.0232V58.0061Z" fill="#D7FF65"></path><path id="Vector_80" d="M120.061 90.4355C118.711 90.4355 116.419 88.6026 112.631 84.485C109.237 80.8022 110.126 75.0904 111.067 72.5925C111.212 72.2089 111.238 71.9105 111.127 71.8167C110.802 71.5354 109.22 71.7571 107.117 72.9165C104.979 74.1015 98.2758 74.7408 95.2491 72.6863C94.1034 71.9105 93.5904 70.8108 93.7699 69.4979C94.3 65.5338 98.6606 65.4997 102.5 65.4656C103.432 65.4656 104.312 65.4485 105.15 65.3974C105.526 65.3718 105.723 65.278 105.749 65.2098C105.988 64.4085 103.064 61.4247 99.0966 58.4068C98.9342 58.2875 98.8572 58.0743 98.9085 57.8782C98.9598 57.6822 99.1137 57.5287 99.3189 57.4946L99.6609 57.4349C102.269 56.9831 104.517 56.5824 105.236 54.9541C105.33 54.7495 105.543 54.6302 105.757 54.6558C105.979 54.6813 106.159 54.8433 106.21 55.0564C106.219 55.1076 107.416 60.2653 112.443 63.8884C117.24 67.3411 115.872 73.4535 115.222 76.3862C115.119 76.8465 115.034 77.2216 114.991 77.503C114.914 78.0486 116.334 79.7536 117.479 81.1176C119.967 84.0928 123.054 87.7927 121.011 90.0348C120.771 90.2991 120.446 90.4355 120.07 90.4355H120.061ZM110.631 70.6829C111.092 70.6829 111.494 70.7852 111.794 71.041C112.118 71.3223 112.426 71.8764 112.024 72.9506C111.323 74.8005 110.212 80.3503 113.384 83.7945C117.659 88.4321 119.369 89.4125 120.053 89.4125C120.181 89.4125 120.215 89.3699 120.241 89.3443C121.686 87.7586 118.907 84.4424 116.676 81.774C114.854 79.5916 113.828 78.3128 113.965 77.3666C114.008 77.0682 114.102 76.659 114.205 76.173C114.863 73.2404 116.077 67.7844 111.828 64.7239C107.843 61.8595 106.142 58.1681 105.509 56.3608C104.423 57.5117 102.602 57.9464 100.619 58.313C103.457 60.5466 107.211 63.8714 106.715 65.5167C106.604 65.9003 106.244 66.3607 105.201 66.4374C104.338 66.4971 103.397 66.4971 102.491 66.5056C98.0706 66.5397 95.1465 66.7784 94.7703 69.6514C94.6506 70.5806 94.984 71.2967 95.8134 71.8594C98.4468 73.6496 104.757 73.0699 106.612 72.0384C107.1 71.7656 109.126 70.7 110.622 70.7L110.631 70.6829Z" fill="#0B0B0B"></path></g><g id="Group_51"><path id="Vector_81" d="M87.5539 72.4821C92.8207 73.3602 89.0159 78.3132 84.9204 76.5656C80.825 74.8179 82.287 71.604 87.5539 72.4821Z" fill="#D7FF65"></path><path id="Vector_82" d="M86.6903 77.4521C86.0747 77.4521 85.4078 77.3328 84.7238 77.0344C82.3725 76.0284 81.8338 74.6388 82.1245 73.667C82.4922 72.4309 84.3305 71.4334 87.6479 71.979C89.8196 72.3371 90.4096 73.343 90.572 73.9142C90.8114 74.7497 90.4694 75.6704 89.6486 76.3865C88.9988 76.9577 87.9472 77.4521 86.6988 77.4521H86.6903ZM85.8695 72.8486C84.2621 72.8486 83.2874 73.343 83.1078 73.9568C82.9454 74.5195 83.5011 75.4061 85.1256 76.0966C86.7587 76.7957 88.2122 76.2757 88.9646 75.6192C89.4776 75.1674 89.7085 74.6388 89.5802 74.1955C89.4178 73.6244 88.6483 73.1896 87.4684 72.9935C86.8784 72.8997 86.3397 72.8486 85.8609 72.8486H85.8695Z" fill="#0B0B0B"></path></g><g id="Group_52"><path id="Vector_83" d="M126.705 56.5744C126.124 58.0322 125.534 60.0782 123.781 63.2837C122.028 66.4891 128.586 72.2179 127.911 73.9315C127.551 74.8437 122.088 72.4993 120.267 69.2256C118.36 65.8071 119.976 62.4056 122.319 59.1916C124.661 55.9862 127.295 55.1081 126.705 56.5659V56.5744Z" fill="#D7FF65"></path><path id="Vector_84" d="M127.457 74.6474C125.782 74.6474 121.455 72.4138 119.822 69.4812C117.659 65.5937 119.796 61.783 121.908 58.9016C123.67 56.4804 125.918 54.9459 126.893 55.4915C127.047 55.5768 127.526 55.9178 127.184 56.7703C127.055 57.0942 126.927 57.4438 126.782 57.8359C126.286 59.1744 125.611 61.0158 124.234 63.5392C123.345 65.176 125.157 67.8614 126.628 70.0183C127.876 71.8597 128.774 73.1811 128.398 74.1359C128.329 74.3149 128.124 74.6133 127.577 74.6559C127.543 74.6559 127.509 74.6559 127.466 74.6559L127.457 74.6474ZM126.209 56.4378C125.602 56.6168 124.166 57.5376 122.729 59.4983C119.831 63.471 119.224 66.3098 120.711 68.9782C122.242 71.7318 126.448 73.7352 127.449 73.6244C127.449 73.0617 126.483 71.638 125.764 70.5724C124.148 68.1854 122.131 65.2101 123.328 63.0277C124.67 60.5725 125.303 58.8504 125.816 57.4608C125.953 57.0857 126.081 56.7362 126.209 56.4208V56.4378Z" fill="#0B0B0B"></path></g></g></g></g><g id="Frame" clip-path="url(#clip2_4086_10785)"><g id="Group_53"><g id="Isolation Mode"><g id="Group_54"><g id="Group_55"><g id="Group_56"><path id="Vector_85" d="M143.801 147.982C141.976 153.306 142.995 158.141 146.193 159.232C149.381 160.323 153.162 157.133 154.997 151.809C156.823 146.484 155.804 141.65 152.606 140.559C149.409 139.468 145.627 142.657 143.801 147.982Z" fill="#0B0B0B"></path><path id="Vector_86" d="M147.481 159.999C148.797 159.999 150.169 159.435 151.466 158.344C153.162 156.912 154.608 154.656 155.526 151.985C157.453 146.364 156.286 141.225 152.792 140.032C151.058 139.44 149.121 139.94 147.342 141.437C145.646 142.87 144.2 145.135 143.282 147.797C142.365 150.469 142.115 153.131 142.578 155.303C143.06 157.577 144.283 159.158 146.017 159.75C146.489 159.916 146.98 159.99 147.481 159.99V159.999ZM151.327 140.901C151.707 140.901 152.069 140.956 152.43 141.086C155.322 142.075 156.193 146.605 154.469 151.633C153.616 154.111 152.291 156.2 150.743 157.503C149.27 158.742 147.722 159.167 146.369 158.705C145.016 158.243 144.052 156.958 143.653 155.081C143.236 153.103 143.468 150.644 144.32 148.167C145.173 145.689 146.498 143.6 148.046 142.297C149.131 141.382 150.261 140.91 151.318 140.91L151.327 140.901Z" fill="#0B0B0B"></path></g><g id="Group_57"><path id="Vector_87" d="M143.801 147.982C142.504 151.753 143.236 155.174 145.488 155.941C147.749 156.708 150.428 154.453 151.716 150.69C153.014 146.928 152.281 143.498 150.029 142.731C147.777 141.955 145.099 144.219 143.801 147.982Z" fill="#B5FDEA"></path><path id="Vector_88" d="M146.396 156.652C148.667 156.652 151.049 154.378 152.254 150.875C152.912 148.961 153.088 147.039 152.764 145.477C152.411 143.813 151.503 142.648 150.224 142.204C148.945 141.77 147.518 142.13 146.211 143.23C144.988 144.266 143.95 145.892 143.292 147.806C142.634 149.719 142.457 151.642 142.791 153.204C143.143 154.868 144.042 156.033 145.331 156.468C145.683 156.588 146.044 156.643 146.406 156.643L146.396 156.652ZM149.13 143.138C149.381 143.138 149.622 143.175 149.853 143.258C150.752 143.563 151.401 144.432 151.67 145.708C151.957 147.076 151.79 148.786 151.197 150.514C150.02 153.926 147.592 156.079 145.673 155.423C144.774 155.118 144.135 154.249 143.866 152.973C143.57 151.596 143.736 149.895 144.339 148.166C144.932 146.438 145.85 144.987 146.925 144.081C147.657 143.461 148.426 143.138 149.14 143.138H149.13Z" fill="#0B0B0B"></path></g></g><g id="Group_58" style="mix-blend-mode:multiply" opacity="0.5"><path id="Vector_89" d="M134.116 163.004L146.508 146.873C148.018 144.904 150.854 144.525 152.829 146.041C154.803 147.548 155.183 150.376 153.663 152.345L141.271 168.476C139.761 170.445 136.924 170.824 134.95 169.308C132.976 167.801 132.596 164.973 134.116 163.004Z" fill="#0B0B0B"></path></g><g id="Group_59"><path id="Vector_90" d="M146.406 148.232C145.284 150.413 146.156 153.085 148.343 154.204L164.321 162.357C166.508 163.475 169.187 162.606 170.308 160.425C171.43 158.243 170.558 155.572 168.371 154.453L152.393 146.309C150.206 145.191 147.527 146.06 146.406 148.241V148.232Z" fill="#D7FF65"></path><path id="Vector_91" d="M166.342 163.392C168.167 163.392 169.919 162.394 170.809 160.674C171.421 159.482 171.522 158.132 171.115 156.866C170.698 155.599 169.817 154.564 168.631 153.954L152.653 145.81C151.457 145.2 150.104 145.098 148.834 145.505C147.565 145.912 146.526 146.79 145.915 147.982C145.303 149.165 145.201 150.524 145.609 151.791C146.017 153.057 146.906 154.092 148.093 154.703L164.071 162.847C164.803 163.216 165.572 163.392 166.342 163.392ZM150.373 146.374C150.966 146.374 151.568 146.512 152.134 146.799L168.112 154.943C170.021 155.914 170.781 158.261 169.808 160.166C168.835 162.07 166.481 162.828 164.571 161.857L148.593 153.713C146.684 152.743 145.924 150.395 146.897 148.491C147.583 147.15 148.955 146.374 150.373 146.374Z" fill="#0B0B0B"></path></g><path id="Vector_92" d="M184.794 214.973C186.129 214.973 187.473 214.65 188.705 213.993L243.489 184.902C248.318 182.342 254.138 182.249 259.05 184.662L284.686 197.271C287.281 198.547 290.293 198.399 292.749 196.873C295.205 195.348 296.669 192.714 296.669 189.829V142.112C296.669 139.921 297.865 137.887 299.774 136.815L311.999 129.965C314.612 128.496 316.244 125.732 316.244 122.737V89.6801C316.244 85.2522 318.653 81.1571 322.537 79.0033L330.878 74.3721C331.415 74.0763 331.61 73.4014 331.313 72.8653C331.017 72.3291 330.34 72.135 329.803 72.4401L321.461 77.0621C316.874 79.6042 314.028 84.4388 314.028 89.6801V122.737C314.028 124.927 312.833 126.961 310.924 128.033L298.699 134.883C296.085 136.353 294.454 139.117 294.454 142.112V189.829C294.454 191.946 293.379 193.869 291.581 194.988C289.783 196.106 287.568 196.208 285.668 195.283L260.033 182.675C254.481 179.948 247.91 180.049 242.442 182.952L187.658 212.043C185.749 213.05 183.515 212.995 181.662 211.886C179.808 210.776 178.705 208.835 178.705 206.681V172.155C178.705 166.683 175.665 161.746 170.772 159.278L167.528 157.633C166.981 157.355 166.314 157.577 166.036 158.123C165.758 158.668 165.98 159.334 166.527 159.611L169.771 161.256C173.914 163.345 176.481 167.524 176.481 172.155V206.681C176.481 209.621 177.992 212.274 180.513 213.79C181.838 214.585 183.311 214.982 184.794 214.982V214.973Z" fill="#0B0B0B"></path><g id="Group_60"><path id="Vector_93" d="M177.593 196.097C178.826 196.097 179.817 195.099 179.817 193.879V172.137C179.817 166.248 176.546 160.933 171.281 158.271L168.038 156.625C166.944 156.071 165.6 156.505 165.044 157.596C164.488 158.687 164.924 160.027 166.026 160.582L169.27 162.227C173.033 164.132 175.369 167.931 175.369 172.137V193.879C175.369 195.099 176.36 196.097 177.593 196.097Z" fill="#B5FDEA"></path><path id="Vector_94" d="M177.593 196.661C179.122 196.661 180.374 195.413 180.374 193.888V172.146C180.374 166.045 176.981 160.545 171.532 157.781L168.288 156.136C167.63 155.803 166.879 155.738 166.166 155.969C165.461 156.2 164.887 156.69 164.544 157.356C164.21 158.012 164.154 158.77 164.377 159.473C164.609 160.175 165.1 160.748 165.767 161.081L169.011 162.726C172.588 164.538 174.803 168.143 174.803 172.146V193.888C174.803 195.413 176.055 196.661 177.584 196.661H177.593ZM167.027 156.949C167.287 156.949 167.537 157.004 167.778 157.125L171.022 158.77C176.101 161.34 179.252 166.461 179.252 172.146V193.888C179.252 194.803 178.501 195.552 177.584 195.552C176.666 195.552 175.916 194.803 175.916 193.888V172.146C175.916 167.727 173.46 163.743 169.511 161.737L166.268 160.092C165.869 159.889 165.572 159.547 165.433 159.121C165.294 158.696 165.331 158.252 165.535 157.855C165.739 157.457 166.082 157.162 166.508 157.023C166.675 156.967 166.851 156.94 167.027 156.94V156.949Z" fill="#0B0B0B"></path></g><g id="Group_61"><path id="Vector_95" d="M315.14 113.308C316.364 113.308 317.365 112.319 317.365 111.089V89.6804C317.365 85.65 319.552 81.9339 323.083 79.9742L331.424 75.343C332.499 74.7421 332.879 73.3925 332.286 72.3202C331.693 71.2479 330.331 70.8689 329.256 71.4605L320.924 76.0917C315.984 78.8372 312.916 84.0416 312.916 89.6804V111.099C312.916 112.328 313.908 113.317 315.14 113.317V113.308Z" fill="#B5FDEA"></path><path id="Vector_96" d="M315.141 113.863C316.67 113.863 317.921 112.615 317.921 111.089V89.6803C317.921 85.8533 320.006 82.3221 323.361 80.4548L331.693 75.8236C332.342 75.4631 332.815 74.8715 333.019 74.1597C333.213 73.4479 333.121 72.6991 332.768 72.052C332.027 70.7209 330.331 70.231 328.987 70.9797L320.646 75.611C315.53 78.4489 312.351 83.8474 312.351 89.6803V111.099C312.351 112.624 313.602 113.872 315.131 113.872L315.141 113.863ZM330.34 71.7377C330.924 71.7377 331.499 72.0428 331.805 72.5882C332.018 72.9764 332.073 73.4294 331.953 73.8546C331.832 74.2798 331.545 74.6404 331.156 74.853L322.815 79.4842C319.107 81.5456 316.809 85.4466 316.809 89.6803V111.099C316.809 112.014 316.058 112.763 315.141 112.763C314.223 112.763 313.472 112.014 313.472 111.099V89.6803C313.472 84.2449 316.429 79.2254 321.193 76.5816L329.525 71.9504C329.784 71.8117 330.062 71.7377 330.331 71.7377H330.34Z" fill="#0B0B0B"></path></g></g></g></g></g><g id="Group_62"><g id="Group_63"><path id="Vector_97" d="M354.258 99.7898L345.267 99.7714C343.601 99.768 342.247 98.7665 341.551 97.4334L324.014 65.6042L335.677 65.9609L354.258 99.7898Z" fill="#0B0B0B"></path></g><g id="Group_64"><path id="Vector_98" d="M358.524 89.6443C359.22 90.9774 359.258 92.642 358.289 93.9717L354.421 99.6233L332.367 59.462L341.861 59.6479L358.524 89.6443Z" fill="white"></path><g id="Group_65"><path id="Vector_99" d="M354.273 100.456L331.353 58.7943L342.017 59.149L358.85 89.3122C359.716 90.8121 359.591 92.6429 358.629 94.3055L354.273 100.456ZM333.211 59.9633L354.568 98.7916L358.119 93.8051C358.925 92.6415 359.057 91.1437 358.199 89.9767L341.877 60.3139L333.211 59.9633Z" fill="#0B0B0B"></path></g></g><path id="Vector_100" d="M297.063 29.7607C299.311 26.1032 302.271 24.4447 304.942 24.783L350.603 26.5409L347.768 63.1558L304.106 61.402C301.271 61.2297 298.732 59.3935 296.814 55.5611C292.49 48.3946 292.892 36.7434 297.063 29.7607Z" fill="#0B0B0B"></path><g id="Group_66"><path id="Vector_101" d="M317.139 26.6394C319.543 22.4829 322.828 20.4921 325.98 19.9992C325.98 19.9992 363.698 16.5806 378.45 6.29039C382.875 3.13673 390.296 -0.0107935 396.32 1.33318C396.32 1.33318 405.795 8.01085 409.787 15.1767C419.688 33.3408 419.174 62.1369 408.746 79.5936C404.738 86.4102 395.549 92.3838 395.549 92.3838C395.549 92.3838 388.401 92.8686 384.189 90.6961C381.835 89.6925 379.8 88.0238 377.594 86.1882C363.01 74.5064 344.419 69.6412 326.221 67.44C322.72 67.2664 319.167 64.7623 316.397 60.0958C311.524 50.7642 311.519 35.7831 317.139 26.6394Z" fill="#CDC2FF"></path><path id="Vector_102" d="M404.553 85.5772C400.484 89.7303 396.052 92.551 395.727 92.8833L395.564 93.0494C395.231 93.0487 388.245 93.3673 384.041 91.5277C381.688 90.5242 379.822 89.0222 377.446 87.0199C365.069 77.1736 348.445 70.9807 326.243 68.4385C322.41 68.2642 318.857 65.7601 316.25 60.9275C311.036 51.2623 311.193 36.115 316.814 26.9713C319.225 23.1477 322.332 20.6572 325.654 20.3311L325.987 20.3317C326.321 20.3324 363.706 16.9132 378.295 6.7891C382.719 3.63544 390.141 0.487918 396.498 1.83256L396.668 1.99937C397.009 2.33298 406.314 8.84385 410.305 16.0097C420.377 34.3406 419.87 63.4696 409.109 80.9257C407.8 81.9217 406.343 83.7498 404.553 85.5772ZM395.542 92.0506C396.526 91.3868 404.723 85.744 408.576 79.4264C419.011 62.3026 419.525 33.5066 409.794 15.5093C406.151 9.00997 397.512 2.50047 396.498 1.83256C390.977 0.656085 383.718 3.6375 378.961 6.79047C364.705 16.9152 329.318 20.3385 326.491 20.4992L326.158 20.4985C322.998 20.6585 320.053 22.9829 317.642 26.8065C312.185 35.7841 312.02 50.5985 317.056 59.7639C319.485 64.0968 322.875 66.767 326.376 66.9406C348.748 69.6497 365.534 75.6764 378.252 85.8563C380.628 87.8587 382.657 89.1945 384.677 90.1973C388.053 92.2017 394.543 92.0485 395.542 92.0506Z" fill="#0B0B0B"></path></g><path id="Vector_103" d="M333.249 24.841C336.14 20.1861 339.914 17.697 343.732 17.2054C343.732 17.2054 344.235 17.3729 344.406 17.5397C341.09 18.1988 337.983 20.6893 335.247 24.8451C328.487 35.1517 327.872 52.1291 333.604 62.6276C336.211 67.4602 339.934 70.1311 343.605 70.4716C343.272 70.4709 342.939 70.4702 342.606 70.4695C338.61 70.4613 334.553 67.7897 331.598 62.2906C326.037 51.9589 326.822 35.1483 333.249 24.841Z" fill="#0B0B0B"></path><g id="Group_67"><path id="Vector_104" d="M377.25 78.3638C367.349 60.1997 367.863 31.4036 378.29 13.9469C388.888 -3.343 405.554 -2.64312 415.456 15.521C425.357 33.6851 424.843 62.4812 414.415 79.9379C403.817 97.2278 387.151 96.5279 377.25 78.3638Z" fill="#8B75F3"></path><g id="Group_68"><path id="Vector_105" d="M409.903 86.587C405.672 90.9062 400.73 93.2265 395.564 93.0495C388.401 92.8684 381.79 87.6947 376.924 78.6961C366.853 60.3652 367.359 31.2362 378.12 13.7801C383.423 5.30162 390.148 0.821004 397.312 1.0021C404.475 1.1832 411.086 6.35688 415.951 15.3555C426.023 33.6864 425.516 62.8155 414.756 80.2715C413.143 82.5986 411.694 84.7596 409.903 86.587ZM377.575 78.0316C382.433 86.6973 388.703 91.5374 395.704 91.8846C402.535 92.065 409.097 87.7505 414.074 79.6043C424.51 62.4805 425.024 33.6844 415.293 15.6871C410.435 7.02141 404.165 2.18132 397.164 1.8341C390.333 1.65368 383.771 5.96816 378.794 14.1144C368.196 31.4043 367.682 60.2004 377.575 78.0316Z" fill="#0B0B0B"></path></g></g><g id="Group_69"><path id="Vector_106" d="M375.279 35.4134C376.468 29.0904 378.331 23.1018 381.385 18.2808C383.796 14.4572 386.563 11.633 389.522 9.97452C396.27 6.4927 403.509 10.0031 408.715 19.3354C417.054 34.6665 416.775 59.1352 407.782 73.765C405.371 77.5886 402.604 80.4128 399.645 82.0713C392.897 85.5531 385.658 82.0427 380.452 72.7105C377.675 67.7111 375.867 61.382 375.058 55.0549C374.078 48.5611 374.09 41.7364 375.279 35.4134Z" fill="#F2FFA1"></path><g id="Group_70"><path id="Vector_107" d="M404.076 79.2508C402.612 80.7459 401.302 81.742 399.822 82.5712C392.749 86.3853 385.34 82.7081 380.126 73.0429C377.349 68.0435 375.378 61.8806 374.562 55.2206C373.582 48.7267 373.757 41.7359 374.946 35.4129C376.128 28.7571 378.161 22.9352 381.215 18.1142C383.626 14.2906 386.555 11.3003 389.515 9.6418C396.588 5.82773 403.997 9.50493 409.211 19.1701C417.72 34.668 417.278 59.3029 408.122 74.0989C406.665 75.9269 405.541 77.7557 404.076 79.2508ZM385.439 13.462C384.137 14.791 382.842 16.4529 381.556 18.4478C378.664 23.1027 376.631 28.9245 375.612 35.4143C374.423 41.7373 374.411 48.562 375.22 54.889C376.2 61.3829 378 67.379 380.777 72.3784C385.813 81.5439 392.719 85.0536 399.134 81.5711C401.931 80.0787 404.697 77.2546 407.108 73.431C415.939 58.9672 416.388 34.6653 408.049 19.3342C403.013 10.1687 396.107 6.65904 389.693 10.1415C388.05 11.1369 386.741 12.133 385.439 13.462Z" fill="#0B0B0B"></path></g></g><g id="Group_71"><path id="Vector_108" d="M374.821 37.2435C375.862 31.7525 377.577 26.5958 379.981 22.4393C381.903 19.1141 384.344 16.6222 386.978 15.2959C392.735 12.145 398.967 15.3204 403.477 23.3196C410.771 36.6511 410.417 57.7905 402.711 70.4255C400.788 73.7508 398.347 76.2426 395.713 77.5689C389.957 80.7198 383.724 77.5444 379.215 69.5452C376.786 65.2124 375.333 59.8828 374.539 54.2216C373.752 48.8933 373.95 42.9013 374.821 37.2435Z" fill="#8B75F3"></path><g id="Group_72"><path id="Vector_109" d="M399.657 75.2466C398.517 76.4095 397.208 77.4055 395.891 78.0687C392.931 79.7272 389.601 79.7204 386.737 78.2164C383.872 76.7125 380.978 73.8768 378.719 69.7107C376.29 65.3779 374.837 60.0482 373.873 54.2203C373.079 48.5591 373.276 42.567 374.318 37.0761C375.189 31.4183 377.066 26.0955 379.64 22.1058C381.726 18.6144 384.167 16.1225 386.801 14.7963C389.76 13.1377 393.09 13.1445 395.955 14.6485C398.819 16.1525 401.714 18.9882 403.973 23.1542C411.267 36.4857 410.921 57.958 403.052 70.7592C402.09 72.4218 400.959 73.9176 399.657 75.2466ZM383.724 18.6185C382.585 19.7814 381.453 21.2772 380.491 22.9398C377.918 26.9295 376.203 32.0862 375.162 37.5771C374.12 43.0681 374.086 48.8941 374.88 54.5552C375.674 60.2164 377.289 65.3799 379.548 69.5459C381.636 73.5452 384.361 76.2141 387.055 77.5512C389.749 78.8884 392.746 78.8945 395.543 77.4021C398.014 76.242 400.285 73.5833 402.378 70.4249C410.084 57.7899 410.446 36.9834 403.322 23.8187C401.233 19.8195 398.509 17.1506 395.815 15.8134C393.121 14.4763 390.123 14.4701 387.327 15.9625C386.172 16.4596 384.863 17.4556 383.724 18.6185Z" fill="#0B0B0B"></path></g></g><g id="Group_73"><path id="Vector_110" d="M374.688 38.7413C375.419 34.2484 376.986 29.9237 379.072 26.4324C380.839 23.6062 382.792 21.6127 384.931 20.4519C389.866 17.7987 394.921 20.4723 398.735 27.1384C404.645 38.1367 404.54 55.6145 398.121 66.2547C396.354 69.0808 394.401 71.0743 392.262 72.2352C387.327 74.8884 382.272 72.2147 378.458 65.5486C376.377 61.8823 375.11 57.3854 374.509 52.8898C373.737 48.2274 373.957 43.2341 374.688 38.7413Z" fill="#F2FFA1"></path><g id="Group_74"><path id="Vector_111" d="M395.547 70.2446C394.571 71.2413 393.424 72.0713 392.44 72.7351C387.343 75.5545 381.954 72.8801 378.133 65.8811C376.222 62.3816 374.785 57.7178 374.013 53.0555C373.242 48.3931 373.462 43.3998 374.355 38.7408C375.249 34.0818 376.646 29.5903 378.902 26.2658C380.669 23.4396 382.785 21.28 384.923 20.1192C387.557 18.7929 390.051 18.6315 392.745 19.9687C395.269 21.1391 397.49 23.6405 399.401 27.14C405.481 38.305 405.214 55.949 398.795 66.5892C397.493 67.9182 396.524 69.2478 395.547 70.2446ZM382.164 23.2762C381.188 24.273 380.381 25.4365 379.413 26.7662C377.49 30.0914 375.923 34.4161 375.192 38.909C374.461 43.4018 374.403 48.229 374.842 52.8907C375.613 57.5531 376.71 61.8832 378.621 65.3827C382.264 71.882 387.15 74.3889 391.589 71.9011C393.564 70.9064 395.517 68.9129 397.285 66.0867C403.712 55.7795 403.986 38.4684 397.914 27.6363C396.173 24.3036 393.96 22.1351 391.769 20.9654C389.578 19.7958 387.247 19.791 384.946 21.118C384.124 21.6157 383.141 22.2795 382.164 23.2762Z" fill="#0B0B0B"></path></g></g><g id="Group_75"><path id="Vector_112" d="M374.571 40.9053C375.154 37.2445 376.411 33.9179 378.016 31.2578C379.465 29.0969 380.93 27.6017 382.573 26.6063C386.524 24.6169 390.395 26.4559 393.349 31.955C398.208 40.6207 397.85 54.2695 392.71 62.5819C391.261 64.7429 389.796 66.238 388.153 67.2334C384.202 69.2228 380.331 67.3839 377.377 61.8847C375.814 59.0518 374.902 55.5543 374.324 52.0575C373.738 48.2278 373.818 44.3994 374.571 40.9053Z" fill="#8B75F3"></path><g id="Group_76"><path id="Vector_113" d="M390.78 65.5743C389.966 66.4049 389.145 66.9025 388.324 67.4002C386.348 68.395 384.188 68.557 382.167 67.5541C380.146 66.5513 378.436 64.5503 376.881 62.0502C375.318 59.2173 374.407 55.7198 373.821 51.8901C373.405 48.2272 373.314 44.232 374.068 40.7379C374.651 37.0771 375.908 33.7505 377.675 30.9243C379.125 28.7633 380.752 27.1021 382.395 26.1067C384.37 25.112 386.531 24.9499 388.552 25.9528C390.573 26.9557 392.283 28.9567 393.838 31.4567C398.533 40.2885 398.516 54.2709 393.376 62.5833C392.407 63.913 391.594 64.7436 390.78 65.5743ZM380.457 28.766C379.643 29.5967 379 30.5941 378.356 31.5915C376.752 34.2516 375.658 37.412 375.074 41.0729C374.491 44.7338 374.411 48.5621 374.99 52.0589C375.406 55.7218 376.48 59.0532 378.043 61.8861C379.435 64.5523 381.138 66.2204 382.988 67.0564C384.839 67.8925 386.504 67.8959 388.316 67.0673C389.796 66.2381 391.424 64.5768 392.71 62.582C397.688 54.4357 397.882 40.953 393.194 32.4541C391.802 29.788 390.099 28.1199 388.249 27.2838C386.399 26.4478 384.733 26.4444 382.921 27.273C381.922 27.2709 381.271 27.9354 380.457 28.766Z" fill="#0B0B0B"></path></g></g><g id="Group_77"><path id="Vector_114" d="M374.446 42.7362C374.889 40.2403 375.672 38.0779 376.797 36.2492C377.595 34.7527 378.734 33.5899 379.889 33.0928C382.523 31.7666 385.217 33.1037 387.298 36.77C390.593 42.6028 390.308 52.0903 386.943 57.9094C386.145 59.4059 385.006 60.5688 383.851 61.0658C381.217 62.3921 378.523 61.0549 376.442 57.3886C375.398 55.3889 374.679 53.0571 374.456 50.5598C374.063 47.8956 374.003 45.2322 374.446 42.7362Z" fill="#F2FFA1"></path><g id="Group_78"><path id="Vector_115" d="M385.657 59.9042C385.168 60.4026 384.517 61.0671 384.022 61.2325C382.542 62.0618 381.21 62.0591 379.692 61.2237C378.345 60.5551 376.983 59.2206 376.109 57.3878C375.065 55.3882 374.346 53.0563 373.953 50.3922C373.73 47.8949 373.67 45.2314 374.113 42.7355C374.556 40.2395 375.332 37.7442 376.456 35.9155C377.417 34.2529 378.557 33.09 379.711 32.593C382.508 31.1006 385.535 32.4385 387.623 36.4377C390.926 42.6034 390.641 52.0909 387.276 57.91C386.796 58.7413 386.307 59.2397 385.657 59.9042ZM378.757 34.5886C378.269 35.0869 377.78 35.5853 377.3 36.4166C376.176 38.2453 375.392 40.4077 374.949 42.9036C374.506 45.3996 374.396 47.8962 374.782 50.2274C375.005 52.7248 375.723 55.0566 376.93 56.8901C377.967 58.5568 378.996 59.8906 380.173 60.3923C381.35 60.8941 382.519 61.063 383.666 60.233C384.82 59.736 385.626 58.5725 386.595 57.2428C389.968 51.7566 390.09 42.4352 386.965 36.7693C385.054 33.2698 382.53 32.0994 380.229 33.4264C379.571 33.7579 379.245 34.0902 378.757 34.5886Z" fill="#0B0B0B"></path></g></g><g id="Group_79" opacity="0.2"><path id="Vector_116" d="M374.276 42.569C374.786 43.0694 392.041 55.0896 396.844 53.9342C402.405 64.2659 404.549 78.0863 399.44 87.7304C392.825 89.7143 385.904 85.5388 381.031 76.2072C377.905 70.5412 375.919 63.7124 375.095 56.7195C374.161 52.2233 373.885 47.3954 374.276 42.569Z" fill="#0B0B0B"></path></g><g id="Group_80"><g id="Group_81"><g id="Group_82"><path id="Vector_117" d="M396.675 39.1194L396.533 54.9325L374.599 56.8852C373.605 49.7255 373.765 42.0688 374.939 35.08L396.675 39.1194Z" fill="white"></path><path id="Vector_118" d="M397.207 55.2667L396.874 55.266L374.444 57.3842L374.266 56.8844C373.272 49.7247 373.432 42.068 374.606 35.0792L374.761 34.5801L375.264 34.7476L397.333 38.7877L397.207 55.2667ZM375.087 56.3867L396.355 54.4327L396.512 39.2854L375.782 35.581C374.438 42.403 374.271 49.7268 375.087 56.3867Z" fill="#0B0B0B"></path></g><g id="Vector_119"><mask id="path-120-inside-1_4086_10785" fill="white"><path d="M393.057 41.1092C394.987 38.117 397.822 38.2892 399.555 41.289C401.295 44.6217 401.238 49.4488 399.478 52.6079C397.547 55.6002 394.713 55.4279 392.98 52.4282C391.077 49.2616 391.297 44.2683 393.057 41.1092Z"></path></mask><path d="M393.057 41.1092C394.987 38.117 397.822 38.2892 399.555 41.289C401.295 44.6217 401.238 49.4488 399.478 52.6079C397.547 55.6002 394.713 55.4279 392.98 52.4282C391.077 49.2616 391.297 44.2683 393.057 41.1092Z" fill="#FFA5F6" stroke="#0B0B0B" stroke-width="1.7931" mask="url(#path-120-inside-1_4086_10785)"></path></g></g></g></g></g><defs><clipPath id="clip0_4086_10785"><rect width="149.724" height="192.759" fill="white" transform="translate(13.0518 15.9385)"></rect></clipPath><clipPath id="clip1_4086_10785"><rect width="127.79" height="94.7732" fill="white" transform="translate(27.3442 43.6157)"></rect></clipPath><clipPath id="clip2_4086_10785"><rect width="199.931" height="144.345" fill="white" transform="matrix(-1 0 0 1 333.121 70.6284)"></rect></clipPath></defs></svg>