<svg xmlns="http://www.w3.org/2000/svg" width="25" height="43" viewBox="0 0 25 43" fill="none"><g id="Group"><path id="Vector" d="M1.39747 41.3434C1.06331 32.7122 1.89588 21.4967 11.8416 21.1077C16.1347 20.9384 19.601 23.1213 21.606 27.2863C23.7412 31.7148 23.1352 37.2285 22.7161 42.0145L23.3504 41.312C15.9988 41.1615 8.6415 41.0172 1.28986 40.8666C0.468602 40.8478 0.468602 42.2592 1.28986 42.278C8.6415 42.4285 15.9988 42.5728 23.3504 42.7233C23.7243 42.7296 23.9565 42.3972 23.9848 42.0208C24.4719 36.4319 24.7721 30.8806 22.314 25.7809C20.3713 21.7476 16.6388 20.0163 12.7081 19.7152C8.66982 19.4079 5.29418 21.1579 2.85873 24.6769C-0.358315 29.3187 -0.0977785 35.8485 0.111783 41.3496C0.145766 42.2592 1.42013 42.2592 1.38614 41.3496L1.39747 41.3434Z" fill="#8B75F3"></path><path id="Vector_2" d="M9.20767 14.5278C13.4612 15.5879 17.6411 15.5753 19.3969 10.438C21.0677 5.53279 17.2899 1.75664 13.2573 1.02902C9.42856 0.339023 5.68478 3.33108 4.60299 7.29541C3.53819 11.2095 7.61048 15.2617 10.8842 15.0296C11.6998 14.9731 11.7054 13.5618 10.8842 13.6182C7.45756 13.8566 4.86353 9.67902 6.33046 6.21651C7.62181 3.16799 11.0144 2.05146 13.784 2.547C17.1937 3.16172 18.9891 6.45487 18.1678 10.0616C17.137 14.5968 12.6343 13.9382 9.54751 13.1666C8.74891 12.9659 8.40908 14.3271 9.20767 14.5278Z" fill="#8B75F3"></path><path id="Vector_3" d="M11.6602 1.83158C9.26437 4.00192 6.99318 6.32281 4.8466 8.78797C4.46712 9.22705 5.06748 9.89195 5.44696 9.45287C7.59355 6.98771 9.86474 4.66683 12.2605 2.49648C12.6853 2.11385 12.0793 1.44895 11.6602 1.83158Z" fill="#8B75F3"></path><path id="Vector_4" d="M14.2372 2.37753C11.4166 4.7486 8.78292 7.33294 6.33048 10.1619C5.95101 10.601 6.55137 11.2659 6.93085 10.8268C9.33231 8.06057 11.9093 5.50759 14.6676 3.19298C15.0981 2.82916 14.6733 2.01372 14.2372 2.37753Z" fill="#8B75F3"></path><path id="Vector_5" d="M16.0554 3.60121C12.8497 5.64609 10.3123 8.97687 7.79191 11.9062C7.41243 12.3453 8.0128 13.0102 8.39227 12.5711C10.856 9.7045 13.3538 6.40509 16.4802 4.41038C16.956 4.10929 16.5255 3.29384 16.0498 3.59493L16.0554 3.60121Z" fill="#8B75F3"></path><path id="Vector_6" d="M17.5562 5.63899C14.7979 7.99751 12.2266 10.5756 9.85341 13.392C9.4796 13.8374 10.08 14.5023 10.4538 14.0569C12.7816 11.2969 15.285 8.7565 17.9867 6.44816C18.4114 6.08435 17.9867 5.26263 17.5562 5.63271V5.63899Z" fill="#8B75F3"></path><path id="Vector_7" d="M17.6075 8.67573C16.1859 10.4697 14.651 12.1382 13.0028 13.675C12.5837 14.0639 13.1897 14.7288 13.6032 14.3399C15.2513 12.8031 16.7862 11.1346 18.2078 9.34063C18.5647 8.889 17.97 8.21782 17.6075 8.67573Z" fill="#8B75F3"></path><path id="Vector_8" d="M10.4369 20.9567C7.50874 23.1772 4.73913 25.611 2.11678 28.2581C1.70899 28.6658 2.31502 29.3307 2.71715 28.923C5.28286 26.3261 8.00149 23.9425 10.8674 21.7722C11.3148 21.4334 10.89 20.618 10.4369 20.9567Z" fill="#8B75F3"></path><path id="Vector_9" d="M15.1323 20.9702C10.0859 24.6459 5.41321 28.8298 1.10304 33.5217C0.712239 33.9483 1.3126 34.6132 1.70341 34.1867C5.95694 29.5512 10.573 25.4175 15.5571 21.7793C16.0102 21.4469 15.5854 20.6314 15.1267 20.9639L15.1323 20.9702Z" fill="#8B75F3"></path><path id="Vector_10" d="M17.4545 22.4693L0.310082 37.969C-0.114704 38.3517 0.491325 39.0166 0.910448 38.6339L18.0548 23.1342C18.4796 22.7515 17.8736 22.0866 17.4545 22.4693Z" fill="#8B75F3"></path><path id="Vector_11" d="M19.3744 24.2002C13.5406 29.9836 7.70123 35.767 1.8675 41.5504C1.4597 41.9581 2.06007 42.6167 2.46786 42.2153C8.3016 36.4319 14.141 30.6485 19.9747 24.8651C20.3825 24.4574 19.7822 23.7987 19.3744 24.2002Z" fill="#8B75F3"></path><path id="Vector_12" d="M20.8584 26.1264C16.9107 31.7656 12.0455 36.6331 7.50874 41.6826C7.1236 42.1154 7.72397 42.7803 8.10911 42.3475C12.6458 37.298 17.5111 32.4305 21.4587 26.7913C21.7872 26.3209 21.1925 25.6497 20.8584 26.1264Z" fill="#8B75F3"></path><path id="Vector_13" d="M22.1272 28.9859C18.3551 32.7746 14.8945 36.8832 11.7397 41.3054C11.4056 41.7759 12.0003 42.447 12.3401 41.9703C15.4948 37.5481 18.9611 33.4395 22.7275 29.6508C23.1353 29.2431 22.5293 28.5782 22.1272 28.9859Z" fill="#8B75F3"></path><path id="Vector_14" d="M22.971 32.8686C20.9491 36.0551 18.0322 38.3321 15.7553 41.2677C15.3985 41.7256 15.9989 42.3967 16.3557 41.9326C18.6835 38.928 21.6401 36.6008 23.7017 33.3453C24.0189 32.8498 23.2826 32.3793 22.9654 32.8686H22.971Z" fill="#8B75F3"></path><path id="Vector_15" d="M22.9768 37.385C21.5212 38.8027 20.1222 40.2454 18.8139 41.8261C18.4457 42.2714 19.0461 42.9426 19.4142 42.491C20.7226 40.9103 22.1215 39.4613 23.5771 38.0499C23.9906 37.6485 23.3846 36.9836 22.9768 37.385Z" fill="#8B75F3"></path></g></svg>