<svg xmlns="http://www.w3.org/2000/svg" width="49" height="51" viewBox="0 0 49 51" fill="none"><g clip-path="url(#clip0_4506_23320)"><path d="M34.5286 36.336C36.3817 39.5915 38.2142 42.8102 40.0452 46.0253C31.937 52.3098 19.3221 53.0693 9.98349 45.8321C-0.763185 37.4972 -2.5295 23.2753 3.22411 13.0377C9.84158 1.26239 22.225 -1.3418 30.1983 0.567757C29.9826 1.04201 25.2073 11.0717 25.2073 11.0717C25.2073 11.0717 24.8297 11.0968 24.6162 11.101C22.2595 11.2021 20.5042 11.7573 18.6228 12.742C16.5587 13.8324 14.7899 15.4181 13.4708 17.3604C12.1518 19.3027 11.3227 21.5425 11.0561 23.8841C10.7779 26.2588 11.1023 28.6661 11.9985 30.8786C12.7563 32.7491 13.8282 34.4104 15.2652 35.8129C17.4696 37.9665 20.0929 39.3 23.1337 39.7415C26.0133 40.16 28.7826 39.7457 31.3776 38.4255C32.351 37.931 33.1791 37.3849 34.147 36.6359C34.2703 36.555 34.3798 36.4524 34.5286 36.336Z" fill="#AAAAAA"></path><path d="M34.5465 7.78416C34.0759 7.31549 33.6399 6.88309 33.2059 6.44789C32.9469 6.18845 32.6975 5.91855 32.4323 5.66538C32.3372 5.57402 32.2256 5.44918 32.2256 5.44918C32.2256 5.44918 32.3158 5.25529 32.3544 5.17579C32.8621 4.14429 33.6578 3.39038 34.6016 2.79059C35.6452 2.12231 36.8611 1.78228 38.0956 1.81349C39.6752 1.84488 41.1439 2.24311 42.3833 3.31575C43.2981 4.10733 43.7672 5.11162 43.8499 6.3105C43.9877 8.33304 43.161 9.88202 41.5194 10.963C40.5549 11.5991 39.5147 12.0908 38.4717 12.6731C37.8965 12.9946 37.4047 13.2771 36.8425 13.8587C36.3479 14.4425 36.3238 14.9928 36.3238 14.9928L43.7962 14.983V18.3523H32.2621C32.2621 18.3523 32.2621 18.1221 32.2621 18.0266C32.218 16.3709 32.4088 14.8128 33.1577 13.3092C33.8465 11.9297 34.9171 10.9198 36.2032 10.1422C37.1939 9.54307 38.2368 9.03325 39.2295 8.43695C39.8419 8.06941 40.2746 7.5303 40.2711 6.74848C40.2711 6.07756 39.7889 5.48126 39.1 5.29505C37.4756 4.85148 35.8223 5.55937 34.9625 7.06442C34.8372 7.28411 34.709 7.5024 34.5465 7.78416Z" fill="#AAAAAA"></path><path d="M49 32.7547L42.7029 21.7451H30.2416L23.9038 32.8684H36.4568L42.6512 43.8256L49 32.7547Z" fill="#AAAAAA"></path></g><defs><clipPath id="clip0_4506_23320"><rect width="49" height="51" fill="white"></rect></clipPath></defs></svg>