<svg xmlns="http://www.w3.org/2000/svg" width="508" height="301" viewBox="0 0 508 301" fill="none"><g style="mix-blend-mode:multiply" opacity="0.5"><path d="M376.893 165.911L223.99 93.0024L230.566 69.4453H164.594L13.8498 156.183C7.00712 160.121 1.99326 166.691 0.493208 174.354C0.472659 174.486 0.441836 174.607 0.421288 174.739C-1.67467 186.148 4.21251 197.547 14.4663 203.226L183.006 296.523C185.575 299.925 191.236 301.119 196.825 300.249V300.299L247.601 289.548L258.594 250.158L374.386 202.892C382.379 192.06 383.345 177.674 376.882 165.891L376.893 165.911Z" fill="#0B0B0B"></path></g><path d="M506.691 193.438L462.84 163.119L377.142 68.9205C370.248 61.338 359.552 58.3314 349.627 61.1862L139.98 121.441L89.3174 104.879V143.793H89.3277C89.2352 146.405 90.0982 149.088 92.0709 151.294L216.976 290.997C223.859 298.701 234.647 301.779 244.644 298.904L498.759 225.873C503.423 224.527 506.259 220.579 506.629 216.347L506.691 216.368V193.438Z" fill="#0B0B0B"></path><path d="M237.175 300.452C229.418 300.452 221.846 297.202 216.585 291.321L91.6909 151.618C89.7696 149.461 88.7422 146.718 88.8141 143.873C88.8141 143.843 88.8141 143.813 88.8141 143.782V104.868C88.8141 104.706 88.8963 104.554 89.0298 104.453C89.1634 104.362 89.3381 104.331 89.4922 104.382L140.001 120.893L349.494 60.6793C359.542 57.7942 370.546 60.8919 377.533 68.5655L463.189 162.723L506.999 193.012C507.133 193.103 507.215 193.265 507.215 193.427V216.357C507.215 216.458 507.184 216.559 507.133 216.64C506.629 221.257 503.434 225.053 498.923 226.349L244.809 299.379C242.302 300.098 239.744 300.452 237.206 300.452H237.175ZM89.8312 143.681C89.8312 143.681 89.8415 143.762 89.8415 143.802C89.749 146.424 90.684 148.965 92.4512 150.95L217.356 290.652C224.075 298.174 234.73 301.221 244.49 298.407L498.605 225.377C502.787 224.172 505.735 220.609 506.105 216.296C506.105 216.225 506.126 216.164 506.167 216.104V193.691L462.532 163.523C462.532 163.523 462.47 163.472 462.439 163.442L376.741 69.2437C370.022 61.8537 359.429 58.8774 349.751 61.6512L140.103 121.906C140.001 121.936 139.898 121.936 139.795 121.906L89.8107 105.566V143.681H89.8312Z" fill="#0B0B0B"></path><path d="M506.691 188.69L462.84 154.473L377.142 60.275C370.248 52.6925 359.552 49.6859 349.627 52.5407L139.98 112.795L89.3174 86.0491V135.148H89.3277C89.2352 137.759 90.0982 140.442 92.0709 142.649L216.976 282.352C223.859 290.056 234.647 293.133 244.644 290.258L498.759 217.228C503.423 215.882 506.259 211.933 506.629 207.702L506.691 207.722V188.68V188.69Z" fill="#D7FF65"></path><path d="M471.877 204.563V225.529L477.302 223.97V204.563H471.877Z" fill="#0B0B0B"></path><path d="M471.878 226.035C471.765 226.035 471.662 226.004 471.57 225.933C471.436 225.842 471.364 225.69 471.364 225.528V204.563C471.364 204.279 471.59 204.057 471.878 204.057H477.303C477.591 204.057 477.817 204.279 477.817 204.563V223.969C477.817 224.192 477.662 224.395 477.447 224.455L472.022 226.014C472.022 226.014 471.929 226.035 471.878 226.035ZM472.392 205.069V224.86L476.789 223.595V205.069H472.392Z" fill="#0B0B0B"></path><path d="M446.223 211.699V232.665L451.648 231.106V211.699H446.223Z" fill="#0B0B0B"></path><path d="M446.224 233.17C446.111 233.17 446.008 233.14 445.915 233.069C445.782 232.978 445.71 232.826 445.71 232.664V211.699C445.71 211.415 445.936 211.192 446.224 211.192H451.649C451.936 211.192 452.162 211.415 452.162 211.699V231.105C452.162 231.328 452.008 231.53 451.792 231.591L446.368 233.15C446.368 233.15 446.275 233.17 446.224 233.17ZM446.737 212.205V231.996L451.135 230.731V212.205H446.737Z" fill="#0B0B0B"></path><path d="M419.558 219.191V240.157L424.982 238.598V219.191H419.558Z" fill="#0B0B0B"></path><path d="M419.558 240.662C419.445 240.662 419.342 240.632 419.25 240.561C419.116 240.47 419.044 240.318 419.044 240.156V219.191C419.044 218.907 419.27 218.685 419.558 218.685H424.983C425.271 218.685 425.497 218.907 425.497 219.191V238.597C425.497 238.82 425.343 239.022 425.127 239.083L419.702 240.642C419.702 240.642 419.61 240.662 419.558 240.662ZM420.072 219.697V239.478L424.469 238.213V219.687H420.072V219.697Z" fill="#0B0B0B"></path><path d="M228.086 86.8885L137.98 112.784L87.3174 86.0381V135.137H87.3277C87.2352 137.748 88.0982 140.431 90.0709 142.638L214.976 282.341C218.52 286.309 223.113 289.042 228.086 290.369V86.8885Z" fill="#D7FF65"></path><path d="M161.943 224.059C161.234 224.059 160.546 223.705 160.166 223.057C159.591 222.095 159.919 220.85 160.906 220.283L168.067 216.163C169.043 215.596 170.307 215.92 170.882 216.892C171.457 217.853 171.129 219.099 170.142 219.665L162.981 223.786C162.652 223.978 162.303 224.059 161.943 224.059Z" fill="#0B0B0B"></path><path d="M377.133 10.2241L503.867 181.613C509.271 187.556 506.528 197.021 498.75 199.258L244.636 272.288C234.639 275.163 223.851 272.076 216.967 264.382L92.0722 92.5981C86.7399 86.6354 89.5139 77.2511 97.2505 75.0239L349.629 2.47969C359.543 -0.375109 370.249 2.64166 377.143 10.214L377.133 10.2241Z" fill="#E8E0F9"></path><path d="M237.175 273.847C229.418 273.847 221.846 270.598 216.586 264.716L91.6501 92.8917C89.061 90.0065 88.1568 86.0179 89.2665 82.2723C90.3658 78.5266 93.3043 75.6313 97.1058 74.538L349.484 1.9938C359.532 -0.89137 370.536 2.20639 377.523 9.87992L377.553 9.92041L504.287 181.309C506.907 184.195 507.842 188.183 506.753 191.959C505.664 195.735 502.725 198.641 498.903 199.734L244.789 272.764C242.282 273.483 239.724 273.837 237.186 273.837L237.175 273.847ZM357.077 1.94318C354.631 1.94318 352.176 2.27725 349.772 2.96564L97.3934 75.5098C93.931 76.5019 91.2597 79.134 90.2528 82.5557C89.2459 85.9673 90.0679 89.6016 92.4515 92.2641L217.387 264.088C224.076 271.57 234.73 274.617 244.491 271.802L498.605 198.772C502.088 197.77 504.76 195.128 505.756 191.686C506.753 188.254 505.9 184.61 503.486 181.947L376.732 10.5379C371.677 5.00044 364.454 1.94318 357.066 1.94318H357.077Z" fill="#0B0B0B"></path><path d="M403.15 214.848C402.883 215.85 401.157 216.275 399.287 215.799C397.417 215.313 396.122 214.119 396.389 213.106C396.657 212.104 398.383 211.679 400.253 212.155C402.122 212.631 403.417 213.835 403.15 214.848Z" fill="#0B0B0B"></path><path d="M400.777 216.497C400.263 216.497 399.718 216.426 399.153 216.285C396.975 215.728 395.547 214.27 395.886 212.974C396.061 212.306 396.667 211.81 397.592 211.577C398.403 211.375 399.39 211.405 400.376 211.658C401.362 211.911 402.236 212.367 402.842 212.924C403.53 213.561 403.818 214.29 403.633 214.958C403.376 215.92 402.225 216.477 400.766 216.477L400.777 216.497ZM398.742 212.468C398.424 212.468 398.116 212.498 397.849 212.569C397.314 212.701 396.965 212.944 396.893 213.237C396.729 213.865 397.777 214.888 399.421 215.313C401.064 215.738 402.493 215.353 402.657 214.726C402.739 214.432 402.554 214.047 402.153 213.683C401.671 213.237 400.931 212.863 400.129 212.66C399.667 212.539 399.194 212.478 398.753 212.478L398.742 212.468Z" fill="#0B0B0B"></path><path d="M385.21 219.809C384.943 220.811 383.217 221.236 381.347 220.76C379.477 220.274 378.183 219.08 378.45 218.067C378.717 217.065 380.443 216.64 382.313 217.116C384.183 217.602 385.478 218.796 385.21 219.809Z" fill="#0B0B0B"></path><path d="M382.857 221.459C382.333 221.459 381.779 221.388 381.224 221.246C379.046 220.689 377.617 219.231 377.956 217.936C378.296 216.64 380.268 216.063 382.446 216.63C383.433 216.883 384.306 217.338 384.912 217.895C385.601 218.533 385.888 219.262 385.703 219.93C385.529 220.608 384.922 221.094 383.998 221.327C383.638 221.418 383.258 221.459 382.847 221.459H382.857ZM380.823 217.43C379.816 217.43 379.066 217.753 378.953 218.199C378.789 218.827 379.837 219.849 381.481 220.274C382.292 220.487 383.124 220.517 383.761 220.355C384.296 220.224 384.645 219.981 384.717 219.687C384.799 219.393 384.614 219.009 384.214 218.644C383.731 218.199 383.001 217.824 382.189 217.622C381.707 217.5 381.244 217.44 380.823 217.44V217.43Z" fill="#0B0B0B"></path><path d="M366.281 224.758C366.014 225.76 364.288 226.185 362.418 225.709C360.548 225.223 359.254 224.029 359.521 223.017C359.788 222.014 361.514 221.589 363.384 222.065C365.254 222.541 366.548 223.745 366.281 224.758Z" fill="#0B0B0B"></path><path d="M363.908 226.408C363.394 226.408 362.85 226.337 362.285 226.196C360.107 225.639 358.678 224.181 359.017 222.885C359.192 222.217 359.798 221.721 360.723 221.488C361.535 221.286 362.521 221.316 363.507 221.569C364.494 221.822 365.367 222.278 365.973 222.835C366.662 223.473 366.949 224.201 366.764 224.87C366.507 225.831 365.357 226.388 363.898 226.388L363.908 226.408ZM361.874 222.379C361.555 222.379 361.247 222.41 360.98 222.48C360.446 222.612 360.096 222.855 360.024 223.149C359.86 223.776 360.908 224.799 362.552 225.224C364.196 225.649 365.624 225.264 365.788 224.637C365.87 224.343 365.686 223.958 365.285 223.594C364.802 223.149 364.072 222.774 363.261 222.572C362.798 222.45 362.326 222.389 361.884 222.389L361.874 222.379Z" fill="#0B0B0B"></path><path d="M348.344 229.718C348.077 230.72 346.351 231.145 344.481 230.669C342.611 230.183 341.316 228.989 341.583 227.977C341.85 226.974 343.576 226.549 345.446 227.025C347.316 227.511 348.611 228.705 348.344 229.718Z" fill="#0B0B0B"></path><path d="M345.991 231.368C345.467 231.368 344.912 231.297 344.357 231.155C342.179 230.598 340.751 229.141 341.09 227.845C341.429 226.549 343.401 225.972 345.58 226.539C347.758 227.096 349.186 228.554 348.847 229.849C348.672 230.517 348.066 231.013 347.141 231.246C346.782 231.337 346.402 231.378 345.991 231.378V231.368ZM343.956 227.339C342.949 227.339 342.199 227.663 342.086 228.108C341.922 228.736 342.97 229.758 344.614 230.183C345.426 230.396 346.258 230.426 346.895 230.264C347.429 230.133 347.778 229.89 347.85 229.596C348.015 228.969 346.967 227.946 345.323 227.521C344.84 227.399 344.378 227.339 343.956 227.339Z" fill="#0B0B0B"></path><path d="M330.415 234.669C330.147 235.671 328.421 236.096 326.551 235.621C324.681 235.145 323.387 233.94 323.654 232.928C323.921 231.926 325.647 231.5 327.517 231.976C329.387 232.452 330.682 233.657 330.415 234.669Z" fill="#0B0B0B"></path><path d="M328.051 236.319C327.527 236.319 326.973 236.248 326.418 236.107C325.431 235.853 324.558 235.398 323.952 234.841C323.264 234.203 322.976 233.474 323.161 232.806C323.335 232.138 323.942 231.642 324.866 231.409C325.678 231.207 326.664 231.237 327.651 231.49C328.637 231.743 329.51 232.199 330.116 232.756C330.805 233.393 331.093 234.122 330.908 234.79C330.733 235.459 330.127 235.955 329.202 236.187C328.842 236.279 328.462 236.319 328.051 236.319ZM326.007 232.29C325.688 232.29 325.38 232.32 325.113 232.391C324.579 232.523 324.229 232.766 324.157 233.059C324.075 233.353 324.26 233.738 324.661 234.102C325.144 234.548 325.873 234.922 326.685 235.125C327.497 235.337 328.329 235.368 328.966 235.206C329.5 235.074 329.849 234.831 329.921 234.537C330.003 234.244 329.819 233.859 329.418 233.495C328.935 233.049 328.205 232.675 327.394 232.472C326.931 232.351 326.459 232.29 326.017 232.29H326.007Z" fill="#0B0B0B"></path><path d="M312.476 239.631C312.208 240.633 310.482 241.058 308.612 240.582C306.743 240.097 305.448 238.902 305.715 237.89C305.982 236.887 307.708 236.462 309.578 236.938C311.448 237.424 312.743 238.619 312.476 239.631Z" fill="#0B0B0B"></path><path d="M310.113 241.28C309.6 241.28 309.055 241.209 308.49 241.067C307.504 240.814 306.63 240.359 306.024 239.802C305.336 239.164 305.048 238.435 305.233 237.767C305.408 237.099 306.014 236.603 306.939 236.37C307.75 236.168 308.737 236.198 309.723 236.451C311.901 237.008 313.329 238.466 312.99 239.762C312.733 240.723 311.583 241.28 310.124 241.28H310.113ZM308.079 237.251C307.761 237.251 307.452 237.281 307.185 237.352C306.651 237.484 306.302 237.727 306.23 238.02C306.147 238.314 306.332 238.699 306.733 239.063C307.216 239.508 307.945 239.883 308.757 240.085C310.411 240.511 311.829 240.126 311.994 239.498C312.158 238.871 311.11 237.848 309.466 237.423C309.004 237.302 308.531 237.241 308.089 237.241L308.079 237.251Z" fill="#0B0B0B"></path><path d="M293.547 244.578C293.28 245.58 291.554 246.006 289.684 245.53C287.814 245.054 286.52 243.849 286.787 242.837C287.054 241.835 288.78 241.41 290.65 241.885C292.52 242.371 293.814 243.566 293.547 244.578Z" fill="#0B0B0B"></path><path d="M291.184 246.228C290.66 246.228 290.105 246.158 289.551 246.016C288.564 245.763 287.691 245.307 287.085 244.75C286.396 244.113 286.109 243.384 286.294 242.716C286.633 241.42 288.605 240.853 290.783 241.41C291.77 241.663 292.643 242.118 293.249 242.675C293.938 243.313 294.225 244.042 294.04 244.71C293.866 245.378 293.26 245.874 292.335 246.107C291.975 246.198 291.595 246.238 291.184 246.238V246.228ZM289.15 242.199C288.143 242.199 287.393 242.523 287.28 242.969C287.198 243.262 287.383 243.647 287.783 244.011C288.266 244.457 288.996 244.831 289.807 245.034C290.619 245.246 291.451 245.277 292.088 245.115C292.623 244.983 292.972 244.74 293.044 244.447C293.126 244.153 292.941 243.768 292.54 243.404C292.057 242.959 291.328 242.584 290.516 242.381C290.033 242.26 289.571 242.199 289.15 242.199Z" fill="#0B0B0B"></path><path d="M275.609 249.539C275.342 250.541 273.616 250.966 271.746 250.491C269.876 250.005 268.581 248.81 268.848 247.798C269.116 246.796 270.842 246.37 272.712 246.846C274.581 247.332 275.876 248.527 275.609 249.539Z" fill="#0B0B0B"></path><path d="M273.245 251.19C272.731 251.19 272.187 251.119 271.622 250.977C269.443 250.42 268.015 248.962 268.354 247.667C268.529 246.998 269.135 246.502 270.06 246.27C270.872 246.067 271.858 246.098 272.844 246.351C273.831 246.604 274.704 247.059 275.31 247.616C275.998 248.254 276.286 248.983 276.101 249.651C275.844 250.613 274.694 251.169 273.235 251.169L273.245 251.19ZM271.211 247.16C270.892 247.16 270.584 247.191 270.317 247.262C269.783 247.393 269.433 247.636 269.361 247.93C269.197 248.557 270.245 249.58 271.889 250.005C273.533 250.43 274.961 250.046 275.125 249.418C275.207 249.124 275.022 248.74 274.622 248.375C274.139 247.93 273.409 247.555 272.598 247.353C272.135 247.231 271.663 247.171 271.221 247.171L271.211 247.16Z" fill="#0B0B0B"></path><path d="M396.574 206.384C396.307 207.386 394.581 207.811 392.711 207.335C390.841 206.86 389.546 205.655 389.813 204.643C390.08 203.64 391.806 203.215 393.676 203.691C395.546 204.167 396.841 205.371 396.574 206.384Z" fill="#0B0B0B"></path><path d="M394.222 208.034C393.698 208.034 393.143 207.963 392.588 207.821C391.602 207.568 390.729 207.113 390.122 206.556C389.434 205.918 389.146 205.189 389.331 204.521C389.506 203.853 390.112 203.357 391.037 203.124C391.848 202.922 392.835 202.952 393.821 203.205C394.807 203.458 395.681 203.914 396.287 204.471C396.975 205.108 397.263 205.837 397.078 206.505C396.903 207.184 396.297 207.67 395.372 207.902C395.013 207.993 394.633 208.034 394.222 208.034ZM392.177 204.005C391.859 204.005 391.55 204.035 391.283 204.106C390.749 204.238 390.4 204.481 390.328 204.774C390.246 205.068 390.431 205.452 390.831 205.817C391.314 206.262 392.044 206.637 392.855 206.839C393.667 207.052 394.499 207.082 395.136 206.92C395.67 206.789 396.02 206.546 396.092 206.252C396.174 205.959 395.989 205.574 395.588 205.21C395.105 204.764 394.376 204.39 393.564 204.187C393.102 204.066 392.629 204.005 392.187 204.005H392.177Z" fill="#0B0B0B"></path><path d="M378.636 211.335C378.369 212.337 376.643 212.762 374.773 212.287C372.903 211.801 371.609 210.606 371.876 209.594C372.143 208.592 373.869 208.166 375.739 208.642C377.609 209.128 378.903 210.323 378.636 211.335Z" fill="#0B0B0B"></path><path d="M376.283 212.995C375.759 212.995 375.204 212.924 374.649 212.782C372.471 212.225 371.043 210.768 371.382 209.472C371.721 208.176 373.694 207.599 375.872 208.166C378.05 208.723 379.478 210.18 379.139 211.476C378.965 212.144 378.359 212.64 377.434 212.873C377.085 212.964 376.694 213.005 376.283 213.005V212.995ZM374.249 208.966C373.242 208.966 372.492 209.29 372.379 209.735C372.214 210.363 373.262 211.385 374.906 211.81C375.718 212.023 376.55 212.053 377.187 211.891C377.722 211.76 378.071 211.517 378.143 211.223C378.307 210.596 377.259 209.573 375.615 209.148C375.132 209.026 374.67 208.966 374.249 208.966Z" fill="#0B0B0B"></path><path d="M359.707 216.295C359.439 217.297 357.713 217.722 355.843 217.247C353.973 216.771 352.679 215.566 352.946 214.554C353.213 213.551 354.939 213.126 356.809 213.602C358.679 214.078 359.974 215.283 359.707 216.295Z" fill="#0B0B0B"></path><path d="M357.355 217.945C356.831 217.945 356.276 217.874 355.721 217.732C354.735 217.479 353.861 217.024 353.255 216.467C352.567 215.829 352.279 215.1 352.464 214.432C352.639 213.764 353.245 213.268 354.17 213.035C354.981 212.833 355.968 212.863 356.954 213.116C357.94 213.369 358.814 213.825 359.42 214.382C360.108 215.019 360.396 215.748 360.211 216.416C360.036 217.085 359.43 217.581 358.505 217.813C358.156 217.905 357.766 217.945 357.355 217.945ZM355.31 213.916C354.992 213.916 354.683 213.946 354.416 214.017C353.882 214.149 353.533 214.392 353.461 214.685C353.378 214.979 353.563 215.364 353.964 215.728C354.447 216.173 355.176 216.548 355.988 216.751C356.8 216.963 357.632 216.993 358.269 216.832C358.803 216.7 359.153 216.457 359.225 216.163C359.307 215.87 359.122 215.485 358.721 215.121C358.238 214.675 357.509 214.301 356.697 214.098C356.235 213.977 355.762 213.916 355.32 213.916H355.31Z" fill="#0B0B0B"></path><path d="M341.769 221.245C341.502 222.247 339.776 222.673 337.906 222.197C336.036 221.711 334.741 220.516 335.009 219.504C335.276 218.502 337.002 218.077 338.872 218.552C340.742 219.038 342.036 220.233 341.769 221.245Z" fill="#0B0B0B"></path><path d="M339.406 222.896C338.892 222.896 338.347 222.825 337.782 222.683C335.604 222.126 334.176 220.668 334.515 219.373C334.69 218.705 335.296 218.208 336.221 217.976C337.032 217.773 338.019 217.804 339.005 218.057C341.183 218.613 342.611 220.071 342.272 221.367C342.015 222.329 340.865 222.886 339.406 222.886V222.896ZM337.371 218.867C337.053 218.867 336.745 218.897 336.477 218.968C335.943 219.099 335.594 219.342 335.522 219.636C335.358 220.264 336.406 221.286 338.049 221.711C339.704 222.136 341.121 221.752 341.286 221.124C341.45 220.496 340.402 219.474 338.758 219.049C338.296 218.927 337.823 218.867 337.382 218.867H337.371Z" fill="#0B0B0B"></path><path d="M323.84 226.207C323.573 227.209 321.847 227.634 319.977 227.159C318.107 226.683 316.812 225.478 317.079 224.466C317.346 223.464 319.073 223.038 320.942 223.514C322.812 223.99 324.107 225.195 323.84 226.207Z" fill="#0B0B0B"></path><path d="M321.477 227.856C320.953 227.856 320.398 227.785 319.843 227.644C318.857 227.391 317.983 226.935 317.377 226.378C316.689 225.74 316.401 225.012 316.586 224.343C316.761 223.665 317.367 223.179 318.292 222.946C319.103 222.744 320.09 222.774 321.076 223.027C322.062 223.28 322.936 223.736 323.542 224.293C324.23 224.931 324.518 225.659 324.333 226.328C324.158 226.996 323.552 227.492 322.627 227.725C322.278 227.816 321.888 227.856 321.477 227.856ZM319.432 223.827C319.114 223.827 318.805 223.857 318.538 223.928C318.004 224.06 317.655 224.303 317.583 224.596C317.5 224.89 317.685 225.275 318.086 225.639C318.569 226.085 319.309 226.459 320.11 226.662C320.922 226.874 321.744 226.905 322.391 226.743C322.925 226.611 323.275 226.368 323.347 226.074C323.429 225.781 323.244 225.396 322.843 225.032C322.36 224.586 321.631 224.212 320.819 224.009C320.357 223.888 319.884 223.827 319.442 223.827H319.432Z" fill="#0B0B0B"></path><path d="M305.901 231.156C305.634 232.158 303.908 232.584 302.038 232.108C300.168 231.622 298.873 230.427 299.14 229.415C299.408 228.413 301.134 227.988 303.004 228.463C304.873 228.939 306.168 230.144 305.901 231.156Z" fill="#0B0B0B"></path><path d="M303.537 232.807C303.024 232.807 302.479 232.736 301.914 232.594C299.736 232.037 298.308 230.58 298.647 229.284C298.822 228.616 299.428 228.12 300.352 227.887C301.164 227.684 302.15 227.715 303.137 227.968C305.315 228.525 306.743 229.982 306.404 231.278C306.147 232.24 304.996 232.797 303.537 232.797V232.807ZM301.503 228.778C301.185 228.778 300.876 228.808 300.609 228.879C300.075 229.01 299.726 229.253 299.654 229.547C299.489 230.175 300.537 231.197 302.181 231.622C303.825 232.048 305.253 231.663 305.418 231.035C305.582 230.408 304.534 229.385 302.89 228.96C302.428 228.838 301.955 228.778 301.513 228.778H301.503Z" fill="#0B0B0B"></path><path d="M286.973 236.116C286.706 237.118 284.98 237.544 283.11 237.068C281.24 236.582 279.946 235.387 280.213 234.375C280.48 233.373 282.206 232.948 284.076 233.423C285.946 233.909 287.24 235.104 286.973 236.116Z" fill="#0B0B0B"></path><path d="M284.61 237.766C284.086 237.766 283.531 237.695 282.976 237.553C281.99 237.3 281.117 236.845 280.51 236.288C279.822 235.65 279.534 234.921 279.719 234.253C280.058 232.957 282.031 232.38 284.209 232.947C286.387 233.504 287.816 234.962 287.476 236.258C287.302 236.926 286.696 237.422 285.771 237.655C285.422 237.746 285.031 237.786 284.62 237.786L284.61 237.766ZM282.576 233.737C281.569 233.737 280.819 234.061 280.706 234.506C280.624 234.8 280.808 235.184 281.209 235.549C281.692 235.994 282.422 236.369 283.233 236.571C284.045 236.784 284.867 236.814 285.514 236.652C286.048 236.521 286.398 236.278 286.47 235.984C286.634 235.357 285.586 234.334 283.942 233.909C283.459 233.787 282.997 233.727 282.576 233.727V233.737Z" fill="#0B0B0B"></path><path d="M269.032 241.066C268.765 242.069 267.039 242.494 265.169 242.018C263.299 241.542 262.005 240.338 262.272 239.325C262.539 238.323 264.265 237.898 266.135 238.374C268.005 238.849 269.299 240.054 269.032 241.066Z" fill="#0B0B0B"></path><path d="M266.68 242.717C266.156 242.717 265.601 242.646 265.047 242.504C264.06 242.251 263.187 241.795 262.581 241.239C261.892 240.601 261.605 239.872 261.79 239.204C261.964 238.536 262.571 238.04 263.495 237.807C264.307 237.604 265.293 237.635 266.28 237.888C267.266 238.141 268.139 238.596 268.745 239.153C269.434 239.791 269.721 240.52 269.537 241.188C269.362 241.856 268.756 242.352 267.831 242.585C267.482 242.676 267.091 242.717 266.68 242.717ZM264.636 238.687C264.317 238.687 264.009 238.718 263.742 238.789C263.208 238.92 262.858 239.163 262.786 239.457C262.704 239.75 262.889 240.135 263.29 240.5C263.773 240.945 264.502 241.32 265.314 241.522C266.125 241.735 266.958 241.765 267.595 241.603C268.129 241.471 268.478 241.228 268.55 240.935C268.632 240.641 268.447 240.257 268.047 239.892C267.564 239.447 266.834 239.072 266.023 238.87C265.56 238.748 265.088 238.687 264.646 238.687H264.636Z" fill="#0B0B0B"></path><path d="M389.166 197.06C388.899 198.062 387.173 198.487 385.303 198.011C383.433 197.535 382.139 196.331 382.406 195.318C382.673 194.316 384.399 193.891 386.269 194.367C388.139 194.843 389.434 196.047 389.166 197.06Z" fill="#0B0B0B"></path><path d="M386.815 198.72C386.291 198.72 385.736 198.65 385.181 198.508C384.195 198.255 383.321 197.799 382.715 197.242C382.027 196.605 381.739 195.876 381.924 195.208C382.099 194.529 382.705 194.043 383.63 193.811C384.441 193.608 385.428 193.639 386.414 193.892C387.4 194.145 388.273 194.6 388.88 195.157C389.568 195.795 389.856 196.524 389.671 197.192C389.496 197.86 388.89 198.356 387.965 198.589C387.606 198.68 387.226 198.72 386.815 198.72ZM384.77 194.691C384.451 194.691 384.143 194.722 383.876 194.793C383.342 194.924 382.992 195.167 382.921 195.461C382.838 195.754 383.023 196.139 383.424 196.503C383.907 196.949 384.636 197.323 385.448 197.526C386.26 197.738 387.092 197.769 387.729 197.607C388.263 197.475 388.613 197.232 388.684 196.939C388.767 196.645 388.582 196.26 388.181 195.896C387.698 195.451 386.969 195.076 386.157 194.874C385.695 194.752 385.222 194.691 384.78 194.691H384.77Z" fill="#0B0B0B"></path><path d="M371.239 202.021C370.972 203.023 369.246 203.448 367.376 202.972C365.506 202.486 364.211 201.292 364.478 200.279C364.745 199.277 366.471 198.852 368.341 199.328C370.211 199.814 371.506 201.008 371.239 202.021Z" fill="#0B0B0B"></path><path d="M368.866 203.672C368.352 203.672 367.807 203.601 367.242 203.459C365.064 202.902 363.636 201.444 363.975 200.149C364.314 198.853 366.287 198.276 368.465 198.843C370.643 199.399 372.071 200.857 371.732 202.153C371.475 203.115 370.325 203.672 368.866 203.672ZM366.842 199.642C365.835 199.642 365.085 199.966 364.972 200.412C364.807 201.039 365.855 202.062 367.499 202.487C369.153 202.912 370.571 202.528 370.736 201.9C370.9 201.272 369.852 200.25 368.208 199.825C367.725 199.703 367.263 199.642 366.842 199.642Z" fill="#0B0B0B"></path><path d="M352.301 206.971C352.034 207.973 350.308 208.398 348.438 207.922C346.568 207.436 345.273 206.242 345.54 205.229C345.807 204.227 347.534 203.802 349.403 204.278C351.273 204.764 352.568 205.958 352.301 206.971Z" fill="#0B0B0B"></path><path d="M349.948 208.631C349.424 208.631 348.869 208.56 348.314 208.418C346.136 207.861 344.708 206.403 345.047 205.108C345.386 203.812 347.359 203.235 349.537 203.802C351.715 204.358 353.143 205.816 352.804 207.112C352.629 207.78 352.023 208.276 351.098 208.509C350.749 208.6 350.359 208.641 349.948 208.641V208.631ZM347.913 204.601C346.906 204.601 346.156 204.925 346.043 205.371C345.879 205.998 346.927 207.021 348.571 207.446C349.383 207.659 350.215 207.689 350.852 207.527C351.386 207.395 351.735 207.153 351.807 206.859C351.972 206.231 350.924 205.209 349.28 204.784C348.797 204.662 348.335 204.601 347.913 204.601Z" fill="#0B0B0B"></path><path d="M334.372 211.932C334.104 212.934 332.378 213.359 330.508 212.883C328.638 212.397 327.344 211.203 327.611 210.19C327.878 209.188 329.604 208.763 331.474 209.239C333.344 209.715 334.639 210.919 334.372 211.932Z" fill="#0B0B0B"></path><path d="M331.998 213.582C331.485 213.582 330.94 213.511 330.375 213.37C328.197 212.813 326.769 211.355 327.108 210.059C327.282 209.391 327.889 208.895 328.813 208.662C329.625 208.46 330.611 208.49 331.598 208.743C332.584 208.996 333.457 209.452 334.064 210.009C334.752 210.646 335.04 211.375 334.855 212.043C334.598 213.005 333.447 213.562 331.988 213.562L331.998 213.582ZM329.964 209.553C329.646 209.553 329.337 209.583 329.07 209.654C328.536 209.786 328.187 210.029 328.115 210.322C327.95 210.95 328.998 211.973 330.642 212.398C332.296 212.823 333.714 212.438 333.879 211.811C333.961 211.517 333.776 211.132 333.375 210.768C332.892 210.322 332.163 209.948 331.351 209.745C330.889 209.624 330.416 209.563 329.974 209.563L329.964 209.553Z" fill="#0B0B0B"></path><path d="M316.433 216.882C316.166 217.884 314.44 218.309 312.57 217.833C310.7 217.348 309.405 216.153 309.673 215.141C309.94 214.138 311.666 213.713 313.536 214.189C315.406 214.675 316.7 215.87 316.433 216.882Z" fill="#0B0B0B"></path><path d="M314.079 218.542C313.555 218.542 313.001 218.471 312.446 218.329C310.268 217.772 308.84 216.314 309.179 215.019C309.518 213.723 311.49 213.146 313.669 213.713C315.847 214.27 317.275 215.727 316.936 217.023C316.761 217.691 316.155 218.187 315.23 218.42C314.881 218.511 314.49 218.552 314.079 218.552V218.542ZM312.045 214.513C311.038 214.513 310.288 214.836 310.175 215.282C310.011 215.91 311.059 216.932 312.703 217.357C313.514 217.57 314.347 217.6 314.984 217.438C315.518 217.307 315.867 217.064 315.939 216.77C316.104 216.142 315.056 215.12 313.412 214.695C312.929 214.573 312.466 214.513 312.045 214.513Z" fill="#0B0B0B"></path><path d="M298.503 221.844C298.236 222.846 296.51 223.271 294.64 222.795C292.77 222.319 291.475 221.115 291.742 220.102C292.01 219.09 293.736 218.675 295.606 219.151C297.475 219.626 298.77 220.831 298.503 221.844Z" fill="#0B0B0B"></path><path d="M296.14 223.493C295.616 223.493 295.061 223.422 294.506 223.28C293.52 223.027 292.646 222.572 292.04 222.015C291.352 221.377 291.064 220.648 291.249 219.98C291.424 219.312 292.03 218.816 292.955 218.583C293.766 218.381 294.753 218.411 295.739 218.664C296.725 218.917 297.599 219.373 298.205 219.929C298.893 220.567 299.181 221.296 298.996 221.964C298.821 222.632 298.215 223.128 297.29 223.361C296.941 223.452 296.551 223.493 296.14 223.493ZM294.095 219.464C293.777 219.464 293.468 219.494 293.201 219.565C292.667 219.697 292.318 219.94 292.246 220.233C292.164 220.527 292.349 220.911 292.749 221.276C293.232 221.721 293.962 222.096 294.773 222.298C295.585 222.511 296.417 222.541 297.054 222.379C297.588 222.248 297.938 222.005 298.01 221.711C298.092 221.418 297.907 221.033 297.506 220.668C297.023 220.223 296.284 219.849 295.482 219.646C295.02 219.525 294.547 219.464 294.105 219.464H294.095Z" fill="#0B0B0B"></path><path d="M279.565 226.793C279.298 227.795 277.572 228.22 275.702 227.745C273.832 227.259 272.538 226.064 272.805 225.052C273.072 224.05 274.798 223.624 276.668 224.1C278.538 224.586 279.833 225.781 279.565 226.793Z" fill="#0B0B0B"></path><path d="M277.202 228.443C276.688 228.443 276.144 228.372 275.579 228.23C273.401 227.674 271.972 226.216 272.311 224.92C272.65 223.624 274.623 223.047 276.801 223.614C278.979 224.171 280.408 225.629 280.069 226.925C279.812 227.886 278.661 228.443 277.202 228.443ZM275.178 224.414C274.171 224.414 273.421 224.738 273.308 225.183C273.144 225.811 274.192 226.833 275.836 227.259C277.479 227.684 278.908 227.299 279.072 226.671C279.236 226.044 278.188 225.021 276.544 224.596C276.062 224.475 275.599 224.414 275.178 224.414Z" fill="#0B0B0B"></path><path d="M261.636 231.753C261.369 232.755 259.643 233.18 257.773 232.705C255.903 232.229 254.609 231.024 254.876 230.012C255.143 229.009 256.869 228.584 258.739 229.06C260.609 229.536 261.903 230.741 261.636 231.753Z" fill="#0B0B0B"></path><path d="M259.273 233.403C258.749 233.403 258.194 233.332 257.639 233.19C256.653 232.937 255.78 232.482 255.174 231.925C254.485 231.287 254.198 230.558 254.382 229.89C254.557 229.212 255.163 228.726 256.088 228.493C256.9 228.291 257.886 228.321 258.872 228.574C259.859 228.827 260.732 229.283 261.338 229.84C262.027 230.477 262.314 231.206 262.129 231.874C261.955 232.553 261.348 233.039 260.424 233.271C260.074 233.363 259.684 233.403 259.273 233.403ZM257.218 229.374C256.9 229.374 256.591 229.404 256.324 229.475C255.79 229.607 255.441 229.85 255.369 230.143C255.287 230.437 255.472 230.822 255.872 231.186C256.355 231.631 257.085 232.006 257.896 232.209C258.708 232.421 259.54 232.451 260.177 232.29C260.711 232.158 261.061 231.915 261.133 231.621C261.215 231.328 261.03 230.943 260.629 230.579C260.146 230.133 259.417 229.759 258.605 229.556C258.143 229.435 257.67 229.374 257.228 229.374H257.218Z" fill="#0B0B0B"></path><path d="M360.906 22.7244L392.787 65.6577C397.411 71.8229 394.38 80.6403 386.91 82.7663L168.458 144.914C163.948 146.199 159.098 144.559 156.334 140.814L124.854 97.7691C120.292 91.604 123.343 82.8472 130.782 80.7315L348.834 18.7054C353.313 17.4299 358.132 19.0395 360.906 22.7346V22.7244Z" fill="#0B0B0B"></path><path d="M165.385 145.846C161.707 145.846 158.152 144.135 155.923 141.119L124.442 98.0739C122.172 94.9964 121.586 91.1698 122.839 87.576C124.093 83.9822 126.939 81.3096 130.648 80.2568L348.689 18.2105C353.354 16.8843 358.429 18.5749 361.316 22.4218L393.198 65.3551C395.499 68.4225 396.115 72.2694 394.872 75.8834C393.629 79.5076 390.773 82.1903 387.054 83.2533L168.601 145.401C167.543 145.704 166.454 145.846 165.385 145.846ZM351.905 18.7774C350.929 18.7774 349.943 18.909 348.977 19.1823L130.936 81.2185C127.555 82.1802 124.956 84.6098 123.815 87.8999C122.675 91.1799 123.209 94.6725 125.274 97.4766L156.755 140.521C159.385 144.075 164.029 145.654 168.324 144.429L386.776 82.2814C390.177 81.3096 392.776 78.8699 393.907 75.5595C395.037 72.2492 394.482 68.7566 392.386 65.9524L360.505 23.0191C358.47 20.306 355.244 18.7673 351.915 18.7673L351.905 18.7774Z" fill="#0B0B0B"></path><path d="M357.721 29.0523L387.033 68.0881C391.523 74.0711 388.585 82.6253 381.331 84.6804L169.434 144.965C165.057 146.21 160.351 144.621 157.67 140.997L128.758 101.85C124.34 95.8667 127.289 87.3732 134.511 85.3181L346.018 25.1447C350.364 23.9097 355.039 25.4687 357.731 29.0523H357.721Z" fill="#0B0B0B"></path><path d="M166.454 145.887C162.889 145.887 159.427 144.227 157.269 141.291L128.357 102.144C126.148 99.1576 125.583 95.4423 126.796 91.9396C128.008 88.447 130.772 85.8554 134.378 84.8229L345.875 24.6595C350.406 23.3739 355.337 25.0139 358.142 28.7494L387.455 67.7852C389.695 70.7716 390.291 74.497 389.078 78.0199C387.866 81.5328 385.102 84.1446 381.485 85.1772L169.588 145.462C168.561 145.756 167.502 145.897 166.465 145.897L166.454 145.887ZM348.998 25.2366C348.053 25.2366 347.097 25.3682 346.162 25.6314L134.666 85.8048C131.388 86.7362 128.871 89.0949 127.772 92.2737C126.662 95.4524 127.186 98.8336 129.189 101.547L158.101 140.694C160.649 144.136 165.15 145.654 169.3 144.48L381.198 84.1952C384.486 83.2639 387.013 80.8849 388.102 77.6859C389.201 74.4869 388.657 71.0955 386.623 68.3825L357.31 29.3467C355.337 26.7247 352.214 25.2265 348.998 25.2265V25.2366Z" fill="#0B0B0B"></path><path d="M285.111 143.914L285.132 143.934C287.793 147.477 286.046 152.539 281.752 153.764L244.887 164.252C240.829 165.406 236.483 163.938 233.997 160.567C231.377 157.023 233.134 151.992 237.408 150.777L274.272 140.29C278.3 139.146 282.625 140.583 285.122 143.904L285.111 143.914Z" fill="#0B0B0B"></path><path d="M242.124 165.152C238.805 165.152 235.59 163.603 233.586 160.88C232.24 159.058 231.891 156.79 232.631 154.654C233.37 152.518 235.066 150.939 237.264 150.311L274.128 139.824C278.341 138.629 282.923 140.158 285.533 143.63L285.554 143.65C286.92 145.472 287.28 147.75 286.55 149.896C285.81 152.042 284.125 153.632 281.906 154.27L245.042 164.757C244.086 165.031 243.1 165.162 242.134 165.162L242.124 165.152ZM277.026 140.421C276.153 140.421 275.269 140.542 274.406 140.785L237.542 151.273C235.672 151.81 234.233 153.156 233.596 154.968C232.959 156.79 233.257 158.724 234.408 160.273C236.761 163.452 240.912 164.859 244.744 163.765L281.608 153.278C283.488 152.741 284.927 151.384 285.564 149.552C286.191 147.72 285.882 145.786 284.721 144.227L284.701 144.207C282.882 141.787 279.995 140.411 277.026 140.411V140.421Z" fill="#0B0B0B"></path><path d="M281.709 145.432L282.819 146.91C284.781 149.532 283.497 153.278 280.322 154.179L246.294 163.857C243.099 164.768 239.667 163.604 237.705 160.951L236.626 159.483C234.694 156.861 235.989 153.136 239.143 152.245L273.161 142.567C276.336 141.666 279.747 142.8 281.709 145.422V145.432Z" fill="#0B0B0B"></path><path d="M244.117 164.676C241.466 164.676 238.897 163.441 237.295 161.264L236.216 159.797C235.188 158.41 234.932 156.689 235.497 155.069C236.062 153.449 237.346 152.245 239.01 151.769L273.029 142.091C276.388 141.139 280.056 142.354 282.132 145.128L283.241 146.606C284.279 147.993 284.556 149.714 283.991 151.354C283.437 152.984 282.152 154.188 280.467 154.674L246.439 164.352C245.668 164.575 244.887 164.676 244.117 164.676ZM275.34 142.779C274.662 142.779 273.974 142.87 273.306 143.063L239.288 152.741C237.942 153.125 236.914 154.087 236.462 155.393C236.01 156.699 236.216 158.086 237.048 159.199L238.127 160.667C239.956 163.137 243.182 164.231 246.161 163.38L280.19 153.702C281.536 153.318 282.574 152.346 283.026 151.03C283.478 149.714 283.252 148.327 282.419 147.213L281.31 145.735C279.892 143.852 277.652 142.789 275.351 142.789L275.34 142.779Z" fill="#0B0B0B"></path><g style="mix-blend-mode:multiply" opacity="0.5"><path d="M276.316 148.114L263.741 142.111L264.285 140.178H258.86L246.459 147.315C245.894 147.639 245.483 148.175 245.36 148.813C245.36 148.823 245.36 148.833 245.36 148.843C245.185 149.785 245.668 150.716 246.51 151.192L260.381 158.866C260.597 159.149 261.059 159.24 261.521 159.169L265.703 158.288L266.607 155.049L276.131 151.162C276.789 150.271 276.871 149.086 276.337 148.114H276.316Z" fill="#0B0B0B"></path></g><path d="M282.183 143.751L256.528 142.283L256.559 149.926C256.487 150.645 256.661 151.394 257.144 152.042L261.1 157.397C261.87 158.44 263.206 158.896 264.47 158.551L279.881 154.32C281.289 153.935 282.131 152.69 282.152 151.394L282.183 143.751Z" fill="#FF8FC1"></path><path d="M263.638 159.168C262.487 159.168 261.377 158.632 260.689 157.69L256.733 152.335C256.209 151.627 255.963 150.746 256.055 149.875L256.024 141.746L282.707 143.275L282.676 151.394C282.645 153.013 281.587 154.38 280.035 154.805L264.624 159.037C264.306 159.128 263.977 159.168 263.658 159.168H263.638ZM257.052 142.819L257.083 149.926C257.011 150.614 257.185 151.222 257.566 151.748L261.521 157.103C262.158 157.964 263.288 158.348 264.336 158.065L279.748 153.833C280.857 153.53 281.618 152.548 281.638 151.384L281.669 144.226L257.052 142.819Z" fill="#0B0B0B"></path><path d="M263.082 142.656L256.538 142.281L256.568 149.924C256.496 150.643 256.671 151.392 257.154 152.04L261.11 157.395C261.593 158.053 262.312 158.479 263.093 158.61V142.656H263.082Z" fill="#0B0B0B"></path><path d="M263.597 159.219L262.99 159.117C262.055 158.955 261.244 158.449 260.689 157.7L256.733 152.345C256.209 151.636 255.963 150.756 256.055 149.885L256.024 141.756L263.607 142.191V159.229L263.597 159.219ZM257.052 142.819L257.083 149.925C257.011 150.614 257.185 151.221 257.566 151.748L261.521 157.103C261.799 157.467 262.158 157.761 262.569 157.943V143.143L257.052 142.829V142.819Z" fill="#0B0B0B"></path><path d="M277.551 136.502L281.558 141.847C282.863 143.578 282 146.069 279.884 146.646L264.472 150.877C263.219 151.222 261.873 150.766 261.102 149.723L257.147 144.368C255.862 142.627 256.736 140.167 258.832 139.59L274.192 135.368C275.445 135.024 276.771 135.48 277.541 136.502H277.551Z" fill="#0B0B0B"></path><path d="M263.639 151.495C262.488 151.495 261.379 150.959 260.69 150.017L256.735 144.662C256.036 143.71 255.851 142.485 256.242 141.372C256.632 140.258 257.557 139.408 258.697 139.094L274.057 134.873C275.506 134.478 277.068 135.004 277.962 136.199L281.969 141.544C282.678 142.496 282.873 143.721 282.482 144.844C282.092 145.958 281.167 146.818 280.016 147.132L264.605 151.364C264.286 151.455 263.958 151.495 263.639 151.495ZM275.023 135.764C274.787 135.764 274.561 135.794 274.324 135.855L258.964 140.076C258.132 140.309 257.485 140.906 257.197 141.706C256.91 142.516 257.043 143.376 257.557 144.065L261.512 149.42C262.149 150.28 263.28 150.665 264.328 150.382L279.739 146.15C280.582 145.917 281.229 145.32 281.506 144.51C281.794 143.7 281.65 142.83 281.136 142.141L277.129 136.796C276.626 136.128 275.835 135.753 275.023 135.753V135.764Z" fill="#0B0B0B"></path><path d="M355.897 124.285L355.917 124.306C358.578 127.849 356.831 132.911 352.537 134.135L315.673 144.623C311.614 145.777 307.268 144.309 304.782 140.949C302.162 137.405 303.919 132.374 308.193 131.159L345.057 120.671C349.085 119.527 353.41 120.965 355.907 124.285H355.897Z" fill="#0B0B0B"></path><path d="M312.898 145.524C309.579 145.524 306.364 143.975 304.36 141.252C303.014 139.43 302.665 137.152 303.404 135.026C304.144 132.89 305.839 131.311 308.038 130.683L344.902 120.196C349.115 119.001 353.697 120.53 356.307 124.002L356.327 124.022C357.694 125.844 358.054 128.122 357.324 130.268C356.584 132.415 354.899 134.004 352.68 134.642L315.816 145.13C314.86 145.403 313.874 145.534 312.908 145.534L312.898 145.524ZM347.81 120.793C346.937 120.793 346.053 120.914 345.19 121.157L308.326 131.645C306.456 132.182 305.018 133.528 304.381 135.34C303.744 137.152 304.042 139.096 305.192 140.645C307.545 143.824 311.696 145.231 315.528 144.137L352.392 133.65C354.273 133.113 355.711 131.757 356.348 129.924C356.975 128.092 356.667 126.158 355.506 124.599L355.485 124.579C353.666 122.16 350.779 120.783 347.81 120.783V120.793Z" fill="#0B0B0B"></path><path d="M352.485 125.805L353.594 127.293C355.557 129.915 354.273 133.66 351.098 134.561L317.069 144.239C313.874 145.151 310.442 143.986 308.48 141.334L307.401 139.866C305.47 137.244 306.764 133.519 309.918 132.628L343.937 122.95C347.111 122.049 350.522 123.183 352.485 125.805Z" fill="#0B0B0B"></path><path d="M314.902 145.048C312.251 145.048 309.683 143.813 308.08 141.637L307.001 140.169C305.974 138.782 305.717 137.061 306.282 135.441C306.847 133.821 308.131 132.617 309.796 132.141L343.814 122.463C347.174 121.501 350.841 122.726 352.917 125.5L354.027 126.988C355.064 128.375 355.342 130.096 354.777 131.726C354.222 133.356 352.937 134.56 351.252 135.046L317.224 144.724C316.453 144.947 315.672 145.048 314.902 145.048ZM346.126 123.151C345.447 123.151 344.759 123.243 344.091 123.435L310.073 133.113C308.727 133.498 307.7 134.459 307.248 135.765C306.795 137.071 307.001 138.458 307.833 139.572L308.912 141.039C310.741 143.51 313.967 144.603 316.947 143.753L350.975 134.075C352.321 133.69 353.359 132.718 353.811 131.402C354.263 130.086 354.037 128.699 353.205 127.585L352.095 126.097C350.677 124.214 348.437 123.151 346.136 123.151H346.126Z" fill="#0B0B0B"></path><g style="mix-blend-mode:multiply" opacity="0.5"><path d="M347.101 128.487L334.526 122.483L335.07 120.55H329.645L317.244 127.687C316.679 128.011 316.268 128.547 316.145 129.185C316.145 129.195 316.145 129.205 316.145 129.215C315.97 130.157 316.453 131.088 317.296 131.564L331.166 139.238C331.382 139.521 331.844 139.612 332.306 139.541L336.488 138.661L337.392 135.421L346.916 131.534C347.574 130.643 347.656 129.458 347.122 128.487H347.101Z" fill="#0B0B0B"></path></g><path d="M352.968 124.123L327.313 122.655L327.344 130.298C327.272 131.017 327.447 131.766 327.929 132.414L331.885 137.769C332.656 138.812 333.991 139.268 335.255 138.924L350.666 134.692C352.074 134.307 352.917 133.062 352.937 131.766L352.968 124.123Z" fill="#C1FAE7"></path><path d="M334.423 139.541C333.272 139.541 332.162 139.004 331.474 138.063L327.519 132.707C326.995 131.988 326.748 131.118 326.84 130.247L326.81 122.118L353.492 123.647L353.461 131.766C353.43 133.386 352.372 134.752 350.821 135.177L335.409 139.409C335.091 139.5 334.762 139.541 334.443 139.541H334.423ZM327.837 123.191L327.868 130.298C327.796 130.986 327.971 131.594 328.351 132.12L332.306 137.475C332.943 138.336 334.074 138.731 335.122 138.437L350.533 134.205C351.643 133.902 352.403 132.92 352.423 131.756L352.454 124.598L327.837 123.191Z" fill="#0B0B0B"></path><path d="M333.868 123.029L327.323 122.654L327.354 130.297C327.282 131.016 327.456 131.765 327.939 132.413L331.895 137.769C332.378 138.427 333.097 138.852 333.878 138.983V123.029H333.868Z" fill="#0B0B0B"></path><path d="M334.382 139.591L333.776 139.49C332.841 139.328 332.029 138.821 331.474 138.072L327.519 132.717C326.995 131.998 326.748 131.128 326.84 130.257L326.81 122.128L334.392 122.563V139.601L334.382 139.591ZM327.837 123.191L327.868 130.298C327.796 130.986 327.971 131.593 328.351 132.11L332.306 137.465C332.584 137.829 332.943 138.123 333.354 138.305V123.505L327.837 123.191Z" fill="#0B0B0B"></path><path d="M348.324 116.874L352.331 122.219C353.636 123.951 352.773 126.441 350.656 127.018L335.245 131.25C333.991 131.594 332.645 131.138 331.875 130.095L327.919 124.74C326.635 122.999 327.508 120.539 329.604 119.962L344.964 115.74C346.207 115.396 347.543 115.852 348.314 116.874H348.324Z" fill="#C1FAE7"></path><path d="M334.423 131.867C333.272 131.867 332.163 131.331 331.474 130.389L327.519 125.034C326.82 124.082 326.635 122.858 327.025 121.744C327.416 120.63 328.34 119.78 329.481 119.466L344.841 115.245C346.279 114.85 347.851 115.376 348.745 116.571L352.752 121.916C353.461 122.868 353.656 124.093 353.266 125.216C352.876 126.33 351.951 127.19 350.8 127.504L335.389 131.736C335.07 131.827 334.741 131.867 334.423 131.867ZM345.807 116.136C345.571 116.136 345.344 116.166 345.118 116.227L329.758 120.448C328.926 120.681 328.279 121.268 327.991 122.078C327.704 122.888 327.837 123.748 328.351 124.437L332.306 129.792C332.943 130.653 334.074 131.037 335.122 130.754L350.533 126.522C351.376 126.289 352.023 125.692 352.3 124.882C352.588 124.072 352.444 123.202 351.93 122.513L347.923 117.168C347.42 116.5 346.629 116.125 345.817 116.125L345.807 116.136Z" fill="#0B0B0B"></path><path d="M436.433 150.342L477.52 205.059L471.622 206.84L431.101 151.962L436.433 150.342Z" fill="#0B0B0B"></path><path d="M471.622 207.347C471.457 207.347 471.303 207.276 471.211 207.134L430.689 152.265C430.596 152.134 430.566 151.961 430.617 151.81C430.668 151.658 430.792 151.536 430.956 151.486L436.288 149.856C436.494 149.795 436.72 149.856 436.854 150.038L477.93 204.755C478.033 204.887 478.054 205.059 478.002 205.21C477.951 205.362 477.827 205.484 477.663 205.534L471.776 207.316C471.776 207.316 471.673 207.336 471.622 207.336V207.347ZM431.932 152.245L471.817 206.253L476.666 204.785L436.237 150.929L431.932 152.235V152.245Z" fill="#0B0B0B"></path><path d="M451.627 168.584L456.898 171.935L456.97 187.16L445.298 171.155C444.856 170.578 444.969 170.031 444.908 169.262V165.719C444.908 165.719 450.764 167.47 451.637 168.584H451.627Z" fill="#FF8FC1"></path><path d="M457.484 188.739L444.877 171.448C444.446 170.891 444.425 170.335 444.415 169.788C444.415 169.636 444.415 169.474 444.395 169.302V165.718V165.04L445.052 165.243C446.038 165.536 450.898 167.034 451.967 168.199L457.402 171.661L457.484 188.749V188.739ZM445.412 166.407V169.261C445.422 169.413 445.432 169.585 445.432 169.758C445.453 170.284 445.463 170.547 445.699 170.851L456.446 185.58L456.385 172.207L451.227 168.887C450.744 168.269 447.744 167.136 445.422 166.407H445.412Z" fill="#0B0B0B"></path><path d="M451.627 164.535L456.528 170.771C457.432 171.915 456.888 173.595 455.48 174.031L453.826 174.527C452.459 174.942 450.98 174.466 450.117 173.352L445.288 167.106C444.404 165.962 444.939 164.292 446.336 163.867L447.908 163.381C449.264 162.966 450.744 163.421 451.617 164.535H451.627Z" fill="#0B0B0B"></path><path d="M452.84 175.174C451.638 175.174 450.467 174.627 449.707 173.655L444.878 167.409C444.364 166.741 444.21 165.86 444.467 165.061C444.724 164.261 445.371 163.633 446.183 163.38L447.755 162.894C449.306 162.418 451.022 162.955 452.018 164.22L456.919 170.456C457.443 171.125 457.608 172.005 457.351 172.815C457.094 173.625 456.447 174.253 455.625 174.506L453.97 175.002C453.59 175.113 453.21 175.174 452.83 175.174H452.84ZM448.926 163.734C448.638 163.734 448.35 163.775 448.073 163.866L446.501 164.352C445.998 164.504 445.617 164.878 445.453 165.374C445.289 165.871 445.381 166.387 445.7 166.802L450.529 173.048C451.258 174 452.522 174.394 453.683 174.05L455.337 173.554C455.84 173.402 456.231 173.028 456.385 172.532C456.549 172.036 456.447 171.509 456.128 171.094L451.227 164.858C450.672 164.15 449.809 163.755 448.926 163.755V163.734Z" fill="#0B0B0B"></path><path d="M409.725 158.288L450.802 213.005L444.914 214.787L404.382 159.918L409.725 158.288Z" fill="#0B0B0B"></path><path d="M444.915 215.293C444.75 215.293 444.596 215.222 444.504 215.08L403.982 160.211C403.889 160.08 403.859 159.908 403.91 159.756C403.961 159.604 404.085 159.483 404.249 159.432L409.581 157.802C409.787 157.741 410.013 157.802 410.147 157.984L451.223 212.701C451.326 212.833 451.346 213.005 451.295 213.157C451.244 213.309 451.12 213.43 450.956 213.481L445.069 215.262C445.069 215.262 444.966 215.283 444.915 215.283V215.293ZM405.225 160.191L445.11 214.199L449.959 212.732L409.53 158.875L405.225 160.181V160.191Z" fill="#0B0B0B"></path><path d="M437.397 191.624L442.667 194.975L442.739 210.2L431.068 194.195C430.626 193.618 430.739 193.071 430.677 192.302V188.759C430.677 188.759 436.534 190.51 437.407 191.624H437.397Z" fill="#C1FAE7"></path><path d="M443.254 211.779L430.647 194.488C430.215 193.931 430.195 193.375 430.185 192.828C430.185 192.676 430.185 192.514 430.164 192.342V188.08L430.832 188.283C431.818 188.576 436.678 190.074 437.747 191.239L443.182 194.701L443.264 211.789L443.254 211.779ZM431.181 189.447V192.302C431.191 192.453 431.202 192.625 431.202 192.787C431.222 193.314 431.233 193.577 431.469 193.881L442.216 208.61L442.154 195.237L436.996 191.917C436.514 191.299 433.513 190.166 431.191 189.437L431.181 189.447Z" fill="#0B0B0B"></path><path d="M437.397 187.576L442.298 193.812C443.202 194.956 442.657 196.637 441.25 197.062L439.595 197.558C438.229 197.973 436.749 197.497 435.886 196.384L431.058 190.138C430.174 188.994 430.708 187.323 432.105 186.898L433.677 186.412C435.034 185.997 436.513 186.453 437.386 187.566L437.397 187.576Z" fill="#C1FAE7"></path><path d="M438.61 198.216C437.408 198.216 436.236 197.669 435.476 196.697L430.647 190.451C430.134 189.783 429.979 188.902 430.236 188.103C430.493 187.303 431.14 186.675 431.952 186.422L433.524 185.936C435.075 185.46 436.791 185.997 437.788 187.262L442.689 193.498C443.213 194.167 443.377 195.047 443.12 195.857C442.863 196.667 442.216 197.295 441.394 197.548L439.75 198.044C439.37 198.155 438.99 198.216 438.61 198.216ZM434.695 186.776C434.408 186.776 434.12 186.817 433.843 186.908L432.271 187.394C431.767 187.546 431.387 187.92 431.223 188.416C431.058 188.913 431.151 189.429 431.469 189.844L436.298 196.09C437.028 197.042 438.291 197.436 439.452 197.092L441.096 196.596C441.6 196.444 441.99 196.07 442.144 195.574C442.309 195.078 442.206 194.551 441.887 194.136L436.987 187.9C436.432 187.192 435.569 186.797 434.685 186.797L434.695 186.776Z" fill="#0B0B0B"></path><path d="M383.763 165.75L424.839 220.467L418.952 222.249L378.42 167.37L383.763 165.75Z" fill="#0B0B0B"></path><path d="M418.952 222.755C418.788 222.755 418.634 222.684 418.541 222.542L378.02 167.673C377.927 167.542 377.896 167.37 377.948 167.218C377.999 167.066 378.122 166.944 378.287 166.894L383.619 165.264C383.824 165.203 384.051 165.264 384.184 165.446L425.261 220.163C425.364 220.295 425.384 220.467 425.333 220.619C425.281 220.771 425.158 220.892 424.994 220.943L419.106 222.724C419.106 222.724 419.004 222.745 418.952 222.745V222.755ZM379.263 167.653L419.148 221.661L423.987 220.194L383.557 166.337L379.252 167.643L379.263 167.653Z" fill="#0B0B0B"></path><path d="M387.79 168.645L393.06 171.996L393.132 187.222L381.461 171.217C381.019 170.64 381.132 170.093 381.06 169.323V165.78C381.06 165.78 386.916 167.532 387.79 168.645Z" fill="#D7FF65"></path><path d="M393.646 188.801L381.04 171.51C380.608 170.953 380.587 170.396 380.577 169.85C380.577 169.698 380.577 169.536 380.557 169.364V165.092L381.224 165.294C382.211 165.588 387.071 167.086 388.139 168.26L393.574 171.723L393.656 188.811L393.646 188.801ZM381.574 166.469V169.323C381.584 169.475 381.594 169.647 381.594 169.809C381.615 170.336 381.625 170.599 381.861 170.903L392.608 185.632L392.547 172.259L387.389 168.939C386.906 168.321 383.906 167.187 381.584 166.458L381.574 166.469Z" fill="#0B0B0B"></path><path d="M387.789 164.595L392.69 170.831C393.594 171.975 393.05 173.655 391.642 174.081L389.988 174.577C388.622 174.992 387.142 174.516 386.279 173.402L381.45 167.156C380.566 166.012 381.101 164.342 382.498 163.917L384.07 163.431C385.426 163.016 386.906 163.471 387.779 164.585L387.789 164.595Z" fill="#D7FF65"></path><path d="M389.002 175.235C387.8 175.235 386.629 174.689 385.869 173.717L381.04 167.471C380.526 166.803 380.372 165.922 380.629 165.122C380.886 164.322 381.533 163.695 382.345 163.442L383.917 162.956C385.468 162.48 387.184 163.017 388.18 164.282L393.081 170.518C393.605 171.186 393.77 172.067 393.513 172.877C393.256 173.687 392.609 174.314 391.787 174.567L390.143 175.063C389.763 175.175 389.383 175.235 389.002 175.235ZM385.088 163.796C384.8 163.796 384.513 163.836 384.235 163.928L382.663 164.414C382.16 164.565 381.78 164.94 381.615 165.436C381.451 165.932 381.543 166.448 381.862 166.863L386.691 173.11C387.42 174.061 388.694 174.456 389.845 174.112L391.489 173.616C391.992 173.464 392.383 173.089 392.537 172.593C392.701 172.097 392.598 171.571 392.28 171.156L387.379 164.92C386.824 164.211 385.961 163.816 385.078 163.816L385.088 163.796Z" fill="#0B0B0B"></path><path d="M221.288 194.499C219.316 201.008 211.507 203.599 203.843 200.279C196.188 196.958 191.585 188.991 193.558 182.472C195.531 175.963 203.339 173.371 211.004 176.691C218.658 180.012 223.261 187.979 221.288 194.499Z" fill="#0B0B0B"></path><g style="mix-blend-mode:multiply" opacity="0.5"><path d="M203.802 175.213L203.124 174.657C198.007 170.445 190.404 171.123 186.13 176.165L184.641 177.926C183.387 179.404 183.593 181.611 185.093 182.846L202.179 196.898L203.802 175.213Z" fill="#0B0B0B"></path></g><path d="M219.973 174.959H195.264L195.294 185.933C195.377 189.881 199.23 197.099 207.624 198.982C215.751 200.814 219.953 195.854 219.953 191.855V174.949L219.973 174.959Z" fill="#C1FAE7"></path><path d="M210.942 199.884C209.853 199.884 208.702 199.752 207.521 199.489C198.983 197.576 194.884 190.277 194.791 185.954L194.76 174.464H220.497V191.876C220.487 194.103 219.336 196.33 217.405 197.849C215.689 199.205 213.46 199.894 210.953 199.894L210.942 199.884ZM195.788 175.466L195.819 185.934C195.901 189.932 199.754 196.695 207.747 198.497C212.35 199.529 215.186 198.274 216.758 197.039C218.443 195.713 219.449 193.779 219.449 191.856V175.456H195.788V175.466Z" fill="#0B0B0B"></path><path d="M199.353 174.959H195.264L195.294 185.933C195.346 188.2 196.651 191.561 199.353 194.355V174.959Z" fill="#0B0B0B"></path><path d="M199.353 194.873C199.219 194.873 199.075 194.822 198.983 194.711C195.952 191.572 194.832 188.029 194.791 185.954L194.76 174.97C194.76 174.838 194.812 174.707 194.914 174.616C195.007 174.525 195.14 174.464 195.274 174.464H199.363C199.651 174.464 199.877 174.687 199.877 174.97V194.366C199.877 194.569 199.754 194.761 199.558 194.832C199.497 194.852 199.435 194.873 199.363 194.873H199.353ZM195.777 175.476L195.808 185.944C195.839 187.624 196.671 190.378 198.839 193.02V175.476H195.777Z" fill="#0B0B0B"></path><path d="M203.914 174.961V197.668C204.438 197.921 204.972 198.164 205.548 198.366V174.961H203.914Z" fill="#0B0B0B"></path><path d="M206.062 199.094L205.374 198.841C204.85 198.649 204.315 198.426 203.689 198.123L203.401 197.981V174.454H206.062V199.094ZM204.428 197.353C204.634 197.454 204.839 197.546 205.034 197.627V175.477H204.428V197.353Z" fill="#0B0B0B"></path><path d="M207.664 174.961V198.994C208.404 199.156 209.102 199.257 209.781 199.308V174.961H207.664Z" fill="#0B0B0B"></path><path d="M210.295 199.864L209.74 199.813C208.969 199.752 208.25 199.641 207.552 199.489L207.151 199.398V174.454H210.295V199.864ZM208.178 198.588C208.538 198.659 208.898 198.71 209.267 198.75V175.466H208.178V198.588Z" fill="#0B0B0B"></path><path d="M219.973 174.829C219.973 178.818 214.445 182.047 207.633 182.047C200.822 182.047 195.294 178.818 195.294 174.829C195.294 170.841 200.822 167.611 207.633 167.611C214.445 167.611 219.973 170.841 219.973 174.829Z" fill="#C1FAE7"></path><path d="M207.634 182.553C200.545 182.553 194.781 179.091 194.781 174.829C194.781 170.567 200.545 167.104 207.634 167.104C214.723 167.104 220.487 170.567 220.487 174.829C220.487 179.091 214.723 182.553 207.634 182.553ZM207.634 168.127C201.11 168.127 195.808 171.134 195.808 174.839C195.808 178.544 201.11 181.551 207.634 181.551C214.158 181.551 219.46 178.544 219.46 174.839C219.46 171.134 214.158 168.127 207.634 168.127Z" fill="#0B0B0B"></path><path d="M249.809 237.059C247.836 243.568 240.028 246.16 232.363 242.84C224.709 239.519 220.106 231.552 222.079 225.032C224.051 218.523 231.86 215.932 239.524 219.252C247.179 222.572 251.782 230.54 249.809 237.049V237.059Z" fill="#0B0B0B"></path><g style="mix-blend-mode:multiply" opacity="0.5"><path d="M232.323 217.784L231.645 217.227C226.528 213.016 218.925 213.694 214.651 218.735L213.161 220.497C211.908 221.975 212.113 224.182 213.613 225.417L230.699 239.468L232.323 217.784Z" fill="#0B0B0B"></path></g><path d="M248.494 217.531H223.784L223.815 228.504C223.897 232.453 227.75 239.67 236.144 241.553C244.271 243.376 248.473 238.425 248.473 234.427V217.521L248.494 217.531Z" fill="#FF8FC1"></path><path d="M239.453 242.454C238.364 242.454 237.213 242.322 236.032 242.059C227.494 240.146 223.394 232.847 223.302 228.524L223.271 217.034H249.008V234.446C248.998 236.674 247.847 238.901 245.916 240.419C244.2 241.776 241.97 242.464 239.463 242.464L239.453 242.454ZM224.298 218.036L224.329 228.504C224.411 232.503 228.264 239.265 236.258 241.067C240.861 242.1 243.696 240.844 245.268 239.609C246.953 238.283 247.96 236.35 247.96 234.426V218.026H224.298V218.036Z" fill="#0B0B0B"></path><path d="M227.874 217.53H223.785L223.815 228.504C223.867 230.772 225.172 234.133 227.874 236.927V217.53Z" fill="#0B0B0B"></path><path d="M227.873 237.443C227.74 237.443 227.596 237.392 227.503 237.281C224.473 234.143 223.353 230.6 223.312 228.524L223.281 217.54C223.281 217.409 223.332 217.277 223.435 217.186C223.527 217.095 223.661 217.034 223.794 217.034H227.884C228.171 217.034 228.397 217.257 228.397 217.54V236.937C228.397 237.139 228.274 237.332 228.079 237.402C228.017 237.423 227.956 237.443 227.884 237.443H227.873ZM224.298 218.047L224.329 228.514C224.36 230.195 225.192 232.948 227.36 235.59V218.036H224.298V218.047Z" fill="#0B0B0B"></path><path d="M232.435 217.531V240.238C232.959 240.491 233.493 240.734 234.068 240.937V217.531H232.435Z" fill="#0B0B0B"></path><path d="M234.582 241.665L233.894 241.412C233.37 241.219 232.836 240.997 232.209 240.693L231.921 240.551V217.024H234.582V241.665ZM232.949 239.924C233.154 240.025 233.36 240.116 233.555 240.197V218.047H232.949V239.924Z" fill="#0B0B0B"></path><path d="M236.185 217.531V241.564C236.924 241.726 237.623 241.827 238.301 241.878V217.531H236.185Z" fill="#0B0B0B"></path><path d="M238.815 242.434L238.261 242.383C237.49 242.323 236.781 242.211 236.072 242.06L235.671 241.968V217.024H238.815V242.434ZM236.699 241.159C237.058 241.229 237.418 241.28 237.788 241.321V218.037H236.699V241.159Z" fill="#0B0B0B"></path><path d="M248.484 217.4C248.484 221.388 242.956 224.618 236.145 224.618C229.333 224.618 223.805 221.388 223.805 217.4C223.805 213.411 229.333 210.182 236.145 210.182C242.956 210.182 248.484 213.411 248.484 217.4Z" fill="#0B0B0B"></path><path d="M236.145 225.123C229.056 225.123 223.292 221.661 223.292 217.399C223.292 213.137 229.056 209.675 236.145 209.675C243.234 209.675 248.998 213.137 248.998 217.399C248.998 221.661 243.234 225.123 236.145 225.123ZM236.145 210.697C229.621 210.697 224.319 213.704 224.319 217.409C224.319 221.114 229.621 224.121 236.145 224.121C242.669 224.121 247.971 221.114 247.971 217.409C247.971 213.704 242.669 210.697 236.145 210.697Z" fill="#0B0B0B"></path><path d="M269.341 211.375L287.814 206.293C290.917 206.02 295.51 198.65 293.702 196.15L272.156 174.263C271.324 173.109 269.937 172.481 268.509 172.603L251.217 173.261C248.094 173.534 244.847 181.521 246.697 184.022L265.725 209.756C266.557 210.879 267.934 211.497 269.341 211.375Z" fill="#0B0B0B"></path><path d="M268.992 211.902C267.553 211.902 266.166 211.223 265.313 210.059L246.285 184.325C245.114 182.736 245.72 179.557 246.85 177.107C248.042 174.526 249.655 172.896 251.176 172.765L268.498 172.107C270.07 171.965 271.653 172.684 272.577 173.979L294.071 195.805C295.191 197.344 294.328 199.743 293.722 201.039C292.479 203.692 290.003 206.617 287.855 206.81L269.382 211.891C269.248 211.902 269.115 211.912 268.981 211.912L268.992 211.902ZM268.868 173.099C268.766 173.099 268.663 173.099 268.56 173.109L251.238 173.767C250.149 173.868 248.782 175.336 247.775 177.512C246.604 180.053 246.326 182.665 247.107 183.718L266.135 209.452C266.844 210.413 268.036 210.95 269.248 210.869L287.681 205.797C289.263 205.645 291.523 203.327 292.797 200.594C293.66 198.751 293.845 197.192 293.29 196.433L271.797 174.607C271.088 173.635 270.009 173.089 268.879 173.089L268.868 173.099Z" fill="#0B0B0B"></path><path d="M272.3 206.496L290.321 201.455C293.567 201.171 295.283 197.517 293.393 194.895L275.063 169.485C274.19 168.28 272.741 167.622 271.241 167.754L252.778 172.836C249.501 173.119 247.806 176.824 249.737 179.436L268.498 204.806C269.371 205.99 270.81 206.628 272.289 206.496H272.3Z" fill="#C1FAE7"></path><path d="M271.93 207.022C270.43 207.022 268.981 206.314 268.097 205.099L249.337 179.73C248.319 178.353 248.134 176.602 248.854 175.053C249.573 173.504 251.022 172.481 252.748 172.33L271.118 167.268C272.885 167.106 274.529 167.855 275.495 169.201L293.824 194.611C294.821 195.988 294.985 197.739 294.266 199.268C293.547 200.807 292.098 201.819 290.382 201.961L272.361 207.002C272.228 207.012 272.084 207.022 271.95 207.022H271.93ZM271.621 168.24C271.508 168.24 271.406 168.24 271.293 168.25L252.922 173.312C251.484 173.443 250.343 174.243 249.778 175.458C249.213 176.673 249.357 178.049 250.158 179.122L268.919 204.492C269.669 205.514 270.923 206.081 272.207 205.99L290.187 200.959C291.626 200.827 292.756 200.037 293.321 198.833C293.886 197.628 293.752 196.261 292.972 195.178L274.642 169.768C273.943 168.797 272.803 168.23 271.611 168.23L271.621 168.24Z" fill="#0B0B0B"></path><path d="M310.647 198.145L329.12 193.063C332.223 192.79 336.816 185.42 335.007 182.919L313.462 161.033C312.63 159.879 311.243 159.251 309.815 159.382L292.523 160.041C289.4 160.314 286.153 168.301 288.002 170.802L307.03 196.535C307.863 197.659 309.239 198.277 310.647 198.155V198.145Z" fill="#0B0B0B"></path><path d="M310.288 198.671C308.849 198.671 307.462 197.993 306.609 196.829L287.581 171.095C286.41 169.506 287.016 166.327 288.146 163.877C289.338 161.296 290.951 159.666 292.472 159.534L309.794 158.876C311.366 158.734 312.949 159.453 313.873 160.739L335.367 182.565C336.487 184.104 335.624 186.503 335.018 187.799C333.775 190.451 331.299 193.377 329.151 193.569L310.678 198.651C310.544 198.661 310.411 198.671 310.277 198.671H310.288ZM310.164 159.868C310.062 159.868 309.959 159.868 309.856 159.878L292.534 160.536C291.444 160.638 290.078 162.105 289.071 164.292C287.9 166.833 287.622 169.445 288.403 170.498L307.431 196.231C308.14 197.193 309.332 197.74 310.544 197.649L328.977 192.577C330.559 192.425 332.809 190.107 334.093 187.384C334.956 185.541 335.141 183.982 334.586 183.213L313.092 161.387C312.384 160.415 311.305 159.868 310.175 159.868H310.164Z" fill="#0B0B0B"></path><path d="M313.607 193.266L331.628 188.224C334.874 187.941 336.59 184.286 334.7 181.664L316.37 156.255C315.497 155.05 314.048 154.392 312.548 154.523L294.086 159.605C290.808 159.889 289.113 163.594 291.044 166.206L309.805 191.575C310.679 192.759 312.117 193.397 313.596 193.266H313.607Z" fill="#8B75F3"></path><path d="M313.237 193.781C311.737 193.781 310.288 193.073 309.405 191.858L290.644 166.489C289.626 165.112 289.442 163.36 290.161 161.812C290.88 160.263 292.329 159.24 294.055 159.088L312.425 154.027C314.203 153.865 315.836 154.614 316.802 155.96L335.131 181.37C336.128 182.747 336.292 184.498 335.573 186.027C334.854 187.566 333.405 188.578 331.69 188.72L313.668 193.761C313.535 193.771 313.391 193.781 313.257 193.781H313.237ZM312.929 154.999C312.816 154.999 312.713 154.999 312.6 155.009L294.229 160.07C292.791 160.202 291.64 161.002 291.085 162.217C290.52 163.431 290.664 164.808 291.466 165.881L310.226 191.25C310.977 192.273 312.23 192.84 313.514 192.749L331.494 187.717C332.933 187.586 334.063 186.796 334.628 185.591C335.193 184.387 335.06 183.02 334.279 181.937L315.949 156.527C315.251 155.555 314.11 154.988 312.918 154.988L312.929 154.999Z" fill="#0B0B0B"></path><path d="M396.308 141.392L413.753 136.401C416.774 135.662 418.911 129.274 416.743 127.077L392.362 104.502L370.519 113.603L392.496 140.349C393.492 141.341 394.951 141.736 396.318 141.392H396.308Z" fill="#0B0B0B"></path><path d="M395.342 142.009C394.15 142.009 392.979 141.544 392.116 140.693L369.677 113.381L392.465 103.885L417.093 126.683C418.192 127.786 418.439 129.801 417.781 132.089C417.237 133.992 415.88 136.381 413.877 136.877L396.431 141.868C396.071 141.959 395.702 141.999 395.342 141.999V142.009ZM371.331 113.796L392.876 140.015C393.708 140.825 394.982 141.179 396.174 140.896L413.61 135.905C414.894 135.591 416.189 133.911 416.795 131.825C417.339 129.922 417.175 128.242 416.374 127.422L392.249 105.089L371.341 113.806L371.331 113.796Z" fill="#0B0B0B"></path><path d="M397.529 136.352L415.098 131.331C417.533 130.733 418.191 127.636 416.208 126.117L392.978 104.757C392.248 104.2 391.303 104.008 390.409 104.22L372.409 109.353C369.963 109.95 369.306 113.088 371.33 114.587L394.992 135.846C395.711 136.382 396.646 136.575 397.529 136.352Z" fill="#D7FF65"></path><path d="M396.8 136.939C396.05 136.939 395.31 136.696 394.684 136.24L370.981 114.951C369.923 114.172 369.419 112.845 369.686 111.519C369.964 110.203 370.95 109.181 372.286 108.847L390.276 103.724C391.345 103.461 392.444 103.684 393.297 104.342L416.558 125.732C417.595 126.522 418.089 127.848 417.811 129.154C417.534 130.46 416.537 131.483 415.222 131.806L397.653 136.828C397.365 136.899 397.078 136.929 396.8 136.929V136.939ZM391.16 104.625C390.954 104.625 390.749 104.645 390.543 104.696L372.563 109.818C371.587 110.061 370.909 110.76 370.703 111.712C370.508 112.663 370.858 113.574 371.638 114.161L395.341 135.451C395.906 135.866 396.667 136.018 397.396 135.846L414.955 130.824C415.921 130.592 416.609 129.883 416.804 128.942C417.01 128 416.66 127.089 415.89 126.502L392.629 105.111C392.218 104.797 391.694 104.625 391.149 104.625H391.16Z" fill="#0B0B0B"></path><path d="M322.129 58.3643L334.53 54.5986L335.263 57.0129L326.966 59.5324L327.624 61.6987L335.114 59.4244L335.842 61.8221L328.357 64.113L329.02 66.2959L337.541 63.7083L338.274 66.1226L325.649 69.9563L322.129 58.3643Z" fill="#B5FDEA"></path><path d="M318.863 72.0163L315.602 69.5028L315.512 69.53L312.552 70.4289L313.526 73.6369L309.422 74.8831L305.902 63.291L312.966 61.146C315.044 60.515 316.76 60.3853 318.114 60.7569C319.479 61.1129 320.358 61.9358 320.749 63.2256C321.014 64.0966 321.004 64.9244 320.72 65.709C320.432 66.4827 319.886 67.1844 319.081 67.8141L323.505 70.6067L318.863 72.0163ZM311.819 68.0145L314.801 67.1089C315.638 66.8547 316.234 66.5051 316.589 66.0603C316.959 65.6108 317.055 65.094 316.878 64.5097C316.707 63.9475 316.345 63.5879 315.791 63.431C315.249 63.2585 314.559 63.2993 313.722 63.5535L310.739 64.4592L311.819 68.0145Z" fill="#B5FDEA"></path><path d="M295.314 66.3079C296.914 65.8221 298.435 65.6431 299.878 65.7709C301.336 65.8941 302.569 66.2964 303.576 66.978C304.598 67.655 305.279 68.5558 305.621 69.6802C305.966 70.8157 305.903 71.9545 305.434 73.0965C304.979 74.2339 304.182 75.2647 303.042 76.1888C301.917 77.1084 300.555 77.8111 298.955 78.2968C297.355 78.7826 295.826 78.9638 294.369 78.8406C292.922 78.7019 291.686 78.2885 290.661 77.6004C289.647 76.8968 288.968 75.9773 288.623 74.8418C288.282 73.7173 288.34 72.5919 288.798 71.4654C289.271 70.3344 290.072 69.3147 291.2 68.4061C292.343 67.493 293.715 66.7936 295.314 66.3079ZM296.137 68.8574C295.36 69.0935 294.68 69.4625 294.098 69.9644C293.53 70.4618 293.133 71.0341 292.905 71.6813C292.673 72.3175 292.653 72.9498 292.844 73.5782C293.038 74.2176 293.41 74.7428 293.959 75.154C294.52 75.5495 295.177 75.8018 295.928 75.9107C296.676 76.0086 297.439 75.9396 298.216 75.7035C298.994 75.4675 299.659 75.103 300.211 74.6101C300.775 74.1017 301.165 73.5317 301.382 72.9C301.595 72.2574 301.604 71.6164 301.41 70.9769C301.219 70.3486 300.858 69.832 300.327 69.4274C299.793 69.0117 299.152 68.7549 298.403 68.657C297.67 68.5546 296.915 68.6214 296.137 68.8574Z" fill="#B5FDEA"></path><path d="M265.813 75.1611L270.275 73.8061L276.886 79.2037L279.357 71.0482L283.82 69.6931L287.34 81.2852L283.707 82.3883L281.455 75.053L279.319 82.4565L276.673 83.26L270.759 78.3011L272.988 85.6432L269.333 86.7532L265.813 75.1611Z" fill="#B5FDEA"></path><path d="M245.699 81.2686L259.176 77.1761L259.935 79.6731L255.225 81.1031L257.987 90.1981L253.884 91.4442L251.122 82.3492L246.457 83.7656L245.699 81.2686Z" fill="#B5FDEA"></path><path d="M240.18 82.9443L243.992 81.7867L247.512 93.3788L243.924 94.4683L234.689 89.7049L236.793 96.6337L232.959 97.7981L229.438 86.2061L233.049 85.1097L242.321 89.9159L240.18 82.9443Z" fill="#B5FDEA"></path><path d="M227.163 99.5588L225.464 97.8351L218.67 99.8984L218.193 102.283L213.978 103.563L217.207 89.9211L221.423 88.6409L231.536 98.231L227.163 99.5588ZM219.2 97.2088L223.55 95.8877L220.142 92.4073L219.2 97.2088Z" fill="#B5FDEA"></path><path d="M207.619 92.8322L211.835 91.552L210.04 104.758L205.824 106.038L200.447 99.0559L199.815 107.863L195.599 109.143L186.787 99.1582L191.204 97.8167L196.87 105.344L197.393 95.9373L201.407 94.7184L207.118 102.232L207.619 92.8322Z" fill="#B5FDEA"></path><path d="M176.224 102.365L180.328 101.119L183.848 112.711L179.744 113.957L176.224 102.365Z" fill="#B5FDEA"></path></svg>