<?xml version="1.0" encoding="UTF-8"?>
<svg xmlns="http://www.w3.org/2000/svg" width="73" height="74" viewBox="0 0 73 74" fill="none">
  <g clip-path="url(#clip0_3990_14929)">
    <path d="M1.46686 64.7758L14.8301 72.899C16.1926 73.7375 18.1316 73.8947 19.2321 73.2658L64.5623 47.3239C65.6628 46.695 65.4008 45.542 64.0383 44.7559L50.675 36.5803C49.3125 35.7418 47.3735 35.5845 46.273 36.2134L0.942812 62.2078C-0.15769 62.8367 0.104334 63.9896 1.46686 64.7758Z" fill="#0A0A0A"></path>
    <path d="M17.5556 73.9476C16.5599 73.9476 15.5118 73.6855 14.6734 73.1614L1.31012 64.9858C0.471644 64.4617 0 63.8328 0 63.1515C0 62.6799 0.314429 62.2082 0.838478 61.9461L46.1687 36.0042C46.6403 35.7422 47.2692 35.585 47.9505 35.585C48.9462 35.585 49.9943 35.847 50.8327 36.3711L64.196 44.5467C65.0344 45.0708 65.5061 45.6997 65.5061 46.381C65.5061 46.8527 65.1917 47.3243 64.6676 47.5864L19.3374 73.5283C18.8658 73.7903 18.2893 73.9476 17.5556 73.9476ZM47.9505 36.109C47.3216 36.109 46.7976 36.2139 46.4307 36.4235L1.0481 62.4178C0.786073 62.575 0.524049 62.7847 0.524049 63.2039C0.524049 63.6756 0.890883 64.1473 1.57215 64.5665L14.9354 72.6898C15.6691 73.109 16.6123 73.3711 17.5556 73.3711C18.1845 73.3711 18.7085 73.2663 19.0754 73.0566L64.458 47.1147C64.72 46.9575 64.982 46.7479 64.982 46.3286C64.982 45.8569 64.6152 45.3852 63.9339 44.966L50.5707 36.8428C49.837 36.3711 48.8413 36.109 47.9505 36.109Z" fill="#0A0A0A"></path>
    <path d="M60.1611 0.681313L19.6521 24.0553C17.6083 25.2082 16.3506 27.4094 16.3506 29.7677V71.8513C16.3506 72.2706 16.5602 72.6374 16.8746 72.847L17.9751 73.5807L63.6198 46.6955C64.3535 46.2762 64.7727 45.5425 64.7727 44.704L64.4059 1.46743L63.4102 0.786129C62.4669 0.157234 61.2616 0.0524178 60.1611 0.681313Z" fill="#0A0A0A"></path>
    <path d="M17.9227 73.843C17.8703 73.843 17.8179 73.843 17.7655 73.7906L16.665 73.0569C16.2458 72.7949 16.0361 72.3232 16.0361 71.8515V29.768C16.0361 27.3048 17.3463 25.0513 19.4424 23.8459L59.9514 0.471934C61.0519 -0.156961 62.362 -0.104553 63.4101 0.57675L64.4058 1.25805C64.4582 1.31046 64.5106 1.36287 64.5106 1.46768L64.8775 44.7042C64.8775 45.5952 64.4058 46.4861 63.6198 46.9054L17.9751 73.7906C18.0275 73.843 17.9751 73.843 17.9227 73.843ZM61.6808 0.524342C61.2091 0.524342 60.7375 0.629158 60.2659 0.891197L19.8093 24.2651C17.8703 25.4181 16.665 27.5144 16.665 29.768V71.8515C16.665 72.166 16.8222 72.428 17.0318 72.6377L17.9751 73.2666L63.515 46.4861C64.1438 46.1192 64.5631 45.4379 64.5631 44.7042L64.0914 1.5725L63.2005 0.943605C62.7813 0.681566 62.2572 0.524342 61.6808 0.524342Z" fill="#0A0A0A"></path>
    <path d="M61.1568 1.31017L20.5955 24.6841C18.5517 25.8895 17.2939 28.0382 17.2939 30.3966V72.4801C17.2939 73.4235 18.2896 74 19.1281 73.5283L64.5631 47.3243C65.2968 46.9051 65.7161 46.1714 65.7161 45.3328V3.93057C65.7161 1.62462 63.1482 0.1572 61.1568 1.31017Z" fill="#D7FF65"></path>
    <path d="M18.5513 74C17.7652 74 17.084 73.3187 17.084 72.5326V30.3966C17.084 27.9334 18.3941 25.6799 20.4903 24.4745L60.9993 1.10058C61.5233 0.78613 62.0474 0.628906 62.6762 0.628906C64.5104 0.628906 65.9777 2.09633 65.9777 3.93061V45.3329C65.9777 46.2238 65.5061 47.1147 64.72 47.534L19.285 73.738C19.023 73.8952 18.7609 74 18.5513 74ZM62.6762 1.15299C62.2046 1.15299 61.7329 1.2578 61.2613 1.51984L20.7523 24.8938C18.8133 26.0468 17.608 28.1431 17.608 30.3966V72.4802C17.608 73.0567 18.0797 73.4235 18.5513 73.4235C18.7085 73.4235 18.8658 73.3711 19.023 73.3187L64.458 47.1147C65.0869 46.7479 65.4537 46.0666 65.4537 45.3329V3.93061C65.4537 2.41078 64.196 1.15299 62.6762 1.15299Z" fill="#0A0A0A"></path>
    <path d="M61.1568 1.31043L20.5955 24.6844C18.5517 25.8898 17.2939 28.0385 17.2939 30.3968V34.5371L65.7161 6.60364V3.98324C65.7161 1.62488 63.1482 0.15746 61.1568 1.31043Z" fill="#0A0A0A"></path>
    <path d="M17.2936 34.7989C17.2412 34.7989 17.1888 34.7989 17.1888 34.7465C17.084 34.6941 17.084 34.5892 17.084 34.5368V30.3966C17.084 27.9334 18.3941 25.6799 20.4903 24.4745L60.9993 1.10058C61.5233 0.78613 62.0474 0.628906 62.6762 0.628906C64.5104 0.628906 65.9777 2.09633 65.9777 3.93061V6.551C65.9777 6.65582 65.9253 6.70823 65.8729 6.76063L17.4508 34.7465C17.3984 34.7989 17.346 34.7989 17.2936 34.7989ZM62.6762 1.15299C62.2046 1.15299 61.7329 1.2578 61.2613 1.51984L20.7523 24.8938C18.8133 26.0468 17.608 28.1431 17.608 30.3966V34.0652L65.5061 6.44619V3.98301C65.4537 2.41078 64.196 1.15299 62.6762 1.15299Z" fill="#0A0A0A"></path>
    <path d="M55.8108 9.0242L55.6914 9.37109L57.624 10.0364L57.7434 9.68949L55.8108 9.0242Z" fill="#8B75F3"></path>
    <path d="M57.5056 7.89717L55.5664 10.8242L55.8722 11.0268L57.8114 8.09979L57.5056 7.89717Z" fill="#8B75F3"></path>
    <path d="M59.1124 9.1715C58.6408 9.1715 58.3263 8.85706 58.2739 8.38539C58.2215 7.75649 58.6408 7.02278 59.2696 6.76074C59.4793 6.65592 59.6365 6.60352 59.8461 6.60352C60.3177 6.60352 60.6322 6.91796 60.6846 7.38963C60.737 8.01853 60.3177 8.75224 59.6889 9.01428C59.4793 9.1191 59.322 9.1715 59.1124 9.1715ZM59.8461 6.97037C59.7413 6.97037 59.5841 7.02278 59.4793 7.07519C59.0076 7.28482 58.6408 7.86131 58.6932 8.33298C58.7456 8.69983 59.1124 8.85706 59.5317 8.64742C60.0033 8.43779 60.3701 7.86131 60.3177 7.38963C60.2653 7.1276 60.1081 6.97037 59.8461 6.97037Z" fill="#8B75F3"></path>
    <path d="M61.4186 7.80878C61.3662 7.80878 61.3662 7.80878 61.3138 7.80878C61.2614 7.75637 61.209 7.70397 61.209 7.65156V5.9221C61.209 5.86969 61.2614 5.76487 61.3138 5.76487L63.2004 4.66431C63.2528 4.6119 63.3576 4.6119 63.41 4.66431C63.4624 4.71671 63.5148 4.76912 63.5148 4.82153V6.55099C63.5148 6.6034 63.4624 6.70822 63.41 6.70822L61.5234 7.80878C61.471 7.80878 61.471 7.80878 61.4186 7.80878ZM61.6282 5.9745V7.2847L63.0956 6.39377V5.13598L61.6282 5.9745Z" fill="#8B75F3"></path>
    <path d="M23.4248 39.6204L59.1125 19.1289" stroke="#8B75F3" stroke-miterlimit="10"></path>
    <path d="M24.2637 46.0143L56.4403 27.6191" stroke="#8B75F3" stroke-miterlimit="10"></path>
    <path d="M24.8926 51.57L56.7547 32.8604" stroke="#8B75F3" stroke-miterlimit="10"></path>
    <path d="M25.4688 57.4397L61.1565 36.9482" stroke="#8B75F3" stroke-miterlimit="10"></path>
    <path d="M66.7641 19.9681C64.1963 18.1338 60.2659 19.706 57.9601 23.5318C55.6543 27.3576 55.8639 31.9171 58.4317 33.8038C60.9996 35.6381 64.9299 34.0658 67.2358 30.24C69.4892 26.4143 69.332 21.8024 66.7641 19.9681Z" fill="#BDB6B6"></path>
    <path d="M70.538 19.9675C67.813 17.976 63.6206 19.7055 61.1575 23.7409C58.6945 27.7763 58.9041 32.7026 61.6292 34.6417C64.3542 36.6332 68.5466 34.9038 71.0097 30.8684C73.4727 26.8329 73.2631 21.959 70.538 19.9675Z" fill="#8B75F3"></path>
    <path d="M64.2488 35.7425C63.2007 35.7425 62.3099 35.4281 61.5238 34.8516C58.6939 32.8077 58.4319 27.7765 60.9473 23.5839C62.7291 20.6491 65.4017 18.8672 67.9696 18.8672C69.0177 18.8672 69.9086 19.1816 70.6946 19.7581C73.5245 21.802 73.7865 26.8332 71.2711 31.0258C69.4893 33.9607 66.7643 35.7425 64.2488 35.7425ZM67.9172 19.3913C65.559 19.3913 62.9911 21.1731 61.3666 23.8983C58.9559 27.8289 59.1656 32.5981 61.7858 34.4848C62.5195 35.0088 63.3055 35.2709 64.2488 35.2709C66.6071 35.2709 69.1749 33.489 70.7994 30.7638C73.2101 26.8332 73.0005 22.0641 70.3802 20.1774C69.6465 19.6533 68.8605 19.3913 67.9172 19.3913Z" fill="#111111"></path>
    <path d="M64.4583 31.654C64.2486 31.654 64.039 31.5492 63.8818 31.392L61.9952 29.348C61.6808 28.9812 61.6284 28.4571 61.8904 28.0378C62.2049 27.6186 62.7813 27.6186 63.1481 27.9854L64.301 29.2432L67.917 22.9019C68.179 22.4302 68.7555 22.273 69.1747 22.5874L69.6463 22.9543L65.2967 30.4486C64.9823 31.4444 64.7727 31.6016 64.5107 31.6016C64.5631 31.654 64.5107 31.654 64.4583 31.654Z" fill="#0A0A0A"></path>
    <path d="M64.4583 31.9163C64.1439 31.9163 63.8819 31.8115 63.6722 31.5495L61.7857 29.5055C61.3664 29.0339 61.314 28.3526 61.6809 27.8809C62.1001 27.3568 62.8862 27.3044 63.3578 27.8285L64.2487 28.8242L67.7074 22.7973C68.0219 22.2208 68.8603 22.0112 69.3844 22.4305L69.856 22.7973C69.9608 22.9021 70.0132 23.007 69.9084 23.1642L65.5588 30.6585C65.2444 31.5495 64.9824 31.9163 64.5631 31.9687C64.5631 31.9163 64.5107 31.9163 64.4583 31.9163ZM62.5717 27.9857C62.4145 27.9857 62.2573 28.0905 62.1525 28.1953C61.9429 28.4574 61.9953 28.8767 62.2049 29.1387L64.0915 31.1826C64.1963 31.3398 64.4059 31.3922 64.5631 31.3398C64.6679 31.3398 64.8252 31.2874 65.1396 30.3441V30.2917L69.3844 23.007L69.07 22.7973C68.7555 22.5877 68.3887 22.6925 68.1791 23.007L64.5631 29.3483C64.5107 29.4007 64.4583 29.4531 64.3535 29.4531C64.2487 29.4531 64.1963 29.4531 64.1439 29.3483L62.991 28.0905C62.8862 28.0381 62.729 27.9857 62.5717 27.9857Z" fill="#0A0A0A"></path>
    <path d="M64.9821 32.1791C64.7724 32.1791 64.5628 32.0742 64.4056 31.917L62.519 29.8207C62.2046 29.4538 62.2046 28.8774 62.519 28.5105C62.8335 28.1436 63.4099 28.1436 63.7243 28.5105L64.8772 29.7683L68.598 23.2697C68.86 22.8504 69.3841 22.6932 69.7509 22.9553C70.1701 23.2173 70.2749 23.7938 70.0129 24.213L65.7157 31.7074C65.5585 31.9694 65.3489 32.1266 65.0869 32.1266C65.0345 32.1791 64.9821 32.1791 64.9821 32.1791Z" fill="#8B75F3"></path>
    <path d="M64.9822 32.4406C64.6678 32.4406 64.4057 32.3358 64.1961 32.0738L62.3095 29.9774C61.8903 29.5058 61.8903 28.7721 62.3095 28.3004C62.7288 27.8287 63.4625 27.8287 63.8817 28.3004L64.7726 29.2961L68.3361 23.112C68.6505 22.5879 69.3842 22.3783 69.9083 22.7452C70.4323 23.112 70.5895 23.8457 70.2751 24.3698L65.9779 31.8641C65.8207 32.1786 65.5062 32.3882 65.1394 32.4406C65.0346 32.4406 64.9822 32.4406 64.9822 32.4406ZM63.0432 28.51C62.886 28.51 62.7288 28.5624 62.624 28.7197C62.362 28.9817 62.362 29.401 62.624 29.663L64.5105 31.7593C64.6154 31.9165 64.825 31.969 64.9822 31.9165C65.1394 31.9165 65.2966 31.7593 65.4014 31.6021L69.6986 24.1078C69.8558 23.7933 69.8034 23.374 69.489 23.1644C69.227 23.0072 68.8602 23.0596 68.7029 23.374L64.9822 29.8726C64.9298 29.925 64.8774 29.9774 64.7726 29.9774C64.6678 29.9774 64.6154 29.9774 64.563 29.8726L63.41 28.6148C63.3576 28.6148 63.2004 28.51 63.0432 28.51Z" fill="#111111"></path>
  </g>
  <defs>
    <clipPath id="clip0_3990_14929">
      <rect width="73" height="74" rx="18" fill="white"></rect>
    </clipPath>
  </defs>
</svg>
