<svg xmlns="http://www.w3.org/2000/svg" width="233" height="50" viewBox="0 0 233 50" fill="none"><g id="growthmentor-logos-idRl_BkXlY 1"><path id="Vector" fill-rule="evenodd" clip-rule="evenodd" d="M22.5987 39.0625H20.2609C16.3954 39.0625 13.2476 35.9145 13.2476 32.0312V27.3537C13.2476 26.7059 13.5099 26.1178 13.9342 25.6916C13.4942 24.7727 13.2476 23.7433 13.2476 22.6562V17.9788C13.2476 17.3309 13.5099 16.7428 13.9342 16.3166C13.4942 15.3977 13.2476 14.3683 13.2476 13.2812V8.60375C13.2476 7.30698 14.2987 6.25 15.5953 6.25H20.2609C21.1727 6.25 22.0445 6.42514 22.8445 6.74376C23.6563 3.75801 26.3839 1.5625 29.6121 1.5625H34.2777C35.5743 1.5625 36.6255 2.61947 36.6255 3.91624V8.59375C36.6255 9.68078 36.3788 10.7102 35.9388 11.6291C36.3631 12.0553 36.6255 12.6434 36.6255 13.2913V17.9688C36.6255 19.0558 36.3788 20.0852 35.9388 21.0041C36.3631 21.4303 36.6255 22.0184 36.6255 22.6663V27.3438C36.6255 31.227 33.4776 34.375 29.6121 34.375H27.2743V46.0938C27.2743 47.3882 26.2366 48.4375 24.9365 48.4375C23.6454 48.4375 22.5987 47.3923 22.5987 46.0938V39.0625ZM22.5987 32.0313C22.5987 30.7405 21.5477 29.6876 20.2609 29.6876H17.9231V32.0313C17.9231 33.3222 18.9741 34.3751 20.2609 34.3751H22.5987V32.0313ZM20.2609 20.3126C21.5477 20.3126 22.5987 21.3655 22.5987 22.6563V25.0001H20.2609C18.9741 25.0001 17.9231 23.9472 17.9231 22.6563V20.3126H20.2609ZM22.5987 13.2813C22.5987 11.9905 21.5477 10.9376 20.2609 10.9376H17.9231V13.2813C17.9231 14.5722 18.9741 15.6251 20.2609 15.6251H22.5987V13.2813ZM27.2743 10.9376V8.59383C27.2743 7.30296 28.3253 6.25009 29.6121 6.25009H31.9499V8.59383C31.9499 9.88469 30.8989 10.9376 29.6121 10.9376H27.2743ZM27.2743 17.9688V20.3126H29.6121C30.8989 20.3126 31.9499 19.2597 31.9499 17.9688V15.6251H29.6121C28.3253 15.6251 27.2743 16.678 27.2743 17.9688ZM27.2743 29.6876V27.3438C27.2743 26.053 28.3253 25.0001 29.6121 25.0001H31.9499V27.3438C31.9499 28.6347 30.8989 29.6876 29.6121 29.6876H27.2743Z" fill="#AAAAAA"></path><path id="Vector_2" d="M64.9445 18.3563V21.0359C63.9271 19.1851 62.1184 18.0801 59.6878 18.0801C55.9573 18.0801 52.9897 21.1188 52.9897 24.9309C52.9897 28.7431 55.9573 31.8094 59.6878 31.8094C62.1184 31.8094 63.9271 30.7045 64.9445 28.8259V31.4779C64.9445 33.8259 63.0228 35.3729 60.5357 35.3729C58.3313 35.3729 56.4943 34.3509 56.4095 32.6934H53.8376C54.0072 36.2016 57.7095 37.5 60.6205 37.5C64.6054 37.5 67.5446 35.152 67.5446 31.3674V18.3563H64.9445ZM60.2248 29.4337C57.5964 29.4337 55.5333 27.4448 55.5333 24.9309C55.5333 22.4448 57.5964 20.4558 60.2248 20.4558C62.938 20.4558 64.9445 22.3619 64.9445 24.9309C64.9445 27.5277 62.938 29.4337 60.2248 29.4337Z" fill="#AAAAAA"></path><path id="Vector_3" d="M77.3007 18.1079C75.6615 18.1079 74.3332 18.9642 73.5136 20.3178V18.3565H70.8853V31.8372H73.5136V24.2405C73.5136 21.8924 75.1528 20.4007 77.2159 20.4007C77.6681 20.4007 78.1487 20.4836 78.5726 20.6217V18.2737C78.1768 18.1631 77.7246 18.1079 77.3007 18.1079Z" fill="#AAAAAA"></path><path id="Vector_4" d="M86.0699 18.0801C82.0567 18.0801 78.9482 21.1464 78.9482 25.1243C78.9482 29.0746 82.0567 32.1133 86.0699 32.1133C90.0551 32.1133 93.1924 29.0746 93.1924 25.1243C93.1924 21.1464 90.0551 18.0801 86.0699 18.0801ZM86.0699 20.511C88.6423 20.511 90.6489 22.5 90.6489 25.1243C90.6489 27.6934 88.6423 29.6823 86.0699 29.6823C83.4703 29.6823 81.4918 27.6934 81.4918 25.1243C81.4918 22.5 83.4703 20.511 86.0699 20.511Z" fill="#AAAAAA"></path><path id="Vector_5" d="M98.8869 31.8371H100.95L104.568 22.1686L108.157 31.8371H110.249L115.279 18.3564H112.481L109.203 28.025L105.613 18.3564H103.494L99.9615 28.025L96.6543 18.3564H93.8848L98.8869 31.8371Z" fill="#AAAAAA"></path><path id="Vector_6" d="M124.807 20.7873V18.3564H121.076V14.71H118.476V18.3564H115.791V20.7873H118.476V27.0581C118.476 30.3454 120.398 32.0028 123.309 32.0028C123.789 32.0028 124.383 31.9475 124.807 31.8371V29.489C124.524 29.5718 124.156 29.5995 123.846 29.5995C122.207 29.5995 121.076 28.8813 121.076 27.0028V20.7873H124.807Z" fill="#AAAAAA"></path><path id="Vector_7" d="M134.254 18.0801C132.275 18.0801 130.722 19.047 129.845 20.7045V12.5H127.217V31.837H129.845V24.4061C129.845 22.058 131.343 20.511 133.661 20.511C135.95 20.511 137.419 22.058 137.419 24.4061V31.837H140.02V24.1298C140.02 20.4005 137.815 18.0801 134.254 18.0801Z" fill="#AAAAAA"></path><path id="Vector_8" d="M159.041 17.9971C157.288 17.9971 155.677 18.8257 154.858 19.986C154.01 18.5771 152.738 17.9971 150.929 17.9971C149.658 17.9971 148.019 18.4114 146.973 19.9031V18.2733H142.988V31.8368H146.973V24.323C146.973 22.555 148.132 21.7263 149.432 21.7263C150.901 21.7263 151.834 22.7208 151.834 24.323V31.8368H155.818V24.323C155.818 22.5827 157.006 21.7263 158.334 21.7263C159.775 21.7263 160.708 22.7208 160.708 24.323V31.8368H164.721V23.4114C164.721 20.1241 162.347 17.9971 159.041 17.9971Z" fill="#AAAAAA"></path><path id="Vector_9" d="M180.694 24.5993C180.694 20.87 177.614 17.9971 173.855 17.9971C169.813 17.9971 166.648 21.0357 166.648 24.986C166.648 28.9915 169.841 32.1131 173.94 32.1131C177.416 32.1131 180.044 30.207 180.496 27.2788H176.596C176.37 28.218 175.38 28.8811 173.827 28.8811C171.961 28.8811 170.576 27.7484 170.293 25.9804H180.609C180.665 25.5385 180.694 24.9031 180.694 24.5993ZM170.491 23.4943C170.972 21.8921 172.159 21.1462 173.685 21.1462C175.154 21.1462 176.426 22.1131 176.539 23.4943H170.491Z" fill="#AAAAAA"></path><path id="Vector_10" d="M190.379 17.9971C188.796 17.9971 187.496 18.7429 186.62 20.0412V18.2733H182.635V31.8368H186.62V24.6545C186.62 22.8865 187.694 21.7263 189.361 21.7263C191.001 21.7263 192.103 22.8865 192.103 24.6545V31.8368H196.088V24.1572C196.088 20.3175 193.94 17.9971 190.379 17.9971Z" fill="#AAAAAA"></path><path id="Vector_11" d="M207.013 21.9752V18.2736H203.594V14.71H199.609V18.2736H197.037V21.9752H199.609V26.3122C199.609 29.9586 201.813 32.0581 205.092 32.0581C205.657 32.0581 206.476 31.9752 207.013 31.8371V28.2459C206.702 28.3288 206.335 28.3564 205.996 28.3564C204.611 28.3564 203.594 27.7211 203.594 26.2569V21.9752H207.013Z" fill="#AAAAAA"></path><path id="Vector_12" d="M214.93 17.9971C210.832 17.9971 207.724 21.0357 207.724 25.0689C207.724 29.102 210.832 32.1131 214.93 32.1131C219 32.1131 222.137 29.102 222.137 25.0689C222.137 21.0357 219 17.9971 214.93 17.9971ZM214.93 21.7263C216.796 21.7263 218.237 23.1352 218.237 25.0689C218.237 26.9473 216.796 28.3838 214.93 28.3838C213.037 28.3838 211.624 26.9473 211.624 25.0689C211.624 23.1352 213.037 21.7263 214.93 21.7263Z" fill="#AAAAAA"></path><path id="Vector_13" d="M231.671 17.9971C230.117 17.9971 228.902 18.66 228.082 19.8203V18.2733H224.098V31.8368H228.082V25.1518C228.082 22.6379 229.637 21.5054 231.558 21.5054C232.039 21.5054 232.519 21.5882 233 21.6987V18.1628C232.548 18.0799 232.095 17.9971 231.671 17.9971Z" fill="#AAAAAA"></path></g></svg>