<svg xmlns="http://www.w3.org/2000/svg" width="239" height="230" viewBox="0 0 239 230" fill="none"><rect y="58" width="167" height="172" rx="20" fill="#D7FF65"></rect><g clip-path="url(#clip0_3507_3760)"><g opacity="0.5"><path d="M158.073 187.353L153.562 187.078C152.741 187.078 152.468 186.666 152.741 186.117C148.914 186.804 140.848 188.04 133.056 188.04C130.459 188.04 130.049 186.804 132.373 185.293L116.106 184.056C109.954 183.644 106.4 181.584 106.126 178.562H106.263C114.875 176.227 123.077 175.128 129.366 175.54L145.633 176.777C147.957 175.266 151.785 174.304 153.835 174.716C160.123 175.815 162.994 178.013 164.088 178.974C165.181 178.7 166.138 178.425 166.822 178.562L171.333 178.837C175.16 177.189 178.578 176.227 180.492 176.365L237.496 180.623C240.777 180.897 238.59 184.194 232.575 188.177C226.56 192.023 218.905 195.045 215.624 194.77L161.217 190.787L158.62 190.65C156.569 190.375 156.569 189.139 158.073 187.353Z" fill="#0B0B0B"></path></g><g opacity="0.5"><path d="M121.437 208.094L116.926 207.819C116.106 207.819 115.832 207.407 116.106 206.858C112.278 207.544 104.213 208.781 96.4205 208.781C93.8232 208.781 93.4131 207.544 95.737 206.033L79.4696 204.797C73.318 204.385 69.7638 202.325 69.4904 199.303H69.6271C78.2393 196.968 86.4413 195.869 92.7296 196.281L108.997 197.517C111.321 196.006 115.149 195.045 117.199 195.457C123.487 196.556 126.358 198.754 127.452 199.715C128.545 199.44 129.502 199.166 130.186 199.303L134.697 199.578C138.525 197.929 141.942 196.968 143.856 197.105L148.23 197.38L159.166 198.204L170.103 199.028L180.629 199.852C183.909 200.127 181.722 203.424 175.707 207.407C169.692 211.253 162.037 214.275 158.756 214L124.581 211.528L121.984 211.39C119.796 211.116 119.796 209.879 121.437 208.094Z" fill="#0B0B0B"></path></g><path d="M92.7297 121.422C94.3701 108.648 100.522 99.4453 100.522 99.4453H113.782C113.782 99.4453 119.933 108.648 121.574 121.422C121.984 124.581 119.523 127.466 116.379 127.466V149.443C116.379 157.821 113.098 165.788 107.22 171.832H107.083C101.205 165.925 97.9243 157.821 97.9243 149.443V127.466C94.7802 127.466 92.3196 124.581 92.7297 121.422Z" fill="#8B75F3"></path><path d="M107.083 172.656C107.357 172.656 107.63 172.519 107.767 172.381C113.782 166.2 117.199 158.096 117.199 149.443V128.153C118.703 128.015 119.933 127.191 120.89 126.092C122.12 124.719 122.531 122.933 122.394 121.285C120.753 108.373 114.739 99.308 114.465 98.896C114.328 98.6212 114.055 98.4839 113.782 98.4839H100.522C100.248 98.4839 99.9748 98.6212 99.8381 98.896C99.5647 99.308 93.5498 108.373 91.9094 121.285C91.636 123.071 92.1828 124.856 93.4131 126.092C94.3701 127.191 95.7371 127.878 97.1041 128.153V149.443C97.1041 158.096 100.385 166.2 106.536 172.381C106.673 172.519 106.81 172.656 107.083 172.656ZM113.372 100.27C114.465 102.055 119.386 110.571 120.753 121.56C120.89 122.933 120.48 124.169 119.66 125.131C118.84 126.092 117.609 126.642 116.242 126.642C115.832 126.642 115.422 127.054 115.422 127.466V149.443C115.422 157.409 112.415 164.964 106.947 170.733C101.479 164.964 98.4711 157.409 98.4711 149.443V127.466C98.4711 127.054 98.061 126.642 97.6509 126.642C96.2839 126.642 95.1903 126.092 94.2334 125.131C93.4131 124.169 93.003 122.796 93.1397 121.56C94.5068 110.434 99.428 102.055 100.522 100.27H113.372Z" fill="#0B0B0B"></path><path d="M106.81 136.806H107.904C111.321 136.806 114.192 134.059 114.192 130.488V101.094C114.192 97.6599 111.458 94.7754 107.904 94.7754H106.81C103.392 94.7754 100.522 97.5225 100.522 101.094V130.488C100.658 134.059 103.392 136.806 106.81 136.806Z" fill="#B5FDEA"></path><path d="M106.81 137.63H107.903C111.731 137.63 115.012 134.471 115.012 130.625V101.094C115.012 97.2476 111.868 94.0884 107.903 94.0884H106.81C102.982 94.0884 99.7014 97.2476 99.7014 101.094V130.488C99.8381 134.471 102.982 137.63 106.81 137.63ZM107.903 95.5993C110.911 95.5993 113.372 98.0717 113.372 101.094V130.488C113.372 133.509 110.911 135.982 107.903 135.982H106.81C103.802 135.982 101.342 133.509 101.342 130.488V101.094C101.342 98.0717 103.802 95.5993 106.81 95.5993H107.903Z" fill="#0B0B0B"></path><path d="M107.083 120.324H107.767C110.091 120.324 112.005 118.401 112.005 116.066V99.0334C112.005 96.6984 110.091 94.7754 107.767 94.7754H107.083C104.759 94.7754 102.846 96.6984 102.846 99.0334V116.066C102.709 118.401 104.623 120.324 107.083 120.324Z" fill="white"></path><path d="M107.083 121.148H107.767C110.501 121.148 112.825 118.813 112.825 116.065V99.0333C112.825 96.2862 110.501 93.9512 107.767 93.9512H107.083C104.349 93.9512 102.025 96.2862 102.025 99.0333V116.065C102.025 118.813 104.213 121.148 107.083 121.148ZM107.767 95.5994C109.681 95.5994 111.184 97.1103 111.184 99.0333V116.065C111.184 117.988 109.681 119.499 107.767 119.499H107.083C105.169 119.499 103.666 117.988 103.666 116.065V99.0333C103.666 97.1103 105.169 95.5994 107.083 95.5994H107.767Z" fill="#0B0B0B"></path><path d="M116.516 52.4697V98.6212C116.516 101.368 112.415 103.429 107.357 103.429C102.299 103.429 98.1977 101.231 98.1977 98.6212V52.4697H116.516Z" fill="#B5FDEA"></path><path d="M107.357 104.253C112.961 104.253 117.336 101.78 117.336 98.6211V52.4696C117.336 52.0576 116.926 51.6455 116.516 51.6455H98.1977C97.7876 51.6455 97.3775 52.0576 97.3775 52.4696V98.6211C97.3775 101.78 101.752 104.253 107.357 104.253ZM115.832 53.1564V98.4838C115.832 100.407 112.415 102.604 107.493 102.604C102.435 102.604 99.1546 100.544 99.1546 98.4838V53.1564H115.832Z" fill="#0B0B0B"></path><path d="M122.667 8.92822V85.9847C122.667 90.5174 115.832 94.0887 107.357 94.0887C98.8812 94.0887 92.0461 90.3801 92.0461 85.9847V8.92822H122.667Z" fill="#FFFA8A"></path><path d="M107.357 94.9127C116.379 94.9127 123.487 90.9294 123.487 85.9846V8.92814C123.487 8.51607 123.077 8.104 122.667 8.104H92.0461C91.636 8.104 91.2259 8.51607 91.2259 8.92814V85.9846C91.2259 90.9294 98.3344 94.9127 107.357 94.9127ZM121.984 9.75227V85.9846C121.984 89.9679 115.285 93.4018 107.493 93.4018C99.5647 93.4018 93.003 89.9679 93.003 85.9846V9.75227H121.984Z" fill="#0B0B0B"></path><g opacity="0.5"><path d="M104.349 8.92822V79.2543C104.349 90.1054 118.703 90.3801 122.667 82.5508V85.9847C122.667 90.5174 115.832 94.0887 107.357 94.0887C98.8812 94.0887 92.0461 90.3801 92.0461 85.9847V8.92822H104.349Z" fill="#554D43"></path></g><path d="M92.0461 8.9282C92.0461 13.4609 98.8812 17.0322 107.357 17.0322C115.832 17.0322 122.667 13.3236 122.667 8.9282C122.667 4.39546 115.832 0.824219 107.357 0.824219C98.8812 0.824219 92.0461 4.39546 92.0461 8.9282Z" fill="#FFEBB9"></path><path d="M107.357 17.8562C116.379 17.8562 123.487 13.8729 123.487 8.92811C123.487 3.98331 116.379 0 107.357 0C98.3344 0 91.2259 3.98331 91.2259 8.92811C91.2259 13.8729 98.3344 17.8562 107.357 17.8562ZM107.357 1.51091C115.285 1.51091 121.847 4.9448 121.847 8.92811C121.847 12.9114 115.149 16.3453 107.357 16.3453C99.428 16.3453 92.8663 12.9114 92.8663 8.92811C92.8663 4.9448 99.428 1.51091 107.357 1.51091Z" fill="#0B0B0B"></path><path d="M98.4711 10.1644C98.4711 12.7741 102.435 14.9718 107.357 14.9718C112.278 14.9718 116.242 12.9115 116.242 10.1644C116.242 7.55462 112.278 5.35693 107.357 5.35693C102.435 5.35693 98.4711 7.55462 98.4711 10.1644Z" fill="#FFFA8A"></path><path d="M109.134 13.4609C111.868 13.4609 115.422 12.4994 117.746 9.47759L116.516 8.5161C113.098 12.6368 107.357 12.2247 106.263 11.4006C105.99 11.1259 105.716 10.8511 105.716 10.5764C105.716 10.027 106.536 9.34023 107.357 8.65346C107.767 8.24139 108.314 7.82932 108.587 7.41725C109.407 6.59312 109.407 5.49428 108.86 4.8075C107.63 3.15923 103.392 2.88452 98.061 5.76899L98.7445 7.14254C103.666 4.53279 106.947 5.08221 107.493 5.76899C107.493 5.76899 107.63 6.0437 107.357 6.45577C107.083 6.86783 106.673 7.14254 106.263 7.55461C105.169 8.5161 104.076 9.47759 104.213 10.7138C104.213 11.4006 104.623 12.0873 105.443 12.7741C105.99 13.0488 107.357 13.4609 109.134 13.4609Z" fill="#0B0B0B"></path><path d="M104.676 4.78174L113.037 9.16699L112.342 10.5064L103.98 6.12116L104.676 4.78174Z" fill="#0B0B0B"></path><path d="M102.943 5.98148L111.305 10.3677L110.609 11.7071L102.247 7.3209L102.943 5.98148Z" fill="#0B0B0B"></path><path d="M93.8232 15.1089H94.6434V87.4953H93.8232V15.1089Z" fill="#FFFA8A"></path><path d="M95.6003 16.4829H96.4205V88.8693H95.6003V16.4829Z" fill="#FFFA8A"></path><path d="M97.3775 17.8564H98.1977V90.2428H97.3775V17.8564Z" fill="#FFFA8A"></path><path d="M102.709 19.6421H103.529V92.0285H102.709V19.6421Z" fill="#FFFA8A"></path><path d="M104.349 20.0537H105.169V92.4401H104.349V20.0537Z" fill="#FFFA8A"></path><path d="M106.126 19.6421H106.947V92.0285H106.126V19.6421Z" fill="#FFFA8A"></path><path d="M107.903 19.6421H108.724V92.0285H107.903V19.6421Z" fill="#FFFA8A"></path><path d="M109.681 19.6421H110.501V92.0285H109.681V19.6421Z" fill="#FFFA8A"></path><path d="M111.458 19.6421H112.278V92.0285H111.458V19.6421Z" fill="#FFFA8A"></path><path d="M100.932 19.23H101.752V91.6164H100.932V19.23Z" fill="#FFFA8A"></path><path d="M99.1546 18.543H99.9748V90.9294H99.1546V18.543Z" fill="#FFFA8A"></path><path d="M118.566 16.4829H119.386V88.8693H118.566V16.4829Z" fill="#FFFA8A"></path><path d="M116.789 17.8564H117.609V90.2428H116.789V17.8564Z" fill="#FFFA8A"></path><path d="M113.235 19.23H114.055V91.6164H113.235V19.23Z" fill="#FFFA8A"></path><path d="M115.012 18.543H115.832V90.9294H115.012V18.543Z" fill="#FFFA8A"></path><path d="M107.357 30.0809C116.379 30.0809 123.487 26.0976 123.487 21.1528H121.984C121.984 25.1361 115.285 28.57 107.493 28.57C99.5647 28.57 93.003 25.1361 93.003 21.1528H91.3626C91.2259 26.235 98.3344 30.0809 107.357 30.0809Z" fill="#0B0B0B"></path><path d="M107.357 44.7777C116.379 44.7777 123.487 40.7944 123.487 35.8496H121.984C121.984 39.8329 115.285 43.2668 107.493 43.2668C99.5647 43.2668 93.003 39.8329 93.003 35.8496H91.3626C91.2259 40.9318 98.3344 44.7777 107.357 44.7777Z" fill="#0B0B0B"></path><path d="M107.357 59.475C116.379 59.475 123.487 55.4917 123.487 50.5469H121.984C121.984 54.5302 115.285 57.9641 107.493 57.9641C99.5647 57.9641 93.003 54.5302 93.003 50.5469H91.3626C91.2259 55.629 98.3344 59.475 107.357 59.475Z" fill="#0B0B0B"></path><path d="M107.357 74.3095C116.379 74.3095 123.487 70.3261 123.487 65.3813H121.984C121.984 69.3647 115.285 72.7986 107.493 72.7986C99.5647 72.7986 93.003 69.3647 93.003 65.3813H91.3626C91.2259 70.3261 98.3344 74.3095 107.357 74.3095Z" fill="#0B0B0B"></path><path d="M107.357 89.0062C116.379 89.0062 123.487 85.0229 123.487 80.0781H121.984C121.984 84.0614 115.285 87.4953 107.493 87.4953C99.5647 87.4953 93.003 84.0614 93.003 80.0781H91.3626C91.2259 85.0229 98.3344 89.0062 107.357 89.0062Z" fill="#0B0B0B"></path><path d="M56.367 142.026C58.0075 129.252 64.159 120.049 64.159 120.049H77.4191C77.4191 120.049 83.5706 129.252 85.211 142.026C85.6211 145.185 83.1605 148.069 80.0164 148.069V170.046C80.0164 178.425 76.7355 186.392 70.8574 192.435H70.7207C64.8425 186.529 61.5617 178.425 61.5617 170.046V148.069C58.4176 148.069 55.9569 145.185 56.367 142.026Z" fill="#8B75F3"></path><path d="M70.8574 193.259C71.1308 193.259 71.4042 193.122 71.5409 192.985C77.5558 186.804 80.9733 178.7 80.9733 170.046V148.756C82.477 148.619 83.7073 147.795 84.6642 146.696C85.8945 145.322 86.3046 143.537 86.1679 141.888C84.5275 128.977 78.5127 119.912 78.2393 119.499C78.1026 119.225 77.8292 119.087 77.5558 119.087H64.2957C64.0223 119.087 63.7489 119.225 63.6122 119.499C63.3388 119.912 57.3239 128.977 55.6835 141.888C55.4101 143.674 55.9569 145.46 57.1873 146.696C58.1442 147.795 59.5112 148.482 60.8782 148.756V170.046C60.8782 178.7 64.159 186.804 70.3106 192.985C70.4473 193.122 70.584 193.259 70.8574 193.259ZM77.1456 120.736C78.2393 122.521 83.1605 131.037 84.5275 142.026C84.6642 143.399 84.2541 144.636 83.4339 145.597C82.6137 146.559 81.3834 147.108 80.0164 147.108C79.6063 147.108 79.1962 147.52 79.1962 147.932V169.909C79.1962 177.876 76.1887 185.43 70.7207 191.199C65.2526 185.43 62.2452 177.876 62.2452 169.909V147.932C62.2452 147.52 61.8351 147.108 61.425 147.108C60.1947 147.108 58.9644 146.559 58.0075 145.597C57.1873 144.636 56.7772 143.262 56.9139 142.026C58.2809 130.9 63.2021 122.521 64.2957 120.736H77.1456Z" fill="#0B0B0B"></path><path d="M70.584 157.409H71.6776C75.0952 157.409 77.9659 154.662 77.9659 151.091V121.56C77.9659 118.126 75.2319 115.241 71.6776 115.241H70.584C67.1665 115.241 64.2957 117.988 64.2957 121.56V151.091C64.2957 154.662 67.1665 157.409 70.584 157.409Z" fill="#B5FDEA"></path><path d="M70.584 158.233H71.6776C75.5052 158.233 78.7861 155.074 78.7861 151.091V121.559C78.7861 117.714 75.6419 114.417 71.6776 114.417H70.584C66.7564 114.417 63.4755 117.576 63.4755 121.559V151.091C63.6122 155.074 66.7564 158.233 70.584 158.233ZM71.6776 116.065C74.685 116.065 77.1456 118.538 77.1456 121.559V151.091C77.1456 154.113 74.685 156.585 71.6776 156.585H70.584C67.5766 156.585 65.1159 154.113 65.1159 151.091V121.559C65.1159 118.538 67.5766 116.065 70.584 116.065H71.6776Z" fill="#0B0B0B"></path><path d="M70.7207 140.927H71.4042C73.7282 140.927 75.642 139.004 75.642 136.669V119.637C75.642 117.302 73.7282 115.379 71.4042 115.379H70.7207C68.3968 115.379 66.483 117.302 66.483 119.637V136.669C66.483 139.004 68.3968 140.927 70.7207 140.927Z" fill="white"></path><path d="M70.7207 141.751H71.4042C74.1382 141.751 76.4622 139.416 76.4622 136.669V119.637C76.4622 116.89 74.1382 114.555 71.4042 114.555H70.7207C67.9867 114.555 65.6628 116.89 65.6628 119.637V136.669C65.6628 139.416 67.9867 141.751 70.7207 141.751ZM71.5409 116.066C73.4547 116.066 74.9584 117.577 74.9584 119.499V136.532C74.9584 138.455 73.4547 139.965 71.5409 139.965H70.8574C68.9436 139.965 67.4399 138.455 67.4399 136.532V119.637C67.4399 117.714 68.9436 116.203 70.8574 116.203H71.5409V116.066Z" fill="#0B0B0B"></path><path d="M80.2898 73.0732V119.225C80.2898 121.972 76.1887 124.032 71.1308 124.032C66.0729 124.032 61.9718 121.834 61.9718 119.225V73.0732H80.2898Z" fill="#B5FDEA"></path><path d="M71.1308 124.856C76.7355 124.856 81.11 122.384 81.11 119.225V73.0732C81.11 72.6611 80.6999 72.249 80.2898 72.249H61.9718C61.5617 72.249 61.1516 72.6611 61.1516 73.0732V119.225C61.1516 122.384 65.526 124.856 71.1308 124.856ZM79.4696 73.7599V119.087C79.4696 121.01 76.052 123.208 71.1308 123.208C66.0728 123.208 62.792 121.148 62.792 119.087V73.7599H79.4696Z" fill="#0B0B0B"></path><path d="M86.4413 56.8652V106.451C86.4413 110.983 79.6063 114.555 71.1308 114.555C62.6553 114.555 55.8202 110.846 55.8202 106.451V56.8652H86.4413Z" fill="#FFFA8A"></path><path d="M71.1308 115.516C80.1531 115.516 87.2615 111.533 87.2615 106.588V56.8652C87.2615 56.4531 86.8514 56.041 86.4413 56.041H55.8202C55.4101 56.041 55 56.4531 55 56.8652V106.451C55 111.533 62.1085 115.516 71.1308 115.516ZM85.6211 57.6893V106.588C85.6211 110.571 78.9227 114.005 71.1308 114.005C63.2021 114.005 56.6404 110.571 56.6404 106.588V57.6893H85.6211Z" fill="#0B0B0B"></path><g opacity="0.5"><path d="M68.1234 56.8652V99.8575C68.1234 110.709 82.477 110.983 86.4413 103.154V106.588C86.4413 111.121 79.6063 114.692 71.1308 114.692C62.6553 114.692 55.8202 110.983 55.8202 106.588V56.8652H68.1234Z" fill="#554D43"></path></g><path d="M55.8202 56.8652C55.8202 61.3979 62.6553 64.9692 71.1308 64.9692C79.6063 64.9692 86.4413 61.2606 86.4413 56.8652C86.4413 52.3325 79.6063 48.7612 71.1308 48.7612C62.6553 48.7612 55.8202 52.4698 55.8202 56.8652Z" fill="#FFEBB9"></path><path d="M71.1308 65.7932C80.1531 65.7932 87.2615 61.8099 87.2615 56.8651C87.2615 51.9203 80.1531 47.937 71.1308 47.937C62.1085 47.937 55 51.9203 55 56.8651C55 61.9473 62.1085 65.7932 71.1308 65.7932ZM71.1308 49.5853C79.0595 49.5853 85.6211 53.0192 85.6211 57.0025C85.6211 60.9858 78.9227 64.4197 71.1308 64.4197C63.2021 64.4197 56.6404 60.9858 56.6404 57.0025C56.5037 52.8818 63.2021 49.5853 71.1308 49.5853Z" fill="#0B0B0B"></path><path d="M62.1085 58.1014C62.1085 60.7111 66.0728 62.9088 70.9941 62.9088C75.9153 62.9088 79.8796 60.8485 79.8796 58.1014C79.8796 55.4916 75.9153 53.2939 70.9941 53.2939C66.2095 53.4313 62.1085 55.4916 62.1085 58.1014Z" fill="#FFFA8A"></path><path d="M72.7712 61.3979C75.5052 61.3979 79.0594 60.4364 81.3834 57.4146L80.1531 56.4531C76.7355 60.5738 70.9941 60.1617 69.9005 59.3376C69.6271 59.0629 69.3537 58.7882 69.3537 58.5134C69.3537 57.964 70.1739 57.2772 70.9941 56.5905C71.4042 56.1784 71.951 55.7663 72.2244 55.3543C73.0446 54.5301 73.0446 53.4313 72.4978 52.7445C71.2675 51.0962 67.0297 50.8215 61.6984 53.706L62.3819 55.0796C67.3031 52.4698 70.584 53.0192 71.1308 53.706C71.1308 53.706 71.2675 53.9807 70.9941 54.3928C70.7207 54.8048 70.3106 55.0796 69.9005 55.4916C68.8068 56.4531 67.7132 57.4146 67.8499 58.6508C67.8499 59.3376 68.26 60.0244 69.0802 60.7111C69.7637 61.1232 71.1308 61.3979 72.7712 61.3979Z" fill="#0B0B0B"></path><path d="M68.4704 52.7436L76.8322 57.1289L76.1364 58.4683L67.7746 54.0831L68.4704 52.7436Z" fill="#0B0B0B"></path><path d="M66.6779 54.0711L75.0435 58.4487L74.349 59.7888L65.9834 55.4111L66.6779 54.0711Z" fill="#0B0B0B"></path><path d="M57.5973 63.0459H58.4175V107.961H57.5973V63.0459Z" fill="#FFFA8A"></path><path d="M59.3745 64.4199H60.1947V109.335H59.3745V64.4199Z" fill="#FFFA8A"></path><path d="M61.1516 65.7935H61.9718V110.709H61.1516V65.7935Z" fill="#FFFA8A"></path><path d="M66.3462 67.7163H67.1664V112.632H66.3462V67.7163Z" fill="#FFFA8A"></path><path d="M68.1233 67.9907H68.9435V112.906H68.1233V67.9907Z" fill="#FFFA8A"></path><path d="M69.9005 67.7163H70.7207V112.632H69.9005V67.7163Z" fill="#FFFA8A"></path><path d="M71.6776 67.7163H72.4978V112.632H71.6776V67.7163Z" fill="#FFFA8A"></path><path d="M73.4547 67.7163H74.2749V112.632H73.4547V67.7163Z" fill="#FFFA8A"></path><path d="M75.2318 67.5786H76.0521V112.494H75.2318V67.5786Z" fill="#FFFA8A"></path><path d="M64.5691 67.167H65.3893V112.082H64.5691V67.167Z" fill="#FFFA8A"></path><path d="M62.792 66.48H63.6122V111.395H62.792V66.48Z" fill="#FFFA8A"></path><path d="M82.2036 64.4199H83.0238V109.335H82.2036V64.4199Z" fill="#FFFA8A"></path><path d="M80.5632 65.7935H81.3834V110.709H80.5632V65.7935Z" fill="#FFFA8A"></path><path d="M77.009 67.167H77.8292V112.082H77.009V67.167Z" fill="#FFFA8A"></path><path d="M78.7861 66.48H79.6063V111.395H78.7861V66.48Z" fill="#FFFA8A"></path><path d="M71.1308 80.078C80.1531 80.078 87.2615 76.0947 87.2615 71.1499H85.6211C85.6211 75.1332 78.9227 78.5671 71.1308 78.5671C63.2021 78.5671 56.6404 75.1332 56.6404 71.1499H55C55 76.2321 62.1085 80.078 71.1308 80.078Z" fill="#0B0B0B"></path><path d="M71.1308 94.9125C80.1531 94.9125 87.2615 90.9292 87.2615 85.9844H85.6211C85.6211 89.9677 78.9227 93.4016 71.1308 93.4016C63.2021 93.4016 56.6404 89.9677 56.6404 85.9844H55C55 90.9292 62.1085 94.9125 71.1308 94.9125Z" fill="#0B0B0B"></path><path d="M71.1308 109.61C80.1531 109.61 87.2615 105.626 87.2615 100.682H85.6211C85.6211 104.665 78.9227 108.099 71.1308 108.099C63.2021 108.099 56.6404 104.665 56.6404 100.682H55C55 105.626 62.1085 109.61 71.1308 109.61Z" fill="#0B0B0B"></path></g><defs><clipPath id="clip0_3507_3760"><rect width="184" height="214" fill="white" transform="matrix(-1 0 0 1 239 0)"></rect></clipPath></defs></svg>