<svg xmlns="http://www.w3.org/2000/svg" xmlns:v="https://vecta.io/nano" width="45" height="33" fill="none"><g fill="#D7FF65"><path d="M10.752 18.888c-.021-.053-.009-.109.005-.159-.02-.035-.029-.077-.03-.117l.021-.218c-.058.068-.147.113-.232.114-.017-.003-.035-.003-.053-.002-.048.173-.225.28-.398.236-.085-.017-.158-.076-.205-.152a.66.66 0 0 1-.033-.078c-.015-.056-.017-.115-.005-.174l.111-.693.107-.583.233-1.238.276-1.385.274-1.217.118-.457.096-.345c.009-.047.027-.092.04-.134l.076-.203c.029-.079.085-.139.134-.204.064-.076.185-.101.278-.078.039.008.07.027.102.047l.111-.311.104-.255c.038-.081.095-.141.156-.204.05-.048.114-.08.185-.083.067 0 .151.021.194.074.029.032.054.064.078.1.027.041.041.106.045.155.003.076-.008.15-.019.227l-.027.226-.032.274-.089.627-.22 1.285-.238 1.259-.246 1.347-.179 1.035-.101.549-.044.222-.028.141-.02.098c-.008.043-.03.083-.051.123-.027.048-.065.08-.111.111a.31.31 0 0 1-.05.026l-.004.021c-.006.03-.02.054-.042.076-.028.03-.073.052-.117.052l-.038-.008a.17.17 0 0 1-.128-.119l-.002-.009z"></path><path d="M13.976 14.774s-.006-.015-.013-.025c-.001.004.006.014.009.02l.004.005zm-.5 1.527l-.085-.11c-.021-.031-.037-.061-.053-.091-.009-.02-.024-.036-.033-.056l-.092-.161-.169-.314-.185-.366-.147-.309-.61-1.375-.335-.796-.162-.392-.068-.173-.066-.16a.63.63 0 0 1-.041-.128c-.011-.033-.013-.069-.006-.103l.012-.104c.024-.12.137-.199.255-.207a.59.59 0 0 1 .128.003l.06.012c.008-.083.063-.161.129-.201a.3.3 0 0 1 .133-.04.32.32 0 0 1 .14.032c.078.033.124.091.173.159.027.041.048.094.071.134l.092.183.146.291.336.725.604 1.298.368.74.194.385a5.62 5.62 0 0 1 .224.525c.046.125-.024.275-.131.343-.04.023-.083.037-.124.042-.055.051-.138.088-.212.082-.03-.006-.062-.003-.091-.009-.009.043-.031.087-.068.12-.05.052-.118.079-.185.083-.018.001-.04.001-.066-.004-.051-.01-.104-.034-.133-.071l-.002.013z"></path><path d="M17.712 20.252c-.136-.032-.234-.14-.267-.267-.022.022-.044.044-.074.061a.35.35 0 0 1-.27.04c-.128-.026-.238-.123-.279-.251a.41.41 0 0 1-.02-.146l.017-.13-.06-.012c-.077-.015-.133-.049-.18-.098-.063-.061-.122-.167-.117-.259l.029-.234.052-.661.072-.875.203-1.711.22-1.303.041-.205-.248.195-1.328 1.02-.33.25c-.136.102-.269.213-.422.289-.119.061-.256.104-.391.069l-.437.322a.33.33 0 0 1-.326.006c-.104-.056-.155-.16-.168-.274-.011-.122.049-.221.129-.312.028-.03.064-.054.097-.083l.205-.181.329-.268c.021-.014.038-.033.058-.046.023-.027.041-.05.067-.071l.326-.322.58-.524.626-.533.74-.59.577-.441a1.57 1.57 0 0 1 .136-.102c.036-.024.079-.038.117-.052.044-.018.138-.021.183-.003.034.007.067.022.099.037.048.027.096.077.126.127.135-.098.266-.2.418-.268.025-.013.053-.021.078-.033.056-.015.115-.017.174-.005.017.003.03.006.046.014a.27.27 0 0 1 .089-.045c.052-.016.106-.019.161-.004s.099.038.14.077c.018.021.032.042.05.059a.33.33 0 0 1 .045.151l.029.255v.289c.002.058-.006.119-.004.177l-.013.42-.05.786-.069.835-.103.94-.243 1.667-.34 1.661-.068.297c-.047.191-.24.312-.432.274l-.021-.009zm2.423.06a.43.43 0 0 1-.138-.134l-.04-.088a.41.41 0 0 1-.005-.197l.151-.379.105-.215.143-.292.354-.663.382-.666.405-.671.84-1.295.836-1.251.574-.988c.081-.139.164-.31.339-.341.056-.015.11-.018.165-.003a.29.29 0 0 1 .145.078c.037.038.068.085.084.137.003.027.007.055.015.079.002.058-.014.113-.041.161l-.098.203-.005.026c-.008.038-.015.077-.031.109l.121-.14c.045-.049.091-.102.148-.139.026-.017.05-.03.084-.041s.074-.016.115-.017c.018-.001.04-.001.056.007a.17.17 0 0 1 .042-.01.1.1 0 0 1 .075.046c.01.015.01.038.011.056a.25.25 0 0 1 .028.059c.01.038.012.074.004.112-.016.148-.108.276-.183.404l-.113.186-.171.277-.413.647-.868 1.325-.858 1.296-.288.441-.021.04-.498.981-.154.303-.088.174-.059.117-.043.08c-.028.052-.069.102-.105.148-.027.026-.058.046-.096.057-.062.019-.112.004-.169-.02-.025-.009-.056-.033-.074-.05a.24.24 0 0 1-.067-.155c-.043.036-.089.089-.139.141a.35.35 0 0 1-.162.097c-.062.019-.12.021-.18.009-.038-.008-.076-.02-.108-.039l-.009.003z"></path><path d="M27.539 21.365c-.106-.025-.182-.09-.24-.177a2.16 2.16 0 0 1-.123-.207c-.029-.055-.053-.113-.077-.171l-.037-.083c-.015.006-.034.015-.048.017a.32.32 0 0 1-.114.013c-.007.034-.014.073-.033.1-.033.056-.07.084-.118.123-.057.042-.152.05-.215.033l-.07-.027c-.044-.026-.077-.06-.104-.101a.9.9 0 0 1-.072-.108c-.026-.045-.047-.098-.069-.147l-.039-.092-.073-.192-.123-.344-.237-.749-.376-1.48-.309-1.262-.09-.218-.208-.45-.286-.572-.257-.496-.119-.228-.091-.169a1.86 1.86 0 0 1-.078-.167c-.03-.073-.043-.142-.04-.221s.025-.146.08-.202c-.036-.087-.088-.16-.14-.232a1.09 1.09 0 0 0-.121-.131c-.028.008-.062.001-.079-.029-.013-.025-.023-.04-.022-.067-.001-.04.022-.067.056-.078.044-.018.091-.009.131.013a.79.79 0 0 1 .169.132c.06.056.109.124.158.187l.098.131.091.014c.021.004.043.009.063.021a1.19 1.19 0 0 1-.048-.139c-.015-.056-.018-.11-.002-.169.016-.081.075-.154.146-.197.126-.077.282-.055.392.042.113.103.182.245.254.375l.1.189.222.471-.021-.049.325.754.151.381.16.445.165.486.061.163.539 1.49.31.831.296.721.018.044.577 1.297c.022.067.021.138.003.205-.025.102-.09.186-.177.24a.41.41 0 0 1-.281.051l-.028-.015z"></path><path d="M21.947 18.535c-.041-.039-.072-.085-.087-.142-.01-.038-.015-.079-.012-.118-.009-.002-.022 0-.035-.003-.038-.008-.061-.03-.071-.067-.014-.043.017-.085.055-.1.044-.018.093-.021.143-.025.022-.022.044-.044.07-.062l.041-.027c.04-.023.079-.038.12-.043-.004-.023-.009-.046-.008-.073-.001-.174.066-.329.213-.424.113-.075.232-.092.363-.105a2.22 2.22 0 0 1 .251-.012 7.92 7.92 0 0 1 .853.046l.83.117a3.1 3.1 0 0 1 .762.258c.113.058.231.113.326.194a.54.54 0 0 1 .132.164.73.73 0 0 1 .07.205c.028.103.02.213-.035.309a.37.37 0 0 1-.078.1c.094.019.188.038.274.077.174.084.14.366-.047.413a.45.45 0 0 1-.137.017c-.049-.001-.096-.01-.144-.015l-.095-.015-.193-.034-.432-.086-.834-.166-1.628-.262c-.043-.009-.087-.009-.134-.018l-.389-.033a.29.29 0 0 1-.148-.083l.002.014zm6.681-3.438zm.011.011zm4.786 6.363a13.44 13.44 0 0 1-1.049-1.138l-1.021-1.301-.633-.837-.709-.924-.288-.36-.732-.83-.479-.629a1.86 1.86 0 0 1-.184-.326.47.47 0 0 1-.032-.264c.008-.043.026-.084.047-.124s.055-.074.095-.097c.022-.022.051-.034.085-.045.083-.037.177-.04.267-.022a1.06 1.06 0 0 1 .196.066l-.121-.108c-.03-.006-.037-.016-.044-.022-.028-.014-.036-.043-.031-.068.009-.047.053-.065.087-.058.06.012.111.044.157.08l.194.163a3.26 3.26 0 0 1 .169.176l.241.266.047.054c.22.191.423.4.631.606l.216.234.281.309.233.282.291.347.448.565.958 1.28.664.906.339.485.174.266a1.15 1.15 0 0 1 .073.126.71.71 0 0 1 .051.099l.055.127c.003.009.004.023.007.032l.022.133c-.007.034-.009.069-.012.104a.34.34 0 0 1-.097.176c-.011.011-.022.022-.038.032.001.085-.034.171-.091.235a.33.33 0 0 1-.298.092.32.32 0 0 1-.161-.085l-.004-.001z"></path><path d="M33.41 14.739l.004-.021-.004.021zm-.577.667l-.409.603-.894 1.364-.874 1.399-.247.413.191-.246.522-.7.443-.618c.007-.012.018-.023.025-.035l.356-.627.835-1.425.254-.403.183-.27c.002-.008.007-.012.013-.02l-.396.561-.001.004zm-3.324 6.378a.39.39 0 0 1-.149-.145c-.04-.066-.058-.132-.057-.203l-.138.115c-.034.038-.079.06-.126.077-.075.02-.158.013-.227-.023-.14-.077-.189-.255-.112-.396l.902-1.562.392-.629.243-.374.185-.283.909-1.326.912-1.276.527-.704.261-.33.117-.141.102-.109c.039-.041.079-.086.132-.103.038-.01.08.003.099.038.016.03.014.061.001.085-.002.008-.012.015-.014.024s-.008.016-.009.025-.018.023-.028.03l-.02.032c-.017.019-.036.046-.06.077-.011.011-.024.031-.042.054.002-.009.012-.015.018-.023-.006.008-.013.02-.019.027s-.007.012-.013.02l.113-.142a.53.53 0 0 1 .147-.113.31.31 0 0 1 .299-.007c.12.068.169.198.143.331-.008.043-.016.081-.038.121.038.008.077.015.112.04.152.084.228.303.131.457-.065.103-.147.202-.219.299l-.139.186-.248.333c-.002.009-.012.015-.018.023l-.131.187-.481.717-.879 1.376-.561.919-.614 1.051c-.056.104-.159.173-.27.195l-.251.434-.113.186-.054.091a1.18 1.18 0 0 1-.136.191c-.047.057-.109.103-.167.149-.061.037-.127.059-.203.057-.032.003-.061-.003-.091-.009-.043-.008-.079-.025-.12-.046l.001-.004z"></path></g><mask id="A" maskUnits="userSpaceOnUse" x="-1.216" y="-.258" width="47.251" height="33.9" fill="#000"><path fill="#fff" d="M-1.216-.258h47.251v33.9H-1.216z"></path><path d="M21.025 27.699l-.027-.005.032.006-.005-.001zm-9.527-4.024s.036.013.052.021c-.016-.003-.037-.013-.052-.021zm26.261 2.626l-.046.035c.014-.014.033-.027.046-.035zm.006-.004h0zM2.336 12.904s-.013.036-.021.051c.003-.016.013-.036.021-.051zm.004-.021h0zm39.828 2.557s.003-.016-.001-.023c.001.023.008.046.01.063l-.009-.041zm-.008-.046s.002.017.007.023c.001-.005-.002-.017-.007-.023zM13.965 4.945l.051-.006-.051.006-.005-.001.005.001-.051.006.051-.006zm.369-.06l-.051.006.051-.006zm12.236.461l.054.011-.054-.011zm2.993.802l.027.005-.027-.005zm7.041 20.947l-1.001.496.56-.239 1.076-.537.558-.34c.16-.102.312-.222.463-.337l.728-.662c.225-.234.43-.482.626-.738l.389-.585.373-.671c.228-.445.426-.906.613-1.37l.407-1.177.351-1.233.603-2.524.157-1.038.047-.737c.001-.256-.022-.505-.055-.757l-.129-.582c-.055-.2-.129-.388-.207-.581l-.277-.539a5.42 5.42 0 0 0-.351-.504l-.205-.23-.256-.251c-.155-.142-.32-.27-.484-.397l-.157-.109.153.209c.411.566.702 1.203.981 1.843l.365.936.123.42.071.343.038.23c.066.425.058.858.044 1.289l-.056.646-.1.698c-.068.398-.18.794-.291 1.183l-.358 1.209c-.268.843-.537 1.691-.93 2.487-.188.386-.407.754-.633 1.11l-.409.57-.382.464c-.397.427-.812.835-1.271 1.205l-.171.133.06-.049a7.48 7.48 0 0 1-1.062.718zm-3.63.663zm-.022.001zm-21.539-4.124s-.036-.013-.051-.021c-.021-.004-.041-.019-.068-.025l.119.046zm1.434.492l1.279.405 2.442.743 2.52.663 1.187.359 1.289.379 2.503.66 1.244.27 1.244.187.913.115 1.188.075 1.322-.009 1.263-.049 1.244-.12.53-.061c-.011-.002-.017.002-.029.005l.242-.041.32-.07.676-.205 1.284-.518 1.015-.51a7.48 7.48 0 0 0 .873-.605l.926-.845.427-.466a5.78 5.78 0 0 0 .336-.428l.341-.511c.111-.167.209-.348.305-.524.197-.345.354-.714.499-1.081l.754-2.305.311-1.14c.096-.37.15-.755.193-1.136l.032-.411.016-.526c.004-.3-.026-.595-.062-.892l-.056-.278-.116-.396a9.07 9.07 0 0 0-.265-.682l-.536-1.086-.338-.568-.349-.487-.324-.359c-.115-.123-.242-.238-.37-.352l-.76-.63-.724-.506-.927-.547c-.301-.166-.618-.307-.931-.442l-.91-.382-1.163-.426-1.219-.399-2.432-.713-1.858-.487-.165-.038-.09.004-.376.014-.532.044c-.249.017-.497.062-.749.096l-.999.179-1.134.242-1.094.261-1.113.274c-.135.034-.272-.032-.317-.169-.041-.131.038-.276.168-.312l2.616-.687 1.184-.265.105-.024-2.094-.2-1.247-.087-1.254-.111-2.544-.123c-.841-.028-1.681-.006-2.516.044l-1.086.084-1.047.137-1.172.234-1.218.353-1.206.378-1.196.413-.218.09-.854.426-.99.749-1.174 1.03a12.56 12.56 0 0 0-1.095 1.218l-.201.283c-.086.122-.157.258-.233.388a6.26 6.26 0 0 0-.34.728c.005-.027.02-.046.026-.073l-.092.238c.005-.027.02-.046.026-.073-.004.021-.013.036-.022.057l-.193.607c-.053.212-.09.422-.127.637-.02.241-.036.488-.018.731l.038.425.043.315.105.505c.038.175.092.347.143.513.098.32.221.623.349.932l.327.65.4.675.461.704.434.588.236.27.335.334c.202.19.418.362.635.533l.969.672 1.076.721 1.072.687c.36.205.738.375 1.118.54l.114.045.16.065 1.18.396.036-.015zm17.493 4.581l-1.13.025.569.024a10.03 10.03 0 0 0 .996-.052l.383-.046-.816.043-.001.005zm-19.283-3.591l-.041-.019c.011.002.027.005.037.013l.004.006zm.264.103s-.036-.013-.051-.021c-.011-.002-.021-.004-.036-.013.032.006.057.022.088.034zm1.154.414l1.164.421 2.477.766 2.445.532 2.44.336c.021.004.043.008.065.007l-.038-.008 1.278.127.692.049c-.102-.02-.207-.052-.308-.078l-2.428-.673-1.267-.38-1.219-.315-2.547-.691-2.401-.757-1.3-.437-.624-.252-.601-.281a6.58 6.58 0 0 1-.6-.342 8.16 8.16 0 0 1-.541-.358l-1.032-.718c-.741-.504-1.496-.994-2.14-1.617a6.65 6.65 0 0 1-.844-.992l-.705-1.076-.605-1.128c-.181-.404-.345-.815-.466-1.24l-.157-.638-.114-.685c-.052-.411-.074-.833-.03-1.247l.046-.369.071-.359a3.52 3.52 0 0 1 .168-.562l.276-.685.211-.442-.224.284-.416.607c-.139.223-.244.469-.349.715-.071.186-.129.369-.178.56s-.077.385-.099.581l-.021.33.009.458c.012.247.047.494.082.735l.127.565.163.55a5.68 5.68 0 0 0 .204.542l.209.487.348.687.401.698.44.7.454.63.573.649.705.714.676.636.67.551.823.537.84.479c.556.311 1.12.613 1.714.848l.16.065.093.035c-.021-.004-.046-.02-.068-.025.027.005.052.021.072.031l1.217.437.01.007zm4.557 1.988c-.843-.185-1.683-.419-2.505-.683l-1.228-.434-1.179-.43-1.26-.468a12.63 12.63 0 0 1-1.112-.516l-1.173-.657-1.055-.661-.548-.41-.503-.44-.896-.869-.448-.462-.462-.532a9.73 9.73 0 0 1-.733-1.02c-.462-.727-.911-1.467-1.236-2.267l-.4-1.126-.083-.312-.076-.344-.053-.294-.042-.32a6.05 6.05 0 0 1 .002-1.269 4.49 4.49 0 0 1 .301-1.204l.045-.114c-.005.027-.02.046-.031.072l.058-.15c-.005.027-.02.046-.031.072a6.48 6.48 0 0 1 .276-.602c.091-.177.203-.349.309-.517.242-.375.519-.732.8-1.082l.861-.964a10.85 10.85 0 0 1 .941-.865c.669-.563 1.394-1.069 2.154-1.502l1.195-.602.846-.332.924-.501c.167-.084.35-.164.525-.229l.576-.18 1.051-.242 1.136-.219.104-.018.138-.023-.011-.002.087-.016c.409-.069.842-.116 1.27-.137h1.315l.249.011.527-.017 1.302.009 1.257.039 1.243.081 1.272.103 1.323.097 1.268.124 1.189.126 1.312.211 1.223.294 1.831.51 1.262.318 1.269.425.958.419 2.084.894 1.141.622.746.505.829.427c.767.403 1.523.855 2.176 1.436a4.84 4.84 0 0 1 .859 1.001 5.41 5.41 0 0 1 .3.533l.256.591.178.615.111.673c.023.194.027.395.027.59l-.04.649c-.093.861-.267 1.706-.484 2.542l-.675 2.493-.434 1.255-.246.591-.283.611c-.181.376-.391.735-.617 1.085a8.07 8.07 0 0 1-.816 1.051c-.144.161-.301.307-.458.454l-.496.419-.533.384-.595.36a14.98 14.98 0 0 1-1.124.555l-1.241.499c-.806.296-1.65.479-2.496.616l-1.285.189c-.407.058-.817.104-1.23.106l-.677-.012-.662-.06-1.267-.186-.632-.126-.703-.134-1.397-.2.048.01-1.278-.099-1.228-.072-2.625-.272-1.244-.187-.558-.106-.759-.162-.002-.017z"></path></mask><path d="M21.025 27.699l-.027-.005.032.006-.005-.001zm-9.527-4.024s.036.013.052.021c-.016-.003-.037-.013-.052-.021zm26.261 2.626l-.046.035c.014-.014.033-.027.046-.035zm.006-.004h0zM2.336 12.904s-.013.036-.021.051c.003-.016.013-.036.021-.051zm.004-.021h0zm39.828 2.557s.003-.016-.001-.023c.001.023.008.046.01.063l-.009-.041zm-.008-.046s.002.017.007.023c.001-.005-.002-.017-.007-.023zM13.965 4.945l.051-.006-.051.006-.005-.001.005.001-.051.006.051-.006zm.369-.06l-.051.006.051-.006zm12.236.461l.054.011-.054-.011zm2.993.802l.027.005-.027-.005zm7.041 20.947l-1.001.496.56-.239 1.076-.537.558-.34c.16-.102.312-.222.463-.337l.728-.662c.225-.234.43-.482.626-.738l.389-.585.373-.671c.228-.445.426-.906.613-1.37l.407-1.177.351-1.233.603-2.524.157-1.038.047-.737c.001-.256-.022-.505-.055-.757l-.129-.582c-.055-.2-.129-.388-.207-.581l-.277-.539a5.42 5.42 0 0 0-.351-.504l-.205-.23-.256-.251c-.155-.142-.32-.27-.484-.397l-.157-.109.153.209c.411.566.702 1.203.981 1.843l.365.936.123.42.071.343.038.23c.066.425.058.858.044 1.289l-.056.646-.1.698c-.068.398-.18.794-.291 1.183l-.358 1.209c-.268.843-.537 1.691-.93 2.487-.188.386-.407.754-.633 1.11l-.409.57-.382.464c-.397.427-.812.835-1.271 1.205l-.171.133.06-.049a7.48 7.48 0 0 1-1.062.718zm-3.63.663zm-.022.001zm-21.539-4.124s-.036-.013-.051-.021c-.021-.004-.041-.019-.068-.025l.119.046zm1.434.492l1.279.405 2.442.743 2.52.663 1.187.359 1.289.379 2.503.66 1.244.27 1.244.187.913.115 1.188.075 1.322-.009 1.263-.049 1.244-.12.53-.061c-.011-.002-.017.002-.029.005l.242-.041.32-.07.676-.205 1.284-.518 1.015-.51a7.48 7.48 0 0 0 .873-.605l.926-.845.427-.466a5.78 5.78 0 0 0 .336-.428l.341-.511c.111-.167.209-.348.305-.524.197-.345.354-.714.499-1.081l.754-2.305.311-1.14c.096-.37.15-.755.193-1.136l.032-.411.016-.526c.004-.3-.026-.595-.062-.892l-.056-.278-.116-.396a9.07 9.07 0 0 0-.265-.682l-.536-1.086-.338-.568-.349-.487-.324-.359c-.115-.123-.242-.238-.37-.352l-.76-.63-.724-.506-.927-.547c-.301-.166-.618-.307-.931-.442l-.91-.382-1.163-.426-1.219-.399-2.432-.713-1.858-.487-.165-.038-.09.004-.376.014-.532.044c-.249.017-.497.062-.749.096l-.999.179-1.134.242-1.094.261-1.113.274c-.135.034-.272-.032-.317-.169-.041-.131.038-.276.168-.312l2.616-.687 1.184-.265.105-.024-2.094-.2-1.247-.087-1.254-.111-2.544-.123c-.841-.028-1.681-.006-2.516.044l-1.086.084-1.047.137-1.172.234-1.218.353-1.206.378-1.196.413-.218.09-.854.426-.99.749-1.174 1.03a12.56 12.56 0 0 0-1.095 1.218l-.201.283c-.086.122-.157.258-.233.388a6.26 6.26 0 0 0-.34.728c.005-.027.02-.046.026-.073l-.092.238c.005-.027.02-.046.026-.073-.004.021-.013.036-.022.057l-.193.607c-.053.212-.09.422-.127.637-.02.241-.036.488-.018.731l.038.425.043.315.105.505c.038.175.092.347.143.513.098.32.221.623.349.932l.327.65.4.675.461.704.434.588.236.27.335.334c.202.19.418.362.635.533l.969.672 1.076.721 1.072.687c.36.205.738.375 1.118.54l.114.045.16.065 1.18.396.036-.015zm17.493 4.581l-1.13.025.569.024a10.03 10.03 0 0 0 .996-.052l.383-.046-.816.043-.001.005zm-19.283-3.591l-.041-.019c.011.002.027.005.037.013l.004.006zm.264.103s-.036-.013-.051-.021c-.011-.002-.021-.004-.036-.013.032.006.057.022.088.034zm1.154.414l1.164.421 2.477.766 2.445.532 2.44.336c.021.004.043.008.065.007l-.038-.008 1.278.127.692.049c-.102-.02-.207-.052-.308-.078l-2.428-.673-1.267-.38-1.219-.315-2.547-.691-2.401-.757-1.3-.437-.624-.252-.601-.281a6.58 6.58 0 0 1-.6-.342 8.16 8.16 0 0 1-.541-.358l-1.032-.718c-.741-.504-1.496-.994-2.14-1.617a6.65 6.65 0 0 1-.844-.992l-.705-1.076-.605-1.128c-.181-.404-.345-.815-.466-1.24l-.157-.638-.114-.685c-.052-.411-.074-.833-.03-1.247l.046-.369.071-.359a3.52 3.52 0 0 1 .168-.562l.276-.685.211-.442-.224.284-.416.607c-.139.223-.244.469-.349.715-.071.186-.129.369-.178.56s-.077.385-.099.581l-.021.33.009.458c.012.247.047.494.082.735l.127.565.163.55a5.68 5.68 0 0 0 .204.542l.209.487.348.687.401.698.44.7.454.63.573.649.705.714.676.636.67.551.823.537.84.479c.556.311 1.12.613 1.714.848l.16.065.093.035c-.021-.004-.046-.02-.068-.025.027.005.052.021.072.031l1.217.437.01.007zm4.557 1.988c-.843-.185-1.683-.419-2.505-.683l-1.228-.434-1.179-.43-1.26-.468a12.63 12.63 0 0 1-1.112-.516l-1.173-.657-1.055-.661-.548-.41-.503-.44-.896-.869-.448-.462-.462-.532a9.73 9.73 0 0 1-.733-1.02c-.462-.727-.911-1.467-1.236-2.267l-.4-1.126-.083-.312-.076-.344-.053-.294-.042-.32a6.05 6.05 0 0 1 .002-1.269 4.49 4.49 0 0 1 .301-1.204l.045-.114c-.005.027-.02.046-.031.072l.058-.15c-.005.027-.02.046-.031.072a6.48 6.48 0 0 1 .276-.602c.091-.177.203-.349.309-.517.242-.375.519-.732.8-1.082l.861-.964a10.85 10.85 0 0 1 .941-.865c.669-.563 1.394-1.069 2.154-1.502l1.195-.602.846-.332.924-.501c.167-.084.35-.164.525-.229l.576-.18 1.051-.242 1.136-.219.104-.018.138-.023-.011-.002.087-.016c.409-.069.842-.116 1.27-.137h1.315l.249.011.527-.017 1.302.009 1.257.039 1.243.081 1.272.103 1.323.097 1.268.124 1.189.126 1.312.211 1.223.294 1.831.51 1.262.318 1.269.425.958.419 2.084.894 1.141.622.746.505.829.427c.767.403 1.523.855 2.176 1.436a4.84 4.84 0 0 1 .859 1.001 5.41 5.41 0 0 1 .3.533l.256.591.178.615.111.673c.023.194.027.395.027.59l-.04.649c-.093.861-.267 1.706-.484 2.542l-.675 2.493-.434 1.255-.246.591-.283.611c-.181.376-.391.735-.617 1.085a8.07 8.07 0 0 1-.816 1.051c-.144.161-.301.307-.458.454l-.496.419-.533.384-.595.36a14.98 14.98 0 0 1-1.124.555l-1.241.499c-.806.296-1.65.479-2.496.616l-1.285.189c-.407.058-.817.104-1.23.106l-.677-.012-.662-.06-1.267-.186-.632-.126-.703-.134-1.397-.2.048.01-1.278-.099-1.228-.072-2.625-.272-1.244-.187-.558-.106-.759-.162-.002-.017z" fill="#D7FF65"></path><path d="M11.499 23.675l.133-.377-.331.725.198-.348zm.052.021l-.078.392.276-.74-.198.348zm26.209 2.605l.251.311-.473-.644.222.333zm-.046.035l-.283-.283.505.616-.222-.333zm.052-.04l-.222-.333-.138.092-.032.163.392.078zm.006-.004l.222.333-.444-.665.222.333zm-.014.014l-.392-.078-.038.191.127.148.304-.26zm.006-.004l.222.333.138-.092.032-.163-.392-.078zM2.336 12.904l.377.133-.725-.331.347.198zm-.021.051l-.392-.078.74.276-.347-.198zm39.854 2.484l-.392-.078-.016.08.017.08.391-.083zm.009.041l-.391.083.788-.133-.397.05zm-.016-.087l.333-.222-.729.272.397-.05zm-5.556 11.702l-.191-.352-.003.002.194.35zm-1.001.496l-.167-.363.323.732-.155-.369zm.56-.239l.161.366.007-.003-.168-.363zm1.076-.537l.196.349.002-.001-.198-.348zm.558-.34l-.215-.337h-.001l.216.337zm.463-.337l.242.319.007-.005.007-.006-.256-.308zm.728-.662L38.7 25.2l-.002.003.291.275zm.626-.738l.318.243.005-.007.005-.007-.328-.229zm.389-.585l-.342-.208-.002.004.344.203zm.373-.671l-.356-.183-.003.006.359.177zm.613-1.37l.371.15.004-.011-.375-.139zm.407-1.177l.382.119.002-.006-.384-.113zm.351-1.233l.386.103h0l-.386-.103zm.603-2.524l-.393-.072v.001l.394.071zm.157-1.038l.397.047v-.004l-.398-.043zm.047-.737l-.4-.001v.003l.4-.002zm-.055-.757l.397-.053-.001-.007-.001-.007-.394.067zm-.129-.582l.387-.101-.001-.005-.386.106zm-.207-.581l.371-.15-.004-.01-.004-.01-.363.169zm-.277-.539l.352-.19-.004-.007-.004-.006-.345.203zm-.351-.504l.319-.241-.007-.009-.007-.008-.306.258zm-.205-.23l.295-.27-.006-.007-.006-.006-.283.283zm-.256-.251l.275-.29-.005-.005-.27.295zm-.484-.397l.245-.316-.006-.005-.006-.004-.233.325zm-.157-.109l.233-.325-.544.576.311-.252zm.153.209l-.332.222.004.006.005.006.324-.235zm.981 1.843l-.367.16.001.001.366-.161zm.365.936l-.381.122.001.003.38-.125zm.123.42l.39-.09-.001-.003-.389.092zm.071.343l-.396.056.002.012.394-.068zm.038.23l.395-.061-.001-.007-.394.068zm.044 1.289l.4.018v-.005l-.4-.013zm-.056.646l.398.041v-.004l-.398-.038zm-.1.698l-.394-.069v.002l.394.067zm-.291 1.183l-.385-.11v.001l.385.108zm-.358 1.209l.381.121.001-.003-.382-.118zm-.93 2.487l-.359-.177-.001.002.359.175zm-.633 1.11l.335.218.002-.003-.337-.215zm-.409.57l-.316-.245-.003.004.319.242zm-.382.464l.293.272.004-.005-.297-.268zm-1.271 1.205l-.252-.311-.006.005.257.306zm-.171.133l-.267-.298.506.619-.239-.321zm.06-.049l.267.298-.515-.612.248.314zm-26.255-2.742l-.126.38.259-.757-.133.377zm-.051-.021l.198-.348-.056-.032-.064-.013-.078.392zm-.068-.025l.078-.392-.204.772.126-.38zm1.553.538l.12-.382-.139-.044-.134.055.152.37zm1.279.405l.123-.381-.002-.001-.121.381zm2.442.743l.105-.386h-.002l-.103.386zm2.52.663l-.105.386h.001l.104-.386zm1.187.359l-.119.382.004.001.116-.383zm1.289.379l.11-.384-.003-.001-.107.385zm2.503.66l-.1.387h.002l.098-.388zm1.244.27l-.073.393h0l.073-.393zm1.244.187l-.053.397h.003l.05-.397zm.913.115l-.05.397.01.001.04-.398zm1.188.075l-.006.4h.003l.004-.4zm1.322-.009l.006.4h.004l-.01-.4zm1.263-.049l.032.399h.001l-.033-.399zm1.244-.12l.038.398.008-.001-.046-.397zm.53-.061l.046.397.032-.79-.078.392zm-.029.005l-.105-.386.164.782-.058-.396zm.242-.041l.083.391.005-.001-.088-.39zm.32-.07l.105.386-.105-.386zm.676-.205l-.138-.375-.003.001.141.375zm1.284-.518l.161.366.008-.004-.169-.363zm1.015-.51l.198.348.002-.001-.2-.347zm.873-.605l.247.315.01-.009-.257-.306zm1.353-1.311l-.299-.266-.005.006.304.26zm.336-.428l.322.237.005-.007-.327-.23zm.341-.511l-.333-.222-.002.003.335.218zm.305-.524l-.347-.198-.003.006.351.192zm.499-1.081l.372.148.003-.007-.374-.141zm.754-2.305l-.383-.116-.001.003.384.112zm.311-1.14l-.387-.1v.001l.387.1zm.193-1.136l.398.044.001-.014-.399-.031zm.032-.411l.399.031.001-.007v-.007l-.4-.017zm.016-.526l-.4-.005v.001l.4.005zm-.062-.892l.397-.048-.001-.008-.001-.008-.395.065zm-.056-.278l-.388.099.002.007.386-.106zm-.116-.396l-.38.125.003.008.377-.132zm-.265-.682l.369-.155-.005-.01-.364.165zm-.536-1.086l-.351.192.002.004.349-.196zm-.338-.568l.337-.216-.004-.006-.333.222zm-.349-.487l.319-.241-.008-.01-.008-.009-.303.261zm-.324-.359l-.293.273.002.002.291-.275zm-.37-.352l-.27.295.003.003.267-.298zm-.76-.63l.245-.316-.008-.006-.237.322zm-.724-.506l.218-.335-.002-.001-.216.336zm-.927-.547l-.193.35.005.003.188-.353zm-.931-.442l-.161.366.002.001.158-.367zm-.91-.382l.149-.371-.004-.002-.145.373zm-1.163-.426l-.133.377.004.001.129-.379zm-1.219-.399l-.121.381.003.001.118-.382zm-2.432-.713l-.108.385.002.001.106-.386zm-1.858-.487l.095-.389-.008-.002-.008-.002-.078.392zm-.165-.038l.113-.384-.056-.016h-.058v.4zm-.09.004l.011.4.02-.001.02-.002-.05-.397zm-.376.014l-.028-.399-.006.001.034.399zm-.532.044l.028.399h.003l-.031-.399zm-.749.096l-.052-.397-.013.002.066.395zm-.999.179l-.078-.392h-.001l.078.392zm-1.134.242l-.083-.391-.005.001.088.39zm-1.094.261l.091.39.005-.001-.095-.388zm-1.113.274l-.098-.388h-.001l.099.388zm-.317-.169l-.382.119.002.006.38-.125zm.168-.312l.105.386h.001l-.107-.386zm2.616-.687l.096.388.002-.001-.098-.388zm1.184-.265l.075.393.015-.003.015-.004-.105-.386zm.105-.024l.105.386-.064-.784-.041.398zm-2.094-.2l-.032.399h.003l.029-.399zm-5.045-.32l-.014.4h.002l.011-.4zm-2.516.044l-.024-.399h-.001l.025.399zm-1.086.084l.042.398h.002l-.044-.398zm-1.047.137l-.059-.396-.008.001.067.394zm-1.172.234l-.094-.389h-.003l.097.388zm-3.62 1.144l-.143-.374-.009.004.152.37zm-.218.09l-.152-.37-.007.003-.007.003.166.364zm-.854.426L7.86 7.7l-.024.013-.022.016.234.324zm-.99.749l-.249-.313-.002.001.251.312zm-1.174 1.03l.281.284.001-.001-.282-.284zM4.789 11.05l-.316-.245-.005.007.321.239zm-.201.283l-.326-.232-.002.003.328.23zm-.233.388l-.345-.202-.004.006.349.196zm-.34.728l-.392-.078.763.227-.371-.149zm.026-.073l.392.078-.762-.232.369.154zm-.092.238l-.392-.078.763.227-.371-.149zm.003-.016l-.362-.171-.008.016-.006.017.375.138zm-.193.607l-.388-.098v.001l.388.098zm-.127.637l-.394-.068-.003.017-.001.018.399.033zm-.018.731l-.399.03h0l.399-.031zm.038.425l.398-.044v-.002l-.397.045zm.043.315l-.397.05.002.014.003.014.392-.078zm.105.505l.391-.084-.001-.005-.39.089zm.143.513l-.383.116h0l.383-.117zm.349.932l-.37.153.004.01.005.01.361-.173zm.327.65l-.346.2.001.002.345-.202zm.4.675l-.339.212h0l.339-.213zm.461.704l-.329.227v.001l.329-.227zm.434.588l-.314.248.007.008.007.008.3-.264zm.236.27l-.293.272.003.003.29-.275zm.335.334l.275-.291-.001-.001-.274.291zm.635.533l-.248.314.006.005.006.005.235-.323zm.969.672l.221-.333-.002-.002-.219.335zm1.076.721l.229-.328-.003-.002-.225.331zm1.072.687l-.2.347.001.001.198-.348zm1.118.54l-.159.367.013.006.013.005.133-.377zm.114.045l-.078.392.211-.77-.133.377zm-.011-.002l.078-.392-.225.764.147-.372zm.17.067l-.147.372.003.001.144-.373zm1.18.396l-.119.382.138.043.133-.055-.152-.37zm17.529 4.566l.009.4.32-.008.063-.314-.392-.078zm-1.13.025l-.004-.4-.029.799.033-.399zm.569.024v-.4h-.002l.003.4zm.996-.052l-.039-.398h0l.04.398zm.383-.046l.06.395-.088-.794.027.399zm-.816.043l-.011-.4-.319.009-.062.313.392.078zm-19.285-3.585l-.154.369 1.22.507-.734-1.099-.333.222zm-.041-.019l.078-.392-.276.74.198-.348zm.037.013l.333-.222-.036-.054-.051-.04-.245.316zm.268.109l-.133.377.274-.751-.142.374zm-.051-.021l.198-.347-.056-.032-.064-.013-.078.392zm-.036-.013l.078-.392-.276.74.198-.348zm1.242.448l-.245.316.051.039.06.022.134-.377zm1.164.421l-.134.377h0l.134-.377zm2.477.766l-.1.387h.002l.099-.388zm2.445.532l-.065.395h0l.065-.395zm2.44.336l.078-.392-.017-.003-.017-.002-.044.398zm.065.007l.019.399.059-.792-.078.392zm-.038-.008l.043-.398-.121.79.078-.392zm1.278.127l-.038.398h.006l.031-.399zm.692.049l-.022.399.1-.792-.078.392zm-.308-.078l.099-.388h0l-.098.388zm-2.428-.673l-.117.383h.001l.116-.383zm-1.267-.38l.112-.384-.003-.001-.108.385zm-1.219-.315l-.1.387h.002l.098-.388zm-2.547-.691l-.114.383h.002l.112-.384zm-2.401-.757l-.12.382h.002l.118-.382zm-1.3-.437l.138-.376-.002-.001-.135.376zm-1.225-.534l-.177.359.004.002.173-.361zm-.6-.342l.214-.338-.01-.006-.204.344zm-.541-.358l.231-.327-.006-.004-.225.331zm-1.032-.718l.226-.33-.001-.001-.225.331zm-2.14-1.617l.278-.288v-.001l-.278.288zm-.844-.992l.329-.228-.002-.003-.326.231zm-.705-1.076l-.346.201.002.003.344-.204zm-.605-1.128l.366-.162-.001-.002-.365.164zm-.466-1.24l-.386.106.001.004.385-.11zm-.157-.638l.393-.075v-.002l-.393.077zm-.114-.685l-.397.05v.006l.396-.056zm-.03-1.247l-.398-.044v.002l.398.042zm.046-.369l-.392-.078-.002.008-.001.009.395.061zm.239-.921l.373.143.002-.006-.376-.138zm.276-.685l.365.163.003-.007-.368-.156zm.211-.442l.351.191-.667-.436.316.245zm-.224.284l-.316-.245-.007.01.323.236zm-.416.607l-.339-.213v.001l.339.212zm-.349.715l-.368-.157-.003.007-.003.008.374.142zm-.278 1.141l-.397-.045-.001.013-.001.013.4.019zm-.021.33l-.4-.019v.011l.4.008zm.009.458l.4-.019v-.003l-.399.023zm.082.735l-.396.058.002.014.003.013.391-.086zm.494 1.657l.37-.153-.002-.006-.367.158zm.209.487l-.363.168.003.006.36-.175zm.348.687l-.351.191.004.006.348-.198zm.401.698l-.345.203.003.005.342-.208zm.44.7l.336-.217h0l-.336.218zm.454.63l-.322.237.007.01.008.01.307-.257zm.573.649l-.29.276.001.001.289-.277zm.705.714l-.283.283.001.001.281-.285zm.676.636l-.267.298.001.001.266-.299zm.67.551l-.243.318.007.005.007.005.228-.328zm.823.537l-.211.34.003.002.207-.342zm.84.479l.195-.349H9.47l-.194.35zm1.714.848l.153-.369-.006-.003-.147.372zm.16.065l-.154.37.012.005.141-.374zm.093.035l-.078.392.22-.766-.142.374zm.004.006l-.078.392.249-.754-.171.362zm-.005-.001l.078-.392-.215.768.137-.376zm1.222.438l.245-.316-.051-.04-.062-.022-.132.378zm4.566 1.995l.397-.05-.035-.28-.276-.06-.085.391zm-2.505-.683l.122-.381h0l-.122.381zm-1.228-.434l.141-.374-.003-.001-.138.375zm-1.179-.43l-.135.377h.001l.134-.377zm-1.26-.468l-.15.371h.001l.149-.371zm-1.112-.516l.185-.355h0l-.185.355zm-1.173-.657l.202-.345-.004-.002-.198.348zm-1.055-.661l-.231.326.003.002.228-.329zm-.548-.41l-.252.311.004.003.249-.313zm-.503-.44l-.269.296.269-.296zm-.896-.869l.283-.283-.283.283zm-.448-.462l-.297.268.004.005.292-.273zm-.462-.532l-.306.258.001.001.305-.259zm-.733-1.02l-.337.215.001.001.337-.216zm-1.236-2.267l-.371.15v.001l.371-.151zm-.4-1.126l.387-.101-.001-.005-.386.106zm-.083-.312l.39-.088v-.002l-.39.09zm-.076-.344l-.393.077.003.012.39-.09zm-.053-.294l-.395.062.001.007.001.007.392-.077zm-.042-.32l-.398.042v.002l.398-.044zm.002-1.269l.398.042h0l-.398-.042zm.301-1.204l.371.149.003-.008.003-.008-.377-.133zm.045-.114l.392.078-.772-.204.38.126zm.027-.078l.392.078-.758-.24.366.161zm-.031.072l-.373-.145.742.298-.369-.154zm.276-.602l-.356-.183-.001.001.356.182zm.309-.517l-.336-.217-.002.004.338.213zm.8-1.082l-.31-.253-.002.002.312.251zm.861-.964l-.289-.277-.002.002.291.275zm.941-.865l.254.309.003-.003-.257-.306zm2.154-1.502l-.195-.349-.003.001.198.348zm1.195-.602l-.154-.369-.004.002.159.367zm.846-.332l.139.375.031-.012.029-.017-.199-.347zm.924-.501l-.179-.358-.001.001.18.357zm.525-.229l-.133-.377-.007.003.14.375zm.576-.18l-.108-.385-.002.001.11.385zm1.051-.242l-.083-.391h-.001l.084.391zm1.136-.219l-.05-.397-.008.001-.008.001.066.395zm.104-.018l.105.386-.027-.778-.078.392zm-.017.002l-.222-.333.272.73-.05-.397zm.155-.025l.05.397.028-.789-.078.392zm-.011-.002l-.073-.393-.005.786.078-.392zm.087-.016l.073.393.005-.786-.078.392zm-.011-.002l-.063-.395-.015.787.078-.392zm1.28-.135l-.017-.4h-.002l.019.4zm1.315 0l-.008.4h.009v-.4zm.249.011l-.026.399.024.002.024-.001-.022-.399zm.527-.017l-.007-.4h0l.007.4zm1.302.009l.01-.4h-.002l-.008.4zm1.257.039l.021-.399h-.004l-.016.4zm1.243.081l.032-.399h-.001l-.031.399zm1.272.103l.024-.399h-.002l-.022.399zm1.323.097l-.034.399h.002l.032-.399zm1.268.124l-.042.398h.002l.04-.398zm1.189.126l.058-.396-.012-.001-.046.397zm2.534.505l-.103.386h.002l.102-.387zm1.831.51l-.111.384.014.004.014.003.083-.391zm1.262.318l.116-.383-.003-.001-.112.384zm1.269.425l-.145.373h0l.144-.373zm.958.419l-.174.36.014.007.015.006.145-.373zm2.084.894l-.175.36h.001l.174-.36zm1.141.622l-.212.339.002.001.21-.34zm.746.505l-.235.324.027.019.03.015.178-.358zm.829.427l.186-.354-.002-.001-.185.355zm2.176 1.436l-.266.299h0l.266-.299zm.859 1.001l.337-.216h0l-.336.216zm.3.533l.362-.171-.003-.006-.359.177zm.256.591l.381-.123-.003-.008-.378.132zm.178.615l.393-.077-.001-.002-.392.079zm.111.673l.397-.046h0l-.397.047zm.027.59l.4.008v-.008h-.4zm-.04.649l.398.043v-.005l-.398-.039zm-.484 2.542l-.387-.1-.001.003.388.098zm-.675 2.493l.383.116v-.001l-.383-.115zm-.434 1.255l-.371-.149v.001l.372.148zm-.246.591l-.368-.157-.002.004.369.154zm-.283.611l.361.173.001-.002-.362-.171zm-.617 1.085l.336.217h0l-.336-.217zm-.816 1.051l-.296-.269-.002.003.299.266zm-.954.873l.239.321.006-.005-.245-.316zm-.533.384l-.216-.337-.006.004.222.333zm-.595.36l.197.348.003-.002-.199-.347zm-1.124.555l.161.366.006-.003-.167-.364zm-1.241.499l-.135-.377-.003.001.138.375zm-2.496.616l-.064-.395h-.001l.066.395zm-1.285.189l-.055-.396h-.002l.057.396zm-1.23.106l-.002.4h.003l-.001-.4zm-.677-.012l.021-.399h-.001l-.019.4zm-.662-.06l-.043.398h.004l.039-.398zm-1.267-.186l-.078.392.01.002.068-.394zm-1.335-.26l.069-.394h0l-.069.394zm-1.397-.2l.046-.397-.124.79.078-.392zm.048.01l-.043.398.121-.79-.078.392zm-1.278-.099l-.02.399h.002l.018-.4zm-1.228-.072l-.034.399h.003l.031-.399zm-2.625-.272l-.052.397h.001l.051-.397zm-1.244-.187l-.078.392.01.002.068-.394zm-1.317-.268l-.397.05.034.273.268.065.095-.389zm3.993.061l.078-.392h0 0 0l-.02-.004-.163.783.02.004.007.001h0 0l.078-.392zm-.105.387l.02.004.169-.782-.02-.004-.169.782zm.188-.778l-.005-.001-.156.785.005.001.156-.785zm-9.61-3.633l-.133.377c.021.008.008.004-.014-.008l.396-.695c-.037-.021-.076-.036-.084-.039l-.022-.008c-.011-.004-.011-.004-.143.373zm.13-.371c.017.003.03.007.037.01l.031.014-.396.695a.59.59 0 0 0 .171.066l.156-.785zm26.131 2.997l-.251-.311-.017.014.444.665.053-.039.02-.016c.002-.002.002-.002-.249-.313zm.237.318l-.016.015-.443-.665c-.006.004-.06.038-.107.085l.566.566zm-.23-.322l.222.333-.438-.67-.006.004c0 0 0 0 .222.333zm.006-.004l-.222-.333-.042.031a.43.43 0 0 0-.049.048c-.009.011-.071.079-.093.189l.785.156c-.012.061-.036.105-.049.127a.38.38 0 0 1-.038.053.35.35 0 0 1-.04.039l-.018.014c-.011.008-.011.008-.233-.325zm-.014.014c-.304.26-.092.389.156.368l.033-.016.025-.014-.43-.675.026-.015.033-.016c.248-.021.46.108.156.368zm.399.074l.001-.005-.785-.156-.001.005.785.156zM2.336 12.904l-.377-.133c-.008.021-.004.008.008-.014l.695.396c.021-.037.036-.076.039-.084l.008-.022c.004-.011.004-.011-.373-.143zm.371.13c-.003.017-.007.03-.01.037l-.014.032-.695-.396c-.014.025-.05.091-.066.172l.785.156zm-.367-.151l-.392-.078.781.172c.003-.016.003-.016-.389-.094zm.389.094l.004-.02-.784-.158-.004.02.784.158zm-.78-.178l-.001.005.785.156.001-.005-.785-.156zm40.22 2.64l.392.078.004-.023.004-.042a.45.45 0 0 0-.003-.079c-.003-.027-.015-.101-.066-.178l-.665.445c-.049-.074-.059-.143-.062-.166-.004-.03-.003-.053-.002-.064l.003-.029c.003-.018.003-.018.395.06zm-.401-.003a.64.64 0 0 0 .011.087l.795-.094-.006-.037-.8.043zm.8-.039l-.009-.041-.783.166.009.041.783-.166zm-.407-.004l-.397.05.007.042.012.047c.005.014.019.058.051.106l.665-.445c.03.045.042.085.045.094l.008.032.004.021c0 .002 0 .002-.397.053zm.399.102c.02-.098-.003-.178-.008-.195-.009-.031-.025-.079-.059-.129l-.665.444c-.029-.043-.042-.082-.048-.104-.004-.014-.008-.032-.011-.055s-.006-.062.005-.118l.785.156zM13.965 4.945l.05.397.051-.006-.1-.794-.032.004c-.019.002-.019.002.031.399zm.002-.403l-.026.003-.026.003.1.794.026-.003.026-.003-.1-.794zm-.002.403l-.078.392h0 0 0 0 0 0 0 0 0 0 0 0 0 0 0 0 0 0 0 0 0 0 0l.162-.784-.005-.001h0 0 0 0 0 0 0 0 0 0 0 0 0 0 0 0 0 0 0 0 0 0l-.078.392zm.084-.391l-.011-.002-.156.785.011.002.156-.785zm-.167.782l.005.001.156-.785-.005-.001-.156.785zm.083-.391l-.05-.397-.051.006.1.794.032-.004c.019-.002.019-.002-.03-.399zm-.002.403l.026-.003.026-.003-.1-.794-.026.003-.026.003.1.794zm.37-.464l-.05-.397-.052.006.1.794.032-.004c.019-.002.019-.002-.03-.399zm-.002.403l.026-.003.026-.003-.1-.794-.026.003-.026.003.1.794zm12.238.058l-.078.392h0 0l.02.004.02.004.171-.782-.02-.004-.02-.004-.014-.003h0l-.078.392zm.132-.382l-.02-.004-.02-.004-.17.782.02.004.02.004.17-.782zm2.861 1.184l-.078.392h0l.02.004.163-.783-.02-.004-.007-.001-.078.392zm.105-.387l-.02-.004-.163.783.02.004.163-.783zm6.743 20.984l-.975.483.335.727 1.028-.51-.387-.7zm-.653 1.215l.566-.241-.322-.733-.555.237.31.737zm.573-.245l1.104-.551-.392-.698-1.048.523.336.726zm1.106-.553l.576-.351-.432-.673-.539.329.395.695zm.575-.35c.177-.113.347-.247.489-.355l-.484-.637-.436.318.43.674zm.503-.366l.763-.695-.581-.55c-.208.22-.44.419-.693.629l.512.615zm.76-.692a8.95 8.95 0 0 0 .656-.773l-.635-.486-.597.704.576.555zm.666-.787l.406-.61-.689-.407c-.108.183-.236.363-.373.56l.657.457zm.403-.606l.39-.702-.718-.353-.356.641.684.415zm.387-.697c.236-.46.439-.934.628-1.402l-.742-.299-.598 1.337.712.365zm.632-1.413l.414-1.197-.764-.239-.4 1.157.75.278zm.416-1.203l.354-1.242-.773-.206-.349 1.223.767.226zm.354-1.243l.61-2.556-.787-.142c-.15.835-.372 1.652-.596 2.492l.773.206zm.61-2.555l.16-1.062-.794-.095-.153 1.013.787.144zm.161-1.067l.049-.782-.8.004a6.17 6.17 0 0 1-.044.691l.795.086zm.049-.778c.001-.28-.024-.549-.059-.811l-.793.106a5.18 5.18 0 0 1 .052.703l.8.003zm-.061-.825l-.136-.616-.774.202.122.549.789-.135zm-.138-.621c-.062-.225-.144-.433-.222-.626l-.742.3.192.537.772-.211zm-.231-.645l-.287-.56-.704.38.266.518.725-.338zm-.295-.573c-.117-.199-.255-.381-.376-.542l-.639.481.326.466.689-.406zm-.389-.559l-.216-.243-.59.541.194.217.612-.515zm-.228-.256l-.263-.258-.551.58.249.245.565-.566zm-.269-.263c-.169-.155-.346-.292-.508-.418l-.491.632.459.376.54-.59zm-.52-.427l-.085-.06-.071-.05-.467.65.085.059.071.05.467-.65zm-.701.467l.132.18.665-.445-.175-.238-.622.503zm.141.192c.383.527.659 1.127.938 1.768l.733-.32c-.279-.639-.585-1.313-1.024-1.918l-.648.47zm.939 1.769l.35.897.762-.245a10.05 10.05 0 0 0-.38-.974l-.732.322zm.351.9l.113.387.778-.185c-.037-.157-.085-.312-.132-.452l-.76.25zm.113.384l.065.309.792-.112c-.019-.136-.053-.271-.077-.377l-.779.18zm.067.321l.018.11.02.12.788-.136-.018-.11-.02-.12-.788.136zm.037.223c.059.384.053.782.039 1.215l.8.025c.014-.43.024-.897-.048-1.363l-.791.122zm.04 1.21l-.055.626.796.075.058-.666-.799-.035zm-.054.622l-.096.671.788.138.104-.726-.796-.083zm-.096.672c-.064.374-.17.748-.282 1.141l.769.219.301-1.225-.788-.135zm-.282 1.142l-.355 1.199.764.237.361-1.219-.77-.217zm-.354 1.196l-.907 2.431.717.354c.408-.827.686-1.705.952-2.542l-.762-.242zm-.908 2.433c-.179.367-.389.721-.611 1.07l.675.43.655-1.149-.719-.351zm-.609 1.067l-.389.543.632.491.428-.597-.67-.437zm-.392.547l-.361.438.595.535.404-.49-.638-.483zm-.356.433a11.91 11.91 0 0 1-1.229 1.167l.503.622c.477-.386.907-.808 1.312-1.244l-.586-.545zm-1.235 1.171l-.153.118.478.641.19-.147-.515-.612zm.353.737l.06-.049-.534-.596-.06.049.534.596zm-.455-.661a7.1 7.1 0 0 1-1.005.68l.382.703a7.88 7.88 0 0 0 1.119-.756l-.496-.627zm-4.445 1.694c.078-.392 0 0-.078.392h0 0 0 0 0 0 0 0 0 0 0 0 0 0 0 0 0 0 0 0 0 0 0 0 0 0 0 0 0 0 0 0 0 0 0 0 0 0 0 0 0 0 0 0 0 0 0 0 0 0 0 0 0 0l.161-.784-.005-.001h0 0 0 0 0 0 0 0 0 0 0 0 0 0 0 0 0 0 0 0 0 0 0 0 0 0 0 0 0 0 0 0 0 0 0 0 0 0 0 0 0 0 0 0 0 0 0 0 0 0 0 0 0l-.078.392zm.005.001c-.078.392 0 0 .078-.392h0 0 0 0 0 0 0 0 0 0 0 0 0 0 0 0 0 0 0 0 0 0 0 0 0 0 0 0 0 0 0 0 0 0 0 0 0 0 0 0l-.161.784.005.001h0 0 0 0 0 0 0 0 0 0 0 0 0 0 0 0 0 0 0 0 0 0 0 0 0 0 0 0 0 0 0 0 0 0 0 0 0 0 0l.078-.392zm-.028 0l-.078.392h0 0 0 0 0 0 0 0 0 0 0 0 0 0l.167-.783-.011-.002h0 0 0 0 0 0 0 0 0 0 0 0 0c0 0 0 0-.078.392zm.011.002l.078-.392h0 0 0 0 0 0 0 0 0 0 0 0 0 0 0 0 0 0l-.167.783.011.002h0 0 0 0 0 0 0 0 0 0 0 0 0 0 0 0 0c0 0 0 0 .078-.392zm-21.55-4.126l.133-.377c-.022-.008-.008-.004.014.009l-.396.695c.037.021.076.036.084.039l.022.008c.011.004.011.004.143-.373zm.027-.414c.027.005.046.013.054.016a.49.49 0 0 0-.04-.017.52.52 0 0 0-.081-.023l-.156.785c-.02-.004-.035-.009-.044-.012l.026.011c.018.007.048.018.086.025l.156-.784zm-.272.747l.032.013.087.033.252-.759c-.005-.002-.011-.004-.032-.013l-.087-.033-.252.759zm1.559.54l1.278.405.242-.762-1.279-.405-.241.763zm1.276.404l2.462.748.207-.773-2.423-.737-.246.761zm2.46.748l1.265.333 1.255.33.21-.772-1.265-.333-1.255-.33-.21.772zm2.52.664l1.172.355.239-.764-1.203-.363-.208.772zm1.176.356l1.298.382.214-.771-1.28-.377-.232.766zm1.295.381l2.513.663.201-.774-2.494-.657-.22.769zm2.515.663l1.269.276.146-.787-1.219-.265-.196.776zm1.269.276l1.265.19.105-.793-1.224-.183-.146.787zm1.267.19l.457.058.456.057.1-.794-.457-.058-.456-.058-.1.794zm.923.116l1.222.077.013-.8-1.155-.073-.08.796zm1.224.077l1.332-.009-.012-.8-1.312.009-.007.8zm1.336-.01l1.285-.05-.064-.798-1.242.048.021.8zm1.286-.05l1.249-.12-.076-.796-1.239.119.066.797zm1.256-.121l.265-.031.265-.031-.092-.795-.265.031-.265.031.092.795zm.563-.851a.43.43 0 0 0-.198.007l-.022.006.218.77.031-.009c-.031.009-.056.015-.088.017s-.066 0-.097-.006l.156-.785zm-.049.793l.266-.045-.165-.783-.218.037.116.791zm.272-.046l.338-.074-.211-.772c-.1.027-.158.033-.303.065l.176.781zm.338-.074l.711-.216-.281-.749c-.201.076-.41.131-.641.194l.211.772zm.708-.215l1.307-.527-.322-.732-1.261.509.275.751zm1.315-.531l1.045-.525-.396-.695c-.317.181-.643.336-.986.495l.337.726zm1.047-.526c.332-.192.636-.415.92-.637l-.494-.63c-.271.213-.541.41-.826.574l.4.693zm.93-.646l.954-.871-.57-.561c-.281.286-.583.554-.898.82l.515.612zm.954-.871l.446-.487-.608-.519-.408.445.57.561zm.441-.481c.136-.153.254-.314.36-.458l-.645-.474-.312.399.598.532zm.364-.464l.349-.523-.67-.437-.334.499.655.46zm.347-.519c.123-.185.23-.383.323-.553l-.702-.384-.287.494.666.443zm.319-.547c.211-.37.377-.761.524-1.131l-.744-.295a8.1 8.1 0 0 1-.475 1.03l.695.397zm.526-1.138l.764-2.333-.768-.225-.745 2.276.749.282zm.763-2.33l.315-1.156-.775-.2-.306 1.124.766.232zm.315-1.156c.103-.398.16-.805.203-1.192l-.795-.089a7.72 7.72 0 0 1-.183 1.08l.774.201zm.205-1.206l.016-.206.016-.206-.798-.062-.016.206-.016.206.798.062zm.033-.425l.016-.538-.8-.009-.015.514.799.033zm.016-.537a7.09 7.09 0 0 0-.065-.945l-.794.095.059.839.8.011zm-.067-.962l-.065-.319-.772.211c.019.071.032.143.047.237l.79-.129zm-.063-.312l-.126-.43-.755.265c.04.115.072.231.106.363l.775-.198zm-.124-.422c-.082-.25-.183-.49-.277-.712l-.737.31.254.652.76-.25zm-.281-.722l-.551-1.117-.697.392c.188.335.354.689.52 1.056l.729-.33zm-.549-1.114l-.352-.592-.673.433.324.544.701-.385zm-.356-.598l-.362-.506-.638.483.335.468.665-.445zm-.378-.525l-.337-.374-.581.55.311.345.606-.522zm-.335-.371c-.129-.138-.27-.265-.395-.377l-.534.595.345.327.585-.546zm-.392-.374l-.785-.651-.49.632.735.609.541-.589zm-.793-.657l-.743-.519-.436.671.705.493.475-.644zm-.745-.52l-.956-.563-.376.706.899.53.433-.673zm-.951-.56c-.319-.176-.652-.323-.966-.459l-.316.735.897.425.386-.701zm-.964-.457l-.922-.387-.297.743.898.377.321-.733zm-.926-.388l-1.178-.432-.259.757 1.147.421.29-.746zm-1.175-.431l-1.234-.404-.236.765 1.203.394.266-.755zm-1.231-.403l-2.447-.717-.212.771 2.417.708.241-.763zm-2.444-.716l-1.872-.491-.19.777 1.845.484.216-.77zm-1.888-.494l-.13-.03-.227.767c.078.023.148.037.2.047l.156-.785zm-.244-.046c-.028 0-.078 0-.139.007l.1.794a.31.31 0 0 1 .04-.001l-.001-.8zm-.1.004l-.393.015.056.798.359-.013-.021-.8zm-.4.015l-.529.044.062.798.536-.045-.069-.797zm-.526.044c-.264.018-.548.068-.774.098l.105.793.724-.093-.056-.798zm-.787.1l-1.011.182.155.785.988-.177-.132-.789zm-1.012.182l-1.139.243.167.782 1.129-.241-.157-.785zm-1.144.244l-1.101.263.191.777 1.086-.259-.176-.78zm-1.097.261l-1.12.276.196.776 1.106-.272-.181-.779zm-1.121.276c.024-.006.057-.005.09.012s.061.05.071.081l-.76.25c.116.353.474.513.796.431l-.197-.775zm.163.099c.015.047.006.089-.01.118s-.047.062-.099.076l-.211-.772a.65.65 0 0 0-.444.817l.764-.239zm-.107.193l2.605-.684-.192-.777-2.626.69.213.771zm2.608-.685l1.16-.26-.15-.786-1.207.27.197.775zm1.191-.267c.002-.001.006-.002.026-.005l.079-.018-.211-.772c-.002.001-.006.002-.026.005l-.079.018.211.772zm.041-.807l-2.106-.201-.057.798 2.081.199.082-.796zm-2.104-.201l-.629-.044-.618-.043-.063.798.629.044.618.043.063-.798zm-1.247-.087l-.619-.054-.634-.056-.064.797.624.055.63.055.063-.798zm-1.253-.111l-2.564-.124-.023.8 2.523.122.064-.797zm-2.562-.124c-.857-.029-1.71-.006-2.553.045l.049.799 2.478-.044.027-.8zm-2.554.045l-1.105.086.088.795 1.067-.083-.05-.798zm-1.103.086l-1.064.139.119.791 1.029-.134-.084-.796zm-1.072.14l-1.199.24.187.778 1.145-.229-.134-.789zm-1.201.24l-1.24.359.237.764 1.196-.347-.193-.776zm-1.24.359l-.604.189-.602.188.237.764.604-.189.602-.188-.237-.764zm-1.206.378l-1.221.421.286.747 1.172-.405-.237-.764zm-1.23.425l-.027.011-.017.007-.038.015-.014.006-.041.017-.02.008-.02.008-.041.017.305.74.027-.011.017-.007.038-.015.014-.006.041-.017.02-.008.02-.008.041-.017-.305-.74zm-.233.096L7.86 7.7l.377.705.831-.415-.333-.727zm-.921.465l-1.005.76.498.626.975-.738-.468-.649zm-1.007.762L5.602 9.548l.564.567a14.51 14.51 0 0 1 1.143-1.002l-.502-.623zM5.602 9.547c-.397.393-.779.805-1.129 1.257l.632.491c.323-.416.68-.803 1.061-1.179l-.563-.569zm-1.135 1.264l-.206.289.651.465.197-.277-.642-.477zm-.208.292c-.098.14-.187.307-.251.415l.69.405.216-.36-.655-.459zm-.254.421a6.65 6.65 0 0 0-.363.775l.742.298c.096-.24.2-.473.318-.681l-.697-.392zm.401 1.002c-.004.02-.009.035-.012.043 0 0 .008-.016.015-.035s.017-.048.023-.081l-.785-.156c.004-.02.009-.035.012-.043 0 0-.008.016-.015.035s-.016.048-.023.081l.785.156zm-.736-.305l-.051.13-.043.112.742.298.05-.129.04-.104-.739-.307zm.67.47a.28.28 0 0 1-.012.043c0 0 .008-.016.015-.035a.52.52 0 0 0 .023-.081l-.785-.156c.004-.02.009-.035.012-.043 0 0-.008.016-.015.035s-.017.048-.023.081l.785.156zm-.759-.229a.27.27 0 0 1 .008-.031l.008-.02.716.358.019-.04a.54.54 0 0 0 .034-.109l-.785-.156zm-.005-.004l-.206.647.776.196c.047-.188.111-.377.181-.567l-.751-.277zm-.206.648l-.133.666.788.137.121-.608-.776-.195zm-.138.701a5.01 5.01 0 0 0-.018.795l.798-.06c-.016-.209-.003-.429.017-.668l-.797-.067zm-.018.795l.039.44.795-.09-.037-.411-.798.061zm.039.438l.044.321.794-.1-.042-.308-.795.087zm.048.349l.108.517.78-.178-.103-.494-.785.156zm.107.512c.042.195.103.387.151.545l.765-.233-.135-.481-.782.169zm.151.545c.104.341.235.66.362.968l.739-.306-.336-.896-.765.234zm.371.988l.342.677.692-.401c-.11-.19-.202-.391-.313-.622l-.721.346zm.343.679l.406.685.678-.425-.394-.665-.69.405zm.407.686l.47.718.659-.454-.452-.69-.677.426zm.471.719l.45.608.628-.496-.419-.567-.658.455zm.463.624l.243.278.586-.545-.229-.262-.601.529zm.246.281l.351.35.548-.583-.318-.317-.581.55zm.35.349c.217.205.447.386.661.556l.496-.628-.608-.51-.549.582zm.674.566l.985.683.438-.669-.953-.661-.471.647zm.983.681l1.073.718.45-.661-1.08-.724-.443.666zm1.069.716l1.101.705.399-.693-1.043-.668-.457.657zm1.102.706c.381.217.776.394 1.157.559l.319-.734-1.079-.52-.396.695zm1.183.57l.036.014.078.03.266-.755-.036-.015-.077-.03-.266.755zm.246-.332l.078-.392h0 0l-.167.782.011.002h0l.078-.392zm-.158.37l.085.034.085.034.294-.744-.085-.034-.085-.034-.294.744zm.173.069l1.205.405.238-.764-1.155-.388-.288.746zm1.476.393l.037-.015-.305-.74-.036.015.305.74zm17.368 3.797l-1.125.025.007.8 1.136-.025-.019-.8zm-1.154.824l.605.026-.005-.8c-.175.001-.35-.008-.533-.023l-.066.797zm.602.026c.349 0 .689-.02 1.036-.054l-.079-.796-.957.05v.8zm1.036-.054l.404-.049-.121-.791-.361.044.079.796zm.316-.843l-.801.043.023.8.832-.044-.054-.798zm-1.182.364l-.001.005.785.156.001-.005-.785-.156zm-18.892-3.507l.153-.369-.392.698c.025.014.05.025.06.03l.022.01c.003.001.003.001.157-.368zm-.119.373c.008.002-.005-.001-.02-.005-.009-.003-.023-.007-.04-.015a.36.36 0 0 1-.071-.043l.491-.632c-.061-.048-.122-.068-.146-.075s-.054-.014-.057-.014l-.156.785zm-.218-.157l.004.006.665-.444-.004-.006-.665.445zm.601-.113l.133-.377c-.021-.008-.008-.004.014.008l-.396.695c.037.021.076.036.084.039l.022.008c.011.004.011.004.143-.373zm.027-.414c-.007-.001.008.001.026.007s.04.015.057.025l-.396.695c.072.041.134.053.156.058l.156-.785zm-.193.772c-.027-.005-.045-.014-.041-.012l.019.009.046.019.283-.748-.022-.01c-.024-.011-.07-.03-.129-.042l-.156.785zm1.186.432l.579.21.585.212.268-.754-.579-.21-.585-.212-.268.754zm1.164.421l2.511.777.201-.774-2.443-.756-.268.754zm2.512.777l2.479.539.131-.789c-.809-.134-1.611-.321-2.412-.525l-.197.775zm2.479.539l2.461.339.088-.795-2.419-.333-.13.789zm2.427.333c.014.003.083.018.163.015l-.038-.799a.22.22 0 0 1 .04.001l-.164.783zm.222-.777l-.02-.004-.174.781.02.004.174-.781zm-.159.783l1.283.127.075-.796-1.273-.126-.086.795zm1.29.128l.701.05.044-.799-.683-.048-.062.797zm.802-.742c-.089-.018-.16-.041-.287-.073l-.197.775.328.083.156-.785zm-.287-.073l-2.411-.668-.232.766 2.446.678.197-.775zm-2.41-.668l-1.272-.382-.223.768 1.262.379.234-.765zm-1.275-.383l-1.229-.318-.197.775 1.209.313.217-.77zm-1.227-.317l-2.535-.688-.224.768 2.56.694.2-.775zm-2.534-.687l-2.396-.755-.237.764 2.406.758.227-.767zm-2.394-.755l-1.282-.431-.276.751 1.318.443.24-.763zm-1.285-.432l-.597-.242-.325.731.651.263.271-.753zm-.597-.242l-.591-.276-.346.721.612.286.325-.731zm-.587-.274a6.19 6.19 0 0 1-.564-.322l-.427.676.637.363.354-.717zm-.574-.328c-.169-.1-.339-.217-.514-.341l-.461.654.568.376.407-.689zm-.521-.345l-1.031-.717-.453.66 1.034.719.449-.662zm-1.032-.718c-.753-.512-1.473-.98-2.087-1.574l-.556.575c.675.653 1.465 1.165 2.193 1.661l.45-.662zm-2.087-1.575c-.294-.283-.561-.598-.793-.932l-.657.456a7.05 7.05 0 0 0 .895 1.052l.555-.576zm-.795-.935l-.687-1.048-.688.408.723 1.103.653-.462zm-.685-1.045l-.585-1.089-.732.324c.184.415.413.802.625 1.167l.692-.402zM4.2 17.604a8.8 8.8 0 0 1-.446-1.185l-.769.22c.129.45.3.88.486 1.294l.73-.328zm-.445-1.181l-.15-.607-.786.15c.044.232.107.459.164.669l.772-.211zm-.15-.609l-.111-.664-.792.112.118.706.785-.153zm-.11-.658c-.049-.393-.068-.782-.029-1.155l-.796-.084c-.048.455-.023.91.031 1.339l.794-.1zm-.029-1.153l.043-.352-.791-.122-.048.387.795.088zm.04-.335l.004-.02.004-.02.004-.02.004-.02.004-.02.004-.02.004-.02.004-.02.004-.02.004-.02.004-.02.004-.02.004-.02.004-.02.004-.02.004-.02.004-.02-.781-.176-.004.02-.004.02-.004.02-.004.02-.004.02-.004.02-.004.02-.004.02-.004.02-.004.02-.004.02-.004.02-.004.02-.004.02-.004.02-.004.02-.004.02.781.176zm.071-.359c.032-.159.085-.331.149-.497l-.747-.287a3.92 3.92 0 0 0-.187.628l.785.156zm.151-.503l.265-.66-.73-.326-.286.711.751.275zm.269-.667l.194-.407-.703-.382c-.087.16-.161.32-.228.477l.737.312zm-.473-.844l-.109.139-.114.145.632.491.109-.139.114-.145-.632-.491zm-.231.293l-.432.63.677.425.401-.584-.646-.472zm-.433.631c-.158.254-.275.53-.377.771l.736.313.32-.66-.679-.424zm-.383.786c-.075.199-.139.396-.192.602l.775.2c.045-.175.099-.345.165-.518l-.748-.283zm-.192.602c-.056.218-.086.434-.109.636l.795.091c.022-.19.047-.363.089-.527l-.775-.2zm-.111.662l-.01.155-.011.175.799.038.01-.155.011-.175-.799-.038zm-.022.341l.01.489.799-.046-.008-.428-.8-.016zm.009.486a7.92 7.92 0 0 0 .086.773l.791-.117-.078-.695-.799.039zm.091.801l.129.575.777-.192-.125-.555-.781.172zm.129.575l.17.575.763-.241-.157-.526-.777.192zm.17.575c.063.2.138.394.218.58l.735-.317-.19-.503-.763.241zm.216.574l.216.503.726-.337-.202-.471-.739.305zm.219.509l.356.704.703-.382-.339-.671-.72.349zm.36.71l.404.703.689-.406-.398-.692-.696.395zm.407.708l.446.709.671-.435-.434-.69-.683.416zm.446.709c.149.231.323.454.467.65l.645-.474-.44-.611-.672.435zm.483.67l.59.668.579-.552-.556-.629-.614.513zm.591.668l.711.72.565-.566-.698-.707-.578.553zm.712.722l.69.649.534-.596-.661-.622-.562.569zm.691.65l.693.57.485-.636-.647-.532-.532.598zm.708.581l.841.549.422-.68-.806-.525-.457.657zm.844.551l.853.487.389-.699-.827-.472-.415.684zm.853.486c.559.313 1.142.625 1.762.871l.295-.744c-.568-.225-1.112-.515-1.666-.825l-.391.698zm1.756.868l.083.034.076.031.307-.739-.083-.034-.077-.031-.307.739zm.172.07l.047.018.047.018.283-.748-.047-.018-.047-.018-.283.748zm.313-.731c.025.005.043.012.049.014-.003-.002-.018-.008-.034-.015a.5.5 0 0 0-.082-.024l-.156.785c-.026-.005-.043-.012-.049-.014a.54.54 0 0 0 .034.015c.017.006.046.017.082.024l.156-.785zm-.224.76c-.019-.004-.034-.009-.043-.012.008.006.014.009.022.013l.342-.723-.029-.015c-.024-.012-.073-.034-.135-.047l-.156.785zm.15-.361l.078-.392h0 0 0 0 0 0 0 0 0 0 0 0 0 0 0 0 0 0 0 0 0 0 0 0 0 0 0 0l-.162.784.005.001h0 0 0 0 0 0 0 0 0 0 0 0 0 0 0 0 0 0 0 0 0 0 0 0 0 0 0l.078-.392zm-.142.375l1.227.44.264-.755-1.217-.436-.274.752zm1.114.378l.01.008.491-.632-.01-.008-.49.632zm4.897 1.288a26.99 26.99 0 0 1-2.468-.673l-.245.762 2.541.692.171-.782zm-2.468-.673l-1.209-.427-.283.748 1.248.441.244-.762zm-1.212-.428l-1.183-.431-.268.754 1.175.428.277-.751zm-1.182-.431l-1.246-.463-.298.742 1.275.474.27-.753zm-1.245-.462c-.367-.148-.722-.316-1.076-.5l-.37.709 1.147.533.299-.742zm-1.077-.5l-1.155-.647-.404.69 1.19.666.369-.71zm-1.159-.649l-1.025-.642-.456.657 1.085.68.396-.695zm-1.022-.64l-.531-.397-.497.627.565.423.463-.652zm-.527-.394l-.486-.426-.537.593.52.454.504-.621zm-.486-.426l-.883-.856-.565.566.91.882.537-.593zm-.883-.856l-.438-.452-.585.546.458.472.565-.566zm-.434-.447l-.454-.522-.61.517.471.542.593-.537zm-.453-.521c-.254-.301-.48-.632-.702-.978l-.673.432a10.13 10.13 0 0 0 .763 1.062l.612-.515zm-.701-.977c-.461-.725-.893-1.439-1.203-2.203l-.741.302c.34.836.806 1.602 1.269 2.331l.675-.43zm-1.203-2.202l-.383-1.077-.774.202c.109.417.268.81.416 1.175l.742-.3zm-.385-1.082l-.078-.294-.78.176.087.329.772-.211zm-.079-.296l-.037-.167-.039-.176-.78.18.037.167.039.176.78-.18zm-.074-.331l-.025-.137-.028-.157-.785.154.025.137.028.157.785-.154zm-.05-.28l-.04-.301-.795.087.045.339.79-.125zm-.039-.3a5.65 5.65 0 0 1 .002-1.185l-.796-.085a6.45 6.45 0 0 0-.002 1.353l.796-.084zm.002-1.185a4.09 4.09 0 0 1 .275-1.097l-.743-.298a4.89 4.89 0 0 0-.328 1.311l.796.084zm.281-1.113c.001-.004.003-.008.013-.032l.034-.089-.759-.252c-.001.004-.004.011-.012.029l-.031.078.755.266zm-.725-.325c.004-.02.009-.036.014-.048-.005.007-.013.024-.022.044l.739.307a.53.53 0 0 0 .054-.147l-.785-.156zm.731.304l.036-.094.019-.048-.732-.323-.038.097-.023.06.739.307zm-.704-.382a.29.29 0 0 1 .014-.048.27.27 0 0 0-.022.044l.739.307a.53.53 0 0 0 .054-.147l-.785-.156zm.734.294c.073-.188.161-.373.259-.565l-.713-.364-.293.639.746.289zm.259-.563c.081-.157.181-.311.292-.487l-.677-.426-.326.547.711.366zm.29-.483c.23-.357.496-.7.776-1.048l-.624-.501-.825 1.116.672.434zm.775-1.046l.841-.942-.582-.549-.88.986.62.505zm.839-.94c.282-.294.589-.571.906-.832l-.509-.618a11.25 11.25 0 0 0-.976.897l.578.553zm.909-.835a14.15 14.15 0 0 1 2.095-1.461l-.396-.695c-.782.445-1.527.966-2.214 1.544l.515.612zm2.092-1.46l1.158-.584-.317-.734c-.432.187-.837.4-1.232.621l.391.698zm1.154-.582l.831-.327-.279-.75-.861.338.309.738zm.891-.355l.905-.49-.361-.714-.943.511.399.694zm.904-.49c.155-.078.325-.152.486-.213l-.281-.749a5.97 5.97 0 0 0-.564.246l.358.715zm.479-.21l.553-.173-.22-.769-.599.188.266.755zm.551-.172l1.027-.236-.168-.782-1.075.247.216.77zm1.026-.235l1.118-.216-.132-.789-1.153.222.167.782zm1.102-.213c.031-.004.093-.011.159-.029l-.211-.772-.048.007.1.794zm.054-.415l.078-.392-.032-.005c-.013-.002-.031-.003-.053-.003a.42.42 0 0 0-.233.07l.444.665c-.053.035-.102.05-.134.057s-.059.008-.077.008-.033-.001-.044-.003l-.022-.003c-.006-.001-.006-.001.072-.394zm.033.399l.097-.015.058-.009-.1-.794-.097.015-.058.009.1.794zm.184-.814l-.011-.002-.156.785.011.002.156-.785zm-.016.783l.043-.008.043-.008-.146-.787-.043.008-.043.008.146.787zm.014-.409l.078-.392h0 0 0 0l-.167.782.011.002h0 0 0l.078-.392zm.052.393a11.47 11.47 0 0 1 1.237-.13l-.039-.799c-.444.021-.891.07-1.324.139l.125.79zm1.234-.13l1.289.001.017-.8c-.436-.009-.887-.019-1.34 0l.034.799zm1.298.001l.223.01.051-.798-.274-.011v.8zm.271.01l.512-.017-.015-.8-.542.018.045.799zm.512-.017l1.287.009.015-.8-1.317-.009.014.8zm1.285.009l1.251.039.032-.799-1.263-.039-.02.8zm1.247.038l1.232.08.063-.798-1.254-.081-.041.799zm1.231.08l1.282.104.044-.799-1.262-.102-.064.797zm1.28.104l1.313.096.069-.797-1.334-.097-.048.799zm1.315.096l1.257.124.085-.795-1.278-.125-.064.797zm1.259.124l1.184.125.092-.795-1.195-.126-.081.796zm1.172.123l1.292.208.156-.785-1.332-.215-.116.791zm1.292.208l1.198.288.207-.773-1.248-.3-.156.785zm1.199.288l1.822.507.223-.768-1.841-.512-.203.774zm1.85.514l1.233.311.225-.768-1.292-.326-.166.783zm1.23.31l1.24.415.289-.746-1.298-.435-.232.766zm1.24.416l.929.406.347-.721-.988-.432-.289.746zm.958.419l2.054.881.349-.72-2.113-.907-.29.746zm2.054.881l1.103.602.424-.679a12.49 12.49 0 0 0-1.178-.643l-.348.72zm1.105.603l.721.488.47-.648-.771-.521-.42.681zm.778.522l.823.424.369-.71-.835-.43-.357.716zm.821.423c.756.398 1.48.831 2.097 1.38l.532-.598c-.689-.613-1.479-1.082-2.256-1.491l-.373.708zm2.097 1.381a4.44 4.44 0 0 1 .788.918l.673-.433c-.259-.402-.572-.765-.93-1.083l-.531.598zm.788.917c.102.159.194.322.278.494l.718-.354c-.098-.198-.204-.387-.323-.572l-.673.432zm.276.488l.239.551.755-.263c-.079-.228-.184-.445-.272-.63l-.723.342zm.236.543l.167.57.784-.158c-.048-.237-.129-.469-.19-.659l-.761.247zm.166.568l.106.644.794-.094-.116-.703-.785.153zm.106.643a4.79 4.79 0 0 1 .025.544l.8-.001-.03-.636-.794.093zm.025.536l-.038.618.796.077.042-.68-.8-.015zm-.038.613c-.091.836-.26 1.661-.474 2.485l.774.201c.22-.849.398-1.714.495-2.599l-.795-.086zm-.474 2.487l-.67 2.476.766.23.68-2.51-.776-.196zm-.67 2.474l-.422 1.222.742.298.445-1.288-.765-.233zm-.423 1.224l-.242.582.736.315.25-.601-.743-.296zm-.244.585l-.276.594.723.342.291-.629-.739-.307zm-.275.592c-.171.356-.373.7-.593 1.042l.672.433a10.42 10.42 0 0 0 .642-1.128l-.721-.347zm-.593 1.042a7.68 7.68 0 0 1-.776.999l.592.538c.311-.343.601-.706.857-1.103l-.672-.434zm-.779 1.001a6.68 6.68 0 0 1-.432.428l.546.585.484-.48-.597-.533zm-.432.428l-.468.395.49.632.523-.442-.546-.585zm-.462.391l-.51.368.432.673c.201-.129.388-.274.556-.4l-.478-.641zm-.516.371l-.573.346.399.694.618-.374-.444-.665zm-.57.345a14.63 14.63 0 0 1-1.095.54l.334.727 1.154-.571-.394-.696zm-1.089.537l-1.215.488.269.753 1.268-.509-.322-.732zm-1.218.489c-.772.284-1.588.461-2.422.597l.128.79c.858-.14 1.73-.327 2.57-.636l-.276-.751zm-2.424.597l-1.274.188.109.792 1.297-.191-.131-.789zm-1.276.188c-.401.057-.79.101-1.175.102l.003.8c.44-.001.872-.051 1.285-.11l-.113-.792zm-1.172.102l-.658-.012-.041.799.696.013.003-.8zm-.66-.012l-.643-.058-.078.796.682.061.038-.799zm-.639-.058l-1.241-.182-.136.788 1.292.189.086-.795zm-1.231-.18l-.021-.004-.02-.004-.02-.004-.02-.004-.02-.004-.02-.004-.02-.004-.02-.004-.02-.004-.02-.004-.02-.004-.02-.004-.02-.004-.02-.004-.02-.004-.02-.004-.02-.004-.02-.004-.02-.004-.02-.004-.02-.004-.02-.004-.02-.004-.02-.004-.02-.004-.02-.004-.02-.004-.02-.004-.02-.004-.02-.004-.021-.004-.174.781.021.004.021.004.02.004.02.004.02.004.02.004.02.004.02.004.02.004.02.004.02.004.02.004.02.004.02.004.02.004.02.004.02.004.02.004.02.004.02.004.02.004.02.004.02.004.02.004.02.004.02.004.02.004.02.004.02.004.021.004.02.004.172-.781zm-.632-.126l-.712-.136-.138.788.694.133.156-.785zm-.712-.136l-1.42-.204-.092.795 1.374.197.138-.788zm-1.545.586l.02.004.02.004.165-.783-.02-.004-.02-.004-.165.783zm.169-.78l-1.303-.101-.035.799 1.253.097.086-.795zm-1.301-.101l-1.217-.071-.062.798 1.239.073.039-.799zm-1.214-.071l-2.608-.271-.103.793 2.643.274.068-.797zm-2.607-.27l-1.228-.184-.136.788 1.26.189.104-.793zm-1.218-.182l-.287-.054-.271-.051-.156.785.283.053.276.052.156-.785zm-.558-.106l-.742-.159-.189.777.775.166.156-.785zm-.44.18l-.002-.017-.794.1.002.017.794-.1z" fill="#D7FF65" mask="url(#A)"></path></svg>