<svg xmlns="http://www.w3.org/2000/svg" width="53" height="52" viewBox="0 0 53 52" fill="none"><g id="Group 44253"><g id="Vector"><mask id="path-1-outside-1_4086_9093" maskUnits="userSpaceOnUse" x="0" y="-0.0703125" width="53" height="52" fill="black"><rect fill="white" y="-0.0703125" width="53" height="52"></rect><path d="M1.00735 27.2009C1.1502 34.667 3.82869 40.5084 9.83565 45.1209C14.7712 48.9069 20.9996 50.6939 27.1708 50.9129C33.2849 51.1319 39.9133 49.2036 44.6846 45.3469C50.6773 40.4943 52.1272 34.0101 51.9915 26.6146C51.8558 19.4735 49.7487 12.7067 44.5489 7.61392C39.9133 3.07212 33.4207 1.00959 27.028 0.931888C20.3568 0.847127 13.7927 3.21339 8.77855 7.53622C3.193 12.3535 1.14307 20.1374 1.00021 27.1938C0.978784 28.218 2.58588 28.218 2.60731 27.1938C2.73587 20.6601 4.54296 14.2394 9.13568 9.39391C13.4284 4.86623 19.8496 2.88847 25.9494 2.53529C32.0635 2.18212 37.9491 4.20933 42.6489 8.04479C47.9345 12.3606 49.8701 18.866 50.3273 25.3926C50.8058 32.2371 49.6916 38.7708 44.3632 43.5457C40.0062 47.4518 33.9206 49.1259 28.1708 49.3095C22.6281 49.4861 17.1426 47.8121 12.4427 44.9796C5.84292 40.9958 2.75016 34.6952 2.60731 27.1868C2.58588 26.1626 0.978784 26.1626 1.00021 27.1868L1.00735 27.2009Z"></path></mask><path d="M1.00735 27.2009C1.1502 34.667 3.82869 40.5084 9.83565 45.1209C14.7712 48.9069 20.9996 50.6939 27.1708 50.9129C33.2849 51.1319 39.9133 49.2036 44.6846 45.3469C50.6773 40.4943 52.1272 34.0101 51.9915 26.6146C51.8558 19.4735 49.7487 12.7067 44.5489 7.61392C39.9133 3.07212 33.4207 1.00959 27.028 0.931888C20.3568 0.847127 13.7927 3.21339 8.77855 7.53622C3.193 12.3535 1.14307 20.1374 1.00021 27.1938C0.978784 28.218 2.58588 28.218 2.60731 27.1938C2.73587 20.6601 4.54296 14.2394 9.13568 9.39391C13.4284 4.86623 19.8496 2.88847 25.9494 2.53529C32.0635 2.18212 37.9491 4.20933 42.6489 8.04479C47.9345 12.3606 49.8701 18.866 50.3273 25.3926C50.8058 32.2371 49.6916 38.7708 44.3632 43.5457C40.0062 47.4518 33.9206 49.1259 28.1708 49.3095C22.6281 49.4861 17.1426 47.8121 12.4427 44.9796C5.84292 40.9958 2.75016 34.6952 2.60731 27.1868C2.58588 26.1626 0.978784 26.1626 1.00021 27.1868L1.00735 27.2009Z" fill="#8B75F3"></path><path d="M1.00735 27.2009C1.1502 34.667 3.82869 40.5084 9.83565 45.1209C14.7712 48.9069 20.9996 50.6939 27.1708 50.9129C33.2849 51.1319 39.9133 49.2036 44.6846 45.3469C50.6773 40.4943 52.1272 34.0101 51.9915 26.6146C51.8558 19.4735 49.7487 12.7067 44.5489 7.61392C39.9133 3.07212 33.4207 1.00959 27.028 0.931888C20.3568 0.847127 13.7927 3.21339 8.77855 7.53622C3.193 12.3535 1.14307 20.1374 1.00021 27.1938C0.978784 28.218 2.58588 28.218 2.60731 27.1938C2.73587 20.6601 4.54296 14.2394 9.13568 9.39391C13.4284 4.86623 19.8496 2.88847 25.9494 2.53529C32.0635 2.18212 37.9491 4.20933 42.6489 8.04479C47.9345 12.3606 49.8701 18.866 50.3273 25.3926C50.8058 32.2371 49.6916 38.7708 44.3632 43.5457C40.0062 47.4518 33.9206 49.1259 28.1708 49.3095C22.6281 49.4861 17.1426 47.8121 12.4427 44.9796C5.84292 40.9958 2.75016 34.6952 2.60731 27.1868C2.58588 26.1626 0.978784 26.1626 1.00021 27.1868L1.00735 27.2009Z" stroke="#8B75F3" stroke-width="0.8" mask="url(#path-1-outside-1_4086_9093)"></path></g><g id="Vector_2"><mask id="path-2-outside-2_4086_9093" maskUnits="userSpaceOnUse" x="19" y="20.9297" width="16" height="14" fill="black"><rect fill="white" x="19" y="20.9297" width="16" height="14"></rect><path d="M20.7985 33.211C20.606 28.7161 21.0855 22.8754 26.8138 22.6729C29.2865 22.5847 31.2829 23.7215 32.4377 25.8905C33.6676 28.1967 33.2414 30.4373 33 32.9297C28.7658 32.8513 24.9707 33.0411 20.7365 32.9627C20.2635 32.9529 20.2635 33.6879 20.7365 33.6977C24.9707 33.7761 29.2082 33.8512 33.4425 33.9296C33.6578 33.9329 33.7915 33.7598 33.8078 33.5638C34.0884 30.6532 34.2613 27.7623 32.8455 25.1065C31.7266 23.0061 29.5768 22.1045 27.3129 21.9477C24.987 21.7876 23.0428 22.699 21.6401 24.5316C19.7937 26.9456 19.9438 30.3462 20.0645 33.211C20.0841 33.6846 20.818 33.6846 20.7985 33.211Z"></path></mask><path d="M20.7985 33.211C20.606 28.7161 21.0855 22.8754 26.8138 22.6729C29.2865 22.5847 31.2829 23.7215 32.4377 25.8905C33.6676 28.1967 33.2414 30.4373 33 32.9297C28.7658 32.8513 24.9707 33.0411 20.7365 32.9627C20.2635 32.9529 20.2635 33.6879 20.7365 33.6977C24.9707 33.7761 29.2082 33.8512 33.4425 33.9296C33.6578 33.9329 33.7915 33.7598 33.8078 33.5638C34.0884 30.6532 34.2613 27.7623 32.8455 25.1065C31.7266 23.0061 29.5768 22.1045 27.3129 21.9477C24.987 21.7876 23.0428 22.699 21.6401 24.5316C19.7937 26.9456 19.9438 30.3462 20.0645 33.211C20.0841 33.6846 20.818 33.6846 20.7985 33.211Z" fill="#8B75F3"></path><path d="M20.7985 33.211C20.606 28.7161 21.0855 22.8754 26.8138 22.6729C29.2865 22.5847 31.2829 23.7215 32.4377 25.8905C33.6676 28.1967 33.2414 30.4373 33 32.9297C28.7658 32.8513 24.9707 33.0411 20.7365 32.9627C20.2635 32.9529 20.2635 33.6879 20.7365 33.6977C24.9707 33.7761 29.2082 33.8512 33.4425 33.9296C33.6578 33.9329 33.7915 33.7598 33.8078 33.5638C34.0884 30.6532 34.2613 27.7623 32.8455 25.1065C31.7266 23.0061 29.5768 22.1045 27.3129 21.9477C24.987 21.7876 23.0428 22.699 21.6401 24.5316C19.7937 26.9456 19.9438 30.3462 20.0645 33.211C20.0841 33.6846 20.818 33.6846 20.7985 33.211Z" stroke="#8B75F3" stroke-width="0.8" mask="url(#path-2-outside-2_4086_9093)"></path></g><g id="Vector (Stroke)"><mask id="path-3-outside-3_4086_9093" maskUnits="userSpaceOnUse" x="18.6001" y="20.5293" width="17" height="15" fill="black"><rect fill="white" x="18.6001" y="20.5293" width="17" height="15"></rect><path fill-rule="evenodd" clip-rule="evenodd" d="M33.1524 32.7888C33.3733 30.4894 33.5426 27.9618 32.4378 25.8901C31.283 23.7211 29.2866 22.5843 26.8139 22.6725C21.3572 22.8654 20.6634 28.1746 20.7762 32.563C20.7797 32.6973 20.7839 32.8308 20.7887 32.9633C20.9222 32.9658 21.0558 32.9682 21.1893 32.9707C23.1556 33.007 25.1226 33.0426 27.0896 33.0783C28.964 33.1123 30.8385 33.1462 32.7123 33.1808C32.7707 33.1818 32.8291 33.1829 32.8875 33.184C32.9629 33.1854 33.0382 33.1868 33.1135 33.1882C33.1219 33.1034 33.1302 33.0182 33.1385 32.9326C33.1432 32.8848 33.1478 32.8369 33.1524 32.7888ZM20.7366 33.6973C20.612 33.6947 20.5203 33.6419 20.4613 33.5656C20.2732 33.5722 20.0746 33.4539 20.0646 33.2106L20.0633 33.1808C20.0606 33.1158 20.0578 33.0504 20.0551 32.9848C19.9374 30.1686 19.8421 26.8821 21.6402 24.5312C23.0429 22.6986 24.9871 21.7872 27.313 21.9473C29.5769 22.1041 31.7267 23.0057 32.8456 25.1061C34.1378 27.5302 34.1065 30.1502 33.8779 32.8022C33.8614 32.9936 33.8439 33.185 33.8258 33.3766C33.8199 33.4389 33.8139 33.5011 33.8079 33.5634C33.7916 33.7594 33.6579 33.9325 33.4426 33.9292C33.3874 33.9282 33.3321 33.9272 33.2769 33.9262C33.065 33.9223 32.853 33.9183 32.641 33.9144C30.7909 33.8804 28.9402 33.8468 27.0896 33.8133C25.0701 33.7767 23.0506 33.7401 21.0318 33.7028C20.9334 33.701 20.835 33.6991 20.7366 33.6973ZM19.6649 33.2271L19.6631 33.1839C19.6034 31.7685 19.5368 30.1865 19.7175 28.655C19.9005 27.1046 20.34 25.5727 21.3225 24.2882C22.8046 22.3518 24.8772 21.3787 27.3405 21.5482C29.6835 21.7105 31.9914 22.6519 33.1986 24.9179C34.5435 27.4408 34.507 30.155 34.2788 32.8097L34.268 32.8924V32.9337C34.2484 33.1562 34.2276 33.3782 34.2063 33.5996C34.1768 33.9381 33.9215 34.3366 33.4365 34.3292L33.4352 34.3292C33.2517 34.3258 33.0682 34.3224 32.8847 34.319L32.7512 34.3138H32.6023C30.7633 34.2799 28.9238 34.2466 27.0842 34.2132L27.0769 34.2131C24.9608 34.1748 22.8446 34.1364 20.7292 34.0972C20.5598 34.0937 20.4076 34.0402 20.286 33.9493C19.9852 33.8876 19.6826 33.6524 19.6649 33.2271ZM32.7512 32.7814C32.8501 31.7551 32.9379 30.7025 32.9094 29.6663C32.874 28.3827 32.6599 27.1566 32.0849 26.0783C31.0031 24.0464 29.1504 22.9894 26.8282 23.0722C25.4672 23.1203 24.4458 23.5011 23.6729 24.0905C22.8971 24.6821 22.3442 25.5049 21.9578 26.4794C21.2508 28.2624 21.1223 30.4967 21.1766 32.5704C23.1495 32.6068 25.1231 32.6426 27.0968 32.6784C28.9818 32.7125 30.8668 32.7467 32.7512 32.7814Z"></path></mask><path fill-rule="evenodd" clip-rule="evenodd" d="M33.1524 32.7888C33.3733 30.4894 33.5426 27.9618 32.4378 25.8901C31.283 23.7211 29.2866 22.5843 26.8139 22.6725C21.3572 22.8654 20.6634 28.1746 20.7762 32.563C20.7797 32.6973 20.7839 32.8308 20.7887 32.9633C20.9222 32.9658 21.0558 32.9682 21.1893 32.9707C23.1556 33.007 25.1226 33.0426 27.0896 33.0783C28.964 33.1123 30.8385 33.1462 32.7123 33.1808C32.7707 33.1818 32.8291 33.1829 32.8875 33.184C32.9629 33.1854 33.0382 33.1868 33.1135 33.1882C33.1219 33.1034 33.1302 33.0182 33.1385 32.9326C33.1432 32.8848 33.1478 32.8369 33.1524 32.7888ZM20.7366 33.6973C20.612 33.6947 20.5203 33.6419 20.4613 33.5656C20.2732 33.5722 20.0746 33.4539 20.0646 33.2106L20.0633 33.1808C20.0606 33.1158 20.0578 33.0504 20.0551 32.9848C19.9374 30.1686 19.8421 26.8821 21.6402 24.5312C23.0429 22.6986 24.9871 21.7872 27.313 21.9473C29.5769 22.1041 31.7267 23.0057 32.8456 25.1061C34.1378 27.5302 34.1065 30.1502 33.8779 32.8022C33.8614 32.9936 33.8439 33.185 33.8258 33.3766C33.8199 33.4389 33.8139 33.5011 33.8079 33.5634C33.7916 33.7594 33.6579 33.9325 33.4426 33.9292C33.3874 33.9282 33.3321 33.9272 33.2769 33.9262C33.065 33.9223 32.853 33.9183 32.641 33.9144C30.7909 33.8804 28.9402 33.8468 27.0896 33.8133C25.0701 33.7767 23.0506 33.7401 21.0318 33.7028C20.9334 33.701 20.835 33.6991 20.7366 33.6973ZM19.6649 33.2271L19.6631 33.1839C19.6034 31.7685 19.5368 30.1865 19.7175 28.655C19.9005 27.1046 20.34 25.5727 21.3225 24.2882C22.8046 22.3518 24.8772 21.3787 27.3405 21.5482C29.6835 21.7105 31.9914 22.6519 33.1986 24.9179C34.5435 27.4408 34.507 30.155 34.2788 32.8097L34.268 32.8924V32.9337C34.2484 33.1562 34.2276 33.3782 34.2063 33.5996C34.1768 33.9381 33.9215 34.3366 33.4365 34.3292L33.4352 34.3292C33.2517 34.3258 33.0682 34.3224 32.8847 34.319L32.7512 34.3138H32.6023C30.7633 34.2799 28.9238 34.2466 27.0842 34.2132L27.0769 34.2131C24.9608 34.1748 22.8446 34.1364 20.7292 34.0972C20.5598 34.0937 20.4076 34.0402 20.286 33.9493C19.9852 33.8876 19.6826 33.6524 19.6649 33.2271ZM32.7512 32.7814C32.8501 31.7551 32.9379 30.7025 32.9094 29.6663C32.874 28.3827 32.6599 27.1566 32.0849 26.0783C31.0031 24.0464 29.1504 22.9894 26.8282 23.0722C25.4672 23.1203 24.4458 23.5011 23.6729 24.0905C22.8971 24.6821 22.3442 25.5049 21.9578 26.4794C21.2508 28.2624 21.1223 30.4967 21.1766 32.5704C23.1495 32.6068 25.1231 32.6426 27.0968 32.6784C28.9818 32.7125 30.8668 32.7467 32.7512 32.7814Z" fill="#8B75F3"></path><path fill-rule="evenodd" clip-rule="evenodd" d="M33.1524 32.7888C33.3733 30.4894 33.5426 27.9618 32.4378 25.8901C31.283 23.7211 29.2866 22.5843 26.8139 22.6725C21.3572 22.8654 20.6634 28.1746 20.7762 32.563C20.7797 32.6973 20.7839 32.8308 20.7887 32.9633C20.9222 32.9658 21.0558 32.9682 21.1893 32.9707C23.1556 33.007 25.1226 33.0426 27.0896 33.0783C28.964 33.1123 30.8385 33.1462 32.7123 33.1808C32.7707 33.1818 32.8291 33.1829 32.8875 33.184C32.9629 33.1854 33.0382 33.1868 33.1135 33.1882C33.1219 33.1034 33.1302 33.0182 33.1385 32.9326C33.1432 32.8848 33.1478 32.8369 33.1524 32.7888ZM20.7366 33.6973C20.612 33.6947 20.5203 33.6419 20.4613 33.5656C20.2732 33.5722 20.0746 33.4539 20.0646 33.2106L20.0633 33.1808C20.0606 33.1158 20.0578 33.0504 20.0551 32.9848C19.9374 30.1686 19.8421 26.8821 21.6402 24.5312C23.0429 22.6986 24.9871 21.7872 27.313 21.9473C29.5769 22.1041 31.7267 23.0057 32.8456 25.1061C34.1378 27.5302 34.1065 30.1502 33.8779 32.8022C33.8614 32.9936 33.8439 33.185 33.8258 33.3766C33.8199 33.4389 33.8139 33.5011 33.8079 33.5634C33.7916 33.7594 33.6579 33.9325 33.4426 33.9292C33.3874 33.9282 33.3321 33.9272 33.2769 33.9262C33.065 33.9223 32.853 33.9183 32.641 33.9144C30.7909 33.8804 28.9402 33.8468 27.0896 33.8133C25.0701 33.7767 23.0506 33.7401 21.0318 33.7028C20.9334 33.701 20.835 33.6991 20.7366 33.6973ZM19.6649 33.2271L19.6631 33.1839C19.6034 31.7685 19.5368 30.1865 19.7175 28.655C19.9005 27.1046 20.34 25.5727 21.3225 24.2882C22.8046 22.3518 24.8772 21.3787 27.3405 21.5482C29.6835 21.7105 31.9914 22.6519 33.1986 24.9179C34.5435 27.4408 34.507 30.155 34.2788 32.8097L34.268 32.8924V32.9337C34.2484 33.1562 34.2276 33.3782 34.2063 33.5996C34.1768 33.9381 33.9215 34.3366 33.4365 34.3292L33.4352 34.3292C33.2517 34.3258 33.0682 34.3224 32.8847 34.319L32.7512 34.3138H32.6023C30.7633 34.2799 28.9238 34.2466 27.0842 34.2132L27.0769 34.2131C24.9608 34.1748 22.8446 34.1364 20.7292 34.0972C20.5598 34.0937 20.4076 34.0402 20.286 33.9493C19.9852 33.8876 19.6826 33.6524 19.6649 33.2271ZM32.7512 32.7814C32.8501 31.7551 32.9379 30.7025 32.9094 29.6663C32.874 28.3827 32.6599 27.1566 32.0849 26.0783C31.0031 24.0464 29.1504 22.9894 26.8282 23.0722C25.4672 23.1203 24.4458 23.5011 23.6729 24.0905C22.8971 24.6821 22.3442 25.5049 21.9578 26.4794C21.2508 28.2624 21.1223 30.4967 21.1766 32.5704C23.1495 32.6068 25.1231 32.6426 27.0968 32.6784C28.9818 32.7125 30.8668 32.7467 32.7512 32.7814Z" stroke="#8B75F3" stroke-width="0.8" mask="url(#path-3-outside-3_4086_9093)"></path></g><g id="Vector_3"><mask id="path-4-outside-4_4086_9093" maskUnits="userSpaceOnUse" x="21" y="9.92969" width="11" height="10" fill="black"><rect fill="white" x="21" y="9.92969" width="11" height="10"></rect><path d="M24.7971 18.6155C27.2874 19.2146 29.7347 19.2075 30.7626 16.3039C31.7409 13.5314 29.5291 11.3971 27.1681 10.9858C24.9264 10.5958 22.7345 12.287 22.1012 14.5277C21.4778 16.74 23.862 19.0303 25.7787 18.8991C26.2562 18.8672 26.2595 18.0695 25.7787 18.1014C23.7725 18.2361 22.2537 15.8749 23.1126 13.9179C23.8686 12.1948 25.8549 11.5637 27.4765 11.8438C29.4727 12.1913 30.5239 14.0526 30.0431 16.0912C29.4395 18.6545 26.8033 18.2822 24.9961 17.8461C24.5285 17.7327 24.3295 18.502 24.7971 18.6155Z"></path></mask><path d="M24.7971 18.6155C27.2874 19.2146 29.7347 19.2075 30.7626 16.3039C31.7409 13.5314 29.5291 11.3971 27.1681 10.9858C24.9264 10.5958 22.7345 12.287 22.1012 14.5277C21.4778 16.74 23.862 19.0303 25.7787 18.8991C26.2562 18.8672 26.2595 18.0695 25.7787 18.1014C23.7725 18.2361 22.2537 15.8749 23.1126 13.9179C23.8686 12.1948 25.8549 11.5637 27.4765 11.8438C29.4727 12.1913 30.5239 14.0526 30.0431 16.0912C29.4395 18.6545 26.8033 18.2822 24.9961 17.8461C24.5285 17.7327 24.3295 18.502 24.7971 18.6155Z" fill="#8B75F3"></path><path d="M24.7971 18.6155C27.2874 19.2146 29.7347 19.2075 30.7626 16.3039C31.7409 13.5314 29.5291 11.3971 27.1681 10.9858C24.9264 10.5958 22.7345 12.287 22.1012 14.5277C21.4778 16.74 23.862 19.0303 25.7787 18.8991C26.2562 18.8672 26.2595 18.0695 25.7787 18.1014C23.7725 18.2361 22.2537 15.8749 23.1126 13.9179C23.8686 12.1948 25.8549 11.5637 27.4765 11.8438C29.4727 12.1913 30.5239 14.0526 30.0431 16.0912C29.4395 18.6545 26.8033 18.2822 24.9961 17.8461C24.5285 17.7327 24.3295 18.502 24.7971 18.6155Z" stroke="#8B75F3" stroke-width="0.8" mask="url(#path-4-outside-4_4086_9093)"></path></g><g id="Vector (Stroke)_2"><mask id="path-5-outside-5_4086_9093" maskUnits="userSpaceOnUse" x="20.5996" y="9.5293" width="12" height="11" fill="black"><rect fill="white" x="20.5996" y="9.5293" width="12" height="11"></rect><path fill-rule="evenodd" clip-rule="evenodd" d="M24.1684 18.5126C24.3622 18.6149 24.5611 18.6993 24.7613 18.7633C24.7614 18.7633 24.7615 18.7634 24.7616 18.7634C25.1026 18.8723 25.4476 18.9219 25.7787 18.8993C25.8471 18.8947 25.9057 18.8744 25.9546 18.8431C26.114 18.8662 26.2724 18.8852 26.4292 18.8995C28.3011 19.0698 29.9622 18.5651 30.7627 16.304C31.7409 13.5316 29.5291 11.3972 27.1681 10.986C24.9265 10.596 22.7346 12.2871 22.1012 14.5278C21.6487 16.1336 22.7807 17.7804 24.1684 18.5126ZM24.681 17.9198C24.7605 17.8502 24.8683 17.8153 24.9961 17.8463C25.2421 17.9056 25.5033 17.9638 25.7728 18.0135C25.7728 18.0135 25.7728 18.0135 25.7729 18.0135C25.9977 18.0551 26.2283 18.0907 26.4603 18.1163C27.993 18.2853 29.5903 18.0146 30.0431 16.0913C30.5239 14.0527 29.4728 12.1914 27.4765 11.844C25.855 11.5639 23.8687 12.195 23.1126 13.918C22.4831 15.3525 23.131 17.0042 24.312 17.7309C24.4299 17.8034 24.5532 17.8668 24.681 17.9198ZM24.6689 17.4733C24.2869 17.2766 23.9556 16.9655 23.7083 16.5787C23.2475 15.8581 23.11 14.9192 23.4789 14.0787L23.4789 14.0787C24.1378 12.577 25.9041 11.9784 27.4081 12.2381C29.1409 12.5398 30.0906 14.1473 29.6538 15.9995L29.6538 15.9996C29.519 16.572 29.2787 16.9524 28.989 17.2087C28.6968 17.4672 28.3277 17.623 27.9002 17.6999C27.0293 17.8566 25.9905 17.6747 25.0904 17.4576M25.0902 17.4575C24.9411 17.4214 24.7975 17.4299 24.6689 17.4733L25.0902 17.4575ZM26.0192 19.256C26.8535 19.3665 27.6793 19.3672 28.4346 19.159C29.6232 18.8314 30.5861 18.0014 31.1398 16.4375L31.1399 16.4371C31.6775 14.9135 31.3368 13.5452 30.5331 12.5137C29.7398 11.4955 28.5041 10.8127 27.2368 10.5919L27.2367 10.5919C24.7501 10.1593 22.3927 12.0262 21.7163 14.419L21.7162 14.4193C21.3555 15.6992 21.8737 16.9627 22.6916 17.8615C23.5044 18.7548 24.6903 19.3744 25.8054 19.2984M25.8057 19.2983C25.8837 19.2931 25.9547 19.2784 26.0192 19.256L25.8057 19.2983Z"></path></mask><path fill-rule="evenodd" clip-rule="evenodd" d="M24.1684 18.5126C24.3622 18.6149 24.5611 18.6993 24.7613 18.7633C24.7614 18.7633 24.7615 18.7634 24.7616 18.7634C25.1026 18.8723 25.4476 18.9219 25.7787 18.8993C25.8471 18.8947 25.9057 18.8744 25.9546 18.8431C26.114 18.8662 26.2724 18.8852 26.4292 18.8995C28.3011 19.0698 29.9622 18.5651 30.7627 16.304C31.7409 13.5316 29.5291 11.3972 27.1681 10.986C24.9265 10.596 22.7346 12.2871 22.1012 14.5278C21.6487 16.1336 22.7807 17.7804 24.1684 18.5126ZM24.681 17.9198C24.7605 17.8502 24.8683 17.8153 24.9961 17.8463C25.2421 17.9056 25.5033 17.9638 25.7728 18.0135C25.7728 18.0135 25.7728 18.0135 25.7729 18.0135C25.9977 18.0551 26.2283 18.0907 26.4603 18.1163C27.993 18.2853 29.5903 18.0146 30.0431 16.0913C30.5239 14.0527 29.4728 12.1914 27.4765 11.844C25.855 11.5639 23.8687 12.195 23.1126 13.918C22.4831 15.3525 23.131 17.0042 24.312 17.7309C24.4299 17.8034 24.5532 17.8668 24.681 17.9198ZM24.6689 17.4733C24.2869 17.2766 23.9556 16.9655 23.7083 16.5787C23.2475 15.8581 23.11 14.9192 23.4789 14.0787L23.4789 14.0787C24.1378 12.577 25.9041 11.9784 27.4081 12.2381C29.1409 12.5398 30.0906 14.1473 29.6538 15.9995L29.6538 15.9996C29.519 16.572 29.2787 16.9524 28.989 17.2087C28.6968 17.4672 28.3277 17.623 27.9002 17.6999C27.0293 17.8566 25.9905 17.6747 25.0904 17.4576M25.0902 17.4575C24.9411 17.4214 24.7975 17.4299 24.6689 17.4733L25.0902 17.4575ZM26.0192 19.256C26.8535 19.3665 27.6793 19.3672 28.4346 19.159C29.6232 18.8314 30.5861 18.0014 31.1398 16.4375L31.1399 16.4371C31.6775 14.9135 31.3368 13.5452 30.5331 12.5137C29.7398 11.4955 28.5041 10.8127 27.2368 10.5919L27.2367 10.5919C24.7501 10.1593 22.3927 12.0262 21.7163 14.419L21.7162 14.4193C21.3555 15.6992 21.8737 16.9627 22.6916 17.8615C23.5044 18.7548 24.6903 19.3744 25.8054 19.2984M25.8057 19.2983C25.8837 19.2931 25.9547 19.2784 26.0192 19.256L25.8057 19.2983Z" fill="#8B75F3"></path><path d="M24.6689 17.4733L24.6614 17.2735L24.6764 17.6732L24.6689 17.4733ZM26.0192 19.256L26.0581 19.4522L25.9803 19.0598L26.0192 19.256ZM25.0829 17.2577L24.6614 17.2735L24.6764 17.6732L25.0979 17.6574L25.0829 17.2577ZM24.6764 17.6732L25.0977 17.6574L25.0827 17.2576L24.6614 17.2735L24.6764 17.6732ZM25.8443 19.4945L26.0581 19.4522L25.9803 19.0598L25.7665 19.1022L25.8443 19.4945ZM25.9803 19.0598L25.7668 19.1022L25.8446 19.4945L26.0581 19.4522L25.9803 19.0598ZM24.1684 18.5126L23.9817 18.8664H23.9817L24.1684 18.5126ZM24.7613 18.7633L24.8834 18.3824L24.8831 18.3823L24.7613 18.7633ZM24.7616 18.7634L24.6395 19.1443L24.6399 19.1444L24.7616 18.7634ZM25.7787 18.8993L25.752 18.5001L25.7514 18.5002L25.7787 18.8993ZM25.9546 18.8431L26.012 18.4473L25.8645 18.4259L25.739 18.5062L25.9546 18.8431ZM26.4292 18.8995L26.4654 18.5012H26.4654L26.4292 18.8995ZM30.7627 16.304L31.1398 16.4375L31.1399 16.4371L30.7627 16.304ZM27.1681 10.986L27.2368 10.5919L27.2367 10.5919L27.1681 10.986ZM22.1012 14.5278L21.7163 14.419L21.7162 14.4193L22.1012 14.5278ZM24.9961 17.8463L24.9018 18.235L24.9023 18.2351L24.9961 17.8463ZM24.681 17.9198L24.5278 18.2893L24.7572 18.3843L24.9442 18.2209L24.681 17.9198ZM25.7728 18.0135L25.7002 18.4069L25.7012 18.4071L25.7728 18.0135ZM25.7729 18.0135L25.8455 17.6202L25.8444 17.62L25.7729 18.0135ZM26.4603 18.1163L26.5041 17.7187H26.5041L26.4603 18.1163ZM30.0431 16.0913L29.6538 15.9995L29.6538 15.9996L30.0431 16.0913ZM27.4765 11.844L27.5451 11.4499L27.5446 11.4498L27.4765 11.844ZM23.1126 13.918L23.4789 14.0787L23.4789 14.0787L23.1126 13.918ZM24.312 17.7309L24.5216 17.3902H24.5216L24.312 17.7309ZM24.6689 17.4733L24.4857 17.8289L24.6364 17.9066L24.7971 17.8523L24.6689 17.4733ZM23.7083 16.5787L23.3713 16.7942L23.7083 16.5787ZM23.4789 14.0787L23.8452 14.2395L23.8452 14.2393L23.4789 14.0787ZM23.4789 14.0787L23.1126 13.918L23.1125 13.9182L23.4789 14.0787ZM27.4081 12.2381L27.4767 11.844L27.4761 11.8439L27.4081 12.2381ZM29.6538 15.9995L30.0431 16.0914L30.0431 16.0913L29.6538 15.9995ZM29.6538 15.9996L29.2645 15.9078L29.2644 15.908L29.6538 15.9996ZM28.989 17.2087L29.254 17.5082V17.5082L28.989 17.2087ZM27.9002 17.6999L27.8293 17.3062L27.9002 17.6999ZM26.0192 19.256L26.0717 18.8594L25.9776 18.847L25.888 18.8781L26.0192 19.256ZM28.4346 19.159L28.3283 18.7734L28.3283 18.7734L28.4346 19.159ZM31.1398 16.4375L31.5168 16.571L31.5171 16.5701L31.1398 16.4375ZM31.1399 16.4371L30.7627 16.304L30.7625 16.3046L31.1399 16.4371ZM30.5331 12.5137L30.2176 12.7596L30.2176 12.7596L30.5331 12.5137ZM27.2368 10.5919L27.3054 10.1978L27.3053 10.1978L27.2368 10.5919ZM27.2367 10.5919L27.3052 10.1978V10.1978L27.2367 10.5919ZM21.7163 14.419L21.3314 14.3102L21.3313 14.3105L21.7163 14.419ZM21.7162 14.4193L21.3312 14.3108L21.3312 14.3108L21.7162 14.4193ZM22.6916 17.8615L22.9874 17.5923H22.9874L22.6916 17.8615ZM23.9817 18.8664C24.1949 18.9789 24.4154 19.0727 24.6396 19.1443L24.8831 18.3823C24.7068 18.3259 24.5296 18.2509 24.355 18.1588L23.9817 18.8664ZM24.6392 19.1442L24.6395 19.1443L24.8837 18.3825L24.8834 18.3824L24.6392 19.1442ZM24.6399 19.1444C25.021 19.2662 25.4168 19.325 25.806 19.2983L25.7514 18.5002C25.4785 18.5189 25.1843 18.4785 24.8833 18.3824L24.6399 19.1444ZM25.8054 19.2984C25.9392 19.2894 26.0631 19.2486 26.1702 19.1801L25.739 18.5062C25.7429 18.5037 25.7468 18.5019 25.7501 18.5009C25.7533 18.4998 25.7543 18.5 25.752 18.5001L25.8054 19.2984ZM25.8972 19.239C26.063 19.263 26.2284 19.2829 26.3929 19.2979L26.4654 18.5012C26.3163 18.4876 26.165 18.4695 26.012 18.4473L25.8972 19.239ZM26.3929 19.2979C27.3695 19.3867 28.3386 19.3047 29.1815 18.8688C30.0357 18.4271 30.7115 17.6472 31.1398 16.4375L30.3856 16.1705C30.0134 17.222 29.4584 17.825 28.814 18.1583C28.1582 18.4974 27.3608 18.5826 26.4654 18.5012L26.3929 19.2979ZM31.1399 16.4371C31.6775 14.9135 31.3368 13.5452 30.5331 12.5137C29.7398 11.4955 28.5041 10.8127 27.2368 10.5919L27.0995 11.38C28.1931 11.5705 29.2438 12.1606 29.9021 13.0054C30.55 13.837 30.8261 14.9221 30.3855 16.1709L31.1399 16.4371ZM27.2367 10.5919C24.7501 10.1593 22.3927 12.0262 21.7163 14.419L22.4861 14.6366C23.0765 12.5481 25.1029 11.0327 27.0996 11.3801L27.2367 10.5919ZM21.7162 14.4193C21.1933 16.2749 22.4992 18.0841 23.9817 18.8664L24.355 18.1588C23.0622 17.4767 22.1041 15.9922 22.4862 14.6363L21.7162 14.4193ZM25.0904 17.4576C24.83 17.3944 24.5902 17.4679 24.4178 17.6186L24.9442 18.2209C24.9412 18.2235 24.9329 18.2294 24.9198 18.2328C24.9136 18.2344 24.9082 18.2349 24.9042 18.2349C24.9002 18.2349 24.8993 18.2344 24.9018 18.235L25.0904 17.4576ZM25.8454 17.6202C25.5851 17.5721 25.3312 17.5157 25.0899 17.4574L24.9023 18.2351C25.1529 18.2956 25.4216 18.3555 25.7002 18.4069L25.8454 17.6202ZM25.8444 17.62L25.8443 17.62L25.7012 18.4071L25.7013 18.4071L25.8444 17.62ZM26.5041 17.7187C26.2835 17.6944 26.0627 17.6603 25.8455 17.6202L25.7002 18.4069C25.9327 18.4498 26.173 18.487 26.4165 18.5139L26.5041 17.7187ZM29.6538 15.9996C29.4544 16.8464 29.0212 17.2893 28.4946 17.5227C27.942 17.7676 27.2428 17.8001 26.5041 17.7187L26.4165 18.5139C27.2105 18.6014 28.0763 18.5831 28.8187 18.2541C29.5871 17.9136 30.179 17.2596 30.4325 16.183L29.6538 15.9996ZM27.4079 12.238C29.1409 12.5397 30.0907 14.1473 29.6538 15.9995L30.4324 16.1831C30.9572 13.9582 29.8046 11.8432 27.5451 11.4499L27.4079 12.238ZM23.4789 14.0787C24.1379 12.5769 25.9044 11.9783 27.4084 12.2381L27.5446 11.4498C25.8056 11.1494 23.5994 11.813 22.7463 13.7573L23.4789 14.0787ZM24.5216 17.3902C23.4965 16.7595 22.9361 15.3157 23.4789 14.0787L22.7463 13.7573C22.0301 15.3894 22.7655 17.249 24.1024 18.0716L24.5216 17.3902ZM24.8341 17.5502C24.7265 17.5056 24.6221 17.452 24.5216 17.3902L24.1024 18.0716C24.2378 18.1549 24.3798 18.2279 24.5278 18.2893L24.8341 17.5502ZM24.8521 17.1178C24.5386 16.9563 24.2582 16.6963 24.0453 16.3632L23.3713 16.7942C23.6529 17.2347 24.0352 17.5968 24.4857 17.8289L24.8521 17.1178ZM24.0453 16.3632C23.6469 15.7403 23.5368 14.9421 23.8452 14.2395L23.1126 13.918C22.6833 14.8963 22.848 15.9759 23.3713 16.7942L24.0453 16.3632ZM23.8452 14.2393L23.8453 14.2393L23.1125 13.9182L23.1125 13.9182L23.8452 14.2393ZM23.8452 14.2395C24.4075 12.9578 25.9549 12.3931 27.34 12.6322L27.4761 11.8439C25.8533 11.5637 23.8682 12.1961 23.1126 13.918L23.8452 14.2395ZM27.3395 12.6321C28.0939 12.7635 28.6626 13.1736 29.0008 13.7419C29.341 14.3134 29.4621 15.07 29.2645 15.9077L30.0431 16.0913C30.2824 15.0769 30.1471 14.1036 29.6883 13.3328C29.2277 12.5589 28.4552 12.0144 27.4767 11.844L27.3395 12.6321ZM29.2645 15.9076L29.2645 15.9078L30.0431 16.0915L30.0431 16.0914L29.2645 15.9076ZM29.2644 15.908C29.1458 16.4118 28.9431 16.7152 28.7239 16.9091L29.254 17.5082C29.6143 17.1895 29.8922 16.7322 30.0431 16.0913L29.2644 15.908ZM28.7239 16.9091C28.4997 17.1075 28.2041 17.2388 27.8293 17.3062L27.971 18.0936C28.4513 18.0071 28.8938 17.827 29.254 17.5082L28.7239 16.9091ZM27.8293 17.3062C27.048 17.4468 26.0811 17.2851 25.1843 17.0687L24.9966 17.8464C25.8999 18.0643 27.0107 18.2664 27.971 18.0936L27.8293 17.3062ZM25.1844 17.0687C24.9624 17.015 24.7416 17.0265 24.5408 17.0944L24.7971 17.8523C24.8533 17.8332 24.9199 17.8278 24.996 17.8462L25.1844 17.0687ZM25.9666 19.6525C26.8311 19.7671 27.7154 19.7721 28.5409 19.5446L28.3283 18.7734C27.6431 18.9622 26.8759 18.966 26.0717 18.8594L25.9666 19.6525ZM28.5409 19.5446C29.8667 19.1792 30.9235 18.2469 31.5168 16.571L30.7627 16.304C30.2487 17.756 29.3798 18.4836 28.3283 18.7734L28.5409 19.5446ZM31.5171 16.5701L31.5173 16.5697L30.7625 16.3046L30.7624 16.305L31.5171 16.5701ZM31.5171 16.5702C32.1032 14.9091 31.7301 13.3992 30.8487 12.2679L30.2176 12.7596C30.9435 13.6912 31.2518 14.9179 30.7627 16.304L31.5171 16.5702ZM30.8487 12.2679C29.9878 11.1629 28.6596 10.4337 27.3054 10.1978L27.1681 10.986C28.3487 11.1916 29.4918 11.828 30.2176 12.7596L30.8487 12.2679ZM27.3053 10.1978L27.3052 10.1978L27.1681 10.986L27.1682 10.986L27.3053 10.1978ZM27.3052 10.1978C24.5728 9.72245 22.0505 11.7662 21.3314 14.3102L22.1012 14.5278C22.7348 12.2862 24.9273 10.5961 27.1681 10.986L27.3052 10.1978ZM21.3313 14.3105L21.3312 14.3108L22.1012 14.5278L22.1013 14.5275L21.3313 14.3105ZM21.3312 14.3108C20.9215 15.7649 21.518 17.1662 22.3957 18.1307L22.9874 17.5923C22.2294 16.7592 21.7896 15.6336 22.1012 14.5278L21.3312 14.3108ZM22.3957 18.1307C23.2636 19.0846 24.5604 19.7842 25.8326 19.6974L25.7781 18.8993C24.8202 18.9646 23.7452 18.4251 22.9874 17.5923L22.3957 18.1307ZM25.8325 19.6974C25.9446 19.6899 26.0509 19.6684 26.1504 19.6338L25.888 18.8781C25.8585 18.8883 25.8227 18.8963 25.7789 18.8992L25.8325 19.6974Z" fill="#8B75F3" mask="url(#path-5-outside-5_4086_9093)"></path></g></g></svg>