<svg xmlns="http://www.w3.org/2000/svg" width="117" height="27" viewBox="0 0 117 27" fill="none"><g clip-path="url(#clip0_4645_25413)"><path d="M6.78096 19.2342C6.62647 19.5233 6.8749 19.8618 7.20145 19.8071L15.2102 18.4653L18.9787 22.2856L18.284 26.566C18.2491 26.7809 18.0446 26.9272 17.8268 26.8933L0.879323 24.2473C0.661241 24.2132 0.512433 24.0111 0.546972 23.7959L3.22798 7.08968C3.26244 6.87496 3.46642 6.72822 3.68408 6.76156L8.04189 7.42892L10.561 12.1588L6.78096 19.2342Z" fill="#CACACA"></path><path d="M15.1067 5.83481C15.1716 5.84583 15.2378 5.8246 15.2838 5.77806L20.8702 0.119628C21.1016 -0.114778 21.5049 0.014825 21.5522 0.338769L22.6914 8.15496C22.7008 8.21932 22.7417 8.27497 22.8007 8.30375L29.9882 11.8052C30.2854 11.9499 30.2854 12.3679 29.9882 12.5126L22.8007 16.014C22.7417 16.0428 22.7008 16.0985 22.6914 16.1628L21.5521 23.9797C21.5048 24.3035 21.1017 24.4332 20.8702 24.199L18.9789 22.2857L20.9648 9.85965C20.9991 9.64467 20.8505 9.44283 20.6328 9.40859L8.04206 7.42904L6.78127 5.06491C6.62687 4.7754 6.87609 4.4369 7.20279 4.49239L15.1067 5.83481Z" fill="#8D8C8E"></path><path d="M20.6321 9.40924C20.8499 9.44349 20.9984 9.64532 20.9641 9.86031L18.9782 22.2863L15.2829 18.5402C15.2371 18.4938 15.171 18.4726 15.1062 18.4834L7.20092 19.8079C6.87437 19.8626 6.62594 19.5241 6.78043 19.235L10.5114 12.2514C10.5422 12.1939 10.5422 12.1251 10.5115 12.0676L8.04136 7.42969L20.6321 9.40924Z" fill="#A9A9A9"></path><path d="M36.8449 8.74707H34.3057V22.137H36.8449V8.74707Z" fill="#8D8C8E"></path><path d="M49.564 8.74707V18.1442L43.1675 8.74707H40.415V22.137H42.9543V12.7399L49.3508 22.137H52.1033V8.74707H49.564Z" fill="#8D8C8E"></path><path d="M60.0668 22.3986C63.5558 22.3986 65.3197 20.382 65.3197 18.2042C65.3197 16.107 63.8272 14.6348 61.3462 14.3727L58.9813 14.1307C57.8183 13.9896 57.1399 13.4854 57.1399 12.5981C57.1399 11.6504 57.9734 10.8437 59.6792 10.8437C61.0748 10.8437 62.3735 11.4689 62.8193 12.457H65.3972C64.777 10.4606 62.9355 8.48438 59.7179 8.48438C56.5778 8.48438 54.6007 10.2186 54.6007 12.6788C54.6007 14.6752 55.7055 16.2078 58.3998 16.47L60.6095 16.6918C62.1408 16.853 62.7805 17.337 62.7805 18.305C62.7805 19.3536 61.695 20.0392 60.0668 20.0392C58.5937 20.0392 57.4112 19.5552 56.8104 18.426H54.2324C54.9108 20.6846 56.6553 22.3986 60.0668 22.3986Z" fill="#8D8C8E"></path><path d="M76.9272 11.1065V8.74707H67.8945V22.137H76.9272V19.7776H70.4337V16.6117H76.7915V14.2523H70.4337V11.1065H76.9272Z" fill="#8D8C8E"></path><path d="M89.0914 8.74707V18.1442L82.6948 8.74707H79.9424V22.137H82.4816V12.7399L88.8782 22.137H91.6306V8.74707H89.0914Z" fill="#8D8C8E"></path><path d="M99.5944 22.3986C103.084 22.3986 104.847 20.382 104.847 18.2042C104.847 16.107 103.355 14.6348 100.873 14.3727L98.5085 14.1307C97.3461 13.9896 96.6673 13.4854 96.6673 12.5981C96.6673 11.6504 97.5009 10.8437 99.2063 10.8437C100.602 10.8437 101.901 11.4689 102.347 12.457H104.925C104.304 10.4606 102.463 8.48438 99.245 8.48438C96.1051 8.48438 94.128 10.2186 94.128 12.6788C94.128 14.6752 95.2329 16.2078 97.9268 16.47L100.136 16.6918C101.669 16.853 102.307 17.337 102.307 18.305C102.307 19.3536 101.222 20.0392 99.5944 20.0392C98.1213 20.0392 96.9387 19.5552 96.3378 18.426H93.7598C94.4382 20.6846 96.1827 22.3986 99.5944 22.3986Z" fill="#8D8C8E"></path><path d="M116.456 11.1065V8.74707H107.424V22.137H116.456V19.7776H109.963V16.6117H116.321V14.2523H109.963V11.1065H116.456Z" fill="#8D8C8E"></path></g><defs><clipPath id="clip0_4645_25413"><rect width="116.049" height="26.9099" fill="white" transform="translate(0.500977)"></rect></clipPath></defs></svg>