<svg xmlns="http://www.w3.org/2000/svg" width="1199" height="276" viewBox="0 0 1199 276" fill="none"><path d="M64.8809 197.276C63.2848 200.241 65.8515 203.713 69.2254 203.152L151.971 189.389L190.906 228.572L183.729 272.474C183.368 274.678 181.255 276.179 179.005 275.831L3.90615 248.692C1.65296 248.343 0.115494 246.27 0.472348 244.062L28.1721 72.7161C28.5281 70.5138 30.6356 69.0088 32.8845 69.3507L77.9087 76.1955L103.936 124.707L64.8809 197.276Z" fill="#01CAE5"></path><path d="M150.899 59.8444C151.57 59.9574 152.254 59.7397 152.729 59.2624L210.447 1.22696C212.838 -1.17722 217.005 0.152051 217.493 3.47456L229.263 83.6409C229.36 84.301 229.783 84.8718 230.393 85.167L304.653 121.079C307.723 122.563 307.723 126.851 304.653 128.335L230.393 164.247C229.783 164.542 229.36 165.113 229.263 165.773L217.492 245.946C217.004 249.268 212.839 250.598 210.447 248.196L190.906 228.572L211.424 101.125C211.779 98.92 210.244 96.8499 207.994 96.4987L77.9087 76.1955L64.8824 51.948C63.2872 48.9786 65.8621 45.5068 69.2375 46.0759L150.899 59.8444Z" fill="#F740C4"></path><path d="M207.994 96.4987C210.244 96.8499 211.779 98.92 211.424 101.125L190.906 228.572L152.727 190.15C152.254 189.674 151.571 189.456 150.902 189.567L69.2254 203.152C65.8515 203.713 63.2848 200.241 64.8809 197.276L103.429 125.649C103.747 125.059 103.747 124.354 103.43 123.764L77.9087 76.1955L207.994 96.4987Z" fill="#333333"></path><path d="M375.504 89.709H349.269V227.042H375.504V89.709Z" fill="#333333"></path><path d="M506.91 89.709V186.09L440.822 89.709H412.384V227.042H438.619V130.661L504.707 227.042H533.145V89.709H506.91Z" fill="#333333"></path><path d="M615.422 229.731C651.47 229.731 669.694 209.048 669.694 186.711C669.694 165.201 654.274 150.102 628.64 147.414L604.207 144.932C592.191 143.484 585.182 138.313 585.182 129.213C585.182 119.492 593.793 111.219 611.417 111.219C625.836 111.219 639.254 117.631 643.86 127.765H670.495C664.087 107.289 645.061 87.0203 611.817 87.0203C579.374 87.0203 558.947 104.807 558.947 130.04C558.947 150.516 570.362 166.235 598.199 168.924L621.029 171.199C636.85 172.853 643.459 177.817 643.459 187.745C643.459 198.5 632.244 205.532 615.422 205.532C600.202 205.532 587.985 200.568 581.777 188.986H555.142C562.151 212.151 580.175 229.731 615.422 229.731Z" fill="#333333"></path><path d="M789.626 113.908V89.709H696.302V227.042H789.626V202.843H722.536V170.372H788.224V146.173H722.536V113.908H789.626Z" fill="#333333"></path><path d="M915.306 89.709V186.09L849.218 89.709H820.78V227.042H847.015V130.661L913.103 227.042H941.541V89.709H915.306Z" fill="#333333"></path><path d="M1023.82 229.731C1059.87 229.731 1078.09 209.048 1078.09 186.711C1078.09 165.201 1062.67 150.102 1037.03 147.414L1012.6 144.932C1000.59 143.484 993.577 138.313 993.577 129.213C993.577 119.492 1002.19 111.219 1019.81 111.219C1034.23 111.219 1047.65 117.631 1052.26 127.765H1078.89C1072.48 107.289 1053.46 87.0203 1020.21 87.0203C987.769 87.0203 967.342 104.807 967.342 130.04C967.342 150.516 978.757 166.235 1006.59 168.924L1029.42 171.199C1045.25 172.853 1051.85 177.817 1051.85 187.745C1051.85 198.5 1040.64 205.532 1023.82 205.532C1008.6 205.532 996.381 200.568 990.173 188.986H963.537C970.546 212.151 988.57 229.731 1023.82 229.731Z" fill="#333333"></path><path d="M1198.02 113.908V89.709H1104.7V227.042H1198.02V202.843H1130.93V170.372H1196.62V146.173H1130.93V113.908H1198.02Z" fill="#333333"></path></svg>