<svg xmlns="http://www.w3.org/2000/svg" width="193" height="39" viewBox="0 0 193 39" fill="none"><mask id="mask0_4645_25472" style="mask-type:luminance" maskUnits="userSpaceOnUse" x="0" y="0" width="193" height="39"><path d="M0 0H192.95V38.0468H0V0Z" fill="white"></path></mask><g mask="url(#mask0_4645_25472)"><path d="M188.534 27.8554C189.249 27.8554 189.892 27.7666 190.465 27.5862C191.038 27.4058 191.501 27.1598 191.859 26.8453C192.216 26.5298 192.488 26.1661 192.673 25.7571C192.859 25.347 192.951 24.9061 192.951 24.4334C192.951 23.9327 192.868 23.4976 192.706 23.131C192.443 22.5415 191.888 22.0428 191.041 21.6356C190.769 21.5073 189.974 21.1986 188.661 20.7027C188.345 20.5882 188.032 20.4621 187.725 20.3245C187.479 20.2127 187.243 20.0827 187.017 19.9358C186.783 19.7833 186.609 19.6174 186.499 19.4312C186.388 19.2479 186.334 19.0453 186.334 18.8215C186.334 18.4066 186.526 18.0709 186.908 17.8104C187.289 17.5499 187.729 17.4216 188.222 17.4216C189.414 17.4216 190.503 17.8365 191.489 18.6642L192.549 17.0975C191.315 16.1153 189.907 15.6262 188.319 15.6262C187.153 15.6262 186.181 15.932 185.407 16.5427C184.634 17.1525 184.248 17.9107 184.248 18.8215C184.238 19.5659 184.491 20.2899 184.962 20.8667C185.168 21.107 185.443 21.3298 185.788 21.5421C186.134 21.7543 186.465 21.9251 186.78 22.063C187.097 22.1981 187.486 22.3409 187.947 22.4923C188.011 22.5155 188.112 22.5464 188.242 22.5869C188.504 22.6814 188.699 22.7528 188.826 22.7962C188.954 22.8387 189.119 22.8995 189.325 22.9766C189.615 23.0781 189.894 23.2084 190.158 23.3654C190.302 23.4455 190.406 23.5198 190.474 23.5864C190.539 23.6549 190.609 23.7349 190.684 23.8237C190.754 23.9088 190.805 24.0087 190.831 24.116C190.854 24.2192 190.87 24.3312 190.87 24.4508C190.87 24.9061 190.659 25.2843 190.241 25.5882C189.821 25.8912 189.255 26.0426 188.54 26.0426C187.725 26.0426 187.025 25.923 186.438 25.6857C185.826 25.4317 185.264 25.0707 184.778 24.6196L183.719 26.1266C185.045 27.2804 186.654 27.8554 188.534 27.8554ZM174.823 26.0388C173.589 26.0388 172.592 25.6432 171.827 24.8473C171.062 24.0543 170.681 23.0461 170.681 21.8267C170.681 20.5175 171.077 19.4611 171.871 18.6565C172.665 17.8519 173.658 17.4477 174.85 17.4477C175.416 17.4477 175.951 17.5634 176.453 17.7892C176.955 18.0149 177.384 18.3246 177.743 18.7163C178.1 19.1061 178.384 19.573 178.593 20.1113C178.804 20.6497 178.91 21.2218 178.91 21.8267C178.91 22.4393 178.797 23.0114 178.576 23.541C178.372 24.0442 178.068 24.5005 177.682 24.882C177.306 25.2448 176.872 25.5284 176.373 25.732C175.872 25.9346 175.358 26.0388 174.823 26.0388ZM178.83 9.66503V17.5451H178.794C178.463 17.1359 178.07 16.7813 177.629 16.4945C177.19 16.2082 176.71 15.9903 176.206 15.8481C175.687 15.7037 175.152 15.6313 174.614 15.633C173.761 15.633 172.957 15.7902 172.211 16.1057C171.492 16.4006 170.842 16.8399 170.3 17.3965C169.761 17.9646 169.338 18.6329 169.055 19.3637C168.748 20.1439 168.593 20.9757 168.599 21.8141C168.599 22.7084 168.757 23.5333 169.069 24.2916C169.356 25.0113 169.791 25.6629 170.345 26.2047C170.897 26.7314 171.548 27.1438 172.261 27.4184C173.015 27.713 173.818 27.8616 174.628 27.8564C175.221 27.8564 175.783 27.7734 176.312 27.6103C177.338 27.3005 178.238 26.6704 178.88 25.812H178.916V27.702H180.876V9.66406L178.83 9.66503ZM163.244 27.702H165.279V9.66406H163.244V27.701V27.702ZM160.124 15.633C159.294 15.633 158.535 15.824 157.847 16.2138C157.159 16.5997 156.586 17.1476 156.126 17.8577H156.076V15.7738H154.03V27.6981H156.076V21.9482C156.076 21.1484 156.224 20.4413 156.519 19.82C156.8 19.2147 157.25 18.7034 157.815 18.3478C158.382 17.9908 159.049 17.8094 159.813 17.8094C160.061 17.8094 160.331 17.821 160.629 17.8442V15.6561C160.461 15.6351 160.293 15.6267 160.124 15.631V15.633ZM144.562 26.0272C143.732 26.0272 142.988 25.8342 142.33 25.4541C141.689 25.0886 141.162 24.5522 140.807 23.9047C140.447 23.2467 140.262 22.5073 140.27 21.7572C140.27 20.9671 140.446 20.2454 140.8 19.5933C141.151 18.9436 141.677 18.405 142.318 18.0381C142.977 17.6541 143.723 17.4621 144.562 17.4621C145.314 17.4534 146.055 17.6389 146.714 18.0005C147.36 18.3584 147.872 18.8687 148.249 19.5267C148.627 20.1856 148.816 20.9275 148.816 21.7572C148.816 22.5792 148.627 23.3153 148.249 23.9713C147.886 24.6102 147.353 25.1357 146.708 25.4889C146.051 25.8491 145.312 26.0344 144.562 26.0272ZM144.562 27.8564C145.764 27.8564 146.844 27.6017 147.803 27.0923C148.747 26.6 149.532 25.8491 150.065 24.9274C150.612 23.9935 150.886 22.9371 150.886 21.7572C150.886 20.5696 150.612 19.5064 150.065 18.5706C149.532 17.6473 148.748 16.8944 147.803 16.3999C146.841 15.8906 145.761 15.6359 144.562 15.6359C143.626 15.6359 142.758 15.7931 141.961 16.1086C141.164 16.4231 140.491 16.8524 139.944 17.3994C139.391 17.9568 138.955 18.6199 138.663 19.3492C138.353 20.1152 138.195 20.9345 138.199 21.7611C138.199 22.6139 138.354 23.4127 138.663 24.1594C138.957 24.8845 139.393 25.5437 139.944 26.0986C140.491 26.6456 141.164 27.0749 141.961 27.3904C142.758 27.6991 143.623 27.8564 144.562 27.8564ZM136.107 10.2979L131.68 24.2318H131.63L127.598 10.2979H125.219L121.162 24.1971H121.112L116.698 10.3008H114.342L120.075 27.702H122.195L126.399 13.4449H126.45L130.591 27.702H132.712L138.444 10.3008H136.107V10.2979ZM109.172 15.4892C108.449 15.4892 107.767 15.633 107.127 15.9195C106.482 16.209 105.906 16.6326 105.437 17.1621H105.414V15.715H101.466V27.6981H105.414V21.6848C105.414 21.0771 105.512 20.5657 105.704 20.1412C105.896 19.7177 106.161 19.408 106.498 19.2083C106.834 19.0077 107.23 18.9102 107.681 18.9102C108.141 18.9102 108.508 18.9845 108.786 19.1312C109.06 19.2768 109.276 19.5402 109.427 19.9213C109.58 20.2995 109.653 20.8117 109.653 21.4591V27.701H113.601V20.5136C113.601 19.5971 113.495 18.807 113.279 18.1461C113.067 17.4843 112.757 16.9595 112.349 16.5794C111.953 16.2042 111.479 15.9209 110.961 15.7497C110.444 15.577 109.845 15.4892 109.172 15.4892ZM99.7636 15.4892C99.3111 15.4892 98.8712 15.5587 98.4438 15.6986C98.0102 15.8406 97.6009 16.0482 97.2302 16.3141C96.8491 16.5861 96.5008 16.9219 96.1882 17.3194H96.1381V15.7159H92.1903V27.6981H96.1381V22.3148C96.1381 21.7881 96.2413 21.3211 96.4535 20.915C96.6629 20.5079 96.9851 20.1876 97.4164 19.9531C97.8466 19.7177 98.3666 19.6 98.9744 19.6C99.3526 19.6 99.6633 19.6097 99.8987 19.6232V15.4998C99.8544 15.4898 99.8089 15.4869 99.7636 15.4892ZM83.2625 24.555C82.4888 24.555 81.8569 24.2945 81.3639 23.7706C80.8719 23.2497 80.6229 22.5676 80.6229 21.7321C80.6229 20.887 80.8738 20.2001 81.3755 19.6762C81.8771 19.1485 82.51 18.8851 83.2741 18.8851C83.7584 18.8851 84.2012 19.0086 84.5997 19.2489C84.9981 19.4929 85.3116 19.8306 85.5355 20.2657C85.7631 20.7008 85.875 21.188 85.875 21.7321C85.875 22.5676 85.6242 23.2497 85.1225 23.7706C84.6238 24.2945 84.0034 24.555 83.2625 24.555ZM85.7159 15.7159V16.9846H85.6657C84.7858 15.988 83.6523 15.4892 82.2621 15.4892C81.5083 15.485 80.7618 15.6371 80.0697 15.9358C79.3776 16.2345 78.755 16.6734 78.241 17.2248C77.7393 17.7651 77.3438 18.4269 77.0563 19.2025C76.7645 20.0097 76.6188 20.8623 76.626 21.7205C76.626 22.6371 76.7707 23.4812 77.0572 24.2549C77.3467 25.0267 77.7451 25.6808 78.2526 26.2163C78.7639 26.7488 79.3804 27.1695 80.1039 27.4733C80.8275 27.7763 81.6089 27.9287 82.4444 27.9287C83.933 27.9287 85.0753 27.4213 85.8722 26.4102H85.9223V27.702H89.6723V15.715H85.7168L85.7159 15.7159ZM69.18 18.5504C69.566 18.5504 69.9152 18.6247 70.2278 18.7771C70.5413 18.9286 70.795 19.1437 70.9928 19.4235C71.1906 19.7013 71.3353 20.0361 71.4241 20.4287L66.8 20.4519C66.9245 19.8441 67.1985 19.3781 67.6268 19.0463C68.0552 18.7163 68.5723 18.5504 69.18 18.5504ZM75.2966 21.5999C75.2966 20.4287 75.037 19.3752 74.5151 18.4414C74.007 17.5232 73.2481 16.7686 72.3271 16.2658C71.3913 15.7468 70.3281 15.4892 69.1444 15.4892C68.2471 15.4892 67.4117 15.6436 66.635 15.9562C65.8928 16.2458 65.2161 16.6811 64.6448 17.2364C64.0929 17.7766 63.6617 18.4356 63.3423 19.2093C63.0223 20.0032 62.861 20.8521 62.8677 21.708C62.8677 22.6197 63.0327 23.461 63.3607 24.2376C63.6887 25.0132 64.1373 25.6722 64.7046 26.2105C65.2936 26.763 65.9869 27.1924 66.7441 27.4733C67.5572 27.7804 68.4199 27.9348 69.2891 27.9287C70.5143 27.9287 71.6006 27.7194 72.5461 27.3016C73.4906 26.8829 74.244 26.3301 74.8016 25.6432L72.7043 23.3568C71.8476 24.3215 70.85 24.8039 69.7078 24.8039C68.9746 24.8039 68.3407 24.6225 67.8034 24.2588C67.266 23.8951 66.9254 23.3886 66.7846 22.7326H75.1962C75.2638 22.2666 75.2966 21.8894 75.2966 21.5999ZM50.6279 27.702H62.3911V24.0543H54.8689V10.2969H50.626V27.701L50.6279 27.702Z" fill="#8D8C8E"></path><path fill-rule="evenodd" clip-rule="evenodd" d="M24.0293 1.9015L37.2686 14.7443C41.6023 18.9477 37.4259 23.1511 37.2763 23.3016L37.2715 23.3054L24.0293 36.1492C19.6156 40.4298 15.2019 36.1492 15.2019 36.1492L1.96068 23.3054C-2.45305 19.0248 1.96068 14.7443 1.96068 14.7443L15.2019 1.90053C19.6156 -2.38006 24.0293 1.9015 24.0293 1.9015ZM24.5339 8.4782C24.5564 8.45732 24.5862 8.44622 24.6169 8.44733C24.6016 8.44607 24.5863 8.44818 24.5719 8.45351C24.5576 8.45885 24.5446 8.46728 24.5339 8.4782ZM33.672 20.8656L35.3719 19.2159C35.3719 19.2159 35.5697 19.0248 35.3748 18.8271L33.7781 17.2777C33.7781 17.2777 33.7666 17.2661 33.7492 17.2555L33.7106 17.2169C33.6979 17.2038 33.6851 17.191 33.672 17.1783L33.4829 16.995C33.4829 16.995 31.5824 15.1504 29.6799 16.995L27.4957 19.1126C27.4957 19.1126 25.5942 20.9563 27.4957 22.8009L27.6848 22.9842C27.6848 22.9842 29.5853 24.8278 31.4869 22.9842L32.7796 21.73L33.672 20.8656ZM30.5539 14.4664C30.5755 14.4757 30.5994 14.4784 30.6225 14.4743C30.6457 14.4702 30.6671 14.4594 30.6842 14.4432C30.7315 14.3998 30.7315 14.3284 30.6813 14.2792C30.6794 14.2769 30.6771 14.275 30.6745 14.2735L29.8632 13.4862L29.7831 13.409L29.3847 13.0231L29.376 13.0135L27.7909 11.4766C27.7909 11.4766 27.7793 11.4651 27.762 11.4535L27.7542 11.4458C27.7318 11.421 27.7086 11.3969 27.6848 11.3734L27.4957 11.1901C27.4957 11.1901 25.5942 9.34647 23.6926 11.1901L17.5163 17.1812C17.5163 17.1812 15.6158 19.0239 17.5163 20.8685L17.7054 21.0518C17.7054 21.0518 19.606 22.8964 21.5084 21.0518L26.7895 15.9261L27.6848 15.0588C28.7528 14.0217 29.8217 14.1538 30.5539 14.4664ZM24.5696 8.6615C24.5911 8.67088 24.6149 8.67377 24.638 8.66983C24.6612 8.66589 24.6826 8.65528 24.6998 8.63931C24.7107 8.6285 24.7192 8.61561 24.725 8.60141C24.7307 8.58722 24.7336 8.57201 24.7333 8.55669C24.733 8.54138 24.7297 8.52628 24.7234 8.5123C24.7172 8.49831 24.7082 8.48573 24.6969 8.47531C24.6916 8.47114 24.6857 8.46758 24.6796 8.46469L24.6699 8.4589C24.673 8.461 24.6763 8.46293 24.6796 8.46469C24.6854 8.46662 24.6892 8.46952 24.6941 8.47241L23.8788 7.68228L23.7988 7.6051L23.4003 7.2192L23.3916 7.20955L21.8066 5.66981C21.8066 5.66981 21.794 5.65824 21.7776 5.64666L21.7699 5.63894C21.7471 5.61416 21.7236 5.59003 21.6995 5.56658L21.5113 5.38328C21.5113 5.38328 19.6098 3.53868 17.7083 5.38328L11.532 11.3744C11.532 11.3744 9.63141 13.2171 11.532 15.0617L11.7211 15.245C11.7211 15.245 13.6216 17.0886 15.5241 15.245L20.8051 10.1192L21.6995 9.25482C22.7684 8.21772 23.8374 8.34989 24.5696 8.6615ZM19.4082 26.5731L9.53686 16.996C9.53686 16.996 7.63631 15.1523 5.73478 16.996L5.54569 17.1793L5.47527 17.2594C5.47044 17.2636 5.46528 17.2675 5.45983 17.2709C5.45471 17.2744 5.44987 17.2783 5.44536 17.2825L3.84773 18.8319C3.84773 18.8319 3.64706 19.0239 3.84773 19.2178L5.54859 20.8675L6.44002 21.7319L17.715 32.6597C17.715 32.6597 19.6137 34.5033 21.5152 32.6597L21.5297 32.6452L21.7033 32.4764L22.4095 31.7914L22.4269 31.775L24.8002 29.4721L25.6926 28.6077L27.3934 26.958C27.3934 26.958 27.5941 26.766 27.3934 26.5721L25.7958 25.0227C25.7958 25.0227 25.7842 25.0111 25.7669 24.9995C25.7538 24.9869 25.741 24.974 25.7283 24.961L25.6897 24.9224L25.5006 24.7391C25.5006 24.7391 23.6 22.8954 21.6975 24.7391L19.8057 26.575C19.6079 26.7602 19.4101 26.5721 19.4101 26.5721L19.4082 26.5731Z" fill="#8D8C8E"></path></g></svg>