<svg xmlns="http://www.w3.org/2000/svg" width="21" height="21" viewBox="0 0 21 21" fill="none"><path fill-rule="evenodd" clip-rule="evenodd" d="M3.25928 0.263062C1.74049 0.263062 0.509277 1.49428 0.509277 3.01306C0.509277 4.53184 1.74049 5.76306 3.25928 5.76306C4.77806 5.76306 6.00928 4.53184 6.00928 3.01306C6.00928 1.49428 4.77806 0.263062 3.25928 0.263062ZM2.00928 3.01306C2.00928 2.32271 2.56892 1.76306 3.25928 1.76306C3.94963 1.76306 4.50928 2.32271 4.50928 3.01306C4.50928 3.70342 3.94963 4.26306 3.25928 4.26306C2.56892 4.26306 2.00928 3.70342 2.00928 3.01306Z" fill="#F1EBF7"></path><path fill-rule="evenodd" clip-rule="evenodd" d="M0.509277 7.01306C0.509277 6.59885 0.845064 6.26306 1.25928 6.26306H5.25928C5.67349 6.26306 6.00928 6.59885 6.00928 7.01306V20.0131C6.00928 20.4273 5.67349 20.7631 5.25928 20.7631H1.25928C0.845064 20.7631 0.509277 20.4273 0.509277 20.0131V7.01306ZM2.00928 7.76306V19.2631H4.50928V7.76306H2.00928Z" fill="#F1EBF7"></path><path fill-rule="evenodd" clip-rule="evenodd" d="M7.50928 7.01306C7.50928 6.59885 7.84506 6.26306 8.25928 6.26306H12.2593C12.6735 6.26306 13.0093 6.59885 13.0093 7.01306V7.44709L13.4445 7.26054C14.1929 6.93982 14.9932 6.73871 15.8025 6.66513C18.5775 6.41286 21.0093 8.59344 21.0093 11.3933V20.0131C21.0093 20.4273 20.6735 20.7631 20.2593 20.7631H16.2593C15.8451 20.7631 15.5093 20.4273 15.5093 20.0131V13.0131C15.5093 12.6815 15.3776 12.3636 15.1432 12.1292C14.9087 11.8948 14.5908 11.7631 14.2593 11.7631C13.9278 11.7631 13.6098 11.8948 13.3754 12.1292C13.141 12.3636 13.0093 12.6815 13.0093 13.0131V20.0131C13.0093 20.4273 12.6735 20.7631 12.2593 20.7631H8.25928C7.84506 20.7631 7.50928 20.4273 7.50928 20.0131V7.01306ZM9.00928 7.76306V19.2631H11.5093V13.0131C11.5093 12.2837 11.799 11.5842 12.3147 11.0685C12.8305 10.5528 13.5299 10.2631 14.2593 10.2631C14.9886 10.2631 15.6881 10.5528 16.2038 11.0685C16.7195 11.5842 17.0093 12.2837 17.0093 13.0131V19.2631H19.5093V11.3933C19.5093 9.48893 17.8483 7.98533 15.9383 8.15897C15.2843 8.21842 14.6377 8.38113 14.0354 8.63926L12.5547 9.27385C12.323 9.37316 12.0569 9.3494 11.8464 9.21062C11.6359 9.07184 11.5093 8.8366 11.5093 8.58449V7.76306H9.00928Z" fill="#F1EBF7"></path></svg>