<svg xmlns="http://www.w3.org/2000/svg" width="292" height="36" viewBox="0 0 292 36" fill="none"><g id="marketmuse-logos-idkmoyF-Hv 1"><path id="Vector" d="M50.0627 0.646484H59.0382L67.8141 24.4883L76.7177 0.646484H85.5814V34.7156H79.9967V6.44739H79.901L69.8964 34.7156H65.7956L55.7831 6.44739H55.6873V34.7156H50.1026L50.0627 0.646484ZM103.221 31.5165H103.077C102.357 32.7704 101.276 33.765 99.982 34.3638C98.6941 34.9609 97.2946 35.2625 95.8812 35.2474C94.8629 35.2523 93.8495 35.1035 92.8735 34.8056C91.9396 34.5358 91.0555 34.1101 90.2566 33.5456C89.49 32.9707 88.8555 32.2307 88.3977 31.3774C87.903 30.4447 87.6554 29.3952 87.6797 28.3338C87.659 27.2286 87.8884 26.1336 88.3498 25.1347C88.7677 24.255 89.3862 23.4916 90.1529 22.9092C90.9106 22.2903 91.766 21.8088 92.682 21.4856C93.6535 21.1132 94.6582 20.8392 95.6818 20.6674C96.7208 20.4806 97.771 20.3658 98.8251 20.3238C99.8783 20.2747 100.876 20.2747 101.833 20.2747H103.213V19.6365C103.255 19.0127 103.147 18.3879 102.898 17.8172C102.649 17.2465 102.266 16.7474 101.785 16.3638C100.71 15.6013 99.4207 15.2219 98.1151 15.2838C96.9858 15.2629 95.8643 15.4801 94.8201 15.9219C93.8318 16.3347 92.9279 16.9342 92.1554 17.6892L89.1556 14.7274C90.3649 13.4428 91.8515 12.4675 93.4958 11.8801C95.1535 11.2924 96.8956 10.9937 98.6496 10.9965C99.9979 10.9758 101.342 11.1577 102.639 11.5365C103.622 11.8311 104.543 12.3142 105.351 12.9601C106.045 13.4968 106.614 14.1841 107.019 14.9728C107.381 15.678 107.675 16.4179 107.896 17.1819C108.08 17.9035 108.176 18.6454 108.184 19.391C108.231 20.1274 108.231 20.7656 108.231 21.3138V34.6174H103.173L103.221 31.5165ZM102.918 24.3901H101.777C100.979 24.3901 100.11 24.4392 99.1523 24.4883C98.2349 24.5317 97.325 24.6799 96.4397 24.9301C95.6567 25.127 94.9245 25.4955 94.2936 26.0101C93.9929 26.2368 93.7497 26.5342 93.5845 26.8773C93.4193 27.2205 93.3368 27.5993 93.3442 27.9819C93.3217 28.4639 93.4382 28.942 93.6792 29.3565C93.9235 29.7207 94.2353 30.032 94.5967 30.2728C94.9757 30.5241 95.394 30.7068 95.8333 30.8128C96.2877 30.9079 96.7499 30.9572 97.2136 30.9601C98.7703 31.0754 100.31 30.5648 101.506 29.5365C101.985 29.0237 102.358 28.416 102.6 27.7506C102.843 27.0852 102.951 26.3761 102.918 25.6665V24.3901ZM110.737 11.6101H116.321V15.251H116.417C116.991 13.9596 117.916 12.8658 119.082 12.101C120.283 11.3564 121.668 10.9816 123.071 11.021C123.408 11.0295 123.744 11.0623 124.076 11.1192L125.073 11.3647V16.9201C124.624 16.7751 124.161 16.6765 123.693 16.6256C123.214 16.5765 122.784 16.5274 122.361 16.5274C121.265 16.48 120.177 16.7342 119.209 17.2638C118.49 17.6937 117.872 18.2802 117.398 18.9819C116.97 19.5533 116.658 20.2072 116.481 20.9047C116.368 21.3708 116.303 21.8481 116.289 22.3283V34.6665H110.705L110.737 11.6101ZM127.299 0.646484H132.884V21.1992L141.516 11.6101H148.697L139.123 22.0828L149.327 34.6665H141.891L132.972 22.9092H132.876V34.6665H127.291L127.299 0.646484ZM152.327 25.1919C152.436 26.7477 153.138 28.1969 154.281 29.2256C155.414 30.1975 156.858 30.7047 158.334 30.6492C159.569 30.6903 160.791 30.3847 161.868 29.7656C162.81 29.1791 163.646 28.432 164.342 27.5565L168.331 30.6983C167.192 32.2487 165.68 33.4694 163.943 34.241C162.331 34.9465 160.597 35.3137 158.845 35.321C157.21 35.3283 155.588 35.0289 154.058 34.4374C152.623 33.8936 151.31 33.0588 150.196 31.9828C149.087 30.9063 148.211 29.6015 147.627 28.1538C146.98 26.583 146.654 24.8926 146.67 23.1874C146.654 21.4822 146.98 19.7918 147.627 18.221C148.216 16.7726 149.091 15.4654 150.198 14.3823C151.305 13.2992 152.619 12.4639 154.058 11.9292C155.586 11.3334 157.21 11.0338 158.845 11.0456C160.313 11.0328 161.771 11.3106 163.137 11.8638C164.396 12.3996 165.52 13.2222 166.424 14.2692C167.379 15.4275 168.108 16.7636 168.57 18.2047C169.124 19.9333 169.393 21.7444 169.368 23.5638V25.1347L152.327 25.1919ZM163.823 20.8719C163.849 20.1281 163.726 19.3868 163.463 18.6932C163.199 17.9997 162.801 17.3685 162.291 16.8383C161.154 15.8027 159.661 15.2729 158.143 15.3656C156.676 15.2997 155.243 15.8287 154.154 16.8383C153.127 17.9144 152.488 19.3167 152.343 20.8147H163.839L163.823 20.8719ZM169.543 16.5438V11.6347H174.163V4.90921H179.747V11.5938H185.891V16.5028H179.747V26.5992C179.694 27.5594 179.907 28.5155 180.362 29.3565C180.793 30.0438 181.606 30.3874 182.843 30.3874C183.378 30.3816 183.911 30.3323 184.439 30.2401C184.933 30.1698 185.405 29.9852 185.819 29.7001V34.6092C185.143 34.9269 184.421 35.1261 183.681 35.1983C182.937 35.2899 182.188 35.3391 181.439 35.3456C180.198 35.3892 178.958 35.2234 177.769 34.8547C176.885 34.5719 176.103 34.0283 175.519 33.2919C174.955 32.5426 174.577 31.6636 174.418 30.731C174.215 29.5646 174.119 28.3813 174.131 27.1965V16.5601L169.543 16.5438ZM188.284 0.646484H197.251L206.027 24.4883L214.979 0.646484H223.843V34.7156H218.258V6.44739H218.162L208.158 34.7156H204.057L194.044 6.44739H193.949V34.7156H188.364L188.284 0.646484ZM246.524 34.7156H241.179V31.0256H241.083C240.537 32.2124 239.716 33.2436 238.69 34.0283C237.384 34.9336 235.828 35.3814 234.254 35.3047C232.946 35.3404 231.646 35.0893 230.441 34.5683C229.45 34.1199 228.581 33.4287 227.911 32.5556C227.256 31.6984 226.786 30.7084 226.531 29.651C226.24 28.544 226.096 27.402 226.1 26.2556V11.6101H231.685V23.3101C231.685 23.9483 231.733 24.6847 231.781 25.4701C231.838 26.2286 231.999 26.975 232.26 27.6874C232.517 28.3491 232.924 28.9382 233.448 29.4056C234.115 29.8921 234.921 30.1342 235.738 30.0928C236.545 30.1317 237.349 29.963 238.076 29.6019C238.686 29.2916 239.229 28.8574 239.671 28.3256C240.097 27.7721 240.407 27.1342 240.581 26.4519C240.776 25.7329 240.873 24.9893 240.868 24.2428V11.6101H246.453L246.524 34.7156ZM261.938 18.0001C261.462 17.2572 260.81 16.651 260.042 16.2387C259.274 15.8264 258.417 15.6216 257.55 15.6438C256.782 15.648 256.028 15.8506 255.356 16.2328C255.025 16.4066 254.749 16.6754 254.564 17.0065C254.378 17.3377 254.29 17.717 254.311 18.0983C254.289 18.4186 254.364 18.7381 254.525 19.0133C254.686 19.2886 254.927 19.5061 255.213 19.6365C255.935 19.9766 256.685 20.2504 257.455 20.4547C258.364 20.7001 259.313 20.9047 260.367 21.1501C261.38 21.3757 262.359 21.7389 263.279 22.2301C264.184 22.7122 264.955 23.4216 265.52 24.2919C266.154 25.3504 266.467 26.5774 266.422 27.8183C266.463 29.0404 266.164 30.2492 265.56 31.3038C265.002 32.2336 264.233 33.0112 263.318 33.5701C262.367 34.1667 261.318 34.5824 260.223 34.7974C259.096 35.0487 257.946 35.1803 256.792 35.1901C255.163 35.1991 253.544 34.9224 252.005 34.3719C250.469 33.8358 249.113 32.8624 248.096 31.5656L251.814 27.9819C252.482 28.7733 253.252 29.467 254.104 30.0438C255.004 30.6121 256.047 30.8966 257.104 30.8619C257.522 30.8587 257.94 30.8093 258.348 30.7147C258.772 30.6316 259.175 30.4648 259.537 30.2238C259.891 30.0172 260.201 29.7388 260.446 29.4056C260.675 29.0582 260.792 28.6463 260.781 28.2274C260.802 27.8745 260.728 27.5226 260.568 27.2097C260.408 26.8968 260.167 26.6348 259.872 26.4519C259.179 26.0192 258.421 25.7042 257.63 25.5192C256.729 25.2738 255.771 25.0774 254.726 24.8319C253.709 24.6447 252.727 24.2969 251.814 23.801C250.914 23.3557 250.142 22.6793 249.572 21.8374C248.93 20.8132 248.615 19.6092 248.671 18.3928C248.648 17.2277 248.923 16.0768 249.468 15.0547C249.968 14.1303 250.67 13.3376 251.519 12.7392C252.38 12.135 253.343 11.6995 254.359 11.4547C255.432 11.1632 256.536 11.0147 257.646 11.0128C259.16 11.0209 260.66 11.2977 262.082 11.831C263.504 12.3303 264.737 13.2747 265.608 14.531L261.938 18.0001ZM273.044 25.1756C273.153 26.7314 273.855 28.1805 274.998 29.2092C276.131 30.1811 277.575 30.6883 279.051 30.6328C280.286 30.6739 281.508 30.3684 282.586 29.7492C283.527 29.1628 284.363 28.4157 285.059 27.5401L289.048 30.6819C287.909 32.2323 286.397 33.453 284.66 34.2247C283.048 34.9301 281.315 35.2974 279.562 35.3047C277.927 35.312 276.305 35.0125 274.775 34.421C273.339 33.8829 272.026 33.0462 270.919 31.9636C269.813 30.8809 268.936 29.5755 268.345 28.1292C267.697 26.5584 267.372 24.8681 267.387 23.1628C267.372 21.4576 267.697 19.7673 268.345 18.1965C268.933 16.7481 269.808 15.4409 270.915 14.3578C272.022 13.2747 273.337 12.4393 274.775 11.9047C276.304 11.3089 277.927 11.0092 279.562 11.021C281.031 11.0083 282.488 11.2861 283.854 11.8392C285.12 12.3627 286.247 13.1872 287.141 14.2447C288.106 15.3959 288.836 16.7342 289.287 18.1801C289.841 19.9088 290.111 21.7198 290.085 23.5392V25.1101L273.044 25.1756ZM284.54 20.8556C284.566 20.1118 284.443 19.3704 284.18 18.6769C283.916 17.9833 283.518 17.3522 283.009 16.8219C281.87 15.7879 280.378 15.2583 278.86 15.3492C277.393 15.2833 275.96 15.8124 274.871 16.8219C273.844 17.898 273.206 19.3004 273.06 20.7983H284.556L284.54 20.8556Z" fill="#AAAAAA"></path><g id="Group"><path id="Vector_2" d="M28.3223 19.1784L35.7101 16.7238L28.3223 14.2693L25.9289 6.84836L23.4557 14.2693L16.0599 16.7238L23.4557 19.1784L25.9289 26.5993L28.3223 19.1784ZM9.73326 29.602L15.4057 27.6875L9.73326 25.7647L7.81851 20.0375L5.91173 25.7647L0.191406 27.6875L5.91173 29.602L7.81851 35.3293L9.73326 29.602ZM9.25458 8.11654L13.6426 6.64381L9.25458 5.22018L7.81851 0.818359L6.38244 5.22018L2.00244 6.64381L6.38244 8.11654L7.81851 12.4938L9.25458 8.11654Z" fill="#AAAAAA"></path></g></g></svg>