<?xml version="1.0" encoding="UTF-8"?>
<svg xmlns="http://www.w3.org/2000/svg" width="18" height="16" viewBox="0 0 18 16" fill="none">
  <g id="uuid-4f080393-7c74-42e2-8002-b6b265022c39" clip-path="url(#clip0_4598_20134)">
    <path id="Vector" d="M2.01226 10.3171C3.03342 9.76615 4.03999 9.19589 5.03522 8.59686C6.05811 7.97903 7.07127 7.35095 8.08929 6.72411C9.10732 6.09727 10.1318 5.48245 11.158 4.86286C11.4686 4.67588 11.7743 4.48766 12.0833 4.29768C12.2183 4.21322 12.3532 4.12875 12.4866 4.04129L12.7013 3.9022C12.7371 3.88289 12.7728 3.85583 12.8054 3.83052C12.8363 3.80997 12.8688 3.78467 12.903 3.76236C12.9209 3.74883 12.942 3.74131 12.9615 3.73854C13.046 3.72395 13.1125 3.81601 13.0636 3.88889C13.0636 3.88889 13.0604 3.89064 13.0571 3.8924C13.0506 3.90366 13.0425 3.91193 13.0359 3.91544C13.0197 3.93197 13.0018 3.94551 12.9806 3.96079C12.9449 3.98785 12.9074 4.01191 12.8717 4.03897C12.8196 4.07481 12.7676 4.11065 12.7155 4.14648C12.6049 4.22166 12.496 4.29985 12.3805 4.37378C12.2845 4.43718 12.1902 4.49583 12.0943 4.55924C12.1268 4.54169 12.1609 4.52714 12.1951 4.5126C12.3056 4.4607 12.4227 4.39752 12.5494 4.39892C12.5917 4.39939 12.629 4.40637 12.6664 4.42111C12.7151 4.43358 12.7524 4.45608 12.7881 4.49109C12.8238 4.52611 12.8465 4.56814 12.8561 4.61719C12.8739 4.70453 12.8428 4.81819 12.7664 4.87883C12.5956 5.01363 12.4069 5.12317 12.2215 5.23871C12.0914 5.31666 11.963 5.39761 11.8329 5.47556C11.6686 5.57582 11.5028 5.67307 11.3369 5.77032C11.7174 5.56501 12.0963 5.3567 12.4751 5.14839C12.719 5.01679 12.9662 4.88342 13.2101 4.75182C13.389 4.6553 13.6131 4.71269 13.7022 4.87782C13.7913 5.04295 13.7146 5.25877 13.5373 5.35829C13.4821 5.38812 13.4268 5.41795 13.3715 5.44778C13.3991 5.4833 13.4136 5.52584 13.4249 5.57014C13.441 5.64672 13.4295 5.75761 13.3725 5.82324C13.3416 5.85931 13.3123 5.89838 13.2765 5.9332C13.2635 5.94022 13.2505 5.955 13.2375 5.96202C13.1984 5.99083 13.1594 6.01965 13.1155 6.04722C13.0781 6.07128 13.0407 6.09534 13.0033 6.1194C12.9382 6.16225 12.8732 6.20511 12.8032 6.24671C12.678 6.32591 12.5528 6.40511 12.4276 6.48431C12.1641 6.64972 11.8974 6.80913 11.6323 6.97154C11.2729 7.1926 10.9103 7.40766 10.5477 7.62271C10.2679 7.81242 9.98818 8.00213 9.70518 8.19359C8.74073 8.84967 7.7779 9.50099 6.80858 10.1481C6.31091 10.4786 5.81325 10.8092 5.31396 11.1367C5.07814 11.2911 4.84232 11.4455 4.60488 11.5969C4.48291 11.6743 4.36094 11.7517 4.23897 11.8292C4.11374 11.9084 3.98852 11.9876 3.85681 12.0548C3.83405 12.067 3.80803 12.0811 3.78527 12.0934C3.68609 12.143 3.57883 12.1621 3.47489 12.1329C3.37258 12.1067 3.28657 12.0407 3.23959 11.9536C3.20557 11.8906 3.19107 11.817 3.20093 11.7419C3.14566 11.764 3.09039 11.7861 3.03511 11.8081C2.96035 11.8252 2.88886 11.825 2.8174 11.8093C2.71022 11.7819 2.62259 11.7128 2.57237 11.6198C2.53835 11.5567 2.52221 11.4879 2.52882 11.4146C2.53538 11.38 2.54193 11.3455 2.54848 11.3109C2.57458 11.2426 2.61205 11.1797 2.66899 11.1296C2.69664 11.1108 2.72754 11.0903 2.75357 11.0685C2.74058 11.06 2.72923 11.0467 2.71463 11.0352C2.66759 10.9869 2.63681 10.9299 2.62067 10.8611C2.60293 10.7737 2.61774 10.6533 2.67797 10.5782C2.71053 10.5374 2.74471 10.4995 2.77726 10.4587C2.79027 10.4517 2.80004 10.4387 2.81305 10.4316C2.8407 10.4128 2.86998 10.3893 2.89763 10.3705C2.67323 10.4916 2.44884 10.6127 2.2212 10.7277C2.09926 10.7897 1.95472 10.7552 1.89478 10.6441C1.83484 10.5331 1.8838 10.3903 2.00412 10.3254L2.01226 10.3171Z" fill="#8B75F3"></path>
    <path id="Vector_2" d="M14.6738 3.71411C14.6738 3.71411 14.6868 3.71485 14.6916 3.7161C14.6868 3.71485 14.6787 3.71536 14.6738 3.71411ZM8.31385 4.30823C8.2945 4.21789 8.31414 4.122 8.36788 4.04261C8.42488 3.95371 8.50782 3.90508 8.6086 3.87396C8.64436 3.86242 8.67687 3.85263 8.71263 3.84109C8.76789 3.82678 8.84426 3.82046 8.89626 3.81566C8.94338 3.80962 8.99376 3.80182 9.0425 3.79877C9.00193 3.77027 8.97437 3.73475 8.95657 3.6862C8.93878 3.63766 8.92747 3.59337 8.94543 3.54104C8.96011 3.49822 8.99919 3.44613 9.04634 3.42456C9.13088 3.3867 9.21217 3.35059 9.30481 3.32774C9.40071 3.30313 9.50145 3.29529 9.59732 3.2862C9.77606 3.26728 9.95318 3.25312 10.1303 3.25448C10.2944 3.2551 10.4601 3.25872 10.6274 3.25758C10.7411 3.25824 10.85 3.26541 10.9637 3.27383C11.0937 3.28123 11.2253 3.28388 11.3536 3.29604C11.62 3.32286 11.8913 3.34316 12.1561 3.37474C12.4712 3.41403 12.7814 3.45207 13.0949 3.49612C13.3077 3.52473 13.5254 3.55459 13.7382 3.58321C13.8292 3.58063 13.9201 3.57805 14.0144 3.57372C14.2418 3.56728 14.4677 3.55784 14.6935 3.55615C14.8479 3.55427 15.0006 3.54939 15.1517 3.56479C15.2231 3.57274 15.3076 3.58143 15.3026 3.66554C15.2993 3.71385 15.2375 3.73167 15.2017 3.75098C15.1497 3.77905 15.1092 3.72727 15.1222 3.68922C14.9582 3.68084 14.7924 3.69274 14.6283 3.69988C14.6608 3.70561 14.6965 3.70958 14.729 3.71532C14.7371 3.71481 14.742 3.71606 14.7518 3.71855C14.7518 3.71855 14.7436 3.71906 14.7388 3.71781C14.833 3.729 14.9272 3.74019 15.0214 3.75137C15.1384 3.7658 15.2537 3.77722 15.369 3.78864C15.4308 3.79409 15.4795 3.80657 15.5249 3.85184C15.5638 3.89285 15.5865 3.95041 15.5848 4.00948C15.5847 4.04052 15.5749 4.06906 15.5635 4.0946C15.6171 4.10832 15.6691 4.13456 15.7226 4.15605C15.7762 4.18529 15.8168 4.22931 15.8459 4.28335C15.8751 4.33739 15.8847 4.3942 15.8846 4.45628C15.8747 4.57018 15.8014 4.69889 15.6876 4.75255C15.6339 4.77762 15.5738 4.79845 15.5185 4.82052C15.4795 4.83382 15.4356 4.83811 15.3966 4.84365C15.3105 4.85523 15.2228 4.86381 15.1366 4.86764C15.0603 4.87396 14.9823 4.87727 14.9059 4.88359C14.784 4.8912 14.6622 4.89881 14.5387 4.90341C14.4688 4.90622 14.399 4.90903 14.3324 4.91009C14.2495 4.91992 14.1617 4.92074 14.0789 4.92281C14.0009 4.92613 13.9262 4.92769 13.8482 4.93101C13.7198 4.93436 13.5915 4.93772 13.4615 4.93808C13.2162 4.94253 12.9692 4.94398 12.7239 4.94844C12.4493 4.95317 12.1698 4.95665 11.8953 4.96137C11.5167 4.96794 11.1365 4.97926 10.7596 4.98883C10.5695 4.99449 10.3777 5.00491 10.1893 5.01357C10.0869 5.01841 9.98454 5.02325 9.88379 5.03109C9.81393 5.0339 9.74081 5.03846 9.67094 5.04127C9.60919 5.05134 9.54418 5.06315 9.48245 5.0577C9.31675 5.04632 9.15764 4.97711 9.08639 4.82949C9.04428 4.74367 9.03143 4.64982 9.04944 4.55869C8.92433 4.56805 8.80247 4.57566 8.67898 4.58027C8.54575 4.58238 8.42726 4.51064 8.36894 4.40255C8.35436 4.37553 8.34304 4.34675 8.33821 4.31447L8.31385 4.30823Z" fill="#8B75F3"></path>
    <path id="Vector_3" d="M14.7011 4.18335C14.7011 4.18335 14.6995 4.18034 14.6978 4.17734C14.6978 4.17734 14.6995 4.18034 14.7011 4.18335ZM12.0849 9.70017C12.0849 9.70017 12.0783 9.71144 12.0767 9.7162C12.0897 9.70142 12.0995 9.68839 12.1125 9.67361C12.1109 9.67061 12.106 9.66936 12.1012 9.66812C12.0946 9.67939 12.0914 9.6889 12.0849 9.70017ZM10.9904 10.3566C10.9954 10.3035 11.0052 10.2517 11.0232 10.1994C11.0362 10.1613 11.0542 10.1245 11.0753 10.086C11.1145 10.0028 11.1552 9.92269 11.1959 9.84256C11.2106 9.81527 11.2285 9.78622 11.2416 9.75592C11.0807 9.79234 10.9004 9.74618 10.7917 9.63814C10.7301 9.57837 10.6928 9.50155 10.6865 9.41971C10.6736 9.34914 10.6769 9.27755 10.7014 9.20619C10.7063 9.18416 10.7145 9.16037 10.7226 9.13659C10.7585 9.03193 10.8123 8.92926 10.858 8.8271C10.8938 8.75348 10.9281 8.67686 10.9639 8.60324C11.109 8.29625 11.2606 7.99351 11.4154 7.68902C11.5621 7.39279 11.7104 7.09956 11.8619 6.80458C11.9727 6.58973 12.0835 6.37488 12.1911 6.16178C12.2042 6.13149 12.2172 6.10119 12.2351 6.07214C12.3085 5.9279 12.3785 5.78542 12.4535 5.64419C12.5431 5.4679 12.6376 5.29287 12.7305 5.11482C12.7973 4.98962 12.8625 4.86917 12.9309 4.74696C12.9651 4.68586 13.001 4.62776 13.0368 4.56966C13.0661 4.52283 13.0922 4.47 13.1231 4.42617C13.1541 4.3901 13.185 4.35403 13.2159 4.31796C13.2533 4.28614 13.2924 4.25733 13.333 4.23151C13.4111 4.1894 13.4939 4.17957 13.5801 4.17574C13.6548 4.17418 13.7311 4.1989 13.7912 4.24015C13.8399 4.22935 13.8854 4.22806 13.9341 4.24054C14.0559 4.27173 14.137 4.38305 14.1271 4.5047C14.1271 4.5047 14.1303 4.50295 14.1336 4.50119C14.197 4.44758 14.2686 4.40897 14.3433 4.39189C14.3433 4.39189 14.345 4.38713 14.3466 4.38238C14.3678 4.32829 14.3809 4.27472 14.3972 4.21939C14.407 4.19084 14.4135 4.16406 14.425 4.13852C14.438 4.10046 14.4657 4.0739 14.4998 4.0516C14.586 3.99346 14.7094 4.06645 14.7011 4.16007C14.7011 4.19887 14.6896 4.23992 14.6798 4.27623C14.6667 4.32204 14.6553 4.37086 14.6455 4.41492C14.6471 4.41793 14.6422 4.42444 14.6406 4.42919C14.6665 4.44619 14.6941 4.4662 14.7185 4.48795C14.7363 4.50546 14.7525 4.52772 14.7671 4.54698C14.7818 4.52745 14.798 4.51092 14.8127 4.49138C14.8534 4.44229 14.9672 4.38863 15.0306 4.37381C15.1119 4.35322 15.1768 4.36468 15.2548 4.37688C15.3328 4.38908 15.3863 4.44161 15.4431 4.48461C15.5177 4.54512 15.5614 4.68826 15.5498 4.78364C15.5416 4.83846 15.5334 4.89328 15.5155 4.94561C15.5024 4.98367 15.4812 5.02223 15.4649 5.05429C15.4649 5.05429 15.4649 5.05429 15.4617 5.05604C15.5901 5.0294 15.7184 5.06484 15.806 5.14938C15.8514 5.19464 15.8822 5.25169 15.8951 5.3145C15.908 5.37732 15.903 5.43815 15.8818 5.49999C15.8703 5.54881 15.8589 5.59763 15.8474 5.64645C15.836 5.69526 15.8116 5.74334 15.7904 5.78967C15.7398 5.89834 15.6828 6.00276 15.6209 6.10594C15.572 6.18657 15.5264 6.26546 15.4759 6.34309C15.3896 6.47883 15.3098 6.61881 15.2218 6.75155C15.0329 7.03179 14.8489 7.31328 14.6551 7.59228C14.279 8.13249 13.8964 8.66845 13.4797 9.18016C13.0011 9.77176 12.4933 10.3481 11.9725 10.9082C11.9058 10.9791 11.7887 11.019 11.6945 11.0156C11.597 11.0139 11.5029 10.9794 11.438 10.9137C11.3715 10.8449 11.3342 10.7526 11.3409 10.6559C11.2775 10.663 11.2126 10.6515 11.1606 10.6175C11.1038 10.5823 11.0535 10.5358 11.0244 10.4817C11.0017 10.4397 10.9888 10.3924 10.9937 10.3393L10.9904 10.3566Z" fill="#8B75F3"></path>
  </g>
  <defs>
    <clipPath id="clip0_4598_20134">
      <rect width="8" height="15.2727" fill="white" transform="translate(13.9409 0.783203) rotate(61.6496)"></rect>
    </clipPath>
  </defs>
</svg>
