<svg xmlns="http://www.w3.org/2000/svg" width="162" height="28" viewBox="0 0 162 28" fill="none"><path d="M77.5702 9.00391C79.0416 9.00391 80.2625 9.49002 81.2642 10.4299C82.266 11.3697 82.7356 12.7308 82.7356 14.4484V22.3235H79.1355V15.129C79.1355 14.254 78.9163 13.5734 78.5094 13.0873C78.1024 12.6012 77.5389 12.3743 76.8189 12.3743C76.0675 12.3743 75.4414 12.6336 74.9719 13.1521C74.5023 13.6706 74.2518 14.3512 74.2518 15.2262V22.2911H70.6517V15.1614C70.6517 14.3188 70.4326 13.6382 69.9943 13.1521C69.556 12.666 68.9925 12.4067 68.3038 12.4067C67.5525 12.4067 66.9577 12.666 66.4881 13.1845C66.0185 13.703 65.7681 14.416 65.7681 15.291V22.3235H62.168V9.36039H65.6742V11.2076C66.0185 10.5271 66.5507 9.97614 67.2394 9.58725C67.9282 9.19835 68.7108 9.00391 69.5247 9.00391C70.3074 9.00391 71.0274 9.19835 71.6848 9.55484C72.3109 9.91133 72.8118 10.4623 73.1249 11.2076C73.5944 10.5271 74.2205 9.97614 75.0032 9.58725C75.7858 9.19835 76.6623 9.00391 77.5702 9.00391Z" fill="white"></path><path d="M87.2118 8.03246C86.617 8.03246 86.0848 7.83802 85.6779 7.41672C85.2709 6.99541 85.0518 6.47689 85.0518 5.82873C85.0518 5.21298 85.2709 4.66205 85.6779 4.24075C86.0848 3.81945 86.5857 3.625 87.2118 3.625C87.8066 3.625 88.3075 3.81945 88.7145 4.24075C89.1215 4.66205 89.3406 5.18058 89.3406 5.82873C89.3406 6.44448 89.1215 6.99541 88.7145 7.41672C88.3075 7.80561 87.8066 8.03246 87.2118 8.03246ZM88.9649 9.36119V22.3243H85.3648V9.36119H88.9649Z" fill="white"></path><path d="M95.2554 22.3247H91.6553V9.36155H95.1615V11.144C95.5058 10.5282 96.0067 10.0097 96.7267 9.5884C97.4468 9.1671 98.2294 8.97266 99.106 8.97266C100.452 8.97266 101.61 9.42637 102.55 10.3662C103.489 11.306 103.958 12.6347 103.958 14.3524V22.2923H100.358V15.357C100.358 14.4172 100.139 13.7042 99.7008 13.1857C99.2625 12.6671 98.6677 12.4079 97.9163 12.4079C97.1024 12.4079 96.445 12.6996 95.9754 13.2505C95.4745 13.8014 95.2241 14.5468 95.2241 15.4542V22.3247H95.2554Z" fill="white"></path><path d="M112.294 22.6505C110.478 22.6505 109.038 22.132 107.973 21.0949C106.94 20.0579 106.408 18.5995 106.408 16.7523V9.36328H110.008V16.7847C110.008 17.5301 110.196 18.1458 110.603 18.5671C111.01 19.0208 111.574 19.2153 112.294 19.2153C113.014 19.2153 113.577 18.9884 113.984 18.5671C114.391 18.1134 114.579 17.5301 114.579 16.7847V9.36328H118.179V16.7523C118.179 18.6319 117.647 20.0903 116.614 21.0949C115.581 22.132 114.141 22.6505 112.294 22.6505Z" fill="white"></path><path d="M129.099 18.6284L130.1 21.5775C129.036 22.2904 127.752 22.6469 126.25 22.6469C123.276 22.6469 121.773 20.8969 121.773 17.4293V12.4061H119.77V9.32732H121.773V4.75781H125.342V9.35972H129.349V12.4385H125.342V17.0728C125.342 18.5311 125.905 19.2765 127.001 19.2765C127.627 19.2441 128.316 19.0497 129.099 18.6284Z" fill="white"></path><path d="M139.897 18.6284L140.899 21.5775C139.835 22.2904 138.551 22.6469 137.049 22.6469C134.075 22.6469 132.572 20.8969 132.572 17.4293V12.4061H130.568V9.32732H132.572V4.75781H136.141V9.35972H140.21V12.4385H136.203V17.0728C136.203 18.5311 136.767 19.2765 137.863 19.2765C138.426 19.2441 139.115 19.0497 139.897 18.6284Z" fill="white"></path><path d="M144.255 8.03246C143.66 8.03246 143.128 7.83802 142.721 7.41672C142.314 6.99541 142.095 6.47689 142.095 5.82873C142.095 5.21298 142.314 4.66205 142.721 4.24075C143.128 3.81945 143.629 3.625 144.255 3.625C144.85 3.625 145.35 3.81945 145.757 4.24075C146.164 4.66205 146.384 5.18058 146.384 5.82873C146.384 6.44448 146.164 6.99541 145.757 7.41672C145.35 7.80561 144.85 8.03246 144.255 8.03246ZM146.008 9.36119V22.3243H142.408V9.36119H146.008Z" fill="white"></path><path d="M158.108 10.7215V9.36039H161.489V22.3235H158.108V20.9948C157.043 22.0967 155.76 22.6476 154.257 22.6476C152.473 22.6476 151.001 21.9994 149.812 20.6707C148.653 19.3744 148.09 17.7216 148.09 15.7447C148.09 13.8327 148.685 12.2123 149.843 10.916C151.001 9.65206 152.473 9.00391 154.257 9.00391C155.76 9.00391 157.043 9.58725 158.108 10.7215ZM151.659 15.8096C151.659 16.7818 151.94 17.592 152.535 18.2725C153.161 18.9207 153.944 19.2772 154.852 19.2772C155.791 19.2772 156.542 18.9531 157.168 18.2725C157.795 17.592 158.108 16.7818 158.108 15.842C158.108 14.9021 157.795 14.0919 157.168 13.4438C156.542 12.7956 155.76 12.4391 154.852 12.4391C153.944 12.4391 153.161 12.7632 152.535 13.4438C151.972 14.0595 151.659 14.8697 151.659 15.8096Z" fill="white"></path><rect y="13.5352" width="19.1423" height="19.1423" rx="2" transform="rotate(-45 0 13.5352)" fill="white" fill-opacity="0.63"></rect><rect x="13.417" y="13.5352" width="19.1423" height="19.1423" rx="2" transform="rotate(-45 13.417 13.5352)" fill="white" fill-opacity="0.63"></rect><rect x="26.5684" y="13.5352" width="19.1423" height="19.1423" rx="2" transform="rotate(-45 26.5684 13.5352)" fill="white" fill-opacity="0.63"></rect></svg>