<svg xmlns="http://www.w3.org/2000/svg" width="162" height="28" viewBox="0 0 162 28" fill="none"><path d="M78.0706 9.03271C79.5419 9.03271 80.7628 9.51883 81.7646 10.4587C82.7664 11.3985 83.236 12.7596 83.236 14.4772V22.3523H79.6358V15.1578C79.6358 14.2828 79.4167 13.6022 79.0097 13.1161C78.6028 12.63 78.0393 12.4031 77.3192 12.4031C76.5679 12.4031 75.9418 12.6624 75.4722 13.1809C75.0027 13.6994 74.7522 14.38 74.7522 15.255V22.3199H71.1521V15.1902C71.1521 14.3476 70.933 13.667 70.4947 13.1809C70.0564 12.6948 69.4929 12.4355 68.8042 12.4355C68.0529 12.4355 67.4581 12.6948 66.9885 13.2133C66.5189 13.7318 66.2685 14.4448 66.2685 15.3198V22.3523H62.6683V9.3892H66.1745V11.2364C66.5189 10.5559 67.0511 10.0049 67.7398 9.61606C68.4285 9.22716 69.2112 9.03271 70.0251 9.03271C70.8077 9.03271 71.5278 9.22716 72.1852 9.58365C72.8113 9.94013 73.3122 10.4911 73.6252 11.2364C74.0948 10.5559 74.7209 10.0049 75.5035 9.61606C76.2862 9.22716 77.1627 9.03271 78.0706 9.03271Z" fill="#D3B8FA"></path><path d="M87.712 8.0603C87.1172 8.0603 86.585 7.86585 86.178 7.44455C85.771 7.02325 85.5519 6.50472 85.5519 5.85656C85.5519 5.24082 85.771 4.68988 86.178 4.26858C86.585 3.84728 87.0858 3.65283 87.712 3.65283C88.3068 3.65283 88.8076 3.84728 89.2146 4.26858C89.6216 4.68988 89.8407 5.20841 89.8407 5.85656C89.8407 6.47231 89.6216 7.02325 89.2146 7.44455C88.8076 7.83344 88.3068 8.0603 87.712 8.0603ZM89.465 9.38902V22.3521H85.8649V9.38902H89.465Z" fill="#D3B8FA"></path><path d="M95.7556 22.3523H92.1555V9.38914H95.6617V11.1716C96.0061 10.5558 96.507 10.0373 97.227 9.61599C97.947 9.19469 98.7296 9.00024 99.6062 9.00024C100.952 9.00024 102.111 9.45395 103.05 10.3938C103.989 11.3336 104.459 12.6623 104.459 14.3799V22.3199H100.858V15.3846C100.858 14.4448 100.639 13.7318 100.201 13.2133C99.7627 12.6947 99.1679 12.4355 98.4166 12.4355C97.6026 12.4355 96.9452 12.7271 96.4757 13.2781C95.9748 13.829 95.7243 14.5744 95.7243 15.4818V22.3523H95.7556Z" fill="#D3B8FA"></path><path d="M112.793 22.6771C110.978 22.6771 109.537 22.1586 108.473 21.1215C107.44 20.0845 106.908 18.6261 106.908 16.7789V9.38989H110.508V16.8113C110.508 17.5567 110.696 18.1724 111.103 18.5937C111.51 19.0474 112.073 19.2419 112.793 19.2419C113.513 19.2419 114.077 19.015 114.484 18.5937C114.891 18.14 115.079 17.5567 115.079 16.8113V9.38989H118.679V16.7789C118.679 18.6585 118.146 20.1169 117.113 21.1215C116.08 22.1586 114.64 22.6771 112.793 22.6771Z" fill="#D3B8FA"></path><path d="M129.599 18.6552L130.601 21.6043C129.537 22.3173 128.253 22.6738 126.751 22.6738C123.777 22.6738 122.274 20.9238 122.274 17.4561V12.4329H120.27V9.35417H122.274V4.78467H125.843V9.38658H129.85V12.4653H125.843V17.0996C125.843 18.558 126.406 19.3034 127.502 19.3034C128.128 19.271 128.817 19.0765 129.599 18.6552Z" fill="#D3B8FA"></path><path d="M140.398 18.6552L141.399 21.6043C140.335 22.3173 139.052 22.6738 137.549 22.6738C134.575 22.6738 133.072 20.9238 133.072 17.4561V12.4329H131.069V9.35417H133.072V4.78467H136.641V9.38658H140.711V12.4653H136.704V17.0996C136.704 18.558 137.267 19.3034 138.363 19.3034C138.926 19.271 139.615 19.0765 140.398 18.6552Z" fill="#D3B8FA"></path><path d="M144.755 8.0603C144.16 8.0603 143.628 7.86585 143.221 7.44455C142.814 7.02325 142.595 6.50472 142.595 5.85656C142.595 5.24082 142.814 4.68988 143.221 4.26858C143.628 3.84728 144.129 3.65283 144.755 3.65283C145.35 3.65283 145.851 3.84728 146.258 4.26858C146.665 4.68988 146.884 5.20841 146.884 5.85656C146.884 6.47231 146.665 7.02325 146.258 7.44455C145.851 7.83344 145.35 8.0603 144.755 8.0603ZM146.508 9.38902V22.3521H142.908V9.38902H146.508Z" fill="#D3B8FA"></path><path d="M158.609 10.7503V9.3892H161.99V22.3523H158.609V21.0236C157.544 22.1255 156.261 22.6764 154.758 22.6764C152.974 22.6764 151.502 22.0283 150.313 20.6995C149.154 19.4032 148.591 17.7504 148.591 15.7735C148.591 13.8615 149.186 12.2411 150.344 10.9448C151.502 9.68087 152.974 9.03271 154.758 9.03271C156.261 9.03271 157.544 9.61606 158.609 10.7503ZM152.16 15.8384C152.16 16.8106 152.442 17.6208 153.036 18.3014C153.662 18.9495 154.445 19.306 155.353 19.306C156.292 19.306 157.043 18.9819 157.67 18.3014C158.296 17.6208 158.609 16.8106 158.609 15.8708C158.609 14.9309 158.296 14.1207 157.67 13.4726C157.043 12.8244 156.261 12.4679 155.353 12.4679C154.445 12.4679 153.662 12.792 153.036 13.4726C152.473 14.0883 152.16 14.8985 152.16 15.8384Z" fill="#D3B8FA"></path><rect x="0.5" y="13.564" width="19.1423" height="19.1423" rx="2" transform="rotate(-45 0.5 13.564)" fill="#D3B8FA" fill-opacity="0.63"></rect><rect x="13.9169" y="13.564" width="19.1423" height="19.1423" rx="2" transform="rotate(-45 13.9169 13.564)" fill="#D3B8FA" fill-opacity="0.63"></rect><rect x="27.0677" y="13.564" width="19.1423" height="19.1423" rx="2" transform="rotate(-45 27.0677 13.564)" fill="#D3B8FA" fill-opacity="0.63"></rect></svg>