<svg xmlns="http://www.w3.org/2000/svg" width="136" height="39" viewBox="0 0 136 39" fill="none"><path d="M31.6624 22.1651V6.60302C31.6624 4.54577 29.9656 2.85352 27.8276 2.85352H11.4705C9.36647 2.85352 7.63574 4.54577 7.63574 6.60302V22.1651C7.63574 24.2224 9.36647 25.9146 11.4705 25.9146H15.4749L12.2171 26.9101L14.8302 35.0063L27.081 31.2236L25.3842 25.9146H27.8276C29.9317 25.9146 31.6284 24.2224 31.6624 22.1651Z" fill="white"></path><path d="M19.5473 17.5195C13.9478 17.5195 9.33255 19.0127 6.95703 21.1031C6.95703 23.824 9.1968 26.0803 12.0135 26.0803C12.0474 26.0803 12.0814 26.0803 12.1153 26.0803H27.0471C29.9995 26.0803 32.2054 23.9235 32.2393 21.2027C29.7959 19.1122 25.1467 17.5195 19.5473 17.5195Z" fill="#BFBFBF"></path><path d="M43.9814 14.2018C44.219 15.0645 44.3547 15.9273 44.3887 16.79C44.3887 17.9181 44.2869 26.114 44.2869 26.114L47.2054 26.1803L47.1714 16.7236C47.1714 16.7236 48.2913 15.695 49.6487 15.7614C50.6668 15.7282 51.4813 16.5245 51.5152 17.4868C51.5152 17.4868 51.5152 17.4868 51.5152 17.52C51.5152 18.25 51.4474 26.1803 51.4474 26.1803L54.3658 26.1471L54.3998 16.6904C55.0446 16.1263 55.859 15.7945 56.7074 15.7614C58.0649 15.7614 58.5739 16.9227 58.6078 17.6195C58.6418 18.3163 58.5739 26.2135 58.5739 26.2135L61.5603 26.114L61.5263 16.9559C61.5263 16.9559 61.0512 13.7041 57.2843 13.7041C55.9269 13.7041 54.5695 14.1686 53.5174 15.0314C53.0084 14.5668 52.0582 13.6377 50.3275 13.7373C48.5967 13.8368 47.9859 14.0359 46.4588 14.9982C46.3909 14.6332 46.2212 14.2682 46.0176 13.9364L43.9814 14.2018Z" fill="#8D8C8E"></path><path d="M74.9305 19.1127C74.5233 13.9696 70.5528 13.7373 70.5528 13.7373H68.8221C64.3086 14.0691 63.6978 18.4159 63.6299 19.3118C63.6299 19.4113 63.6638 20.9377 63.6638 20.9377C63.6978 25.7158 68.1434 26.3462 68.1434 26.3462H69.8062C74.7269 25.8485 74.9305 20.8713 74.9305 20.8713C74.9305 20.8713 74.9645 20.3072 74.9305 19.1127ZM69.3311 24.289C66.9556 24.2558 66.4805 22.2317 66.5144 20.1413C66.5484 18.1504 66.6502 15.8941 69.2632 15.8277C69.2632 15.8277 72.1817 15.4296 72.1139 19.909C72.1817 22.1322 71.6727 24.2226 69.3311 24.289Z" fill="#8D8C8E"></path><path d="M96.4122 16.6242C96.4122 16.6242 94.6815 15.9274 93.324 15.9938C91.9666 16.0601 91.2879 16.1929 91.2879 17.1883C91.2879 18.1837 92.3399 18.4824 94.0027 19.1128C95.6656 19.7433 97.1249 20.8051 97.0909 22.6632C97.057 24.5214 95.3941 26.5123 92.0005 26.3464C89.116 26.3132 88.2676 25.3509 88.2676 25.3509L88.9463 23.4264C88.9463 23.4264 90.677 24.1564 92.0684 24.09C93.4598 24.0237 94.2064 23.891 94.2064 22.7628C94.2064 21.6346 92.815 21.2364 91.4915 20.6724C90.168 20.0751 88.3354 19.2456 88.4033 17.2215C88.4712 15.1974 90.168 13.6711 93.1204 13.7374C96.0728 13.8038 96.9212 14.567 96.9212 14.567L96.4122 16.6242Z" fill="#8D8C8E"></path><path d="M107.441 23.2935C107.441 23.2935 106.728 24.0899 104.251 24.0899C101.095 24.1563 100.993 21.734 100.959 21.4686C103.572 21.5017 108.629 20.4731 108.493 17.1882C108.357 13.9032 104.76 13.7373 104.76 13.7373L103.64 13.7041C98.6177 14.3014 98.2783 19.6768 98.2783 19.6768C98.1426 24.8199 101.57 26.3794 104.149 26.3794C105.744 26.3462 107.305 25.8817 108.595 24.9858L107.441 23.2935ZM104.149 15.7945C104.149 15.7945 106.016 15.8277 106.016 17.3872C106.016 18.9468 103.131 19.7431 100.891 19.544C100.891 19.544 100.891 15.9604 104.149 15.7945Z" fill="#8D8C8E"></path><path d="M110.394 14.301C110.597 15.1305 110.733 15.9268 110.801 16.7564C110.835 17.5859 110.767 26.379 110.767 26.379H113.685L113.617 16.8559C114.262 16.3582 115.077 16.0596 115.891 16.0264C117.113 16.0264 118.131 16.5241 118.131 17.8845V26.4122H121.151L121.049 17.4532C121.049 17.4532 120.812 13.7701 116.638 13.7701C116.638 13.7701 114.941 13.5046 112.939 15.0641C112.667 14.3673 112.498 13.9028 112.498 13.9028L110.394 14.301Z" fill="#8D8C8E"></path><path d="M135.031 24.2555C134.59 24.355 134.149 24.0896 134.081 23.6582C134.081 23.5919 134.047 23.5255 134.047 23.4923C133.945 22.5301 134.047 8.75977 134.047 8.75977L131.298 9.0584L131.23 13.9361C131.23 13.9361 129.805 13.737 129.194 13.737C128.583 13.737 123.527 13.8033 123.323 20.1078C123.119 26.4123 127.735 26.4123 128.176 26.4123C128.617 26.4123 130.585 26.3127 131.603 24.7532C131.705 25.1514 131.977 26.2132 133.809 26.18C134.25 26.1468 134.658 26.0805 135.065 25.9477L135.031 24.2555ZM131.196 21.8332C131.196 21.8332 130.925 24.2887 128.515 24.2887C126.106 24.2887 126.14 21.3023 126.14 20.2405C126.14 19.1787 126.14 15.8274 129.364 15.8274C129.974 15.7942 130.585 15.8606 131.162 16.0265L131.196 21.8332Z" fill="#8D8C8E"></path><path d="M87.5204 19.1127C87.0792 13.9696 83.1427 13.7373 83.1427 13.7373H81.4119C76.8984 14.1023 76.2876 18.4491 76.2197 19.3118C76.2197 19.4113 76.2537 20.9377 76.2537 20.9377C76.2876 25.7158 80.7332 26.3462 80.7332 26.3462H82.3961C87.3168 25.8817 87.5543 20.8713 87.5543 20.8713C87.5543 20.8713 87.5543 20.3072 87.5204 19.1127ZM81.921 24.289C79.5454 24.2558 79.0703 22.2317 79.1043 20.1413C79.1382 18.1504 79.24 15.8941 81.8531 15.8277C81.8531 15.8277 84.7716 15.4296 84.7037 19.909C84.7716 22.1322 84.2625 24.2226 81.921 24.289Z" fill="#8D8C8E"></path><path d="M18.529 12.2442C18.6987 11.6469 18.4951 11.0496 18.1218 10.9501C17.7485 10.8506 17.2734 11.2819 17.1376 11.8792C17.0019 12.4764 17.1716 13.0737 17.5449 13.1733C17.9182 13.2728 18.3593 12.8746 18.529 12.2442ZM20.7688 12.2774C20.9385 12.8746 21.4136 13.306 21.7869 13.1733C22.1602 13.0737 22.3298 12.4764 22.1602 11.8792C21.9905 11.2819 21.5154 10.8837 21.1421 10.9833C20.7688 11.0828 20.5991 11.6801 20.7688 12.2774ZM15.5427 22.0327C15.0336 21.17 14.1513 20.7054 13.5744 21.0373C12.9975 21.3691 12.9975 22.3313 13.5065 23.194C14.0155 24.0568 14.8979 24.5213 15.4748 24.2227C16.0517 23.924 16.0856 22.9286 15.5427 22.0327ZM26.1985 23.2604C26.7415 22.3645 26.7076 21.4022 26.1307 21.0704C25.5538 20.7386 24.7054 21.2032 24.1624 22.0991C23.6533 22.9618 23.6533 23.9572 24.2303 24.2558C24.8072 24.5545 25.6556 24.1231 26.1985 23.2604ZM31.3229 22.0327C31.3229 24.1895 29.5243 25.9481 27.3184 25.9481H11.8097C9.60387 25.9481 7.80526 24.1895 7.80526 22.0327V20.44C10.3505 18.7146 14.5585 17.52 19.5471 17.52C24.5357 17.52 28.7437 18.7809 31.3229 20.5395V22.0327ZM31.3229 19.3118C28.7437 17.52 24.5017 16.4582 19.5471 16.4582C14.6603 16.4582 10.4183 17.5532 7.80526 19.3118V6.90196C7.80526 4.74517 9.60387 2.98655 11.8097 2.98655H27.2845C29.4903 2.98655 31.2889 4.74517 31.2889 6.90196L31.3229 19.3118ZM13.1671 27.7731L16.968 29.6312L14.9997 33.3807L13.1671 27.7731ZM15.8141 34.1107L17.9182 30.129L20.2937 31.2903L21.6511 28.9344L25.8252 30.9917L15.8141 34.1107ZM21.4475 27.0431L19.8186 29.8967L14.0495 27.0431H21.4475ZM26.1985 29.9962L22.1602 28.0053L22.7031 27.0431H25.2483L26.1985 29.9962ZM38.9585 7.93059L29.9315 2.82065C29.117 2.25656 28.1329 1.95793 27.1487 1.89157C25.5877 -1.75839 24.2981 0.829761 23.857 1.85839H15.3051C13.7441 -1.75839 12.4545 0.829761 12.0133 1.85839C10.8934 1.85839 9.77355 2.22338 8.85728 2.88701L0 7.93059C0 7.93059 3.56327 10.7178 6.68538 9.19148V21.7009C6.68538 24.5213 8.95909 26.8772 11.8436 27.0431V27.0763C11.8436 27.1094 11.8436 27.1758 11.8436 27.209C11.8436 27.2754 11.8776 27.3085 11.8776 27.3749V27.4413L14.1852 34.5753C14.2192 34.6748 14.287 34.7744 14.3549 34.8739C14.3888 34.9071 14.4228 34.9403 14.4567 35.0066C14.4906 35.0398 14.5246 35.073 14.5585 35.1062C14.7621 35.2721 15.0336 35.3716 15.2712 35.3716C15.373 35.3716 15.5087 35.3384 15.6105 35.3053L26.7415 31.8876C27.0809 31.788 27.3524 31.5558 27.4542 31.2239C27.4881 31.1244 27.522 30.9917 27.522 30.8921C27.522 30.8921 27.522 30.859 27.522 30.8258C27.522 30.7262 27.522 30.5935 27.4881 30.494L26.4022 27.0763H27.013C29.9994 27.0431 32.3749 24.6872 32.3749 21.7672L32.2731 9.22466C35.3952 10.7178 38.9585 7.93059 38.9585 7.93059Z" fill="#8D8C8E"></path><path d="M132.112 33.3474H131.332L132.859 36.8315L132.621 37.4287C132.553 37.5946 132.486 37.7274 132.384 37.8601C132.282 37.9596 132.112 38.026 131.977 37.9928C131.875 37.9928 131.739 37.9596 131.637 37.9265L131.569 38.5237C131.637 38.5569 131.739 38.5569 131.807 38.5569H132.044C132.214 38.5569 132.35 38.5237 132.52 38.4905C132.655 38.4574 132.757 38.391 132.859 38.2915C132.961 38.1919 133.029 38.0924 133.096 37.9928C133.164 37.8601 133.232 37.7274 133.3 37.5946L135.031 33.2811H134.284L133.3 36.0019L132.112 33.3474ZM127.327 33.3474C127.327 33.447 127.361 33.5797 127.361 33.7456C127.361 33.9115 127.361 34.011 127.361 34.1106V36.8315H128.074V34.9733C128.074 34.6747 128.142 34.376 128.345 34.1438C128.515 33.9447 128.753 33.8451 129.024 33.8451C129.16 33.8451 129.296 33.8783 129.431 33.9447C129.533 34.011 129.635 34.0774 129.669 34.177C129.737 34.2765 129.771 34.376 129.805 34.5088C129.839 34.6415 129.839 34.7742 129.839 34.9069V36.8315H130.551V34.6747C130.551 34.4756 130.517 34.3097 130.483 34.1106C130.382 33.7788 130.144 33.5133 129.839 33.3474C129.635 33.2811 129.465 33.2147 129.228 33.2479C129.092 33.2479 128.956 33.2811 128.854 33.3142C128.719 33.3474 128.617 33.3806 128.515 33.447C128.413 33.5133 128.345 33.5797 128.244 33.6461C128.176 33.7124 128.108 33.812 128.074 33.9115H128.04C128.04 33.8451 128.04 33.7456 128.04 33.6461C128.04 33.5465 128.04 33.447 128.006 33.3474H127.327ZM125.325 34.6747C125.02 34.6747 124.714 34.6747 124.443 34.7079C124.171 34.741 123.9 34.7742 123.628 34.8738C123.425 34.9401 123.221 35.0729 123.051 35.2388C122.882 35.4047 122.814 35.6369 122.848 35.8692C122.848 36.0351 122.882 36.2342 122.984 36.3669C123.051 36.4997 123.153 36.5992 123.289 36.6987C123.425 36.7983 123.56 36.8315 123.696 36.8646C123.832 36.8978 124.002 36.931 124.137 36.931C124.375 36.931 124.612 36.8978 124.85 36.7651C125.054 36.6656 125.223 36.4997 125.359 36.3337H125.393C125.393 36.4997 125.427 36.6656 125.461 36.8315H126.106C126.072 36.7319 126.072 36.5992 126.072 36.4997C126.072 36.3669 126.072 36.2342 126.072 36.1347V34.6083C126.072 34.4092 126.038 34.2433 125.97 34.0774C125.902 33.9115 125.834 33.7788 125.698 33.6461C125.563 33.5133 125.427 33.4138 125.223 33.3474C125.02 33.2811 124.782 33.2479 124.545 33.2479C124.273 33.2479 124.002 33.2811 123.73 33.3806C123.493 33.4801 123.289 33.5797 123.085 33.7788L123.459 34.2101C123.594 34.0774 123.73 33.9779 123.9 33.9115C124.07 33.8451 124.273 33.812 124.477 33.812C124.714 33.812 124.918 33.8783 125.122 34.011C125.291 34.1438 125.393 34.376 125.359 34.5751L125.325 34.6747ZM125.325 35.1724V35.3383C125.325 35.6038 125.223 35.8692 125.054 36.0683C124.85 36.2674 124.579 36.3669 124.307 36.3669C124.205 36.3669 124.137 36.3669 124.036 36.3337C123.968 36.3006 123.866 36.3006 123.798 36.2342C123.73 36.201 123.662 36.1347 123.628 36.0683C123.594 36.0019 123.56 35.9024 123.56 35.8028C123.56 35.6701 123.594 35.5374 123.73 35.4378C123.832 35.3383 123.968 35.2719 124.103 35.2388C124.273 35.2056 124.443 35.1724 124.612 35.1392C124.816 35.1392 124.986 35.106 125.155 35.106L125.325 35.1724ZM118.877 36.3006C119.047 36.4997 119.217 36.6656 119.42 36.7651C119.658 36.8646 119.895 36.931 120.133 36.931C120.404 36.931 120.642 36.8978 120.88 36.7983C121.083 36.6987 121.287 36.566 121.456 36.4001C121.626 36.2342 121.728 36.0351 121.83 35.8028C121.932 35.5706 121.965 35.3383 121.965 35.0729C121.965 34.8406 121.932 34.5751 121.83 34.3429C121.762 34.1106 121.626 33.9447 121.456 33.7456C121.287 33.5797 121.117 33.447 120.88 33.3474C120.642 33.2479 120.404 33.2147 120.167 33.2147C119.895 33.2147 119.624 33.2811 119.386 33.3806C119.183 33.4801 119.013 33.646 118.877 33.8451H118.843V33.2811H118.165V38.5237H118.877V36.3006ZM121.151 35.5374C121.117 35.6701 121.015 35.836 120.913 35.9356C120.812 36.0683 120.676 36.1678 120.54 36.2342C120.371 36.3006 120.201 36.3337 120.031 36.3337C119.861 36.3337 119.692 36.3006 119.522 36.2342C119.386 36.1678 119.251 36.0683 119.149 35.9688C119.047 35.836 118.945 35.7033 118.911 35.5706C118.809 35.2719 118.809 34.9069 118.911 34.6083C118.979 34.4756 119.047 34.3097 119.149 34.2101C119.251 34.0774 119.386 34.011 119.522 33.9447C119.692 33.8783 119.861 33.8451 120.031 33.8451C120.201 33.8451 120.371 33.8783 120.54 33.9447C120.676 34.011 120.812 34.1106 120.913 34.2101C121.015 34.3429 121.083 34.4756 121.151 34.6083C121.253 34.9069 121.253 35.2388 121.151 35.5374ZM112.056 33.9115C112.022 33.8451 112.022 33.7456 112.022 33.6461C112.022 33.5465 112.022 33.447 111.988 33.3474H111.31C111.31 33.447 111.31 33.5797 111.344 33.7456C111.377 33.9115 111.344 34.011 111.344 34.1106V36.8315H112.056V34.9733C112.056 34.6747 112.124 34.376 112.328 34.1438C112.497 33.9447 112.735 33.8451 112.972 33.8451C113.074 33.8451 113.21 33.8783 113.312 33.9115C113.414 33.9447 113.482 34.011 113.549 34.1106C113.617 34.2101 113.651 34.3097 113.685 34.4092C113.719 34.5419 113.719 34.6747 113.719 34.7742V36.8315H114.432V34.9401C114.432 34.8074 114.466 34.6747 114.466 34.5419C114.5 34.4092 114.534 34.3097 114.635 34.177C114.703 34.0774 114.805 33.9779 114.907 33.9115C115.043 33.8451 115.178 33.812 115.314 33.812C115.45 33.812 115.586 33.8451 115.687 33.9115C115.789 33.9779 115.857 34.0442 115.925 34.1438C115.993 34.2433 116.027 34.3429 116.061 34.4756C116.095 34.6083 116.095 34.741 116.095 34.8738V36.7983H116.807V34.6415C116.807 34.4424 116.773 34.2765 116.739 34.0774C116.705 33.9115 116.604 33.7456 116.502 33.6129C116.4 33.4801 116.23 33.3806 116.095 33.3142C115.891 33.2479 115.721 33.1815 115.484 33.2147C115.246 33.2147 115.009 33.2811 114.771 33.3806C114.567 33.5133 114.364 33.6792 114.262 33.9115C114.16 33.6792 114.024 33.5133 113.821 33.3806C113.617 33.2811 113.414 33.2147 113.176 33.2147C112.939 33.2147 112.667 33.2811 112.463 33.4138C112.26 33.5465 112.124 33.7124 112.056 33.9115ZM110.258 34.3429C110.156 34.1106 110.02 33.9447 109.85 33.7788C109.681 33.6129 109.477 33.4801 109.24 33.4138C108.764 33.2479 108.221 33.2479 107.712 33.4138C107.475 33.5133 107.271 33.6129 107.102 33.7788C106.932 33.9447 106.796 34.1438 106.694 34.3429C106.491 34.8074 106.491 35.3383 106.694 35.836C106.796 36.0683 106.932 36.2674 107.102 36.4333C107.271 36.5992 107.475 36.7319 107.712 36.8315C108.187 36.9974 108.73 36.9974 109.24 36.8315C109.715 36.6656 110.054 36.3006 110.258 35.8692C110.427 35.3383 110.427 34.8074 110.258 34.3429ZM109.545 35.5706C109.511 35.7033 109.409 35.8692 109.307 35.9688C109.206 36.1015 109.07 36.201 108.934 36.2342C108.595 36.3669 108.255 36.3669 107.916 36.2342C107.78 36.1678 107.645 36.0683 107.543 35.9688C107.441 35.836 107.373 35.7033 107.305 35.5706C107.237 35.4047 107.237 35.2388 107.237 35.106C107.237 34.9401 107.271 34.7742 107.305 34.6415C107.339 34.5088 107.441 34.3429 107.543 34.2433C107.645 34.1106 107.78 34.0442 107.916 33.9779C108.255 33.8451 108.595 33.8451 108.934 33.9779C109.07 34.0442 109.206 34.1438 109.307 34.2433C109.409 34.376 109.477 34.5088 109.545 34.6415C109.613 34.8074 109.613 34.9733 109.613 35.106C109.647 35.2388 109.613 35.4047 109.545 35.5706ZM105.914 33.812C105.744 33.6129 105.54 33.4801 105.337 33.3806C105.099 33.2811 104.862 33.2479 104.59 33.2479C104.319 33.2479 104.081 33.2811 103.844 33.3806C103.606 33.4801 103.403 33.5797 103.233 33.7456C103.063 33.9115 102.927 34.1106 102.826 34.3429C102.724 34.5751 102.69 34.8406 102.69 35.106C102.69 35.3715 102.724 35.6369 102.826 35.8692C102.927 36.1015 103.063 36.2674 103.233 36.4333C103.403 36.5992 103.606 36.7319 103.844 36.7983C104.081 36.8978 104.353 36.931 104.59 36.931C104.862 36.931 105.099 36.8978 105.371 36.7983C105.574 36.6987 105.778 36.566 105.948 36.4001L105.473 35.9688C105.371 36.1015 105.235 36.201 105.099 36.2342C104.794 36.3669 104.421 36.3669 104.115 36.2342C103.979 36.1678 103.844 36.0683 103.742 35.9688C103.64 35.836 103.572 35.7033 103.504 35.5706C103.403 35.2719 103.403 34.9069 103.504 34.6083C103.538 34.4756 103.64 34.3097 103.742 34.2101C103.844 34.1106 103.979 34.011 104.115 33.9447C104.285 33.8783 104.421 33.8451 104.624 33.8451C104.794 33.8451 104.964 33.8783 105.099 33.9447C105.235 34.011 105.337 34.1106 105.439 34.2101L105.914 33.812ZM99.2623 33.1483C99.2963 33.2479 99.3642 33.3142 99.432 33.4138C99.4999 33.4801 99.6017 33.5465 99.7035 33.5797C99.8053 33.6129 99.9071 33.6461 100.009 33.6461C100.111 33.6461 100.213 33.6129 100.314 33.5797C100.416 33.5465 100.484 33.4801 100.586 33.4138C100.756 33.2811 100.823 33.0488 100.823 32.8497C100.823 32.6506 100.722 32.4515 100.586 32.2856C100.518 32.2192 100.416 32.1529 100.314 32.1197C100.213 32.0865 100.111 32.0533 100.009 32.0533C99.9071 32.0533 99.8053 32.0865 99.7035 32.1197C99.6017 32.1529 99.5338 32.2192 99.432 32.2856C99.3642 32.352 99.2963 32.4515 99.2623 32.5511C99.2284 32.6506 99.1945 32.7502 99.1945 32.8497C99.1945 32.9492 99.2284 33.0488 99.2623 33.1483ZM99.3642 32.5842C99.432 32.4183 99.5678 32.2856 99.7374 32.2192C99.8053 32.1861 99.9071 32.1529 100.009 32.1529C100.111 32.1529 100.179 32.1861 100.28 32.2192C100.348 32.2524 100.45 32.2856 100.484 32.352C100.552 32.4183 100.586 32.4847 100.62 32.5842C100.688 32.7502 100.688 32.9492 100.62 33.1151C100.552 33.2811 100.416 33.4138 100.246 33.4801C100.145 33.5133 100.077 33.5465 99.975 33.5465C99.8732 33.5465 99.8053 33.5133 99.7035 33.4801C99.6356 33.447 99.5338 33.3806 99.4999 33.3474C99.432 33.2811 99.3981 33.2147 99.3642 33.1151C99.2963 32.9492 99.2963 32.7502 99.3642 32.5842ZM99.7035 33.2811H99.8732V32.9161H100.009L100.213 33.2811H100.416L100.179 32.8829C100.246 32.8829 100.28 32.8497 100.348 32.8165C100.382 32.7833 100.416 32.717 100.416 32.6506C100.416 32.6174 100.416 32.5511 100.382 32.5179C100.348 32.4847 100.348 32.4515 100.314 32.4515C100.28 32.4183 100.246 32.4183 100.213 32.4183C100.179 32.4183 100.145 32.4183 100.077 32.4183H99.7374V33.2811H99.7035ZM99.8393 32.7833V32.5179H99.975C100.009 32.5179 100.077 32.5179 100.111 32.5511C100.145 32.5842 100.179 32.6174 100.179 32.6506C100.179 32.6838 100.145 32.7502 100.111 32.7502C100.077 32.7833 100.009 32.7833 99.975 32.7833H99.8393ZM96.0384 34.7742C96.0384 34.6415 96.0724 34.5088 96.1402 34.376C96.276 34.1438 96.4796 33.9447 96.7172 33.8451C96.8529 33.7788 96.9886 33.7788 97.1583 33.7788C97.2941 33.7788 97.4637 33.812 97.5995 33.8451C97.7013 33.8783 97.837 33.9779 97.9049 34.0442C98.0067 34.1438 98.0407 34.2433 98.1085 34.3429C98.1425 34.4756 98.1764 34.6083 98.1764 34.741H96.0384V34.7742ZM98.7533 34.2765C98.6854 34.0774 98.5497 33.8783 98.4139 33.7124C98.2782 33.5465 98.0746 33.447 97.871 33.3474C97.6334 33.2479 97.3959 33.2147 97.1583 33.2147C96.9208 33.2147 96.6493 33.2479 96.4457 33.3474C96.2421 33.447 96.0384 33.5465 95.8688 33.7124C95.6991 33.8783 95.5633 34.0774 95.4955 34.3097C95.3937 34.5419 95.3597 34.8074 95.3597 35.0397C95.3597 35.3051 95.3937 35.5374 95.4955 35.8028C95.5973 36.0351 95.733 36.201 95.8688 36.3669C96.0384 36.5328 96.242 36.6656 96.4796 36.7319C96.9886 36.931 97.5656 36.8978 98.1085 36.6987C98.38 36.566 98.6176 36.4001 98.7872 36.1678L98.2782 35.7697C98.1764 35.9356 98.0407 36.0683 97.871 36.1347C97.4298 36.4001 96.819 36.3337 96.4457 36.0019C96.3439 35.9024 96.242 35.8028 96.1742 35.6701C96.1063 35.5374 96.0724 35.4047 96.0724 35.2719H98.889C98.889 35.2388 98.889 35.2056 98.889 35.1392V35.0397C98.889 34.7742 98.8551 34.5419 98.7533 34.2765ZM92.8145 34.0774V36.7983H93.5272V34.9733C93.5272 34.8406 93.5611 34.6747 93.595 34.5419C93.629 34.4092 93.6968 34.3097 93.7647 34.177C93.8665 34.0774 93.9683 33.9779 94.0702 33.9115C94.2059 33.8451 94.3756 33.812 94.5113 33.812C94.6131 33.812 94.7489 33.812 94.8507 33.8451L94.8846 33.2147C94.7828 33.1815 94.7149 33.1815 94.6131 33.1815C94.3756 33.1815 94.138 33.2479 93.9683 33.3806C93.7647 33.5133 93.629 33.6792 93.5272 33.8783H93.4932C93.4932 33.812 93.4932 33.7124 93.4932 33.6129C93.4932 33.5133 93.4932 33.3806 93.4593 33.3142H92.7806C92.7806 33.4138 92.7806 33.5465 92.8145 33.7124C92.8485 33.8783 92.8145 33.9779 92.8145 34.0774ZM91.6946 34.3429C91.5928 34.1106 91.4571 33.9447 91.2874 33.7788C91.1177 33.6129 90.9141 33.4801 90.6766 33.4138C90.2015 33.2479 89.6585 33.2479 89.1494 33.4138C88.6743 33.5797 88.335 33.9115 88.1314 34.376C87.9278 34.8406 87.9278 35.3715 88.1314 35.8692C88.2332 36.1015 88.3689 36.3006 88.5386 36.4665C88.7083 36.6324 88.9119 36.7651 89.1494 36.8646C89.6245 37.0306 90.1675 37.0306 90.6766 36.8646C90.9141 36.7651 91.1177 36.6324 91.2874 36.4665C91.4571 36.3006 91.5928 36.1015 91.6946 35.8692C91.8643 35.3383 91.8643 34.8074 91.6946 34.3429ZM91.0159 35.5374C90.982 35.6701 90.8802 35.836 90.7784 35.9356C90.6766 36.0683 90.5408 36.1678 90.4051 36.201C90.0657 36.3337 89.7263 36.3337 89.387 36.201C89.2512 36.1347 89.1155 36.0351 89.0137 35.9356C88.9119 35.8028 88.844 35.6701 88.7761 35.5374C88.7083 35.3715 88.7083 35.2388 88.7083 35.0729C88.7083 34.9069 88.7422 34.741 88.7761 34.6083C88.8101 34.4756 88.9119 34.3097 89.0137 34.2101C89.1155 34.1106 89.2512 34.011 89.387 33.9447C89.7263 33.812 90.0657 33.812 90.4051 33.9447C90.5408 34.011 90.6766 34.1106 90.7784 34.2101C90.8802 34.3429 90.948 34.4756 91.0159 34.6083C91.0838 34.7742 91.0838 34.9401 91.0838 35.0729C91.0838 35.2388 91.0499 35.4047 91.0159 35.5374ZM87.4866 33.812C87.3169 33.6129 87.1133 33.4801 86.9097 33.3806C86.4346 33.1815 85.8916 33.1815 85.4165 33.3806C85.1789 33.4801 84.9753 33.5797 84.8056 33.7456C84.636 33.9115 84.5002 34.1106 84.3984 34.3429C84.2966 34.5751 84.2627 34.8406 84.2627 35.106C84.2627 35.3715 84.2966 35.6369 84.3984 35.8692C84.5002 36.1015 84.636 36.2674 84.8056 36.4333C84.9753 36.5992 85.1789 36.7319 85.4165 36.7983C85.654 36.8978 85.9255 36.931 86.1631 36.931C86.4346 36.931 86.6721 36.8978 86.9436 36.7983C87.1472 36.6987 87.3508 36.566 87.5205 36.4001L87.0454 35.9688C86.9436 36.1015 86.8079 36.201 86.6721 36.2342C86.3667 36.3669 85.9934 36.3669 85.688 36.2342C85.5522 36.1678 85.4165 36.0683 85.3147 35.9688C85.2129 35.836 85.145 35.7033 85.0771 35.5706C84.9753 35.2719 84.9753 34.9069 85.0771 34.6083C85.1111 34.4756 85.2129 34.3097 85.3147 34.2101C85.4165 34.1106 85.5522 34.011 85.688 33.9447C85.8577 33.8783 85.9934 33.8451 86.1631 33.8451C86.3328 33.8451 86.5024 33.8783 86.6382 33.9447C86.7739 34.011 86.8757 34.1106 86.9775 34.2101L87.4866 33.812ZM80.6655 34.7742C80.6655 34.6415 80.6994 34.5088 80.7673 34.376C80.903 34.1438 81.1066 33.9447 81.3442 33.8451C81.4799 33.7788 81.6157 33.7788 81.7514 33.7788C81.8871 33.7788 82.0568 33.812 82.1926 33.8451C82.2944 33.8783 82.4301 33.9779 82.498 34.0442C82.5659 34.1438 82.6337 34.2433 82.7016 34.3429C82.7355 34.4756 82.7695 34.6083 82.7695 34.741H80.6655V34.7742ZM83.3803 34.2765C83.3125 34.0774 83.1767 33.8783 83.041 33.7124C82.9052 33.5465 82.7016 33.447 82.498 33.3474C82.0229 33.1815 81.5139 33.1815 81.0727 33.3474C80.8691 33.447 80.6655 33.5465 80.4958 33.7124C80.3261 33.8783 80.1904 34.0774 80.1225 34.3097C80.0207 34.5419 79.9867 34.8074 79.9867 35.0397C79.9867 35.3051 80.0207 35.5374 80.1225 35.8028C80.2922 36.2342 80.6655 36.5992 81.1066 36.7651C81.6157 36.9642 82.1926 36.931 82.7356 36.7319C83.007 36.5992 83.2446 36.4333 83.4143 36.201L82.9052 35.8028C82.8034 35.9688 82.6677 36.0683 82.498 36.1678C82.2944 36.2674 82.0908 36.3337 81.8532 36.3337C81.7175 36.3337 81.5478 36.3006 81.412 36.2674C81.2763 36.201 81.1406 36.1347 81.0388 36.0351C80.9369 35.9356 80.8351 35.836 80.8012 35.7033C80.7333 35.5706 80.6994 35.4378 80.6994 35.3051H83.5161C83.5161 35.2719 83.5161 35.2388 83.5161 35.1724V35.0729C83.5161 34.8074 83.4821 34.5419 83.3803 34.2765ZM79.1383 33.3474H78.1881V32.352H77.4755V33.3474H76.7968V33.9115H77.4755V35.8028C77.4415 36.1015 77.5434 36.4001 77.747 36.6324C77.9506 36.8315 78.2221 36.931 78.5275 36.8978C78.6293 36.8978 78.7311 36.8978 78.8329 36.8646C78.9347 36.8646 79.0365 36.8315 79.1044 36.7983L79.0705 36.2342C79.0026 36.2674 78.9347 36.3006 78.8669 36.3006C78.799 36.3006 78.7311 36.3337 78.6632 36.3337C78.5275 36.3337 78.3918 36.3006 78.2899 36.201C78.1881 36.0683 78.1542 35.9024 78.1542 35.7365V33.9115H79.1044L79.1383 33.3474ZM75.8805 33.3474H75.1678V36.8315H75.8805V33.3474ZM75.8466 31.7547C75.7447 31.6552 75.6429 31.622 75.5072 31.622C75.3715 31.622 75.2696 31.6552 75.1678 31.7547C75.066 31.8543 75.0321 31.9538 75.0321 32.0865C75.0321 32.2192 75.066 32.3188 75.1678 32.3852C75.2696 32.4847 75.3715 32.5179 75.5072 32.5179C75.6429 32.5179 75.7447 32.4847 75.8466 32.3852C75.9484 32.3188 75.9823 32.1861 75.9823 32.0533C75.9823 31.9538 75.9484 31.8211 75.8466 31.7547ZM73.7765 32.0865C73.6068 31.8874 73.3692 31.7547 73.1317 31.6552C72.8602 31.5556 72.5548 31.4893 72.2493 31.4893C72.0118 31.4893 71.8082 31.5224 71.6046 31.5556C71.4009 31.622 71.1973 31.6883 71.0277 31.8211C70.858 31.9538 70.7222 32.0865 70.6204 32.2856C70.4168 32.6838 70.4168 33.1483 70.5865 33.5465C70.6544 33.7124 70.7562 33.8451 70.8919 33.9447C71.0277 34.0442 71.1634 34.1438 71.3331 34.2101C71.5028 34.2765 71.6724 34.3429 71.8421 34.376L72.3172 34.5419C72.453 34.5751 72.5887 34.6415 72.7245 34.741C72.8263 34.8074 72.9281 34.9069 72.9959 35.0065C73.0638 35.1392 73.0977 35.2719 73.0977 35.4047C73.0977 35.5374 73.0638 35.6701 72.9959 35.8028C72.9281 35.9024 72.8602 36.0019 72.7584 36.0683C72.6566 36.1347 72.5548 36.201 72.419 36.2342C72.2833 36.2674 72.1815 36.2674 72.0457 36.3006C71.5706 36.3006 71.1295 36.0683 70.858 35.7033L70.2811 36.1678C70.4847 36.4333 70.7562 36.5992 71.0616 36.7319C71.6046 36.9642 72.1815 36.9974 72.7245 36.8315C72.9281 36.7651 73.1317 36.6656 73.3014 36.5328C73.471 36.4001 73.6068 36.2342 73.7086 36.0351C73.8104 35.8028 73.8783 35.5706 73.8443 35.3383C73.8443 35.106 73.8104 34.9069 73.7086 34.7079C73.6068 34.5419 73.505 34.4092 73.3353 34.2765C73.1996 34.177 73.0299 34.0774 72.8263 34.011C72.6226 33.9447 72.453 33.8783 72.2833 33.812L71.8761 33.6792C71.7403 33.646 71.6385 33.5797 71.5367 33.5133C71.4349 33.447 71.367 33.3806 71.2991 33.2811C71.2313 33.1815 71.1973 33.0488 71.1973 32.9161C71.1973 32.7833 71.2313 32.6506 71.2991 32.5511C71.367 32.4515 71.4349 32.352 71.5367 32.2856C71.6385 32.2192 71.7403 32.1529 71.8761 32.1197C71.9779 32.0865 72.1136 32.0865 72.2493 32.0865C72.453 32.0865 72.6566 32.1197 72.8602 32.2192C73.0299 32.2856 73.1656 32.4183 73.3014 32.5511L73.7765 32.0865ZM66.5142 34.6415C66.2088 34.6415 65.9033 34.6415 65.6318 34.6747C65.3604 34.7079 65.0889 34.741 64.8174 34.8406C64.6138 34.9069 64.4101 35.0397 64.2405 35.2056C64.1047 35.3715 64.0029 35.6038 64.0369 35.836C64.0369 36.0019 64.0708 36.201 64.1726 36.3337C64.2405 36.4665 64.3423 36.566 64.478 36.6656C64.6138 36.7651 64.7495 36.7983 64.8852 36.8315C65.021 36.8646 65.1907 36.8978 65.3264 36.8978C65.564 36.8978 65.8015 36.8646 66.0391 36.7319C66.2427 36.6324 66.4124 36.4665 66.5142 36.3006H66.5481C66.5481 36.4665 66.582 36.6324 66.616 36.7983H67.2608C67.2268 36.6987 67.2268 36.566 67.2268 36.4665C67.2268 36.3337 67.2268 36.201 67.2268 36.1015V34.5751C67.2268 34.376 67.1929 34.2101 67.125 34.0442C67.0572 33.8783 66.9893 33.7456 66.8535 33.6129C66.7178 33.4801 66.582 33.3806 66.3784 33.3142C66.1748 33.2479 65.9373 33.2147 65.6997 33.2147C65.4282 33.2147 65.1567 33.2479 64.8852 33.3474C64.6477 33.447 64.4441 33.5465 64.2405 33.7456L64.6138 34.177C64.8852 33.9115 65.2585 33.7788 65.6318 33.7788C65.8694 33.7788 66.073 33.8451 66.2766 33.9779C66.4463 34.1106 66.5481 34.3429 66.5142 34.5419V34.6415ZM66.5142 35.1392V35.3051C66.5142 35.5706 66.4124 35.836 66.2427 36.0351C66.0391 36.2342 65.7676 36.3337 65.4961 36.3337C65.3943 36.3337 65.3264 36.3337 65.2246 36.3006C65.1567 36.2674 65.0549 36.2674 64.9871 36.201C64.9192 36.1678 64.8513 36.1015 64.8174 36.0351C64.7834 35.9687 64.7495 35.8692 64.7495 35.7697C64.7495 35.6369 64.7834 35.5042 64.8852 35.4047C64.9871 35.3051 65.1228 35.2388 65.2585 35.2056C65.4282 35.1724 65.5979 35.1392 65.7676 35.106C65.9712 35.106 66.1409 35.0729 66.3106 35.0729L66.5142 35.1392Z" fill="#8D8C8E"></path></svg>