<svg xmlns="http://www.w3.org/2000/svg" id="Layer_1" data-name="Layer 1" viewBox="0 0 397.97 116.27"><defs><style>.cls-1{fill:#fff;}.cls-2{fill:#e06154;}.cls-3{fill:#384257;}.cls-4{fill:#969696;}</style></defs><path class="cls-1" d="M93.28,66.34V19.41A11.3,11.3,0,0,0,82,8.11H33.85a11.3,11.3,0,0,0-11.3,11.3V66.34a11.3,11.3,0,0,0,11.3,11.29H45.63l-9.59,3L43.71,105,79.79,93.58l-5-16H82A11.3,11.3,0,0,0,93.28,66.34" transform="translate(-0.02 0.48)"></path><path class="cls-2" d="M57.59,52.33c-16.48,0-30.09,4.48-37.14,10.78a14.93,14.93,0,0,0,15.16,15h44c8.73,0,15.23-6.5,15.26-14.66-7.06-6.29-20.76-11.09-37.25-11.09" transform="translate(-0.02 0.48)"></path><path class="cls-3" d="M129.62,42.34a36,36,0,0,1,1.23,7.85c0,3.4-.29,28.08-.29,28.08l8.61.19L139.07,50s3.31-3.12,7.28-2.94a5.36,5.36,0,0,1,5.49,5.3c0,2.18-.19,26.1-.19,26.1l8.6-.1.1-28.46a10.57,10.57,0,0,1,6.81-2.84c4,0,5.48,3.5,5.58,5.59s-.19,25.9-.19,25.9l8.79-.28-.1-27.61s-1.41-9.84-12.48-9.84a16.83,16.83,0,0,0-11.06,4c-1.51-1.42-4.26-4.25-9.36-3.87s-6.9.94-11.44,3.78a8.87,8.87,0,0,0-1.33-3.21Z" transform="translate(-0.02 0.48)"></path><path class="cls-3" d="M220.78,57.08c-1.23-15.5-12.86-16.16-12.86-16.16h-5.11c-13.34,1-15.08,14.14-15.32,16.83,0,.3.09,4.92.09,4.92.1,14.37,13.24,16.26,13.24,16.26h4.92c14.47-1.51,15.13-16.55,15.13-16.55s0-1.7-.09-5.3M204.3,72.69c-7-.07-8.37-6.24-8.3-12.48.14-6,.42-12.77,8.15-13.05,0,0,8.59-1.21,8.37,12.27.15,6.74-1.27,13.05-8.22,13.26" transform="translate(-0.02 0.48)"></path><path class="cls-3" d="M284.13,49.57s-5.15-2.13-9.08-1.89-5.95.57-6,3.64,3.07,3.88,8,5.77,9.17,5.06,9.12,10.73-5.05,11.63-15,11.11c-8.46-.09-11-3-11-3l2-5.77s5.06,2.17,9.22,2,6.29-.57,6.29-4-4.06-4.59-8-6.34-9.31-4.3-9.08-10.4,5.25-10.68,13.86-10.54,11.25,2.45,11.25,2.45Z" transform="translate(-0.02 0.48)"></path><path class="cls-3" d="M316.64,69.71s-2.06,2.41-9.36,2.41c-9.29.15-9.65-7.09-9.72-7.87,7.66.14,22.62-3,22.2-12.91s-11-10.42-11-10.42l-3.34-.07c-14.75,1.77-15.82,18-15.82,18C289.19,74.32,299.33,79,306.92,79A23.16,23.16,0,0,0,320,74.75Zm-9.72-22.55s5.47.14,5.47,4.75-8.52,7.09-15.11,6.53c0,0,0-10.86,9.64-11.28" transform="translate(-0.02 0.48)"></path><path class="cls-3" d="M325.32,42.66a55.65,55.65,0,0,1,1.2,7.44c.09,2.55-.12,29-.12,29H335l-.19-28.73a12.22,12.22,0,0,1,6.73-2.55c3.6,0,6.64,1.52,6.64,5.59V79.09h8.94l-.28-27S356.19,41,343.8,41c0,0-5-.75-10.87,3.88-.76-2.07-1.33-3.54-1.33-3.54Z" transform="translate(-0.02 0.48)"></path><path class="cls-3" d="M397.89,72.6A2.39,2.39,0,0,1,395,70.23c-.28-2.93,0-44.44,0-44.44l-8.13.94-.19,14.66s-4.16-.57-6-.57S363.94,41,363.38,60s12.95,19,14.27,19,7.1-.28,10.12-5c.28,1.23,1.14,4.45,6.53,4.35A15.15,15.15,0,0,0,398,77.7Zm-11.25-7.29s-.76,7.38-7.85,7.38-7-9-7-12.2,0-13.33,9.55-13.33a19,19,0,0,1,5.3.56Z" transform="translate(-0.02 0.48)"></path><path class="cls-3" d="M257.88,57.1C256.65,41.59,245,40.92,245,40.92h-5.11c-13.33,1.13-15.07,14.16-15.32,16.85,0,.3.1,4.9.1,4.9.1,14.38,13.24,16.26,13.24,16.26h4.91C257.31,77.51,258,62.39,258,62.39s0-1.69-.09-5.29M241.4,72.72c-7-.06-8.36-6.24-8.29-12.48.14-6,.42-12.76,8.15-13,0,0,8.58-1.21,8.37,12.26.14,6.74-1.28,13.05-8.23,13.26" transform="translate(-0.02 0.48)"></path><path class="cls-3" d="M54.57,36.44c.47-1.85-.08-3.59-1.23-3.88s-2.46,1-2.93,2.83.09,3.59,1.24,3.88,2.46-1,2.92-2.83m6.64.07c.53,1.83,1.88,3.06,3,2.73s1.64-2.08,1.11-3.92-1.87-3-3-2.73-1.64,2.08-1.12,3.92M45.81,65.89c-1.55-2.64-4.14-4-5.79-3s-1.72,3.89-.16,6.54,4.14,4,5.78,3.05,1.72-3.89.17-6.54m31.37,3.64C78.73,66.88,78.66,64,77,63s-4.23.41-5.78,3.05-1.48,5.58.16,6.54,4.24-.4,5.79-3m15.08-3.67A11.83,11.83,0,0,1,80.43,77.68H34.84A11.82,11.82,0,0,1,23,65.86V61.1c7.52-5.22,19.9-8.77,34.57-8.77s27.13,3.81,34.67,9.08Zm0-8.17c-7.6-5.37-20.13-8.59-34.67-8.59-14.38,0-26.92,3.27-34.57,8.58V20.27A11.82,11.82,0,0,1,34.84,8.45H80.43A11.83,11.83,0,0,1,92.26,20.27ZM38.75,83.21l11.17,5.64-5.79,11.27Zm7.89,19.07,6.16-12,7,3.52,4-7.13,12.34,6.23ZM63.22,81l-4.75,8.57L41.5,81Zm14,8.91-11.94-6L66.91,81h7.5Zm37.54-66.51L88.22,8A15.63,15.63,0,0,0,80,5.22c-4.61-11-8.45-3.25-9.68-.07H45.06C40.45-5.77,36.63,2,35.4,5.16a15.87,15.87,0,0,0-9.26,3.1L0,23.38s10.51,8.41,19.7,3.78V64.83A16.15,16.15,0,0,0,34.87,80.94V81a3.38,3.38,0,0,0,0,.45,3.78,3.78,0,0,0,.1.46l0,.17,6.84,21.49h0a3.54,3.54,0,0,0,.46.91,3.81,3.81,0,0,0,.33.36,3.26,3.26,0,0,0,.31.33h0a3.37,3.37,0,0,0,2.13.77,3.63,3.63,0,0,0,1-.16L78.81,95.44a3.39,3.39,0,0,0,2.14-2h0a.11.11,0,0,0,0,0,3.5,3.5,0,0,0,.21-1s0-.1,0-.16a3.26,3.26,0,0,0-.14-1L77.8,81h1.78A16,16,0,0,0,95.42,65l-.34-37.84c9.19,4.65,19.71-3.77,19.71-3.77" transform="translate(-0.02 0.48)"></path><path class="cls-4" d="M389.34,100H387l4.5,10.51-.67,1.75a4.32,4.32,0,0,1-.73,1.3,1.54,1.54,0,0,1-1.22.45,3.19,3.19,0,0,1-1-.17l-.2,1.84a4.46,4.46,0,0,0,.7.12l.67,0a3.92,3.92,0,0,0,1.35-.2,3.06,3.06,0,0,0,1-.56,3.81,3.81,0,0,0,.74-.89,9.47,9.47,0,0,0,.57-1.19l5.1-13h-2.22l-2.9,8.25h0Zm-14.18,0c0,.34.06.73.07,1.17s0,.81,0,1.09v8.25h2.09v-5.59a3.83,3.83,0,0,1,.78-2.52,2.57,2.57,0,0,1,2-.94,2.37,2.37,0,0,1,1.2.27,1.92,1.92,0,0,1,.73.71,2.88,2.88,0,0,1,.37,1,6.77,6.77,0,0,1,.1,1.22v5.83h2.08v-6.52a5.55,5.55,0,0,0-.23-1.66,3.53,3.53,0,0,0-1.94-2.28,4.08,4.08,0,0,0-1.75-.34,3.68,3.68,0,0,0-1.11.16,3.6,3.6,0,0,0-1,.43,4,4,0,0,0-.78.64,3.21,3.21,0,0,0-.55.79h-.06c0-.22,0-.5,0-.83s0-.64-.06-.9Zm-5.83,4c-.89,0-1.77,0-2.64.11a9.58,9.58,0,0,0-2.35.48,4,4,0,0,0-1.68,1.06,2.7,2.7,0,0,0-.65,1.9,2.89,2.89,0,0,0,.37,1.53,3.05,3.05,0,0,0,.92,1,3.78,3.78,0,0,0,1.23.54,5.46,5.46,0,0,0,1.3.17,4.33,4.33,0,0,0,2.07-.47,4,4,0,0,0,1.45-1.31h.07a6.43,6.43,0,0,0,.18,1.51h1.88a5.42,5.42,0,0,1-.12-1c0-.4,0-.77,0-1.12v-4.59a4.75,4.75,0,0,0-.27-1.62,3.51,3.51,0,0,0-.8-1.31,3.77,3.77,0,0,0-1.36-.88,5.55,5.55,0,0,0-2-.32,6.82,6.82,0,0,0-2.41.42,5.71,5.71,0,0,0-1.9,1.15l1.11,1.34a4.29,4.29,0,0,1,1.32-.88,4.17,4.17,0,0,1,1.68-.34,2.9,2.9,0,0,1,1.88.56,2.11,2.11,0,0,1,.71,1.74Zm0,1.51V106a3.15,3.15,0,0,1-.79,2.21,2.87,2.87,0,0,1-2.25.88,3.94,3.94,0,0,1-.77-.08,2.09,2.09,0,0,1-.69-.28,1.52,1.52,0,0,1-.5-.51,1.46,1.46,0,0,1-.19-.78,1.35,1.35,0,0,1,.45-1.06,2.67,2.67,0,0,1,1.12-.6,7.31,7.31,0,0,1,1.5-.26c.56,0,1.09-.07,1.61-.07Zm-19,3.44h.07a3.81,3.81,0,0,0,1.57,1.37,4.75,4.75,0,0,0,2.13.49,5.57,5.57,0,0,0,2.2-.43,5,5,0,0,0,1.66-1.19,5.25,5.25,0,0,0,1.06-1.77,6.28,6.28,0,0,0,.38-2.18,6.13,6.13,0,0,0-.38-2.16,5.33,5.33,0,0,0-1.07-1.76,4.83,4.83,0,0,0-1.67-1.18,5.27,5.27,0,0,0-2.14-.42,4.7,4.7,0,0,0-2.29.54,4,4,0,0,0-1.5,1.39h-.06V100h-2v15.83h2.08Zm6.7-2.29a3.54,3.54,0,0,1-.67,1.22,3.24,3.24,0,0,1-1.1.86,3.42,3.42,0,0,1-1.51.32,3.47,3.47,0,0,1-1.46-.31,3.59,3.59,0,0,1-1.12-.84,3.73,3.73,0,0,1-.72-1.2,4.3,4.3,0,0,1,0-2.89,3.93,3.93,0,0,1,.72-1.22,3.59,3.59,0,0,1,1.12-.84,3.32,3.32,0,0,1,1.46-.31,3.42,3.42,0,0,1,1.51.31,3.19,3.19,0,0,1,1.1.84,3.63,3.63,0,0,1,.67,1.22,4.69,4.69,0,0,1,0,2.84m-26.86-4.92h-.07c0-.22,0-.5,0-.83s0-.64-.06-.9h-2c0,.34.05.73.07,1.17s0,.81,0,1.09v8.25h2.08v-5.59a3.89,3.89,0,0,1,.77-2.52,2.4,2.4,0,0,1,1.92-.94,2.32,2.32,0,0,1,1,.21,2,2,0,0,1,.69.58,2.35,2.35,0,0,1,.38.88,5.55,5.55,0,0,1,.11,1.13v6.25h2.08v-5.68a5,5,0,0,1,.15-1.22,3.21,3.21,0,0,1,.46-1.07,2.48,2.48,0,0,1,.83-.78,2.37,2.37,0,0,1,1.22-.3,2.12,2.12,0,0,1,1.13.27,1.93,1.93,0,0,1,.71.71,2.88,2.88,0,0,1,.38,1,6.75,6.75,0,0,1,.11,1.22v5.83h2.09v-6.52a5.55,5.55,0,0,0-.24-1.66,3.63,3.63,0,0,0-.72-1.36,3.54,3.54,0,0,0-1.22-.92,4.08,4.08,0,0,0-1.75-.34,4.14,4.14,0,0,0-2.08.54,3.76,3.76,0,0,0-1.49,1.57,3.24,3.24,0,0,0-1.34-1.62,3.76,3.76,0,0,0-1.92-.49,3.62,3.62,0,0,0-2.07.59,3.55,3.55,0,0,0-1.28,1.43M324.86,103a5.31,5.31,0,0,0-1.2-1.74,5.46,5.46,0,0,0-1.81-1.14,6.32,6.32,0,0,0-4.48,0,5.32,5.32,0,0,0-1.8,1.14,5.41,5.41,0,0,0-1.18,1.74,5.9,5.9,0,0,0,0,4.47,5.54,5.54,0,0,0,1.18,1.77,5.34,5.34,0,0,0,1.8,1.15,6.32,6.32,0,0,0,4.48,0,5.27,5.27,0,0,0,3-2.92,6,6,0,0,0,0-4.47m-2,3.67a3.56,3.56,0,0,1-.68,1.22,3.15,3.15,0,0,1-1.09.85,3.78,3.78,0,0,1-3,0,3.15,3.15,0,0,1-1.09-.85,3.56,3.56,0,0,1-.68-1.22,4.26,4.26,0,0,1-.23-1.44,4.34,4.34,0,0,1,.23-1.44,3.51,3.51,0,0,1,.68-1.21,3.23,3.23,0,0,1,1.09-.83,3.78,3.78,0,0,1,3,0,3.23,3.23,0,0,1,1.09.83,3.51,3.51,0,0,1,.68,1.21,4.34,4.34,0,0,1,.23,1.44,4.26,4.26,0,0,1-.23,1.44m-10.77-5.23a4,4,0,0,0-1.74-1.29,5.91,5.91,0,0,0-2.2-.44,6.05,6.05,0,0,0-2.23.4,5.25,5.25,0,0,0-1.79,1.13,5.17,5.17,0,0,0-1.17,1.75,5.91,5.91,0,0,0-.42,2.26,5.77,5.77,0,0,0,.43,2.29,5.2,5.2,0,0,0,1.18,1.74,5.48,5.48,0,0,0,1.79,1.12,6.12,6.12,0,0,0,2.25.4,5.76,5.76,0,0,0,2.26-.43,4.55,4.55,0,0,0,1.67-1.21l-1.4-1.27a2.94,2.94,0,0,1-1.08.85,3.57,3.57,0,0,1-2.91,0,3.35,3.35,0,0,1-1.09-.84,3.63,3.63,0,0,1-.68-1.2,4.65,4.65,0,0,1,0-2.89,3.68,3.68,0,0,1,.68-1.21,3.43,3.43,0,0,1,1.08-.83,3.33,3.33,0,0,1,1.45-.31,3.07,3.07,0,0,1,1.42.35,2.65,2.65,0,0,1,1,.85Zm-19.6-2a2.39,2.39,0,0,0,.52.76,2.25,2.25,0,0,0,.77.51,2.41,2.41,0,0,0,.93.18,2.46,2.46,0,0,0,.94-.18,2.35,2.35,0,0,0,.77-.51,2.36,2.36,0,0,0,.71-1.69,2.41,2.41,0,0,0-.71-1.7,2.72,2.72,0,0,0-.77-.51,2.29,2.29,0,0,0-.94-.19,2.24,2.24,0,0,0-.93.19,2.58,2.58,0,0,0-.77.51,2.43,2.43,0,0,0-.52.77,2.24,2.24,0,0,0-.19.93,2.21,2.21,0,0,0,.19.93m.35-1.72a2,2,0,0,1,1.08-1.08,1.92,1.92,0,0,1,.79-.16,2,2,0,0,1,.8.16,2,2,0,0,1,.64.43,2.07,2.07,0,0,1,.44.65,2,2,0,0,1,0,1.58,2.1,2.1,0,0,1-1.08,1.09,2.15,2.15,0,0,1-.8.16,2.1,2.1,0,0,1-.79-.16,2.26,2.26,0,0,1-.65-.44,2.16,2.16,0,0,1-.43-.65,2,2,0,0,1,0-1.58m.93,2.14h.49V98.72h.35l.63,1.14h.59l-.73-1.19a.8.8,0,0,0,.46-.25.69.69,0,0,0,.17-.48.7.7,0,0,0-.09-.37.64.64,0,0,0-.22-.24,1,1,0,0,0-.33-.14,1.5,1.5,0,0,0-.37,0h-.95Zm.49-1.53v-.77h.44a.94.94,0,0,1,.37.07.3.3,0,0,1,.17.3.31.31,0,0,1-.19.32.92.92,0,0,1-.4.08ZM283,104.27a2.92,2.92,0,0,1,.33-1.16,3.23,3.23,0,0,1,1.72-1.58,3.52,3.52,0,0,1,1.26-.23,3.27,3.27,0,0,1,1.27.23,2.53,2.53,0,0,1,.91.64,2.61,2.61,0,0,1,.56.94,4.34,4.34,0,0,1,.21,1.16Zm8-1.43a5,5,0,0,0-1-1.72,4.36,4.36,0,0,0-1.6-1.08,5.56,5.56,0,0,0-2.09-.38,5.64,5.64,0,0,0-2.15.41,5,5,0,0,0-1.73,1.14,5.26,5.26,0,0,0-1.15,1.77,6,6,0,0,0-.41,2.25,5.73,5.73,0,0,0,.43,2.26,5.13,5.13,0,0,0,1.15,1.74,5.2,5.2,0,0,0,1.75,1.12,6.42,6.42,0,0,0,4.76-.12,5.2,5.2,0,0,0,2-1.63l-1.46-1.18a3.7,3.7,0,0,1-1.22,1.13,3.55,3.55,0,0,1-4.21-.45,3.46,3.46,0,0,1-.75-1,3.32,3.32,0,0,1-.3-1.25h8.34a2.17,2.17,0,0,0,0-.36v-.35a6.78,6.78,0,0,0-.35-2.28m-17.52-.63v8.25h2.08v-5.52a4.5,4.5,0,0,1,.18-1.28,3.27,3.27,0,0,1,.54-1.07,2.92,2.92,0,0,1,.92-.75,3,3,0,0,1,1.31-.27,3.72,3.72,0,0,1,1,.11l.09-1.93a3.26,3.26,0,0,0-.82-.09,3.38,3.38,0,0,0-1.92.57,3.54,3.54,0,0,0-1.3,1.49h-.07c0-.22,0-.5,0-.85s0-.66-.07-.92h-2c0,.34.05.73.07,1.17s0,.81,0,1.09m-3.32.74a5.14,5.14,0,0,0-1.19-1.74,5.46,5.46,0,0,0-1.81-1.14,6.32,6.32,0,0,0-4.48,0,5.19,5.19,0,0,0-3,2.88,5.9,5.9,0,0,0,0,4.47,5.38,5.38,0,0,0,1.18,1.77,5.24,5.24,0,0,0,1.8,1.15,6.32,6.32,0,0,0,4.48,0,5.48,5.48,0,0,0,1.81-1.15,5.26,5.26,0,0,0,1.19-1.77,5.9,5.9,0,0,0,0-4.47m-2,3.67a3.73,3.73,0,0,1-.68,1.22,3.15,3.15,0,0,1-1.09.85,3.78,3.78,0,0,1-3,0,3.29,3.29,0,0,1-1.1-.85,3.71,3.71,0,0,1-.67-1.22,4.27,4.27,0,0,1-.24-1.44,4.35,4.35,0,0,1,.24-1.44,3.66,3.66,0,0,1,.67-1.21,3.37,3.37,0,0,1,1.1-.83,3.78,3.78,0,0,1,3,0,3.23,3.23,0,0,1,1.09.83,3.68,3.68,0,0,1,.68,1.21,4.34,4.34,0,0,1,.23,1.44,4.26,4.26,0,0,1-.23,1.44m-10.32-5.23a4.1,4.1,0,0,0-1.74-1.29,6.08,6.08,0,0,0-4.44,0,5.35,5.35,0,0,0-1.79,1.13,5.17,5.17,0,0,0-1.17,1.75,5.91,5.91,0,0,0-.42,2.26,5.77,5.77,0,0,0,.43,2.29,5.08,5.08,0,0,0,1.19,1.74,5.34,5.34,0,0,0,1.78,1.12,6.12,6.12,0,0,0,2.25.4,5.81,5.81,0,0,0,2.27-.43,4.52,4.52,0,0,0,1.66-1.21l-1.4-1.27a3,3,0,0,1-1.07.85,3.59,3.59,0,0,1-2.92,0,3.35,3.35,0,0,1-1.09-.84,3.61,3.61,0,0,1-.67-1.2,4.47,4.47,0,0,1,0-2.89,3.66,3.66,0,0,1,.67-1.21,3.54,3.54,0,0,1,1.08-.83,3.33,3.33,0,0,1,1.45-.31,3,3,0,0,1,1.42.35,2.57,2.57,0,0,1,1,.85Zm-20.14,2.88a3.09,3.09,0,0,1,.32-1.16,3.29,3.29,0,0,1,1.73-1.58,3.47,3.47,0,0,1,1.25-.23,3.33,3.33,0,0,1,1.28.23,2.72,2.72,0,0,1,.91.64,2.59,2.59,0,0,1,.55.94,3.67,3.67,0,0,1,.21,1.16Zm8-1.43a5.15,5.15,0,0,0-1-1.72,4.36,4.36,0,0,0-1.6-1.08,5.92,5.92,0,0,0-4.25,0,5.21,5.21,0,0,0-1.73,1.14A5.09,5.09,0,0,0,236,103a6,6,0,0,0-.41,2.25,5.91,5.91,0,0,0,.42,2.26,5,5,0,0,0,2.91,2.86,6.39,6.39,0,0,0,4.75-.12,5.15,5.15,0,0,0,2-1.63l-1.46-1.18a3.8,3.8,0,0,1-1.22,1.13,3.56,3.56,0,0,1-1.85.47,3.48,3.48,0,0,1-1.29-.24,3.54,3.54,0,0,1-1.08-.68,3.26,3.26,0,0,1-.74-1,3,3,0,0,1-.3-1.25h8.34c0-.12,0-.24,0-.36v-.35a7,7,0,0,0-.35-2.28M233.23,100h-2.79v-3h-2.07v3h-2v1.71h2v5.7a3.42,3.42,0,0,0,.79,2.46,3,3,0,0,0,2.27.82,5.89,5.89,0,0,0,.95-.08,4.79,4.79,0,0,0,.83-.21l-.07-1.71a2.23,2.23,0,0,1-.6.2,2.81,2.81,0,0,1-.62.07,1.43,1.43,0,0,1-1.13-.41,2.09,2.09,0,0,1-.35-1.37v-5.47h2.79Zm-9.67,0h-2.08v10.51h2.08Zm-.06-4.76a1.37,1.37,0,0,0-1-.39,1.35,1.35,0,0,0-1,.39,1.32,1.32,0,0,0-.4,1,1.29,1.29,0,0,0,.4.94,1.35,1.35,0,0,0,1,.39,1.4,1.4,0,0,0,1-.38,1.22,1.22,0,0,0,.42-1,1.26,1.26,0,0,0-.42-1m-6.08,1a5,5,0,0,0-1.93-1.31,6.68,6.68,0,0,0-2.57-.49,7.61,7.61,0,0,0-1.95.25,5.14,5.14,0,0,0-1.72.81,4.31,4.31,0,0,0-1.25,1.4,4.73,4.73,0,0,0-.12,3.84,3.84,3.84,0,0,0,.93,1.23,5.17,5.17,0,0,0,1.31.82,11.54,11.54,0,0,0,1.49.54l1.43.48a4.79,4.79,0,0,1,1.18.57,2.69,2.69,0,0,1,.81.8,2.21,2.21,0,0,1,.3,1.19,2.31,2.31,0,0,1-.29,1.21,2.68,2.68,0,0,1-.74.83,3.06,3.06,0,0,1-1,.49,4.24,4.24,0,0,1-1.11.15,4.28,4.28,0,0,1-3.5-1.84L207,108.58a5.68,5.68,0,0,0,2.3,1.7,7.33,7.33,0,0,0,4.9.29,5.08,5.08,0,0,0,1.74-.87,4.54,4.54,0,0,0,1.21-1.49,4.7,4.7,0,0,0,.45-2.12,4,4,0,0,0-.42-1.94,3.94,3.94,0,0,0-1.09-1.27,5.46,5.46,0,0,0-1.48-.82c-.55-.21-1.09-.4-1.62-.56l-1.25-.43a4,4,0,0,1-1-.51,2.39,2.39,0,0,1-.69-.73,2.11,2.11,0,0,1-.26-1.08,2.29,2.29,0,0,1,.28-1.14,2.64,2.64,0,0,1,.72-.8,3.22,3.22,0,0,1,1-.47,4.43,4.43,0,0,1,1.07-.14,3.91,3.91,0,0,1,1.8.41,3.67,3.67,0,0,1,1.27,1ZM196,103.94c-.89,0-1.77,0-2.64.11a9.49,9.49,0,0,0-2.35.48,4.08,4.08,0,0,0-1.69,1.06,2.7,2.7,0,0,0-.64,1.9,2.89,2.89,0,0,0,.37,1.53,3.05,3.05,0,0,0,.92,1,3.78,3.78,0,0,0,1.23.54,5.45,5.45,0,0,0,1.29.17,4.4,4.4,0,0,0,2.08-.47,4,4,0,0,0,1.45-1.31h.07a7,7,0,0,0,.17,1.51h1.89a5.42,5.42,0,0,1-.12-1c0-.4,0-.77,0-1.12v-4.59a4.75,4.75,0,0,0-.26-1.62,3.64,3.64,0,0,0-.8-1.31,3.77,3.77,0,0,0-1.36-.88,5.57,5.57,0,0,0-2-.32,6.77,6.77,0,0,0-2.4.42,5.71,5.71,0,0,0-1.9,1.15l1.11,1.34a4.28,4.28,0,0,1,3-1.22,2.92,2.92,0,0,1,1.89.56,2.11,2.11,0,0,1,.71,1.74Zm0,1.51V106a3.15,3.15,0,0,1-.79,2.21,2.87,2.87,0,0,1-2.25.88,4,4,0,0,1-.78-.08,2,2,0,0,1-.68-.28,1.44,1.44,0,0,1-.5-.51,1.46,1.46,0,0,1-.19-.78,1.38,1.38,0,0,1,.44-1.06,2.8,2.8,0,0,1,1.12-.6,7.41,7.41,0,0,1,1.51-.26c.55,0,1.09-.07,1.61-.07Z" transform="translate(-0.02 0.48)"></path></svg>