<svg xmlns="http://www.w3.org/2000/svg" width="161" height="47" viewBox="0 0 161 47" fill="none"><path id="Vector" d="M137.456 31.3781L160.594 6.29225H112.157C111.222 6.31893 110.475 7.06617 110.449 8.00022V13.2843C106.018 5.70513 96.8915 0.527832 86.3234 0.527832C73.8605 0.527832 63.3725 7.78672 60.2768 17.6343V6.31894H51.817C49.8154 6.34562 48.0541 7.25298 46.7731 8.58734L30.3872 26.5745L13.9746 8.58734C12.6936 7.2263 10.9323 6.34562 8.93076 6.31894H0.470947V42.9603H10.3452C11.3059 42.907 11.9998 42.1597 12.0532 41.199V23.6656L30.3872 43.9211L48.7213 23.6656V41.199C48.7479 42.133 49.5219 42.907 50.4559 42.9603H60.2768V29.7235C63.3725 39.5711 73.8605 46.83 86.3234 46.83C101.242 46.83 113.331 36.4754 113.331 23.6922C113.331 21.6907 113.011 19.7692 112.45 17.9011H133.586L110.449 42.987H158.859C159.793 42.9603 160.54 42.2131 160.594 41.2791V31.4048H137.456V31.3781ZM86.4035 35.1677C79.1446 35.1677 73.2467 30.0171 73.2467 23.6656C73.2467 17.314 79.1446 12.1634 86.4035 12.1634C93.6624 12.1634 99.5602 17.314 99.5602 23.6656C99.5602 30.0171 93.689 35.1677 86.4035 35.1677Z" fill="#AAAAAA"></path></svg>