<svg xmlns="http://www.w3.org/2000/svg" width="275" height="50" viewBox="0 0 275 50" fill="none"><g id="navattic-logos-idvUcEwteZ 1" clip-path="url(#clip0_4506_23383)"><g id="Group"><g id="Group_2"><path id="Vector" d="M84.9 13.9999L85.1 16.4999V17.4999V18.7999H85.3C85.7 17.9999 86.2 17.2999 86.8 16.6999C87.4 15.9999 88.2 15.3999 89 14.8999C89.8 14.3999 90.7 13.9999 91.7 13.6999C92.7 13.3999 93.7 13.2999 94.8 13.2999C96.7 13.2999 98.3 13.5999 99.6 14.1999C100.9 14.7999 102.1 15.6999 103 16.6999C103.9 17.6999 104.6 18.9999 105 20.3999C105.4 21.7999 105.6 23.2999 105.6 24.8999V42.6999H99.8V26.7999C99.8 25.6999 99.7 24.5999 99.5 23.4999C99.3 22.4999 99 21.4999 98.5 20.6999C98 19.8999 97.3 19.1999 96.5 18.7999C95.6 18.2999 94.5 18.0999 93.2 18.0999C90.9 18.0999 89 18.9999 87.6 20.6999C86.2 22.3999 85.4 24.6999 85.4 27.5999V42.8999H79.6V20.1999L79.5 17.1999V13.9999H84.9ZM131 24.1999C131 22.0999 130.3 20.4999 129 19.3999C127.7 18.3999 126 17.8999 123.8 17.8999C122.2 17.8999 120.6 18.1999 119.2 18.7999C117.7 19.3999 116.5 20.1999 115.6 21.1999L112.5 17.5999C113.9 16.2999 115.7 15.1999 117.7 14.4999C119.8 13.6999 122 13.2999 124.3 13.2999C126.4 13.2999 128.2 13.5999 129.7 14.1999C131.2 14.7999 132.5 15.5999 133.5 16.5999C134.5 17.5999 135.2 18.7999 135.7 20.1999C136.2 21.5999 136.4 22.9999 136.4 24.5999V37.0999L136.5 40.1999C136.6 41.2999 136.7 42.0999 136.8 42.7999H131.6C131.3 41.4999 131.1 40.0999 131.1 38.6999H130.9C129.9 40.1999 128.5 41.3999 126.9 42.2999C125.3 43.0999 123.4 43.5999 121.2 43.5999C120.1 43.5999 118.9 43.3999 117.6 43.0999C116.4 42.7999 115.2 42.2999 114.2 41.5999C113.2 40.8999 112.3 39.9999 111.7 38.8999C111 37.7999 110.7 36.3999 110.7 34.6999C110.7 32.4999 111.3 30.7999 112.5 29.4999C113.7 28.1999 115.2 27.2999 117.2 26.5999C119.2 25.8999 121.3 25.4999 123.7 25.2999L131 24.9999V24.1999ZM129.6 29.0999L125.2 29.2999C123.7 29.3999 122.3 29.6999 121 29.9999C119.7 30.2999 118.7 30.8999 117.9 31.5999C117.1 32.2999 116.7 33.2999 116.7 34.4999C116.7 35.2999 116.9 36.0999 117.2 36.5999C117.5 37.1999 118 37.5999 118.6 37.9999C119.2 38.3999 119.8 38.5999 120.5 38.7999C121.2 38.8999 121.9 38.9999 122.6 38.9999C125.3 38.9999 127.4 38.1999 128.8 36.5999C130.3 34.9999 131 32.9999 131 30.5999V29.0999H129.6ZM157.3 42.6999H151.1L139.3 13.9999H145.7L154.2 36.5999H154.3L162.9 13.9999H169L157.3 42.6999ZM190.2 24.1999C190.2 22.0999 189.5 20.4999 188.2 19.3999C186.9 18.3999 185.2 17.8999 183 17.8999C181.4 17.8999 179.8 18.1999 178.4 18.7999C176.9 19.3999 175.7 20.1999 174.8 21.1999L171.7 17.5999C173.1 16.2999 174.9 15.1999 176.9 14.4999C179 13.6999 181.2 13.2999 183.5 13.2999C185.6 13.2999 187.4 13.5999 188.9 14.1999C190.4 14.7999 191.7 15.5999 192.7 16.5999C193.7 17.5999 194.4 18.7999 194.9 20.1999C195.4 21.5999 195.6 22.9999 195.6 24.5999V37.0999L195.7 40.1999C195.8 41.2999 195.9 42.0999 196 42.7999H190.8C190.5 41.4999 190.3 40.0999 190.3 38.6999H190.1C189.1 40.1999 187.7 41.3999 186.1 42.2999C184.5 43.0999 182.6 43.5999 180.4 43.5999C179.3 43.5999 178.1 43.3999 176.8 43.0999C175.6 42.7999 174.4 42.2999 173.4 41.5999C172.4 40.8999 171.5 39.9999 170.9 38.8999C170.2 37.7999 169.9 36.3999 169.9 34.6999C169.9 32.4999 170.5 30.7999 171.7 29.4999C172.9 28.1999 174.4 27.2999 176.4 26.5999C178.3 25.8999 180.5 25.4999 182.9 25.2999L190.2 24.9999V24.1999ZM188.8 29.0999L184.4 29.2999C182.9 29.3999 181.5 29.6999 180.2 29.9999C179 30.3999 177.9 30.8999 177.1 31.5999C176.3 32.2999 175.9 33.2999 175.9 34.4999C175.9 35.2999 176.1 36.0999 176.4 36.5999C176.7 37.0999 177.2 37.5999 177.8 37.9999C178.4 38.3999 179 38.5999 179.7 38.7999C180.4 38.8999 181.1 38.9999 181.8 38.9999C184.5 38.9999 186.6 38.1999 188 36.5999C189.5 34.9999 190.2 32.9999 190.2 30.5999V29.0999H188.8ZM216.5 18.6999H208.8V33.6999C208.8 35.3999 209.1 36.6999 209.8 37.3999C210.5 38.0999 211.5 38.4999 212.9 38.4999C213.4 38.4999 214 38.3999 214.6 38.2999C215.2 38.1999 215.7 37.9999 216.3 37.7999L216.5 42.4999C215.8 42.7999 215 42.8999 214.2 43.0999C213.3 43.1999 212.5 43.2999 211.6 43.2999C208.9 43.2999 206.8 42.5999 205.3 41.0999C203.9 39.5999 203.1 37.3999 203.1 34.3999V18.6999H197.5V13.9999H203.1V5.7999H208.8V13.9999H216.5V18.6999ZM233.3 18.6999H225.6V33.6999C225.6 35.3999 225.9 36.6999 226.6 37.3999C227.3 38.0999 228.3 38.4999 229.7 38.4999C230.2 38.4999 230.8 38.3999 231.4 38.2999C232 38.1999 232.5 37.9999 233.1 37.7999L233.3 42.4999C232.6 42.7999 231.8 42.8999 231 43.0999C230.1 43.1999 229.3 43.2999 228.4 43.2999C225.7 43.2999 223.6 42.5999 222.1 41.0999C220.7 39.5999 219.9 37.3999 219.9 34.3999V18.6999H214.3V13.9999H219.9V5.7999H225.6V13.9999H233.3V18.6999ZM242.6 42.6999H236.8V13.9999H242.6V42.6999ZM243.6 3.6999C243.6 4.6999 243.2 5.5999 242.5 6.2999C241.8 6.9999 240.8 7.2999 239.8 7.2999C238.8 7.2999 237.8 6.8999 237.1 6.1999C236.4 5.4999 236 4.5999 236 3.5999C236 2.5999 236.4 1.6999 237.1 0.999902C237.8 0.299902 238.7 -0.100098 239.8 -0.100098C240.9 -0.100098 241.8 0.299902 242.5 0.999902C243.2 1.6999 243.6 2.6999 243.6 3.6999ZM270.5 21.2999C269.9 20.3999 269 19.5999 267.7 18.9999C266.5 18.3999 265.2 18.0999 263.8 18.0999C262.3 18.0999 261 18.3999 259.8 18.8999C258.6 19.4999 257.6 20.1999 256.8 21.1999C256 22.1999 255.4 23.1999 254.9 24.4999C254.5 25.7999 254.3 27.0999 254.3 28.3999C254.3 29.6999 254.5 31.0999 254.9 32.2999C255.3 33.5999 256 34.6999 256.8 35.5999C257.6 36.4999 258.6 37.2999 259.8 37.8999C261 38.4999 262.3 38.6999 263.8 38.6999C265.3 38.6999 266.6 38.3999 267.8 37.8999C269 37.3999 270 36.5999 270.8 35.5999L274.7 39.0999C273.5 40.4999 271.9 41.5999 270.1 42.3999C268.3 43.1999 266.2 43.5999 263.9 43.5999C261.7 43.5999 259.6 43.1999 257.7 42.4999C255.8 41.7999 254.2 40.7999 252.8 39.3999C251.4 38.0999 250.3 36.4999 249.5 34.5999C248.7 32.6999 248.3 30.6999 248.3 28.3999C248.3 26.0999 248.7 24.0999 249.5 22.1999C250.3 20.2999 251.4 18.6999 252.7 17.3999C254.1 16.0999 255.7 14.9999 257.6 14.2999C259.5 13.5999 261.6 13.1999 263.8 13.1999C265.8 13.1999 267.9 13.5999 269.9 14.3999C271.9 15.1999 273.5 16.3999 274.7 17.8999L270.5 21.2999ZM18 41.4999L16.8 43.3999C14.1 47.7999 9.29997 50.2999 4.19997 49.8999L2.59997 49.7999L-2.79015e-05 49.5999C-0.100028 49.4999 0.499972 46.8999 1.79997 41.9999C8.29997 38.9999 13.7 38.8999 18 41.4999ZM47.2 29.2999L45 39.0999C45 39.1999 45 39.1999 44.9 39.2999C31.9 46.4999 15.9 31.0999 2.89997 38.0999C2.79997 38.1999 2.59997 38.0999 2.59997 37.9999L4.79997 28.8999C4.79997 28.7999 4.79997 28.7999 4.89997 28.6999C17.9 21.4999 34.4 37.0999 46.7 29.1999C46.9 29.0999 47.2 29.1999 47.2 29.2999ZM50.3 16.0999L48 25.8999C48 25.9999 48 25.9999 47.9 26.0999C34.9 33.2999 18.9 17.8999 5.89997 24.8999C5.79997 24.9999 5.59997 24.8999 5.59997 24.7999L7.79997 15.6999C7.79997 15.5999 7.79997 15.5999 7.89997 15.4999C20.9 8.2999 37.4 23.8999 49.7 15.9999C50 15.8999 50.3 15.9999 50.3 16.0999ZM52.8 3.7999C52.9 3.8999 52.2 6.5999 50.7 11.8999C44.5 15.2999 39.2 15.8999 34.6 13.6999L35.9 11.2999C38.1 7.1999 42.3 4.4999 46.9 4.0999L50.2 3.8999C51.9 3.7999 52.8 3.6999 52.8 3.7999Z" fill="#AAAAAA"></path></g></g></g><defs><clipPath id="clip0_4506_23383"><rect width="274.7" height="50" fill="white"></rect></clipPath></defs></svg>