<svg xmlns="http://www.w3.org/2000/svg" width="178" height="40" viewBox="0 0 178 40" fill="none"><g clip-path="url(#clip0_4504_25738)"><path d="M173.67 13.3838C173.67 12.967 173.794 12.5596 174.025 12.2131C174.257 11.8666 174.586 11.5965 174.971 11.437C175.356 11.2775 175.779 11.2358 176.188 11.3171C176.597 11.3984 176.972 11.5991 177.267 11.8938C177.562 12.1885 177.763 12.5639 177.844 12.9727C177.925 13.3814 177.883 13.8051 177.724 14.1901C177.564 14.5752 177.294 14.9043 176.948 15.1358C176.601 15.3674 176.194 15.4909 175.777 15.4909C175.218 15.4909 174.682 15.2689 174.287 14.8738C173.892 14.4786 173.67 13.9426 173.67 13.3838ZM174.066 13.3838C174.071 13.7212 174.175 14.0496 174.366 14.3279C174.557 14.6061 174.826 14.8217 175.139 14.9475C175.452 15.0733 175.795 15.1038 176.126 15.035C176.456 14.9662 176.759 14.8014 176.996 14.5611C177.233 14.3208 177.393 14.0158 177.457 13.6845C177.521 13.3532 177.486 13.0103 177.356 12.699C177.226 12.3877 177.006 12.1219 176.725 11.9349C176.445 11.7479 176.115 11.6481 175.777 11.648C175.551 11.6489 175.326 11.6946 175.118 11.7825C174.909 11.8703 174.719 11.9986 174.56 12.1599C174.401 12.3212 174.276 12.5124 174.191 12.7224C174.106 12.9325 174.063 13.1572 174.066 13.3838ZM175.454 14.578H174.958V12.1722H175.913C176.392 12.1722 176.767 12.4118 176.767 12.929C176.771 13.0773 176.73 13.2234 176.648 13.3476C176.567 13.4717 176.449 13.568 176.312 13.6233L176.808 14.578H176.27L175.836 13.7031H175.454V14.578ZM175.874 12.6478H175.454V13.2449H175.874C176.051 13.2449 176.249 13.1651 176.249 12.9464C176.249 12.7277 176.055 12.6478 175.878 12.6478H175.874ZM75.0211 29.9843L66.4501 17.0809V29.9843H62.5933V11.2766H67.0263L75.1287 23.4857V11.2766H78.9647V29.9843H75.0211ZM87.7441 16.942C83.8664 16.942 80.7456 19.8268 80.7456 23.6454C80.7456 27.4641 83.8283 30.2829 87.6885 30.2829C91.5488 30.2829 94.6662 27.4224 94.6662 23.5621C94.6662 19.7018 91.5627 16.942 87.7233 16.942H87.7441ZM87.7059 26.8461C87.2786 26.8519 86.8547 26.77 86.4603 26.6054C86.066 26.4408 85.7096 26.1971 85.4131 25.8893C85.1167 25.5815 84.8866 25.2162 84.737 24.8159C84.5874 24.4156 84.5215 23.9889 84.5434 23.5621C84.5434 22.7289 84.8744 21.9298 85.4636 21.3406C86.0527 20.7514 86.8518 20.4204 87.6851 20.4204C88.5183 20.4204 89.3174 20.7514 89.9066 21.3406C90.4957 21.9298 90.8267 22.7289 90.8267 23.5621C90.8267 25.5096 89.4382 26.8427 87.7024 26.8427L87.7059 26.8461ZM104.324 17.2232V20.8821C103.931 20.8112 103.532 20.7775 103.133 20.7815C101.342 20.7815 100.089 22.0347 100.089 24.3987V29.9878H96.4332V17.2232H99.9706V19.0909H100.009C100.298 18.467 100.767 17.9432 101.355 17.5859C101.942 17.2287 102.623 17.0541 103.31 17.0844C103.652 17.0885 103.993 17.1351 104.324 17.2232ZM115.002 11.2766V18.7021H114.96C114.486 18.1588 113.898 17.7261 113.238 17.4346C112.579 17.1431 111.863 16.9999 111.142 17.0149C107.483 17.0149 105.018 20.3753 105.018 23.6107C105.018 27.051 107.382 30.2516 111.083 30.2516C111.937 30.2516 113.86 30.1301 115.058 28.3805H115.096V30.0121H118.717V11.2766H115.002ZM111.926 26.8461C111.5 26.85 111.078 26.7667 110.685 26.6012C110.292 26.4358 109.938 26.1918 109.643 25.8842C109.348 25.5766 109.119 25.2119 108.97 24.8126C108.821 24.4132 108.756 23.9877 108.778 23.5621C108.764 23.1382 108.835 22.7158 108.988 22.3201C109.14 21.9243 109.371 21.5633 109.666 21.2585C109.96 20.9536 110.314 20.7112 110.704 20.5457C111.095 20.3802 111.514 20.2948 111.939 20.2948C112.363 20.2948 112.782 20.3802 113.173 20.5457C113.563 20.7112 113.917 20.9536 114.211 21.2585C114.506 21.5633 114.737 21.9243 114.889 22.3201C115.042 22.7158 115.113 23.1382 115.099 23.5621C115.082 25.5131 113.69 26.8461 111.926 26.8461ZM126.618 29.9705L119.852 11.2766H124.049L128.909 25.5096L133.769 11.2939H137.886L131.085 29.9843L126.618 29.9705ZM146.405 11.2627H139.462V29.9843H143.34V23.3885H146.259C150.179 23.3885 153.098 21.3994 153.098 17.2649C153.112 13.3039 150.172 11.2766 146.433 11.2766L146.405 11.2627ZM146.089 19.7713H143.312V14.9112H146.054C147.665 14.9112 149.179 15.5291 149.179 17.3412C149.179 19.077 147.61 19.747 146.079 19.747L146.089 19.7713ZM167.487 29.9843L158.878 17.0809V29.9843H155.059V11.2766H159.486L167.609 23.4857V11.2766H171.445V29.9843H167.487Z" fill="#8D8C8E"></path><path d="M4.75829 38.875C2.13995 35.2541 0.573035 30.9801 0.230528 26.5249C-0.111979 22.0696 0.783242 17.6064 2.81737 13.6278C4.85149 9.64925 7.9454 6.31013 11.7576 3.97906C15.5697 1.64798 19.9519 0.415603 24.4203 0.417972C28.8887 0.420341 33.2695 1.65736 37.0792 3.99248C40.8889 6.3276 43.9793 9.67 46.0092 13.6507C48.0391 17.6314 48.9296 22.0956 48.5823 26.5505C48.2351 31.0054 46.6637 35.2777 44.0415 38.8958L32.3912 19.9277L31.2595 21.8266L32.3912 27.1136L24.3791 13.4082L19.4496 21.778L20.6021 27.124L16.4086 19.9485L4.75829 38.875Z" fill="#8D8C8E"></path></g><defs><clipPath id="clip0_4504_25738"><rect width="177.739" height="38.5889" fill="white" transform="translate(0.14502 0.438477)"></rect></clipPath></defs></svg>