<svg xmlns="http://www.w3.org/2000/svg" width="316" height="46" viewBox="0 0 316 46" fill="none"><g id="Group 44509"><path id="Vector" d="M273.356 44.1456L259.561 0.871094H254.263L268.636 44.1456H273.356Z" fill="#AAAAAA"></path><path id="Vector_2" d="M300.79 44.1456L286.522 1.02845V0.871094H286.417H283.165V1.02845L273.356 31.1371L275.402 37.8512L284.791 9.68336L296.384 44.1456H300.79Z" fill="#AAAAAA"></path><path id="Vector_3" d="M302.836 38.0085L315.477 0.871094H310.179L300.475 30.665L302.836 38.0085Z" fill="#AAAAAA"></path><path id="Vector_4" d="M23.151 40.5263C14.3387 40.5263 6.89025 33.9171 5.52645 25.2622H0.700684C2.1694 37.5889 13.447 46.4012 25.9311 44.9325C36.212 43.6211 44.2899 35.5432 45.6013 25.2622H40.7755C39.4642 33.9171 31.9633 40.369 23.151 40.5263Z" fill="#AAAAAA"></path><path id="Vector_5" d="M23.1509 4.70045C31.9631 4.70045 39.4116 11.3097 40.7754 19.9646H45.6012C43.9751 7.63787 32.6975 -1.17439 20.3708 0.451687C10.0898 1.60568 2.0119 9.68358 0.85791 19.9646H5.73613C6.89012 11.3097 14.391 4.70045 23.1509 4.70045Z" fill="#AAAAAA"></path><path id="Vector_6" d="M74.6607 3.23139C72.1429 1.44796 68.7858 1.02832 65.8484 1.02832V5.59182C70.5692 5.59182 74.818 7.21789 74.818 13.0927C74.818 18.8102 70.8315 20.8559 65.8484 20.8559V25.4194C69.1005 25.4194 72.7199 24.6851 75.395 22.6394C78.0177 20.5937 79.4864 16.9219 79.4864 13.4075C79.5389 9.2636 77.9128 5.59182 74.6607 3.23139Z" fill="#AAAAAA"></path><path id="Vector_7" d="M61.285 1.02832H56.4592V44.3029H61.285V1.02832Z" fill="#AAAAAA"></path><path id="Vector_8" d="M111.641 39.792H89.1904V44.1981H111.641V39.792Z" fill="#AAAAAA"></path><path id="Vector_9" d="M111.064 18.3384H98.4224V22.9019H111.064V18.3384Z" fill="#AAAAAA"></path><path id="Vector_10" d="M94.0162 9.84082H89.1904V35.3859H94.0162V9.84082Z" fill="#AAAAAA"></path><path id="Vector_11" d="M111.641 5.43447V1.02832H89.1904V5.43447H111.641Z" fill="#AAAAAA"></path><path id="Vector_12" d="M248.965 39.792H226.515V44.1981H248.965V39.792Z" fill="#AAAAAA"></path><path id="Vector_13" d="M248.441 18.3384H235.799V22.9019H248.441V18.3384Z" fill="#AAAAAA"></path><path id="Vector_14" d="M231.341 9.84082H226.515V35.3859H231.341V9.84082Z" fill="#AAAAAA"></path><path id="Vector_15" d="M248.965 5.43447V1.02832H226.515V5.43447H248.965Z" fill="#AAAAAA"></path><path id="Vector_16" d="M130.734 13.5126L151.244 39.1626V31.7142L130.734 6.01172V13.5126Z" fill="#AAAAAA"></path><path id="Vector_17" d="M126.643 1.02832H121.764V44.1455H126.643V1.02832Z" fill="#AAAAAA"></path><path id="Vector_18" d="M160.213 1.02832H155.387V44.3029H160.213V1.02832Z" fill="#AAAAAA"></path><path id="Vector_19" d="M214.66 1.02832H209.835V44.3029H214.66V1.02832Z" fill="#AAAAAA"></path><path id="Vector_20" d="M187.07 32.1335L189.535 38.7427L204.222 1.02832H199.082L187.07 32.1335Z" fill="#AAAAAA"></path><path id="Vector_21" d="M187.489 44.1456L170.757 0.871094H165.773L182.664 44.1456H187.489Z" fill="#AAAAAA"></path></g></svg>