<svg xmlns="http://www.w3.org/2000/svg" width="241" height="250" viewBox="0 0 241 250" fill="none"><path d="M32.5243 92.2449L21.213 99.3736V53.2228L52.1284 33.6243L32.5243 92.2449Z" fill="#0B0B0B"></path><path d="M21.213 99.5485C21.2417 99.5485 21.2672 99.5415 21.2928 99.524L32.6041 92.3954C32.636 92.3744 32.6615 92.3429 32.6743 92.3044L52.2784 33.6838C52.3007 33.6138 52.2816 33.5369 52.2305 33.4914C52.1795 33.4424 52.1061 33.4354 52.0486 33.4739L21.1332 53.0724C21.0854 53.1039 21.0535 53.1599 21.0535 53.2228V99.3736C21.0535 99.4366 21.0854 99.4925 21.1332 99.524C21.1587 99.538 21.1843 99.5485 21.213 99.5485ZM32.3967 92.1226L21.3725 99.0693V53.3243L51.8285 34.0196L32.3967 92.1295V92.1226Z" fill="#0B0B0B"></path><path opacity="0.5" d="M52.7828 220.487L93.998 245.518C95.4594 246.406 97.2367 246.385 98.6789 245.462L181.518 192.557C184.313 190.769 184.271 186.327 181.438 184.606L144.288 162.042L52.7828 220.487Z" fill="#0B0B0B"></path><path d="M150.252 211.634V71.1846C150.252 65.9728 147.722 61.1562 143.609 58.5433L78.5044 17.1531C74.3181 14.4912 69.1459 14.5262 64.9915 17.244L54.8001 23.904C51.1658 26.279 48.3867 29.9553 46.9317 34.3136L5.36546 158.809C2.05981 168.708 0.368713 179.167 0.368713 189.71V194.551C0.368713 195.708 0.927094 196.779 1.83966 197.366L76.9697 245.721C83.9128 250.097 92.4545 250.093 99.3944 245.703L148.931 214.156C149.751 213.635 150.255 212.673 150.255 211.634H150.252Z" fill="#D3C6F9"></path><path d="M88.1689 249.163C92.0776 249.163 95.9863 248.061 99.4738 245.857L149.011 214.31C149.875 213.757 150.415 212.736 150.415 211.638V71.1846C150.415 65.9308 147.84 61.0268 143.692 58.3929L78.5838 17.0027C74.3497 14.3128 69.1104 14.3478 64.9082 17.0936L54.7168 23.7536C51.0602 26.1426 48.2428 29.8713 46.7782 34.2542L5.21196 158.75C1.89037 168.698 0.205643 179.115 0.205643 189.71V194.551C0.205643 195.764 0.799118 196.901 1.75316 197.517L76.8831 245.871C80.3643 248.064 84.2634 249.163 88.1625 249.163H88.1689ZM71.8162 15.3587C74.0976 15.3587 76.3822 16.0058 78.4243 17.307L143.529 58.6937C147.578 61.2681 150.092 66.0532 150.092 71.1846V211.638C150.092 212.61 149.617 213.52 148.848 214.009L99.3111 245.556C92.4477 249.897 83.9156 249.901 77.0459 245.57L1.91589 197.216C1.05757 196.663 0.524719 195.642 0.524719 194.551V189.71C0.524719 179.157 2.20306 168.778 5.5119 158.869L47.0781 34.3731C48.5172 30.0672 51.2867 26.4015 54.8796 24.0544L65.0709 17.3945C67.1449 16.0373 69.4806 15.3587 71.8162 15.3587Z" fill="#0B0B0B"></path><path d="M62.5879 226.311L54.6524 221.215V217L62.5879 222.096V226.311Z" fill="#0B0B0B"></path><path d="M62.5875 226.486C62.6162 226.486 62.6418 226.479 62.6673 226.462C62.7184 226.43 62.7471 226.374 62.7471 226.311V222.1C62.7471 222.037 62.7184 221.981 62.6673 221.949L54.7318 216.853C54.6808 216.821 54.6202 216.821 54.5723 216.853C54.5213 216.884 54.4925 216.94 54.4925 217.003V221.215C54.4925 221.278 54.5213 221.334 54.5723 221.365L62.5078 226.462C62.5333 226.479 62.562 226.486 62.5875 226.486ZM62.428 222.198V226.007L54.8116 221.113V217.304L62.428 222.198Z" fill="#0B0B0B"></path><path d="M73.8604 232.985L65.9249 227.889V223.674L73.8604 228.773V232.985Z" fill="#0B0B0B"></path><path d="M73.86 233.16C73.8887 233.16 73.9142 233.153 73.9398 233.135C73.9908 233.104 74.0195 233.048 74.0195 232.985V228.774C74.0195 228.711 73.9908 228.655 73.9398 228.623L66.0043 223.527C65.9533 223.495 65.8926 223.495 65.8448 223.527C65.7937 223.558 65.765 223.614 65.765 223.677V227.889C65.765 227.952 65.7937 228.008 65.8448 228.039L73.7802 233.135C73.8057 233.153 73.8345 233.16 73.86 233.16ZM73.7005 228.872V232.681L66.0841 227.787V223.978L73.7005 228.872Z" fill="#0B0B0B"></path><path d="M62.1919 223.593L55.938 219.574V217.877L62.1919 221.893V223.593Z" fill="white"></path><path d="M62.1915 223.768C62.2203 223.768 62.2458 223.761 62.2713 223.744C62.3224 223.712 62.3511 223.656 62.3511 223.593V221.893C62.3511 221.83 62.3224 221.774 62.2713 221.743L56.0174 217.724C55.9663 217.692 55.9057 217.692 55.8578 217.724C55.8068 217.755 55.7781 217.811 55.7781 217.874V219.574C55.7781 219.637 55.8068 219.693 55.8578 219.725L62.1118 223.744C62.1373 223.761 62.166 223.768 62.1915 223.768ZM62.032 221.995V223.289L56.0972 219.476V218.182L62.032 221.995Z" fill="#0B0B0B"></path><path d="M51.582 219.56L43.6466 214.46V210.249L51.582 215.345V219.56Z" fill="#0B0B0B"></path><path d="M51.5817 219.735C51.6104 219.735 51.6359 219.728 51.6614 219.711C51.7125 219.679 51.7412 219.623 51.7412 219.56V215.349C51.7412 215.286 51.7125 215.23 51.6614 215.199L43.726 210.102C43.6749 210.071 43.6143 210.071 43.5664 210.102C43.5154 210.134 43.4867 210.19 43.4867 210.253V214.464C43.4867 214.527 43.5154 214.583 43.5664 214.614L51.5019 219.711C51.5274 219.728 51.5561 219.735 51.5817 219.735ZM51.4221 215.447V219.256L43.8058 214.363V210.553L51.4221 215.447Z" fill="#0B0B0B"></path><path d="M51.1846 216.842L44.9306 212.823V211.127L51.1846 215.142V216.842Z" fill="white"></path><path d="M51.1842 217.017C51.2129 217.017 51.2385 217.01 51.264 216.993C51.315 216.961 51.3438 216.905 51.3438 216.842V215.143C51.3438 215.08 51.315 215.024 51.264 214.992L45.0101 210.973C44.959 210.942 44.8984 210.942 44.8505 210.973C44.7995 211.005 44.7708 211.061 44.7708 211.123V212.823C44.7708 212.886 44.7995 212.942 44.8505 212.974L51.1044 216.993C51.13 217.01 51.1587 217.017 51.1842 217.017ZM51.0247 215.244V216.538L45.0898 212.726V211.431L51.0247 215.244Z" fill="#0B0B0B"></path><path d="M92.3613 211.05L133.924 86.5573C135.379 82.199 138.158 78.5262 141.793 76.1477L150.102 70.719V211.574C150.102 212.582 149.613 213.516 148.816 214.023L99.7543 245.266C96.3976 247.389 92.6676 248.484 88.9216 248.55L87.3582 248.533V241.953C87.3582 231.411 89.0525 220.952 92.3581 211.05H92.3613Z" fill="#F2EFFF"></path><path d="M88.9213 248.725C92.7534 248.655 96.5249 247.512 99.8369 245.416L148.898 214.173C149.741 213.638 150.261 212.641 150.261 211.575V70.4114L141.713 76.001C138.056 78.3935 135.239 82.1222 133.777 86.5015L92.211 210.994C88.8862 220.949 87.2015 231.365 87.2015 241.957V248.708L88.9213 248.725ZM149.942 71.027V211.575C149.942 212.515 149.479 213.397 148.736 213.869L99.6742 245.112C96.41 247.179 92.6896 248.306 88.9181 248.372L87.5173 248.358V241.953C87.5173 231.404 89.1957 221.026 92.5077 211.109L134.074 86.6205C135.51 82.3181 138.279 78.6523 141.875 76.3018L149.942 71.0305V71.027Z" fill="#0B0B0B"></path><path d="M91.8958 248.446H92.2148V244.497C92.2148 233.947 93.8932 223.569 97.2052 213.652L138.768 89.16C140.204 84.8576 142.974 81.1919 146.57 78.8413L150.182 76.4803L150.019 76.1794L146.407 78.5405C142.75 80.933 139.933 84.6618 138.471 89.0411L96.9053 213.533C93.5805 223.488 91.8958 233.905 91.8958 244.497V248.446Z" fill="#0B0B0B"></path><path d="M94.9424 247.966H95.2615V244.44C95.2615 234.066 96.9111 223.859 100.169 214.107L141.043 91.6783C142.453 87.4459 145.178 83.8431 148.713 81.531L148.551 81.2302C144.955 83.5843 142.182 87.25 140.746 91.5594L99.869 213.988C96.6016 223.779 94.9424 234.024 94.9424 244.44V247.966Z" fill="#0B0B0B"></path><path d="M86.4931 201.48L123.015 92.5356C123.838 90.0835 122.932 87.3342 120.871 86.026L56.0914 44.8737C53.4527 43.1982 50.0768 44.5379 49.0239 47.672L12.5182 156.627C11.695 159.079 12.6012 161.825 14.6656 163.136L79.4256 204.282C82.0643 205.957 85.4402 204.621 86.4931 201.483V201.48Z" fill="#8B75F3"></path><path d="M81.8854 205.181C82.4661 205.181 83.0468 205.072 83.6084 204.848C85.0187 204.289 86.1259 203.085 86.6428 201.539L123.164 92.595C124.016 90.0555 123.085 87.2293 120.95 85.8721L56.1709 44.7197C54.8723 43.8942 53.3184 43.7438 51.908 44.3C50.4977 44.8597 49.3905 46.0664 48.8736 47.609L12.3679 156.564C11.516 159.103 12.4477 161.93 14.5823 163.283L79.3423 204.429C80.1241 204.925 81.0015 205.177 81.8822 205.177L81.8854 205.181ZM86.3429 201.42C85.8579 202.869 84.8209 203.998 83.4999 204.52C82.1789 205.044 80.7239 204.901 79.505 204.128L14.7451 162.982C12.7445 161.713 11.8734 159.065 12.6679 156.686L49.1735 47.7314C49.6585 46.2833 50.6955 45.1535 52.0165 44.6323C53.3375 44.1076 54.7957 44.251 56.0114 45.0241L120.79 86.1764C122.791 87.4461 123.662 90.0975 122.868 92.476L86.3461 201.42H86.3429Z" fill="#8B75F3"></path><path style="mix-blend-mode:screen" d="M46.9728 53.5305L120.625 100.045L108.8 135.37L34.7011 89.7124L46.9728 53.5305Z" fill="url(#paint0_linear_4501_21852)"></path><path d="M30.4944 49.1163L24.3681 49.0323C24.3681 49.0323 46.9237 34.6037 49.7156 32.8477C52.5075 31.0918 55.8323 31.1058 58.6147 32.8862L124.475 75.0739C124.517 75.1019 124.562 75.1299 124.603 75.1579C131.106 79.3798 133.856 88.1559 131.243 95.9282L111.607 154.3L111.24 117.342C111.135 106.74 105.937 96.981 97.5644 91.6713L30.4975 49.1163H30.4944Z" fill="#BAB1EB"></path><path d="M111.458 155.256L131.394 95.9913C134.055 88.0827 131.234 79.2611 124.687 75.0111L124.559 74.9272L58.6982 32.736C55.868 30.9241 52.4826 30.9101 49.6396 32.6975C46.8796 34.4325 24.5154 48.7387 24.2889 48.8821L23.7911 49.2004L30.4503 49.2914L97.4821 91.8219C105.762 97.0757 110.973 106.856 111.078 117.346L111.454 155.256H111.458ZM54.1386 31.7181C55.651 31.7181 57.1602 32.1588 58.5355 33.0403L124.524 75.312C130.937 79.4744 133.701 88.1211 131.094 95.8724L111.758 153.356L111.4 117.346C111.295 106.733 106.024 96.8413 97.6448 91.5246L30.5396 48.9486L24.9494 48.8751C28.2837 46.7414 47.272 34.6004 49.7991 33.0088C51.1584 32.1518 52.6485 31.7251 54.1386 31.7251V31.7181Z" fill="#0B0B0B"></path><g style="mix-blend-mode:multiply"><path d="M104.821 98.3594C104.936 98.4994 105.044 98.6428 105.146 98.7862C108.966 103.967 111.167 110.476 111.234 117.342L111.604 154.304L126.745 109.297L131.24 95.9319C132.81 91.2658 132.447 86.2428 130.5 82.0559C130.168 82.2098 108.535 95.9809 104.821 98.3594Z" fill="#CDD9E2"></path></g><path d="M110.642 154.979C111.235 154.979 111.717 154.451 111.717 153.8V115.964C111.717 105.89 106.787 96.4703 98.8516 91.3879L32.9908 49.2002C30.2116 47.4198 26.8837 47.4058 24.0917 49.1617C21.2998 50.9176 19.631 54.0727 19.631 57.602V98.3067C19.631 98.9573 20.1128 99.4854 20.7063 99.4854C21.2998 99.4854 21.7816 98.9573 21.7816 98.3067V57.6055C21.7816 54.9297 23.0452 52.5371 25.1606 51.2045C27.2761 49.8718 29.8 49.8823 31.9059 51.2324L97.7667 93.4201C105.045 98.0828 109.566 106.719 109.566 115.964V153.8C109.566 154.451 110.048 154.979 110.642 154.979Z" fill="#D7FF65"></path><path d="M110.641 155.154C111.321 155.154 111.876 154.549 111.876 153.8V115.964C111.876 105.827 106.918 96.3515 98.931 91.2377L33.0702 49.05C30.24 47.2381 26.8546 47.2241 24.0116 49.0115C21.1686 50.7989 19.4711 54.0134 19.4711 57.6057V98.3103C19.4711 99.0554 20.0231 99.664 20.706 99.664C21.3888 99.664 21.9408 99.0589 21.9408 98.3103V57.6057C21.9408 54.9928 23.1756 52.6597 25.2401 51.3585C27.3077 50.0573 29.7678 50.0678 31.8258 51.3865L97.6866 93.5742C104.917 98.2054 109.41 106.786 109.41 115.964V153.8C109.41 154.545 109.962 155.154 110.644 155.154H110.641ZM28.5106 48.0321C30.023 48.0321 31.5323 48.4728 32.9075 49.3543L98.7683 91.542C106.656 96.5929 111.554 105.953 111.554 115.968V153.804C111.554 154.357 111.142 154.808 110.638 154.808C110.134 154.808 109.722 154.357 109.722 153.804V115.968C109.722 106.663 105.169 97.9675 97.8429 93.2734L31.9822 51.0857C29.8252 49.7041 27.2439 49.6936 25.0773 51.0542C22.9108 52.4184 21.6153 54.8669 21.6153 57.6057V98.3103C21.6153 98.863 21.2037 99.3142 20.6996 99.3142C20.1954 99.3142 19.7838 98.863 19.7838 98.3103V57.6057C19.7838 54.1393 21.4207 51.0402 24.1616 49.3158C25.5208 48.4588 27.0109 48.0321 28.501 48.0321H28.5106Z" fill="#0B0B0B"></path><path d="M24.2199 202.081L8.00118 191.721C7.06628 191.122 6.49193 190.024 6.49193 188.838C6.49193 187.25 8.0618 186.264 9.31258 187.061L25.5313 197.422C26.4662 198.02 27.0405 199.119 27.0405 200.304C27.0405 201.892 25.4707 202.879 24.2199 202.081Z" fill="#F2EFFF"></path><path d="M25.164 202.539C25.5118 202.539 25.8596 202.438 26.1787 202.239C26.8168 201.836 27.1997 201.112 27.1997 200.304C27.1997 199.059 26.5903 197.898 25.6107 197.272L9.39199 186.911C8.75383 186.505 7.99123 186.502 7.35308 186.904C6.71492 187.306 6.33203 188.03 6.33203 188.838C6.33203 190.084 6.94148 191.245 7.92105 191.871L24.1398 202.232C24.4588 202.438 24.813 202.539 25.164 202.539ZM8.36457 186.953C8.66131 186.953 8.95804 187.04 9.22926 187.212L25.448 197.572C26.3318 198.136 26.8806 199.185 26.8806 200.304C26.8806 200.986 26.5584 201.595 26.0191 201.934C25.4799 202.274 24.8385 202.27 24.2993 201.927L8.08059 191.567C7.19674 191.004 6.64793 189.958 6.64793 188.835C6.64793 188.153 6.97018 187.544 7.50942 187.205C7.77745 187.037 8.07102 186.953 8.36457 186.953Z" fill="#0B0B0B"></path><path d="M7.34032 187.121C7.15526 187.436 7.04358 187.81 7.04358 188.233C7.04358 189.419 7.61792 190.518 8.55282 191.116L24.7715 201.476C25.432 201.9 26.1787 201.819 26.7402 201.417C26.2265 202.288 25.1385 202.669 24.2195 202.081L8.00082 191.721C7.06592 191.123 6.49157 190.024 6.49157 188.839C6.49157 188.09 6.84257 187.478 7.34352 187.121H7.34032Z" fill="#D7FF65"></path><path d="M25.1604 202.536C25.8304 202.536 26.4845 202.172 26.8738 201.511L27.2822 200.819L26.6536 201.27C26.1048 201.662 25.4156 201.683 24.8509 201.326L8.63214 190.965C7.7483 190.402 7.19949 189.356 7.19949 188.233C7.19949 187.866 7.29202 187.523 7.4707 187.219L7.87593 186.53L7.24736 186.978C6.66026 187.397 6.32522 188.076 6.32522 188.842C6.32522 190.087 6.93465 191.248 7.91422 191.875L24.1329 202.235C24.4552 202.442 24.8062 202.54 25.1572 202.54L25.1604 202.536ZM26.0729 201.892C25.5784 202.235 24.9147 202.323 24.2989 201.931L8.08015 191.57C7.1963 191.007 6.64749 189.961 6.64749 188.838C6.64749 188.468 6.74002 188.121 6.91551 187.824C6.89317 187.957 6.88041 188.093 6.88041 188.23C6.88041 189.475 7.48985 190.636 8.46941 191.262L24.6881 201.623C25.1157 201.896 25.6039 201.983 26.0697 201.889L26.0729 201.892Z" fill="#0B0B0B"></path><path d="M8.22625 193.476L10.1471 192.304C10.8555 191.874 10.8937 190.465 10.2301 189.156C9.59191 187.897 8.53895 187.191 7.8274 187.526C7.80826 187.537 5.82041 188.733 5.82041 188.733L8.22308 193.476H8.22625Z" fill="#F185BC"></path><path d="M8.16266 193.714L10.2239 192.459C11.0216 191.972 11.0854 190.486 10.3675 189.073C9.68465 187.722 8.5647 186.988 7.76381 187.366C7.75424 187.369 7.73828 187.38 5.74405 188.579L5.60365 188.663L8.15947 193.714H8.16266ZM8.21051 187.614C8.81357 187.614 9.5985 188.265 10.0899 189.241C10.6961 190.44 10.6866 191.773 10.0675 192.151L8.28391 193.239L6.03759 188.803C6.64703 188.436 7.84996 187.708 7.89782 187.684C7.99354 187.638 8.09564 187.617 8.20732 187.617L8.21051 187.614Z" fill="#0B0B0B"></path><path d="M8.20081 193.49C8.90917 193.06 8.94746 191.65 8.28378 190.342C7.6201 189.034 6.5097 188.324 5.80135 188.754C5.09299 189.184 5.0547 190.594 5.71838 191.902C6.38206 193.21 7.49246 193.92 8.20081 193.49Z" fill="#F1A9CE"></path><path d="M7.73514 193.795C7.92978 193.795 8.11166 193.746 8.28077 193.644C8.67323 193.406 8.89978 192.91 8.91892 192.252C8.93488 191.626 8.75937 190.919 8.42753 190.258C7.7128 188.845 6.52584 188.118 5.72815 188.6C4.93045 189.086 4.86663 190.573 5.58456 191.986C6.14933 193.106 7.01084 193.791 7.73833 193.791L7.73514 193.795ZM8.12442 193.34C7.50541 193.718 6.4684 193.022 5.85896 191.822C5.24952 190.622 5.26229 189.289 5.8813 188.912C6.50031 188.534 7.5373 189.23 8.14674 190.43C8.45306 191.035 8.61261 191.678 8.59984 192.242C8.58708 192.773 8.41796 193.161 8.1276 193.34H8.12442Z" fill="#0B0B0B"></path><path d="M25.999 200.899C26.4297 200.637 26.4521 199.783 26.05 198.989C25.648 198.195 24.9747 197.765 24.544 198.027C24.1132 198.29 24.0909 199.143 24.4929 199.937C24.895 200.731 25.5682 201.161 25.999 200.903V200.899Z" fill="#F1A9CE"></path><path d="M25.7183 201.151C25.8459 201.151 25.9671 201.119 26.0756 201.053C26.5893 200.738 26.6404 199.797 26.1873 198.905C25.9799 198.492 25.6959 198.16 25.3864 197.961C25.0514 197.747 24.7227 197.716 24.4643 197.873C24.2058 198.031 24.0559 198.353 24.0463 198.776C24.0367 199.168 24.1452 199.608 24.3526 200.021C24.56 200.43 24.844 200.766 25.1535 200.965C25.3481 201.091 25.5396 201.154 25.7183 201.154V201.151ZM24.8248 198.122C24.9461 198.122 25.0833 198.167 25.2269 198.262C25.4853 198.429 25.731 198.716 25.9097 199.073C26.2607 199.769 26.2671 200.535 25.9225 200.745C25.7661 200.839 25.5523 200.812 25.3162 200.661C25.0546 200.493 24.8121 200.206 24.6334 199.85C24.4515 199.493 24.359 199.115 24.3654 198.786C24.3717 198.489 24.4643 198.276 24.6206 198.178C24.6813 198.139 24.7483 198.122 24.8248 198.122Z" fill="#0B0B0B"></path><path d="M130.006 183.028C130.242 183.193 130.23 183.679 129.978 184.109C129.725 184.543 129.33 184.756 129.094 184.592C128.858 184.427 128.87 183.941 129.122 183.511C129.374 183.077 129.77 182.864 130.006 183.028Z" fill="#0B0B0B"></path><path d="M130.013 188.107C130.249 188.272 130.236 188.758 129.984 189.188C129.732 189.622 129.336 189.835 129.1 189.671C128.864 189.507 128.877 189.02 129.129 188.59C129.381 188.156 129.776 187.943 130.013 188.107Z" fill="#0B0B0B"></path><path d="M130.019 193.186C130.255 193.351 130.242 193.837 129.99 194.267C129.738 194.701 129.343 194.914 129.106 194.75C128.87 194.585 128.883 194.099 129.135 193.669C129.387 193.235 129.783 193.022 130.019 193.186Z" fill="#0B0B0B"></path><path d="M130.028 198.269C130.264 198.433 130.252 198.919 130 199.35C129.747 199.783 129.352 199.997 129.116 199.832C128.88 199.668 128.892 199.182 129.144 198.751C129.396 198.318 129.792 198.104 130.028 198.269Z" fill="#0B0B0B"></path><path d="M130.034 203.347C130.27 203.512 130.257 203.998 130.005 204.428C129.753 204.862 129.358 205.075 129.122 204.911C128.885 204.747 128.898 204.26 129.15 203.83C129.402 203.4 129.798 203.183 130.034 203.347Z" fill="#0B0B0B"></path><path d="M130.044 208.43C130.28 208.594 130.268 209.08 130.016 209.511C129.764 209.944 129.368 210.158 129.132 209.993C128.896 209.829 128.908 209.343 129.16 208.912C129.413 208.479 129.808 208.265 130.044 208.43Z" fill="#0B0B0B"></path><path d="M130.05 213.509C130.286 213.673 130.274 214.159 130.021 214.59C129.769 215.023 129.374 215.237 129.138 215.072C128.902 214.908 128.914 214.422 129.166 213.991C129.418 213.558 129.814 213.344 130.05 213.509Z" fill="#0B0B0B"></path><path d="M130.06 218.588C130.297 218.752 130.284 219.238 130.032 219.668C129.78 220.102 129.384 220.316 129.148 220.151C128.912 219.987 128.925 219.501 129.177 219.07C129.429 218.637 129.824 218.423 130.06 218.588Z" fill="#0B0B0B"></path><path d="M130.006 142.254C130.242 142.418 130.23 142.904 129.978 143.334C129.725 143.768 129.33 143.982 129.094 143.817C128.858 143.653 128.87 143.167 129.122 142.736C129.374 142.303 129.77 142.089 130.006 142.254Z" fill="#0B0B0B"></path><path d="M130.013 147.333C130.249 147.497 130.236 147.983 129.984 148.414C129.732 148.847 129.336 149.061 129.1 148.896C128.864 148.732 128.877 148.246 129.129 147.815C129.381 147.382 129.776 147.168 130.013 147.333Z" fill="#0B0B0B"></path><path d="M130.019 152.415C130.255 152.58 130.242 153.066 129.99 153.496C129.738 153.93 129.343 154.143 129.106 153.979C128.87 153.814 128.883 153.328 129.135 152.898C129.387 152.464 129.783 152.251 130.019 152.415Z" fill="#0B0B0B"></path><path d="M130.028 157.494C130.264 157.659 130.252 158.145 130 158.575C129.747 159.009 129.352 159.222 129.116 159.058C128.88 158.893 128.892 158.407 129.144 157.977C129.396 157.543 129.792 157.33 130.028 157.494Z" fill="#0B0B0B"></path><path d="M130.034 162.577C130.27 162.741 130.257 163.227 130.005 163.657C129.753 164.091 129.358 164.305 129.122 164.14C128.885 163.976 128.898 163.49 129.15 163.059C129.402 162.626 129.798 162.412 130.034 162.577Z" fill="#0B0B0B"></path><path d="M130.044 167.655C130.28 167.82 130.268 168.306 130.016 168.736C129.764 169.17 129.368 169.383 129.132 169.219C128.896 169.054 128.908 168.568 129.16 168.138C129.413 167.704 129.808 167.491 130.044 167.655Z" fill="#0B0B0B"></path><path d="M130.05 172.734C130.286 172.899 130.274 173.385 130.021 173.815C129.769 174.245 129.374 174.462 129.138 174.298C128.902 174.133 128.914 173.647 129.166 173.217C129.418 172.783 129.814 172.57 130.05 172.734Z" fill="#0B0B0B"></path><path d="M130.06 177.817C130.297 177.981 130.284 178.467 130.032 178.897C129.78 179.331 129.384 179.545 129.148 179.38C128.912 179.216 128.925 178.73 129.177 178.299C129.429 177.866 129.824 177.652 130.06 177.817Z" fill="#0B0B0B"></path><path d="M144.649 136.112C144.885 136.276 144.872 136.762 144.62 137.192C144.368 137.623 143.972 137.84 143.736 137.675C143.5 137.511 143.513 137.025 143.765 136.594C144.017 136.164 144.413 135.947 144.649 136.112Z" fill="#0B0B0B"></path><path d="M144.655 141.194C144.891 141.359 144.878 141.845 144.626 142.275C144.374 142.705 143.978 142.922 143.742 142.758C143.506 142.593 143.519 142.107 143.771 141.677C144.023 141.247 144.419 141.03 144.655 141.194Z" fill="#0B0B0B"></path><path d="M144.664 146.273C144.9 146.437 144.887 146.923 144.635 147.354C144.383 147.787 143.988 148.001 143.751 147.836C143.515 147.672 143.528 147.186 143.78 146.755C144.032 146.322 144.428 146.108 144.664 146.273Z" fill="#0B0B0B"></path><path d="M144.671 151.355C144.907 151.52 144.895 152.006 144.643 152.436C144.391 152.866 143.995 153.083 143.759 152.919C143.523 152.754 143.535 152.268 143.787 151.838C144.04 151.404 144.435 151.191 144.671 151.355Z" fill="#0B0B0B"></path><path d="M144.68 156.434C144.916 156.599 144.903 157.085 144.651 157.515C144.399 157.949 144.004 158.162 143.768 157.998C143.531 157.833 143.544 157.347 143.796 156.917C144.048 156.483 144.444 156.27 144.68 156.434Z" fill="#0B0B0B"></path><path d="M144.686 161.513C144.923 161.678 144.91 162.164 144.658 162.594C144.406 163.028 144.01 163.241 143.774 163.077C143.538 162.912 143.551 162.426 143.803 161.996C144.055 161.562 144.45 161.349 144.686 161.513Z" fill="#0B0B0B"></path><path d="M144.649 95.3406C144.885 95.505 144.872 95.9912 144.62 96.4215C144.368 96.8552 143.972 97.0686 143.736 96.9042C143.5 96.7398 143.513 96.2536 143.765 95.8233C144.017 95.3931 144.413 95.1762 144.649 95.3406Z" fill="#0B0B0B"></path><path d="M144.655 100.419C144.891 100.584 144.878 101.07 144.626 101.5C144.374 101.931 143.978 102.147 143.742 101.983C143.506 101.819 143.519 101.332 143.771 100.902C144.023 100.472 144.419 100.255 144.655 100.419Z" fill="#0B0B0B"></path><path d="M144.664 105.502C144.9 105.666 144.887 106.152 144.635 106.583C144.383 107.013 143.988 107.23 143.751 107.065C143.515 106.901 143.528 106.415 143.78 105.984C144.032 105.551 144.428 105.337 144.664 105.502Z" fill="#0B0B0B"></path><path d="M144.671 110.581C144.907 110.745 144.895 111.231 144.643 111.661C144.391 112.095 143.995 112.308 143.759 112.144C143.523 111.98 143.535 111.493 143.787 111.063C144.04 110.63 144.435 110.416 144.671 110.581Z" fill="#0B0B0B"></path><path d="M144.68 115.66C144.916 115.824 144.903 116.31 144.651 116.74C144.399 117.174 144.004 117.388 143.768 117.223C143.531 117.059 143.544 116.573 143.796 116.142C144.048 115.709 144.444 115.495 144.68 115.66Z" fill="#0B0B0B"></path><path d="M144.686 120.742C144.923 120.906 144.91 121.393 144.658 121.823C144.406 122.257 144.01 122.47 143.774 122.306C143.538 122.141 143.551 121.655 143.803 121.225C144.055 120.794 144.45 120.578 144.686 120.742Z" fill="#0B0B0B"></path><path d="M144.696 125.821C144.932 125.985 144.92 126.471 144.667 126.902C144.415 127.335 144.02 127.549 143.784 127.384C143.548 127.22 143.56 126.734 143.812 126.304C144.064 125.873 144.46 125.656 144.696 125.821Z" fill="#0B0B0B"></path><path d="M144.703 130.904C144.939 131.068 144.926 131.554 144.674 131.984C144.422 132.418 144.026 132.631 143.79 132.467C143.554 132.303 143.567 131.816 143.819 131.386C144.071 130.953 144.466 130.739 144.703 130.904Z" fill="#0B0B0B"></path><path d="M113.328 187.093C113.564 187.257 113.551 187.744 113.299 188.174C113.047 188.608 112.652 188.821 112.415 188.657C112.179 188.492 112.192 188.006 112.444 187.576C112.696 187.142 113.092 186.929 113.328 187.093Z" fill="#0B0B0B"></path><path d="M113.334 192.172C113.57 192.336 113.557 192.823 113.305 193.253C113.053 193.687 112.657 193.9 112.421 193.736C112.185 193.571 112.198 193.085 112.45 192.655C112.702 192.221 113.098 192.008 113.334 192.172Z" fill="#0B0B0B"></path><path d="M113.344 197.254C113.58 197.419 113.567 197.905 113.315 198.335C113.063 198.769 112.668 198.982 112.432 198.818C112.195 198.653 112.208 198.167 112.46 197.737C112.712 197.303 113.108 197.09 113.344 197.254Z" fill="#0B0B0B"></path><path d="M113.35 202.333C113.587 202.497 113.574 202.984 113.322 203.414C113.07 203.848 112.674 204.061 112.438 203.897C112.202 203.732 112.215 203.246 112.467 202.816C112.719 202.382 113.114 202.169 113.35 202.333Z" fill="#0B0B0B"></path><path d="M113.359 207.416C113.595 207.58 113.583 208.066 113.331 208.496C113.078 208.927 112.683 209.143 112.447 208.979C112.211 208.815 112.223 208.328 112.475 207.898C112.728 207.464 113.123 207.251 113.359 207.416Z" fill="#0B0B0B"></path><path d="M113.366 212.494C113.602 212.659 113.589 213.145 113.337 213.575C113.085 214.009 112.689 214.222 112.453 214.058C112.217 213.894 112.23 213.407 112.482 212.977C112.734 212.543 113.13 212.33 113.366 212.494Z" fill="#0B0B0B"></path><path d="M113.375 217.573C113.612 217.738 113.599 218.224 113.347 218.654C113.095 219.088 112.699 219.301 112.463 219.137C112.227 218.973 112.239 218.486 112.492 218.056C112.744 217.622 113.139 217.409 113.375 217.573Z" fill="#0B0B0B"></path><path d="M113.382 222.656C113.618 222.82 113.605 223.307 113.353 223.737C113.101 224.171 112.705 224.384 112.469 224.22C112.233 224.055 112.246 223.569 112.498 223.139C112.75 222.705 113.146 222.492 113.382 222.656Z" fill="#0B0B0B"></path><path d="M109.837 195.886C110.073 196.051 110.061 196.537 109.809 196.967C109.557 197.398 109.161 197.614 108.925 197.45C108.689 197.286 108.701 196.799 108.953 196.369C109.206 195.935 109.601 195.722 109.837 195.886Z" fill="#0B0B0B"></path><path d="M109.844 200.965C110.08 201.13 110.067 201.616 109.815 202.046C109.563 202.48 109.167 202.693 108.931 202.529C108.695 202.364 108.708 201.878 108.96 201.448C109.212 201.014 109.608 200.801 109.844 200.965Z" fill="#0B0B0B"></path><path d="M109.85 206.048C110.086 206.212 110.073 206.698 109.821 207.129C109.569 207.562 109.173 207.776 108.937 207.611C108.701 207.447 108.714 206.961 108.966 206.531C109.218 206.097 109.613 205.883 109.85 206.048Z" fill="#0B0B0B"></path><path d="M109.86 211.127C110.096 211.291 110.083 211.777 109.831 212.208C109.579 212.641 109.183 212.855 108.947 212.69C108.711 212.526 108.724 212.04 108.976 211.609C109.228 211.176 109.624 210.962 109.86 211.127Z" fill="#0B0B0B"></path><path d="M109.866 216.209C110.102 216.374 110.089 216.86 109.837 217.29C109.585 217.724 109.19 217.937 108.954 217.773C108.717 217.608 108.73 217.122 108.982 216.692C109.234 216.258 109.63 216.045 109.866 216.209Z" fill="#0B0B0B"></path><path d="M106.771 209.217C107.007 209.381 106.994 209.868 106.742 210.298C106.49 210.732 106.094 210.945 105.858 210.781C105.622 210.616 105.635 210.13 105.887 209.7C106.139 209.266 106.535 209.053 106.771 209.217Z" fill="#0B0B0B"></path><path d="M106.771 204.061C107.007 204.226 106.994 204.712 106.742 205.142C106.49 205.576 106.094 205.789 105.858 205.625C105.622 205.46 105.635 204.974 105.887 204.544C106.139 204.11 106.535 203.897 106.771 204.061Z" fill="#0B0B0B"></path><path d="M106.777 214.296C107.013 214.46 107.001 214.947 106.749 215.377C106.496 215.811 106.101 216.024 105.865 215.86C105.629 215.695 105.641 215.209 105.893 214.779C106.145 214.348 106.541 214.132 106.777 214.296Z" fill="#0B0B0B"></path><path d="M106.787 219.378C107.023 219.543 107.01 220.029 106.758 220.459C106.506 220.893 106.111 221.106 105.874 220.942C105.638 220.777 105.651 220.291 105.903 219.861C106.155 219.427 106.551 219.214 106.787 219.378Z" fill="#0B0B0B"></path><path d="M106.793 224.457C107.029 224.621 107.017 225.107 106.765 225.538C106.513 225.971 106.117 226.185 105.881 226.02C105.645 225.856 105.657 225.37 105.91 224.939C106.162 224.506 106.557 224.292 106.793 224.457Z" fill="#0B0B0B"></path><path d="M106.802 229.536C107.038 229.701 107.026 230.187 106.773 230.617C106.521 231.051 106.126 231.264 105.89 231.1C105.653 230.935 105.666 230.449 105.918 230.019C106.17 229.585 106.566 229.372 106.802 229.536Z" fill="#0B0B0B"></path><path d="M103.66 227.801C103.896 227.966 103.883 228.452 103.631 228.882C103.379 229.316 102.983 229.529 102.747 229.365C102.511 229.2 102.524 228.714 102.776 228.284C103.028 227.85 103.423 227.637 103.66 227.801Z" fill="#0B0B0B"></path><path d="M103.666 232.883C103.902 233.048 103.889 233.534 103.637 233.964C103.385 234.398 102.989 234.611 102.753 234.447C102.517 234.282 102.53 233.796 102.782 233.366C103.034 232.932 103.43 232.719 103.666 232.883Z" fill="#0B0B0B"></path><path d="M103.672 237.962C103.908 238.127 103.896 238.613 103.644 239.043C103.391 239.473 102.996 239.69 102.76 239.526C102.524 239.362 102.536 238.875 102.788 238.445C103.04 238.011 103.436 237.798 103.672 237.962Z" fill="#0B0B0B"></path><path d="M122.706 181.745C122.942 181.909 122.929 182.395 122.677 182.825C122.425 183.259 122.03 183.473 121.793 183.308C121.557 183.144 121.57 182.658 121.822 182.227C122.074 181.794 122.47 181.58 122.706 181.745Z" fill="#0B0B0B"></path><path d="M122.712 186.827C122.948 186.992 122.935 187.478 122.683 187.908C122.431 188.342 122.035 188.555 121.799 188.391C121.563 188.226 121.576 187.74 121.828 187.31C122.08 186.876 122.476 186.663 122.712 186.827Z" fill="#0B0B0B"></path><path d="M122.718 191.906C122.954 192.07 122.942 192.557 122.689 192.987C122.437 193.421 122.042 193.634 121.806 193.47C121.569 193.305 121.582 192.819 121.834 192.389C122.086 191.955 122.482 191.742 122.718 191.906Z" fill="#0B0B0B"></path><path d="M122.727 196.985C122.964 197.149 122.951 197.636 122.699 198.066C122.447 198.5 122.051 198.713 121.815 198.549C121.579 198.384 121.592 197.898 121.844 197.468C122.096 197.034 122.491 196.821 122.727 196.985Z" fill="#0B0B0B"></path><path d="M122.706 155.228C122.942 155.392 122.929 155.878 122.677 156.308C122.425 156.742 122.03 156.955 121.793 156.791C121.557 156.627 121.57 156.14 121.822 155.71C122.074 155.276 122.47 155.063 122.706 155.228Z" fill="#0B0B0B"></path><path d="M122.718 165.389C122.954 165.554 122.942 166.04 122.689 166.47C122.437 166.904 122.042 167.117 121.806 166.953C121.569 166.788 121.582 166.302 121.834 165.872C122.086 165.438 122.482 165.225 122.718 165.389Z" fill="#0B0B0B"></path><path d="M122.727 170.468C122.964 170.632 122.951 171.118 122.699 171.549C122.447 171.982 122.051 172.196 121.815 172.031C121.579 171.867 121.592 171.381 121.844 170.95C122.096 170.517 122.491 170.303 122.727 170.468Z" fill="#0B0B0B"></path><path d="M122.734 202.067C122.97 202.232 122.957 202.718 122.705 203.148C122.453 203.582 122.057 203.795 121.821 203.631C121.585 203.467 121.598 202.98 121.85 202.55C122.102 202.116 122.498 201.903 122.734 202.067Z" fill="#0B0B0B"></path><path d="M122.744 207.146C122.98 207.31 122.967 207.797 122.715 208.227C122.463 208.661 122.067 208.874 121.831 208.71C121.595 208.545 121.608 208.059 121.86 207.629C122.112 207.195 122.507 206.982 122.744 207.146Z" fill="#0B0B0B"></path><path d="M122.75 212.228C122.986 212.393 122.973 212.879 122.721 213.309C122.469 213.743 122.073 213.956 121.837 213.792C121.601 213.628 121.614 213.141 121.866 212.711C122.118 212.277 122.514 212.064 122.75 212.228Z" fill="#0B0B0B"></path><path d="M122.76 217.308C122.996 217.472 122.983 217.958 122.731 218.388C122.479 218.822 122.083 219.036 121.847 218.871C121.611 218.707 121.624 218.221 121.876 217.79C122.128 217.357 122.524 217.143 122.76 217.308Z" fill="#0B0B0B"></path><path d="M116.726 178.25C116.962 178.415 116.949 178.901 116.697 179.331C116.445 179.765 116.05 179.978 115.813 179.814C115.577 179.65 115.59 179.163 115.842 178.733C116.094 178.299 116.49 178.086 116.726 178.25Z" fill="#0B0B0B"></path><path d="M116.736 183.329C116.972 183.494 116.959 183.98 116.707 184.41C116.455 184.844 116.059 185.057 115.823 184.893C115.587 184.728 115.6 184.242 115.852 183.812C116.104 183.378 116.5 183.165 116.736 183.329Z" fill="#0B0B0B"></path><path d="M116.742 188.412C116.978 188.576 116.965 189.062 116.713 189.492C116.461 189.926 116.066 190.14 115.83 189.975C115.593 189.811 115.606 189.325 115.858 188.894C116.11 188.461 116.506 188.247 116.742 188.412Z" fill="#0B0B0B"></path><path d="M116.748 193.49C116.985 193.655 116.972 194.141 116.72 194.571C116.468 195.005 116.072 195.218 115.836 195.054C115.6 194.89 115.613 194.403 115.865 193.973C116.117 193.539 116.512 193.326 116.748 193.49Z" fill="#0B0B0B"></path><path d="M116.758 198.573C116.994 198.737 116.981 199.224 116.729 199.654C116.477 200.088 116.081 200.301 115.845 200.137C115.609 199.972 115.622 199.486 115.874 199.056C116.126 198.622 116.522 198.409 116.758 198.573Z" fill="#0B0B0B"></path><path d="M116.765 203.652C117.001 203.816 116.988 204.302 116.736 204.733C116.484 205.166 116.088 205.38 115.852 205.215C115.616 205.051 115.629 204.565 115.881 204.135C116.133 203.701 116.528 203.487 116.765 203.652Z" fill="#0B0B0B"></path><path d="M116.774 208.731C117.01 208.895 116.997 209.382 116.745 209.812C116.493 210.246 116.097 210.459 115.861 210.294C115.625 210.13 115.638 209.644 115.89 209.214C116.142 208.78 116.538 208.567 116.774 208.731Z" fill="#0B0B0B"></path><path d="M116.78 213.813C117.016 213.978 117.003 214.464 116.751 214.894C116.499 215.324 116.103 215.541 115.867 215.377C115.631 215.212 115.644 214.726 115.896 214.296C116.148 213.866 116.544 213.649 116.78 213.813Z" fill="#0B0B0B"></path><path d="M126.056 177.39C126.292 177.554 126.279 178.04 126.027 178.47C125.775 178.904 125.379 179.118 125.143 178.953C124.907 178.789 124.92 178.303 125.172 177.872C125.424 177.439 125.819 177.225 126.056 177.39Z" fill="#0B0B0B"></path><path d="M126.062 182.469C126.298 182.633 126.285 183.119 126.033 183.55C125.781 183.983 125.385 184.197 125.149 184.032C124.913 183.868 124.926 183.382 125.178 182.951C125.43 182.518 125.826 182.304 126.062 182.469Z" fill="#0B0B0B"></path><path d="M126.069 187.551C126.305 187.715 126.292 188.202 126.04 188.632C125.788 189.062 125.392 189.279 125.156 189.115C124.92 188.95 124.933 188.464 125.185 188.034C125.437 187.604 125.833 187.387 126.069 187.551Z" fill="#0B0B0B"></path><path d="M126.078 192.63C126.314 192.795 126.301 193.281 126.049 193.711C125.797 194.145 125.402 194.358 125.165 194.194C124.929 194.029 124.942 193.543 125.194 193.113C125.446 192.679 125.842 192.466 126.078 192.63Z" fill="#0B0B0B"></path><path d="M126.084 197.713C126.32 197.877 126.308 198.363 126.056 198.793C125.804 199.227 125.408 199.441 125.172 199.276C124.936 199.112 124.948 198.626 125.201 198.195C125.453 197.762 125.848 197.548 126.084 197.713Z" fill="#0B0B0B"></path><path d="M126.094 202.791C126.33 202.956 126.317 203.442 126.065 203.872C125.813 204.306 125.418 204.519 125.182 204.355C124.945 204.191 124.958 203.704 125.21 203.274C125.462 202.84 125.858 202.627 126.094 202.791Z" fill="#0B0B0B"></path><path d="M126.1 207.87C126.337 208.034 126.324 208.521 126.072 208.951C125.82 209.385 125.424 209.598 125.188 209.434C124.952 209.269 124.965 208.783 125.217 208.353C125.469 207.919 125.864 207.706 126.1 207.87Z" fill="#0B0B0B"></path><path d="M126.11 212.953C126.346 213.117 126.334 213.603 126.082 214.033C125.829 214.464 125.434 214.681 125.198 214.516C124.962 214.352 124.974 213.866 125.226 213.435C125.478 213.002 125.874 212.788 126.11 212.953Z" fill="#0B0B0B"></path><path d="M141.084 129.966C141.32 130.13 141.308 130.616 141.056 131.047C140.804 131.48 140.408 131.694 140.172 131.529C139.936 131.365 139.948 130.879 140.201 130.449C140.453 130.015 140.848 129.801 141.084 129.966Z" fill="#0B0B0B"></path><path d="M141.091 135.045C141.327 135.209 141.314 135.695 141.062 136.125C140.81 136.556 140.414 136.773 140.178 136.608C139.942 136.444 139.955 135.958 140.207 135.527C140.459 135.094 140.855 134.88 141.091 135.045Z" fill="#0B0B0B"></path><path d="M141.1 140.127C141.337 140.292 141.324 140.778 141.072 141.208C140.82 141.642 140.424 141.855 140.188 141.691C139.952 141.526 139.965 141.04 140.217 140.61C140.469 140.176 140.864 139.963 141.1 140.127Z" fill="#0B0B0B"></path><path d="M141.107 145.206C141.343 145.371 141.33 145.857 141.078 146.287C140.826 146.721 140.43 146.934 140.194 146.77C139.958 146.605 139.971 146.119 140.223 145.689C140.475 145.255 140.871 145.042 141.107 145.206Z" fill="#0B0B0B"></path><path d="M141.116 150.288C141.352 150.453 141.339 150.939 141.087 151.369C140.835 151.803 140.439 152.016 140.203 151.852C139.967 151.687 139.98 151.201 140.232 150.771C140.484 150.337 140.88 150.124 141.116 150.288Z" fill="#0B0B0B"></path><path d="M141.123 155.367C141.359 155.532 141.346 156.018 141.094 156.448C140.842 156.882 140.447 157.095 140.21 156.931C139.974 156.766 139.987 156.28 140.239 155.85C140.491 155.416 140.887 155.203 141.123 155.367Z" fill="#0B0B0B"></path><path d="M141.132 160.45C141.368 160.614 141.355 161.1 141.103 161.531C140.851 161.964 140.455 162.178 140.219 162.013C139.983 161.849 139.996 161.363 140.248 160.932C140.5 160.499 140.896 160.285 141.132 160.45Z" fill="#0B0B0B"></path><path d="M141.138 165.529C141.374 165.693 141.361 166.179 141.109 166.609C140.857 167.043 140.462 167.256 140.226 167.092C139.989 166.928 140.002 166.441 140.254 166.011C140.506 165.578 140.902 165.364 141.138 165.529Z" fill="#0B0B0B"></path><path d="M141.138 124.754C141.374 124.919 141.361 125.405 141.109 125.835C140.857 126.265 140.462 126.482 140.226 126.318C139.989 126.153 140.002 125.667 140.254 125.237C140.506 124.803 140.902 124.59 141.138 124.754Z" fill="#0B0B0B"></path><path d="M141.084 108.314C141.32 108.479 141.308 108.965 141.056 109.395C140.804 109.829 140.408 110.042 140.172 109.878C139.936 109.713 139.948 109.227 140.201 108.797C140.453 108.367 140.848 108.15 141.084 108.314Z" fill="#0B0B0B"></path><path d="M141.091 113.396C141.327 113.561 141.314 114.047 141.062 114.477C140.81 114.908 140.414 115.124 140.178 114.96C139.942 114.796 139.955 114.309 140.207 113.879C140.459 113.445 140.855 113.232 141.091 113.396Z" fill="#0B0B0B"></path><path d="M141.1 118.475C141.337 118.64 141.324 119.126 141.072 119.556C140.82 119.99 140.424 120.203 140.188 120.039C139.952 119.874 139.965 119.388 140.217 118.958C140.469 118.524 140.864 118.311 141.1 118.475Z" fill="#0B0B0B"></path><path d="M141.138 103.102C141.374 103.267 141.361 103.753 141.109 104.183C140.857 104.613 140.462 104.83 140.226 104.666C139.989 104.501 140.002 104.015 140.254 103.585C140.506 103.155 140.902 102.938 141.138 103.102Z" fill="#0B0B0B"></path><path d="M133.784 128.686C134.02 128.85 134.007 129.336 133.755 129.766C133.503 130.197 133.107 130.414 132.871 130.249C132.635 130.085 132.648 129.599 132.9 129.168C133.152 128.738 133.547 128.521 133.784 128.686Z" fill="#0B0B0B"></path><path d="M133.79 133.765C134.026 133.929 134.013 134.415 133.761 134.845C133.509 135.279 133.114 135.493 132.877 135.328C132.641 135.164 132.654 134.678 132.906 134.247C133.158 133.814 133.554 133.6 133.79 133.765Z" fill="#0B0B0B"></path><path d="M133.8 138.843C134.036 139.008 134.023 139.494 133.771 139.924C133.519 140.358 133.123 140.571 132.887 140.407C132.651 140.243 132.664 139.756 132.916 139.326C133.168 138.892 133.564 138.679 133.8 138.843Z" fill="#0B0B0B"></path><path d="M133.806 143.926C134.042 144.09 134.029 144.577 133.777 145.007C133.525 145.441 133.13 145.654 132.893 145.49C132.657 145.325 132.67 144.839 132.922 144.409C133.174 143.975 133.57 143.762 133.806 143.926Z" fill="#0B0B0B"></path><path d="M133.815 149.005C134.051 149.169 134.039 149.655 133.787 150.085C133.535 150.519 133.139 150.733 132.903 150.568C132.667 150.404 132.679 149.918 132.931 149.487C133.184 149.054 133.579 148.84 133.815 149.005Z" fill="#0B0B0B"></path><path d="M133.822 154.087C134.058 154.252 134.046 154.738 133.793 155.168C133.541 155.602 133.146 155.815 132.91 155.651C132.673 155.486 132.686 155 132.938 154.57C133.19 154.136 133.586 153.923 133.822 154.087Z" fill="#0B0B0B"></path><path d="M133.831 159.166C134.068 159.33 134.055 159.817 133.803 160.247C133.551 160.681 133.155 160.894 132.919 160.73C132.683 160.565 132.696 160.079 132.948 159.649C133.2 159.219 133.595 159.002 133.831 159.166Z" fill="#0B0B0B"></path><path d="M133.838 164.245C134.074 164.409 134.061 164.895 133.809 165.326C133.557 165.759 133.161 165.973 132.925 165.808C132.689 165.644 132.702 165.158 132.954 164.728C133.206 164.294 133.602 164.08 133.838 164.245Z" fill="#0B0B0B"></path><path d="M137.134 124.327C137.37 124.492 137.358 124.978 137.105 125.408C136.853 125.842 136.458 126.055 136.222 125.891C135.986 125.726 135.998 125.24 136.25 124.81C136.502 124.376 136.898 124.163 137.134 124.327Z" fill="#0B0B0B"></path><path d="M137.141 129.41C137.377 129.574 137.364 130.06 137.112 130.49C136.86 130.924 136.464 131.138 136.228 130.973C135.992 130.809 136.005 130.323 136.257 129.892C136.509 129.459 136.904 129.245 137.141 129.41Z" fill="#0B0B0B"></path><path d="M137.15 134.489C137.386 134.653 137.374 135.139 137.122 135.569C136.87 136.003 136.474 136.217 136.238 136.052C136.002 135.888 136.014 135.402 136.266 134.971C136.519 134.541 136.914 134.324 137.15 134.489Z" fill="#0B0B0B"></path><path d="M137.157 139.571C137.393 139.735 137.38 140.222 137.128 140.652C136.876 141.086 136.48 141.299 136.244 141.135C136.008 140.97 136.021 140.484 136.273 140.054C136.525 139.62 136.921 139.407 137.157 139.571Z" fill="#0B0B0B"></path><path d="M137.166 144.65C137.402 144.815 137.389 145.301 137.137 145.731C136.885 146.165 136.489 146.378 136.253 146.214C136.017 146.049 136.03 145.563 136.282 145.133C136.534 144.699 136.93 144.486 137.166 144.65Z" fill="#0B0B0B"></path><path d="M137.172 149.729C137.408 149.893 137.396 150.379 137.144 150.81C136.891 151.243 136.496 151.457 136.26 151.292C136.024 151.128 136.036 150.642 136.288 150.211C136.54 149.778 136.936 149.564 137.172 149.729Z" fill="#0B0B0B"></path><path d="M137.182 154.811C137.418 154.975 137.405 155.462 137.153 155.892C136.901 156.322 136.506 156.539 136.269 156.375C136.033 156.21 136.046 155.724 136.298 155.294C136.55 154.864 136.946 154.647 137.182 154.811Z" fill="#0B0B0B"></path><path d="M137.188 159.89C137.424 160.055 137.412 160.541 137.16 160.971C136.908 161.405 136.512 161.618 136.276 161.454C136.04 161.289 136.052 160.803 136.305 160.373C136.557 159.939 136.952 159.726 137.188 159.89Z" fill="#0B0B0B"></path><path d="M119.856 174.766C120.092 174.931 120.079 175.417 119.827 175.847C119.575 176.281 119.179 176.494 118.943 176.33C118.707 176.166 118.72 175.679 118.972 175.249C119.224 174.819 119.62 174.602 119.856 174.766Z" fill="#0B0B0B"></path><path d="M119.866 179.849C120.102 180.013 120.089 180.499 119.837 180.93C119.585 181.363 119.19 181.577 118.954 181.412C118.717 181.248 118.73 180.762 118.982 180.332C119.234 179.898 119.63 179.684 119.866 179.849Z" fill="#0B0B0B"></path><path d="M119.872 184.928C120.109 185.092 120.096 185.579 119.844 186.009C119.592 186.443 119.196 186.656 118.96 186.492C118.724 186.327 118.737 185.841 118.989 185.411C119.241 184.977 119.636 184.764 119.872 184.928Z" fill="#0B0B0B"></path><path d="M119.881 190.007C120.117 190.171 120.105 190.657 119.853 191.088C119.6 191.521 119.205 191.735 118.969 191.57C118.733 191.406 118.745 190.92 118.997 190.49C119.249 190.056 119.645 189.842 119.881 190.007Z" fill="#0B0B0B"></path><path d="M119.888 195.089C120.124 195.253 120.111 195.739 119.859 196.17C119.607 196.603 119.211 196.817 118.975 196.652C118.739 196.488 118.752 196.002 119.004 195.572C119.256 195.138 119.651 194.924 119.888 195.089Z" fill="#0B0B0B"></path><path d="M119.897 200.168C120.133 200.332 120.121 200.819 119.869 201.249C119.617 201.683 119.221 201.896 118.985 201.732C118.749 201.567 118.761 201.081 119.014 200.651C119.266 200.217 119.661 200.004 119.897 200.168Z" fill="#0B0B0B"></path><path d="M119.904 205.25C120.14 205.415 120.127 205.901 119.875 206.331C119.623 206.765 119.227 206.978 118.991 206.814C118.755 206.65 118.768 206.163 119.02 205.733C119.272 205.299 119.668 205.086 119.904 205.25Z" fill="#0B0B0B"></path><path d="M119.913 210.329C120.15 210.494 120.137 210.98 119.885 211.41C119.633 211.84 119.237 212.057 119.001 211.893C118.765 211.728 118.778 211.242 119.03 210.812C119.282 210.378 119.677 210.165 119.913 210.329Z" fill="#0B0B0B"></path><path d="M139.032 185.635L136.326 187.272C135.749 187.513 135.321 188.108 135.206 188.828L135.12 191.613C135.108 191.941 135.146 192.274 135.503 192.417L137.66 193.76L140.739 188.22L139.664 185.82C139.511 185.628 139.268 185.537 139.026 185.638L139.032 185.635Z" fill="#FFA8D2"></path><path d="M137.718 193.995L140.925 188.227L139.789 185.701C139.581 185.439 139.262 185.348 138.975 185.47L138.956 185.481L136.25 187.118C135.641 187.37 135.172 188.017 135.051 188.797L134.964 191.602C134.955 191.83 134.936 192.372 135.453 192.578L137.718 193.991V193.995ZM140.561 188.209L137.606 193.523L135.587 192.263C135.341 192.162 135.268 191.997 135.284 191.616L135.37 188.832C135.472 188.195 135.861 187.653 136.388 187.433L139.103 185.792C139.285 185.719 139.444 185.806 139.54 185.915L140.564 188.206L140.561 188.209Z" fill="#0B0B0B"></path><path d="M140.178 187.954L138.142 189.311C137.705 189.493 137.383 189.941 137.3 190.483L137.325 193.12C137.261 193.533 137.587 193.869 137.919 193.732L139.955 192.375C140.392 192.193 140.714 191.746 140.797 191.203L140.771 188.566C140.835 188.153 140.51 187.818 140.178 187.954Z" fill="#FFDDDD"></path><path d="M137.766 193.939C137.836 193.939 137.906 193.925 137.976 193.897L140.038 192.522C140.5 192.333 140.861 191.833 140.957 191.228L140.934 188.562C140.972 188.328 140.886 188.059 140.704 187.894C140.539 187.747 140.322 187.705 140.124 187.789L140.098 187.803L138.063 189.161C137.6 189.349 137.239 189.85 137.144 190.455L137.166 193.124C137.128 193.358 137.214 193.627 137.396 193.792C137.504 193.89 137.635 193.939 137.769 193.939H137.766ZM140.331 188.097C140.408 188.097 140.465 188.136 140.5 188.167C140.593 188.251 140.637 188.395 140.615 188.538L140.637 191.207C140.564 191.658 140.28 192.057 139.897 192.214L137.836 193.589C137.737 193.627 137.641 193.568 137.597 193.526C137.504 193.442 137.459 193.299 137.482 193.159L137.459 190.49C137.533 190.038 137.817 189.643 138.2 189.482L140.248 188.118C140.277 188.108 140.306 188.104 140.331 188.104V188.097Z" fill="#0B0B0B"></path><path d="M139.036 179.23L136.334 180.867C135.756 181.109 135.329 181.703 135.214 182.424L135.128 185.208C135.115 185.537 135.153 185.869 135.511 186.013L137.667 187.356L140.747 181.815L139.671 179.416C139.518 179.223 139.276 179.132 139.033 179.23H139.036Z" fill="#FFA8D2"></path><path d="M137.721 187.59L140.928 181.822L139.792 179.297C139.585 179.034 139.266 178.943 138.979 179.062L138.96 179.073L136.254 180.71C135.644 180.962 135.175 181.609 135.054 182.389L134.968 185.194C134.958 185.421 134.939 185.96 135.456 186.17L137.721 187.583V187.59ZM140.564 181.805L137.61 187.118L135.59 185.859C135.344 185.757 135.271 185.593 135.287 185.211L135.373 182.427C135.475 181.791 135.864 181.248 136.391 181.028L139.106 179.387C139.291 179.318 139.451 179.401 139.543 179.51L140.571 181.805H140.564Z" fill="#0B0B0B"></path><path d="M140.183 181.549L138.147 182.906C137.71 183.088 137.388 183.536 137.305 184.078L137.33 186.716C137.266 187.128 137.592 187.464 137.924 187.328L139.959 185.971C140.397 185.789 140.719 185.341 140.802 184.795L140.776 182.158C140.84 181.745 140.515 181.409 140.183 181.546V181.549Z" fill="#FFDDDD"></path><path d="M137.77 187.534C137.84 187.534 137.911 187.52 137.981 187.492L140.042 186.117C140.505 185.929 140.865 185.428 140.961 184.823L140.939 182.158C140.977 181.923 140.891 181.654 140.709 181.49C140.543 181.343 140.326 181.301 140.128 181.385L140.103 181.399L138.067 182.756C137.604 182.945 137.244 183.445 137.148 184.05L137.17 186.719C137.132 186.953 137.218 187.223 137.4 187.387C137.509 187.485 137.639 187.534 137.773 187.534H137.77ZM140.336 181.693C140.412 181.693 140.47 181.731 140.505 181.763C140.597 181.847 140.642 181.99 140.62 182.133L140.642 184.799C140.568 185.25 140.284 185.649 139.902 185.806L137.84 187.181C137.741 187.219 137.646 187.16 137.601 187.118C137.509 187.034 137.464 186.89 137.486 186.747L137.464 184.082C137.537 183.63 137.821 183.232 138.204 183.074L140.253 181.71C140.281 181.7 140.31 181.696 140.339 181.696L140.336 181.693Z" fill="#0B0B0B"></path><path d="M138.924 172.826L136.219 174.463C135.641 174.704 135.213 175.299 135.099 176.019L135.012 178.804C135 179.132 135.038 179.465 135.395 179.608L137.552 180.951L140.631 175.411L139.556 173.011C139.403 172.819 139.16 172.728 138.918 172.826H138.924Z" fill="#FFA8D2"></path><path d="M137.613 181.186L140.819 175.418L139.683 172.892C139.476 172.63 139.157 172.539 138.87 172.658L138.851 172.668L136.145 174.305C135.535 174.557 135.066 175.204 134.945 175.984L134.859 178.79C134.849 179.017 134.83 179.556 135.347 179.766L137.613 181.179V181.186ZM140.456 175.4L137.501 180.713L135.481 179.454C135.235 179.353 135.162 179.188 135.178 178.807L135.264 176.023C135.366 175.386 135.756 174.844 136.282 174.624L138.997 172.983C139.182 172.913 139.342 172.997 139.435 173.106L140.462 175.4H140.456Z" fill="#0B0B0B"></path><path d="M140.073 175.145L138.038 176.502C137.601 176.684 137.278 177.132 137.195 177.677L137.221 180.315C137.157 180.727 137.486 181.063 137.814 180.927L139.85 179.57C140.287 179.388 140.609 178.94 140.692 178.394L140.667 175.757C140.731 175.344 140.405 175.008 140.073 175.145Z" fill="#FFDDDD"></path><path d="M137.661 181.13C137.731 181.13 137.801 181.116 137.871 181.088L139.933 179.713C140.395 179.524 140.756 179.024 140.852 178.419L140.829 175.753C140.868 175.519 140.781 175.25 140.599 175.085C140.434 174.938 140.217 174.896 140.019 174.98L139.993 174.994L137.958 176.351C137.495 176.54 137.134 177.041 137.039 177.646L137.061 180.311C137.023 180.545 137.109 180.815 137.291 180.979C137.399 181.077 137.53 181.126 137.664 181.126L137.661 181.13ZM140.226 175.288C140.303 175.288 140.36 175.327 140.395 175.358C140.488 175.442 140.532 175.585 140.51 175.725L140.532 178.394C140.459 178.845 140.175 179.244 139.792 179.402L137.731 180.776C137.632 180.815 137.536 180.755 137.492 180.713C137.399 180.629 137.354 180.486 137.377 180.346L137.354 177.677C137.428 177.226 137.712 176.827 138.095 176.67L140.143 175.306C140.172 175.295 140.201 175.292 140.229 175.292L140.226 175.288Z" fill="#0B0B0B"></path><path d="M139.032 209.602L136.326 211.239C135.749 211.48 135.321 212.075 135.206 212.795L135.12 215.579C135.108 215.908 135.146 216.24 135.503 216.384L137.66 217.727L140.739 212.186L139.664 209.787C139.511 209.595 139.268 209.504 139.026 209.602H139.032Z" fill="#0B0B0B"></path><path d="M137.718 217.962L140.925 212.194L139.789 209.668C139.581 209.406 139.262 209.315 138.975 209.434L138.956 209.444L136.25 211.081C135.641 211.333 135.172 211.98 135.051 212.76L134.964 215.566C134.955 215.793 134.936 216.335 135.453 216.541L137.718 217.955V217.962ZM140.561 212.176L137.606 217.489L135.587 216.23C135.341 216.129 135.268 215.964 135.284 215.583L135.37 212.799C135.472 212.162 135.861 211.62 136.388 211.4L139.103 209.759C139.288 209.689 139.444 209.773 139.54 209.881L140.567 212.173L140.561 212.176Z" fill="#0B0B0B"></path><path d="M140.178 211.921L138.142 213.278C137.705 213.46 137.383 213.907 137.3 214.453L137.325 217.091C137.261 217.503 137.587 217.839 137.919 217.703L139.955 216.345C140.392 216.164 140.714 215.716 140.797 215.174L140.771 212.536C140.835 212.124 140.51 211.788 140.178 211.924V211.921Z" fill="#8B75F3"></path><path d="M137.766 217.906C137.836 217.906 137.906 217.892 137.976 217.864L140.038 216.493C140.5 216.304 140.861 215.803 140.957 215.198L140.934 212.533C140.972 212.299 140.886 212.029 140.704 211.865C140.539 211.714 140.322 211.676 140.124 211.76L140.098 211.774L138.063 213.131C137.6 213.32 137.239 213.82 137.144 214.425L137.166 217.094C137.128 217.329 137.214 217.598 137.396 217.762C137.504 217.86 137.635 217.909 137.766 217.909V217.906ZM140.331 212.064C140.408 212.064 140.468 212.103 140.5 212.134C140.593 212.218 140.637 212.362 140.615 212.501L140.637 215.17C140.564 215.622 140.28 216.02 139.897 216.178L137.836 217.552C137.737 217.591 137.641 217.531 137.597 217.489C137.504 217.405 137.459 217.262 137.482 217.119L137.459 214.453C137.533 214.002 137.817 213.603 138.2 213.446L140.248 212.082C140.277 212.071 140.306 212.068 140.331 212.068V212.064Z" fill="#0B0B0B"></path><path d="M139.036 203.197L136.334 204.834C135.756 205.076 135.329 205.67 135.214 206.391L135.128 209.175C135.115 209.504 135.153 209.836 135.511 209.98L137.667 211.323L140.747 205.782L139.671 203.383C139.518 203.19 139.276 203.099 139.033 203.201L139.036 203.197Z" fill="#0B0B0B"></path><path d="M137.721 211.557L140.928 205.789L139.792 203.264C139.585 203.001 139.266 202.911 138.979 203.033L138.96 203.043L136.254 204.68C135.644 204.932 135.175 205.579 135.054 206.359L134.968 209.165C134.958 209.392 134.939 209.931 135.456 210.141L137.721 211.554V211.557ZM140.564 205.772L137.61 211.085L135.59 209.826C135.344 209.724 135.271 209.56 135.287 209.179L135.373 206.394C135.475 205.758 135.864 205.216 136.391 204.995L139.106 203.355C139.288 203.285 139.448 203.369 139.543 203.477L140.571 205.768L140.564 205.772Z" fill="#0B0B0B"></path><path d="M140.183 205.516L138.147 206.873C137.71 207.055 137.388 207.503 137.305 208.045L137.33 210.683C137.266 211.095 137.592 211.431 137.924 211.295L139.959 209.938C140.397 209.756 140.719 209.308 140.802 208.766L140.776 206.128C140.84 205.716 140.515 205.38 140.183 205.516Z" fill="#8B75F3"></path><path d="M137.77 211.501C137.84 211.501 137.911 211.487 137.981 211.459L140.042 210.088C140.505 209.899 140.865 209.399 140.961 208.794L140.939 206.128C140.977 205.894 140.891 205.625 140.709 205.46C140.543 205.31 140.326 205.271 140.128 205.355L140.103 205.369L138.067 206.727C137.604 206.915 137.244 207.416 137.148 208.021L137.17 210.69C137.132 210.924 137.218 211.193 137.4 211.358C137.509 211.456 137.639 211.505 137.77 211.505V211.501ZM140.336 205.66C140.412 205.66 140.473 205.698 140.505 205.73C140.597 205.814 140.642 205.957 140.62 206.097L140.642 208.766C140.568 209.217 140.284 209.616 139.902 209.773L137.84 211.148C137.741 211.186 137.646 211.127 137.601 211.085C137.509 211.001 137.464 210.858 137.486 210.714L137.464 208.049C137.537 207.598 137.821 207.199 138.204 207.041L140.253 205.677C140.281 205.667 140.31 205.663 140.336 205.663V205.66Z" fill="#0B0B0B"></path><path d="M138.924 196.793L136.219 198.43C135.641 198.671 135.213 199.266 135.099 199.986L135.012 202.77C135 203.099 135.038 203.432 135.395 203.575L137.552 204.918L140.631 199.378L139.556 196.978C139.403 196.786 139.16 196.695 138.918 196.796L138.924 196.793Z" fill="#0B0B0B"></path><path d="M137.613 205.153L140.819 199.385L139.683 196.859C139.476 196.597 139.157 196.506 138.87 196.628L138.851 196.639L136.145 198.276C135.535 198.528 135.066 199.175 134.945 199.955L134.859 202.76C134.849 202.988 134.83 203.526 135.347 203.736L137.613 205.149V205.153ZM140.456 199.367L137.501 204.681L135.481 203.421C135.235 203.32 135.162 203.155 135.178 202.774L135.264 199.99C135.366 199.353 135.756 198.811 136.282 198.591L138.997 196.95C139.182 196.877 139.339 196.964 139.435 197.073L140.459 199.364L140.456 199.367Z" fill="#0B0B0B"></path><path d="M140.073 199.112L138.038 200.469C137.601 200.651 137.278 201.099 137.195 201.641L137.221 204.278C137.157 204.691 137.486 205.027 137.814 204.89L139.85 203.533C140.287 203.351 140.609 202.903 140.692 202.358L140.667 199.72C140.731 199.308 140.405 198.972 140.073 199.108V199.112Z" fill="#8B75F3"></path><path d="M137.661 205.097C137.731 205.097 137.801 205.083 137.871 205.055L139.933 203.68C140.395 203.491 140.756 202.991 140.852 202.386L140.829 199.72C140.868 199.486 140.781 199.217 140.599 199.052C140.434 198.905 140.217 198.863 140.019 198.947L139.993 198.961L137.958 200.319C137.495 200.507 137.134 201.008 137.039 201.613L137.061 204.278C137.023 204.512 137.109 204.782 137.291 204.946C137.399 205.044 137.53 205.093 137.664 205.093L137.661 205.097ZM140.226 199.255C140.303 199.255 140.36 199.294 140.395 199.325C140.488 199.409 140.532 199.552 140.51 199.696L140.532 202.361C140.459 202.812 140.175 203.211 139.792 203.369L137.731 204.743C137.632 204.782 137.536 204.722 137.492 204.68C137.399 204.596 137.354 204.453 137.377 204.313L137.354 201.644C137.428 201.193 137.712 200.794 138.095 200.637L140.143 199.273C140.172 199.262 140.201 199.259 140.229 199.259L140.226 199.255Z" fill="#0B0B0B"></path><path d="M146.422 181.486L143.717 183.123C143.139 183.364 142.711 183.959 142.597 184.68L142.51 187.46C142.498 187.789 142.536 188.122 142.893 188.265L145.05 189.608L148.129 184.068L147.054 181.668C146.901 181.476 146.658 181.385 146.416 181.483L146.422 181.486Z" fill="#FFA8D2"></path><path d="M145.108 189.846L148.314 184.078L147.179 181.553C146.968 181.287 146.658 181.199 146.365 181.318L146.346 181.329L143.64 182.966C143.031 183.218 142.561 183.865 142.44 184.645L142.354 187.45C142.345 187.677 142.325 188.216 142.842 188.426L145.108 189.839V189.846ZM147.951 184.061L144.996 189.374L142.976 188.115C142.731 188.013 142.657 187.849 142.673 187.467L142.759 184.683C142.861 184.047 143.251 183.504 143.777 183.284L146.493 181.644C146.674 181.574 146.837 181.657 146.93 181.766L147.957 184.061H147.951Z" fill="#0B0B0B"></path><path d="M147.568 183.805L145.533 185.162C145.096 185.344 144.773 185.792 144.69 186.337L144.716 188.975C144.652 189.388 144.978 189.723 145.309 189.587L147.345 188.23C147.782 188.048 148.105 187.6 148.188 187.058L148.162 184.421C148.226 184.008 147.9 183.672 147.568 183.808V183.805Z" fill="#FFDDDD"></path><path d="M145.156 189.79C145.226 189.79 145.296 189.776 145.366 189.748L147.428 188.373C147.89 188.184 148.251 187.684 148.347 187.079L148.324 184.41C148.363 184.176 148.276 183.906 148.095 183.742C147.929 183.592 147.712 183.553 147.514 183.637L147.488 183.651L145.453 185.008C144.99 185.197 144.629 185.697 144.534 186.302L144.556 188.968C144.518 189.202 144.604 189.472 144.786 189.636C144.894 189.734 145.025 189.783 145.159 189.783L145.156 189.79ZM147.721 183.948C147.798 183.948 147.858 183.987 147.89 184.018C147.983 184.102 148.028 184.246 148.005 184.386L148.028 187.055C147.954 187.506 147.67 187.901 147.287 188.062L145.226 189.437C145.127 189.475 145.031 189.416 144.987 189.374C144.894 189.29 144.85 189.146 144.872 189.006L144.85 186.337C144.923 185.886 145.207 185.487 145.59 185.33L147.638 183.966C147.667 183.955 147.696 183.952 147.721 183.952V183.948Z" fill="#0B0B0B"></path><path d="M146.425 175.082L143.719 176.719C143.141 176.96 142.714 177.555 142.599 178.275L142.513 181.06C142.5 181.388 142.538 181.721 142.896 181.864L145.053 183.207L148.132 177.667L147.057 175.267C146.903 175.075 146.661 174.98 146.418 175.082H146.425Z" fill="#FFA8D2"></path><path d="M145.111 183.441L148.317 177.673L147.181 175.148C146.971 174.882 146.661 174.795 146.368 174.914L146.349 174.924L143.643 176.561C143.033 176.813 142.564 177.46 142.443 178.24L142.357 181.045C142.347 181.273 142.328 181.811 142.845 182.021L145.111 183.434V183.441ZM147.954 177.656L144.999 182.969L142.979 181.71C142.734 181.609 142.66 181.444 142.676 181.063L142.762 178.279C142.864 177.642 143.254 177.1 143.78 176.879L146.495 175.239C146.677 175.169 146.837 175.253 146.933 175.361L147.96 177.652L147.954 177.656Z" fill="#0B0B0B"></path><path d="M147.571 177.401L145.536 178.758C145.099 178.94 144.776 179.387 144.693 179.933L144.719 182.571C144.655 182.983 144.981 183.319 145.312 183.183L147.348 181.825C147.785 181.644 148.107 181.196 148.19 180.654L148.165 178.016C148.229 177.604 147.903 177.268 147.571 177.404V177.401Z" fill="#FFDDDD"></path><path d="M145.159 183.385C145.229 183.385 145.299 183.371 145.369 183.343L147.431 181.972C147.893 181.783 148.254 181.283 148.35 180.678L148.327 178.009C148.366 177.775 148.279 177.506 148.098 177.341C147.932 177.191 147.715 177.152 147.517 177.236L147.491 177.25L145.456 178.607C144.993 178.796 144.632 179.296 144.537 179.902L144.559 182.57C144.521 182.805 144.607 183.074 144.789 183.239C144.897 183.337 145.028 183.385 145.159 183.385ZM147.724 177.544C147.801 177.544 147.861 177.583 147.893 177.614C147.986 177.698 148.031 177.841 148.008 177.981L148.031 180.65C147.957 181.101 147.673 181.497 147.29 181.658L145.229 183.032C145.13 183.071 145.034 183.011 144.99 182.969C144.897 182.885 144.853 182.742 144.875 182.598L144.853 179.933C144.926 179.482 145.21 179.083 145.593 178.926L147.641 177.562C147.67 177.551 147.699 177.548 147.724 177.548V177.544Z" fill="#0B0B0B"></path><path d="M146.313 168.673L143.608 170.31C143.03 170.552 142.603 171.146 142.488 171.867L142.402 174.651C142.389 174.98 142.427 175.312 142.784 175.456L144.941 176.799L148.021 171.258L146.945 168.859C146.792 168.666 146.55 168.576 146.307 168.677L146.313 168.673Z" fill="#FFA8D2"></path><path d="M144.999 177.037L148.206 171.269L147.07 168.744C146.863 168.481 146.544 168.39 146.256 168.513L146.237 168.523L143.532 170.16C142.922 170.412 142.453 171.059 142.332 171.839L142.246 174.644C142.236 174.872 142.217 175.41 142.734 175.62L144.999 177.033V177.037ZM147.842 171.252L144.888 176.565L142.868 175.306C142.622 175.204 142.549 175.04 142.565 174.658L142.651 171.874C142.753 171.238 143.142 170.695 143.669 170.475L146.384 168.834C146.566 168.761 146.726 168.848 146.821 168.957L147.849 171.248L147.842 171.252Z" fill="#0B0B0B"></path><path d="M147.459 170.993L145.423 172.35C144.986 172.532 144.664 172.979 144.581 173.521L144.606 176.159C144.542 176.572 144.868 176.907 145.2 176.771L147.235 175.414C147.672 175.232 147.995 174.784 148.078 174.242L148.052 171.605C148.116 171.192 147.79 170.856 147.459 170.993Z" fill="#FFDDDD"></path><path d="M145.049 176.981C145.12 176.981 145.19 176.967 145.26 176.939L147.321 175.564C147.784 175.375 148.145 174.875 148.24 174.27L148.218 171.601C148.256 171.367 148.17 171.098 147.988 170.933C147.822 170.783 147.605 170.744 147.407 170.828L147.382 170.842L145.346 172.199C144.884 172.388 144.523 172.889 144.427 173.494L144.45 176.163C144.411 176.397 144.497 176.666 144.679 176.831C144.788 176.929 144.919 176.978 145.053 176.978L145.049 176.981ZM147.615 171.14C147.691 171.14 147.752 171.178 147.784 171.21C147.876 171.293 147.921 171.437 147.899 171.577L147.921 174.246C147.848 174.697 147.564 175.092 147.181 175.253L145.12 176.628C145.021 176.666 144.925 176.607 144.88 176.565C144.788 176.481 144.743 176.337 144.765 176.197L144.743 173.529C144.817 173.077 145.101 172.682 145.483 172.521L147.532 171.157C147.561 171.147 147.589 171.143 147.615 171.143V171.14Z" fill="#0B0B0B"></path><path d="M146.422 205.453L143.717 207.09C143.139 207.332 142.711 207.926 142.597 208.647L142.51 211.431C142.498 211.76 142.536 212.092 142.893 212.236L145.05 213.579L148.129 208.038L147.054 205.639C146.901 205.446 146.658 205.355 146.416 205.453H146.422Z" fill="#0B0B0B"></path><path d="M145.108 213.813L148.314 208.045L147.179 205.52C146.968 205.254 146.658 205.167 146.365 205.285L146.346 205.296L143.64 206.933C143.031 207.185 142.561 207.832 142.44 208.612L142.354 211.417C142.345 211.645 142.325 212.183 142.842 212.393L145.108 213.806V213.813ZM147.951 208.028L144.996 213.341L142.976 212.082C142.731 211.98 142.657 211.816 142.673 211.435L142.759 208.65C142.861 208.014 143.251 207.472 143.777 207.251L146.493 205.611C146.674 205.541 146.837 205.625 146.93 205.733L147.957 208.028H147.951Z" fill="#0B0B0B"></path><path d="M147.568 207.772L145.533 209.13C145.096 209.311 144.773 209.759 144.69 210.301L144.716 212.939C144.652 213.351 144.978 213.687 145.309 213.551L147.345 212.194C147.782 212.012 148.105 211.564 148.188 211.018L148.162 208.381C148.226 207.968 147.9 207.632 147.568 207.769V207.772Z" fill="#8B75F3"></path><path d="M145.156 213.757C145.226 213.757 145.296 213.743 145.366 213.715L147.428 212.341C147.89 212.152 148.251 211.652 148.347 211.046L148.324 208.378C148.363 208.143 148.276 207.874 148.095 207.709C147.929 207.563 147.712 207.521 147.514 207.605L147.488 207.619L145.453 208.976C144.99 209.165 144.629 209.665 144.534 210.27L144.556 212.935C144.518 213.17 144.604 213.439 144.786 213.603C144.894 213.701 145.025 213.75 145.159 213.75L145.156 213.757ZM147.721 207.916C147.798 207.916 147.855 207.954 147.89 207.986C147.983 208.07 148.028 208.213 148.005 208.357L148.028 211.022C147.954 211.473 147.67 211.872 147.287 212.029L145.226 213.404C145.127 213.442 145.031 213.383 144.987 213.341C144.894 213.257 144.85 213.114 144.872 212.974L144.85 210.305C144.923 209.854 145.207 209.455 145.59 209.298L147.638 207.933C147.667 207.923 147.696 207.919 147.724 207.919L147.721 207.916Z" fill="#0B0B0B"></path><path d="M146.425 199.045L143.719 200.682C143.141 200.924 142.714 201.518 142.599 202.239L142.513 205.023C142.5 205.352 142.538 205.684 142.896 205.828L145.053 207.171L148.132 201.63L147.057 199.231C146.903 199.038 146.661 198.947 146.418 199.045H146.425Z" fill="#0B0B0B"></path><path d="M145.111 207.409L148.317 201.641L147.181 199.116C146.971 198.85 146.661 198.762 146.368 198.881L146.349 198.892L143.643 200.529C143.033 200.781 142.564 201.428 142.443 202.208L142.357 205.013C142.347 205.24 142.328 205.779 142.845 205.989L145.111 207.402V207.409ZM147.954 201.624L144.999 206.937L142.979 205.678C142.734 205.576 142.66 205.412 142.676 205.03L142.762 202.246C142.864 201.61 143.254 201.067 143.78 200.847L146.495 199.206C146.677 199.137 146.837 199.22 146.933 199.329L147.96 201.624H147.954Z" fill="#0B0B0B"></path><path d="M147.571 201.364L145.536 202.722C145.099 202.903 144.776 203.351 144.693 203.897L144.719 206.534C144.655 206.947 144.981 207.283 145.312 207.146L147.348 205.789C147.785 205.607 148.107 205.16 148.19 204.614L148.165 201.976C148.229 201.564 147.903 201.228 147.571 201.364Z" fill="#8B75F3"></path><path d="M145.159 207.353C145.229 207.353 145.299 207.339 145.369 207.311L147.431 205.94C147.893 205.751 148.254 205.251 148.35 204.645L148.327 201.977C148.366 201.742 148.279 201.473 148.098 201.308C147.932 201.158 147.715 201.12 147.517 201.204L147.491 201.218L145.456 202.575C144.993 202.764 144.632 203.264 144.537 203.869L144.559 206.538C144.521 206.772 144.607 207.041 144.789 207.206C144.897 207.304 145.028 207.353 145.159 207.353ZM147.724 201.511C147.801 201.511 147.861 201.55 147.893 201.581C147.986 201.665 148.031 201.809 148.008 201.949L148.031 204.617C147.957 205.069 147.673 205.464 147.29 205.625L145.229 206.996C145.13 207.034 145.034 206.975 144.99 206.933C144.897 206.849 144.853 206.706 144.875 206.566L144.853 203.897C144.926 203.446 145.21 203.047 145.593 202.889L147.641 201.525C147.67 201.515 147.699 201.511 147.724 201.511Z" fill="#0B0B0B"></path><path d="M146.313 192.641L143.608 194.278C143.03 194.519 142.603 195.114 142.488 195.835L142.402 198.619C142.389 198.948 142.427 199.28 142.784 199.423L144.941 200.767L148.021 195.226L146.945 192.826C146.792 192.634 146.55 192.543 146.307 192.641H146.313Z" fill="#0B0B0B"></path><path d="M144.999 201.005L148.206 195.237L147.07 192.711C146.863 192.449 146.544 192.358 146.256 192.477L146.237 192.487L143.532 194.124C142.922 194.376 142.453 195.023 142.332 195.803L142.246 198.609C142.236 198.836 142.217 199.375 142.734 199.584L144.999 200.998V201.005ZM147.842 195.219L144.888 200.532L142.868 199.273C142.622 199.172 142.549 199.007 142.565 198.626L142.651 195.842C142.753 195.209 143.142 194.663 143.669 194.443L146.384 192.802C146.569 192.732 146.726 192.816 146.821 192.924L147.849 195.216L147.842 195.219Z" fill="#0B0B0B"></path><path d="M147.459 194.96L145.423 196.317C144.986 196.499 144.664 196.947 144.581 197.492L144.607 200.13C144.543 200.542 144.868 200.878 145.2 200.742L147.236 199.385C147.673 199.203 147.995 198.755 148.078 198.213L148.053 195.575C148.116 195.163 147.791 194.827 147.459 194.963V194.96Z" fill="#8B75F3"></path><path d="M145.047 200.945C145.117 200.945 145.187 200.931 145.257 200.903L147.318 199.531C147.781 199.343 148.142 198.842 148.237 198.237L148.215 195.568C148.253 195.334 148.167 195.065 147.985 194.9C147.819 194.75 147.602 194.711 147.405 194.795L147.379 194.809L145.343 196.166C144.881 196.355 144.52 196.856 144.424 197.461L144.447 200.13C144.408 200.364 144.495 200.633 144.676 200.798C144.785 200.896 144.916 200.945 145.047 200.945ZM147.612 195.103C147.688 195.103 147.749 195.142 147.781 195.173C147.874 195.257 147.918 195.4 147.896 195.54L147.918 198.209C147.845 198.66 147.561 199.056 147.178 199.217L145.117 200.591C145.018 200.63 144.922 200.57 144.877 200.528C144.785 200.444 144.74 200.301 144.763 200.158L144.74 197.492C144.814 197.041 145.098 196.642 145.48 196.485L147.529 195.121C147.558 195.11 147.586 195.107 147.612 195.107V195.103Z" fill="#0B0B0B"></path><path d="M96.5023 144.953L97.1055 148.124L96.7931 148.195L96.1899 145.025L96.5023 144.953Z" fill="#0B0B0B"></path><path d="M97.8513 145.827L97.978 146.148L95.4362 147.354L95.3095 147.032L97.8513 145.827Z" fill="#0B0B0B"></path><path d="M67.3932 225.748C67.9196 225.468 68.5674 225.443 68.9822 225.692L72.6675 228.207C72.7728 228.27 72.8781 228.48 72.8685 228.724L72.8175 230.403C72.8047 230.816 72.5718 231.187 72.208 231.369L68.6025 233.167C68.2642 233.335 67.8654 233.314 67.5463 233.111L63.727 230.676C63.3951 230.463 63.1973 230.089 63.2101 229.69L63.242 228.605C63.2547 228.203 63.4781 227.839 63.8259 227.654L67.3932 225.755V225.748Z" fill="#FFDDDD"></path><path d="M68.1243 233.454C68.3094 233.454 68.4944 233.412 68.6667 233.324L72.2723 231.526C72.6903 231.316 72.9615 230.89 72.9743 230.407L73.0253 228.728C73.0349 228.438 72.9137 228.151 72.7382 228.049L69.0624 225.542C68.5934 225.262 67.8978 225.283 67.3202 225.587L63.753 227.486C63.3509 227.7 63.0925 228.123 63.0797 228.592L63.0478 229.676C63.035 230.138 63.2616 230.578 63.6445 230.82L67.4638 233.254C67.6648 233.384 67.8946 233.447 68.1211 233.447L68.1243 233.454ZM68.2934 225.695C68.5232 225.695 68.7369 225.744 68.9061 225.846L72.5818 228.354C72.6297 228.382 72.7158 228.515 72.7095 228.718L72.6584 230.397C72.6488 230.743 72.451 231.054 72.1415 231.208L68.5359 233.006C68.2488 233.149 67.8978 233.132 67.6266 232.957L63.8072 230.522C63.5264 230.344 63.3605 230.026 63.3701 229.693L63.402 228.609C63.4115 228.273 63.603 227.966 63.8965 227.808L67.4638 225.909C67.7255 225.769 68.019 225.699 68.2934 225.699V225.695Z" fill="#0B0B0B"></path><path d="M45.1634 128.425L47.6506 130.009L48.3603 127.9L50.8476 129.484L51.1658 128.538L51.8755 126.429L49.3882 124.845L50.0978 122.736L47.6106 121.152L53.995 102.174L83.8306 121.175L77.4462 140.153L74.9612 138.569L74.2516 140.678L71.7643 139.094L71.446 140.04L70.7364 142.149L73.2237 143.733L72.514 145.842L74.999 147.426L68.6145 166.404L38.7789 147.403L45.1634 128.425ZM65.0593 159.02L69.3171 146.369L66.8298 144.785L67.5395 142.676L65.2361 141.208L67.6833 133.935L69.9867 135.403L70.6963 133.294L73.1812 134.878L77.4391 122.227L57.5479 109.558L53.29 122.209L55.7773 123.793L55.0677 125.902L57.1966 127.259L54.7494 134.532L52.6205 133.175L51.9109 135.284L49.4236 133.7L45.1657 146.351L65.0569 159.02H65.0593Z" fill="#D7FF65"></path><path d="M68.6733 166.595L75.1426 147.369L72.6553 145.785L73.365 143.676L70.8777 142.092L71.8231 139.282L74.3103 140.867L75.02 138.758L77.5073 140.342L83.9766 121.118L83.8917 121.064L53.9359 101.985L47.4666 121.209L49.9538 122.793L49.2442 124.902L51.7315 126.486L50.7861 129.296L48.3012 127.711L47.5915 129.82L45.1042 128.236L38.6349 147.462L38.7198 147.517L68.6757 166.595H68.6733ZM74.8526 147.485L68.5507 166.218L38.9226 147.349L45.2245 128.616L47.7118 130.2L48.4214 128.091L50.9087 129.676L52.0191 126.375L49.5342 124.791L50.2438 122.682L47.7565 121.098L54.0585 102.365L83.6866 121.235L77.3847 139.967L74.8974 138.383L74.1878 140.492L71.7005 138.907L70.59 142.208L73.075 143.792L72.3653 145.901L74.8526 147.485ZM65.1204 159.211L69.4607 146.312L66.9735 144.728L67.6831 142.619L65.3797 141.151L67.7444 134.126L70.0478 135.594L70.7574 133.485L73.2424 135.069L77.5827 122.173L77.4978 122.118L57.4864 109.372L53.1461 122.271L55.6333 123.855L54.9237 125.964L57.0526 127.321L54.6879 134.346L52.559 132.989L51.8494 135.098L49.3621 133.514L45.0217 146.413L65.118 159.214L65.1204 159.211ZM69.1708 146.428L64.9978 158.834L45.3141 146.297L49.487 133.891L51.9743 135.475L52.684 133.366L54.8129 134.723L57.3426 127.205L55.2137 125.848L55.9233 123.739L53.436 122.155L57.609 109.749L77.2927 122.286L73.1198 134.692L70.6348 133.108L69.9252 135.217L67.6218 133.749L65.0921 141.267L67.3955 142.735L66.6858 144.844L69.1731 146.428H69.1708Z" fill="#8B75F3"></path><path d="M71.2849 173.108L72.749 168.756L34.7938 144.583L33.3274 148.932L71.2849 173.108Z" fill="#D7FF65"></path><path d="M71.346 173.297L72.8926 168.699L72.8077 168.645L34.7299 144.392L33.1833 148.99L33.2682 149.044L71.346 173.297ZM72.6026 168.813L71.221 172.92L33.4709 148.876L34.8525 144.769L72.6026 168.813Z" fill="#8B75F3"></path><path d="M87.7976 124.031L89.2617 119.681L51.3042 95.5056L49.8401 99.8579L87.7976 124.031Z" fill="#D7FF65"></path><path d="M87.8592 124.222L89.4058 119.624L89.3209 119.57L51.2431 95.3169L49.6965 99.9147L49.7814 99.969L87.8592 124.222ZM89.1158 119.738L87.7342 123.845L49.9841 99.801L51.3657 95.6942L89.1158 119.738Z" fill="#8B75F3"></path><path d="M64.5645 129.227L63.7772 131.51L61.9512 130.284L62.7191 128.05L61.6663 127.377L62.4218 125.387L61.1072 124.549L61.8627 122.559L60.5481 121.721L61.3036 119.731L59.989 118.891L60.7463 116.903L59.4316 116.063L60.4685 113.355L74.9311 122.584L73.8943 125.292L72.5796 124.454L71.8224 126.442L70.5077 125.604L69.7522 127.594L68.4376 126.754L67.6803 128.744L66.3657 127.904L65.6102 129.895L64.5645 129.227Z" fill="#0B0B0B"></path><path d="M60.4262 113.216L59.3203 116.104L60.6349 116.944L59.8794 118.934L61.194 119.774L60.4385 121.764L61.7532 122.604L60.9976 124.594L62.3123 125.433L61.5568 127.424L62.6131 128.097L61.8452 130.329L63.8268 131.66L64.6142 129.373L65.6581 130.038L66.4136 128.048L67.7282 128.888L68.4838 126.898L69.7984 127.738L70.5539 125.748L71.8685 126.588L72.624 124.597L73.9386 125.435L75.0445 122.545L60.4279 113.218L60.4262 113.216ZM59.5432 116.022L60.5111 113.493L74.8198 122.623L73.852 125.15L72.5373 124.31L71.7818 126.3L70.4672 125.461L69.7117 127.451L68.3971 126.611L67.6415 128.601L66.3269 127.761L65.5714 129.751L64.5222 129.082L63.7366 131.365L62.0628 130.242L62.8325 128.005L61.7815 127.334L62.537 125.344L61.2224 124.504L61.9779 122.514L60.6632 121.674L61.4188 119.684L60.1041 118.845L60.8596 116.854L59.545 116.017L59.5432 116.022Z" fill="#0B0B0B"></path><path d="M285.012 55.4702C286.178 52.9165 286.826 50.4647 286.689 48.5667C286.563 46.7859 285.783 45.5423 284.447 44.965C280.866 43.4261 279.676 41.8123 279.31 40.7334C279.015 39.8635 279.24 39.2753 279.252 39.2504C279.419 38.837 279.282 38.3252 278.944 38.1134C278.606 37.9016 278.191 38.0466 278.007 38.449C277.951 38.5732 277.475 39.708 277.977 41.2783C278.638 43.3566 280.654 45.1372 283.975 46.562C284.793 46.9112 285.206 47.5938 285.289 48.7047C285.618 53.3084 280.004 62.4388 274.559 66.1568C272.453 67.5937 269.456 68.8783 267.122 66.8412C265.76 65.6507 264.353 63.8538 262.993 62.12C260.001 58.3044 256.903 54.3541 253.484 55.5524C248.638 57.253 244.675 69.2102 240.622 94.3271C235.903 123.593 228.998 140.616 218.892 147.899C211.057 153.546 200.947 153.573 186.097 147.994C171.375 142.462 162.89 141.6 157.736 145.104C153.426 148.028 151.533 153.713 149.714 162.537C149.619 162.992 149.852 163.457 150.231 163.567C150.609 163.682 150.99 163.398 151.085 162.943C152.809 154.574 154.561 149.211 158.429 146.582C163.215 143.332 171.365 144.236 185.679 149.614C200.943 155.345 211.411 155.264 219.618 149.353C230.093 141.803 237.21 124.423 242.011 94.648C245.837 70.8963 249.722 58.6408 253.882 57.1838C256.478 56.2733 259.268 59.838 261.973 63.2819C263.383 65.0738 264.834 66.9262 266.303 68.2132C268.628 70.2449 271.723 70.0491 275.259 67.6327C279.145 64.9768 282.92 60.0508 285.019 55.4553L285.012 55.4702Z" fill="#0B0B0B"></path><defs><linearGradient id="paint0_linear_4501_21852" x1="68.9413" y1="110.588" x2="89.2377" y2="80.1138" gradientUnits="userSpaceOnUse"><stop></stop><stop offset="0.24" stop-color="#010202"></stop><stop offset="0.38" stop-color="#050A08"></stop><stop offset="0.5" stop-color="#0B1914"></stop><stop offset="0.61" stop-color="#152D25"></stop><stop offset="0.7" stop-color="#21473A"></stop><stop offset="0.79" stop-color="#306855"></stop><stop offset="0.87" stop-color="#428E74"></stop><stop offset="0.95" stop-color="#56BA98"></stop><stop offset="1" stop-color="#64D8B1"></stop></linearGradient></defs></svg>