<svg xmlns="http://www.w3.org/2000/svg" width="70" height="68" viewBox="0 0 70 68" fill="none"><g id="Group 44371"><path id="Vector" d="M28.9361 67.8611C24.4586 67.8611 20.1364 66.8673 16.1507 64.8796C14.572 64.0913 13.0708 63.166 11.6991 62.1379C10.6121 61.8294 9.65451 61.4524 8.72279 60.9384C5.30646 59.1906 2.84773 56.1747 1.57955 52.1993C0.41489 48.6693 0.181958 44.3854 0.932516 40.5128C1.47602 37.6683 2.48539 34.8581 3.93475 32.1849C7.27343 23.5829 14.1837 17.9282 19.0753 14.4325C22.4916 11.9993 26.2962 9.63455 31.0583 6.99567C31.8865 6.55015 32.6889 6.07035 33.4912 5.59056C34.5006 5.00795 35.5358 4.39107 36.5452 3.84273L37.1146 3.53429C38.4863 2.8146 39.8839 2.02636 41.2038 1.10104C41.3591 0.99823 41.5403 0.929688 41.7214 0.929688C42.2132 0.929688 42.6791 1.40948 42.8085 2.06063C42.912 2.64324 42.7308 3.22585 42.3167 3.53429C42.1614 3.6371 41.9803 3.77419 41.825 3.91127C41.6697 4.04836 41.5144 4.15117 41.3591 4.25398C38.2275 6.51588 34.9405 8.5036 31.7313 10.4228C32.663 10.1143 33.5947 9.8059 34.5264 9.566C38.8486 8.36652 42.6014 7.78391 46.0177 7.78391C49.4341 7.78391 52.4104 8.36652 55.1021 9.49746C58.0267 10.7312 60.5113 12.7875 62.9182 15.9747C66.4122 20.6013 68.4309 25.0223 69.1556 29.5461C70.8638 40.4785 64.9111 48.8064 61.2101 52.8161C55.4644 59.0192 47.9588 63.6458 39.4957 66.2504C35.8723 67.3471 32.3524 67.9297 28.9878 67.9297L28.9361 67.8611ZM20.5505 62.9604C21.3787 63.2346 22.2328 63.4744 23.1128 63.6801C25.028 64.1256 27.0209 64.3312 29.0396 64.3312C34.0347 64.3312 39.4698 62.9604 45.1637 60.2872C54.0668 56.0719 60.2007 50.7599 63.9535 43.9742C65.3511 41.4381 66.9816 37.4627 66.8004 32.8361C66.5675 27.4555 64.2123 22.966 62.2453 20.1215C60.356 17.3798 58.0008 14.4325 54.7656 13.0274C52.1775 11.9307 49.3305 11.3824 46.0436 11.3824H45.6036C38.6157 11.4852 31.0583 13.6785 23.7598 17.6883C15.8401 22.0407 10.2498 27.1813 6.60052 33.4187C6.41935 33.7271 6.26406 34.0356 6.08289 34.344C5.15117 36.9143 4.71119 39.6218 4.78883 42.3292C5.02176 51.034 9.44746 56.209 13.1744 59.0535C13.3555 59.0877 13.5626 59.1563 13.7438 59.1906C15.4002 59.5333 17.1083 59.7046 18.9977 59.7046C20.887 59.7046 23.0869 59.5333 25.4939 59.122C31.6277 58.1624 38.0722 56.2775 46.3801 53.0218C46.4836 52.9875 46.5871 52.9532 46.6648 52.9532C47.1565 52.9532 47.5706 53.433 47.6483 54.1184C47.7259 54.7696 47.4412 55.3522 46.9753 55.5578C41.9544 57.5798 37.0369 59.5333 32.016 60.9041C27.7455 62.0693 23.9928 62.7547 20.5764 62.9261L20.5505 62.9604Z" fill="#8B75F3"></path><path id="Vector 264 (Stroke)" fill-rule="evenodd" clip-rule="evenodd" d="M33.8926 35.8108C34.1435 35.8487 34.3934 35.8864 34.6424 35.9237C38.3781 36.4834 42.0168 36.5324 45.8785 36.5324C46.405 36.5324 46.7661 36.5358 46.9833 36.5429C47.063 36.5456 47.2056 36.5503 47.3261 36.5702L47.3287 36.5706C47.3531 36.5746 47.4739 36.594 47.6148 36.6521C47.6158 36.6525 47.6171 36.653 47.6188 36.6537C47.6618 36.6708 47.9415 36.7819 48.202 37.0951C48.3596 37.2846 48.6345 37.6998 48.6873 38.3517C48.743 39.04 48.5181 39.5575 48.3402 39.8352C48.0727 40.2529 47.7442 40.4081 47.7067 40.4258C47.7053 40.4265 47.7043 40.4269 47.7038 40.4272C47.6095 40.4744 47.5317 40.4994 47.4975 40.5099C47.4231 40.5327 47.3611 40.5443 47.3361 40.5489C47.1061 40.5906 46.406 40.6272 45.7298 40.6625L45.7292 40.6626C45.5178 40.6736 45.298 40.6849 45.0749 40.6964C44.6975 40.7159 44.3106 40.7358 43.9388 40.7557C43.7483 40.9986 43.5066 41.1807 43.2282 41.2707C38.1432 42.9134 32.7032 43.2706 27.4392 42.2178C25.5555 42.6624 23.8013 42.9297 21.8122 42.9297C20.9578 42.9297 20.2651 42.0346 20.2651 40.9305C20.2651 40.5617 20.3424 40.2162 20.4772 39.9196C20.1975 39.7765 19.8458 39.5573 19.5691 39.2112C19.3804 38.9751 19.0256 38.4259 19.0374 37.5899C19.0495 36.7275 19.4401 36.1875 19.6588 35.9543C20.0369 35.5511 20.5031 35.4023 20.6932 35.3432C20.9661 35.2585 21.2693 35.198 21.5584 35.1524C22.7009 34.9725 24.2163 34.9394 24.6128 34.9332C27.7585 34.8842 30.8918 35.3575 33.8926 35.8108Z" fill="#8B75F3"></path><g id="Group 44325"><path id="Vector 263 (Stroke)" fill-rule="evenodd" clip-rule="evenodd" d="M35.7987 21.2175C35.8098 21.4679 35.814 21.7792 35.814 22.1361C35.814 22.2595 35.8139 22.3829 35.8136 22.5064C35.9008 22.4786 35.9911 22.464 36.0836 22.464C36.8282 22.464 37.4318 23.4079 37.4318 24.5723C37.4318 27.0268 37.3147 29.4069 37.1909 31.7152C37.178 31.9569 37.165 32.1977 37.152 32.4376C37.0398 34.5124 36.9308 36.5293 36.8919 38.5957C36.8693 39.7971 36.8078 41.5635 36.6977 43.322C36.5902 45.0381 36.4274 46.9048 36.1779 48.2216C36.0502 48.8956 35.9751 49.3934 35.931 49.7145C35.9122 49.8514 35.8989 49.9561 35.8876 50.0453C35.8855 50.0625 35.8834 50.0792 35.8813 50.0954L35.8808 50.0996C35.8759 50.1376 35.8666 50.2108 35.8563 50.2781L35.856 50.2802C35.852 50.3067 35.8365 50.4076 35.8095 50.5254L35.8092 50.5265C35.7987 50.5723 35.7593 50.7442 35.6809 50.9395C35.6432 51.0336 35.5521 51.247 35.3925 51.4514C35.2279 51.6624 34.88 51.9961 34.3985 51.9181C33.9228 51.8411 33.63 51.412 33.501 51.17C33.3733 50.9303 33.3103 50.7028 33.2845 50.6019C33.2422 50.4368 33.2213 50.2923 33.2118 50.2155C33.0961 50.266 32.9741 50.2931 32.8481 50.2931C32.1036 50.2931 31.5 49.3492 31.5 48.1848C31.5 46.435 31.6425 44.7072 31.7732 43.1217L31.7807 43.0305C31.9171 41.3746 32.0393 39.8598 32.0393 38.3463C32.0393 35.5118 32.3157 30.007 32.5857 25.9486C32.7201 23.9294 32.8597 22.1609 32.9725 21.2234C32.9988 21.0042 33.0356 20.7257 33.0872 20.4833C33.0877 20.4813 33.0882 20.4787 33.0889 20.4754C33.1035 20.405 33.1782 20.0451 33.355 19.7098C33.4335 19.5609 33.7664 18.9615 34.3638 18.9309C35.0375 18.8965 35.4123 19.591 35.5249 19.8432C35.6485 20.12 35.7014 20.3795 35.7204 20.4773C35.7451 20.6051 35.7593 20.7174 35.7677 20.7934C35.7846 20.9461 35.7933 21.0962 35.7987 21.2175Z" fill="#8B75F3"></path></g></g></svg>