<svg xmlns="http://www.w3.org/2000/svg" width="216" height="48" viewBox="0 0 216 48" fill="none"><g id="saastock-logos-id2RM2Rio6 1" clip-path="url(#clip0_4506_23463)"><g id="Group"><g id="Group_2"><g id="Clip path group"><mask id="mask0_4506_23463" style="mask-type:luminance" maskUnits="userSpaceOnUse" x="0" y="1" width="30" height="47"><g id="SVGID_2_"><path id="Vector" d="M14.6531 1.12256C11.177 1.17601 8.02173 2.61922 5.72215 4.91766C3.47605 7.2161 2.08561 10.4232 2.13908 13.8976C2.13908 17.372 3.58301 20.5791 5.88259 22.8241C8.18217 25.0691 11.3909 26.4589 14.867 26.4589H14.9205C16.7922 26.4589 18.3966 27.1537 19.6266 28.3831C20.8566 29.6125 21.6053 31.2161 21.6053 33.0869C21.6053 34.9577 20.9101 36.5613 19.6801 37.7907C18.4501 39.0201 16.8457 39.7684 14.9739 39.7684C13.1022 39.7684 11.4978 39.0736 10.2678 37.8442C9.03782 36.6148 8.28912 35.0112 8.28912 33.1404L0.267334 33.1938C0.320813 37.2562 1.97865 40.8909 4.65258 43.5101C7.32651 46.1292 11.0165 47.7328 15.0809 47.7328C19.1453 47.6793 22.7818 46.0223 25.4023 43.3497C28.0227 40.6771 29.6271 36.9889 29.6271 32.9266C29.5736 28.8642 27.9158 25.2295 25.2418 22.6103C22.5679 19.9912 18.8779 18.3876 14.8135 18.3876H14.76C13.4765 18.3876 12.3535 17.9065 11.4444 17.0513C10.6957 16.2495 10.1609 15.127 10.1609 13.8442C10.1609 12.5613 10.6422 11.4388 11.4978 10.5301C12.3535 9.6749 13.4765 9.14038 14.76 9.14038C16.0435 9.14038 17.1666 9.62144 18.0757 10.4767C18.9314 11.3319 19.4661 12.4544 19.4661 13.7373L27.4879 13.6838C27.4345 10.2094 25.9905 7.05574 23.691 4.7573C21.3914 2.51231 18.2361 1.12256 14.76 1.12256C14.76 1.12256 14.7066 1.12256 14.6531 1.12256Z" fill="white"></path></g></mask><g mask="url(#mask0_4506_23463)"><path id="Vector_2" d="M0 1.12276L29.7341 0.962402L30.0015 47.7864L0.320872 48.0003L0 1.12276Z" fill="#AAAAAA"></path></g></g></g><g id="Group_3"><g id="Clip path group_2"><mask id="mask1_4506_23463" style="mask-type:luminance" maskUnits="userSpaceOnUse" x="100" y="0" width="31" height="47"><g id="SVGID_5_"><path id="Vector_3" d="M115.086 0.213867C111.61 0.267319 108.401 1.71053 106.155 4.00897C103.909 6.30741 102.518 9.51453 102.518 12.9889C102.572 16.4633 104.016 19.6704 106.315 21.9154C108.615 24.1604 111.824 25.5502 115.3 25.5502H115.353C117.225 25.5502 118.829 26.245 120.059 27.4744C121.289 28.7038 122.038 30.3074 122.038 32.1782C122.038 34.0491 121.343 35.6526 120.113 36.882C118.883 38.1114 117.279 38.8597 115.407 38.8597C113.535 38.8597 111.931 38.1649 110.701 36.9355C109.471 35.7061 108.722 34.1025 108.722 32.2317L100.7 32.2851C100.754 36.3475 102.412 39.9822 105.085 42.6014C107.759 45.2205 111.449 46.8241 115.514 46.8241C119.578 46.7707 123.215 45.1136 125.835 42.441C128.456 39.7684 130.06 36.0802 130.06 32.0179C130.006 27.9555 128.349 24.3208 125.675 21.7016C123.001 19.0825 119.311 17.4789 115.246 17.4789H115.193C113.909 17.4789 112.786 16.9978 111.877 16.1426C111.022 15.2874 110.487 14.1649 110.487 12.882C110.487 11.5992 110.968 10.4767 111.824 9.62144C112.679 8.76621 113.802 8.23168 115.086 8.23168C116.369 8.23168 117.492 8.71275 118.402 9.56799C119.257 10.4232 119.792 11.5457 119.792 12.8286L127.814 12.7751C127.76 9.30073 126.316 6.14705 124.017 3.84861C121.717 1.60362 118.616 0.213867 115.139 0.213867H115.086Z" fill="white"></path></g></mask><g mask="url(#mask1_4506_23463)"><path id="Vector_4" d="M100.433 0.213808L130.113 0L130.434 46.8775L100.7 47.0379L100.433 0.213808Z" fill="#AAAAAA"></path></g></g></g><g id="Group_4"><g id="Clip path group_3"><mask id="mask2_4506_23463" style="mask-type:luminance" maskUnits="userSpaceOnUse" x="31" y="18" width="37" height="30"><g id="SVGID_8_"><path id="Vector_5" d="M41.1785 37.5767C39.9485 36.3473 39.1998 34.7437 39.1998 32.8729C39.1998 31.0021 39.895 29.3985 41.125 28.1691C42.355 26.9397 43.9594 26.1914 45.8311 26.1914C47.7029 26.1914 49.3072 26.8863 50.5372 28.1157C51.7672 29.3451 52.5159 30.9486 52.5159 32.8194C52.5159 32.8194 52.5159 32.8194 52.5159 32.8729C52.5159 34.6903 51.8207 36.3473 50.5907 37.5767C49.3607 38.8061 47.7564 39.5544 45.8846 39.5544H45.8311C44.0128 39.4475 42.355 38.7526 41.1785 37.5767ZM45.6707 18.1201C41.6598 18.1736 37.9698 19.8306 35.3493 22.5032C32.7289 25.1758 31.1245 28.864 31.1245 32.9264C31.178 36.9887 32.8358 40.6235 35.5098 43.2426C38.1837 45.8618 41.8737 47.4653 45.9381 47.4653C50.0025 47.4119 53.639 45.7549 56.2594 43.0823C56.3664 42.9753 56.4734 42.8684 56.5268 42.7615C56.6338 42.8684 56.7408 42.9753 56.7942 43.0823C59.4682 45.7014 63.1582 47.305 67.2226 47.305L67.1691 39.2872C65.2973 39.2872 63.693 38.5923 62.463 37.3629C61.233 36.1869 60.4843 34.5299 60.4843 32.7125V32.6591C60.4308 28.5967 58.7729 24.962 56.099 22.3428C53.4786 19.7237 49.7885 18.1201 45.8311 18.1201C45.7776 18.1201 45.7242 18.1201 45.6707 18.1201Z" fill="white"></path></g></mask><g mask="url(#mask2_4506_23463)"><path id="Vector_6" d="M30.9106 18.1201L67.2761 17.9062L67.49 47.5187L31.0711 47.7325L30.9106 18.1201Z" fill="#AAAAAA"></path></g></g></g><g id="Group_5"><g id="Clip path group_4"><mask id="mask3_4506_23463" style="mask-type:luminance" maskUnits="userSpaceOnUse" x="65" y="17" width="38" height="31"><g id="SVGID_11_"><path id="Vector_7" d="M75.9929 37.2029C74.7629 35.9735 74.0142 34.37 74.0142 32.4991C74.0142 30.6283 74.7094 29.0247 75.9394 27.7954C77.1695 26.566 78.7738 25.8176 80.6456 25.8176C82.5173 25.8176 84.1217 26.5125 85.3517 27.7419C86.5817 28.9713 87.3304 30.5749 87.3304 32.4457V32.4991C87.3304 34.3165 86.6352 35.9735 85.4052 37.2029C84.1751 38.4323 82.5708 39.1807 80.699 39.1807H80.6456C78.8273 39.1272 77.2229 38.4323 75.9929 37.2029ZM80.5386 17.7998C76.4742 17.8533 72.8377 19.5103 70.2172 22.1829C67.5968 24.8555 65.9924 28.5437 65.9924 32.606C66.0459 36.6684 67.7037 40.3031 70.3777 42.9223C73.0516 45.5415 76.7416 47.145 80.806 47.145C84.8704 47.0916 88.5069 45.4345 91.1274 42.7619C91.2343 42.655 91.3413 42.5481 91.3948 42.4412C91.5017 42.5481 91.6087 42.655 91.6621 42.7619C94.3361 45.3811 98.0261 46.9847 102.09 46.9847L102.037 38.9668C100.165 38.9668 98.5609 38.272 97.3309 37.0426C96.1009 35.8666 95.3522 34.2096 95.3522 32.3922V32.3388C95.2987 28.2764 93.6409 24.6417 90.9669 22.0225C88.3465 19.4034 84.6565 17.7998 80.699 17.7998H80.5386Z" fill="white"></path></g></mask><g mask="url(#mask3_4506_23463)"><path id="Vector_8" d="M65.7786 17.7997L102.144 17.5859L102.358 47.1984L65.939 47.4122L65.7786 17.7997Z" fill="#AAAAAA"></path></g></g></g><g id="Group_6"><g id="Clip path group_5"><mask id="mask4_4506_23463" style="mask-type:luminance" maskUnits="userSpaceOnUse" x="131" y="4" width="16" height="43"><g id="SVGID_14_"><path id="Vector_9" d="M131.022 4.11595L131.29 32.018C131.343 36.0269 133.001 39.7151 135.675 42.3342C138.349 44.9534 142.039 46.5569 146.103 46.5569L146.05 38.5391C144.178 38.5391 142.574 37.8442 141.344 36.6148C140.114 35.3854 139.365 33.7819 139.365 31.9111L139.312 24.107L144.232 24.0536L144.178 16.0358L139.258 16.0892L139.044 4.0625L131.022 4.11595Z" fill="white"></path></g></mask><g mask="url(#mask4_4506_23463)"><path id="Vector_10" d="M130.755 4.06247L146.103 3.95557L146.371 46.5569L131.023 46.6638L130.755 4.06247Z" fill="#AAAAAA"></path></g></g></g><g id="Group_7"><g id="Clip path group_6"><mask id="mask5_4506_23463" style="mask-type:luminance" maskUnits="userSpaceOnUse" x="146" y="17" width="30" height="30"><g id="SVGID_17_"><path id="Vector_11" d="M156.051 36.4544C154.821 35.225 154.072 33.6214 154.072 31.7506C154.072 29.8798 154.767 28.2762 155.997 27.0468C157.227 25.8174 158.831 25.0691 160.703 25.0691C162.575 25.0691 164.179 25.764 165.409 26.9934C166.639 28.2228 167.388 29.8263 167.388 31.6971C167.388 33.568 166.693 35.1715 165.463 36.4009C164.233 37.6303 162.628 38.3787 160.757 38.3787H160.703C158.885 38.3787 157.281 37.6838 156.051 36.4544ZM160.596 17.0513C156.532 17.1047 152.895 18.7617 150.275 21.4343C147.654 24.1069 146.05 27.7951 146.05 31.8575C146.104 35.9199 147.761 39.5546 150.435 42.1738C153.109 44.7929 156.799 46.3965 160.864 46.3965C164.928 46.343 168.565 44.686 171.185 42.0134C173.805 39.3408 175.41 35.6526 175.41 31.5902C175.356 27.5279 173.698 23.8931 171.025 21.274C168.404 18.6548 164.714 17.0513 160.757 17.0513C160.703 17.0513 160.65 17.0513 160.596 17.0513Z" fill="white"></path></g></mask><g mask="url(#mask5_4506_23463)"><path id="Vector_12" d="M145.836 17.0512L175.463 16.8374L175.624 46.4499L145.997 46.6102L145.836 17.0512Z" fill="#AAAAAA"></path></g></g></g><g id="Group_8"><g id="Clip path group_7"><mask id="mask6_4506_23463" style="mask-type:luminance" maskUnits="userSpaceOnUse" x="176" y="16" width="16" height="31"><g id="SVGID_20_"><path id="Vector_13" d="M180.49 21.1673C177.87 23.8399 176.265 27.5281 176.265 31.5904C176.319 35.6528 177.977 39.2875 180.651 41.9067C183.325 44.5258 187.015 46.1294 191.079 46.1294L191.025 38.1116C189.154 38.1116 187.549 37.4167 186.319 36.1873C185.089 34.9579 184.341 33.3543 184.341 31.4835C184.341 29.6127 185.036 28.0091 186.266 26.7797C187.496 25.5503 189.1 24.802 190.972 24.802L190.919 16.7842C186.801 16.7842 183.111 18.4946 180.49 21.1673Z" fill="white"></path></g></mask><g mask="url(#mask6_4506_23463)"><path id="Vector_14" d="M176.052 16.7841L191.079 16.6772L191.293 46.1828L176.212 46.2363L176.052 16.7841Z" fill="#AAAAAA"></path></g></g></g><g id="Group_9"><g id="Clip path group_8"><mask id="mask7_4506_23463" style="mask-type:luminance" maskUnits="userSpaceOnUse" x="194" y="5" width="22" height="42"><g id="SVGID_23_"><path id="Vector_15" d="M194.127 5.98656L194.502 46.0756L202.523 46.0222L202.47 37.7371C203.219 39.2338 204.181 40.5701 205.358 41.6926C208.032 44.3117 211.722 45.9153 215.786 45.9153L215.733 37.8975C213.861 37.8975 212.256 37.2026 211.026 35.9732C209.796 34.7438 209.048 33.1402 209.048 31.2694C209.048 29.3986 209.743 27.795 210.973 26.5656C212.203 25.3362 213.807 24.5879 215.679 24.5879L215.626 16.5701C211.561 16.6235 207.925 18.2805 205.304 20.9531C204.181 22.1291 203.219 23.4654 202.523 24.9621L202.149 5.93311L194.127 5.98656Z" fill="white"></path></g></mask><g mask="url(#mask7_4506_23463)"><path id="Vector_16" d="M193.86 5.93331L215.733 5.77295L216 46.0758L194.127 46.2362L193.86 5.93331Z" fill="#AAAAAA"></path></g></g></g></g></g><defs><clipPath id="clip0_4506_23463"><rect width="216" height="48" fill="white"></rect></clipPath></defs></svg>