<svg xmlns="http://www.w3.org/2000/svg" width="42" height="42" viewBox="0 0 42 42" fill="none"><g clip-path="url(#clip0_3896_10484)"><path d="M10.1565 3.77746C15.5671 -0.094992 22.9562 -1.21455 29.1332 1.4732C29.6833 1.73242 29.9109 2.18096 29.9069 2.62221C54.7833 15.4254 35.542 52.6929 10.3257 39.0382C9.69701 38.7235 9.44846 37.949 9.77732 37.3265C10.1035 36.7062 10.8762 36.4722 11.4919 36.8067C31.4648 48.5002 50.3683 21.4341 33.2902 6.44626C32.0737 5.40422 30.7481 4.48309 29.3576 3.67869C29.0435 3.89977 28.6168 3.97786 28.1339 3.78443C24.5571 2.15873 20.4587 1.88057 16.6772 2.97339C4.96266 6.07704 -2.67347 21.3347 5.19021 31.6167C5.60299 32.2331 4.75438 32.8633 4.28221 32.2948C-3.05196 23.3729 1.05051 9.78879 10.1565 3.77746Z" fill="#D7FF65"></path><path d="M13.149 14.4329C13.7801 11.6913 16.0973 10.391 17.9173 11.2746C20.6014 12.2427 20.5592 18.8151 18.5457 16.9851C18.1749 16.4008 17.8434 15.7918 17.4487 15.3089C17.0407 14.5909 16.3685 13.7249 15.6526 14.0566C14.8453 14.3143 14.2999 15.4549 14.5376 16.6444C14.748 18.4074 13.0156 18.4806 13.0537 16.6885C12.9605 15.9409 12.9863 15.1599 13.149 14.4329Z" fill="#D7FF65"></path><path d="M26.5678 15.9616C26.6015 17.3633 24.8028 17.6557 25.0179 14.8634C25.1124 12.0287 27.7118 10.3458 29.8007 11.2414C32.3881 12.0141 32.7421 17.6148 30.5986 16.2234C30.0309 15.5468 29.5263 14.9005 29.0041 14.1763C27.9874 12.5584 26.0721 14.1378 26.5678 15.9616Z" fill="#D7FF65"></path><path d="M29.4601 26.306C29.1559 26.7166 28.5765 26.803 28.1658 26.4988C24.2733 23.8977 18.1482 26.432 16.7759 30.7773C16.2047 32.4642 13.6947 31.4832 14.4319 29.8517C16.2862 25.9564 20.7026 23.6235 24.9514 23.9246C26.0439 24.0595 30.619 24.4895 29.4601 26.306Z" fill="#D7FF65"></path></g><defs><clipPath id="clip0_3896_10484"><rect width="42" height="42" fill="white" transform="matrix(-1 0 0 1 42 0)"></rect></clipPath></defs></svg>