<svg xmlns="http://www.w3.org/2000/svg" width="229" height="50" viewBox="0 0 229 50" fill="none"><path fill-rule="evenodd" clip-rule="evenodd" d="M79.784 31.0626C79.784 33.0553 79.0347 34.6095 77.5224 35.7653C76.0101 36.9078 73.929 37.479 71.2374 37.479C68.7677 37.479 66.5756 37.0406 64.6748 36.1505V31.8198C66.2426 32.484 67.5607 32.949 68.6429 33.2147C69.7251 33.4804 70.7101 33.6265 71.612 33.6265C72.6942 33.6265 73.5128 33.4272 74.0955 33.042C74.6782 32.6567 74.9557 32.0722 74.9557 31.3017C74.9557 30.8766 74.8308 30.4913 74.5811 30.1459C74.3313 29.8138 73.9567 29.4817 73.4573 29.1762C72.9578 28.8706 71.9588 28.3658 70.4604 27.6883C69.0452 27.0507 67.9769 26.4528 67.2693 25.8683C66.5617 25.2838 65.9929 24.6063 65.5766 23.8358C65.1604 23.0653 64.9384 22.162 64.9384 21.1258C64.9384 19.1729 65.6321 17.6452 67.0196 16.5293C68.407 15.4134 70.3355 14.8555 72.7774 14.8555C73.9845 14.8555 75.1361 14.9883 76.2183 15.2673C77.3143 15.533 78.452 15.9182 79.6452 16.4098L78.0635 20.0364C76.8287 19.5582 75.802 19.2128 74.9973 19.0268C74.1926 18.8408 73.3879 18.7345 72.6109 18.7345C71.6813 18.7345 70.9738 18.9338 70.4743 19.3456C69.9748 19.7575 69.7251 20.2888 69.7251 20.9531C69.7251 21.3649 69.8222 21.7236 70.0303 22.0291C70.2245 22.3347 70.5575 22.6269 70.9876 22.9192C71.4316 23.2114 72.4583 23.7162 74.0955 24.4602C76.2599 25.4432 77.7444 26.4263 78.5491 27.4226C79.3816 28.419 79.784 29.6279 79.784 31.0626ZM97.3211 37.1735H83.974V15.1743H97.3211V19.0002H88.8994V23.8358H96.7384V27.6617H88.8994V33.3342H97.335V37.1735H97.3211Z" fill="#AAAAAA"></path><mask id="mask0_4506_21033" style="mask-type:luminance" maskUnits="userSpaceOnUse" x="106" y="13" width="123" height="32"><mask id="mask1_4506_21033" style="mask-type:luminance" maskUnits="userSpaceOnUse" x="-20" y="-39" width="265" height="127"><path d="M245 -39H-20V88H245V-39Z" fill="white"></path></mask><g mask="url(#mask1_4506_21033)"><path d="M110.017 25.3634H112.667C114.443 25.3634 115.733 25.0579 116.524 24.4335C117.315 23.8091 117.717 22.8925 117.717 21.6703C117.717 20.4216 117.287 19.5315 116.427 18.9868C115.566 18.4422 114.276 18.1765 112.542 18.1765H110.017V25.3634V25.3634ZM110.017 28.3391V37.1335H106.201V15.1211H112.791C115.802 15.1211 118.022 15.6524 119.465 16.7152C120.908 17.778 121.629 19.3854 121.629 21.5375C121.629 24.2741 120.117 26.2269 117.106 27.3959L123.697 37.1335H119.354L113.777 28.3391H110.017V28.3391ZM137.446 37.1335L136.697 34.8087H136.572C135.726 35.8183 134.866 36.5091 134.005 36.8811C133.145 37.2531 132.035 37.4258 130.689 37.4258C128.955 37.4258 127.609 36.9874 126.638 36.0973C125.667 35.2205 125.181 33.9585 125.181 32.3511C125.181 30.6374 125.861 29.3355 127.207 28.472C128.553 27.5952 130.606 27.117 133.381 27.0373L136.42 26.9443V26.0542C136.42 24.9914 136.156 24.1944 135.629 23.663C135.101 23.1316 134.283 22.8792 133.187 22.8792C132.285 22.8792 131.411 22.9988 130.592 23.2512C129.76 23.5036 128.969 23.7958 128.206 24.1412L126.999 21.6172C127.956 21.1389 128.997 20.7803 130.134 20.5411C131.272 20.2887 132.34 20.1692 133.353 20.1692C135.601 20.1692 137.294 20.6341 138.431 21.5508C139.569 22.4674 140.152 23.9287 140.152 25.8948V37.1069H137.446V37.1335ZM131.869 34.729C133.228 34.729 134.324 34.3703 135.143 33.653C135.962 32.9356 136.378 31.926 136.378 30.6374V29.1894L134.116 29.2823C132.354 29.3488 131.064 29.6145 130.273 30.1193C129.468 30.6108 129.066 31.3813 129.066 32.4042C129.066 33.1481 129.302 33.7194 129.774 34.1312C130.232 34.5164 130.939 34.729 131.869 34.729ZM160.616 37.1335H156.856V26.8911C156.856 25.6025 156.579 24.6461 156.038 24.0217C155.497 23.384 154.623 23.0785 153.429 23.0785C151.848 23.0785 150.682 23.5169 149.961 24.4069C149.226 25.2837 148.865 26.7716 148.865 28.844V37.1335H145.119V20.488H148.046L148.573 22.6667H148.768C149.295 21.8696 150.058 21.2585 151.029 20.8334C152 20.4083 153.096 20.1825 154.276 20.1825C158.507 20.1825 160.616 22.215 160.616 26.28V37.1335ZM169.191 28.3391L171.313 25.8417L176.641 20.488H180.956L173.866 27.6351L181.4 37.1335H177.002L171.341 29.827L169.288 31.4212V37.1202H165.569V13.7129H169.288V25.1376L169.094 28.3391H169.191ZM187.741 37.1335H183.995V20.488H187.741V37.1335ZM183.773 16.0775C183.773 15.4399 183.953 14.9616 184.328 14.6162C184.688 14.2708 185.216 14.0981 185.895 14.0981C186.548 14.0981 187.061 14.2708 187.435 14.6162C187.796 14.9616 187.99 15.4399 187.99 16.0775C187.99 16.6753 187.81 17.1536 187.435 17.499C187.075 17.8444 186.561 18.0171 185.895 18.0171C185.216 18.0171 184.688 17.8444 184.328 17.499C183.953 17.1536 183.773 16.6753 183.773 16.0775ZM208.358 37.1335H204.598V26.8911C204.598 25.6025 204.321 24.6461 203.779 24.0217C203.238 23.384 202.364 23.0785 201.171 23.0785C199.589 23.0785 198.424 23.5169 197.702 24.4069C196.981 25.297 196.606 26.7716 196.606 28.844V37.1335H192.86V20.488H195.788L196.315 22.6667H196.509C197.037 21.8696 197.8 21.2585 198.771 20.8334C199.742 20.4083 200.838 20.1825 202.017 20.1825C206.249 20.1825 208.358 22.215 208.358 26.28V37.1335ZM228.212 20.488V22.4275L225.201 22.9589C225.479 23.3043 225.701 23.7427 225.881 24.2475C226.062 24.7656 226.159 25.297 226.159 25.8682C226.159 27.5819 225.534 28.9369 224.272 29.92C223.023 30.9031 221.289 31.3946 219.097 31.3946C218.528 31.3946 218.028 31.3547 217.571 31.275C216.766 31.7533 216.363 32.2979 216.363 32.9356C216.363 33.3208 216.558 33.5998 216.932 33.7991C217.307 33.9851 218.001 34.0913 219.013 34.0913H222.094C224.036 34.0913 225.521 34.4766 226.519 35.2604C227.532 36.0442 228.032 37.1734 228.032 38.6479C228.032 40.5343 227.213 41.9956 225.562 43.0185C223.911 44.0414 221.539 44.5595 218.417 44.5595C216.017 44.5595 214.185 44.161 212.923 43.3507C211.66 42.5403 211.022 41.3978 211.022 39.9233C211.022 38.9003 211.369 38.0368 212.049 37.3461C212.728 36.642 213.7 36.1637 214.921 35.898C214.421 35.6988 214.005 35.3799 213.686 34.9283C213.367 34.4766 213.2 34.0116 213.2 33.5201C213.2 32.8957 213.38 32.3776 213.755 31.9393C214.13 31.5009 214.685 31.0758 215.406 30.6639C214.49 30.292 213.755 29.6942 213.186 28.844C212.617 28.007 212.34 27.024 212.34 25.8948C212.34 24.0881 212.937 22.6932 214.144 21.6969C215.351 20.7006 217.071 20.209 219.305 20.209C219.804 20.209 220.332 20.2356 220.873 20.302C221.414 20.3684 221.83 20.4349 222.107 20.5013H228.212V20.488ZM214.352 39.724C214.352 40.4812 214.712 41.079 215.448 41.4908C216.169 41.9026 217.196 42.1019 218.514 42.1019C220.554 42.1019 222.08 41.8229 223.079 41.2783C224.078 40.7203 224.577 39.9897 224.577 39.0863C224.577 38.369 224.3 37.8509 223.758 37.5453C223.217 37.2398 222.191 37.0804 220.706 37.0804H217.862C216.794 37.0804 215.933 37.3195 215.309 37.7977C214.671 38.2627 214.352 38.9136 214.352 39.724ZM215.961 25.8682C215.961 26.9177 216.239 27.7148 216.807 28.2727C217.376 28.8307 218.195 29.1097 219.249 29.1097C221.414 29.1097 222.496 28.0203 222.496 25.8284C222.496 24.739 222.232 23.9154 221.691 23.3176C221.15 22.7331 220.345 22.4408 219.249 22.4408C218.167 22.4408 217.349 22.7331 216.78 23.3176C216.239 23.9154 215.961 24.7656 215.961 25.8682Z" fill="white"></path></g></mask><g mask="url(#mask0_4506_21033)"><path d="M228.906 13.0488H105.507V45.2107H228.906V13.0488Z" fill="#AAAAAA"></path></g><mask id="mask2_4506_21033" style="mask-type:luminance" maskUnits="userSpaceOnUse" x="0" y="1" width="56" height="47"><mask id="mask3_4506_21033" style="mask-type:luminance" maskUnits="userSpaceOnUse" x="-20" y="-39" width="265" height="127"><path d="M245 -39H-20V88H245V-39Z" fill="white"></path></mask><g mask="url(#mask3_4506_21033)"><path d="M0.811523 5.60956C0.811523 3.4309 2.65681 1.66406 4.94608 1.66406H50.995C53.2704 1.66406 55.1296 3.44418 55.1296 5.60956V43.5369C55.1296 45.7155 53.2843 47.4824 50.995 47.4824H4.94608C2.67068 47.4824 0.811523 45.7022 0.811523 43.5369V5.60956V5.60956ZM4.5576 7.21699V41.9294C4.5576 42.9922 5.50105 43.8955 6.65262 43.8955H49.2885C50.4539 43.8955 51.3835 43.0188 51.3835 41.9294V7.21699C51.3835 6.15423 50.4401 5.25088 49.2885 5.25088H6.65262C5.48718 5.2376 4.5576 6.12766 4.5576 7.21699ZM6.43063 25.1644C6.43063 24.075 7.29084 23.185 8.35917 23.185H17.5995C18.6678 23.185 19.528 24.0618 19.528 25.1644V42.1154H6.41676V25.1644H6.43063ZM21.4149 17.9907C21.4149 16.8881 22.2751 15.9981 23.3435 15.9981H32.5838C33.6521 15.9981 34.5123 16.8748 34.5123 17.9907V42.1021H21.401V17.9907H21.4149ZM36.3992 10.8171C36.3992 9.72776 37.2594 8.8377 38.3278 8.8377H47.5681C48.6364 8.8377 49.4966 9.72776 49.4966 10.8171V42.1154H36.3853V10.8171H36.3992Z" fill="white"></path></g></mask><g mask="url(#mask2_4506_21033)"><path d="M55.8232 0.986328H0.117676V48.1464H55.8232V0.986328Z" fill="#AAAAAA"></path></g></svg>