<?xml version="1.0" encoding="UTF-8"?>
<svg xmlns="http://www.w3.org/2000/svg" width="267" height="51" viewBox="0 0 267 51" fill="none">
  <path d="M21 26.1608C35.6785 26.1608 50.357 26.1608 65.0355 26.1608C87.8682 26.1608 110.633 27.9155 133.357 28.8418C165.877 30.1674 198.461 30.3209 231.161 30.3209C235.475 30.3209 239.793 30.347 244.107 30.3209C247.928 30.2979 245.107 29.8918 243.115 29.6969C223.882 27.8153 203.966 27.1806 184.574 25.6985C169.274 24.5291 152.056 25.3338 137.137 23.2486C127.339 21.8793 116.807 20.7525 106.52 20.7525C96.6855 20.7525 86.8731 20.2848 77.0366 20.3365C76.4536 20.3396 67.3048 20.7525 71.1778 20.7525" stroke="#D7FF65" stroke-width="40.15" stroke-linecap="round"></path>
</svg>
