<svg xmlns="http://www.w3.org/2000/svg" width="218" height="39" viewBox="0 0 218 39" fill="none"><path d="M64.7425 15.7582C63.7309 14.8911 62.4302 14.313 60.985 14.313C59.9734 14.313 58.6728 14.8911 58.6728 16.0472C58.6728 17.3479 60.1179 17.7814 61.1296 18.0705L62.5748 18.504C65.6096 19.3711 67.9219 20.8163 67.9219 24.2848C67.9219 26.4526 67.3438 28.6203 65.7542 30.0655C64.02 31.5106 61.8521 32.0887 59.6844 32.0887C56.9385 32.0887 54.3372 31.2216 52.1694 29.632L54.4817 25.1519C55.9269 26.308 57.5166 27.3197 59.3954 27.3197C60.696 27.3197 62.1412 26.597 62.1412 25.1519C62.1412 23.5622 59.9735 22.9842 58.8172 22.6951C55.3488 21.6835 53.0365 20.8163 53.0365 16.6253C53.0365 12.2897 56.0714 9.39941 60.4069 9.39941C62.5748 9.39941 65.1761 10.122 67.0548 11.1336L64.7425 15.7582Z" fill="#8D8C8E"></path><path d="M80.1997 22.2651C79.9106 20.8199 78.6099 19.9528 77.3093 19.9528C75.8642 19.9528 74.5634 20.8199 74.2744 22.2651H80.1997ZM84.9687 25.1555H74.1299C74.1299 27.3232 75.2861 28.4793 77.3093 28.4793C78.4655 28.4793 79.188 28.1903 79.7661 27.1787H84.6797C83.8126 30.7916 80.6332 32.2368 77.3093 32.2368C72.5402 32.2368 68.9272 29.491 68.9272 24.4328C68.9272 19.5192 72.2511 16.6289 77.0203 16.6289C82.0783 16.6289 84.9687 19.8083 84.9687 24.7219V25.1555Z" fill="#8D8C8E"></path><path d="M91.3379 20.0955C92.4941 17.9276 94.0838 17.3496 96.1074 17.3496H97.1183V22.2632C96.2519 21.8297 95.6737 21.8297 94.9509 21.8297C92.0605 21.8297 91.3379 23.7084 91.3379 26.1652V32.0904H86.2798V17.4942H91.3379V20.0955Z" fill="#8D8C8E"></path><path d="M105.5 24.8636L108.968 17.4932H114.749L107.089 31.945H103.766L96.251 17.4932H102.031L105.5 24.8636Z" fill="#8D8C8E"></path><path d="M120.538 31.9442H115.191V17.3479H120.538V31.9442ZM120.826 12.4343C120.826 14.024 119.526 15.3246 117.936 15.3246C116.346 15.3246 115.046 14.024 115.046 12.4343C115.046 10.8446 116.346 9.54395 117.936 9.54395C119.526 9.54395 120.826 10.8446 120.826 12.4343Z" fill="#8D8C8E"></path><path d="M133.673 21.8286C132.806 21.2505 131.94 20.8169 130.928 20.8169C128.904 20.8169 127.315 22.4067 127.315 24.4299C127.315 26.5977 128.904 28.0429 130.928 28.0429C131.795 28.0429 132.662 27.6093 133.529 27.0313V31.3668C132.229 31.9449 131.072 32.2339 129.916 32.2339C125.581 32.2339 121.968 29.0545 121.968 24.5744C121.968 19.9498 125.581 16.626 130.205 16.626C131.362 16.626 132.662 16.915 133.673 17.4931V21.8286Z" fill="#8D8C8E"></path><path d="M146.262 22.2621C145.973 20.8169 144.673 19.9498 143.372 19.9498C141.927 19.9498 140.626 20.8169 140.338 22.2621H146.262ZM151.031 25.1525H140.193C140.193 27.3203 141.348 28.4764 143.372 28.4764C144.529 28.4764 145.25 28.1874 145.829 27.1758H150.742C149.875 30.7887 146.696 32.2339 143.372 32.2339C138.603 32.2339 134.99 29.4881 134.99 24.4299C134.99 19.5163 138.314 16.626 143.083 16.626C148.141 16.626 151.031 19.8054 151.031 24.719V25.1525Z" fill="#8D8C8E"></path><path d="M161.283 31.9453H155.935V15.3258H151.166V10.7012H165.907V15.3258H161.283V31.9453Z" fill="#8D8C8E"></path><path d="M172.272 31.9442H167.07V17.3479H172.272V31.9442ZM172.561 12.4343C172.561 14.024 171.261 15.3246 169.671 15.3246C168.081 15.3246 166.781 14.024 166.781 12.4343C166.781 10.8446 168.081 9.54395 169.671 9.54395C171.261 9.54395 172.561 10.8446 172.561 12.4343Z" fill="#8D8C8E"></path><path d="M180.649 31.9465H175.446V21.6858H173.856V17.4947H175.446V13.0146H180.649V17.4947H183.539V21.6858H180.649V31.9465Z" fill="#8D8C8E"></path><path d="M188.747 24.7181C188.747 26.5968 189.903 28.0419 192.07 28.0419C194.239 28.0419 195.395 26.5968 195.395 24.7181C195.395 22.9839 194.239 21.3941 192.07 21.3941C190.048 21.3941 188.747 22.9839 188.747 24.7181ZM200.453 31.944H195.251V30.3542C194.383 31.7994 192.504 32.522 190.915 32.522C186.579 32.522 183.544 28.9091 183.544 24.7181C183.544 20.527 186.579 16.9141 190.77 16.9141C192.504 16.9141 194.094 17.4922 195.251 18.7928V17.3476H200.453V31.944Z" fill="#8D8C8E"></path><path d="M207.239 19.3709C208.54 17.6367 209.986 17.0586 212.009 17.0586C215.911 17.0586 217.501 19.5154 217.501 23.1284V32.0885H212.298V25.0071C212.298 23.5619 212.587 21.2497 209.986 21.2497C207.818 21.2497 207.239 22.8393 207.239 24.5735V32.0885H202.038V17.4921H207.239V19.3709Z" fill="#8D8C8E"></path><path d="M4.04682 35.4121C4.04682 35.4121 6.21459 36.2792 6.21459 37.1463C6.21459 37.1463 6.07011 37.8689 5.34751 37.8689C4.62493 37.8689 3.61328 36.7128 3.61328 36.1347C3.61328 35.5566 4.04682 35.4121 4.04682 35.4121Z" fill="#8D8C8E"></path><path d="M1.73527 24.5733C1.59075 24.5733 1.59075 24.4287 1.73527 24.5733C1.59075 24.4287 1.59074 24.4287 1.59074 24.4287C1.15719 24.5733 0.43457 25.1514 0.43457 26.1629C0.43457 30.065 10.9844 30.4985 16.7651 37.5799C17.3432 38.3024 18.3548 38.736 19.3664 38.736C20.6671 38.736 21.9677 38.5915 23.1239 38.447C23.2685 38.447 23.4129 38.3024 23.4129 38.1579C23.4129 38.0134 23.4129 37.8689 23.4129 37.7244C16.3316 28.0417 2.89141 30.354 1.73527 24.5733Z" fill="#8D8C8E"></path><path d="M38.5859 14.3142C38.5859 14.3142 37.1407 14.6032 35.84 13.158C35.84 13.158 36.4181 13.158 36.5627 12.4355C36.4181 12.4355 37.2852 14.0251 38.5859 14.3142ZM38.1523 20.962C38.1523 20.962 37.8633 22.5517 35.9846 22.5517C33.9613 22.5517 32.2271 19.8059 31.6491 13.3026C32.0826 14.0252 32.6606 14.7478 32.9497 15.6149C32.9497 14.7478 33.3833 13.158 31.3601 11.7129C31.3601 11.7129 36.7071 12.869 36.8517 18.3607C36.8517 19.3724 36.2736 20.2394 35.9846 20.6729C35.9846 20.6729 35.6956 20.8175 35.84 21.251C35.9846 21.5401 36.4181 21.5401 36.8517 21.1066C37.2852 20.673 38.1523 20.0949 38.1523 20.962ZM30.6374 23.9969C30.6374 23.9969 29.1922 26.7428 27.169 26.7428C26.3018 26.7428 25.7238 26.1647 25.7238 25.4421C25.7238 24.7196 26.7354 21.8291 30.9264 21.8291C31.9381 21.8291 32.6607 21.9737 32.6607 22.6962C32.8052 23.1298 31.7936 24.1415 30.6374 23.9969ZM30.6374 10.2677C30.6374 10.2677 30.0593 10.1232 30.2039 9.25605C30.3484 8.96701 30.3484 8.96701 30.3484 8.53346C30.3484 8.09991 30.4929 7.66638 30.7819 7.52186C30.7819 7.52186 31.3601 7.52183 31.3601 9.11152C31.3601 9.83412 30.6374 10.2677 30.6374 10.2677ZM28.7587 10.2677C27.8916 10.1232 28.4697 8.82251 27.8916 8.82251C27.6025 8.82251 27.6025 10.2677 27.3135 10.1232C26.7354 9.68962 27.169 8.678 27.169 8.24445C27.169 7.8109 27.458 7.23283 27.0244 7.52186C26.5909 7.8109 26.3019 8.53345 26.1573 9.11152C26.0128 9.6896 26.3019 9.97865 26.5909 10.7013C26.8799 11.4238 26.4463 11.1348 26.4463 11.1348C24.2786 9.83416 25.8683 6.94375 25.8683 6.94375C26.8799 5.35406 28.3251 5.78763 28.3251 5.78763C28.6142 5.93215 28.6141 6.07666 28.6141 6.36569C28.6141 6.65473 28.7587 6.79924 29.0478 6.94375C29.4813 7.08827 29.6258 7.52183 29.6258 8.38893C29.6258 9.40057 29.0477 10.4122 28.7587 10.2677ZM32.0826 10.1232L35.6956 11.2793C35.6956 11.2793 36.4181 12.5799 34.973 12.1464C33.6723 11.7128 32.3716 11.4238 32.3716 11.4238C32.3716 11.4238 31.7936 10.9903 32.0826 10.1232ZM14.3068 15.6149C11.7055 16.0484 10.8384 15.3259 10.8384 14.6032C10.8384 12.58 16.7637 10.9903 18.3534 10.9903C18.6424 11.4238 18.0643 11.4238 17.9198 12.1464C17.6308 12.869 17.0528 13.158 16.1856 13.3026C15.3185 13.4471 14.4514 13.8807 13.8734 14.3142C13.2953 14.7478 13.8733 15.0368 14.8849 14.7478C15.8966 14.4588 16.041 14.8923 16.4747 14.7478C16.9082 14.6032 16.4747 14.0252 16.7637 14.0252C17.0527 13.8807 17.6308 14.3142 17.6308 14.3142L19.076 15.3259L17.3418 16.193C17.1972 16.193 17.0527 16.3374 17.0527 16.6265C17.0527 16.9155 17.9199 16.9155 18.3534 16.9155C18.6424 16.9155 18.7869 17.4936 18.7869 17.4936C18.3533 18.0716 17.0527 18.0716 17.0527 18.0716C17.3417 18.6497 18.9314 18.5052 19.2204 18.6497C19.5095 18.6497 19.5095 19.0833 19.7985 19.8059C19.9431 20.5285 20.9547 20.8175 20.9547 20.8175C21.2437 21.9737 19.9431 22.2627 19.076 22.2627C13.7288 21.9737 14.3068 15.6149 14.3068 15.6149ZM14.8849 7.52186C14.7404 7.52186 14.7404 7.52186 14.8849 7.52186C14.4514 5.35409 15.3185 2.89727 15.3185 2.89727C15.3185 2.89727 13.1507 4.6315 13.2953 7.52186C11.4165 7.52186 8.67066 7.66634 7.08095 9.11152C4.76867 10.9903 4.47964 14.6032 4.33512 15.6149C4.33512 15.6149 4.33511 15.7593 4.1906 15.7593H4.04607C3.468 15.4703 2.31188 14.3142 3.17899 11.8574C4.33514 8.678 7.80356 2.31918 14.5959 1.88562C14.5959 1.88562 16.7637 1.74111 18.0643 2.60821C18.0643 2.60821 18.2089 2.60822 18.2089 2.75274V2.89727C17.6308 3.33082 15.752 5.06501 15.174 7.66634C15.174 7.81086 15.0295 7.81087 15.0295 7.81087C15.0295 7.52184 14.8849 7.52186 14.8849 7.52186ZM19.9431 16.0484C19.9431 16.0484 20.5212 18.7943 21.8218 19.8059C21.8218 19.8059 21.8217 20.0949 21.3882 20.0949C20.9546 20.0949 20.2321 19.5168 19.9431 17.9272C19.654 16.482 19.9431 16.0484 19.9431 16.0484ZM21.8218 9.11152C20.2321 9.11152 19.5095 7.66634 19.5095 7.66634C19.5095 7.66634 21.3883 9.40058 23.9896 7.9554C23.9896 8.09992 23.4115 9.11152 21.8218 9.11152ZM41.7653 11.4238C41.3317 10.5567 40.7536 9.97867 39.453 9.68963C38.2969 9.40059 37.2852 9.54509 36.5627 10.1232L34.2504 9.25605C33.9614 8.67798 33.8168 8.0999 33.5278 7.66634C33.3833 7.23279 33.0943 6.94379 32.8052 6.79927C31.2155 5.93216 27.0244 3.76438 25.4348 5.93216C25.4348 5.93216 25.2902 6.07665 25.2902 6.22117L24.7121 6.07669C24.4231 5.20957 23.556 4.48695 22.3998 4.19792C21.6773 4.0534 20.9547 4.05341 20.3766 4.34244C19.9431 4.48696 19.9431 5.06504 20.3766 5.20956L22.2554 5.93216C22.6889 6.07668 22.9779 6.5102 22.6889 6.94375C22.5444 7.37731 22.1108 7.66637 21.6773 7.37734C21.6773 7.37734 20.5212 7.08831 19.6541 6.79927C19.2205 6.65476 18.787 7.08831 18.9314 7.52186C19.2205 8.38897 20.0876 9.25607 21.2437 9.5451C22.2554 9.83415 23.267 9.54508 23.9896 9.11152L24.4231 9.25605C24.4231 10.2677 25.2902 11.5684 26.0128 12.0019C27.169 12.7245 28.1806 12.1464 29.3368 11.4238C29.3368 11.4238 32.3716 13.7361 30.9264 20.5285C27.169 20.962 25.7238 22.2627 24.4231 23.7079C23.556 23.4188 20.9547 23.1298 19.5095 23.5634C19.9431 23.1298 20.5211 22.6962 21.3882 22.4072C21.8217 22.2627 21.9664 21.9737 21.9664 21.54C21.9664 21.54 23.7005 20.962 23.7005 20.3839C23.7005 19.8059 21.5327 19.8058 20.6656 15.1813C20.5211 14.6032 20.3766 14.1697 19.5095 13.8807C19.5095 13.8807 19.2205 13.4471 19.6541 12.869C20.0876 12.2909 20.2321 12.1465 20.0875 11.7129C19.9431 11.2794 19.365 10.9903 19.365 10.9903V10.2677C19.365 10.2677 17.6308 8.96701 17.6308 7.08828C17.6308 5.20954 20.0875 3.0418 20.6656 2.46373V2.3192C20.6656 2.3192 20.6656 2.17468 20.5212 2.17468C19.6541 1.5966 18.0643 0.729492 15.463 0.729492C5.34677 0.729492 3.03446 9.83412 0.866699 14.1697C0.866699 14.3142 0.866699 14.3142 0.866699 14.4587C3.03446 18.7943 6.50291 18.3606 6.79194 22.1181C6.93646 25.0086 6.21384 25.0086 5.63577 25.0086C5.20222 25.0086 4.47963 24.575 4.1906 24.2859H4.04607C4.04607 24.2859 3.90155 24.4305 4.04607 24.4305C4.3351 25.153 5.05772 26.8873 7.37 26.8873C8.52616 26.8873 8.81519 25.8757 8.81519 24.864V21.54C8.81519 21.251 8.67066 20.962 8.52614 20.6729C7.80355 19.9504 6.06935 18.3606 6.06935 17.06C6.06935 16.482 6.50287 16.193 6.93642 16.193C7.80354 16.193 8.67066 17.4935 9.39321 19.2278C9.53776 19.6614 9.82676 19.9504 9.97131 20.0949H10.1159C10.1159 20.0949 10.1159 20.0949 10.1159 19.9504C9.82676 18.9387 9.82686 17.9272 9.68231 17.4936C9.68231 17.3491 9.53776 17.0601 9.39321 16.9155C8.67066 16.3374 6.93642 14.6032 6.93642 12.0019C6.93642 8.53345 12.5726 8.82251 13.7288 8.82251C14.0178 9.97867 14.7404 10.5567 15.174 10.7013C13.4397 11.2793 9.68231 12.58 9.68231 14.7478C9.68231 17.0601 13.5843 16.9155 13.5843 16.9155C13.5843 16.9155 13.0062 21.54 17.3418 22.9853C17.3418 22.9853 16.6191 23.7079 14.3068 23.7079C12.1391 23.7079 11.1274 22.6962 10.5494 21.54C10.5494 21.54 10.5494 21.3956 10.4049 21.3956C10.4049 21.3956 10.2604 21.3956 10.2604 21.54C10.1159 21.8291 10.1159 22.4072 10.4049 22.9853C10.983 23.9969 11.8501 24.575 11.8501 25.8757C11.8501 26.8873 10.983 27.4653 10.5494 27.6099C11.4165 27.7544 15.3185 28.766 17.9198 30.0666C18.2089 29.9222 20.5211 28.477 20.6656 26.4537C20.6656 26.4537 20.8102 25.153 18.9314 25.0086C18.9314 25.0086 19.7985 24.7196 21.2437 24.7196C22.6889 24.7196 24.2786 25.8757 21.3882 31.9454C21.3882 31.9454 21.3882 31.9455 21.3882 32.0899C21.8217 32.379 25.1457 34.5467 27.3135 36.57H27.458C27.458 36.57 27.6025 36.57 27.6025 36.4255C27.8915 36.1364 28.4697 35.1248 28.7587 32.668C28.7587 32.3789 28.9032 32.2345 29.1922 32.2345C30.4929 31.8008 34.8285 30.5002 36.7071 27.8989C38.875 24.864 39.7421 24.4305 39.7421 24.4305C39.7421 24.4305 41.1873 23.5634 40.6092 21.3956C40.3201 20.2394 38.5859 17.3491 36.8517 14.3142C37.2852 14.6032 37.7188 14.7478 38.1523 14.8922C39.164 15.1813 40.1756 15.0368 40.8982 14.6032C41.0427 14.4587 41.1872 14.3142 41.1872 14.1697C41.1872 14.0251 41.0427 13.8807 40.8982 13.7361L39.0194 13.0136C38.5859 12.869 38.2969 12.2909 38.4414 11.8574C38.5859 11.4238 39.164 11.1348 39.5975 11.2793L41.3317 11.8574C41.4763 11.8574 41.6207 11.8574 41.7653 11.7129C41.9098 11.5684 41.7653 11.7128 41.7653 11.4238Z" fill="#8D8C8E"></path><path d="M3.6138 31.2225C6.21512 32.6677 11.9959 34.4019 13.152 37.4368C13.152 37.4368 13.5855 38.1594 11.2732 38.1594C9.53901 38.1594 9.10546 37.7259 7.94934 36.2807C6.21512 34.2574 2.60215 32.9568 2.60215 31.367C2.45764 31.5116 2.60217 30.6445 3.6138 31.2225Z" fill="#8D8C8E"></path></svg>