<svg xmlns="http://www.w3.org/2000/svg" width="222" height="45" viewBox="0 0 222 45" fill="none"><g clip-path="url(#clip0_4506_23387)"><path d="M0.0195314 31.0124H0.00903009C0.0270324 30.7473 0.0540359 30.4716 0.0885403 30.1914C0.298567 31.1631 0.780129 32.0278 1.46872 32.7403C3.00341 34.3267 5.54624 35.1462 8.39211 34.756C9.9118 34.5481 11.322 34.0193 12.5266 33.2781C12.5761 33.248 12.6271 33.2164 12.6767 33.1863L12.6992 33.1712C12.8522 33.0733 13.0022 32.9693 13.1477 32.8639L16.5066 30.5665L16.7287 30.4143L16.7377 30.4083C17.8883 29.6475 19.237 29.1248 20.6652 28.9531C24.5447 28.4875 27.5901 30.7819 27.5796 34.0796C27.5796 34.5632 27.5106 35.0422 27.386 35.5107C27.2255 36.1179 26.969 36.7084 26.6314 37.2658C26.6134 37.2854 26.5954 37.305 26.5789 37.3245C26.2729 37.6605 25.9459 38.01 25.5978 38.3716C25.1253 38.8612 24.6107 39.3734 24.0571 39.9006C23.178 40.7367 22.1984 41.609 21.1137 42.4903L20.9052 42.6605C19.5025 43.8883 18.3519 44.5752 16.7047 44.8765C15.035 45.1823 13.8528 44.9112 12.3886 44.167L12.1681 44.0675C7.12294 41.8154 3.89003 38.8672 2.72888 37.7584C2.67187 37.7057 2.61786 37.6515 2.56236 37.5972C2.39284 37.4315 2.30432 37.3381 2.30432 37.3381C0.804132 35.7458 -0.0524778 33.6759 0.00302932 31.3212C0.00602971 31.2188 0.0135307 31.1148 0.0195314 31.0124Z" fill="#AAAAAA"></path><path opacity="0.49" d="M16.741 30.4082L16.73 30.4145L16.7394 30.4082H16.741Z" fill="#AAAAAA"></path><path d="M0.394556 28.4134C0.604583 27.4357 0.885119 26.4113 1.22266 25.3568C2.3088 21.9627 3.95751 18.3065 5.60022 15.0615C5.27468 15.8615 5.08866 16.7036 5.07216 17.5698C5.05415 18.4541 5.21468 19.2932 5.52221 20.0675C5.75624 20.6566 6.07429 21.2064 6.46734 21.7096C7.90452 23.5445 10.3123 24.7286 13.1072 24.8807C13.6863 24.9124 14.2803 24.9018 14.8879 24.8401C15.2495 24.8039 15.6065 24.7497 15.9561 24.6819C16.0686 24.6608 16.1811 24.6367 16.2921 24.6126L21.0357 23.6756C21.3582 23.6153 21.6853 23.5671 22.0168 23.534C26.9105 23.0534 30.73 26.0317 30.727 30.1896C30.727 30.3794 30.7164 30.5677 30.7014 30.756C30.6534 31.3496 30.5319 31.9341 30.3414 32.5035C30.1719 32.8033 29.9889 33.0986 29.7893 33.3863C29.7893 33.3863 29.7158 33.4918 29.5763 33.6816C29.5313 33.7434 29.4848 33.8066 29.4383 33.8684C28.9522 34.5192 28.0161 35.744 26.6359 37.2655C26.9735 36.7081 27.23 36.1176 27.3905 35.5105C27.515 35.0419 27.5825 34.5614 27.584 34.0793C27.5945 30.7816 24.5477 28.4873 20.6697 28.9528C19.2415 29.1245 17.8928 29.6457 16.7422 30.408L16.7332 30.414C16.6581 30.4638 16.5846 30.515 16.5111 30.5662L13.1522 32.8636L12.7036 33.1709L12.6811 33.186C12.6316 33.2176 12.5821 33.2477 12.5311 33.2779C11.3265 34.019 9.91628 34.5463 8.39658 34.7557C5.55072 35.1459 3.00789 34.3279 1.47319 32.74C0.784606 32.0275 0.303045 31.1643 0.0930176 30.1911C0.163527 29.6216 0.26554 29.0266 0.397557 28.4134H0.394556Z" fill="#AAAAAA"></path><path d="M10.6303 6.06056C11.0024 5.45345 11.2214 5.11299 11.2214 5.11299L11.4239 4.79211C12.186 3.57035 13.2167 2.02772 14.5113 1.02742C15.1924 0.501657 15.9455 0.126544 16.7706 0.0271166C16.9131 0.0105453 17.0586 0 17.2057 0C19.7665 0 21.5307 2.71467 22.6274 4.57668L22.8059 4.87647C22.8059 4.87647 24.6016 7.84574 26.5729 11.8228C27.9485 14.5963 29.4082 17.8578 30.4179 20.9732C29.1262 18.6638 26.9254 16.8424 24.1486 15.803C23.973 15.7367 23.793 15.6749 23.613 15.6161C23.46 15.5649 23.3039 15.5182 23.1464 15.473C23.0849 15.455 23.0249 15.4354 22.9619 15.4173C22.9334 15.4098 22.9034 15.4022 22.8749 15.3932C22.8299 15.3811 22.7834 15.3706 22.7384 15.3585C22.5869 15.3194 22.4353 15.2787 22.2808 15.2441C22.0888 15.2004 21.8923 15.1597 21.6957 15.122C21.3102 15.0482 20.9156 14.991 20.5151 14.9458C20.4581 14.9397 20.4026 14.9307 20.3441 14.9247C20.3171 14.9217 20.2916 14.9186 20.2646 14.9156C20.053 14.8945 19.8385 14.878 19.6225 14.8644C19.5985 14.8644 19.5745 14.8614 19.5505 14.8599C19.3299 14.8478 19.1064 14.8388 18.8814 14.8343V14.8313C15.2014 14.7334 12.102 12.7795 10.9439 9.95179C10.6198 9.1624 10.4488 8.30973 10.4638 7.41639C10.4713 6.9539 10.5298 6.49895 10.6318 6.05755L10.6303 6.06056Z" fill="#AAAAAA"></path><path style="mix-blend-mode:overlay" d="M10.6303 6.06056C11.0024 5.45345 11.2214 5.11299 11.2214 5.11299L11.4239 4.79211C12.186 3.57035 13.2167 2.02772 14.5113 1.02742C15.1924 0.501657 15.9455 0.126544 16.7706 0.0271166C16.9131 0.0105453 17.0586 0 17.2057 0C19.7665 0 21.5307 2.71467 22.6274 4.57668L22.8059 4.87647C22.8059 4.87647 24.6016 7.84574 26.5729 11.8228C27.9485 14.5963 29.4082 17.8578 30.4179 20.9732C29.1262 18.6638 26.9254 16.8424 24.1486 15.803C23.973 15.7367 23.793 15.6749 23.613 15.6161C23.46 15.5649 23.3039 15.5182 23.1464 15.473C23.0849 15.455 23.0249 15.4354 22.9619 15.4173C22.9334 15.4098 22.9034 15.4022 22.8749 15.3932C22.8299 15.3811 22.7834 15.3706 22.7384 15.3585C22.5869 15.3194 22.4353 15.2787 22.2808 15.2441C22.0888 15.2004 21.8923 15.1597 21.6957 15.122C21.3102 15.0482 20.9156 14.991 20.5151 14.9458C20.4581 14.9397 20.4026 14.9307 20.3441 14.9247C20.3171 14.9217 20.2916 14.9186 20.2646 14.9156C20.053 14.8945 19.8385 14.878 19.6225 14.8644C19.5985 14.8644 19.5745 14.8614 19.5505 14.8599C19.3299 14.8478 19.1064 14.8388 18.8814 14.8343V14.8313C15.2014 14.7334 12.102 12.7795 10.9439 9.95179C10.6198 9.1624 10.4488 8.30973 10.4638 7.41639C10.4713 6.9539 10.5298 6.49895 10.6318 6.05755L10.6303 6.06056Z" fill="#AAAAAA"></path><path opacity="0.49" d="M19.5488 14.8628C19.5728 14.8628 19.5968 14.8658 19.6208 14.8673C19.5968 14.8673 19.5728 14.8643 19.5488 14.8628Z" fill="#AAAAAA"></path><path opacity="0.49" d="M19.5488 14.8628C19.5728 14.8628 19.5968 14.8658 19.6208 14.8673C19.5968 14.8673 19.5728 14.8643 19.5488 14.8628Z" fill="#AAAAAA"></path><path opacity="0.49" d="M21.5923 15.1039C21.3898 15.0663 21.1858 15.0331 20.9787 15.003C20.8257 14.9804 20.6697 14.9638 20.5137 14.9473C20.9142 14.9925 21.3088 15.0497 21.6943 15.1235C21.6598 15.1175 21.6268 15.1115 21.5923 15.1039Z" fill="#AAAAAA"></path><path opacity="0.49" d="M21.5923 15.1039C21.3898 15.0663 21.1858 15.0331 20.9787 15.003C20.8257 14.9804 20.6697 14.9638 20.5137 14.9473C20.9142 14.9925 21.3088 15.0497 21.6943 15.1235C21.6598 15.1175 21.6268 15.1115 21.5923 15.1039Z" fill="#AAAAAA"></path><path opacity="0.49" d="M22.3438 15.2607C22.3228 15.2562 22.3018 15.2501 22.2808 15.2456C22.4353 15.2803 22.5868 15.3209 22.7383 15.3601C22.6078 15.3254 22.4773 15.2908 22.3438 15.2607Z" fill="#AAAAAA"></path><path opacity="0.49" d="M22.3438 15.2607C22.3228 15.2562 22.3018 15.2501 22.2808 15.2456C22.4353 15.2803 22.5868 15.3209 22.7383 15.3601C22.6078 15.3254 22.4773 15.2908 22.3438 15.2607Z" fill="#AAAAAA"></path><path d="M5.59868 15.0618C5.7667 14.6475 5.97522 14.2468 6.21526 13.8596C8.03649 10.3616 9.76171 7.47216 10.6303 6.05908C10.5298 6.50199 10.4698 6.95544 10.4623 7.41793C10.4473 8.31127 10.6198 9.16393 10.9424 9.95333C12.1005 12.781 15.1999 14.7349 18.8799 14.8328V14.8358C19.1049 14.8403 19.3284 14.8494 19.549 14.8614C19.573 14.8614 19.597 14.8644 19.621 14.866C19.837 14.8795 20.0515 14.8961 20.2631 14.9172C20.2901 14.9202 20.3156 14.9232 20.3426 14.9262C20.3996 14.9322 20.4566 14.9398 20.5136 14.9473C20.6696 14.9654 20.8256 14.9819 20.9787 15.003C21.1857 15.0332 21.3897 15.0663 21.5922 15.104C21.6267 15.11 21.6612 15.116 21.6942 15.1236C21.8908 15.1612 22.0858 15.2019 22.2793 15.2456C22.3003 15.2501 22.3213 15.2561 22.3423 15.2606C22.4758 15.2923 22.6064 15.3269 22.7369 15.3601C22.7819 15.3721 22.8284 15.3827 22.8734 15.3947C22.9019 15.4023 22.9319 15.4098 22.9604 15.4188C23.0219 15.4369 23.0834 15.4565 23.1449 15.4746C23.2634 15.5092 23.3835 15.5439 23.5005 15.5815C23.538 15.5936 23.574 15.6056 23.6115 15.6177C23.7915 15.6779 23.9715 15.7382 24.1471 15.8045C26.9254 16.844 29.1247 18.6653 30.4164 20.9747C31.0809 23.025 31.555 25.0181 31.684 26.7837C31.696 26.9449 31.7065 27.1046 31.7125 27.2613H31.705C31.708 27.3501 31.7125 27.439 31.7125 27.5294C31.7125 29.2588 31.2145 30.9551 30.3354 32.5053C30.5259 31.9359 30.6474 31.3498 30.6954 30.7578C30.7104 30.5695 30.7209 30.3812 30.7209 30.1914C30.7239 26.0335 26.9044 23.0567 22.0108 23.5357C21.6807 23.5689 21.3537 23.6156 21.0297 23.6773L16.286 24.6129C16.175 24.637 16.0625 24.6596 15.95 24.6822C15.6005 24.75 15.2434 24.8042 14.8819 24.8403C14.2758 24.9006 13.6817 24.9127 13.1011 24.881C10.3078 24.7289 7.89847 23.5433 6.46129 21.7099C6.06674 21.2067 5.7502 20.6569 5.51617 20.0678C5.20863 19.2935 5.04961 18.4544 5.06611 17.5701C5.08411 16.7039 5.26863 15.8617 5.59418 15.0618H5.59868Z" fill="#AAAAAA"></path><path opacity="0.49" d="M23.502 15.5801C23.385 15.5424 23.265 15.5078 23.1465 15.4731C23.3025 15.5183 23.46 15.565 23.613 15.6163C23.5755 15.6042 23.5395 15.5922 23.502 15.5801Z" fill="#AAAAAA"></path><path opacity="0.49" d="M23.502 15.5801C23.385 15.5424 23.265 15.5078 23.1465 15.4731C23.3025 15.5183 23.46 15.565 23.613 15.6163C23.5755 15.6042 23.5395 15.5922 23.502 15.5801Z" fill="#AAAAAA"></path><path opacity="0.49" d="M22.8748 15.3945C22.9033 15.4021 22.9333 15.4096 22.9618 15.4186C22.9333 15.4111 22.9033 15.4036 22.8748 15.3945Z" fill="#AAAAAA"></path><path opacity="0.49" d="M22.8748 15.3945C22.9033 15.4021 22.9333 15.4096 22.9618 15.4186C22.9333 15.4111 22.9033 15.4036 22.8748 15.3945Z" fill="#AAAAAA"></path><path d="M0.0195314 31.0124H0.00903009C0.0270324 30.7473 0.0540359 30.4716 0.0885403 30.1914C0.298567 31.1631 0.780129 32.0278 1.46872 32.7403C3.00341 34.3267 5.54624 35.1462 8.39211 34.756C9.9118 34.5481 11.322 34.0193 12.5266 33.2781C12.5761 33.248 12.6271 33.2164 12.6767 33.1863L12.6992 33.1712C12.8522 33.0733 13.0022 32.9693 13.1477 32.8639L16.5066 30.5665L16.7287 30.4143L16.7377 30.4083C17.8883 29.6475 19.237 29.1248 20.6652 28.9531C24.5447 28.4875 27.5901 30.7819 27.5796 34.0796C27.5796 34.5632 27.5106 35.0422 27.386 35.5107C27.2255 36.1179 26.969 36.7084 26.6314 37.2658C26.6134 37.2854 26.5954 37.305 26.5789 37.3245C26.2729 37.6605 25.9459 38.01 25.5978 38.3716C25.1253 38.8612 24.6107 39.3734 24.0571 39.9006C23.178 40.7367 22.1984 41.609 21.1137 42.4903L20.9052 42.6605C19.5025 43.8883 18.3519 44.5752 16.7047 44.8765C15.035 45.1823 13.8528 44.9112 12.3886 44.167L12.1681 44.0675C7.12294 41.8154 3.89003 38.8672 2.72888 37.7584C2.67187 37.7057 2.61786 37.6515 2.56236 37.5972C2.39284 37.4315 2.30432 37.3381 2.30432 37.3381C0.804132 35.7458 -0.0524778 33.6759 0.00302932 31.3212C0.00602971 31.2188 0.0135307 31.1148 0.0195314 31.0124Z" fill="#AAAAAA"></path><path opacity="0.49" d="M16.741 30.4082L16.73 30.4145L16.7394 30.4082H16.741Z" fill="#AAAAAA"></path><path d="M0.394556 28.4134C0.604583 27.4357 0.885119 26.4113 1.22266 25.3568C2.3088 21.9627 3.95751 18.3065 5.60022 15.0615C5.27468 15.8615 5.08866 16.7036 5.07216 17.5698C5.05415 18.4541 5.21468 19.2932 5.52221 20.0675C5.75624 20.6566 6.07429 21.2064 6.46734 21.7096C7.90452 23.5445 10.3123 24.7286 13.1072 24.8807C13.6863 24.9124 14.2803 24.9018 14.8879 24.8401C15.2495 24.8039 15.6065 24.7497 15.9561 24.6819C16.0686 24.6608 16.1811 24.6367 16.2921 24.6126L21.0357 23.6756C21.3582 23.6153 21.6853 23.5671 22.0168 23.534C26.9105 23.0534 30.73 26.0317 30.727 30.1896C30.727 30.3794 30.7164 30.5677 30.7014 30.756C30.6534 31.3496 30.5319 31.9341 30.3414 32.5035C30.1719 32.8033 29.9889 33.0986 29.7893 33.3863C29.7893 33.3863 29.7158 33.4918 29.5763 33.6816C29.5313 33.7434 29.4848 33.8066 29.4383 33.8684C28.9522 34.5192 28.0161 35.744 26.6359 37.2655C26.9735 36.7081 27.23 36.1176 27.3905 35.5105C27.515 35.0419 27.5825 34.5614 27.584 34.0793C27.5945 30.7816 24.5477 28.4873 20.6697 28.9528C19.2415 29.1245 17.8928 29.6457 16.7422 30.408L16.7332 30.414C16.6581 30.4638 16.5846 30.515 16.5111 30.5662L13.1522 32.8636L12.7036 33.1709L12.6811 33.186C12.6316 33.2176 12.5821 33.2477 12.5311 33.2779C11.3265 34.019 9.91628 34.5463 8.39658 34.7557C5.55072 35.1459 3.00789 34.3279 1.47319 32.74C0.784606 32.0275 0.303045 31.1643 0.0930176 30.1911C0.163527 29.6216 0.26554 29.0266 0.397557 28.4134H0.394556Z" fill="#AAAAAA"></path><path d="M10.6303 6.06056C11.0024 5.45345 11.2214 5.11299 11.2214 5.11299L11.4239 4.79211C12.186 3.57035 13.2167 2.02772 14.5113 1.02742C15.1924 0.501657 15.9455 0.126544 16.7706 0.0271166C16.9131 0.0105453 17.0586 0 17.2057 0C19.7665 0 21.5307 2.71467 22.6274 4.57668L22.8059 4.87647C22.8059 4.87647 24.6016 7.84574 26.5729 11.8228C27.9485 14.5963 29.4082 17.8578 30.4179 20.9732C29.1262 18.6638 26.9254 16.8424 24.1486 15.803C23.973 15.7367 23.793 15.6749 23.613 15.6161C23.46 15.5649 23.3039 15.5182 23.1464 15.473C23.0849 15.455 23.0249 15.4354 22.9619 15.4173C22.9334 15.4098 22.9034 15.4022 22.8749 15.3932C22.8299 15.3811 22.7834 15.3706 22.7384 15.3585C22.5869 15.3194 22.4353 15.2787 22.2808 15.2441C22.0888 15.2004 21.8923 15.1597 21.6957 15.122C21.3102 15.0482 20.9156 14.991 20.5151 14.9458C20.4581 14.9397 20.4026 14.9307 20.3441 14.9247C20.3171 14.9217 20.2916 14.9186 20.2646 14.9156C20.053 14.8945 19.8385 14.878 19.6225 14.8644C19.5985 14.8644 19.5745 14.8614 19.5505 14.8599C19.3299 14.8478 19.1064 14.8388 18.8814 14.8343V14.8313C15.2014 14.7334 12.102 12.7795 10.9439 9.95179C10.6198 9.1624 10.4488 8.30973 10.4638 7.41639C10.4713 6.9539 10.5298 6.49895 10.6318 6.05755L10.6303 6.06056Z" fill="#AAAAAA"></path><path style="mix-blend-mode:overlay" d="M10.6303 6.06056C11.0024 5.45345 11.2214 5.11299 11.2214 5.11299L11.4239 4.79211C12.186 3.57035 13.2167 2.02772 14.5113 1.02742C15.1924 0.501657 15.9455 0.126544 16.7706 0.0271166C16.9131 0.0105453 17.0586 0 17.2057 0C19.7665 0 21.5307 2.71467 22.6274 4.57668L22.8059 4.87647C22.8059 4.87647 24.6016 7.84574 26.5729 11.8228C27.9485 14.5963 29.4082 17.8578 30.4179 20.9732C29.1262 18.6638 26.9254 16.8424 24.1486 15.803C23.973 15.7367 23.793 15.6749 23.613 15.6161C23.46 15.5649 23.3039 15.5182 23.1464 15.473C23.0849 15.455 23.0249 15.4354 22.9619 15.4173C22.9334 15.4098 22.9034 15.4022 22.8749 15.3932C22.8299 15.3811 22.7834 15.3706 22.7384 15.3585C22.5869 15.3194 22.4353 15.2787 22.2808 15.2441C22.0888 15.2004 21.8923 15.1597 21.6957 15.122C21.3102 15.0482 20.9156 14.991 20.5151 14.9458C20.4581 14.9397 20.4026 14.9307 20.3441 14.9247C20.3171 14.9217 20.2916 14.9186 20.2646 14.9156C20.053 14.8945 19.8385 14.878 19.6225 14.8644C19.5985 14.8644 19.5745 14.8614 19.5505 14.8599C19.3299 14.8478 19.1064 14.8388 18.8814 14.8343V14.8313C15.2014 14.7334 12.102 12.7795 10.9439 9.95179C10.6198 9.1624 10.4488 8.30973 10.4638 7.41639C10.4713 6.9539 10.5298 6.49895 10.6318 6.05755L10.6303 6.06056Z" fill="#AAAAAA"></path><path opacity="0.49" d="M19.5488 14.8628C19.5728 14.8628 19.5968 14.8658 19.6208 14.8673C19.5968 14.8673 19.5728 14.8643 19.5488 14.8628Z" fill="#AAAAAA"></path><path opacity="0.49" d="M19.5488 14.8628C19.5728 14.8628 19.5968 14.8658 19.6208 14.8673C19.5968 14.8673 19.5728 14.8643 19.5488 14.8628Z" fill="#AAAAAA"></path><path opacity="0.49" d="M21.5923 15.1039C21.3898 15.0663 21.1858 15.0331 20.9787 15.003C20.8257 14.9804 20.6697 14.9638 20.5137 14.9473C20.9142 14.9925 21.3088 15.0497 21.6943 15.1235C21.6598 15.1175 21.6268 15.1115 21.5923 15.1039Z" fill="#AAAAAA"></path><path opacity="0.49" d="M21.5923 15.1039C21.3898 15.0663 21.1858 15.0331 20.9787 15.003C20.8257 14.9804 20.6697 14.9638 20.5137 14.9473C20.9142 14.9925 21.3088 15.0497 21.6943 15.1235C21.6598 15.1175 21.6268 15.1115 21.5923 15.1039Z" fill="#AAAAAA"></path><path opacity="0.49" d="M22.3438 15.2607C22.3228 15.2562 22.3018 15.2501 22.2808 15.2456C22.4353 15.2803 22.5868 15.3209 22.7383 15.3601C22.6078 15.3254 22.4773 15.2908 22.3438 15.2607Z" fill="#AAAAAA"></path><path opacity="0.49" d="M22.3438 15.2607C22.3228 15.2562 22.3018 15.2501 22.2808 15.2456C22.4353 15.2803 22.5868 15.3209 22.7383 15.3601C22.6078 15.3254 22.4773 15.2908 22.3438 15.2607Z" fill="#AAAAAA"></path><path d="M5.59868 15.0618C5.7667 14.6475 5.97522 14.2468 6.21526 13.8596C8.03649 10.3616 9.76171 7.47216 10.6303 6.05908C10.5298 6.50199 10.4698 6.95544 10.4623 7.41793C10.4473 8.31127 10.6198 9.16393 10.9424 9.95333C12.1005 12.781 15.1999 14.7349 18.8799 14.8328V14.8358C19.1049 14.8403 19.3284 14.8494 19.549 14.8614C19.573 14.8614 19.597 14.8644 19.621 14.866C19.837 14.8795 20.0515 14.8961 20.2631 14.9172C20.2901 14.9202 20.3156 14.9232 20.3426 14.9262C20.3996 14.9322 20.4566 14.9398 20.5136 14.9473C20.6696 14.9654 20.8256 14.9819 20.9787 15.003C21.1857 15.0332 21.3897 15.0663 21.5922 15.104C21.6267 15.11 21.6612 15.116 21.6942 15.1236C21.8908 15.1612 22.0858 15.2019 22.2793 15.2456C22.3003 15.2501 22.3213 15.2561 22.3423 15.2606C22.4758 15.2923 22.6064 15.3269 22.7369 15.3601C22.7819 15.3721 22.8284 15.3827 22.8734 15.3947C22.9019 15.4023 22.9319 15.4098 22.9604 15.4188C23.0219 15.4369 23.0834 15.4565 23.1449 15.4746C23.2634 15.5092 23.3835 15.5439 23.5005 15.5815C23.538 15.5936 23.574 15.6056 23.6115 15.6177C23.7915 15.6779 23.9715 15.7382 24.1471 15.8045C26.9254 16.844 29.1247 18.6653 30.4164 20.9747C31.0809 23.025 31.555 25.0181 31.684 26.7837C31.696 26.9449 31.7065 27.1046 31.7125 27.2613H31.705C31.708 27.3501 31.7125 27.439 31.7125 27.5294C31.7125 29.2588 31.2145 30.9551 30.3354 32.5053C30.5259 31.9359 30.6474 31.3498 30.6954 30.7578C30.7104 30.5695 30.7209 30.3812 30.7209 30.1914C30.7239 26.0335 26.9044 23.0567 22.0108 23.5357C21.6807 23.5689 21.3537 23.6156 21.0297 23.6773L16.286 24.6129C16.175 24.637 16.0625 24.6596 15.95 24.6822C15.6005 24.75 15.2434 24.8042 14.8819 24.8403C14.2758 24.9006 13.6817 24.9127 13.1011 24.881C10.3078 24.7289 7.89847 23.5433 6.46129 21.7099C6.06674 21.2067 5.7502 20.6569 5.51617 20.0678C5.20863 19.2935 5.04961 18.4544 5.06611 17.5701C5.08411 16.7039 5.26863 15.8617 5.59418 15.0618H5.59868Z" fill="#AAAAAA"></path><path opacity="0.49" d="M23.502 15.5801C23.385 15.5424 23.265 15.5078 23.1465 15.4731C23.3025 15.5183 23.46 15.565 23.613 15.6163C23.5755 15.6042 23.5395 15.5922 23.502 15.5801Z" fill="#AAAAAA"></path><path opacity="0.49" d="M23.502 15.5801C23.385 15.5424 23.265 15.5078 23.1465 15.4731C23.3025 15.5183 23.46 15.565 23.613 15.6163C23.5755 15.6042 23.5395 15.5922 23.502 15.5801Z" fill="#AAAAAA"></path><path opacity="0.49" d="M22.8748 15.3945C22.9033 15.4021 22.9333 15.4096 22.9618 15.4186C22.9333 15.4111 22.9033 15.4036 22.8748 15.3945Z" fill="#AAAAAA"></path><path opacity="0.49" d="M22.8748 15.3945C22.9033 15.4021 22.9333 15.4096 22.9618 15.4186C22.9333 15.4111 22.9033 15.4036 22.8748 15.3945Z" fill="#AAAAAA"></path><path d="M52.9493 23.9014L52.9358 23.8954C52.6373 23.7266 52.3162 23.5669 51.9757 23.3982L51.9412 23.3816C50.5145 22.6751 49.0368 21.943 49.0368 20.566C49.0368 19.4256 50.0689 18.6287 51.5481 18.6287C52.5307 18.6287 53.1608 18.9797 53.6304 19.2403C53.9334 19.4091 54.1735 19.5416 54.43 19.5416C54.9056 19.5416 55.2731 19.0761 55.2731 18.6754C55.2731 17.8001 53.4174 16.9399 51.5256 16.9399C48.9363 16.9399 47.1271 18.457 47.1271 20.6308C47.1271 22.9779 49.2318 24.0445 50.924 24.9017L50.96 24.9198C51.2556 25.0704 51.5346 25.212 51.7942 25.3566C53.1113 26.0993 53.6994 26.8993 53.6994 27.9553C53.6994 29.3865 52.5457 30.3476 50.828 30.3476C49.6264 30.3476 48.9378 29.8474 48.4277 29.4784C48.1067 29.2479 47.8546 29.0656 47.5636 29.0656C47.0685 29.0656 46.698 29.5461 46.698 29.9755C46.698 30.3943 47.0565 30.8251 47.7376 31.2229C48.6227 31.7396 49.7659 32.0364 50.873 32.0364C53.1548 32.0364 55.6106 30.7453 55.6106 27.9101C55.6106 26.2455 54.739 24.9333 52.9493 23.9014Z" fill="#AAAAAA"></path><path d="M62.7606 31.9055C63.1401 31.9055 63.4011 31.8031 63.5572 31.5937C63.7147 31.3783 63.7147 31.1297 63.7147 30.8871V18.1092C63.7147 17.8682 63.7147 17.6181 63.5572 17.4042C63.4011 17.1933 63.1401 17.0908 62.7606 17.0908C62.381 17.0908 62.12 17.1933 61.9654 17.4027C61.8049 17.6166 61.8049 17.8667 61.8049 18.1092V30.8871C61.8049 31.1282 61.8049 31.3783 61.9654 31.5937C62.1215 31.8046 62.381 31.9055 62.7606 31.9055Z" fill="#AAAAAA"></path><path d="M82.7521 17.0908C82.5181 17.0908 82.1836 17.1225 81.9781 17.4042C81.819 17.6181 81.819 17.8682 81.819 18.1092V28.519L73.2979 17.8275C72.9289 17.3831 72.6439 17.0923 72.0603 17.0923C71.4812 17.0923 71.1497 17.3996 71.1497 17.936V30.8871C71.1497 31.1282 71.1497 31.3783 71.3102 31.5937C71.5172 31.8739 71.8503 31.9055 72.0828 31.9055C72.3153 31.9055 72.6499 31.8739 72.8584 31.5937C73.0159 31.3783 73.0159 31.1297 73.0159 30.8871V20.4744L81.5775 31.1643C81.942 31.6253 82.2211 31.9281 82.7747 31.9281C83.3447 31.9281 83.6853 31.6042 83.6853 31.0619V18.1107C83.6853 17.8697 83.6853 17.6196 83.5262 17.4057C83.3207 17.1285 83.0042 17.0908 82.7521 17.0908Z" fill="#AAAAAA"></path><path d="M103.069 29.8868V25.1278C103.069 24.8867 103.069 24.6367 102.91 24.4228C102.754 24.2118 102.493 24.1109 102.114 24.1109C101.734 24.1109 101.473 24.2134 101.317 24.4228C101.16 24.6382 101.16 24.8867 101.16 25.1278V29.6683C100.776 29.828 99.5514 30.2814 97.9732 30.2814C94.3007 30.2814 91.9289 27.9434 91.9289 24.3248C91.9289 20.1248 94.9578 18.6273 97.7932 18.6273C98.7278 18.6273 99.6324 18.79 100.479 19.1109C100.933 19.2842 101.244 19.4559 101.47 19.5824L101.49 19.593C101.752 19.7391 101.941 19.8446 102.16 19.8446C102.64 19.8446 103.026 19.3354 103.026 18.9136C103.026 18.5234 102.733 18.201 102.046 17.8364C100.932 17.2429 99.4704 16.9175 97.9297 16.9175C94.2497 16.9175 89.9517 18.8804 89.9517 24.4107C89.9517 29.0868 93.0346 31.9913 97.9987 31.9913C99.2634 31.9913 100.452 31.7879 101.632 31.3706C102.777 30.9729 103.074 30.6686 103.074 29.8868H103.069Z" fill="#AAAAAA"></path><path d="M116.545 30.0857H111.536V18.1092C111.536 17.8682 111.536 17.6181 111.379 17.4042C111.223 17.1933 110.962 17.0908 110.582 17.0908C110.203 17.0908 109.942 17.1933 109.787 17.4027C109.626 17.6166 109.626 17.8667 109.626 18.1092V30.8645C109.626 31.4852 109.924 31.7745 110.56 31.7745H116.548C116.794 31.7745 117.025 31.7745 117.238 31.6283C117.45 31.4912 117.571 31.2366 117.571 30.9293C117.571 30.622 117.451 30.3689 117.244 30.2348C117.027 30.0842 116.794 30.0842 116.548 30.0842L116.545 30.0857Z" fill="#AAAAAA"></path><path d="M124.201 31.7746H131.462C131.708 31.7746 131.939 31.7746 132.152 31.6285C132.364 31.4914 132.485 31.2368 132.485 30.9295C132.485 30.6222 132.365 30.3691 132.157 30.235C131.939 30.0843 131.706 30.0843 131.462 30.0843H125.157V24.7544H131.34C131.586 24.7544 131.819 24.7544 132.03 24.6083C132.242 24.4727 132.364 24.2181 132.364 23.9108C132.364 23.6035 132.244 23.3504 132.036 23.2163C131.819 23.0657 131.586 23.0657 131.34 23.0657H125.157V18.9319H131.426C131.672 18.9319 131.904 18.9319 132.114 18.7858C132.328 18.6502 132.449 18.3956 132.449 18.0883C132.449 17.7809 132.329 17.5278 132.12 17.3953C131.903 17.2446 131.67 17.2446 131.424 17.2446H124.199C123.563 17.2446 123.266 17.5339 123.266 18.1545V30.8677C123.266 31.4718 123.58 31.7776 124.199 31.7776L124.201 31.7746Z" fill="#AAAAAA"></path><path d="M157.901 24.1094C157.522 24.1094 157.261 24.2119 157.105 24.4213C156.947 24.6367 156.947 24.8853 156.947 25.1263V29.6668C156.563 29.8265 155.339 30.28 153.761 30.28C150.088 30.28 147.715 27.9419 147.715 24.3234C147.715 20.1233 150.744 18.6259 153.579 18.6259C154.514 18.6259 155.418 18.7886 156.264 19.1094C156.719 19.2827 157.03 19.4559 157.256 19.581L157.274 19.5915C157.537 19.7376 157.726 19.8431 157.945 19.8431C158.425 19.8431 158.81 19.3339 158.81 18.9121C158.81 18.5219 158.516 18.1995 157.831 17.835C156.716 17.2414 155.253 16.916 153.714 16.916C150.034 16.916 145.735 18.879 145.735 24.4092C145.735 29.0853 148.819 31.9898 153.782 31.9898C155.046 31.9898 156.234 31.7865 157.415 31.3692C158.56 30.9715 158.855 30.6671 158.855 29.8853V25.1263C158.855 24.8853 158.855 24.6352 158.696 24.4213C158.54 24.2104 158.282 24.1094 157.901 24.1094Z" fill="#AAAAAA"></path><path d="M201.875 31.5922C202.034 31.3768 202.034 31.1282 202.034 30.8857V18.1077C202.034 17.8667 202.034 17.6166 201.875 17.4027C201.719 17.1918 201.459 17.0894 201.078 17.0894C200.697 17.0894 200.438 17.1918 200.283 17.4012C200.123 17.6151 200.123 17.8652 200.123 18.1077V30.8857C200.123 31.1267 200.123 31.3768 200.283 31.5922C200.439 31.8031 200.699 31.9041 201.078 31.9041C201.458 31.9041 201.719 31.8016 201.875 31.5922Z" fill="#AAAAAA"></path><path d="M210.397 31.9055C210.63 31.9055 210.963 31.8738 211.173 31.5936C211.331 31.3782 211.331 31.1296 211.331 30.8871V20.4743L219.892 31.1643C220.257 31.6253 220.537 31.9281 221.089 31.9281C221.659 31.9281 222 31.6042 222 31.0619V18.1107C222 17.8696 222 17.6196 221.841 17.4056C221.635 17.1284 221.32 17.0923 221.067 17.0923C220.813 17.0923 220.498 17.1269 220.293 17.4056C220.134 17.6196 220.134 17.8696 220.134 18.1107V28.5204L211.613 17.829C211.244 17.3845 210.959 17.0938 210.375 17.0938C209.796 17.0938 209.464 17.4011 209.464 17.9374V30.8886C209.464 31.1296 209.464 31.3797 209.625 31.5951C209.832 31.8754 210.165 31.9055 210.397 31.9055Z" fill="#AAAAAA"></path><path d="M176.402 31.9055C176.964 31.9055 177.188 31.6916 177.276 31.5123C177.393 31.2788 177.339 30.9836 177.129 30.7018L172.981 25.1625C174.874 24.4786 175.915 23.073 175.915 21.1945C175.915 19.6232 175.192 18.4391 173.826 17.7657C173.002 17.3605 171.982 17.1435 170.707 17.1059V17.0908H166.43C165.869 17.0908 165.411 17.5488 165.411 18.1137V30.8871C165.411 31.1282 165.411 31.3783 165.572 31.5937C165.728 31.8046 165.987 31.9055 166.367 31.9055C166.599 31.9055 166.934 31.8739 167.141 31.5937C167.3 31.3783 167.3 31.1297 167.3 30.8871V25.7606H171.239C171.433 26.0634 171.757 26.5485 172.225 27.1812L175.129 31.1598C175.417 31.544 175.689 31.9055 176.399 31.9055H176.402ZM173.914 21.3255C173.914 23.0037 172.662 23.9046 170.189 24.004H167.301L167.307 18.7419H169.994C170.138 18.7389 170.27 18.7374 170.369 18.7374C170.411 18.7374 170.455 18.7434 170.498 18.7419L170.654 18.7479C172.818 18.8218 173.914 19.6895 173.914 21.3255Z" fill="#AAAAAA"></path><path d="M193.421 31.9056C194.242 31.9056 194.33 31.4371 194.33 31.2352C194.33 31.0409 194.26 30.8209 194.201 30.6703L189.206 18.0053C189.023 17.5202 188.766 17.0713 188.13 17.0713C187.502 17.0713 187.244 17.5067 187.056 17.9782L181.877 30.6763C181.784 30.9234 181.727 31.083 181.727 31.2593C181.727 31.4115 181.79 31.9086 182.593 31.9086C183.293 31.9086 183.507 31.5018 183.667 31.0861L184.527 28.9152H191.483L192.325 31.0861C192.52 31.5802 192.782 31.9086 193.421 31.9086V31.9056ZM186.094 24.9577L188.06 20.0767L190.796 27.1361H185.232L185.433 26.6254H185.448L186.114 24.9592H186.096L186.094 24.9577Z" fill="#AAAAAA"></path></g><defs><clipPath id="clip0_4506_23387"><rect width="222" height="45" fill="white"></rect></clipPath></defs></svg>