<svg xmlns="http://www.w3.org/2000/svg" width="171" height="42" viewBox="0 0 171 42" fill="none"><g clip-path="url(#clip0_4086_8433)"><path d="M169.124 12.2736H168.959V12.8452H169.124C169.424 12.8452 169.507 12.762 169.507 12.5438L169.124 12.2736ZM169.786 13.8428H169.621L169.559 13.8117L169.435 13.583L169.124 13.1361L169.031 13.0842H168.969V13.7493L168.886 13.8428H168.772L168.679 13.7493V12.1385L168.772 12.0553H169.228C169.631 12.0553 169.817 12.284 169.817 12.5542C169.817 12.8244 169.672 13.0426 169.352 13.053C169.445 13.0946 169.641 13.3752 169.859 13.7597L169.797 13.8636L169.786 13.8428ZM169.197 11.5773C168.462 11.5773 167.883 12.1696 167.883 12.9491C167.883 13.7285 168.462 14.3313 169.197 14.3313C169.931 14.3313 170.521 13.7389 170.521 12.9491C170.521 12.1593 169.941 11.5773 169.197 11.5773ZM169.197 14.5599C168.328 14.5599 167.604 13.8636 167.604 12.9491C167.604 12.0345 168.328 11.3486 169.197 11.3486C170.066 11.3486 170.8 12.0345 170.8 12.9491C170.8 13.8636 170.076 14.5599 169.197 14.5599Z" fill="#8D8C8E"></path><path d="M27.0315 26.8345C29.2866 24.7768 30.5382 22.1267 30.5279 19.3831V18.614H35.6898C35.4416 16.8369 34.8623 15.0702 33.9106 13.4282C33.6106 12.8981 33.2692 12.3993 32.9175 11.9316L27.8073 14.8935C31.0348 20.4951 27.5383 25.4419 23.2557 27.9258C21.5489 28.9234 19.3558 29.6613 17.1421 29.8588C17.7938 29.9523 18.4558 30.0043 19.1386 30.0043C21.9523 30.0043 24.8281 28.8507 27.0211 26.8449" fill="#8D8C8E"></path><path d="M30.8798 25.6391L31.2626 24.974L34.428 26.8031C35.3486 24.8701 35.8348 22.7292 35.8348 20.578C35.8348 20.183 35.8141 19.7777 35.7831 19.3828H31.3143C31.3143 25.6079 25.3455 30.773 19.1595 30.773C16.4389 30.773 13.7286 29.9936 11.5459 28.4867C12.2493 29.1518 13.0355 29.7442 13.8838 30.2326C19.8319 33.6829 27.4661 31.6148 30.9005 25.6391" fill="#8D8C8E"></path><path d="M31.5419 26.023C27.9007 32.3728 19.8009 34.5553 13.4804 30.8971C10.6563 29.2654 8.65985 26.7297 7.63574 23.8613C7.95642 25.2228 8.47365 26.5426 9.18742 27.7793C13.1287 34.628 21.8802 36.9767 28.6972 33.0172C31.0454 31.6557 32.8557 29.7123 34.066 27.4883L31.5419 26.023Z" fill="#8D8C8E"></path><path d="M8.52543 28.1643C4.37728 20.9519 6.83928 11.6817 14.0184 7.51432C21.2078 3.33652 30.4248 5.82033 34.5833 13.0328C38.7418 20.2452 36.2694 29.5153 29.1007 33.6931C21.9112 37.8709 12.6943 35.3871 8.53578 28.1747M39.4349 10.2268C33.7247 0.312288 21.0733 -3.07568 11.215 2.65061C1.36702 8.3769 -2.01564 21.087 3.6842 30.9807C9.38403 40.8847 22.0354 44.2727 31.8937 38.5464C41.7417 32.8201 45.1244 20.1101 39.4245 10.2164" fill="#8D8C8E"></path><path d="M95.8333 20.7344C96.3402 16.6917 98.6366 16.0578 100.023 16.0578C102.795 16.0578 103.85 18.4689 103.923 20.7344H95.8333ZM107.367 22.1894C107.367 15.7772 103.799 13.8857 99.9401 13.8857C95.4505 13.8857 92.3472 17.0035 92.3472 22.127C92.3472 27.6247 95.4919 30.5658 101.274 30.5658C103.043 30.5658 104.233 30.3787 105.195 30.1189C105.702 29.9734 105.93 29.6512 105.785 29.2667L105.454 28.3729C105.299 28.0092 104.978 27.7494 104.368 27.8533C103.416 28.0508 102.464 28.1963 101.243 28.1963C97.4677 28.1963 95.9988 26.336 95.8333 22.9065H106.53C106.995 22.9065 107.367 22.5635 107.367 22.1894Z" fill="#8D8C8E"></path><path d="M156.049 20.7344C156.556 16.6917 158.862 16.0578 160.238 16.0578C163.011 16.0578 164.055 18.4689 164.138 20.7344H156.038M167.572 22.1894C167.572 15.7772 164.004 13.8857 160.145 13.8857C155.656 13.8857 152.552 17.0035 152.552 22.127C152.552 27.6247 155.697 30.5658 161.49 30.5658C163.248 30.5658 164.438 30.3787 165.41 30.1189C165.917 29.9734 166.135 29.6512 165.99 29.2667L165.659 28.3729C165.514 28.0092 165.183 27.7494 164.573 27.8533C163.631 28.0508 162.68 28.1963 161.449 28.1963C157.673 28.1963 156.204 26.336 156.038 22.9065H166.735C167.2 22.9065 167.572 22.5635 167.572 22.1894Z" fill="#8D8C8E"></path><path d="M64.2616 30.5658C62.4513 30.5658 60.1962 30.2228 58.6755 29.6097C58.1686 29.4018 58.0445 29.1004 58.21 28.6951L58.5928 27.6766C58.7583 27.209 59.2238 27.0635 59.6789 27.2402C61.0237 27.791 62.6582 28.1547 64.334 28.1547C66.4339 28.1547 67.3959 27.3337 67.3959 25.9515C67.3959 22.8649 58.7997 22.8337 58.7997 18.2922C58.7997 15.6837 61.272 13.8857 65.2133 13.8857C67.1787 13.8857 68.4407 14.1871 69.5269 14.6028C69.951 14.7691 70.0752 15.1121 69.8993 15.5174L69.5269 16.3696C69.3614 16.7853 68.9476 16.8476 68.4821 16.7125C67.6442 16.4423 66.3408 16.0994 65.0891 16.0994C63.1961 16.0994 62.1099 16.8788 62.1099 18.1051C62.1099 20.9527 70.789 21.0462 70.789 26.0034C70.789 28.6847 68.2752 30.5865 64.2512 30.5865" fill="#8D8C8E"></path><path d="M121.788 30.1591C120.619 30.4605 119.398 30.5644 117.971 30.5644C113.057 30.5644 109.788 27.5506 109.788 22.0841C109.788 17.262 113.264 13.874 117.919 13.874C119.346 13.874 120.733 14.1858 121.488 14.456C122.036 14.6535 122.284 14.9237 122.119 15.2978L121.695 16.2851C121.571 16.628 121.281 16.8983 120.65 16.6904C119.977 16.4826 118.974 16.2123 117.805 16.2123C115.209 16.2123 113.357 18.4156 113.357 22.0841C113.357 26.0853 114.991 28.0494 118.177 28.0494C119.305 28.0494 120.308 27.9143 121.115 27.7481C121.705 27.613 122.077 27.9143 122.17 28.2573L122.47 29.3069C122.553 29.6499 122.346 30.024 121.798 30.1591" fill="#8D8C8E"></path><path d="M132.049 16.15C129.152 16.15 127.559 18.1557 127.559 22.2192C127.559 26.2827 129.152 28.3196 132.049 28.3196C134.945 28.3196 136.538 26.3866 136.538 22.2192C136.538 18.0518 134.945 16.15 132.049 16.15ZM132.132 30.5644C127.259 30.5644 124.073 27.4467 124.073 22.2192C124.073 16.9918 127.259 13.874 132.132 13.874C137.004 13.874 140.097 17.0334 140.097 22.2192C140.097 27.4051 136.994 30.5644 132.132 30.5644Z" fill="#8D8C8E"></path><path d="M151.404 15.5277V14.4677C151.404 14.1455 151.28 13.8545 151.125 13.8545H149.201C145.487 13.8545 143.366 15.5069 143.366 18.3649V29.9837C143.366 30.202 143.78 30.389 144.245 30.389H145.766C146.211 30.389 146.614 30.2227 146.645 29.9941V19.3521C146.645 16.7644 147.907 16.1201 149.883 16.1201H151.135C151.29 16.1201 151.414 15.8187 151.414 15.5069" fill="#8D8C8E"></path><path d="M90.2778 28.1538H89.0261C87.0814 28.1122 85.7883 27.5094 85.7883 24.9217V16.2127H88.7262C88.8606 16.2127 88.9951 15.9425 88.9951 15.6307V14.6227C88.9951 14.3213 88.871 14.0407 88.7262 14.0407H85.7987V9.91485C85.7987 9.37444 85.209 9.40561 84.7125 9.54072L83.1608 9.9772C82.7781 10.0811 82.5298 10.3513 82.5298 10.7255V14.2901V25.9194C82.5298 28.7877 84.6401 30.4401 88.3641 30.4401H90.2882C90.4433 30.4401 90.5675 30.1491 90.5675 29.8269V28.7773C90.5675 28.4551 90.4433 28.1641 90.2882 28.1641" fill="#8D8C8E"></path><path d="M76.7369 13.8747L75.1852 14.3216C74.8025 14.4255 74.5542 14.6957 74.5542 15.0595V29.9935C74.5542 30.2118 74.968 30.3988 75.4335 30.3988H76.9438C77.3989 30.3988 77.8127 30.2222 77.8127 29.9935V14.2488C77.8127 13.7084 77.2334 13.7396 76.7265 13.8747" fill="#8D8C8E"></path></g><defs><clipPath id="clip0_4086_8433"><rect width="169.878" height="41.4662" fill="white" transform="translate(0.911621)"></rect></clipPath></defs></svg>