<svg xmlns="http://www.w3.org/2000/svg" width="42" height="42" viewBox="0 0 42 42" fill="none"><g id="Smiling" clip-path="url(#clip0_3476_2374)"><g id="Group"><path id="Vector" d="M10.1567 3.77746C15.5673 -0.094992 22.9565 -1.21455 29.1335 1.4732C29.6835 1.73242 29.9111 2.18096 29.9071 2.62221C54.7835 15.4254 35.5423 52.6929 10.3259 39.0382C9.69725 38.7235 9.4487 37.949 9.77756 37.3265C10.1037 36.7062 10.8765 36.4722 11.4922 36.8067C31.4651 48.5002 50.3685 21.4341 33.2904 6.44626C32.074 5.40422 30.7484 4.48309 29.3578 3.67869C29.0438 3.89977 28.617 3.97786 28.1342 3.78443C24.5573 2.15873 20.4589 1.88057 16.6775 2.97339C4.9629 6.07704 -2.67322 21.3347 5.19046 31.6167C5.60324 32.2331 4.75462 32.8633 4.28245 32.2948C-3.05172 23.3729 1.05075 9.78879 10.1567 3.77746Z" fill="#0B0B0B"></path><g id="Group_2"><path id="Vector_2" d="M10.5272 14.8306C11.1311 13.0311 13.3482 12.1777 15.0896 12.7576C17.6577 13.3931 17.6174 17.7068 15.6908 16.5057C15.336 16.1222 15.0189 15.7225 14.6412 15.4055C14.2508 14.9343 13.6077 14.3659 12.9227 14.5836C12.1503 14.7527 11.6284 15.5013 11.8559 16.2821C12.0572 17.4392 10.3996 17.4873 10.4361 16.3111C10.3469 15.8204 10.3715 15.3077 10.5272 14.8306Z" fill="#0B0B0B"></path><path id="Vector_3" d="M26.4592 16.1024C26.4914 17.1988 24.7731 17.4275 24.9785 15.2435C25.0689 13.0263 27.5521 11.71 29.5477 12.4105C32.0194 13.0149 32.3577 17.3955 30.3099 16.3072C29.7675 15.778 29.2855 15.2724 28.7867 14.706C27.8154 13.4406 25.9856 14.6759 26.4592 16.1024Z" fill="#0B0B0B"></path><path id="Vector_4" d="M13.8462 24.6086C14.2745 24.3298 14.8476 24.4509 15.1265 24.8792C17.8678 28.6743 24.4921 28.4347 27.2934 24.8406C28.4169 23.4587 30.4273 25.2533 29.1676 26.5254C26.0715 29.5297 21.1187 30.1763 17.2416 28.4127C16.2647 27.9053 12.1266 25.907 13.8462 24.6086Z" fill="#0B0B0B"></path></g></g></g><defs><clipPath id="clip0_3476_2374"><rect width="42" height="42" fill="white" transform="matrix(-1 0 0 1 42 0)"></rect></clipPath></defs></svg>