<svg xmlns="http://www.w3.org/2000/svg" width="69" height="63" viewBox="0 0 69 63" fill="none"><g id="Sketch-annotation-element-stroke-icon-filled-smiley-happy"><path id="Vector (Stroke)" fill-rule="evenodd" clip-rule="evenodd" d="M12.218 3.88731C19.8165 -0.751737 31.2832 -1.55917 39.3483 4.78819C40.0364 5.3298 40.1553 6.32674 39.6137 7.01492C39.072 7.7031 38.0751 7.82192 37.3869 7.28032C30.5819 1.92464 20.5954 2.48841 13.8705 6.59409C8.18716 10.064 4.91206 16.1759 4.11898 22.4967C3.3227 28.8429 5.05859 35.1135 9.01495 38.9141C18.0509 47.5935 30.369 45.4931 36.4553 39.9942C44.6558 32.585 47.8089 20.7631 41.1223 12.1558C40.5851 11.4642 40.7102 10.4681 41.4018 9.93081C42.0934 9.39356 43.0895 9.51866 43.6268 10.2102C51.6942 20.595 47.5208 34.2706 38.5814 42.3474L37.6418 41.3074L38.5814 42.3474C31.4432 48.7966 17.2246 51.1972 6.81799 41.2012L6.81795 41.2012C1.95802 36.5326 0.0863406 29.1628 0.972294 22.1018C1.86145 15.0154 5.55837 7.95332 12.2179 3.88733L12.218 3.88731Z" fill="#8B75F3"></path><path id="Vector (Stroke)_2" fill-rule="evenodd" clip-rule="evenodd" d="M18.9323 16.6799C19.7968 16.8202 20.3838 17.6347 20.2435 18.4991C20.0666 19.5897 19.9901 20.7348 19.9604 21.8999C19.9381 22.7753 19.2103 23.467 18.3349 23.4447C17.4594 23.4224 16.7678 22.6946 16.7901 21.8191C16.8217 20.5774 16.9046 19.2762 17.1131 17.9911C17.2534 17.1266 18.0679 16.5396 18.9323 16.6799Z" fill="#8B75F3"></path><path id="Vector (Stroke)_3" fill-rule="evenodd" clip-rule="evenodd" d="M29.3044 16.3262C30.1801 16.3211 30.8942 17.0269 30.8993 17.9026C30.9011 18.2214 30.908 18.5611 30.9151 18.9148C30.9375 20.0213 30.9627 21.2648 30.8457 22.4348C30.7587 23.3062 29.9817 23.942 29.1103 23.8549C28.2389 23.7679 27.603 22.9909 27.6901 22.1194C27.7864 21.1555 27.7672 20.1909 27.7462 19.1371C27.7385 18.7456 27.7304 18.3418 27.728 17.9211C27.7229 17.0454 28.4286 16.3313 29.3044 16.3262Z" fill="#8B75F3"></path><path id="Vector (Stroke)_4" fill-rule="evenodd" clip-rule="evenodd" d="M12.6229 26.7834C13.4691 26.5578 14.338 27.0609 14.5636 27.9071C14.8278 28.8983 15.4378 29.8307 16.2701 30.653L16.2702 30.6531C18.2323 32.5918 21.1173 33.3219 23.9749 32.8907C26.8365 32.4589 29.46 30.8914 30.8782 28.5184C31.3274 27.7667 32.301 27.5215 33.0528 27.9708C33.8045 28.4201 34.0497 29.3937 33.6004 30.1454C31.6175 33.4632 28.0851 35.4778 24.4481 36.0265C20.8071 36.5759 16.8509 35.6851 14.0413 32.909M12.6229 26.7834C11.7767 27.009 11.2736 27.8778 11.4992 28.724L12.6229 26.7834ZM11.4992 28.724C11.947 30.4037 12.9276 31.8088 14.0412 32.909L11.4992 28.724Z" fill="#8B75F3"></path></g></svg>