<svg xmlns="http://www.w3.org/2000/svg" width="49" height="66" viewBox="0 0 49 66" fill="none"><g id="Group 43883"><path id="Vector 59 (Stroke)" fill-rule="evenodd" clip-rule="evenodd" d="M27.3557 1.58574C27.3557 1.5857 27.3561 1.58665 27.3567 1.58868C27.356 1.58678 27.3557 1.58577 27.3557 1.58574ZM28.3043 7.97971C28.124 11.973 27.0494 15.7221 25.3661 19.4146C24.5386 21.2298 23.7953 23.08 23.1038 24.955C26.5687 25.2572 30.0316 25.5296 33.4941 25.7313C31.0697 19.9829 29.3898 14.0438 28.3043 7.97971ZM35.3406 25.832C32.0134 18.1518 30.0521 10.1001 29.0913 1.82932C29.0627 1.58241 29.0278 1.37035 28.9808 1.20348C28.9581 1.123 28.9229 1.01696 28.8639 0.912695C28.824 0.842339 28.6744 0.588537 28.3326 0.484973C27.8912 0.351233 27.5597 0.572627 27.4342 0.687981C27.3136 0.798725 27.2466 0.920553 27.2155 0.981308C27.1456 1.1178 27.0959 1.27583 27.06 1.40528C26.9132 1.93511 26.7908 2.78309 26.7431 3.12359C26.6117 4.06106 26.6292 5.0433 26.6454 5.9474C26.6505 6.23543 26.6555 6.51553 26.6555 6.78372C26.6555 10.9748 25.6067 14.8936 23.8234 18.8055C22.9262 20.7738 22.1274 22.7789 21.3888 24.8032C19.4655 24.6306 17.5416 24.451 15.6168 24.2713C10.9076 23.8316 6.19323 23.3914 1.47006 23.0533C1.00867 23.0203 0.605871 23.3416 0.57038 23.771C0.534888 24.2004 0.880147 24.5752 1.34154 24.6082C4.40667 24.8277 7.48567 25.0924 10.5744 25.3729C10.6181 25.4167 10.6681 25.4565 10.7239 25.4912C11.1885 25.7794 11.6465 26.0479 12.097 26.312C12.8588 26.7586 13.5987 27.1924 14.3112 27.6869C15.4137 28.4521 16.2905 29.2639 16.7918 30.252C17.1549 30.9674 17.5788 31.5239 17.995 32.0295C18.1044 32.1623 18.2108 32.2891 18.3151 32.4132C18.4443 32.5669 18.5701 32.7166 18.6938 32.869C18.5664 33.2719 18.4394 33.6745 18.3125 34.0769C16.9877 38.277 15.673 42.4447 14.0284 46.4837C13.4815 47.8267 13.081 49.2078 12.6928 50.5466L12.6569 50.6703C12.2536 52.0607 11.8583 53.4056 11.3142 54.6996C11.1505 55.0889 11.0361 55.3978 10.9794 55.6238C10.9553 55.7202 10.9186 55.8852 10.9366 56.0582C10.9452 56.1411 10.9759 56.3336 11.1338 56.5153C11.3339 56.7454 11.6235 56.8314 11.8769 56.8142C12.0786 56.8006 12.2263 56.7261 12.291 56.6902C12.3682 56.6474 12.4306 56.6003 12.4746 56.5645C12.563 56.4924 12.6458 56.4081 12.7163 56.3313C12.8608 56.174 13.0252 55.9688 13.1911 55.7511C13.5261 55.3116 13.9173 54.7549 14.2539 54.2728C14.294 54.2153 14.3331 54.1592 14.3711 54.1048C14.6642 53.6848 14.8913 53.3592 15.0043 53.2159C16.9324 50.7709 19.227 48.553 21.6094 46.3443C22.0385 45.9464 22.471 45.5484 22.9046 45.1494C23.5255 44.578 24.1487 44.0044 24.7678 43.4261C24.882 43.5975 24.9961 43.7686 25.1101 43.9394C25.4358 44.4276 25.76 44.9136 26.0793 45.3982C27.3869 47.3824 28.6263 49.362 29.6261 51.4597C31.4138 55.2106 33.5081 58.5625 35.9566 61.9563C35.9518 61.9496 35.9576 61.9589 35.9785 61.9924C35.9948 62.0185 36.0202 62.0592 36.057 62.1186C36.0826 62.1599 36.1119 62.2074 36.1442 62.2597C36.2006 62.3508 36.266 62.4566 36.3368 62.5707C36.5606 62.9316 36.8481 63.3915 37.121 63.8113C37.3853 64.2179 37.6615 64.6271 37.8553 64.8609C37.903 64.9184 37.9693 64.9946 38.0456 65.0615C38.0802 65.0919 38.1528 65.1526 38.2549 65.2044C38.3199 65.2374 38.6294 65.3885 39.0027 65.2435C39.415 65.0834 39.5013 64.7296 39.5186 64.6318C39.5404 64.5086 39.5278 64.4046 39.521 64.3578C39.5057 64.2517 39.4731 64.1449 39.444 64.0593C39.1808 63.2837 38.8927 62.5521 38.6144 61.8521C38.5934 61.7994 38.5725 61.7468 38.5517 61.6944C38.2941 61.0471 38.048 60.4286 37.829 59.8045C37.3589 58.4645 37.0271 57.1333 37.0271 55.602C37.0271 53.2725 37.2268 50.9404 37.4654 48.592C37.5184 48.0709 37.5734 47.5482 37.6284 47.0246C37.8204 45.1993 38.0137 43.362 38.1273 41.5361C38.2948 38.8432 38.2926 36.1369 37.8563 33.436C39.7903 32.3637 41.7776 31.3909 43.7867 30.4074C44.8723 29.876 45.9643 29.3415 47.0577 28.7865C47.4837 28.5702 47.8252 28.3769 48.0853 28.2023C48.3224 28.0431 48.5777 27.8445 48.7321 27.5996C48.8158 27.4669 48.9064 27.2631 48.8846 27.013C48.8611 26.7432 48.7175 26.5361 48.5569 26.4004C48.2956 26.1795 47.955 26.1161 47.7795 26.089C47.3603 26.0242 46.7921 26.0307 46.2841 26.0447C46.1004 26.0498 45.9204 26.056 45.7453 26.0621C45.3952 26.0743 45.0648 26.0858 44.7643 26.0858C41.6226 26.0858 38.4817 25.991 35.3406 25.832ZM34.1909 27.3323C30.3114 27.1186 26.4305 26.8133 22.5564 26.4735C21.8454 28.4889 21.1836 30.5292 20.5318 32.5821C20.5498 32.6072 20.5677 32.6324 20.5856 32.6578C21.2833 33.6499 21.7795 34.7067 22.2308 35.7144C22.2899 35.8463 22.3481 35.9772 22.4059 36.1069C22.7974 36.9867 23.1673 37.8181 23.6371 38.6083C24.0989 39.3853 24.5807 40.1489 25.0738 40.9085C25.8674 40.1408 26.6411 39.364 27.3843 38.568C29.314 36.5011 32.1106 34.898 34.5528 33.4981C34.9686 33.2598 35.3741 33.0273 35.7632 32.7995C35.8464 32.7508 35.9297 32.7023 36.0132 32.6541C35.6904 31.0879 35.202 29.5361 34.4932 27.9969C34.3913 27.7757 34.2905 27.5541 34.1909 27.3323ZM37.5369 31.8013C37.1997 30.3398 36.7195 28.8809 36.0541 27.4277C38.9602 27.5647 41.8647 27.6453 44.7643 27.6453C45.0959 27.6453 45.4814 27.632 45.8499 27.6192C45.852 27.6191 45.8542 27.6191 45.8563 27.619C44.9396 28.0803 44.009 28.5359 43.0734 28.994C41.2248 29.899 39.3565 30.8137 37.5369 31.8013ZM47.5811 27.6433C47.5809 27.6434 47.5772 27.6424 47.5708 27.6401C47.5781 27.642 47.5813 27.6432 47.5811 27.6433ZM36.2969 34.3285C35.9967 34.5026 35.6936 34.6768 35.3892 34.8517C32.934 36.2622 30.3952 37.7207 28.6492 39.5909C27.7922 40.5089 26.8944 41.4029 25.9777 42.282C26.1568 42.5515 26.3367 42.8212 26.517 43.0914C26.8467 43.5857 27.1778 44.082 27.5079 44.5829C28.8241 46.5803 30.1114 48.6316 31.1579 50.8274C32.5098 53.6639 34.0448 56.2726 35.7927 58.8619C35.5256 57.8531 35.3514 56.7844 35.3514 55.602C35.3514 53.1954 35.5575 50.8028 35.7971 48.4451C35.8512 47.9123 35.907 47.3819 35.9626 46.8536C36.154 45.0337 36.3428 43.2378 36.4543 41.446C36.6042 39.0362 36.6112 36.6657 36.2969 34.3285ZM23.8643 42.0597C23.2837 41.1723 22.7126 40.2748 22.1707 39.3632C21.6516 38.4899 21.2427 37.5702 20.8546 36.697C20.7974 36.5684 20.7406 36.4407 20.684 36.3144C20.4252 35.7365 20.1673 35.1796 19.8793 34.6466C18.5704 38.7966 17.2474 42.9793 15.5954 47.0363C15.0784 48.3061 14.6968 49.6218 14.3023 50.9821L14.2748 51.0768C14.2079 51.3075 14.1405 51.5395 14.0719 51.7724C15.9891 49.4305 18.2012 47.3027 20.4267 45.2394C20.8659 44.8322 21.3051 44.4279 21.7429 44.025C22.4563 43.3684 23.1657 42.7155 23.8643 42.0597ZM12.6039 56.0131C12.6038 56.013 12.6041 56.0108 12.605 56.0064C12.6044 56.0109 12.604 56.0132 12.6039 56.0131ZM19.2801 31.026C19.7839 29.4546 20.3004 27.8837 20.8467 26.3215C19.0089 26.1561 17.1729 25.9847 15.3395 25.8137C14.9551 25.7778 14.5708 25.7419 14.1867 25.7061C14.5736 25.944 14.954 26.1876 15.3131 26.4368C16.5093 27.2671 17.636 28.2634 18.3072 29.586C18.5848 30.1331 18.9113 30.5748 19.2801 31.026Z" fill="#8B75F3"></path><path id="Vector 60 (Stroke)" fill-rule="evenodd" clip-rule="evenodd" d="M28.8159 12.4515C28.8159 12.4515 28.8158 12.4521 28.8155 12.4532C28.8157 12.452 28.8159 12.4515 28.8159 12.4515ZM28.9745 17.3157C29.0586 18.3759 29.1376 19.4646 29.1376 20.5566C29.1376 21.0562 29.1313 21.5507 29.1225 22.0418C29.1245 22.0514 29.1265 22.0611 29.1285 22.0707C29.1517 22.1832 29.1744 22.2928 29.1942 22.3848C29.2488 22.6376 29.2937 22.8155 29.3284 22.9091C29.4799 23.3174 29.626 23.7224 29.77 24.1247C29.8204 24.1516 29.8652 24.1819 29.9038 24.2133C30.0872 24.3624 30.1458 24.5425 30.159 24.583L30.1594 24.5845C30.1811 24.6511 30.19 24.7084 30.1941 24.7399C30.2027 24.8059 30.2041 24.8699 30.2041 24.9168C30.2041 25.063 30.2061 25.2095 30.2101 25.3565C30.4531 26.033 30.6989 26.7028 30.9628 27.3683C30.8542 25.5476 30.6256 23.7059 30.1855 22.0914C30.0008 21.4137 29.7596 20.4467 29.4962 19.391C29.4557 19.2288 29.4147 19.0645 29.3733 18.8989C29.2435 18.3791 29.1094 17.8446 28.9745 17.3157ZM31.0387 30.6473C31.0386 30.6473 31.039 30.6453 31.0398 30.6415C31.0392 30.6454 31.0388 30.6472 31.0387 30.6473ZM31.6978 31.7147C31.4228 31.7012 31.2297 31.5682 31.1554 31.5112C31.0331 31.4174 30.9344 31.2971 30.8595 31.1899C30.9116 31.6267 30.9574 32.0639 30.9918 32.4987C30.992 32.5005 30.9921 32.5022 30.9922 32.504C31.0465 32.8283 31.073 33.149 31.0742 33.4708C31.1007 33.7548 31.1297 34.037 31.1628 34.3171C31.3438 34.963 31.5449 35.6013 31.763 36.234C31.7607 36.0481 31.7594 35.8771 31.7594 35.7241C31.7594 34.3825 31.7352 33.0478 31.6978 31.7147ZM27.4495 27.1597C27.4385 26.8541 27.4312 26.5492 27.4269 26.2454C27.294 26.7546 27.1622 27.2655 27.0303 27.7777C27.1742 27.5737 27.3141 27.3679 27.4495 27.1597ZM24.8 29.8587C24.8114 29.8152 24.8227 29.7717 24.8341 29.7282C25.0002 29.0915 25.1647 28.4522 25.3295 27.8119C25.3499 27.7324 25.3704 27.6529 25.3909 27.5734C24.3986 29.4878 23.2666 31.3268 22.135 33.1393C22.0174 33.3276 21.8999 33.5155 21.7825 33.7032C19.4447 37.442 17.1635 41.0901 15.954 45.2105C15.89 45.4286 15.3356 47.6516 14.9086 49.8424C14.717 50.8259 14.5555 51.7804 14.4744 52.5328C14.708 52.2662 14.9314 51.9952 15.1025 51.7834C15.1733 51.6956 15.2454 51.6051 15.3049 51.5303C15.3723 51.4455 15.4237 51.3809 15.439 51.3636C15.6849 51.0857 15.9316 50.8082 16.1783 50.5307C16.8251 49.8032 17.4717 49.076 18.1014 48.3415C18.6865 46.599 19.5006 44.9859 20.413 43.4493C20.4933 43.2958 20.5701 43.1369 20.6439 42.9731C20.4422 43.3071 20.2311 43.6256 20.0178 43.9353C19.8413 44.1915 19.6665 44.4376 19.4943 44.6799C19.0557 45.2974 18.634 45.891 18.2435 46.5691C18.2434 46.57 18.2341 46.589 18.2103 46.6409C18.1952 46.6738 18.1808 46.7054 18.1648 46.7406C18.1468 46.7801 18.1267 46.8241 18.1013 46.8795C18.0143 47.0693 17.9008 47.3139 17.7876 47.5402C17.6837 47.7478 17.5509 48.0004 17.4258 48.1682C17.393 48.2122 17.3389 48.2804 17.2659 48.3458C17.229 48.3788 17.1683 48.4284 17.0851 48.4732C17.0056 48.516 16.8574 48.5805 16.6602 48.5808C16.4362 48.5811 16.2302 48.4981 16.0783 48.3624C15.9456 48.2437 15.8848 48.1133 15.8569 48.0384C15.8038 47.8956 15.8012 47.7641 15.8012 47.7053C15.8012 47.3126 15.9486 46.9129 16.1033 46.5841C16.2661 46.238 16.4802 45.8825 16.6938 45.5557C16.8788 45.2728 17.0719 44.9986 17.2436 44.7581C17.2271 44.6641 17.2232 44.5748 17.2232 44.5004C17.2232 43.8022 17.6625 43.1785 18.005 42.7633C18.1922 42.5364 18.3918 42.3247 18.5655 42.1441C18.6095 42.0984 18.651 42.0556 18.69 42.0153C18.8137 41.8874 18.913 41.7848 18.9938 41.6933C19.3028 41.3435 19.63 41.0144 19.9616 40.7002C19.9981 40.6045 20.033 40.5073 20.0663 40.4084C20.1356 40.2027 20.2058 39.9975 20.2769 39.793C20.077 38.8612 20.02 37.864 20.2214 36.9136C20.4828 35.6807 21.2913 34.5406 22.1181 33.5675C22.5385 33.0727 22.9851 32.5973 23.3983 32.1583L23.4267 32.1282C23.4375 32.1167 23.4484 32.1052 23.4592 32.0937C23.4982 31.8477 23.5396 31.5921 23.585 31.3426C23.6418 31.0298 23.7162 30.6584 23.8197 30.4231C23.8451 30.3652 23.903 30.2412 24.0124 30.1259C24.1088 30.0244 24.3975 29.7906 24.8 29.8587ZM18.5821 50.2366C18.2018 50.6696 17.8212 51.0973 17.4447 51.5205C17.1948 51.8014 16.9466 52.0803 16.7015 52.3575C16.7109 52.3469 16.7062 52.3527 16.6651 52.4046L16.6333 52.4446C16.5784 52.5139 16.5019 52.6101 16.4103 52.7236C16.2276 52.9497 15.9822 53.2476 15.7223 53.5433C15.4661 53.8348 15.1799 54.1424 14.9176 54.3786C14.7887 54.4946 14.6418 54.6151 14.49 54.7085C14.4139 54.7553 14.3148 54.809 14.1989 54.849C14.0898 54.8866 13.9045 54.9336 13.6836 54.8989C13.2358 54.8284 13.0204 54.5088 12.9365 54.3348C12.8493 54.1539 12.8139 53.9597 12.7962 53.8044C12.7595 53.4826 12.7739 53.078 12.8114 52.6534C12.8874 51.7902 13.0757 50.6693 13.2915 49.5619C13.7232 47.347 14.2877 45.0751 14.3695 44.7965C15.6388 40.4721 18.0232 36.6605 20.3353 32.9645C20.4633 32.76 20.591 32.5558 20.7183 32.352C23.1666 28.4307 25.4663 24.6057 26.4447 20.2469C26.5387 19.8278 26.9751 19.5601 27.4193 19.6488C27.4386 19.6527 27.4576 19.6571 27.4763 19.6622C27.4456 18.8167 27.3777 17.9677 27.3085 17.1021C27.298 16.9701 27.2874 16.8378 27.2769 16.705C27.1744 15.4069 27.0818 14.0734 27.1385 12.7369C27.1476 12.5222 27.1657 12.3248 27.2007 12.1595C27.2181 12.0776 27.2449 11.9776 27.2906 11.8774C27.3297 11.7916 27.4222 11.6158 27.6228 11.4834C27.8792 11.3142 28.1892 11.2948 28.4492 11.3901C28.6539 11.4652 28.782 11.5931 28.8412 11.6584C28.9668 11.7967 29.0572 11.9666 29.1194 12.0958C29.3779 12.6333 29.6891 13.6533 30.0015 14.785C30.3209 15.9423 30.6617 17.294 30.9737 18.543C31.0154 18.7098 31.0565 18.8746 31.097 19.0369C31.3612 20.0958 31.5978 21.0442 31.778 21.7051C31.8658 22.0273 31.9456 22.3569 32.018 22.692C32.0613 22.6804 32.1076 22.6715 32.157 22.6664C32.4531 22.6359 32.6654 22.7594 32.7589 22.8281C32.8544 22.8984 32.9122 22.9725 32.9381 23.0079C32.9922 23.082 33.024 23.1517 33.0371 23.1812C33.068 23.251 33.0921 23.3251 33.1082 23.3776C33.143 23.4906 33.1778 23.627 33.2035 23.7287C33.2154 23.7757 33.2244 23.8112 33.231 23.8373C33.2429 23.8846 33.2471 23.901 33.2463 23.8987C34.3462 27.1549 35.375 30.4966 35.9797 33.9196C36.4555 36.6129 36.8816 39.7509 36.5793 42.6024C36.5213 43.1505 36.3525 43.6689 36.2112 44.1028C36.194 44.1557 36.1772 44.2073 36.161 44.2576C36.0077 44.7348 35.8991 45.1267 35.8925 45.5244C35.9856 45.7141 36.0788 45.9041 36.172 46.0946C36.1828 46.1167 36.1957 46.1437 36.2073 46.1711C36.2125 46.1835 36.2227 46.2079 36.2326 46.2378C36.2374 46.2522 36.2463 46.2801 36.2541 46.3157L36.2545 46.3175C36.2591 46.3378 36.2813 46.4371 36.2664 46.5621C36.259 46.6236 36.2328 46.7882 36.099 46.951C35.9282 47.1589 35.6686 47.2604 35.4164 47.251C35.2186 47.2436 35.0794 47.1711 35.0283 47.1425C34.9652 47.1071 34.9206 47.0712 34.8977 47.0518C34.8254 46.9903 34.7791 46.9275 34.7738 46.9203L34.7734 46.9197C34.7478 46.8858 34.7275 46.8535 34.7184 46.8388C34.675 46.7689 34.6149 46.6599 34.5561 46.5428C34.4961 46.4236 34.4267 46.2746 34.3703 46.1252C34.3654 46.1123 34.3602 46.0984 34.3548 46.0835C34.2783 45.9277 34.2017 45.7719 34.125 45.616C33.8998 45.1582 33.6744 44.6998 33.4502 44.2404C33.4353 44.2732 33.4172 44.3076 33.3952 44.3418C33.3814 44.3634 33.3498 44.411 33.2973 44.4656C33.405 44.8648 33.5062 45.2646 33.6022 45.6643C33.7897 46.2825 33.9805 46.9026 34.1718 47.5244C34.8038 49.5784 35.4417 51.6518 35.9869 53.7436C35.9944 53.7723 36.1566 54.4184 36.3013 55.0591C36.3733 55.3781 36.4438 55.7077 36.4883 55.9622C36.5099 56.0853 36.5294 56.2132 36.5373 56.3201C36.5406 56.3655 36.5458 56.453 36.5335 56.5478C36.5284 56.5868 36.5124 56.6998 36.4453 56.8248C36.3754 56.955 36.1493 57.2572 35.7021 57.2572C35.3446 57.2572 35.0919 57.0818 34.959 56.9636C34.8196 56.8396 34.7157 56.6941 34.6405 56.5727C34.488 56.3262 34.3626 56.0272 34.2662 55.7647C34.1667 55.494 34.084 55.2233 34.0244 55.0149C33.9734 54.8366 33.9157 54.6157 33.9196 54.6296C33.4472 52.9385 33.1008 51.229 32.7604 49.5488C32.7465 49.4801 32.7326 49.4114 32.7187 49.3428C32.4937 48.2329 32.2689 47.1356 32.0089 46.0498C31.9588 45.8842 31.9087 45.7185 31.8589 45.5524C31.4776 44.2827 31.1081 43.0041 30.7728 41.7123C30.7569 41.6605 30.741 41.6087 30.7252 41.557C30.4073 40.5206 30.0876 39.4782 29.7868 38.4269C29.7313 38.5689 29.6749 38.7102 29.6174 38.8511C29.6331 39.4097 29.6506 39.9307 29.6702 40.3885C29.6849 40.7327 29.696 41.0728 29.7071 41.4092C29.7193 41.7821 29.7314 42.1503 29.748 42.5143C29.7814 42.8134 29.819 43.112 29.8611 43.4103C29.9647 44.1434 30.0219 44.5363 30.0548 44.7489C30.0656 44.8184 30.0732 44.8647 30.0784 44.895C30.0807 44.901 30.0828 44.9069 30.0849 44.9128C30.1094 44.9828 30.1251 45.0579 30.1369 45.1179C30.1644 45.257 30.21 45.5252 30.2941 46.0645C30.3071 46.1478 30.317 46.2187 30.323 46.2756C30.326 46.3031 30.3291 46.338 30.3303 46.3745C30.3309 46.3926 30.3314 46.4204 30.3296 46.453C30.3283 46.4755 30.3241 46.5476 30.2978 46.6343C30.285 46.6764 30.2541 46.7666 30.1825 46.8641C30.1084 46.9652 29.9474 47.1291 29.6726 47.1831C29.3977 47.237 29.1807 47.1471 29.07 47.0822C28.9631 47.0195 28.8967 46.9484 28.8672 46.9146C28.8065 46.845 28.7724 46.7806 28.762 46.761C28.7468 46.7322 28.7359 46.7073 28.7293 46.6916C28.7062 46.6367 28.688 46.5783 28.678 46.5453C28.6385 46.4158 28.587 46.212 28.5688 46.14C28.5663 46.1298 28.5644 46.1222 28.5632 46.1179C28.2671 44.9653 28.161 43.7733 28.1062 42.6165C28.0836 42.4114 28.0629 42.2063 28.0439 42.0013C27.9886 42.0916 27.9323 42.1819 27.8749 42.2722C27.7932 42.4005 27.6041 42.6478 27.249 42.7338C26.845 42.8316 26.5306 42.6552 26.375 42.5282C26.2252 42.4059 26.1244 42.2577 26.0597 42.149C25.9891 42.0302 25.9271 41.8989 25.8725 41.7675C25.6595 41.2556 25.4605 40.5026 25.2917 39.749C25.2551 39.5854 25.2193 39.4195 25.1848 39.2534C24.9052 40.5976 24.4323 41.9644 23.6343 43.4217C22.5801 45.3466 21.2223 47.1331 19.7951 48.829C19.6631 49.1508 19.5528 49.4164 19.4785 49.5835C19.4487 49.6503 19.4148 49.7241 19.3826 49.7832L19.3817 49.7849C19.3738 49.7997 19.3273 49.8869 19.2516 49.9688C19.228 49.9942 19.1731 50.051 19.0881 50.1049C19.0244 50.1453 18.8406 50.2504 18.5821 50.2366ZM26.4703 37.1793C26.4748 37.2068 26.4793 37.2346 26.484 37.2628C26.5902 37.9074 26.7361 38.6951 26.9004 39.4282C26.9744 39.7585 27.0501 40.0686 27.1254 40.3448C27.394 39.8443 27.6364 39.3372 27.862 38.8182C27.8377 37.9669 27.8282 37.1188 27.8217 36.2759C27.82 36.0481 27.8185 35.8207 27.817 35.5937C27.8154 35.3592 27.8138 35.1251 27.812 34.8915C27.3932 35.6731 26.9406 36.4337 26.4703 37.1793ZM27.6289 29.6743C27.6684 30.1522 27.699 30.6307 27.7229 31.1102C27.7197 31.1192 27.7165 31.1283 27.7133 31.1373C27.3564 32.1473 26.9152 33.1152 26.4157 34.0593C26.3958 33.7844 26.3453 33.4883 26.2281 33.2237C26.1417 33.0287 26.0021 32.8116 25.7722 32.6421C25.7659 32.6374 25.7595 32.6328 25.7531 32.6282C25.8447 32.2975 25.9349 31.9665 26.024 31.6354C26.5611 30.9979 27.1056 30.3483 27.6289 29.6743ZM23.9574 30.9745C23.9574 30.9744 23.9576 30.975 23.958 30.9763C23.9576 30.9751 23.9574 30.9745 23.9574 30.9745ZM26.4674 41.4702C26.4661 41.4723 26.4653 41.4736 26.465 41.4739L26.465 41.474C26.4658 41.4728 26.4666 41.4715 26.4674 41.4702ZM27.5055 41.4086C27.5072 41.4109 27.5081 41.4121 27.508 41.4121C27.508 41.4121 27.5071 41.411 27.5055 41.4086ZM34.7701 43.2336C34.3389 42.3454 33.9176 41.4606 33.5157 40.5732C33.5045 40.1469 33.4922 39.7074 33.4799 39.2707C33.4414 37.8951 33.4036 36.547 33.4036 35.7241C33.4036 33.6261 33.3448 31.5385 33.2691 29.4576C33.7035 31.0202 34.0782 32.5912 34.3579 34.1746C34.8309 36.852 35.2223 39.816 34.9433 42.4481C34.9158 42.7075 34.853 42.9586 34.7701 43.2336ZM36.1366 46.0539C36.1365 46.0537 36.1363 46.0534 36.1362 46.0532C36.1379 46.0559 36.1382 46.0564 36.1366 46.0539ZM13.5865 53.4124C13.5865 53.4123 13.5871 53.412 13.5884 53.4113C13.5871 53.412 13.5865 53.4124 13.5865 53.4124Z" fill="#8B75F3"></path><path id="Vector 61 (Stroke)" fill-rule="evenodd" clip-rule="evenodd" d="M18.7772 29.6454C20.6662 31.9706 22.9126 34.0649 25.1809 35.9801C25.5289 36.2739 25.7884 36.4826 25.9694 36.6134C26.0512 36.6726 26.1556 36.7445 26.2611 36.7962L26.2637 36.7975C26.2994 36.8151 26.4417 36.8851 26.6296 36.8964C26.7364 36.9029 26.9585 36.8963 27.1757 36.7476C27.4159 36.5832 27.4999 36.3505 27.5194 36.1895C27.5368 36.0463 27.5095 35.9327 27.4948 35.8804C27.4777 35.8198 27.4564 35.771 27.4414 35.7397C27.4117 35.6774 27.3781 35.6243 27.3545 35.5888C27.3051 35.5148 27.244 35.4364 27.1847 35.3637C27.0628 35.2144 26.8977 35.0282 26.7161 34.8297C26.3545 34.4346 25.8909 33.9518 25.4835 33.5351C25.6662 33.3318 25.7356 33.0448 25.6403 32.7723C25.3938 32.0678 24.9007 31.401 24.3309 30.7971C23.7542 30.186 23.055 29.5936 22.337 29.0421C21.4208 28.3384 20.3991 27.6483 19.5401 27.0682C19.0846 26.7606 18.675 26.4839 18.3509 26.2524C18.2909 26.2095 18.2127 26.1572 18.126 26.1142C18.0833 26.093 18.0133 26.0613 17.925 26.0385C17.8508 26.0194 17.6684 25.9806 17.4498 26.0423C17.1732 26.1204 16.9761 26.3192 16.8918 26.5492C16.8251 26.7312 16.844 26.8876 16.8545 26.9523C16.8745 27.0749 16.92 27.1769 16.9457 27.2298C16.8015 27.5221 16.8562 27.8814 17.1097 28.123C17.6568 28.6441 18.2155 29.1495 18.7772 29.6454ZM25.9569 36.4345C25.9569 36.4346 25.957 36.4347 25.957 36.4348C25.9577 36.4358 25.9581 36.4364 25.9581 36.4364C25.9581 36.4365 25.9577 36.4358 25.9569 36.4345Z" fill="#8B75F3"></path><path id="Vector 62 (Stroke)" fill-rule="evenodd" clip-rule="evenodd" d="M34.0882 31.5993C34.032 31.5935 33.9762 31.5855 33.9219 31.5746C33.8455 31.5592 33.743 31.5324 33.6362 31.4808C33.5318 31.4304 33.3743 31.3325 33.2574 31.151C32.9652 30.6973 33.2146 30.2786 33.3061 30.1551C33.4116 30.0126 33.5461 29.908 33.6346 29.8442C33.9813 29.5941 34.6308 29.2775 35.2681 28.9669C35.2792 28.9615 35.2904 28.956 35.3015 28.9506C35.3232 28.9401 35.3449 28.9295 35.3667 28.9188C36.0411 28.5902 36.7791 28.2305 37.4305 27.8604C38.1296 27.4631 38.6168 27.1143 38.8352 26.8493C38.8548 26.8256 38.8745 26.8021 38.8926 26.7815C38.9011 26.7719 38.9146 26.7568 38.9306 26.7404C38.9383 26.7324 38.9521 26.7184 38.9699 26.7023L38.9707 26.7015C38.9812 26.6919 39.028 26.6492 39.0956 26.6076L39.0963 26.6071C39.122 26.5913 39.2261 26.5272 39.3777 26.4979C39.4608 26.4819 39.6106 26.4658 39.786 26.5188C39.9832 26.5784 40.1466 26.7061 40.2494 26.8719C40.4089 27.1292 40.3641 27.3782 40.3571 27.4173C40.3569 27.4184 40.3567 27.4194 40.3566 27.4202C40.3436 27.4952 40.3224 27.5514 40.3137 27.5737C40.2942 27.6234 40.2737 27.6605 40.2674 27.6719C40.2581 27.6886 40.2498 27.7023 40.2445 27.7108C40.2261 27.7405 40.2063 27.7685 40.1948 27.7846C40.1424 27.8581 40.0491 27.9801 39.9421 28.1134C39.9122 28.1507 39.8804 28.1898 39.8474 28.23C39.9522 28.4448 39.9394 28.6562 39.8992 28.8067C40.2046 28.7115 40.49 28.6466 40.7377 28.6096C40.896 28.5859 41.0512 28.5718 41.1942 28.5716C41.3113 28.5714 41.5138 28.5788 41.7111 28.6573C41.8079 28.6957 42.0121 28.7935 42.1515 29.0196C42.3213 29.295 42.2945 29.5899 42.1997 29.7989C42.1209 29.9729 42.001 30.0838 41.9349 30.1387C41.8592 30.2016 41.7803 30.2507 41.7122 30.2885C41.4566 30.4302 41.0706 30.5642 40.5763 30.6958C39.8283 30.8949 38.943 31.0894 38.0286 31.2477C37.8512 31.3467 37.696 31.4514 37.5651 31.5643C37.3383 31.76 37.0316 31.8128 36.7622 31.7292C36.504 31.9196 36.2334 32.1182 35.9847 32.299C35.6304 32.5565 35.299 32.7932 35.1148 32.9123C35.0733 32.9392 35.0102 32.9791 34.9475 33.0109C34.9297 33.0199 34.9012 33.0338 34.8661 33.0478C34.8423 33.0572 34.7635 33.0884 34.6582 33.1027C34.6062 33.1098 34.4968 33.1204 34.3629 33.0918C34.2172 33.0608 34.0039 32.9726 33.8531 32.7563C33.7087 32.5491 33.7026 32.3395 33.7146 32.2234C33.7265 32.109 33.7609 32.0231 33.7797 31.9811C33.838 31.8508 33.9242 31.7593 33.932 31.751C33.9323 31.7507 33.9325 31.7505 33.9326 31.7504C33.9596 31.7206 33.987 31.6936 34.0087 31.6727C34.0322 31.6502 34.0589 31.6257 34.0882 31.5993ZM41.2219 30.1805C41.2217 30.1807 41.218 30.1806 41.2112 30.1798C41.2186 30.18 41.2221 30.1804 41.2219 30.1805ZM40.8935 28.8906C40.8945 28.89 40.8951 28.8897 40.8951 28.8897C40.8951 28.8897 40.8946 28.89 40.8935 28.8906ZM38.8374 26.863C38.8374 26.863 38.8372 26.8633 38.8367 26.8641C38.8371 26.8634 38.8374 26.863 38.8374 26.863Z" fill="#8B75F3"></path></g></svg>