<svg xmlns="http://www.w3.org/2000/svg" width="242" height="50" viewBox="0 0 242 50" fill="none"><g id="surferseo-logos-id01QATdAw 1" clip-path="url(#clip0_4506_23355)"><g id="Clip path group"><mask id="mask0_4506_23355" style="mask-type:luminance" maskUnits="userSpaceOnUse" x="0" y="0" width="242" height="50"><g id="LogoSurfer_clip0-985-1247"><path id="Vector" d="M242 0.0336914H0V49.9663H242V0.0336914Z" fill="white"></path></g></mask><g mask="url(#mask0_4506_23355)"><g id="Group"><path id="Vector_2" d="M32.6146 36.523H37.1806C37.8329 36.523 38.2242 36.0108 38.2242 35.4986V14.6294C38.2242 13.9892 37.7025 13.6051 37.1806 13.6051H32.6146C31.9623 13.6051 31.5708 14.1173 31.5708 14.6294V35.4986C31.5708 36.0108 32.0927 36.523 32.6146 36.523ZM7.82749 11.5566V23.7197V26.2803V27.5606H10.4367L7.82749 31.2736L5.21833 34.9866L2.60916 31.2736L0 27.5606H2.73962V26.2803V23.7197V11.5566C2.73962 5.28302 7.95795 0.0336914 14.4809 0.0336914H42.0075C48.4 0.0336914 53.7488 5.15499 53.7488 11.5566H48.6609C48.6609 7.97169 45.6603 5.15499 42.1379 5.15499H14.3504C10.828 5.02696 7.82749 7.97169 7.82749 11.5566ZM51.0091 15.0135L53.6183 18.7264L56.2274 22.4394H53.6183V23.7197V24.872V38.4434C53.6183 44.717 48.4 49.9663 41.8771 49.9663H14.3504C7.95795 49.9663 2.60916 44.845 2.60916 38.4434H7.82749C7.82749 42.0283 10.828 44.845 14.3504 44.845H41.8771C45.5299 44.845 48.4 41.9003 48.4 38.4434V25V23.8477V22.5673H45.7909L48.4 18.8544L51.0091 15.0135ZM19.0468 36.523H23.613C24.2653 36.523 24.6566 36.0108 24.6566 35.4986V22.1833C24.6566 21.5431 24.1347 21.1591 23.613 21.1591H19.0468C18.3945 21.1591 18.0032 21.6711 18.0032 22.1833V35.3706C18.0032 36.0108 18.5251 36.523 19.0468 36.523Z" fill="#AAAAAA"></path><path id="Vector_3" d="M73.187 33.7703C73.187 33.3862 73.3174 32.8742 73.7087 32.4899C73.9697 32.1059 74.361 31.8498 74.622 31.5938C75.0133 31.4657 75.1439 31.3378 75.1439 31.4657C75.9265 32.6181 77.1007 33.6423 78.5357 34.4104C79.9708 35.1787 81.6667 35.5628 83.3626 35.5628C85.3195 35.5628 86.7546 35.1787 87.7982 34.4104C88.8419 33.6423 89.3638 32.6181 89.3638 31.2096C89.3638 30.5695 89.2334 30.0574 88.9724 29.6732C88.7115 29.1612 88.4505 28.7771 88.0592 28.521C87.6678 28.2649 87.146 28.0089 86.4937 27.7528C85.711 27.4967 85.1891 27.2407 84.6672 27.2407C84.2759 27.1126 83.4932 26.9846 82.4494 26.7285C81.1448 26.4724 80.1012 26.2164 79.188 25.8323C78.2747 25.4482 77.3617 25.0642 76.4484 24.424C75.5352 23.7839 74.8829 23.1437 74.361 22.1193C73.8393 21.2232 73.7087 20.0709 73.7087 18.6624C73.7087 16.3579 74.622 14.4374 76.4484 13.0291C78.2747 11.6207 80.7535 10.8525 83.6236 10.8525C86.4937 10.8525 88.8419 11.3647 90.5379 12.3889C92.2338 13.4132 93.1471 14.4374 93.1471 15.5897C93.1471 16.1018 93.0165 16.4859 92.6252 16.8701C92.2338 17.2542 91.9729 17.5103 91.5816 17.7664C91.1902 17.8943 91.0597 18.0223 91.0597 18.0223C90.277 16.9981 89.2334 16.1018 87.9288 15.3337C86.6241 14.6935 85.1891 14.3094 83.6236 14.3094C81.9277 14.3094 80.4925 14.6935 79.4489 15.4617C78.4053 16.2299 77.8834 17.2542 77.8834 18.5345C77.8834 19.1746 78.014 19.8148 78.2747 20.1989C78.5357 20.711 78.927 21.0951 79.5793 21.3512C80.2316 21.6073 80.884 21.8634 81.4058 21.9914C81.9277 22.1193 82.8409 22.3754 83.8845 22.6315C84.1455 22.6315 84.2759 22.7595 84.4063 22.7595C85.711 23.0156 86.885 23.3996 87.9288 23.7838C88.8419 24.1679 89.8857 24.6801 90.7987 25.1921C91.712 25.8323 92.4948 26.6006 93.0165 27.4967C93.5384 28.3929 93.7994 29.5453 93.7994 30.8256C93.7994 33.2582 92.8861 35.3067 91.0597 36.7151C89.2334 38.1234 86.6241 38.8917 83.3626 38.8917C80.2318 38.8917 77.753 38.2515 75.9265 37.0992C74.2306 36.2029 73.187 35.0506 73.187 33.7703ZM102.54 27.4967V13.2851C102.54 12.0048 103.192 11.3647 104.366 11.3647H105.019C106.323 11.3647 106.976 12.0048 106.976 13.2851V27.4967C106.976 32.746 109.324 35.3067 113.89 35.3067C118.456 35.3067 120.804 32.6181 120.804 27.3687V13.2851C120.804 12.0048 121.456 11.3647 122.631 11.3647H123.283C124.457 11.3647 125.109 12.0048 125.109 13.2851V27.4967C125.109 31.2096 124.196 34.1545 122.239 36.2029C120.282 38.2515 117.543 39.1478 113.759 39.1478C110.107 39.1478 107.237 38.1234 105.41 36.2029C103.453 34.1545 102.54 31.3378 102.54 27.4967ZM135.024 36.587V13.9253C135.024 13.1571 135.285 12.645 135.676 12.1329C136.068 11.6207 136.72 11.4927 137.372 11.4927H145.2C148.592 11.4927 151.201 12.1329 152.897 13.5412C154.593 14.9496 155.506 16.8701 155.506 19.5587C155.506 21.8634 154.854 23.7839 153.419 25.1921C151.984 26.6006 150.027 27.3687 147.287 27.6248L155.376 36.9712C155.506 37.0992 155.376 37.2271 155.245 37.4832C155.115 37.7393 154.723 37.9954 154.332 38.2515C153.94 38.5074 153.419 38.6356 152.766 38.6356C151.723 38.6356 150.81 38.1234 149.896 36.9712L142.33 27.8809H139.329V36.587C139.329 37.8673 138.677 38.5074 137.503 38.5074H136.851C135.546 38.7635 135.024 37.9954 135.024 36.587ZM139.199 24.552H145.069C147.026 24.552 148.592 24.1679 149.505 23.2717C150.549 22.3754 150.94 21.2232 150.94 19.6868C150.94 16.4859 148.853 14.8215 144.809 14.8215H139.068L139.199 24.552ZM164.507 36.459V13.9253C164.507 13.1571 164.768 12.645 165.16 12.1329C165.552 11.6207 166.203 11.4927 166.856 11.4927H181.858C183.164 11.4927 183.945 12.1329 183.945 13.2851V13.5412C183.945 14.6935 183.294 15.3337 181.858 15.3337H168.812V24.0398H178.467C179.771 24.0398 180.554 24.552 180.554 25.7043V25.8323C180.554 26.9846 179.901 27.6248 178.467 27.6248H168.943V36.8431C168.943 38.1234 168.292 38.7635 166.986 38.7635H166.333C165.16 38.7635 164.507 37.9954 164.507 36.459ZM192.035 36.2029V13.9253C192.035 13.1571 192.296 12.645 192.686 12.1329C193.078 11.6207 193.73 11.4927 194.383 11.4927H210.428C211.734 11.4927 212.516 12.1329 212.516 13.2851V13.5412C212.516 14.6935 211.864 15.3337 210.428 15.3337H196.34V23.0156H207.168C208.472 23.0156 209.255 23.5278 209.255 24.6801V24.8081C209.255 25.9604 208.602 26.6006 207.168 26.6006H196.34V34.7946H210.69C211.995 34.7946 212.646 35.3067 212.646 36.587V36.8431C212.646 38.1234 211.995 38.7635 210.69 38.7635H194.383C193.73 38.7635 193.078 38.5074 192.686 38.1234C192.296 37.4832 192.035 36.9712 192.035 36.2029ZM221.517 36.587V13.9253C221.517 13.1571 221.779 12.645 222.17 12.1329C222.562 11.6207 223.215 11.4927 223.866 11.4927H231.694C235.085 11.4927 237.695 12.1329 239.39 13.5412C241.086 14.9496 242 16.8701 242 19.5587C242 21.8634 241.347 23.7839 239.913 25.1921C238.478 26.6006 236.521 27.3687 233.781 27.6248L241.869 36.9712C242 37.0992 241.869 37.2271 241.739 37.4832C241.608 37.7393 241.217 37.9954 240.826 38.2515C240.435 38.5074 239.913 38.6356 239.26 38.6356C238.217 38.6356 237.303 38.1234 236.391 36.9712L228.824 27.8809H225.822V36.587C225.822 37.8673 225.171 38.5074 223.996 38.5074H223.344C222.17 38.7635 221.517 37.9954 221.517 36.587ZM225.822 24.552H231.694C233.651 24.552 235.216 24.1679 236.13 23.2717C237.173 22.3754 237.564 21.2232 237.564 19.6868C237.564 16.4859 235.477 14.8215 231.433 14.8215H225.692L225.822 24.552Z" fill="#AAAAAA"></path></g></g></g></g><defs><clipPath id="clip0_4506_23355"><rect width="242" height="50" fill="white"></rect></clipPath></defs></svg>