<svg xmlns="http://www.w3.org/2000/svg" width="115" height="35" viewBox="0 0 115 35" fill="none"><path d="M112.364 27.5501C110.681 27.5501 109.877 26.3448 109.877 23.9532V7.02111C109.877 4.5913 110.643 3.44336 112.364 3.44336C114.086 3.44336 114.813 4.6487 114.813 7.02111V23.9532C114.794 26.3639 114.029 27.5501 112.364 27.5501ZM97.6324 34.4952C93.0789 34.4952 90.3621 32.8115 90.3621 30.8983C90.343 29.7503 91.2231 28.7937 92.371 28.7363H92.5241C93.7677 28.7363 95.26 30.0756 97.8429 30.0756C100.426 30.0756 101.727 28.5833 101.727 25.9047C101.727 25.7134 101.669 25.5221 101.669 25.2734C100.675 26.7848 98.9717 27.684 97.1733 27.6266C93.2511 27.6266 89.9986 24.0298 89.9986 19.0171C89.9986 14.0044 93.4998 10.2545 97.709 10.2545C99.2396 10.1779 100.713 10.8476 101.689 12.0338C102.09 11.1537 102.932 10.5415 103.889 10.4649C105.572 10.4649 106.376 11.6129 106.376 14.0618V23.9724C106.376 26.9379 106.185 29.2338 105.228 30.8217C103.697 33.1942 101.115 34.4952 97.6324 34.4952ZM98.3404 14.9228C96.5228 14.9228 95.0878 16.5108 95.0878 18.998C95.0878 21.4852 96.4654 23.1688 98.3404 23.1688C100.215 23.1688 101.593 21.5426 101.593 18.998C101.593 16.4534 100.158 14.9228 98.3404 14.9228ZM78.8253 34.4952C74.2717 34.4952 71.5549 32.8115 71.5549 30.8983C71.5358 29.7503 72.4159 28.7937 73.5638 28.7363H73.7169C74.9605 28.7363 76.4528 30.0756 79.0357 30.0756C81.6186 30.0756 82.9196 28.5833 82.9196 25.9047C82.9196 25.7134 82.8622 25.5221 82.8622 25.2734C81.8673 26.7848 80.1645 27.684 78.3661 27.6266C74.4822 27.6266 71.1914 24.0298 71.1914 19.0171C71.1914 14.0044 74.6926 10.2545 78.9018 10.2545C80.4324 10.1779 81.9056 10.8476 82.8813 12.0338C83.2831 11.1537 84.1249 10.5415 85.0816 10.4649C86.7652 10.4649 87.5688 11.6129 87.5688 14.0618V23.9724C87.5688 26.9379 87.3775 29.2338 86.4208 30.8217C84.9476 33.1942 82.3648 34.4952 78.8253 34.4952ZM79.5332 14.9228C77.7156 14.9228 76.2806 16.5108 76.2806 18.998C76.2806 21.4852 77.6582 23.1688 79.5332 23.1688C81.4081 23.1688 82.7857 21.5426 82.7857 18.998C82.7857 16.4534 81.3507 14.9228 79.5332 14.9228ZM61.3191 27.8371C56.4403 27.8371 52.9391 24.1446 52.9391 18.9788C52.9391 13.8131 56.4786 10.1205 61.3191 10.1205C66.1596 10.1205 69.6991 13.8131 69.6991 18.9788C69.6991 24.1446 66.2552 27.8371 61.3765 27.8371H61.3191ZM61.3191 14.7888C59.5015 14.7888 58.0666 16.3768 58.0666 18.9597C58.0666 21.5426 59.4632 23.1688 61.3191 23.1688C63.1749 23.1688 64.5716 21.5426 64.5716 18.9597C64.5716 16.3768 63.1367 14.7888 61.3191 14.7888ZM49.7822 15.2098H49.3613V23.9724C49.3613 26.3639 48.596 27.5692 46.9315 27.5692C45.267 27.5692 44.5017 26.3639 44.5017 23.9724V15.2098H44.3103C42.531 15.2098 41.5361 14.3488 41.5361 13.0478C41.5361 11.7468 42.5502 10.9432 44.5017 10.8476V8.68562C44.5017 6.29408 45.267 5.08874 46.9889 5.08874C48.7108 5.08874 49.4378 6.29408 49.4378 8.68562V10.8476H49.8779C51.8485 10.8476 52.9965 11.7085 52.9965 13.0478C52.9965 14.3871 51.8868 15.2098 49.7822 15.2098Z" fill="#606162"></path><path d="M17.0279 34.0556C26.4321 34.0556 34.0557 26.432 34.0557 17.0278C34.0557 7.6236 26.4321 0 17.0279 0C7.62364 0 0 7.6236 0 17.0278C0 26.432 7.62364 34.0556 17.0279 34.0556Z" fill="#DE353D"></path><path d="M18.1765 6.75391H15.7849V18.7116H18.1765V6.75391ZM16.9903 25.8863C12.3602 25.8671 8.62938 22.1172 8.64851 17.4871C8.64851 13.7181 11.1931 10.4082 14.8474 9.43243V11.9196C11.7671 13.1058 10.2365 16.5688 11.4227 19.6491C12.6089 22.7294 16.0719 24.26 19.1522 23.0738C22.2325 21.8876 23.7631 18.4246 22.5769 15.3443C21.9647 13.7755 20.7211 12.5319 19.1522 11.9196V9.43243C23.6101 10.6378 26.2695 15.2295 25.0641 19.6874C24.0693 23.3416 20.7593 25.8671 16.9903 25.8863Z" fill="#F8F3FD"></path></svg>