<svg xmlns="http://www.w3.org/2000/svg" width="116" height="35" viewBox="0 0 116 35" fill="none"><path d="M112.818 28.0355C111.134 28.0355 110.33 26.8301 110.33 24.4386V7.50646C110.33 5.07665 111.096 3.92871 112.818 3.92871C114.539 3.92871 115.267 5.13405 115.267 7.50646V24.4386C115.247 26.8493 114.482 28.0355 112.818 28.0355ZM98.0856 34.9805C93.5321 34.9805 90.8152 33.2969 90.8152 31.3836C90.7961 30.2357 91.6762 29.2791 92.8242 29.2217H92.9772C94.2208 29.2217 95.7132 30.5609 98.296 30.5609C100.879 30.5609 102.18 29.0686 102.18 26.3901C102.18 26.1988 102.123 26.0074 102.123 25.7587C101.128 27.2702 99.4248 28.1694 97.6264 28.112C93.7042 28.112 90.4517 24.5151 90.4517 19.5024C90.4517 14.4898 93.953 10.7398 98.1621 10.7398C99.6927 10.6633 101.166 11.3329 102.142 12.5191C102.543 11.639 103.385 11.0268 104.342 10.9503C106.026 10.9503 106.829 12.0982 106.829 14.5472V24.4577C106.829 27.4232 106.638 29.7191 105.681 31.3071C104.151 33.6795 101.568 34.9805 98.0856 34.9805ZM98.7935 15.4081C96.9759 15.4081 95.541 16.9961 95.541 19.4833C95.541 21.9705 96.9185 23.6542 98.7935 23.6542C100.668 23.6542 102.046 22.0279 102.046 19.4833C102.046 16.9387 100.611 15.4081 98.7935 15.4081ZM79.2784 34.9805C74.7249 34.9805 72.0081 33.2969 72.0081 31.3836C71.9889 30.2357 72.869 29.2791 74.017 29.2217H74.17C75.4136 29.2217 76.906 30.5609 79.4888 30.5609C82.0717 30.5609 83.3727 29.0686 83.3727 26.3901C83.3727 26.1988 83.3153 26.0074 83.3153 25.7587C82.3204 27.2702 80.6177 28.1694 78.8192 28.112C74.9353 28.112 71.6445 24.5151 71.6445 19.5024C71.6445 14.4898 75.1458 10.7398 79.3549 10.7398C80.8855 10.6633 82.3587 11.3329 83.3345 12.5191C83.7362 11.639 84.5781 11.0268 85.5347 10.9503C87.2183 10.9503 88.0219 12.0982 88.0219 14.5472V24.4577C88.0219 27.4232 87.8306 29.7191 86.874 31.3071C85.4008 33.6795 82.8179 34.9805 79.2784 34.9805ZM79.9863 15.4081C78.1687 15.4081 76.7338 16.9961 76.7338 19.4833C76.7338 21.9705 78.1113 23.6542 79.9863 23.6542C81.8613 23.6542 83.2388 22.0279 83.2388 19.4833C83.2388 16.9387 81.8039 15.4081 79.9863 15.4081ZM61.7722 28.3225C56.8934 28.3225 53.3922 24.6299 53.3922 19.4642C53.3922 14.2984 56.9317 10.6059 61.7722 10.6059C66.6127 10.6059 70.1522 14.2984 70.1522 19.4642C70.1522 24.6299 66.7084 28.3225 61.8296 28.3225H61.7722ZM61.7722 15.2742C59.9546 15.2742 58.5197 16.8622 58.5197 19.445C58.5197 22.0279 59.9164 23.6542 61.7722 23.6542C63.628 23.6542 65.0247 22.0279 65.0247 19.445C65.0247 16.8622 63.5898 15.2742 61.7722 15.2742ZM50.2353 15.6951H49.8144V24.4577C49.8144 26.8493 49.0491 28.0546 47.3846 28.0546C45.7201 28.0546 44.9548 26.8493 44.9548 24.4577V15.6951H44.7635C42.9841 15.6951 41.9893 14.8342 41.9893 13.5332C41.9893 12.2322 43.0033 11.4286 44.9548 11.3329V9.17097C44.9548 6.77943 45.7201 5.57409 47.442 5.57409C49.1639 5.57409 49.891 6.77943 49.891 9.17097V11.3329H50.331C52.3016 11.3329 53.4496 12.1939 53.4496 13.5332C53.4496 14.8724 52.3399 15.6951 50.2353 15.6951Z" fill="#8D8C8E"></path><path d="M17.481 34.5409C26.8852 34.5409 34.5089 26.9173 34.5089 17.5131C34.5089 8.10895 26.8852 0.485352 17.481 0.485352C8.07676 0.485352 0.453125 8.10895 0.453125 17.5131C0.453125 26.9173 8.07676 34.5409 17.481 34.5409Z" fill="#8D8C8E"></path><path d="M18.6296 7.23926H16.238V19.197H18.6296V7.23926ZM17.4434 26.3716C12.8133 26.3525 9.0825 22.6025 9.10164 17.9725C9.10164 14.2034 11.6462 10.8935 15.3005 9.91779V12.405C12.2202 13.5912 10.6896 17.0542 11.8758 20.1345C13.0621 23.2148 16.525 24.7454 19.6053 23.5591C22.6857 22.3729 24.2163 18.91 23.0301 15.8297C22.4178 14.2608 21.1742 13.0172 19.6053 12.405V9.91779C24.0632 11.1231 26.7226 15.7149 25.5173 20.1727C24.5224 23.827 21.2125 26.3525 17.4434 26.3716Z" fill="#F8F3FD"></path></svg>