<svg xmlns="http://www.w3.org/2000/svg" id="uuid-60f57184-6793-4b8c-9c56-14cf903075c3" data-name="Layer 1" viewBox="0 0 190.68 40.68"><path d="M73.68,25.18c-2.4,0-4.4-2.1-4.4-4.6v-10.9h-3.5v10.8c0,4.6,3.5,8.4,7.9,8.4s7.9-3.8,7.9-8.4v-10.8h-3.6v10.8c0,2.6-1.9,4.7-4.3,4.7ZM129.78,10.28c-.9.4-1.6.9-2.2,1.6l-.6.6v-2.8h-3.6v19.2h3.6v-8.4c0-1.9.5-3.6,1.5-4.9,1.1-1.4,2.4-2.1,4.1-2.1h.8v-3.8h-.7c-1.1,0-2.1.2-2.9.6ZM108.48,13.58c.6-.3,1.5-.3,2.5-.3s1.8.3,2.5.8c.7.6,1.3,1.3,1.6,2.2l.1.4h3.7l-.2-.7c-.5-1.9-1.6-3.4-3-4.5-1.5-1.2-3.3-1.7-5.4-1.7-2.7,0-4.8.9-6.4,2.7s-2.4,4.2-2.4,6.9.8,5.1,2.4,6.9,3.6,2.7,6.4,2.7c2.1,0,3.9-.6,5.4-1.8,1.4-1.1,2.5-2.6,3-4.5l.2-.7h-3.7l-.1.3c-.3.9-.9,1.7-1.6,2.2-.7.6-1.6.9-2.5.9-2,0-3.3-.5-4.2-1.7-1-1.2-1.5-2.6-1.5-4.4s.5-3.2,1.5-4.4c.4-.6,1-1,1.7-1.3ZM98.88,23.18c0-1.2-.3-2.3-.9-3s-1.3-1.3-2.1-1.6c-.9-.4-1.8-.7-2.7-.9-.9-.2-1.7-.4-2.5-.6-.7-.2-1.4-.5-1.8-.8s-.5-.6-.5-1.2c0-.8.3-1.9,3.2-1.9,3.3,0,3.5,1.6,3.5,2.2h3.4c-.2-1.6-.8-2.9-1.8-3.8-1.2-1.1-2.9-1.7-5-1.7-2.3,0-3.9.4-5,1.3-1.2,1-1.8,2.4-1.8,4.2,0,1.2.3,2.2.9,3,.6.7,1.3,1.2,2.1,1.6.9.4,1.8.7,2.7.9.9.2,1.8.4,2.5.7.7.2,1.4.5,1.8.9.4.3.6.7.6,1.2,0,.9-.4,1.4-1.2,1.8-.4.2-.8.3-1.2.4-.9.2-2,0-2.9-.3-1.2-.5-1.9-1.2-2.1-2.4h-3.5c.2,1.7.9,3.1,2,4.2,1.3,1.3,3.2,1.9,5.4,1.9s3.9-.4,5-1.3c1.2-1.4,1.9-2.9,1.9-4.8Z" fill="#8d8c8e" fill-rule="evenodd" stroke-width="0"></path><g><path d="M182.58,9.78c-4.5,0-8.1,3.6-8.1,7.9v10.2h3.6v-10.2c0-2.4,2-4.4,4.5-4.4s4.5,2,4.5,4.4v10.2h3.6v-10.2c0-4.3-3.6-7.9-8.1-7.9Z" fill="#8d8c8e" fill-rule="evenodd" stroke-width="0"></path><path d="M182.58,9.78c-4.5,0-8.1,3.6-8.1,7.9v10.2h3.6v-10.2c0-2.4,2-4.4,4.5-4.4s4.5,2,4.5,4.4v10.2h3.6v-10.2c0-4.3-3.6-7.9-8.1-7.9Z" fill="#8d8c8e" fill-rule="evenodd" stroke-width="0"></path></g><path d="M162.18,9.68c-2.6,0-4.7,1-6.4,2.8-1.5,1.8-2.3,4.1-2.3,6.9,0,2.6.8,4.7,2.4,6.6,1.6,1.9,3.8,2.8,6.4,2.8,2.1,0,3.7-.5,5.1-1.6,1.1-.9,2-2.1,2.7-3.7h-3.9c-.9,1.2-2.1,1.8-3.7,1.8-1.5,0-2.7-.5-3.7-1.5-.7-.7-1.2-1.4-1.4-2.4l-.2-.5h13.7v-1.6c0-2.8-.8-5.1-2.3-6.9-1.7-1.7-3.8-2.7-6.4-2.7ZM157.18,17.48l.2-.5c.3-.9.7-1.7,1.4-2.4.9-.9,2.1-1.4,3.5-1.4s2.5.4,3.5,1.4c.7.6,1.1,1.4,1.4,2.4l.2.5h-10.2ZM142.08,9.68c-2.6,0-4.7,1-6.4,2.8-1.5,1.8-2.3,4.2-2.3,6.9s.8,4.7,2.4,6.6c1.6,1.9,3.8,2.8,6.4,2.8,2.1,0,3.7-.5,5.1-1.6,1.1-.9,2-2.1,2.6-3.7h-3.9c-.9,1.2-2.1,1.8-3.7,1.8-1.5,0-2.7-.5-3.7-1.5-.7-.7-1.2-1.4-1.4-2.4l-.2-.5h13.7v-1.6c0-2.8-.8-5.1-2.3-6.9-1.6-1.7-3.8-2.7-6.3-2.7ZM137.08,17.48l.2-.5c.3-.9.7-1.7,1.4-2.4.9-.9,2.1-1.4,3.5-1.4s2.5.4,3.5,1.4c.7.6,1.1,1.4,1.4,2.4l.2.5h-10.2Z" fill="#8d8c8e" fill-rule="evenodd" stroke-width="0"></path><path d="M39.08,40.68c-.8,0-1.6-.1-2.4-.2-.8-.2-1.6-.4-2.3-.7s-1.4-.7-2.1-1.2c-.7-.4-1.3-1-1.9-1.6s-1.1-1.2-1.5-1.9-.8-1.4-1.1-2.2c-.3-.8-.5-1.6-.7-2.4s-.2-1.6-.2-2.4.1-1.6.2-2.4c.2-.8.4-1.6.7-2.4.3-.8.7-1.5,1.1-2.2s.9-1.3,1.5-1.9,1.2-1.1,1.9-1.6c.7-.4,1.4-.8,2.1-1.2.7-.3,1.5-.6,2.3-.7s1.6-.2,2.4-.2,1.6.1,2.4.2,1.6.4,2.3.7c.7.3,1.4.7,2.1,1.2.7.4,1.3,1,1.9,1.6.6.6,1.1,1.2,1.5,1.9.4.7.8,1.4,1.1,2.2.3.8.5,1.6.7,2.4s.2,1.6.2,2.4-.1,1.6-.2,2.4c-.2.8-.4,1.6-.7,2.4s-.7,1.5-1.1,2.2c-.4.7-.9,1.3-1.5,1.9-.6.6-1.2,1.1-1.9,1.6-.7.4-1.4.8-2.1,1.2-.7.3-1.5.6-2.3.7-.8.1-1.6.2-2.4.2Z" fill="#8d8c8e" fill-rule="evenodd" stroke-width="0"></path><path d="M34.08,30.88l-21.1,3c-4.4.6-8.4-2.4-9-6.8l-1.9-13c-.6-4.4,2.4-8.4,6.8-9l21.1-3c4.4-.6,8.4,2.4,9,6.8l1.9,13c.6,4.3-2.4,8.4-6.8,9Z" fill="none" stroke="#8d8c8e" stroke-miterlimit="10" stroke-width="4"></path><path d="M36.28,33.28l7.7-4.7c.1,0,.1-.1.2-.2,0-.1.1-.2.1-.2,0-.1,0-.2-.1-.2,0-.1-.1-.1-.2-.2l-7.7-4.7c-.2-.1-.3-.1-.5,0s-.2.2-.2.4v9.3c-.1.4.3.7.7.5Z" fill="#f8f3fd" fill-rule="evenodd" stroke-width="0"></path></svg>