<svg xmlns="http://www.w3.org/2000/svg" width="188" height="39" viewBox="0 0 188 39" fill="none"><path d="M19.6213 38.502C30.3758 38.502 39.0941 29.9156 39.0941 19.3237C39.0941 8.7319 30.3758 0.145508 19.6213 0.145508C8.86672 0.145508 0.148438 8.7319 0.148438 19.3237C0.148438 29.9156 8.86672 38.502 19.6213 38.502Z" fill="#8D8C8E"></path><path d="M33.0183 12.6102C33.0183 11.4718 32.0698 10.5377 30.9139 10.5377C30.4397 10.5377 29.9951 10.6836 29.6394 10.9755C29.6098 10.9755 29.6098 10.9463 29.5802 10.9463C27.3276 9.83709 24.9565 8.8738 22.5853 8.02727C22.2 7.88132 21.8147 7.73537 21.3998 7.6186C21.2516 6.77208 20.5106 6.12988 19.5918 6.12988C18.6434 6.12988 17.8431 6.85965 17.7838 7.76456C15.7387 8.61109 13.8122 9.69114 11.8857 10.7712C10.8779 11.3258 9.87021 11.9096 8.89212 12.5226C8.68465 12.6686 8.44754 12.8145 8.21042 12.9605C8.09187 12.9021 7.91403 12.8437 7.70656 12.8437C6.87667 12.8437 6.22461 13.4859 6.22461 14.3033C6.22461 14.7995 6.46172 15.2082 6.84703 15.4709C6.84703 15.5585 6.84703 15.646 6.84703 15.7044C6.87667 16.872 6.99522 18.0688 7.11378 19.2365C7.23234 20.4625 7.41017 21.6885 7.61764 22.9145C7.64728 23.1188 7.67692 23.3232 7.70656 23.5567C7.43981 23.8194 7.29161 24.1697 7.29161 24.5784C7.29161 25.3957 7.94367 26.0379 8.77356 26.0379C8.89212 26.0379 8.98104 26.0379 9.06995 26.0087C9.33671 26.2422 9.57382 26.4757 9.84057 26.7093C10.789 27.585 11.7671 28.4315 12.7452 29.278C13.5454 29.9494 14.3753 30.5916 15.2941 31.1462C15.3534 31.9052 15.9758 32.489 16.7761 32.489C17.4282 32.489 17.9913 32.0512 18.1988 31.4673C19.9178 31.0003 21.5776 30.2413 23.2078 29.5991C24.8972 28.9278 26.6163 28.198 28.276 27.439C28.4835 27.3515 28.7503 27.2347 29.017 27.1179C29.3727 27.3807 29.8173 27.5558 30.2915 27.5558C31.4474 27.5558 32.3662 26.6217 32.3959 25.4833C32.3959 24.7243 31.9809 24.0529 31.3289 23.7026C31.4474 22.7393 31.5067 21.7761 31.5956 20.8128C31.7438 18.711 31.892 16.5801 31.8624 14.4492C32.5441 14.1281 33.0183 13.4275 33.0183 12.6102ZM30.3508 16.3174C30.2915 18.711 30.1137 21.1047 29.8765 23.4691C29.5209 23.5275 29.1948 23.7026 28.9281 23.9362C27.8611 23.3523 26.8237 22.7977 25.7567 22.2139C25.816 21.9512 25.8753 21.6885 25.8753 21.4258C25.8753 20.8128 25.6974 20.229 25.3714 19.7619L30.2026 14.5368C30.2619 14.566 30.3508 14.5952 30.41 14.5952C30.3804 15.1498 30.3508 15.7336 30.3508 16.3174ZM16.9243 29.424L13.1898 20.083C15.3831 20.5501 17.5467 21.0463 19.74 21.5133C19.7696 22.3015 20.0957 23.0313 20.6292 23.5567C19.3843 25.5125 18.1395 27.4682 16.9243 29.424ZM9.06995 22.681C8.89212 21.7469 8.77356 20.8128 8.65501 19.8787C8.50681 18.6527 8.38826 17.4267 8.32898 16.2006C8.32898 16.1715 8.32898 16.1131 8.32898 16.0839C9.09959 16.9304 9.84057 17.7769 10.6112 18.6235C10.5519 18.7694 10.5223 18.9154 10.5223 19.0905C10.5223 19.3532 10.6112 19.6159 10.7297 19.8203C10.1666 20.7836 9.60346 21.7177 9.06995 22.681ZM19.3251 9.72033L21.3998 18.7402C20.807 19.0321 20.3031 19.5284 20.0364 20.1122C17.8431 19.6451 15.6202 19.1489 13.4269 18.6527C13.3973 18.5943 13.3676 18.5067 13.338 18.4483C15.3238 15.5293 17.3096 12.6394 19.3251 9.72033ZM23.6227 9.95385C25.3714 10.6252 27.1794 11.3258 28.8688 12.2015C28.8392 12.3475 28.8392 12.4642 28.8392 12.6102C28.8392 12.9605 28.9281 13.2816 29.0763 13.5443L24.2748 18.7694C23.8598 18.5359 23.356 18.4191 22.8521 18.3899C22.1704 15.3833 21.4591 12.3767 20.7774 9.37004C20.9256 9.28247 21.0441 9.16571 21.133 9.01975C21.9629 9.31166 22.7928 9.63276 23.6227 9.95385ZM13.2194 11.7053C14.7014 10.888 16.213 10.0122 17.8135 9.34085L12.1228 17.631C12.0931 17.631 12.0635 17.631 12.0042 17.631C11.8857 17.631 11.7967 17.631 11.7078 17.6602C10.8483 16.6969 9.98876 15.7336 9.12923 14.7703C9.18851 14.6244 9.21815 14.4784 9.21815 14.3033C9.21815 14.2157 9.21815 14.1573 9.18851 14.0697C9.4849 13.8654 9.81093 13.6903 10.1073 13.5151C11.115 12.9021 12.1821 12.2891 13.2194 11.7053ZM10.1962 25.0162C10.2555 24.8703 10.2852 24.7243 10.2852 24.5784C10.2852 24.3156 10.1962 24.0529 10.0777 23.8486C10.6705 22.8269 11.2929 21.7761 11.8857 20.7544L15.3534 29.4532C15.2349 29.3656 15.0867 29.278 14.9681 29.1613C13.2787 27.9061 11.6782 26.5341 10.1962 25.0162ZM18.5841 29.8035C18.4952 29.8327 18.4359 29.8619 18.347 29.8619C19.5029 27.9937 20.6884 26.1546 21.8444 24.2864C22.1408 24.374 22.4372 24.4324 22.7632 24.4324C23.6524 24.4324 24.4526 24.0529 25.0157 23.4691C26.0828 24.0529 27.1498 24.6075 28.1871 25.1914C28.1871 25.2789 28.1575 25.3957 28.1575 25.4833C28.1575 25.6 28.1575 25.7168 28.1871 25.8336C27.2387 26.3006 26.2902 26.7093 25.3121 27.1179C23.1485 28.1104 20.8959 29.0153 18.5841 29.8035Z" fill="white"></path><path d="M53.3799 13.4852H59.1298L61.086 20.9872L61.4121 19.3233L62.894 13.4852H67.4584L63.5164 25.7161H57.4997L53.3799 13.4852ZM68.6143 9.4569C68.6143 9.10661 68.7033 8.75632 68.8514 8.46441C68.9996 8.17251 69.2071 7.90979 69.4739 7.67627C69.7406 7.44274 70.037 7.29679 70.363 7.18003C70.6891 7.06326 71.0447 7.00488 71.43 7.00488C71.845 7.00488 72.2303 7.06326 72.586 7.23841C72.9416 7.38436 73.2084 7.5887 73.4751 7.82222C73.7122 8.05575 73.8901 8.31846 74.0383 8.61037C74.1568 8.90227 74.2457 9.19418 74.2457 9.48609C74.2457 9.86556 74.1568 10.1867 74.0086 10.4786C73.8604 10.7705 73.653 11.0332 73.3862 11.2667C73.1195 11.5002 72.8231 11.6754 72.497 11.7921C72.171 11.9089 71.8153 11.9673 71.4597 11.9673C71.0744 11.9673 70.6891 11.9089 70.363 11.763C70.0074 11.6462 69.711 11.471 69.4739 11.2375C69.2368 11.004 69.0293 10.7413 68.8811 10.4494C68.6736 10.0991 68.6143 9.77799 68.6143 9.4569ZM76.3501 25.0739C75.372 25.6285 74.305 25.9204 73.1195 25.9204C72.4081 25.9204 71.7857 25.8036 71.2522 25.5701C70.6891 25.3366 70.2445 25.0155 69.8592 24.5776C69.4739 24.1398 69.2071 23.6435 68.9996 23.0305C68.7922 22.4175 68.7033 21.7461 68.7033 21.0164V13.4852H73.9494V20.7829C73.9494 21.1623 74.0679 21.4542 74.2754 21.6586C74.4829 21.8629 74.7496 21.9505 75.0756 21.9505C75.4017 21.9505 75.7277 21.8629 76.0834 21.6586L76.3501 25.0739ZM77.8024 13.6603H83.0189V16.1415C83.4042 15.1491 83.9377 14.4485 84.5898 13.9814C85.2418 13.5144 86.0124 13.3101 86.872 13.3101L87.6129 17.3092C86.0421 17.3092 84.8862 17.4843 84.1452 17.8054C83.4042 18.1265 83.0485 18.6519 83.0485 19.3817V25.7161H77.8321V13.6603H77.8024ZM98.3719 23.4684C97.9866 24.2565 97.4531 24.8695 96.801 25.2782C96.149 25.6869 95.3191 25.9204 94.3114 25.9204C93.5111 25.9204 92.7405 25.7453 91.9995 25.4242C91.2585 25.1031 90.6065 24.6652 90.073 24.0814C89.5098 23.5268 89.0653 22.8554 88.7392 22.0672C88.4132 21.2791 88.2354 20.4326 88.2354 19.5277C88.2354 18.6228 88.4132 17.7762 88.7392 17.0173C89.0653 16.2583 89.5098 15.5869 90.073 15.0323C90.6361 14.4777 91.2882 14.0398 91.9995 13.7479C92.7108 13.456 93.5111 13.2809 94.2817 13.2809C94.6967 13.2809 95.1116 13.3392 95.4969 13.4268C95.9119 13.5436 96.2972 13.7187 96.6232 13.9523C96.9789 14.1858 97.3049 14.4777 97.6013 14.828C97.8977 15.1783 98.1348 15.6161 98.3423 16.1124V13.2517H103.559V25.6577H98.3423L98.3719 23.4684ZM98.3719 19.5277C98.3423 19.2066 98.283 18.9147 98.1348 18.6228C98.0162 18.3308 97.8088 18.0973 97.6013 17.8638C97.3642 17.6595 97.1271 17.4843 96.8307 17.3676C96.5343 17.2508 96.2379 17.1924 95.9119 17.1924C95.5562 17.1924 95.2302 17.2508 94.9338 17.3967C94.6374 17.5135 94.3706 17.6887 94.1335 17.9222C93.8964 18.1557 93.7186 18.4184 93.6 18.6811C93.4815 18.973 93.3926 19.2941 93.3926 19.6152C93.3926 19.9655 93.4518 20.2866 93.6 20.5785C93.7186 20.8704 93.9261 21.1331 94.1632 21.3375C94.4003 21.5418 94.667 21.717 94.9634 21.8337C95.2598 21.9505 95.5858 22.0089 95.9119 22.0089C96.2379 22.0089 96.5639 21.9505 96.8603 21.8045C97.1567 21.6878 97.3938 21.5126 97.6309 21.2791C97.8384 21.0748 98.0162 20.812 98.1644 20.5201C98.283 20.2282 98.3719 19.9363 98.3719 19.6444V19.5277ZM114.199 25.0739C113.073 25.6285 111.828 25.9204 110.465 25.9204C109.753 25.9204 109.131 25.8036 108.597 25.5701C108.034 25.3366 107.59 25.0155 107.204 24.6068C106.819 24.169 106.552 23.6727 106.345 23.0597C106.137 22.4467 106.048 21.7753 106.048 21.0164V9.63204L111.265 8.87308V20.6661C111.265 21.104 111.413 21.4251 111.68 21.6294C111.976 21.8337 112.332 21.9505 112.836 21.9505C113.191 21.9505 113.577 21.8629 113.962 21.6586L114.199 25.0739ZM128.189 25.0739C127.062 25.6285 125.818 25.9204 124.454 25.9204C123.743 25.9204 123.12 25.8036 122.587 25.5701C122.024 25.3366 121.579 25.0155 121.194 24.6068C120.809 24.1982 120.542 23.6435 120.334 23.0597C120.127 22.4467 120.038 21.7753 120.038 21.0164V9.63204L125.254 8.87308V20.6661C125.254 21.104 125.403 21.4251 125.669 21.6294C125.966 21.8337 126.321 21.9505 126.825 21.9505C127.181 21.9505 127.566 21.8629 127.952 21.6586L128.189 25.0739ZM128.841 19.586C128.87 18.5644 129.108 17.6595 129.493 16.8713C129.878 16.0832 130.412 15.441 131.034 14.9155C131.686 14.3901 132.427 13.9814 133.287 13.7187C134.146 13.456 135.035 13.3101 136.013 13.3101C137.051 13.3101 138.029 13.456 138.888 13.7771C139.748 14.0982 140.519 14.5069 141.141 15.0615C141.763 15.6161 142.267 16.2875 142.593 17.0465C142.949 17.8054 143.127 18.6519 143.127 19.586C143.127 20.345 143.038 21.0164 142.83 21.6002C142.623 22.2132 142.356 22.7386 142.03 23.2057C141.704 23.6727 141.289 24.0814 140.845 24.4025C140.4 24.7528 139.896 25.0155 139.363 25.249C138.829 25.4534 138.266 25.6285 137.703 25.7453C137.14 25.8328 136.577 25.8912 136.013 25.8912C134.946 25.8912 133.968 25.7453 133.109 25.4242C132.22 25.1323 131.479 24.6944 130.856 24.1398C130.234 23.5852 129.73 22.9138 129.404 22.1548C129.019 21.3959 128.841 20.5201 128.841 19.586ZM133.702 19.586C133.702 20.0239 133.761 20.4326 133.909 20.7537C134.028 21.0748 134.205 21.3667 134.443 21.6002C134.65 21.8337 134.917 21.9797 135.184 22.0964C135.45 22.2132 135.747 22.2716 136.043 22.2716C136.339 22.2716 136.636 22.2132 136.903 22.0964C137.169 21.9797 137.436 21.8337 137.644 21.6002C137.851 21.3667 138.029 21.104 138.177 20.7537C138.296 20.4326 138.385 20.0239 138.385 19.586C138.385 19.1482 138.325 18.7395 138.177 18.4184C138.059 18.0973 137.881 17.8054 137.644 17.6011C137.436 17.3967 137.169 17.2216 136.903 17.1048C136.636 16.9881 136.339 16.9297 136.043 16.9297C135.747 16.9297 135.48 16.9881 135.184 17.1048C134.887 17.2216 134.65 17.3967 134.443 17.6011C134.235 17.8054 134.057 18.0973 133.909 18.4184C133.761 18.7687 133.702 19.1482 133.702 19.586ZM144.401 19.586C144.431 18.5644 144.668 17.6595 145.053 16.8713C145.439 16.0832 145.972 15.441 146.595 14.9155C147.247 14.3901 147.988 13.9814 148.847 13.7187C149.707 13.456 150.596 13.3101 151.574 13.3101C152.611 13.3101 153.589 13.456 154.449 13.7771C155.308 14.0982 156.079 14.5069 156.701 15.0615C157.324 15.6161 157.828 16.2875 158.154 17.0465C158.509 17.8054 158.687 18.6519 158.687 19.586C158.687 20.345 158.598 21.0164 158.391 21.6002C158.183 22.2132 157.917 22.7386 157.591 23.2057C157.265 23.6727 156.85 24.0814 156.405 24.4025C155.961 24.7528 155.457 25.0155 154.923 25.249C154.39 25.4534 153.826 25.6285 153.263 25.7453C152.7 25.8328 152.137 25.8912 151.574 25.8912C150.507 25.8912 149.529 25.7453 148.669 25.4242C147.78 25.1323 147.039 24.6944 146.417 24.1398C145.794 23.5852 145.29 22.9138 144.964 22.1548C144.549 21.3959 144.401 20.5201 144.401 19.586ZM149.232 19.586C149.232 20.0239 149.292 20.4326 149.44 20.7537C149.558 21.0748 149.736 21.3667 149.973 21.6002C150.181 21.8045 150.448 21.9797 150.714 22.0964C151.011 22.2132 151.278 22.2716 151.574 22.2716C151.87 22.2716 152.137 22.2132 152.433 22.0964C152.73 21.9797 152.967 21.8045 153.174 21.6002C153.412 21.3667 153.56 21.104 153.708 20.7537C153.856 20.4034 153.915 20.0239 153.915 19.586C153.915 19.1482 153.856 18.7395 153.708 18.4184C153.589 18.0973 153.412 17.8054 153.174 17.6011C152.967 17.3967 152.7 17.2216 152.433 17.1048C152.167 16.9881 151.87 16.9297 151.574 16.9297C151.278 16.9297 151.011 16.9881 150.714 17.1048C150.418 17.2216 150.181 17.3967 149.973 17.6011C149.766 17.8054 149.588 18.0973 149.44 18.4184C149.292 18.7687 149.232 19.1482 149.232 19.586ZM169.832 25.9204C168.913 25.9204 168.113 25.7453 167.46 25.3658C166.779 24.9863 166.216 24.3733 165.771 23.4684V28.8979L160.555 29.8611V13.6603H165.771V15.7621C166.186 14.8864 166.749 14.2442 167.431 13.8647C168.113 13.4852 168.913 13.2809 169.832 13.2809C170.602 13.2809 171.314 13.3976 172.025 13.6312C172.707 13.8647 173.359 14.2733 173.981 14.8572C175.285 16.1124 175.908 17.6887 175.908 19.586C175.908 21.4542 175.256 23.0305 173.981 24.2857C173.388 24.8695 172.736 25.2782 172.054 25.5117C171.343 25.8036 170.602 25.9204 169.832 25.9204ZM165.771 19.6152C165.771 19.9655 165.83 20.2866 165.979 20.5785C166.097 20.8704 166.305 21.1331 166.512 21.3375C166.749 21.571 166.986 21.717 167.283 21.8629C167.579 21.9797 167.875 22.0381 168.201 22.0381C168.557 22.0381 168.883 21.9797 169.18 21.8337C169.476 21.717 169.743 21.5126 169.98 21.3083C170.187 21.0748 170.365 20.8412 170.513 20.5201C170.661 20.199 170.691 19.9071 170.691 19.586C170.691 19.2066 170.632 18.8563 170.484 18.5644C170.335 18.2725 170.158 18.0097 169.92 17.8054C169.683 17.6011 169.417 17.4259 169.12 17.3384C168.824 17.2216 168.527 17.1632 168.231 17.1632C167.846 17.1632 167.49 17.2216 167.194 17.3967C166.897 17.5427 166.66 17.7178 166.453 17.9514C166.245 18.1849 166.097 18.4184 165.979 18.7103C165.86 19.0022 165.801 19.2649 165.771 19.4985V19.6152ZM183.11 16.3459C182.132 16.3459 181.628 16.521 181.628 16.8421C181.628 16.9589 181.658 17.0756 181.746 17.1924C181.806 17.28 181.924 17.3676 182.043 17.4551C182.161 17.5427 182.31 17.6011 182.428 17.6303C182.576 17.6887 182.725 17.7178 182.873 17.7178C183.495 17.8054 184.088 17.9514 184.651 18.1557C185.185 18.36 185.659 18.6228 186.074 18.9438C186.459 19.2649 186.785 19.6736 187.022 20.1407C187.259 20.6077 187.378 21.1623 187.378 21.8337C187.378 22.4759 187.259 23.0597 187.022 23.556C186.785 24.0522 186.459 24.4901 186.074 24.8404C185.659 25.1906 185.185 25.4534 184.621 25.6285C184.058 25.8036 183.466 25.8912 182.813 25.8912C181.746 25.8912 180.798 25.8328 179.909 25.7453C179.02 25.6577 178.219 25.4534 177.508 25.1323L178.071 22.33C178.338 22.3883 178.575 22.4759 178.753 22.5051C178.96 22.5635 179.109 22.5927 179.257 22.6219C179.375 22.6511 179.524 22.6802 179.731 22.7094C179.909 22.7386 180.116 22.7678 180.324 22.8262C180.531 22.8554 180.739 22.8846 180.976 22.9138C181.183 22.943 181.391 22.943 181.569 22.943C182.398 22.943 182.813 22.7386 182.813 22.3592C182.784 22.2132 182.725 22.0672 182.636 21.9505C182.517 21.8337 182.399 21.717 182.25 21.6586C182.072 21.571 181.895 21.5126 181.717 21.4542C181.509 21.3959 181.302 21.3375 181.094 21.3083C180.472 21.1915 179.909 21.0164 179.435 20.8412C178.96 20.6369 178.545 20.3742 178.219 20.0823C177.893 19.7612 177.656 19.3817 177.478 18.9147C177.301 18.4476 177.241 17.9222 177.241 17.28C177.271 16.5794 177.419 15.9664 177.716 15.441C177.982 14.9447 178.368 14.5069 178.842 14.215C179.316 13.8939 179.85 13.6603 180.502 13.5144C181.154 13.3684 181.835 13.2809 182.576 13.2809C183.347 13.2809 184.088 13.3101 184.799 13.3976C185.481 13.4852 186.133 13.6603 186.755 13.9523L186.222 16.8713C184.918 16.5502 183.91 16.3459 183.11 16.3459Z" fill="#8D8C8E"></path></svg>