<svg xmlns="http://www.w3.org/2000/svg" width="273" height="261" viewBox="0 0 273 261" fill="none"><g clip-path="url(#clip0_4194_7201)"><path d="M175.549 117.586L161.422 162.847C157.675 174.853 159.278 187.893 165.827 198.629L181.984 225.124C184.21 228.77 183.001 233.532 179.308 235.677L139.948 258.537C134.766 261.545 128.375 261.553 123.189 258.558L64.3772 224.587C60.0979 222.116 60.0695 215.946 64.3243 213.435L103.428 190.359C106.519 188.536 107.528 184.539 105.673 181.462L89.0197 153.848C82.5642 143.145 81.0022 130.186 84.7242 118.249L97.6841 76.7368C99.242 71.7431 105.03 69.4803 109.558 72.0972L171.839 108.075C175.147 109.983 176.688 113.935 175.549 117.582V117.586Z" fill="#D3C6F9"></path><path d="M131.552 261C128.623 261 125.698 260.247 123.083 258.737L64.271 224.766C62.1965 223.569 60.9517 221.42 60.9395 219.027C60.9273 216.63 62.1517 214.473 64.2182 213.256L103.322 190.18C104.77 189.326 105.791 187.958 106.202 186.33C106.612 184.702 106.36 183.009 105.494 181.573L88.8403 153.959C82.3563 143.21 80.7862 130.174 84.5244 118.193L97.4844 76.68C98.245 74.2381 100.047 72.3049 102.431 71.3729C104.81 70.4409 107.446 70.6444 109.663 71.9224L171.945 107.9C175.362 109.874 176.928 113.883 175.748 117.651L161.621 162.912C157.891 174.861 159.489 187.84 166.006 198.523L182.163 225.018C183.269 226.829 183.591 228.962 183.066 231.017C182.541 233.072 181.248 234.794 179.413 235.86L140.054 258.721C137.434 260.243 134.493 261.004 131.552 261.004V261ZM105.482 71.2101C104.505 71.2101 103.521 71.3933 102.581 71.7596C100.32 72.6427 98.603 74.4823 97.8789 76.8021L84.919 118.315C81.2133 130.182 82.7712 143.096 89.1942 153.743L105.848 181.357C106.775 182.891 107.04 184.694 106.604 186.432C106.165 188.17 105.075 189.627 103.529 190.538L64.4256 213.614C62.4934 214.754 61.3423 216.777 61.3545 219.023C61.3667 221.27 62.53 223.28 64.4744 224.404L123.286 258.375C128.395 261.325 134.737 261.317 139.838 258.354L179.198 235.494C180.935 234.485 182.163 232.857 182.659 230.907C183.152 228.958 182.85 226.943 181.801 225.226L165.644 198.731C159.066 187.946 157.451 174.841 161.218 162.778L175.345 117.517C176.464 113.936 174.975 110.126 171.729 108.25L109.448 72.2724C108.219 71.5602 106.852 71.202 105.478 71.202L105.482 71.2101Z" fill="black"></path><g style="mix-blend-mode:multiply" opacity="0.5"><path d="M181.984 225.124L165.827 198.629C159.502 188.264 157.789 175.749 161.055 164.089L154.913 184.922C153.506 189.7 147.957 191.841 143.706 189.248C127.069 179.09 91.5739 157.43 91.6675 157.581L105.673 181.463C107.528 184.536 106.519 188.532 103.427 190.36L71.5117 209.191L118.844 236.801C124.47 242.429 123.445 248.583 118.23 254.268L118.161 255.656L123.185 258.558C128.371 261.554 134.765 261.545 139.944 258.538L179.303 235.677C182.997 233.533 184.205 228.771 181.98 225.124H181.984Z" fill="#32303B"></path></g><g style="mix-blend-mode:multiply" opacity="0.5"><path d="M173.487 235.657L106.572 195.988L128.9 178.793C128.9 178.793 155.597 192.81 161.918 203.18L176.322 225.202C178.547 228.844 177.181 233.512 173.487 235.661V235.657Z" fill="#32303B"></path></g><g style="mix-blend-mode:multiply" opacity="0.5"><path d="M185.006 136.69C180.052 134.761 175.459 133.732 170.191 134.444L175.919 116.467C177.343 111.994 172.046 108.437 168.446 111.445L69.8926 193.803L150.471 236.821C154.189 238.807 158.7 238.571 162.194 236.207L176.761 226.349L178.006 218.6L221.502 218.613C226.685 218.613 231.814 217.583 236.598 215.581L269.026 201.987C273.863 199.96 274.416 193.331 269.99 190.522L185.01 136.694L185.006 136.69Z" fill="#32303B"></path></g><path d="M191.571 51.2964C191.571 51.2964 137.816 223.488 137.751 223.655C136.941 225.82 135.265 227.546 133.203 228.588L126.78 232.014L54.9025 186.859C51.1317 184.682 49.3744 180.181 50.672 176.021L102.483 2.1447L111.465 0.492341C114.617 -0.175116 117.904 0.345826 120.69 1.95749L187.345 40.4583C191.116 42.6357 192.873 47.137 191.575 51.2964H191.571Z" fill="#8575E9"></path><path d="M126.776 232.254L126.674 232.189L54.7967 187.03C50.9201 184.792 49.1425 180.234 50.4808 175.956L102.32 1.96155L111.424 0.288835C114.625 -0.390831 117.953 0.13825 120.792 1.7784L187.447 40.2793C191.327 42.5218 193.105 47.08 191.771 51.3615C186.267 68.988 138.011 223.565 137.946 223.728C137.145 225.873 135.493 227.668 133.301 228.775L126.776 232.254ZM102.646 2.32783L50.8754 176.078C49.5981 180.177 51.2984 184.531 55.0082 186.676L126.788 231.774L133.105 228.404C135.208 227.342 136.787 225.629 137.555 223.582C137.747 223 190.835 52.9528 191.372 51.2353C192.649 47.141 190.949 42.7822 187.235 40.6374L120.585 2.13655C117.835 0.549306 114.609 0.0365042 111.505 0.695821L102.646 2.32376V2.32783Z" fill="#111111"></path><path d="M183.729 55.5207L130.083 227.375C129.225 232.49 122.627 235.067 117.465 232.087L46.4786 191.084C42.7078 188.906 40.9506 184.405 42.2482 180.246L95.8939 8.39179C97.6715 2.69805 104.265 0.121834 109.427 3.10504L180.414 44.1089C184.185 46.2862 185.942 50.7875 183.725 55.5248L183.729 55.5207Z" fill="#D3C6F9"></path><path d="M122.171 233.569C120.52 233.569 118.856 233.133 117.359 232.27L46.3726 191.266C42.492 189.024 40.7103 184.47 42.0486 180.184L95.6984 8.32636C96.5648 5.55071 98.615 3.35299 101.32 2.2989C104.025 1.24073 107.019 1.46864 109.537 2.92158L180.523 43.9254C184.628 46.2981 186.027 51.0924 183.924 55.5937L130.283 227.435C129.904 229.69 128.375 231.615 126.093 232.694C124.856 233.276 123.518 233.565 122.171 233.565V233.569ZM104.782 2.05877C103.663 2.05877 102.54 2.26634 101.466 2.68553C98.8794 3.69486 96.9187 5.79897 96.0929 8.45252L42.4472 180.306C41.17 184.401 42.8703 188.759 46.5842 190.904L117.571 231.908C120.166 233.406 123.286 233.56 125.918 232.319C128.074 231.302 129.522 229.487 129.88 227.342L183.534 55.4472V55.435C185.584 51.0639 184.286 46.5871 180.312 44.2876L109.325 3.2838C107.918 2.46983 106.356 2.05877 104.786 2.05877H104.782Z" fill="black"></path><path d="M181.91 54.0933L128.269 225.947C127.422 228.658 124.945 230.477 122.106 230.477C120.975 230.477 119.897 230.184 118.896 229.606L47.9098 188.602C45.282 187.084 44.078 183.999 44.9851 181.097L98.6308 9.24346C99.4769 6.537 101.95 4.71777 104.789 4.71777C105.92 4.71777 106.998 5.01487 107.999 5.58872L131.214 18.9989C132.271 19.6094 132.865 20.3053 133.186 21.1722C133.935 23.2031 135.407 24.8799 137.283 25.9584C139.256 27.0939 143.083 29.2549 145.239 30.4881C147.375 31.7131 149.893 32.3033 152.297 31.7783C152.797 31.6684 153.326 31.7294 153.798 32.0021L178.981 46.5885C181.613 48.1065 182.813 51.1915 181.906 54.0933H181.91Z" fill="white"></path><path d="M122.101 230.684C120.93 230.684 119.815 230.383 118.79 229.789L47.8035 188.785C45.0903 187.214 43.8456 184.031 44.7812 181.04L98.431 9.18196C99.3015 6.38597 101.856 4.50977 104.789 4.50977C105.948 4.50977 107.063 4.81094 108.1 5.40513L131.319 18.8153C132.376 19.4258 133.035 20.1543 133.385 21.0985C134.105 23.0439 135.525 24.7044 137.388 25.7748C138.413 26.3649 139.934 27.2277 141.464 28.0946C142.883 28.9004 144.307 29.7103 145.344 30.3045C147.606 31.5987 150.059 32.0505 152.256 31.5743C152.837 31.4482 153.407 31.5336 153.907 31.8226L179.091 46.409C181.804 47.9758 183.049 51.1625 182.113 54.1539L128.471 226.008C127.601 228.804 125.042 230.68 122.109 230.68L122.101 230.684ZM104.789 4.92489C102.043 4.92489 99.6472 6.68714 98.8296 9.30813L45.1798 181.162C44.3012 183.966 45.4686 186.953 48.011 188.423L118.998 229.426C119.962 229.984 121.007 230.269 122.101 230.269C124.851 230.269 127.247 228.507 128.065 225.886L181.71 54.0318C182.589 51.2277 181.422 48.2404 178.879 46.7712L153.696 32.1848C153.289 31.9487 152.821 31.8796 152.341 31.9854C150.047 32.486 147.484 32.0179 145.137 30.6708C144.1 30.0766 142.676 29.2667 141.256 28.4609C139.727 27.594 138.206 26.7271 137.18 26.1411C135.232 25.0219 133.747 23.284 132.995 21.2491C132.682 20.3985 132.084 19.7432 131.111 19.1816L107.897 5.77142C106.924 5.21385 105.879 4.92896 104.793 4.92896L104.789 4.92489Z" fill="black"></path><path d="M137.661 23.4101C137.527 23.8619 137.079 24.0572 136.664 23.8497C136.25 23.6421 136.026 23.1049 136.16 22.6572C136.294 22.2054 136.742 22.0101 137.157 22.2177C137.572 22.4252 137.795 22.9624 137.661 23.4101Z" fill="#12184E"></path><path d="M147.591 30.5485C147.359 30.5485 147.128 30.4875 146.912 30.3654L138.821 25.6525C138.178 25.2781 137.959 24.4519 138.333 23.8048C138.707 23.1577 139.533 22.942 140.18 23.3164L148.271 28.0293C148.917 28.4037 149.133 29.2299 148.759 29.877C148.506 30.3084 148.055 30.5485 147.591 30.5485Z" fill="#12184E"></path><g style="mix-blend-mode:multiply" opacity="0.5"><path d="M92.8517 16.8574C92.8517 16.8574 114.061 22.4291 123.99 28.0536L167.52 52.6966C169.126 53.6082 169.883 55.5211 169.33 57.2833L148.844 121.16C148.096 123.541 145.346 124.627 143.178 123.398L101.536 99.8256C91.7534 94.2865 81.1812 90.473 70.2715 88.4747L92.8517 16.8574Z" fill="#32303B"></path></g><path d="M33.8652 83.8666C31.0178 84.2777 28.7114 81.5794 29.5615 78.8282L49.579 15.2977C50.0305 13.8407 51.2834 12.7744 52.7966 12.5709L57.202 11.9726C78.8954 9.03009 100.955 13.275 120.004 24.0601L163.533 48.7031C165.144 49.6147 165.897 51.5276 165.344 53.2898L144.858 117.166C144.11 119.547 141.36 120.634 139.192 119.405L97.5502 95.832C78.2324 84.8963 55.8352 80.6881 33.8693 83.8666H33.8652Z" fill="#D3C6F9"></path><path d="M141.115 120.121C140.415 120.121 139.716 119.942 139.085 119.584L97.4433 96.0114C78.2679 85.1571 55.6999 80.9163 33.8926 84.0745C32.4811 84.278 31.0899 83.753 30.1665 82.6704C29.2432 81.5879 28.9421 80.1309 29.3611 78.7674L49.3786 15.2329C49.8505 13.7067 51.1806 12.5794 52.767 12.3636L57.1724 11.7654C78.7804 8.83101 101.129 13.1329 120.105 23.8773L163.634 48.5203C165.318 49.4726 166.119 51.5035 165.538 53.3512L145.052 117.232C144.678 118.424 143.796 119.372 142.632 119.832C142.14 120.028 141.627 120.121 141.115 120.121ZM48.0769 82.6379C65.3527 82.6379 82.5472 87.0985 97.6467 95.6492L139.288 119.222C140.269 119.775 141.432 119.857 142.478 119.446C143.523 119.031 144.32 118.18 144.654 117.106L165.139 53.225C165.66 51.5645 164.94 49.7372 163.427 48.8825L119.897 24.2395C100.999 13.5398 78.7397 9.25835 57.2253 12.1764L52.8199 12.7747C51.3962 12.966 50.2003 13.9794 49.7732 15.355L29.7557 78.8895C29.3774 80.1105 29.6499 81.4251 30.4798 82.3978C31.3096 83.3705 32.5625 83.8426 33.8316 83.6594C38.5583 82.9757 43.3217 82.6379 48.0769 82.6379Z" fill="black"></path><path d="M107.125 30.0431L106.893 30.792L106.401 32.3711C104.79 31.7321 103.167 31.142 101.531 30.5885C95.3484 28.4925 88.9661 26.9907 82.4902 26.1076L83.2224 23.7471C91.4068 24.8988 99.4447 27.0152 107.133 30.0431H107.125Z" fill="black"></path><path d="M75.2947 22.9373L74.5503 25.3303C68.3795 24.96 62.1599 25.1553 56.0176 25.9083L56.8149 23.3605C62.9409 22.6809 69.1443 22.5343 75.2906 22.9373H75.2947Z" fill="black"></path><path d="M99.9829 35.5171L99.2547 37.841C88.7843 34.3084 77.8705 32.481 66.8184 32.4199L67.575 29.9902C78.6189 30.1286 89.5165 31.9926 99.9829 35.5171Z" fill="black"></path><path d="M59.8539 30.1779L59.0811 32.6686C57.3034 32.7948 55.5136 32.9657 53.7441 33.1774L54.5414 30.6337C56.3068 30.4343 58.0885 30.2837 59.858 30.1738L59.8539 30.1779Z" fill="black"></path><path d="M98.1874 42.9405L97.4633 45.2685C82.7583 40.2259 66.89 38.5695 51.4609 40.4538L52.2582 37.9102C67.6832 36.1845 83.4987 37.9102 98.1874 42.9405Z" fill="black"></path><path d="M97.269 50.677L96.549 53.005C93.4738 51.898 90.3172 50.9334 87.1484 50.1357L87.8684 47.8037C91.0331 48.6136 94.1857 49.57 97.269 50.677Z" fill="black"></path><path d="M78.252 45.8225L77.5239 48.1708C68.1314 46.7179 58.6169 46.5713 49.1797 47.7313L49.977 45.1835C59.3898 44.1254 68.8839 44.337 78.252 45.8225Z" fill="black"></path><path d="M96.3494 58.4265L95.6335 60.7586C87.4125 57.6858 78.8214 55.6753 70.0879 54.78L70.8242 52.4072C79.5495 53.3433 88.1244 55.3701 96.3494 58.4306V58.4265Z" fill="black"></path><path d="M59.7158 51.7922L58.9633 54.2301C54.9402 54.2504 50.8928 54.5068 46.9023 55.0033L47.6996 52.4556C51.682 52.0079 55.7131 51.7841 59.7158 51.7881V51.7922Z" fill="black"></path><path d="M93.1923 65.3655L92.4723 67.6935C77.2264 62.1625 60.7112 60.2945 44.6191 62.2846L45.4164 59.7369C61.5044 57.9217 77.9626 59.8549 93.1923 65.3655Z" fill="black"></path><path d="M92.5665 73.233L91.8424 75.5691C76.1165 69.5619 59.044 67.4904 42.3418 69.5579L43.1431 67.0101C59.8332 65.1217 76.8568 67.2625 92.5665 73.233Z" fill="black"></path><path d="M130.221 85.3001C130.046 85.3001 129.871 85.3001 129.692 85.292C118.119 84.9745 107.991 74.2382 107.116 61.3571C106.673 54.8331 108.723 48.6266 112.742 44.3248C116.232 40.5886 120.951 38.5293 126.031 38.5293C126.206 38.5293 126.381 38.5293 126.56 38.5374C138.137 38.8549 148.262 49.5912 149.136 62.4723C149.58 68.9963 147.529 75.2028 143.51 79.5046C140.02 83.2408 135.302 85.3001 130.221 85.3001Z" fill="#111111"></path><path d="M126.031 38.7247C126.206 38.7247 126.377 38.7247 126.551 38.7328C138.047 39.0462 148.07 49.6848 148.94 62.4845C149.795 75.0929 141.452 85.1048 130.221 85.1048C130.046 85.1048 129.875 85.1048 129.7 85.0967C118.204 84.7833 108.181 74.1447 107.311 61.345C106.457 48.7365 114.8 38.7247 126.031 38.7247ZM126.031 38.334C120.897 38.334 116.126 40.4137 112.599 44.1905C108.543 48.533 106.477 54.7925 106.92 61.3694C107.803 74.3482 118.013 85.1658 129.684 85.4874C129.863 85.4914 130.042 85.4955 130.217 85.4955C135.35 85.4955 140.122 83.4158 143.648 79.639C147.704 75.2964 149.774 69.037 149.327 62.4601C148.444 49.4813 138.234 38.6636 126.564 38.3421C126.385 38.3381 126.21 38.334 126.031 38.334Z" fill="black"></path><path d="M125.47 95.7227L123.648 97.1145L121.216 95.9546L122.265 98.6367L121 100.647L123.473 100.908L125.121 103.309L125.601 100.794L127.883 100.265L125.706 98.4454L125.47 95.7227Z" fill="#D7FF65"></path><path d="M125.077 103.488C125.024 103.488 124.975 103.468 124.947 103.427L123.336 101.079L120.94 100.822C120.883 100.814 120.838 100.786 120.818 100.741C120.797 100.696 120.806 100.639 120.838 100.586L122.054 98.653L121.033 96.0442C121.009 95.975 121.033 95.8936 121.107 95.8367C121.18 95.7797 121.273 95.7634 121.342 95.796L123.661 96.903L125.365 95.6006C125.422 95.5558 125.5 95.5396 125.561 95.5518C125.622 95.5681 125.667 95.6128 125.671 95.6739L125.902 98.3437L128.038 100.13C128.087 100.171 128.099 100.24 128.066 100.305C128.038 100.37 127.969 100.423 127.892 100.444L125.768 100.932L125.317 103.305C125.3 103.382 125.235 103.451 125.15 103.48C125.125 103.488 125.097 103.492 125.073 103.492L125.077 103.488ZM121.302 100.493L123.539 100.733C123.588 100.737 123.624 100.761 123.649 100.794L125.024 102.796L125.402 100.798C125.418 100.712 125.496 100.639 125.589 100.619L127.464 100.187L125.553 98.5879C125.524 98.5635 125.508 98.535 125.504 98.4984L125.292 96.0605L123.751 97.2408C123.681 97.2937 123.588 97.31 123.523 97.2774L121.595 96.3576L122.453 98.5472C122.469 98.592 122.461 98.6449 122.433 98.6978L121.302 100.497V100.493Z" fill="#040100"></path><path d="M133.541 100.712L131.718 102.108L129.286 100.948L130.335 103.626L129.07 105.636L131.544 105.901L133.191 108.302L133.667 105.783L135.953 105.258L133.777 103.439L133.541 100.712Z" fill="#D7FF65"></path><path d="M133.147 108.477C133.094 108.477 133.045 108.453 133.017 108.416L131.406 106.068L129.01 105.811C128.953 105.803 128.908 105.775 128.888 105.73C128.868 105.685 128.876 105.628 128.908 105.575L130.125 103.642L129.104 101.033C129.079 100.964 129.104 100.883 129.177 100.826C129.246 100.769 129.344 100.752 129.413 100.785L131.731 101.892L133.436 100.59C133.493 100.545 133.57 100.524 133.631 100.541C133.692 100.557 133.737 100.602 133.741 100.663L133.973 103.333L136.108 105.119C136.157 105.16 136.169 105.229 136.137 105.294C136.104 105.359 136.039 105.412 135.962 105.433L133.839 105.921L133.387 108.294C133.375 108.371 133.306 108.44 133.224 108.469C133.2 108.477 133.171 108.481 133.147 108.481V108.477ZM129.372 105.482L131.609 105.722C131.658 105.726 131.695 105.75 131.719 105.783L133.094 107.785L133.472 105.787C133.489 105.701 133.566 105.628 133.66 105.608L135.535 105.176L133.623 103.577C133.594 103.552 133.578 103.524 133.578 103.487L133.367 101.049L131.825 102.226C131.756 102.279 131.662 102.295 131.597 102.262L129.669 101.342L130.527 103.532C130.544 103.577 130.535 103.63 130.507 103.683L129.376 105.482H129.372Z" fill="#040100"></path><path d="M117.375 90.8311L115.548 92.227L113.12 91.0671L114.169 93.7451L112.904 95.7556L115.378 96.0201L117.025 98.4213L117.501 95.9021L119.787 95.3771L117.611 93.5579L117.375 90.8311Z" fill="#D7FF65"></path><path d="M116.981 98.5961C116.928 98.5961 116.879 98.5717 116.851 98.535L115.24 96.1867L112.844 95.9303C112.787 95.9222 112.742 95.8937 112.722 95.8489C112.702 95.8042 112.71 95.7472 112.742 95.6943L113.959 93.7611L112.938 91.1523C112.913 91.0831 112.938 91.0017 113.011 90.9448C113.084 90.8878 113.178 90.8715 113.247 90.9041L115.565 92.0111L117.27 90.7087C117.327 90.6639 117.404 90.6436 117.465 90.6599C117.526 90.6761 117.571 90.7209 117.575 90.782L117.807 93.4518L119.942 95.2385C119.991 95.2792 120.003 95.3483 119.971 95.4135C119.942 95.4786 119.873 95.5315 119.796 95.5518L117.673 96.0402L117.221 98.4129C117.209 98.4903 117.14 98.5595 117.058 98.588C117.034 98.5961 117.005 98.6002 116.981 98.6002V98.5961ZM113.206 95.6007L115.439 95.8408C115.488 95.8449 115.525 95.8693 115.549 95.9018L116.924 97.9042L117.302 95.9059C117.319 95.8204 117.396 95.7472 117.489 95.7268L119.369 95.2954L117.457 93.696C117.428 93.6716 117.412 93.6431 117.408 93.6064L117.197 91.1686L115.655 92.3448C115.586 92.3977 115.492 92.414 115.427 92.3814L113.499 91.4616L114.357 93.6512C114.374 93.696 114.369 93.7489 114.337 93.8018L113.206 95.6007Z" fill="#040100"></path><path d="M109.255 86.0195L107.433 87.4155L105.005 86.2556L106.054 88.9336L104.789 90.9441L107.258 91.2086L108.91 93.6098L109.386 91.0906L111.672 90.5656L109.495 88.7463L109.255 86.0195Z" fill="#D7FF65"></path><path d="M108.866 93.7849C108.813 93.7849 108.764 93.7645 108.736 93.7238L107.125 91.3755L104.729 91.1191C104.672 91.111 104.627 91.0825 104.607 91.0377C104.586 90.993 104.595 90.936 104.627 90.8831L105.843 88.9499L104.822 86.3411C104.798 86.2719 104.822 86.1905 104.9 86.1335C104.977 86.0766 105.066 86.0603 105.136 86.0928L107.454 87.1998L109.159 85.8975C109.216 85.8527 109.293 85.8364 109.354 85.8487C109.419 85.8649 109.46 85.9097 109.464 85.9707L109.696 88.6406L111.831 90.4232C111.88 90.4639 111.892 90.5331 111.86 90.5982C111.827 90.6633 111.762 90.7203 111.685 90.7365L109.561 91.2249L109.11 93.5977C109.094 93.675 109.028 93.7442 108.947 93.7727C108.923 93.7808 108.894 93.7849 108.87 93.7849H108.866ZM105.091 90.7935L107.328 91.0336C107.377 91.0377 107.414 91.0621 107.438 91.0947L108.813 93.0971L109.191 91.0988C109.207 91.0133 109.285 90.94 109.378 90.9197L111.254 90.4883L109.342 88.8888C109.313 88.8644 109.297 88.8359 109.293 88.7993L109.081 86.3615L107.54 87.5376C107.47 87.5905 107.377 87.6068 107.308 87.5743L105.38 86.6545L106.238 88.8441C106.254 88.8888 106.246 88.9417 106.218 88.9946L105.087 90.7935H105.091Z" fill="#040100"></path><path d="M101.173 81.0791L99.3511 82.471L96.9226 81.3152L97.9721 83.9931L96.707 86.0036L99.1762 86.2641L100.828 88.6653L101.304 86.1501L103.59 85.6251L101.413 83.8059L101.173 81.0791Z" fill="#D7FF65"></path><path d="M100.784 88.8444C100.731 88.8444 100.682 88.8241 100.654 88.7834L99.0427 86.4351L96.6468 86.1787C96.5898 86.1705 96.5451 86.1421 96.5248 86.0973C96.5044 86.0525 96.5126 85.9955 96.5451 85.9426L97.7614 84.0095L96.7404 81.4007C96.716 81.3356 96.7444 81.2501 96.8176 81.1931C96.8868 81.1361 96.9844 81.1199 97.0536 81.1524L99.3722 82.2594L101.077 80.9571C101.138 80.9123 101.211 80.896 101.272 80.9082C101.333 80.9245 101.378 80.9693 101.382 81.0303L101.614 83.7001L103.749 85.4827C103.798 85.5234 103.81 85.5926 103.778 85.6577C103.745 85.7229 103.68 85.7758 103.603 85.7961L101.479 86.2845L101.028 88.6572C101.012 88.7346 100.946 88.8037 100.865 88.8322C100.841 88.8404 100.812 88.8444 100.788 88.8444H100.784ZM97.0088 85.849L99.242 86.0891C99.2908 86.0932 99.3275 86.1176 99.3519 86.1502L100.727 88.1526L101.105 86.1543C101.121 86.0688 101.199 85.9955 101.292 85.9752L103.167 85.5438L101.256 83.9443C101.227 83.9199 101.211 83.8914 101.211 83.8548L100.999 81.417L99.4576 82.5931C99.3885 82.6461 99.2949 82.6623 99.2258 82.6298L97.2976 81.71L98.1559 83.8996C98.1722 83.9443 98.1641 83.9972 98.1356 84.0502L97.0048 85.849H97.0088Z" fill="#040100"></path><g style="mix-blend-mode:multiply" opacity="0.5"><path d="M63.6777 101.853C63.6777 101.853 84.887 107.424 94.8205 113.049L138.35 137.692C139.96 138.603 140.713 140.516 140.16 142.278L119.675 206.155C118.926 208.536 116.176 209.622 114.008 208.393L72.3664 184.821C62.5834 179.282 52.0113 175.468 41.1016 173.47L63.6817 101.857L63.6777 101.853Z" fill="#32303B"></path></g><path d="M4.68945 168.867C1.84201 169.278 -0.46441 166.579 0.385753 163.828L20.4032 100.298C20.8548 98.8407 22.1076 97.7744 23.6208 97.5709L28.0262 96.9726C49.7196 94.0301 71.7751 98.275 90.8285 109.06L134.358 133.703C135.964 134.615 136.721 136.528 136.168 138.29L115.683 202.166C114.934 204.547 112.184 205.634 110.016 204.405L68.3744 180.832C49.0566 169.896 26.6595 165.688 4.69352 168.867H4.68945Z" fill="#D3C6F9"></path><path d="M111.941 205.121C111.237 205.121 110.542 204.942 109.911 204.583L68.2695 181.011C49.094 170.157 26.5261 165.916 4.71878 169.074C3.30727 169.277 1.91609 168.752 0.99271 167.67C0.0693266 166.587 -0.231688 165.126 0.187292 163.767L20.2048 100.232C20.6766 98.7061 22.0068 97.5787 23.5932 97.363L27.9986 96.7648C49.6066 93.8345 71.9549 98.1322 90.931 108.877L134.46 133.52C136.144 134.472 136.946 136.503 136.364 138.351L115.879 202.231C115.504 203.424 114.622 204.372 113.458 204.832C112.966 205.027 112.454 205.121 111.941 205.121ZM18.9031 167.637C36.1789 167.637 53.3733 172.098 68.4729 180.649L110.115 204.221C111.095 204.775 112.254 204.856 113.304 204.445C114.349 204.03 115.146 203.179 115.48 202.105L135.965 138.224C136.486 136.564 135.766 134.741 134.253 133.882L90.7236 109.239C71.8247 98.5392 49.5659 94.2577 28.0515 97.1758L23.6461 97.7741C22.2224 97.9654 21.0265 98.9788 20.5993 100.354L0.581865 163.889C0.203563 165.11 0.476103 166.424 1.30593 167.397C2.13575 168.37 3.38862 168.842 4.65777 168.659C9.38451 167.975 14.1479 167.637 18.9031 167.637Z" fill="black"></path><path d="M77.951 115.038L77.7191 115.787L77.2269 117.366C75.6161 116.727 73.993 116.137 72.3537 115.584C66.1707 113.488 59.7884 111.986 53.3125 111.103L54.0447 108.742C62.229 109.894 70.267 112.01 77.955 115.038H77.951Z" fill="black"></path><path d="M46.1209 107.936L45.3765 110.329C39.2057 109.959 32.9861 110.154 26.8438 110.907L27.641 108.36C33.7671 107.68 39.9704 107.533 46.1168 107.936H46.1209Z" fill="black"></path><path d="M70.809 120.516L70.0809 122.84C59.6105 119.307 48.6967 117.48 37.6445 117.419L38.4011 114.989C49.4451 115.128 60.3427 116.992 70.809 120.516Z" fill="black"></path><path d="M30.6801 115.177L29.9072 117.668C28.1296 117.794 26.3398 117.965 24.5703 118.176L25.3676 115.633C27.133 115.433 28.9147 115.283 30.6842 115.173L30.6801 115.177Z" fill="black"></path><path d="M69.0135 127.94L68.2895 130.267C53.5845 125.225 37.7161 123.568 22.2871 125.453L23.0844 122.909C38.5094 121.184 54.3248 122.909 69.0135 127.94Z" fill="black"></path><path d="M68.0952 135.676L67.3752 138.004C64.3 136.897 61.1434 135.932 57.9746 135.135L58.6946 132.803C61.8593 133.613 65.0118 134.569 68.0952 135.676Z" fill="black"></path><path d="M49.0782 130.822L48.3501 133.17C38.9576 131.717 29.4431 131.57 20.0059 132.73L20.8031 130.183C30.216 129.124 39.7101 129.336 49.0782 130.822Z" fill="black"></path><path d="M67.1756 143.426L66.4596 145.758C58.2387 142.685 49.6476 140.674 40.9141 139.779L41.6503 137.406C50.3757 138.342 58.9505 140.369 67.1756 143.43V143.426Z" fill="black"></path><path d="M30.542 136.791L29.7894 139.229C25.7664 139.249 21.719 139.506 17.7285 140.002L18.5258 137.455C22.5081 137.007 26.5393 136.783 30.542 136.787V136.791Z" fill="black"></path><path d="M64.0185 150.361L63.2985 152.689C48.0525 147.158 31.5374 145.29 15.4453 147.28L16.2426 144.732C32.3306 142.917 48.7888 144.85 64.0185 150.361Z" fill="black"></path><path d="M63.3927 158.227L62.6686 160.563C46.9426 154.556 29.8702 152.485 13.168 154.552L13.9693 152.004C30.6594 150.116 47.683 152.257 63.3927 158.227Z" fill="black"></path><path d="M96.2966 180.722L94.4743 182.114L92.0418 180.954L93.0912 183.636L91.8262 185.642L94.2994 185.907L95.9468 188.308L96.4268 185.789L98.7088 185.264L96.5326 183.444L96.2966 180.722Z" fill="black"></path><path d="M95.9029 188.487C95.8459 188.487 95.8012 188.467 95.7727 188.426L94.1618 186.078L91.7659 185.821C91.709 185.813 91.6642 185.785 91.6439 185.74C91.6236 185.695 91.6317 185.638 91.6642 185.585L92.8805 183.652L91.8595 181.043C91.831 180.978 91.8595 180.893 91.9327 180.836C92.0019 180.779 92.0995 180.762 92.1686 180.795L94.4873 181.902L96.1917 180.6C96.2486 180.555 96.3259 180.539 96.3869 180.551C96.4479 180.567 96.4927 180.612 96.4967 180.673L96.7286 183.343L98.8642 185.125C98.913 185.166 98.9252 185.235 98.8927 185.3C98.8642 185.365 98.795 185.422 98.7177 185.439L96.5944 185.927L96.1429 188.3C96.1266 188.377 96.0615 188.446 95.9761 188.475C95.9517 188.483 95.9273 188.487 95.8988 188.487H95.9029ZM92.128 185.496L94.3612 185.732C94.41 185.736 94.4466 185.76 94.471 185.793L95.8459 187.795L96.2242 185.797C96.2405 185.711 96.3178 185.638 96.4113 185.618L98.2866 185.186L96.3747 183.587C96.3462 183.562 96.33 183.534 96.3259 183.497L96.1144 181.06L94.5727 182.236C94.5035 182.289 94.41 182.305 94.3449 182.272L92.4168 181.353L93.2751 183.542C93.2914 183.587 93.2873 183.644 93.2547 183.693L92.1239 185.492L92.128 185.496Z" fill="#040100"></path><path d="M104.367 185.712L102.545 187.104L100.112 185.948L101.162 188.626L99.8965 190.636L102.37 190.901L104.017 193.298L104.493 190.783L106.779 190.258L104.603 188.439L104.367 185.712Z" fill="black"></path><path d="M103.973 193.477C103.92 193.477 103.871 193.457 103.843 193.416L102.232 191.068L99.8362 190.811C99.7793 190.807 99.7346 190.775 99.7142 190.73C99.6939 190.685 99.702 190.628 99.7345 190.575L100.951 188.642L99.9298 186.033C99.9054 185.964 99.9339 185.883 100.007 185.826C100.076 185.769 100.174 185.752 100.243 185.785L102.562 186.892L104.266 185.59C104.323 185.545 104.4 185.524 104.461 185.541C104.522 185.557 104.567 185.602 104.571 185.663L104.803 188.333L106.939 190.115C106.987 190.156 107 190.225 106.967 190.29C106.934 190.355 106.869 190.408 106.792 190.429L104.669 190.917L104.217 193.29C104.205 193.367 104.136 193.436 104.055 193.465C104.03 193.473 104.002 193.477 103.977 193.477H103.973ZM100.198 190.482L102.436 190.722C102.484 190.726 102.521 190.75 102.545 190.783L103.92 192.785L104.299 190.787C104.315 190.701 104.392 190.628 104.486 190.608L106.365 190.176L104.453 188.577C104.425 188.552 104.408 188.524 104.404 188.487L104.193 186.049L102.651 187.226C102.582 187.279 102.488 187.295 102.423 187.262L100.495 186.342L101.354 188.532C101.37 188.577 101.366 188.634 101.333 188.683L100.202 190.482H100.198Z" fill="#040100"></path><path d="M88.2009 175.83L86.3745 177.222L83.9461 176.066L84.9955 178.744L83.7305 180.755L86.2037 181.019L87.8511 183.416L88.327 180.901L90.6131 180.376L88.4369 178.557L88.2009 175.83Z" fill="#D7FF65"></path><path d="M87.8071 183.595C87.7543 183.595 87.7055 183.575 87.677 183.534L86.0661 181.186L83.6702 180.929C83.6133 180.921 83.5685 180.893 83.5482 180.848C83.5279 180.803 83.536 180.746 83.5685 180.693L84.7848 178.76L83.7638 176.151C83.7394 176.082 83.7679 176.001 83.8411 175.944C83.9143 175.887 84.0079 175.871 84.077 175.903L86.3956 177.01L88.1 175.708C88.157 175.663 88.2343 175.643 88.2953 175.659C88.3604 175.675 88.401 175.72 88.4051 175.781L88.637 178.451L90.7725 180.237C90.8214 180.278 90.8336 180.347 90.8051 180.412C90.7725 180.478 90.7075 180.535 90.6302 180.551L88.5068 181.039L88.0553 183.412C88.039 183.489 87.9739 183.558 87.8926 183.587C87.8682 183.595 87.8397 183.599 87.8153 183.599L87.8071 183.595ZM84.0323 180.604L86.2655 180.844C86.3143 180.848 86.3509 180.872 86.3753 180.905L87.7502 182.907L88.1285 180.909C88.1448 180.824 88.2221 180.75 88.3156 180.73L90.1949 180.299L88.2831 178.699C88.2546 178.675 88.2383 178.646 88.2343 178.61L88.0227 176.172L86.4811 177.348C86.4119 177.401 86.3183 177.417 86.2533 177.385L84.3251 176.465L85.1834 178.654C85.1997 178.699 85.1956 178.752 85.1631 178.805L84.0323 180.604Z" fill="#040100"></path><path d="M80.0816 171.019L78.2593 172.41L75.8308 171.255L76.8803 173.933L75.6152 175.943L78.0844 176.208L79.7359 178.605L80.2118 176.09L82.4979 175.565L80.3216 173.745L80.0816 171.019Z" fill="#D7FF65"></path><path d="M79.6919 178.784C79.635 178.784 79.5902 178.764 79.5617 178.723L77.9509 176.375L75.555 176.118C75.498 176.11 75.4533 176.082 75.433 176.037C75.4126 175.992 75.4208 175.935 75.4533 175.882L76.6696 173.949L75.6486 171.34C75.6241 171.271 75.6526 171.19 75.7258 171.133C75.7991 171.076 75.8926 171.059 75.9618 171.092L78.2804 172.199L79.9848 170.897C80.0458 170.852 80.119 170.835 80.18 170.848C80.2411 170.864 80.2858 170.909 80.2899 170.97L80.5217 173.64L82.6573 175.422C82.7061 175.463 82.7183 175.532 82.6899 175.597C82.6573 175.662 82.5922 175.719 82.5149 175.736L80.3916 176.224L79.94 178.597C79.9238 178.674 79.8587 178.743 79.7773 178.772C79.7529 178.78 79.7245 178.784 79.7 178.784H79.6919ZM75.917 175.793L78.1502 176.033C78.199 176.037 78.2357 176.061 78.2601 176.094L79.635 178.096L80.0133 176.098C80.0295 176.012 80.1068 175.939 80.2004 175.919L82.0756 175.487L80.1638 173.888C80.1353 173.863 80.119 173.835 80.119 173.798L79.9075 171.36L78.3658 172.537C78.2967 172.59 78.2031 172.606 78.138 172.573L76.2099 171.653L77.0682 173.843C77.0845 173.888 77.0763 173.941 77.0479 173.994L75.917 175.793Z" fill="#040100"></path><path d="M71.9996 166.078L70.1773 167.47L67.7488 166.31L68.7983 168.992L67.5332 171.003L70.0023 171.263L71.6538 173.664L72.1298 171.149L74.4159 170.624L72.2396 168.801L71.9996 166.078Z" fill="#D7FF65"></path><path d="M71.6099 173.843C71.5529 173.843 71.5082 173.823 71.4797 173.782L69.8689 171.434L67.473 171.178C67.416 171.17 67.3713 171.141 67.3509 171.096C67.3306 171.052 67.3387 170.995 67.3713 170.942L68.5875 169.008L67.5665 166.4C67.5421 166.331 67.5706 166.249 67.6438 166.192C67.717 166.135 67.8106 166.119 67.8797 166.151L70.1984 167.258L71.9028 165.956C71.9638 165.911 72.037 165.895 72.098 165.907C72.1631 165.924 72.2038 165.968 72.2078 166.029L72.4397 168.699L74.5753 170.482C74.6241 170.522 74.6363 170.592 74.6038 170.657C74.5712 170.722 74.5061 170.779 74.4288 170.795L72.3055 171.284L71.8539 173.656C71.8377 173.734 71.7726 173.803 71.6912 173.831C71.6668 173.839 71.6384 173.843 71.614 173.843H71.6099ZM67.835 170.848L70.0682 171.088C70.117 171.092 70.1536 171.117 70.178 171.149L71.5529 173.152L71.9312 171.153C71.9475 171.068 72.0248 170.995 72.1184 170.974L73.9936 170.543L72.0817 168.943C72.0533 168.919 72.037 168.89 72.037 168.854L71.8255 166.416L70.2838 167.592C70.2146 167.645 70.1211 167.661 70.056 167.629L68.1279 166.709L68.9862 168.899C69.0024 168.943 68.9943 168.996 68.9658 169.049L67.835 170.848Z" fill="#040100"></path><path d="M100.827 170.559C100.648 170.559 100.473 170.559 100.294 170.551C88.5915 170.23 78.3489 159.371 77.4662 146.348C77.0187 139.751 79.0933 133.475 83.157 129.124C86.6837 125.347 91.4593 123.268 96.5928 123.268C96.7718 123.268 96.9467 123.268 97.1257 123.276C108.829 123.597 119.071 134.456 119.954 147.479C120.401 154.076 118.327 160.352 114.263 164.703C110.736 168.48 105.965 170.559 100.827 170.559Z" fill="#D7FF65"></path><path d="M96.5893 123.463C96.7642 123.463 96.9391 123.463 97.1181 123.471C108.744 123.789 118.881 134.545 119.759 147.491C120.626 160.242 112.189 170.364 100.828 170.364C100.653 170.364 100.478 170.364 100.299 170.356C88.6734 170.038 78.5365 159.282 77.6579 146.336C76.7915 133.585 85.228 123.463 96.5893 123.463ZM96.5893 123.072C91.3988 123.072 86.5744 125.176 83.0111 128.994C78.9108 133.385 76.8199 139.714 77.2715 146.364C78.1623 159.485 88.4863 170.425 100.287 170.747C100.466 170.751 100.645 170.755 100.824 170.755C106.014 170.755 110.839 168.651 114.402 164.833C118.502 160.442 120.593 154.113 120.142 147.463C119.251 134.342 108.927 123.402 97.1262 123.08C96.9472 123.076 96.7683 123.072 96.5893 123.072Z" fill="black"></path><path fill-rule="evenodd" clip-rule="evenodd" d="M115.836 61.418C112.678 63.6869 110.199 67.1902 108.889 69.7288L108 69.2702C109.356 66.6421 111.927 62.9953 115.253 60.6059C118.596 58.2037 122.769 57.0375 127.192 59.5654C131.588 62.0771 133.588 66.9304 134.339 71.8491C135.091 76.7795 134.61 81.8914 133.934 85.1026L132.955 84.8966C133.612 81.7745 134.081 76.7862 133.35 72C132.618 67.2019 130.701 62.7218 126.696 60.4336C122.72 58.1614 118.976 59.1619 115.836 61.418Z" fill="#D7FF65"></path><path d="M136.445 53.5C136.445 57.156 133.695 60 130.445 60C127.195 60 124.445 57.156 124.445 53.5C124.445 49.844 127.195 47 130.445 47C133.695 47 136.445 49.844 136.445 53.5Z" stroke="#D7FF65" stroke-width="2"></path><path fill-rule="evenodd" clip-rule="evenodd" d="M86.3908 146.418C83.2329 148.687 80.7536 152.19 79.4433 154.729L78.5547 154.27C79.9111 151.642 82.4817 147.995 85.8072 145.606C89.1506 143.204 93.3234 142.038 97.7471 144.565C102.143 147.077 104.142 151.93 104.893 156.849C105.646 161.78 105.164 166.891 104.488 170.103L103.51 169.897C104.167 166.774 104.635 161.786 103.905 157C103.172 152.202 101.255 147.722 97.2509 145.434C93.2746 143.161 89.5308 144.162 86.3908 146.418Z" fill="black"></path><path d="M107 138.5C107 142.156 104.25 145 101 145C97.7502 145 95 142.156 95 138.5C95 134.844 97.7502 132 101 132C104.25 132 107 134.844 107 138.5Z" stroke="black" stroke-width="2"></path></g><defs><clipPath id="clip0_4194_7201"><rect width="273" height="261" fill="white"></rect></clipPath></defs></svg>