<svg xmlns="http://www.w3.org/2000/svg" width="18" height="17" viewBox="0 0 18 17" fill="none"><g clip-path="url(#clip0_3749_1966)"><path d="M8.7638 14.6755C8.76238 14.6755 8.76082 14.6755 8.75926 14.6755C8.2463 14.672 3.71147 14.6307 2.42666 14.2832C1.52875 14.0418 0.819941 13.3338 0.577921 12.4358C0.241739 11.1736 0.26314 8.74372 0.265474 8.54969C0.263269 8.35656 0.241609 5.90653 0.576884 4.63404C0.577273 4.63288 0.577532 4.63158 0.577921 4.63041C0.817218 3.74262 1.54198 3.01267 2.42446 2.77065C2.42666 2.77 2.429 2.76948 2.4312 2.76883C3.70149 2.43498 8.24526 2.39413 8.75926 2.39062H8.76847C9.28273 2.39413 13.8296 2.4355 15.1026 2.78349C15.9982 3.02421 16.7065 3.73133 16.9492 4.62821C17.2979 5.9016 17.2656 8.35695 17.2621 8.56421C17.2646 8.76836 17.285 11.1765 16.9507 12.445C16.9505 12.4463 16.9501 12.4474 16.9498 12.4486C16.7077 13.3466 15.999 14.0547 15.1 14.2963C15.0989 14.2967 15.0976 14.2969 15.0964 14.2973C13.8263 14.6311 9.28234 14.6719 8.76847 14.6755C8.76692 14.6755 8.76536 14.6755 8.7638 14.6755ZM1.86065 4.97464C1.56546 6.09784 1.59334 8.51661 1.5936 8.541V8.55851C1.58478 9.22931 1.61578 11.172 1.86078 12.092C1.97959 12.5326 2.32913 12.8817 2.77244 13.0009C3.72042 13.2573 7.41389 13.3379 8.7638 13.3474C10.1172 13.3379 13.8161 13.2595 14.7571 13.0133C15.199 12.8937 15.5474 12.5459 15.667 12.1048C15.9122 11.1712 15.943 9.238 15.934 8.57148C15.934 8.56447 15.934 8.55747 15.9341 8.55046C15.9463 7.87161 15.9223 5.90627 15.6681 4.97879C15.6679 4.97788 15.6676 4.97697 15.6675 4.97606C15.5481 4.53353 15.1985 4.1845 14.7552 4.06531C13.8164 3.80863 10.117 3.72822 8.7638 3.71875C7.41129 3.72822 3.71601 3.80656 2.77219 4.05247C2.3373 4.17309 1.97985 4.53456 1.86065 4.97464ZM7.07109 11.2224V5.84363L11.7195 8.53308L7.07109 11.2224Z" fill="#F6FAFF"></path></g><defs><clipPath id="clip0_3749_1966"><rect width="17" height="17" fill="#f1ebf7" transform="translate(0.264404)"></rect></clipPath></defs></svg>