<svg xmlns="http://www.w3.org/2000/svg" width="184" height="214" viewBox="0 0 184 214" fill="none"><g clip-path="url(#clip0_3904_13047)"><g opacity="0.5"><path d="M80.9274 187.353L85.4386 187.078C86.2588 187.078 86.5322 186.666 86.2588 186.116C90.0864 186.803 98.1518 188.039 105.944 188.039C108.541 188.039 108.951 186.803 106.627 185.292L122.895 184.056C129.046 183.644 132.601 181.584 132.874 178.562H132.737C124.125 176.227 115.923 175.128 109.635 175.54L93.3672 176.776C91.0433 175.265 87.2157 174.304 85.1652 174.716C78.8769 175.815 76.0062 178.012 74.9126 178.974C73.8189 178.699 72.862 178.424 72.1785 178.562L67.6674 178.836C63.8397 177.188 60.4222 176.227 58.5084 176.364L1.50394 180.622C-1.7769 180.897 0.410326 184.193 6.42518 188.177C12.44 192.023 20.0953 195.044 23.3762 194.77L77.7833 190.786L80.3806 190.649C82.4311 190.374 82.4311 189.138 80.9274 187.353Z" fill="#172120"></path></g><g opacity="0.5"><path d="M117.563 208.094L122.074 207.819C122.895 207.819 123.168 207.407 122.895 206.858C126.722 207.544 134.788 208.781 142.58 208.781C145.177 208.781 145.587 207.544 143.263 206.033L159.531 204.797C165.682 204.385 169.236 202.325 169.51 199.303H169.373C160.761 196.968 152.559 195.869 146.271 196.281L130.003 197.517C127.679 196.006 123.852 195.045 121.801 195.457C115.513 196.556 112.642 198.754 111.548 199.715C110.455 199.44 109.498 199.166 108.814 199.303L104.303 199.578C100.476 197.929 97.0581 196.968 95.1443 197.105L90.7698 197.38L79.8337 198.204L68.8976 199.028L58.3716 199.852C55.0908 200.127 57.278 203.424 63.2929 207.407C69.3077 211.253 76.963 214.275 80.2438 214L114.419 211.528L117.016 211.39C119.204 211.116 119.204 209.879 117.563 208.094Z" fill="#172120"></path></g><path d="M146.271 121.423C144.63 108.649 138.479 99.4463 138.479 99.4463H125.219C125.219 99.4463 119.067 108.649 117.427 121.423C117.017 124.582 119.477 127.467 122.621 127.467V149.444C122.621 157.822 125.902 165.789 131.78 171.833H131.917C137.795 165.926 141.076 157.822 141.076 149.444V127.467C144.22 127.467 146.681 124.582 146.271 121.423Z" fill="#8B75F3"></path><path d="M131.917 172.656C131.643 172.656 131.37 172.519 131.233 172.382C125.218 166.201 121.801 158.097 121.801 149.443V128.153C120.297 128.016 119.067 127.192 118.11 126.093C116.88 124.719 116.469 122.934 116.606 121.285C118.247 108.374 124.261 99.3085 124.535 98.8964C124.672 98.6217 124.945 98.4844 125.218 98.4844H138.478C138.752 98.4844 139.025 98.6217 139.162 98.8964C139.435 99.3085 145.45 108.374 147.091 121.285C147.364 123.071 146.817 124.857 145.587 126.093C144.63 127.192 143.263 127.878 141.896 128.153V149.443C141.896 158.097 138.615 166.201 132.464 172.382C132.327 172.519 132.19 172.656 131.917 172.656ZM125.628 100.27C124.535 102.056 119.614 110.572 118.247 121.56C118.11 122.934 118.52 124.17 119.34 125.131C120.16 126.093 121.391 126.642 122.758 126.642C123.168 126.642 123.578 127.054 123.578 127.466V149.443C123.578 157.41 126.585 164.964 132.053 170.733C137.521 164.964 140.529 157.41 140.529 149.443V127.466C140.529 127.054 140.939 126.642 141.349 126.642C142.716 126.642 143.81 126.093 144.767 125.131C145.587 124.17 145.997 122.796 145.86 121.56C144.493 110.434 139.572 102.056 138.478 100.27H125.628Z" fill="#111111"></path><path d="M132.19 136.806H131.097C127.679 136.806 124.809 134.059 124.809 130.488V101.094C124.809 97.6599 127.543 94.7754 131.097 94.7754H132.19C135.608 94.7754 138.479 97.5225 138.479 101.094V130.488C138.342 134.059 135.608 136.806 132.19 136.806Z" fill="#E1FF8C"></path><path d="M132.19 137.631H131.097C127.269 137.631 123.988 134.471 123.988 130.625V101.094C123.988 97.248 127.132 94.0889 131.097 94.0889H132.19C136.018 94.0889 139.299 97.248 139.299 101.094V130.488C139.162 134.471 136.018 137.631 132.19 137.631ZM131.097 95.5998C128.089 95.5998 125.629 98.0722 125.629 101.094V130.488C125.629 133.51 128.089 135.982 131.097 135.982H132.19C135.198 135.982 137.658 133.51 137.658 130.488V101.094C137.658 98.0722 135.198 95.5998 132.19 95.5998H131.097Z" fill="#111111"></path><path d="M131.917 120.324H131.233C128.909 120.324 126.996 118.401 126.996 116.066V99.0334C126.996 96.6984 128.909 94.7754 131.233 94.7754H131.917C134.241 94.7754 136.155 96.6984 136.155 99.0334V116.066C136.291 118.401 134.377 120.324 131.917 120.324Z" fill="white"></path><path d="M131.917 121.148H131.233C128.499 121.148 126.175 118.813 126.175 116.065V99.0333C126.175 96.2862 128.499 93.9512 131.233 93.9512H131.917C134.651 93.9512 136.975 96.2862 136.975 99.0333V116.065C136.975 118.813 134.787 121.148 131.917 121.148ZM131.233 95.5994C129.319 95.5994 127.816 97.1103 127.816 99.0333V116.065C127.816 117.988 129.319 119.499 131.233 119.499H131.917C133.831 119.499 135.334 117.988 135.334 116.065V99.0333C135.334 97.1103 133.831 95.5994 131.917 95.5994H131.233Z" fill="#111111"></path><path d="M122.484 52.4697V98.6212C122.484 101.368 126.585 103.429 131.643 103.429C136.701 103.429 140.802 101.231 140.802 98.6212V52.4697H122.484Z" fill="#044742"></path><path d="M131.643 104.253C126.039 104.253 121.664 101.78 121.664 98.6211V52.4696C121.664 52.0576 122.074 51.6455 122.484 51.6455H140.802C141.212 51.6455 141.622 52.0576 141.622 52.4696V98.6211C141.622 101.78 137.248 104.253 131.643 104.253ZM123.168 53.1564V98.4838C123.168 100.407 126.585 102.604 131.507 102.604C136.565 102.604 139.845 100.544 139.845 98.4838V53.1564H123.168Z" fill="#111111"></path><path d="M116.333 8.92773V85.9842C116.333 90.5169 123.168 94.0882 131.644 94.0882C140.119 94.0882 146.954 90.3796 146.954 85.9842V8.92773H116.333Z" fill="#E1FF8C"></path><path d="M131.643 94.9122C122.621 94.9122 115.513 90.9289 115.513 85.9841V8.92765C115.513 8.51558 115.923 8.10352 116.333 8.10352H146.954C147.364 8.10352 147.774 8.51558 147.774 8.92765V85.9841C147.774 90.9289 140.666 94.9122 131.643 94.9122ZM117.016 9.75178V85.9841C117.016 89.9674 123.715 93.4013 131.507 93.4013C139.435 93.4013 145.997 89.9674 145.997 85.9841V9.75178H117.016Z" fill="#111111"></path><g opacity="0.5"><path d="M134.651 8.92773V79.2538C134.651 90.1049 120.297 90.3796 116.333 82.5503V85.9842C116.333 90.5169 123.168 94.0882 131.644 94.0882C140.119 94.0882 146.954 90.3796 146.954 85.9842V8.92773H134.651Z" fill="#554D43"></path></g><path d="M146.954 8.9282C146.954 13.4609 140.119 17.0322 131.644 17.0322C123.168 17.0322 116.333 13.3236 116.333 8.9282C116.333 4.39546 123.168 0.824219 131.644 0.824219C140.119 0.824219 146.954 4.39546 146.954 8.9282Z" fill="#FFEBB9"></path><path d="M131.643 17.8562C122.621 17.8562 115.513 13.8729 115.513 8.92811C115.513 3.98331 122.621 0 131.643 0C140.666 0 147.774 3.98331 147.774 8.92811C147.774 13.8729 140.666 17.8562 131.643 17.8562ZM131.643 1.51091C123.715 1.51091 117.153 4.9448 117.153 8.92811C117.153 12.9114 123.851 16.3453 131.643 16.3453C139.572 16.3453 146.134 12.9114 146.134 8.92811C146.134 4.9448 139.572 1.51091 131.643 1.51091Z" fill="#111111"></path><path d="M140.529 10.1639C140.529 12.7736 136.565 14.9713 131.643 14.9713C126.722 14.9713 122.758 12.911 122.758 10.1639C122.758 7.55413 126.722 5.35645 131.643 5.35645C136.565 5.35645 140.529 7.55413 140.529 10.1639Z" fill="#E1FF8C"></path><path d="M129.867 13.4604C127.133 13.4604 123.578 12.4989 121.254 9.4771L122.485 8.51561C125.902 12.6363 131.644 12.2242 132.737 11.4001C133.011 11.1254 133.284 10.8507 133.284 10.5759C133.284 10.0265 132.464 9.33974 131.644 8.65297C131.234 8.2409 130.687 7.82883 130.413 7.41677C129.593 6.59263 129.593 5.49379 130.14 4.80701C131.37 3.15874 135.608 2.88403 140.939 5.7685L140.256 7.14206C135.335 4.5323 132.054 5.08172 131.507 5.7685C131.507 5.7685 131.37 6.04321 131.644 6.45528C131.917 6.86734 132.327 7.14206 132.737 7.55412C133.831 8.51561 134.925 9.4771 134.788 10.7133C134.788 11.4001 134.378 12.0869 133.558 12.7736C133.011 13.0483 131.644 13.4604 129.867 13.4604Z" fill="#111111"></path><path d="M134.325 4.78174L125.963 9.16699L126.659 10.5064L135.02 6.12116L134.325 4.78174Z" fill="#111111"></path><path d="M136.057 5.98099L127.695 10.3672L128.391 11.7066L136.753 7.32041L136.057 5.98099Z" fill="#111111"></path><path d="M145.177 15.1094H144.356V87.4958H145.177V15.1094Z" fill="#E1FF8C"></path><path d="M143.4 16.4824H142.58V88.8688H143.4V16.4824Z" fill="#E1FF8C"></path><path d="M141.622 17.8564H140.802V90.2428H141.622V17.8564Z" fill="#E1FF8C"></path><path d="M136.291 19.6416H135.471V92.028H136.291V19.6416Z" fill="#E1FF8C"></path><path d="M134.651 20.0537H133.831V92.4401H134.651V20.0537Z" fill="#E1FF8C"></path><path d="M132.874 19.6416H132.054V92.028H132.874V19.6416Z" fill="#E1FF8C"></path><path d="M131.097 19.6416H130.276V92.028H131.097V19.6416Z" fill="#E1FF8C"></path><path d="M129.32 19.6416H128.5V92.028H129.32V19.6416Z" fill="#E1FF8C"></path><path d="M127.542 19.6416H126.722V92.028H127.542V19.6416Z" fill="#E1FF8C"></path><path d="M138.068 19.2295H137.248V91.6159H138.068V19.2295Z" fill="#E1FF8C"></path><path d="M139.846 18.543H139.025V90.9294H139.846V18.543Z" fill="#E1FF8C"></path><path d="M120.434 16.4824H119.614V88.8688H120.434V16.4824Z" fill="#E1FF8C"></path><path d="M122.211 17.8564H121.391V90.2428H122.211V17.8564Z" fill="#E1FF8C"></path><path d="M125.766 19.2295H124.945V91.6159H125.766V19.2295Z" fill="#E1FF8C"></path><path d="M123.988 18.543H123.168V90.9294H123.988V18.543Z" fill="#E1FF8C"></path><path d="M131.643 30.0805C122.621 30.0805 115.513 26.0971 115.513 21.1523H117.016C117.016 25.1357 123.715 28.5695 131.507 28.5695C139.435 28.5695 145.997 25.1357 145.997 21.1523H147.638C147.774 26.2345 140.666 30.0805 131.643 30.0805Z" fill="#111111"></path><path d="M131.643 44.7777C122.621 44.7777 115.513 40.7944 115.513 35.8496H117.016C117.016 39.8329 123.715 43.2668 131.507 43.2668C139.435 43.2668 145.997 39.8329 145.997 35.8496H147.638C147.774 40.9318 140.666 44.7777 131.643 44.7777Z" fill="#111111"></path><path d="M131.643 59.475C122.621 59.475 115.513 55.4917 115.513 50.5469H117.016C117.016 54.5302 123.715 57.9641 131.507 57.9641C139.435 57.9641 145.997 54.5302 145.997 50.5469H147.638C147.774 55.629 140.666 59.475 131.643 59.475Z" fill="#111111"></path><path d="M131.643 74.309C122.621 74.309 115.513 70.3257 115.513 65.3809H117.016C117.016 69.3642 123.715 72.7981 131.507 72.7981C139.435 72.7981 145.997 69.3642 145.997 65.3809H147.638C147.774 70.3257 140.666 74.309 131.643 74.309Z" fill="#111111"></path><path d="M131.643 89.0062C122.621 89.0062 115.513 85.0229 115.513 80.0781H117.016C117.016 84.0614 123.715 87.4953 131.507 87.4953C139.435 87.4953 145.997 84.0614 145.997 80.0781H147.638C147.774 85.0229 140.666 89.0062 131.643 89.0062Z" fill="#111111"></path><path d="M182.633 142.027C180.993 129.253 174.841 120.05 174.841 120.05H161.581C161.581 120.05 155.43 129.253 153.789 142.027C153.379 145.186 155.84 148.07 158.984 148.07V170.047C158.984 178.426 162.265 186.393 168.143 192.436H168.28C174.158 186.53 177.439 178.426 177.439 170.047V148.07C180.583 148.07 183.043 145.186 182.633 142.027Z" fill="#8B75F3"></path><path d="M168.143 193.26C167.869 193.26 167.596 193.123 167.459 192.985C161.444 186.804 158.027 178.7 158.027 170.047V148.757C156.523 148.619 155.293 147.795 154.336 146.696C153.106 145.323 152.696 143.537 152.832 141.889C154.473 128.978 160.488 119.912 160.761 119.5C160.898 119.225 161.171 119.088 161.444 119.088H174.704C174.978 119.088 175.251 119.225 175.388 119.5C175.661 119.912 181.676 128.978 183.317 141.889C183.59 143.675 183.043 145.46 181.813 146.696C180.856 147.795 179.489 148.482 178.122 148.757V170.047C178.122 178.7 174.841 186.804 168.69 192.985C168.553 193.123 168.416 193.26 168.143 193.26ZM161.855 120.736C160.761 122.522 155.84 131.038 154.473 142.026C154.336 143.4 154.746 144.636 155.566 145.598C156.386 146.559 157.617 147.108 158.984 147.108C159.394 147.108 159.804 147.52 159.804 147.933V169.909C159.804 177.876 162.811 185.431 168.279 191.2C173.748 185.431 176.755 177.876 176.755 169.909V147.933C176.755 147.52 177.165 147.108 177.575 147.108C178.805 147.108 180.036 146.559 180.993 145.598C181.813 144.636 182.223 143.262 182.086 142.026C180.719 130.9 175.798 122.522 174.704 120.736H161.855Z" fill="#111111"></path><path d="M168.417 157.41H167.323C163.905 157.41 161.035 154.663 161.035 151.092V121.561C161.035 118.127 163.769 115.242 167.323 115.242H168.417C171.834 115.242 174.705 117.989 174.705 121.561V151.092C174.705 154.663 171.834 157.41 168.417 157.41Z" fill="#E1FF8C"></path><path d="M168.416 158.234H167.323C163.495 158.234 160.214 155.075 160.214 151.092V121.56C160.214 117.714 163.358 114.418 167.323 114.418H168.416C172.244 114.418 175.525 117.577 175.525 121.56V151.092C175.388 155.075 172.244 158.234 168.416 158.234ZM167.323 116.066C164.315 116.066 161.855 118.539 161.855 121.56V151.092C161.855 154.114 164.315 156.586 167.323 156.586H168.416C171.424 156.586 173.884 154.114 173.884 151.092V121.56C173.884 118.539 171.424 116.066 168.416 116.066H167.323Z" fill="#111111"></path><path d="M168.28 140.927H167.596C165.272 140.927 163.358 139.004 163.358 136.669V119.637C163.358 117.302 165.272 115.379 167.596 115.379H168.28C170.604 115.379 172.517 117.302 172.517 119.637V136.669C172.517 139.004 170.604 140.927 168.28 140.927Z" fill="white"></path><path d="M168.28 141.751H167.596C164.862 141.751 162.538 139.416 162.538 136.669V119.637C162.538 116.89 164.862 114.555 167.596 114.555H168.28C171.014 114.555 173.337 116.89 173.337 119.637V136.669C173.337 139.416 171.014 141.751 168.28 141.751ZM167.459 116.066C165.546 116.066 164.042 117.577 164.042 119.499V136.532C164.042 138.455 165.546 139.965 167.459 139.965H168.143C170.057 139.965 171.56 138.455 171.56 136.532V119.637C171.56 117.714 170.057 116.203 168.143 116.203H167.459V116.066Z" fill="#111111"></path><path d="M158.71 73.0732V119.225C158.71 121.972 162.811 124.032 167.869 124.032C172.927 124.032 177.028 121.834 177.028 119.225V73.0732H158.71Z" fill="#044742"></path><path d="M167.869 124.856C162.265 124.856 157.89 122.384 157.89 119.225V73.0732C157.89 72.6611 158.3 72.249 158.71 72.249H177.028C177.438 72.249 177.849 72.6611 177.849 73.0732V119.225C177.849 122.384 173.474 124.856 167.869 124.856ZM159.531 73.7599V119.087C159.531 121.01 162.948 123.208 167.869 123.208C172.927 123.208 176.208 121.148 176.208 119.087V73.7599H159.531Z" fill="#111111"></path><path d="M152.559 56.8652V106.451C152.559 110.983 159.394 114.555 167.87 114.555C176.345 114.555 183.18 110.846 183.18 106.451V56.8652H152.559Z" fill="#E1FF8C"></path><path d="M167.87 115.516C158.847 115.516 151.739 111.533 151.739 106.588V56.8652C151.739 56.4531 152.149 56.041 152.559 56.041H183.18C183.59 56.041 184 56.4531 184 56.8652V106.451C184 111.533 176.892 115.516 167.87 115.516ZM153.379 57.6893V106.588C153.379 110.571 160.078 114.005 167.87 114.005C175.798 114.005 182.36 110.571 182.36 106.588V57.6893H153.379Z" fill="#111111"></path><g opacity="0.5"><path d="M170.877 56.8652V99.8575C170.877 110.709 156.523 110.983 152.559 103.154V106.588C152.559 111.121 159.394 114.692 167.87 114.692C176.345 114.692 183.18 110.983 183.18 106.588V56.8652H170.877Z" fill="#554D43"></path></g><path d="M183.18 56.8657C183.18 61.3984 176.345 64.9697 167.87 64.9697C159.394 64.9697 152.559 61.2611 152.559 56.8657C152.559 52.333 159.394 48.7617 167.87 48.7617C176.345 48.7617 183.18 52.4703 183.18 56.8657Z" fill="#FFEBB9"></path><path d="M167.87 65.7937C158.847 65.7937 151.739 61.8104 151.739 56.8656C151.739 51.9208 158.847 47.9375 167.87 47.9375C176.892 47.9375 184 51.9208 184 56.8656C184 61.9478 176.892 65.7937 167.87 65.7937ZM167.87 49.5858C159.941 49.5858 153.379 53.0197 153.379 57.003C153.379 60.9863 160.078 64.4202 167.87 64.4202C175.798 64.4202 182.36 60.9863 182.36 57.003C182.497 52.8823 175.798 49.5858 167.87 49.5858Z" fill="#111111"></path><path d="M176.892 58.1014C176.892 60.7111 172.927 62.9088 168.006 62.9088C163.085 62.9088 159.121 60.8485 159.121 58.1014C159.121 55.4916 163.085 53.2939 168.006 53.2939C172.791 53.4313 176.892 55.4916 176.892 58.1014Z" fill="#E1FF8C"></path><path d="M166.229 61.3979C163.495 61.3979 159.941 60.4364 157.617 57.4146L158.847 56.4531C162.265 60.5738 168.006 60.1617 169.1 59.3376C169.373 59.0629 169.646 58.7882 169.646 58.5134C169.646 57.964 168.826 57.2772 168.006 56.5905C167.596 56.1784 167.049 55.7663 166.776 55.3543C165.955 54.5301 165.955 53.4313 166.502 52.7445C167.733 51.0962 171.97 50.8215 177.302 53.706L176.618 55.0796C171.697 52.4698 168.416 53.0192 167.869 53.706C167.869 53.706 167.733 53.9807 168.006 54.3928C168.279 54.8048 168.689 55.0796 169.1 55.4916C170.193 56.4531 171.287 57.4146 171.15 58.6508C171.15 59.3376 170.74 60.0244 169.92 60.7111C169.236 61.1232 167.869 61.3979 166.229 61.3979Z" fill="#111111"></path><path d="M170.53 52.7446L162.168 57.1299L162.864 58.4693L171.226 54.084L170.53 52.7446Z" fill="#111111"></path><path d="M172.322 54.0715L163.957 58.4492L164.651 59.7892L173.017 55.4116L172.322 54.0715Z" fill="#111111"></path><path d="M181.403 63.0469H180.583V107.962H181.403V63.0469Z" fill="#E1FF8C"></path><path d="M179.626 64.4199H178.806V109.335H179.626V64.4199Z" fill="#E1FF8C"></path><path d="M177.849 65.7939H177.028V110.709H177.849V65.7939Z" fill="#E1FF8C"></path><path d="M172.654 67.7168H171.834V112.632H172.654V67.7168Z" fill="#E1FF8C"></path><path d="M170.877 67.9912H170.057V112.906H170.877V67.9912Z" fill="#E1FF8C"></path><path d="M169.1 67.7168H168.28V112.632H169.1V67.7168Z" fill="#E1FF8C"></path><path d="M167.323 67.7168H166.502V112.632H167.323V67.7168Z" fill="#E1FF8C"></path><path d="M165.546 67.7168H164.726V112.632H165.546V67.7168Z" fill="#E1FF8C"></path><path d="M163.768 67.5791H162.948V112.494H163.768V67.5791Z" fill="#E1FF8C"></path><path d="M174.431 67.167H173.611V112.082H174.431V67.167Z" fill="#E1FF8C"></path><path d="M176.208 66.4805H175.388V111.396H176.208V66.4805Z" fill="#E1FF8C"></path><path d="M156.797 64.4199H155.977V109.335H156.797V64.4199Z" fill="#E1FF8C"></path><path d="M158.437 65.7939H157.617V110.709H158.437V65.7939Z" fill="#E1FF8C"></path><path d="M161.992 67.167H161.171V112.082H161.992V67.167Z" fill="#E1FF8C"></path><path d="M160.214 66.4805H159.394V111.396H160.214V66.4805Z" fill="#E1FF8C"></path><path d="M167.87 80.0785C158.847 80.0785 151.739 76.0952 151.739 71.1504H153.379C153.379 75.1337 160.078 78.5676 167.87 78.5676C175.798 78.5676 182.36 75.1337 182.36 71.1504H184C184 76.2325 176.892 80.0785 167.87 80.0785Z" fill="#111111"></path><path d="M167.87 94.9135C158.847 94.9135 151.739 90.9302 151.739 85.9854H153.379C153.379 89.9687 160.078 93.4026 167.87 93.4026C175.798 93.4026 182.36 89.9687 182.36 85.9854H184C184 90.9302 176.892 94.9135 167.87 94.9135Z" fill="#111111"></path><path d="M167.87 109.61C158.847 109.61 151.739 105.626 151.739 100.682H153.379C153.379 104.665 160.078 108.099 167.87 108.099C175.798 108.099 182.36 104.665 182.36 100.682H184C184 105.626 176.892 109.61 167.87 109.61Z" fill="#111111"></path></g><defs><clipPath id="clip0_3904_13047"><rect width="184" height="214" fill="white"></rect></clipPath></defs></svg>