<svg xmlns="http://www.w3.org/2000/svg" width="298" height="263" viewBox="0 0 298 263" fill="none"><path d="M189.386 261.62C181.867 261.62 174.423 259.684 167.797 256.108L11.5389 170.295C4.61564 166.496 0.37232 159.27 0.446764 151.374C0.521209 143.478 4.83897 136.252 11.8367 132.602L87.5464 91.7068C94.0231 88.2802 101.319 86.418 108.614 86.418C116.133 86.418 123.577 88.3547 130.203 91.9303L286.461 177.744C293.385 181.543 297.628 188.768 297.553 196.664C297.479 204.56 293.161 211.786 286.163 215.436L210.454 256.332C203.977 259.833 196.682 261.62 189.386 261.62Z" fill="#C5DCD5"></path><path d="M189.386 262.067C181.793 262.067 174.274 260.13 167.574 256.48L11.39 170.741C4.31776 166.868 0 159.419 0 151.374C0.0744442 143.329 4.46665 135.954 11.6133 132.155L87.323 91.2596C93.8741 87.7585 101.244 85.9707 108.614 85.9707C116.207 85.9707 123.726 87.9075 130.426 91.5575L286.61 177.371C293.682 181.245 298 188.694 298 196.739C297.926 204.784 293.533 212.158 286.387 215.957L210.677 256.778C204.126 260.279 196.756 262.067 189.386 262.067ZM108.614 86.8646C101.393 86.8646 94.1719 88.6524 87.7697 92.079L12.06 132.974C5.21109 136.625 0.967774 143.627 0.89333 151.374C0.818886 159.121 4.98776 166.197 11.7622 169.922L168.02 255.735C174.572 259.311 181.942 261.248 189.386 261.248C196.607 261.248 203.828 259.46 210.23 256.033L285.94 215.138C292.789 211.488 297.032 204.486 297.107 196.739C297.181 188.992 293.012 181.915 286.238 178.19L129.98 92.3769C123.428 88.7269 116.058 86.8646 108.614 86.8646Z" fill="#111111"></path><path d="M282.739 184.373L126.555 98.5594C115.537 92.5257 102.212 92.4512 91.1197 98.336L15.3355 139.231C5.58333 144.446 5.50889 158.376 15.1866 163.664L171.445 249.478C182.463 255.512 195.788 255.586 206.88 249.701L282.59 208.806C292.342 203.666 292.417 189.662 282.739 184.373Z" fill="black"></path><path d="M189.386 254.543C183.132 254.543 176.879 252.979 171.221 249.85L14.963 164.111C10.273 161.504 7.51855 156.811 7.51855 151.448C7.51855 146.084 10.4219 141.391 15.1119 138.859L90.8216 97.9631C102.137 91.9293 115.537 92.0783 126.704 98.1866L282.962 184C287.652 186.607 290.406 191.3 290.406 196.663C290.406 202.027 287.503 206.72 282.813 209.252L207.103 250.073C201.595 253.053 195.49 254.543 189.386 254.543ZM108.614 94.3875C102.658 94.3875 96.7027 95.8029 91.2682 98.708L15.5585 139.603C11.0919 141.987 8.48633 146.382 8.41188 151.373C8.41188 156.364 11.0174 160.833 15.4096 163.217L171.668 249.031C182.611 255.064 195.713 255.139 206.731 249.254L282.441 208.359C286.908 205.975 289.513 201.58 289.587 196.589C289.587 191.598 286.982 187.129 282.59 184.745L126.331 99.006C120.748 95.9518 114.644 94.3875 108.614 94.3875Z" fill="#111111"></path><path d="M189.386 247.84C184.175 247.84 179.038 246.499 174.423 244.041L18.239 158.228C15.7079 156.887 14.2935 154.354 14.2935 151.449C14.2935 148.618 15.8568 146.086 18.3134 144.745L94.0232 103.849C98.4898 101.466 103.478 100.199 108.54 100.199C113.751 100.199 118.888 101.54 123.503 103.998L279.761 189.812C282.292 191.153 283.707 193.685 283.707 196.59C283.707 199.421 282.144 201.954 279.687 203.295L203.977 244.19C199.511 246.574 194.448 247.84 189.386 247.84Z" fill="#C5DCD5"></path><path d="M189.386 248.286C184.101 248.286 178.89 246.946 174.2 244.413L18.0157 158.599C15.3357 157.184 13.7723 154.502 13.8468 151.448C13.8468 148.394 15.4846 145.787 18.1645 144.372L93.7998 103.476C98.3409 101.093 103.403 99.8262 108.54 99.8262C113.825 99.8262 119.036 101.167 123.726 103.7L279.985 189.513C282.665 190.928 284.228 193.61 284.154 196.664C284.154 199.718 282.516 202.326 279.836 203.741L204.126 244.636C199.659 247.02 194.523 248.286 189.386 248.286ZM108.614 100.646C103.626 100.646 98.6387 101.912 94.2465 104.221L18.5368 145.191C16.1546 146.457 14.7401 148.841 14.7401 151.523C14.7401 154.204 16.0801 156.588 18.4623 157.855L174.721 243.668C179.187 246.126 184.324 247.467 189.461 247.467C194.448 247.467 199.436 246.201 203.828 243.892L279.538 202.996C281.92 201.73 283.335 199.346 283.335 196.664C283.335 193.983 281.995 191.599 279.612 190.333L123.28 104.445C118.813 101.986 113.676 100.646 108.614 100.646Z" fill="#111111"></path><path d="M279.761 189.885L279.687 147.797C282.218 146.456 283.707 143.924 283.707 141.093C283.707 138.262 282.218 135.73 279.761 134.314L123.503 48.5754C118.962 46.0427 113.751 44.7764 108.54 44.7764C103.478 44.7764 98.4154 46.0427 94.0232 48.4264L18.3134 89.2474C15.7823 90.5882 14.2935 93.1209 14.2935 95.9516C14.2935 98.7822 15.7823 101.315 18.239 102.73L18.3134 144.818C15.7823 146.158 14.2935 148.691 14.2935 151.522C14.2935 154.352 15.7823 156.885 18.239 158.3L174.497 244.114C179.038 246.647 184.249 247.913 189.461 247.913C194.523 247.913 199.585 246.647 203.977 244.263L279.687 203.367C282.218 202.027 283.707 199.494 283.707 196.663C283.707 193.758 282.292 191.225 279.761 189.885Z" fill="#F0E7F2"></path><path d="M189.386 248.286C184.101 248.286 178.89 246.945 174.2 244.413L18.0157 158.599C15.3357 157.184 13.7723 154.502 13.8468 151.448C13.8468 148.543 15.4101 145.936 17.8668 144.52L17.7923 102.954C15.2612 101.465 13.8468 98.8574 13.8468 95.9522C13.8468 92.8981 15.4846 90.2909 18.1645 88.8756L93.7998 47.9801C98.3409 45.5964 103.403 44.3301 108.54 44.3301C113.825 44.3301 119.036 45.6709 123.726 48.2036L279.985 134.017C282.665 135.507 284.228 138.114 284.154 141.168C284.154 144.073 282.59 146.681 280.134 148.096L280.208 189.662C282.739 191.152 284.154 193.759 284.154 196.664C284.154 199.718 282.516 202.325 279.836 203.741L204.126 244.636C199.659 247.02 194.523 248.286 189.386 248.286ZM108.614 45.1495C103.626 45.1495 98.6387 46.4158 94.2465 48.725L18.5368 89.6205C16.1546 90.8869 14.7401 93.2706 14.7401 95.9522C14.7401 98.6339 16.0801 101.018 18.4623 102.284C18.6112 102.358 18.6857 102.507 18.6857 102.656L18.7601 144.744C18.7601 144.893 18.6857 145.042 18.5368 145.116C16.1546 146.383 14.7401 148.766 14.7401 151.448C14.7401 154.13 16.0801 156.513 18.4623 157.78L174.721 243.593C179.187 246.051 184.324 247.392 189.461 247.392C194.448 247.392 199.436 246.126 203.828 243.817L279.538 202.921C281.92 201.655 283.335 199.271 283.335 196.589C283.335 193.908 281.995 191.524 279.612 190.258C279.464 190.183 279.389 190.034 279.389 189.885L279.315 147.798C279.315 147.649 279.389 147.5 279.538 147.425C281.92 146.159 283.335 143.775 283.335 141.094C283.335 138.412 281.995 136.028 279.612 134.762L123.28 48.9485C118.813 46.4903 113.676 45.1495 108.614 45.1495Z" fill="#111111"></path><path d="M279.761 189.886L279.687 148.32L203.977 189.216C199.511 191.599 194.523 192.866 189.461 192.866C184.249 192.866 179.113 191.525 174.497 189.067L18.239 103.179L18.3134 144.745C15.7823 146.085 14.2935 148.618 14.2935 151.449C14.2935 154.279 15.7823 156.812 18.239 158.227L174.497 244.041C179.038 246.574 184.249 247.84 189.461 247.84C194.523 247.84 199.585 246.574 203.977 244.19L279.687 203.294C282.218 201.954 283.707 199.421 283.707 196.59C283.707 193.76 282.292 191.227 279.761 189.886Z" fill="#C5DCD5"></path><path d="M189.386 248.286C184.101 248.286 178.889 246.945 174.2 244.413L18.0157 158.599C15.3357 157.184 13.7723 154.502 13.8468 151.448C13.8468 148.543 15.4101 145.936 17.8668 144.52L17.7923 103.253C17.7923 103.104 17.8668 102.955 18.0157 102.88C18.1645 102.806 18.3134 102.806 18.4623 102.88L174.721 188.694C179.187 191.152 184.324 192.493 189.461 192.493C194.448 192.493 199.436 191.226 203.828 188.917L279.538 148.022C279.687 147.947 279.836 147.947 279.985 148.022C280.134 148.096 280.208 148.245 280.208 148.394L280.282 189.736C282.814 191.226 284.228 193.833 284.228 196.739C284.228 199.793 282.59 202.4 279.91 203.815L204.201 244.711C199.659 247.02 194.523 248.286 189.386 248.286ZM18.6857 103.923L18.7601 144.744C18.7601 144.893 18.6857 145.042 18.5368 145.116C16.1546 146.383 14.7401 148.766 14.7401 151.448C14.7401 154.13 16.0801 156.514 18.4623 157.78L174.721 243.593C179.187 246.052 184.324 247.392 189.461 247.392C194.448 247.392 199.436 246.126 203.828 243.817L279.538 202.921C281.92 201.655 283.335 199.271 283.335 196.59C283.335 193.908 281.995 191.524 279.612 190.258C279.464 190.183 279.389 190.034 279.389 189.885L279.315 149.064L204.275 189.587C199.734 191.971 194.672 193.237 189.535 193.237C184.249 193.237 179.038 191.897 174.348 189.364L18.6857 103.923Z" fill="#111111"></path><g opacity="0.55"><path d="M279.91 168.804C279.91 168.804 279.836 168.804 279.687 168.878C276.783 169.995 242.688 187.426 217.451 200.462C212.538 202.995 207.327 204.187 202.116 204.187C190.949 204.187 180.155 198.6 173.827 188.693L174.497 189.065C176.805 190.331 179.187 191.3 181.718 191.896C184.249 192.566 186.855 192.864 189.46 192.864C194.523 192.864 199.585 191.598 203.977 189.214L279.612 148.319H279.687L279.836 148.244L279.91 168.804Z" fill="#32303C"></path></g><g opacity="0.5"><path d="M281.772 191.449C281.921 192.045 281.995 192.715 281.995 193.311C281.995 196.142 280.507 198.6 277.975 199.941L226.515 227.375L218.42 232.195L203.233 240.389C198.841 242.698 193.854 243.965 188.866 243.965C183.729 243.965 178.592 242.624 174.126 240.166L19.8775 155.47C17.4208 154.129 15.9319 151.596 15.9319 148.84C15.9319 147.871 16.1553 146.978 16.4531 146.158C15.0386 147.574 14.2197 149.436 14.2197 151.447C14.2197 154.278 15.7086 156.81 18.1653 158.226L174.424 244.039C178.965 246.572 184.176 247.838 189.387 247.838C194.449 247.838 199.511 246.572 203.903 244.188L279.613 203.293C282.144 201.952 283.633 199.419 283.633 196.589C283.708 194.652 283.038 192.864 281.772 191.449Z" fill="#32303C"></path><path d="M19.9515 142.211L19.877 104.072L18.2393 103.178L18.3137 143.328C18.7604 142.956 19.3559 142.509 19.9515 142.211Z" fill="#32303C"></path></g><path d="M189.386 200.166C184.101 200.166 178.889 198.825 174.2 196.292L18.0157 110.479C15.3357 108.989 13.7723 106.382 13.8468 103.328C13.8468 101.838 14.219 100.423 14.9634 99.1562L15.7079 99.6032C15.0379 100.721 14.6657 101.987 14.6657 103.253C14.6657 105.935 16.0057 108.319 18.3879 109.585L174.646 195.398C179.113 197.857 184.249 199.197 189.386 199.197C194.374 199.197 199.362 197.931 203.754 195.622L279.464 154.726C281.846 153.46 283.26 151.076 283.26 148.395C283.26 147.203 282.962 146.011 282.441 144.968L283.26 144.521C283.856 145.713 284.154 146.979 284.154 148.32C284.154 151.374 282.516 153.982 279.836 155.397L204.126 196.292C199.659 198.9 194.523 200.166 189.386 200.166Z" fill="#111111"></path><path d="M18.5171 111.105C12.4875 107.086 14.0668 102.205 15.0716 100.339C66.3176 128.187 169.067 186.108 176.561 189.48C185.174 193.356 196.083 192.208 201.108 190.342C227.807 174.552 283.79 143.402 283.79 143.402C283.79 143.402 285.943 151.154 281.206 154.599C257.234 167.375 207.653 193.873 201.108 197.663C194.562 201.452 180.868 199.986 176.561 197.663C125.746 170.245 23.6851 114.549 18.5171 111.105Z" fill="black"></path><g opacity="0.55"><path d="M78.4855 164.594L81.0166 168.393C81.6866 169.361 82.0588 170.553 82.0588 171.745V175.022C82.0588 177.555 79.3044 179.194 77.071 177.928L63.4478 170.404C63.0755 170.181 62.7033 169.883 62.4055 169.51L60.5444 167.126L78.4855 164.594Z" fill="#32303C"></path></g><path d="M78.3364 172.192L78.4108 165.935C78.4108 164.892 77.8153 163.923 76.922 163.402L64.192 156.549C63.4476 156.176 62.6287 156.4 62.0331 156.772C61.7354 156.996 60.7676 157.666 60.7676 157.666L61.2887 164.519C61.2887 165.562 61.8842 166.531 62.7776 167.052L76.0286 174.799C76.0286 174.799 76.8475 174.278 77.3686 173.905C77.8153 173.458 78.262 172.937 78.3364 172.192Z" fill="#111111"></path><path d="M75.9545 175.246L62.4801 167.424C61.4379 166.828 60.7679 165.785 60.7679 164.519L60.1724 157.442L60.3957 157.293C60.3957 157.293 61.3635 156.623 61.6612 156.399C62.5546 155.804 63.4479 155.729 64.2668 156.176L76.9968 163.029C78.039 163.625 78.709 164.742 78.709 165.934L78.6345 172.192C78.6345 172.936 78.2623 173.607 77.4434 174.203C76.9223 174.575 76.1034 175.097 76.1034 175.097L75.9545 175.246ZM61.1401 157.889L61.6612 164.444C61.6612 165.338 62.1079 166.158 62.9268 166.605L75.9545 174.203C76.2523 174.054 76.699 173.756 76.9968 173.458C77.5923 173.011 77.8156 172.638 77.8156 172.117L77.8901 165.86C77.8901 164.966 77.4434 164.147 76.6245 163.774L63.8946 156.921C63.2246 156.548 62.629 156.846 62.1824 157.144C62.0335 157.293 61.4379 157.666 61.1401 157.889Z" fill="#111111"></path><path d="M76.8475 173.161L76.922 166.904C76.922 165.861 76.3264 164.893 75.4331 164.371L62.7031 157.518C61.4376 156.848 59.8743 157.742 59.8743 159.231L59.7998 165.489C59.7998 166.532 60.3954 167.5 61.2887 168.021L74.0186 174.874C75.3586 175.545 76.8475 174.577 76.8475 173.161Z" fill="#D7FF65"></path><path d="M74.9866 175.544C74.6144 175.544 74.2421 175.469 73.8699 175.246L61.14 168.393C60.0977 167.797 59.4277 166.68 59.4277 165.488L59.5022 159.23C59.5022 158.411 59.9489 157.666 60.6933 157.219C61.4377 156.772 62.2566 156.772 63.0011 157.145L75.731 163.998C76.7732 164.594 77.4432 165.711 77.4432 166.903L77.3688 173.16C77.3688 173.98 76.9221 174.725 76.1777 175.171C75.8055 175.395 75.3588 175.544 74.9866 175.544ZM61.81 157.741C61.5866 157.741 61.2888 157.815 61.0655 157.964C60.6189 158.262 60.3211 158.709 60.3211 159.23L60.2466 165.488C60.2466 166.382 60.6933 167.201 61.5122 167.573L74.2421 174.427C74.6888 174.65 75.2099 174.65 75.6566 174.427C76.1032 174.129 76.401 173.682 76.401 173.16L76.4755 166.903C76.4755 166.009 76.0288 165.19 75.2099 164.817L62.48 157.964C62.2566 157.815 62.0333 157.741 61.81 157.741Z" fill="#111111"></path><g opacity="0.55"><path d="M107.768 180.174L110.299 183.973C110.969 184.941 111.342 186.133 111.342 187.325V190.603C111.342 193.135 108.587 194.774 106.354 193.508L92.7305 185.984C92.3583 185.761 91.986 185.463 91.6883 185.09L89.8271 182.707L107.768 180.174Z" fill="#32303C"></path></g><path d="M107.62 187.697L107.694 181.44C107.694 180.397 107.098 179.428 106.205 178.907L93.4752 172.054C92.7308 171.681 91.9119 171.905 91.3163 172.277C91.0186 172.501 90.0508 173.171 90.0508 173.171L90.5719 180.024C90.5719 181.067 91.1674 182.035 92.0608 182.557L105.312 190.304C105.312 190.304 106.131 189.783 106.652 189.41C107.098 189.038 107.545 188.516 107.62 187.697Z" fill="#111111"></path><path d="M105.237 190.826L91.7629 182.93C90.7206 182.334 90.0506 181.291 90.0506 180.025L89.4551 172.948L89.6784 172.799C89.6784 172.799 90.6462 172.129 90.944 171.905C91.8373 171.309 92.7306 171.235 93.5495 171.682L106.279 178.535C107.322 179.131 107.992 180.248 107.992 181.44L107.917 187.697C107.917 188.517 107.545 189.113 106.726 189.709C106.205 190.081 105.386 190.603 105.386 190.603L105.237 190.826ZM90.4229 173.47L90.944 180.025C90.944 180.919 91.3906 181.738 92.2095 182.185L105.237 189.783C105.535 189.634 105.982 189.336 106.279 189.038C106.875 188.591 107.098 188.219 107.098 187.697L107.173 181.44C107.173 180.546 106.726 179.727 105.907 179.354L93.1773 172.501C92.5073 172.129 91.9117 172.427 91.4651 172.725C91.3162 172.874 90.7206 173.246 90.4229 173.47Z" fill="#111111"></path><path d="M106.131 188.665L106.205 182.408C106.205 181.365 105.61 180.397 104.716 179.875L91.9863 173.022C90.7208 172.352 89.1575 173.245 89.1575 174.735L89.083 180.993C89.083 182.035 89.6786 183.004 90.5719 183.525L103.302 190.378C104.642 191.049 106.131 190.155 106.131 188.665Z" fill="#D6B4E1"></path><path d="M104.27 191.049C103.898 191.049 103.525 190.974 103.153 190.751L90.4232 183.898C89.3809 183.302 88.7109 182.184 88.7109 180.993L88.7854 174.735C88.7854 173.916 89.2321 173.171 89.9765 172.724C90.7209 172.277 91.5398 172.277 92.2843 172.65L105.014 179.503C106.056 180.099 106.726 181.216 106.726 182.408L106.652 188.665C106.652 189.485 106.205 190.229 105.461 190.676C105.089 190.974 104.642 191.049 104.27 191.049ZM91.0932 173.32C90.8698 173.32 90.5721 173.394 90.3487 173.543C89.9021 173.841 89.6043 174.288 89.6043 174.81L89.5298 181.067C89.5298 181.961 89.9765 182.78 90.7954 183.153L103.525 190.006C103.972 190.229 104.493 190.229 104.94 190.006C105.386 189.708 105.684 189.261 105.684 188.74L105.759 182.482C105.759 181.588 105.312 180.769 104.493 180.397L91.7632 173.543C91.5398 173.394 91.3165 173.32 91.0932 173.32Z" fill="#111111"></path><g opacity="0.55"><path d="M134.467 195.677L136.998 199.476C137.668 200.444 138.041 201.636 138.041 202.828V206.105C138.041 208.638 135.286 210.277 133.053 209.011L119.504 201.562C119.132 201.338 118.759 201.04 118.462 200.668L116.601 198.284L134.467 195.677Z" fill="#32303C"></path></g><path d="M134.319 203.274L134.394 197.017C134.394 195.974 133.798 195.005 132.905 194.484L120.175 187.631C119.43 187.258 118.612 187.482 118.016 187.854C117.718 188.078 116.75 188.748 116.75 188.748L117.272 195.601C117.272 196.644 117.867 197.613 118.76 198.134L132.012 205.881C132.012 205.881 132.83 205.36 133.352 204.987C133.798 204.54 134.319 204.019 134.319 203.274Z" fill="#111111"></path><path d="M131.937 206.329L118.463 198.433C117.421 197.837 116.751 196.794 116.751 195.528L116.229 188.451L116.453 188.302C116.453 188.302 117.421 187.632 117.718 187.408C118.612 186.812 119.505 186.738 120.324 187.185L133.054 194.038C134.096 194.634 134.766 195.751 134.766 196.943L134.692 203.2C134.692 204.02 134.319 204.616 133.501 205.212C132.979 205.584 132.161 206.105 132.161 206.105L131.937 206.329ZM117.197 188.973L117.718 195.528C117.718 196.422 118.165 197.241 118.984 197.688L131.937 205.286C132.235 205.137 132.682 204.839 132.979 204.541C133.575 204.094 133.798 203.722 133.798 203.2L133.873 196.943C133.873 196.049 133.426 195.23 132.607 194.857L119.877 188.004C119.207 187.632 118.612 187.93 118.165 188.228C118.016 188.377 117.495 188.749 117.197 188.973Z" fill="#111111"></path><path d="M132.904 204.243L132.979 197.986C132.979 196.943 132.383 195.975 131.49 195.453L118.76 188.6C117.494 187.93 115.931 188.824 115.931 190.313L115.856 196.571C115.856 197.614 116.452 198.582 117.345 199.103L130.075 205.957C131.341 206.627 132.83 205.659 132.904 204.243Z" fill="#B5FDEA"></path><path d="M130.968 206.626C130.596 206.626 130.224 206.551 129.852 206.328L117.122 199.475C116.08 198.879 115.41 197.762 115.41 196.57L115.484 190.312C115.484 189.493 115.931 188.748 116.675 188.301C117.42 187.854 118.239 187.854 118.983 188.227L131.713 195.08C132.755 195.676 133.425 196.793 133.425 197.985L133.351 204.242C133.351 205.062 132.904 205.807 132.16 206.254C131.787 206.477 131.341 206.626 130.968 206.626ZM117.792 188.823C117.569 188.823 117.271 188.897 117.047 189.046C116.601 189.344 116.303 189.791 116.303 190.312L116.229 196.57C116.229 197.464 116.675 198.283 117.494 198.655L130.224 205.509C130.671 205.732 131.192 205.732 131.639 205.509C132.085 205.211 132.383 204.764 132.383 204.242L132.457 197.985C132.457 197.091 132.011 196.272 131.192 195.899L118.462 189.046C118.239 188.897 118.015 188.823 117.792 188.823Z" fill="#111111"></path><g opacity="0.5"><path d="M93.6048 69.2148H48.0102L41.9111 71.7647L43.7706 77.0606H100.448L93.6048 69.2148Z" fill="#32303C"></path></g><path d="M90.7769 70.9789L99.4792 77.3536V12.822L90.7769 6.44727V70.9789Z" fill="#B5FDEA"></path><path d="M99.2561 77.8454L90.5537 71.4707C90.4049 71.3726 90.3306 71.1765 90.3306 70.9803V6.44868C90.3306 6.25254 90.4049 6.05639 90.5537 5.95832C90.7025 5.86025 90.8512 5.86025 91 5.95832L99.7024 12.333C99.8511 12.4311 99.9255 12.6272 99.9255 12.8234V77.355C99.9255 77.5512 99.8511 77.7473 99.7024 77.8454C99.628 77.9434 99.5536 77.9434 99.4792 77.9434C99.4048 77.9434 99.3305 77.8454 99.2561 77.8454ZM91.2231 7.42941V70.588L99.0329 76.2762V13.1176L91.2231 7.42941Z" fill="#111111"></path><path d="M90.7773 6.44782L99.4797 12.8225L107.438 6.93818L98.7359 0.563477L90.7773 6.44782Z" fill="#B5FDEA"></path><path d="M99.331 13.3133L90.5542 6.93862C90.4054 6.84055 90.3311 6.6444 90.3311 6.44826C90.3311 6.25211 90.4054 6.05597 90.5542 5.9579L98.5128 0.0735543C98.6615 -0.0245181 98.8103 -0.0245181 98.9591 0.0735543L107.661 6.44826C107.81 6.54633 107.885 6.74248 107.885 6.93862C107.885 7.13477 107.81 7.33091 107.661 7.42898L99.7029 13.3133C99.6285 13.4114 99.5541 13.4114 99.4797 13.4114C99.4053 13.4114 99.331 13.4114 99.331 13.3133ZM98.7359 1.25042L91.6699 6.44826L99.4797 12.1365L106.471 6.93862L98.7359 1.25042Z" fill="#111111"></path><path d="M107.438 71.9595L99.6284 77.4515V12.7238L107.438 6.9375V71.9595Z" fill="#004643"></path><path d="M99.1821 12.4308L107.885 5.95801V72.2549L99.1821 78.4335V12.4308ZM106.992 7.91946L100.075 13.0192V76.472L106.992 71.5684V7.91946Z" fill="#111111"></path><g opacity="0.5"><path d="M113.537 85.2979H77.8349L71.7358 87.8477L73.5953 93.0456H120.38L113.537 85.2979Z" fill="#32303C"></path></g><g opacity="0.5"><path d="M135.778 99.0293H106.398L101.34 101.677L102.902 106.875H141.431L135.778 99.0293Z" fill="#32303C"></path></g><path d="M132.504 100.4L141.206 106.775V68.4284L132.504 62.0537V100.4Z" fill="#B5FDEA"></path><path d="M140.983 107.364L132.281 100.989C132.132 100.891 132.058 100.695 132.058 100.499V62.0542C132.058 61.858 132.132 61.6619 132.281 61.5638C132.43 61.4657 132.578 61.4657 132.727 61.5638L141.429 67.9385C141.578 68.0366 141.653 68.2327 141.653 68.4289V106.775C141.653 106.971 141.578 107.167 141.429 107.266C141.355 107.364 141.281 107.364 141.206 107.364C141.132 107.364 141.058 107.364 140.983 107.364ZM132.95 63.1329V100.106L140.76 105.794V68.8211L132.95 63.1329Z" fill="#111111"></path><path d="M111.605 86.3776L120.308 92.7523V41.2644L111.605 34.8896V86.3776Z" fill="#B5FDEA"></path><path d="M120.085 93.2431L111.382 86.8684C111.234 86.7704 111.159 86.5742 111.159 86.3781V34.8901C111.159 34.6939 111.234 34.4978 111.382 34.3997C111.531 34.3017 111.68 34.3017 111.829 34.3997L120.531 40.7744C120.68 40.8725 120.754 41.0686 120.754 41.2648V92.6547C120.754 92.8509 120.68 93.047 120.531 93.1451C120.457 93.2431 120.382 93.2431 120.308 93.2431C120.233 93.3412 120.159 93.3412 120.085 93.2431ZM112.052 35.9689V86.0839L119.862 91.7721V41.6571L112.052 35.9689Z" fill="#111111"></path><path d="M111.605 34.8888L120.308 41.3616L128.266 35.4772L119.49 29.1025L111.605 34.8888Z" fill="#B5FDEA"></path><path d="M120.085 41.8524L111.382 35.4777C111.234 35.3796 111.159 35.1835 111.159 34.9873C111.159 34.7912 111.234 34.595 111.382 34.497L119.341 28.6126C119.49 28.5145 119.638 28.5145 119.787 28.6126L128.49 34.9873C128.638 35.0854 128.713 35.2815 128.713 35.4777C128.713 35.6738 128.638 35.87 128.49 35.968L120.531 41.8524C120.457 41.9505 120.382 41.9505 120.308 41.9505C120.233 41.9505 120.159 41.8524 120.085 41.8524ZM119.49 29.7895L112.498 34.9873L120.308 40.6755L127.299 35.4777L119.49 29.7895Z" fill="#111111"></path><path d="M128.266 87.3588L120.457 92.8508V41.2648L128.266 35.4785V87.3588Z" fill="#004643"></path><path d="M120.01 40.8722L128.713 34.3994V87.6527L120.01 93.7332V40.8722ZM127.82 36.4589L120.903 41.5587V91.7717L127.82 86.8681V36.4589Z" fill="#111111"></path><path d="M132.505 62.1539L141.282 68.5286L149.166 62.6442L140.464 56.2695L132.505 62.1539Z" fill="#B5FDEA"></path><path d="M141.059 69.0184L132.356 62.6437C132.208 62.5456 132.133 62.3495 132.133 62.1533C132.133 61.9572 132.208 61.761 132.356 61.663L140.315 55.7786C140.464 55.6806 140.613 55.6806 140.761 55.7786L149.464 62.1533C149.612 62.2514 149.687 62.4476 149.687 62.6437C149.687 62.8398 149.612 63.036 149.464 63.1341L141.505 69.0184C141.431 69.1165 141.356 69.1165 141.282 69.1165C141.208 69.1165 141.133 69.0184 141.059 69.0184ZM140.464 56.9555L133.472 62.1533L141.282 67.8415L148.274 62.6437L140.464 56.9555Z" fill="#111111"></path><path d="M149.165 101.382L141.355 106.874V68.4298L149.165 62.6436V101.382Z" fill="#004643"></path><path d="M140.909 68.0372L149.612 61.5645V101.676L140.909 107.757V68.0372ZM148.719 63.624L141.802 68.7237V105.893L148.719 100.99V63.624Z" fill="#111111"></path><g clip-path="url(#clip0_3968_4452)"><path d="M38.0002 99.7207L56.3815 89.0473C58.3795 87.9058 60.777 87.8487 62.8321 88.9903L152.284 138.019C154.282 139.104 154.339 142.014 152.341 143.156L133.96 153.829C131.962 154.971 129.564 155.028 127.509 153.886L38.0573 104.858C36.0022 103.773 36.0022 100.862 38.0002 99.7207Z" fill="#8B75F3"></path><path d="M130.649 155.027C129.507 155.027 128.366 154.742 127.338 154.171L37.8864 105.142C36.8018 104.571 36.1738 103.487 36.1738 102.288C36.1738 101.09 36.8018 100.005 37.8293 99.3773L56.2106 88.761C58.2656 87.5624 60.8915 87.5053 63.0037 88.7039L152.455 137.733C153.54 138.304 154.168 139.388 154.168 140.587C154.168 141.785 153.54 142.87 152.513 143.497L134.131 154.171C133.047 154.742 131.848 155.027 130.649 155.027ZM59.6928 88.5327C58.6081 88.5327 57.5235 88.8181 56.6102 89.3889L38.1718 100.005C37.3155 100.462 36.8588 101.318 36.8588 102.288C36.8588 103.258 37.3726 104.115 38.2289 104.571L127.681 153.6C129.565 154.627 131.905 154.627 133.789 153.543L152.227 142.87C153.083 142.413 153.54 141.557 153.54 140.587C153.54 139.616 153.026 138.76 152.17 138.304L62.6612 89.2747C61.7478 88.761 60.7203 88.5327 59.6928 88.5327Z" fill="#111111"></path><path d="M38.0002 102.46L56.3815 91.7867C58.3795 90.6452 60.777 90.5881 62.8321 91.7296L152.284 140.758C152.855 141.044 153.254 141.5 153.483 142.014C154.168 140.644 153.768 138.875 152.284 138.076L62.8321 88.9899C60.8341 87.9055 58.3795 87.9055 56.3815 89.047L38.0002 99.7203C36.5731 100.576 36.1735 102.346 36.8585 103.659C37.0869 103.145 37.4865 102.745 38.0002 102.46Z" fill="#111111"></path><path d="M65.4533 95.1345L42.0933 107.128L42.4062 107.737L65.7662 95.7438L65.4533 95.1345Z" fill="#111111"></path><path d="M69.4528 97.3033L46.085 109.278L46.3974 109.888L69.7653 97.9128L69.4528 97.3033Z" fill="#111111"></path><path d="M73.4065 99.4915L50.0308 111.456L50.3429 112.066L73.7187 100.101L73.4065 99.4915Z" fill="#111111"></path><path d="M77.4068 101.662L54.0205 113.603L54.3321 114.213L77.7183 102.272L77.4068 101.662Z" fill="#111111"></path><path d="M81.3115 103.77L57.9541 115.766L58.2671 116.375L81.6245 104.379L81.3115 103.77Z" fill="#111111"></path><path d="M85.3191 105.945L61.9434 117.907L62.2555 118.517L85.6312 106.555L85.3191 105.945Z" fill="#111111"></path><path d="M89.3046 108.088L65.9473 120.084L66.2602 120.693L89.6176 108.697L89.3046 108.088Z" fill="#111111"></path><path d="M93.2557 110.275L69.8931 122.263L70.2058 122.872L93.5685 110.884L93.2557 110.275Z" fill="#111111"></path><path d="M97.2555 112.442L73.8823 124.406L74.1945 125.016L97.5676 113.051L97.2555 112.442Z" fill="#111111"></path><path d="M101.25 114.591L77.8872 126.579L78.2 127.188L101.563 115.2L101.25 114.591Z" fill="#111111"></path><path d="M105.212 116.799L81.8232 128.737L82.1347 129.347L105.524 117.409L105.212 116.799Z" fill="#111111"></path><path d="M109.203 118.945L85.8276 130.909L86.1398 131.519L109.516 119.554L109.203 118.945Z" fill="#111111"></path><path d="M113.12 121.07L89.752 133.05L90.0645 133.659L113.432 121.679L113.12 121.07Z" fill="#111111"></path><path d="M117.111 123.225L93.748 135.213L94.0608 135.822L117.423 123.834L117.111 123.225Z" fill="#111111"></path><path d="M121.114 125.386L97.7461 137.366L98.0587 137.976L121.427 125.995L121.114 125.386Z" fill="#111111"></path><path d="M125.051 127.57L101.686 139.55L101.999 140.159L125.364 128.179L125.051 127.57Z" fill="#111111"></path><path d="M129.058 129.749L105.671 141.688L105.983 142.297L129.369 130.359L129.058 129.749Z" fill="#111111"></path><path d="M133.057 131.909L109.674 143.855L109.986 144.465L133.369 132.519L133.057 131.909Z" fill="#111111"></path><path d="M136.996 134.067L113.631 146.05L113.944 146.659L137.309 134.676L136.996 134.067Z" fill="#111111"></path><path d="M140.973 136.189L117.595 148.146L117.907 148.755L141.285 136.799L140.973 136.189Z" fill="#111111"></path><path d="M144.915 138.371L121.545 150.344L121.857 150.953L145.228 138.981L144.915 138.371Z" fill="#111111"></path><g opacity="0.55"><path d="M122.372 149.035C122.258 149.035 122.144 148.978 122.029 148.921L117.063 146.01C116.835 145.896 116.721 145.611 116.721 145.382L117.406 137.334L114.38 135.565C114.038 135.394 113.923 134.994 114.152 134.652L116.549 130.314L108.786 132.939C108.5 133.054 108.215 132.939 108.044 132.711C107.872 132.483 107.872 132.14 107.987 131.912L108.957 130.428L98.7959 132.711C98.5676 132.768 98.2822 132.654 98.1109 132.483C97.9397 132.255 97.9397 132.026 98.0538 131.741V131.684L94.8 132.597C94.6287 132.654 94.4575 132.597 94.2862 132.54L87.0365 128.488C86.9223 128.43 86.8652 128.316 86.751 128.259L85.381 125.862L76.1333 120.839C75.9049 120.725 75.7908 120.497 75.7908 120.211V116.616L72.4228 116.673C72.1373 116.673 71.7948 116.444 71.7377 116.159L71.5665 115.303L67.7418 115.246C67.6276 115.246 67.5135 115.189 67.3993 115.132L62.6042 112.392C62.4329 112.278 62.3188 112.107 62.2617 111.935C62.2046 111.707 62.2617 111.536 62.4329 111.365L66.0293 107.198L61.805 109.367C61.5196 109.481 61.1771 109.424 61.0058 109.196C60.7204 108.967 60.7204 108.625 60.8916 108.397L61.3483 107.712L55.4686 109.995C55.2402 110.109 54.9548 110.052 54.7836 109.881C54.6123 109.709 54.4981 109.424 54.6123 109.196L54.8407 108.339L51.701 109.253C51.5297 109.31 51.3585 109.31 51.1872 109.196L43.2524 104.858L43.9375 103.659L51.5868 107.883L55.6398 106.684C55.8682 106.627 56.1536 106.684 56.3249 106.855C56.4961 107.027 56.5532 107.312 56.4961 107.54L56.2678 108.282L62.8896 105.714C63.175 105.6 63.4605 105.714 63.6888 105.942C63.86 106.171 63.9171 106.513 63.7459 106.741L63.5746 107.027L68.541 104.458C68.8264 104.287 69.1689 104.401 69.3973 104.629C69.6256 104.858 69.5685 105.257 69.3973 105.486L64.0884 111.707L68.0272 113.933L72.2515 113.99C72.5369 113.99 72.8224 114.218 72.8794 114.504L73.1078 115.36L76.59 115.303C76.7612 115.303 76.9325 115.36 77.1037 115.474C77.2179 115.588 77.3321 115.759 77.3321 115.988V119.812L86.4085 124.72C86.5227 124.778 86.6369 124.892 86.694 125.006L88.064 127.403L94.9142 131.227L99.3668 129.972C99.6522 129.914 99.8805 129.972 100.052 130.2C100.223 130.428 100.28 130.714 100.166 130.942L100.109 131.056L110.555 128.716C110.841 128.659 111.126 128.773 111.24 129.001C111.412 129.23 111.412 129.515 111.24 129.743L110.441 130.999L117.976 128.488C118.262 128.373 118.547 128.488 118.719 128.716C118.89 128.944 118.947 129.23 118.776 129.458L115.864 134.709L118.661 136.364C118.89 136.478 119.004 136.764 119.004 136.992L118.319 145.04L122.714 147.608L133.389 146.467L133.561 147.836L122.657 148.978C122.429 149.035 122.372 149.035 122.372 149.035Z" fill="#32303C"></path></g><path d="M122.372 144.468C122.258 144.468 122.144 144.411 122.029 144.354L117.063 141.443C116.835 141.329 116.721 141.044 116.721 140.815L117.406 132.767L114.38 130.998C114.038 130.827 113.923 130.427 114.152 130.085L116.549 125.747L108.786 128.315C108.5 128.43 108.215 128.315 108.044 128.087C107.872 127.859 107.872 127.516 107.987 127.288L108.957 125.804L98.796 128.087C98.5676 128.144 98.2822 128.03 98.1109 127.859C97.9397 127.631 97.9397 127.402 98.0539 127.117V127.06L94.8 127.973C94.6288 128.03 94.4575 127.973 94.2863 127.916L87.0365 123.863C86.9223 123.806 86.8652 123.692 86.7511 123.635L85.381 121.238L76.1333 116.272C75.905 116.158 75.7908 115.93 75.7908 115.644V112.049L72.4228 112.106C72.1374 112.106 71.7949 111.877 71.7378 111.592L71.5665 110.736L67.7419 110.679C67.6277 110.679 67.5135 110.622 67.3993 110.565L62.6042 107.825C62.433 107.711 62.3188 107.54 62.2617 107.368C62.2046 107.14 62.2617 106.969 62.433 106.798L66.0293 102.631L61.805 104.8C61.5196 104.971 61.1771 104.857 61.0058 104.629C60.7775 104.4 60.7775 104.058 60.9488 103.773L61.4054 103.088L55.5257 105.371C55.2974 105.485 55.0119 105.428 54.8407 105.257C54.6694 105.085 54.5553 104.8 54.6694 104.572L54.8978 103.715L51.7581 104.629C51.5869 104.686 51.4156 104.686 51.2444 104.572L43.3096 100.234L43.9946 99.0352L51.6439 103.259L55.697 102.06C55.9253 102.003 56.2107 102.06 56.382 102.231C56.5532 102.403 56.6103 102.688 56.5532 102.916L56.3249 103.658L62.9467 101.09C63.2322 100.976 63.5176 101.09 63.7459 101.318C63.9172 101.547 63.9743 101.889 63.803 102.117L63.6317 102.403L68.5981 99.8342C68.8835 99.663 69.2261 99.7772 69.4544 100.005C69.6827 100.234 69.6256 100.633 69.4544 100.862L64.1455 107.083L68.0844 109.309L72.3086 109.366C72.5941 109.366 72.8795 109.594 72.9366 109.88L73.1649 110.736L76.6471 110.679C76.8183 110.679 76.9896 110.736 77.1608 110.85C77.275 110.964 77.3892 111.135 77.3892 111.364V115.245L86.4657 120.154C86.5798 120.211 86.694 120.325 86.7511 120.439L88.1211 122.836L94.9713 126.66L99.4239 125.405C99.7093 125.347 99.9377 125.405 100.109 125.633C100.28 125.861 100.337 126.147 100.223 126.375L100.166 126.489L110.613 124.149C110.898 124.092 111.183 124.206 111.298 124.434C111.469 124.663 111.469 124.948 111.298 125.176L110.498 126.432L118.034 123.921C118.319 123.806 118.604 123.921 118.776 124.149C118.947 124.377 119.004 124.663 118.833 124.891L115.921 130.142L118.719 131.797C118.947 131.911 119.061 132.197 119.061 132.425L118.376 140.473L122.772 143.041L133.446 141.9L133.618 143.27L122.714 144.411C122.429 144.468 122.372 144.468 122.372 144.468Z" fill="#B5FDEA"></path></g><path d="M212.067 113.621C193.46 113.621 178.406 121.921 178.406 132.132C178.406 142.343 193.46 150.643 212.067 150.643C230.675 150.643 245.729 142.343 245.729 132.132C245.729 121.921 230.628 113.621 212.067 113.621Z" fill="#111111"></path><path d="M247.97 119.638L241.705 128.264C235.16 133.299 224.313 136.563 212.017 136.563C199.768 136.563 188.922 133.299 182.377 128.264L176.159 119.638L178.824 129.383C181.909 139.081 196.87 146.635 212.064 146.635C226.978 146.635 242.827 139.454 245.211 129.942L247.97 119.638Z" fill="#8B75F3"></path><path d="M212.064 146.915C196.402 146.915 181.722 139.268 178.589 129.476L175.925 119.731C175.878 119.592 175.971 119.452 176.065 119.405C176.205 119.358 176.345 119.405 176.392 119.498L182.61 128.078C189.342 133.207 200.376 136.284 212.064 136.284C223.799 136.284 234.785 133.207 241.518 128.078L247.736 119.498C247.829 119.405 247.969 119.358 248.063 119.405C248.203 119.452 248.25 119.592 248.203 119.731L245.445 129.989C243.154 139.128 227.866 146.915 212.064 146.915ZM176.86 121.037L179.104 129.29C182.096 138.662 196.916 146.309 212.064 146.309C227.632 146.309 242.686 138.755 244.931 129.803L247.315 120.99L241.938 128.357L241.892 128.404C235.066 133.72 223.892 136.844 212.064 136.844C200.236 136.844 189.062 133.72 182.236 128.497L182.189 128.451L176.86 121.037Z" fill="#111111"></path><path d="M212.065 97.5371C192.055 97.5371 175.832 106.256 175.832 117.027C175.832 127.798 192.055 136.517 212.065 136.517C232.075 136.517 248.298 127.798 248.298 117.027C248.298 106.256 232.075 97.5371 212.065 97.5371ZM212.065 134.139C193.271 134.139 177.983 126.493 177.983 117.027C177.983 107.562 193.224 99.9151 212.065 99.9151C230.859 99.9151 246.147 107.562 246.147 117.027C246.147 126.493 230.859 134.139 212.065 134.139ZM212.065 134.372C193.13 134.372 177.749 126.586 177.749 117.027C177.749 107.469 193.13 99.682 212.065 99.682C230.999 99.682 246.381 107.469 246.381 117.027C246.334 126.632 230.953 134.372 212.065 134.372ZM212.065 100.148C193.411 100.148 178.216 107.702 178.216 117.027C178.216 126.353 193.411 133.906 212.065 133.906C230.719 133.906 245.913 126.353 245.913 117.027C245.867 107.748 230.719 100.148 212.065 100.148Z" fill="#FFEBB9"></path><path d="M246.101 117.027C246.101 118.799 245.54 120.571 244.512 122.203C239.93 114.929 227.12 109.66 212.019 109.66C196.918 109.66 184.108 114.882 179.527 122.203C178.498 120.571 177.937 118.846 177.937 117.027C177.937 107.562 193.178 99.915 212.019 99.915C230.86 99.915 246.101 107.609 246.101 117.027Z" fill="#8B75F3"></path><path d="M179.574 122.482C179.48 122.482 179.387 122.435 179.34 122.342C178.265 120.617 177.704 118.845 177.704 117.027C177.704 107.421 193.132 99.6348 212.066 99.6348C231.001 99.6348 246.429 107.421 246.429 117.027C246.429 118.845 245.868 120.617 244.793 122.342C244.699 122.482 244.419 122.482 244.325 122.342C239.65 114.928 226.7 109.939 212.066 109.939C197.433 109.939 184.483 114.928 179.807 122.342C179.761 122.435 179.667 122.482 179.574 122.482ZM212.066 100.194C193.412 100.194 178.265 107.748 178.265 117.027C178.265 118.612 178.685 120.151 179.574 121.643C184.529 114.276 197.48 109.38 212.066 109.38C226.606 109.38 239.557 114.276 244.559 121.643C245.447 120.151 245.868 118.565 245.868 117.027C245.821 107.748 230.674 100.194 212.066 100.194Z" fill="#111111"></path><path d="M179.948 111.29C178.686 113.108 177.984 115.02 177.984 117.072C177.984 118.89 178.545 120.615 179.574 122.247C179.714 122.061 179.854 121.828 179.995 121.641V111.29H179.948Z" fill="#111111"></path><path d="M179.574 122.482C179.48 122.482 179.387 122.435 179.34 122.342C178.265 120.617 177.704 118.845 177.704 117.026C177.704 114.975 178.405 113.016 179.761 111.105C179.854 111.011 179.948 110.965 180.088 111.011C180.181 111.058 180.275 111.151 180.275 111.291V121.596C180.275 121.642 180.275 121.689 180.228 121.736C180.088 121.922 179.948 122.109 179.807 122.342C179.761 122.435 179.667 122.482 179.574 122.482ZM179.667 112.224C178.732 113.809 178.265 115.394 178.265 117.026C178.265 118.612 178.685 120.15 179.574 121.642C179.62 121.596 179.667 121.549 179.714 121.456V112.224H179.667Z" fill="#111111"></path><path d="M181.77 109.193V119.451C182.237 118.985 182.705 118.565 183.266 118.099V107.888C182.705 108.307 182.237 108.774 181.77 109.193Z" fill="#111111"></path><path d="M181.769 119.73C181.723 119.73 181.676 119.73 181.676 119.73C181.582 119.684 181.489 119.591 181.489 119.451V109.193C181.489 109.1 181.536 109.053 181.582 109.006C182.05 108.54 182.564 108.12 183.078 107.701C183.172 107.654 183.265 107.607 183.359 107.654C183.452 107.701 183.499 107.794 183.499 107.887V118.099C183.499 118.192 183.452 118.238 183.406 118.332C182.891 118.751 182.424 119.218 181.956 119.637C181.91 119.73 181.863 119.73 181.769 119.73ZM182.05 109.333V118.798C182.33 118.518 182.658 118.238 182.985 118.005V108.493C182.658 108.773 182.377 109.053 182.05 109.333Z" fill="#111111"></path><path d="M185.417 106.395V116.513C186.446 115.814 187.615 115.161 188.83 114.555V104.53C187.568 105.09 186.446 105.743 185.417 106.395Z" fill="#111111"></path><path d="M185.417 116.793C185.37 116.793 185.324 116.793 185.277 116.746C185.183 116.699 185.137 116.606 185.137 116.513V106.395C185.137 106.302 185.183 106.208 185.277 106.162C186.306 105.509 187.474 104.856 188.69 104.297C188.783 104.25 188.877 104.25 188.97 104.297C189.064 104.343 189.111 104.437 189.111 104.53V114.555C189.111 114.648 189.064 114.741 188.97 114.788C187.755 115.394 186.633 116.047 185.604 116.699C185.511 116.793 185.464 116.793 185.417 116.793ZM185.698 106.535V116C186.586 115.441 187.568 114.881 188.55 114.415V104.996C187.521 105.462 186.586 105.975 185.698 106.535Z" fill="#111111"></path><path d="M238.807 106.489C238.153 106.069 237.498 105.696 236.75 105.323V115.395C237.451 115.814 238.153 116.234 238.807 116.654V106.489Z" fill="#111111"></path><path d="M238.807 116.887C238.761 116.887 238.714 116.887 238.667 116.84C238.013 116.421 237.358 116.001 236.657 115.581C236.563 115.535 236.517 115.442 236.517 115.348V105.277C236.517 105.184 236.563 105.09 236.657 105.044C236.75 104.997 236.844 104.997 236.937 105.044C237.639 105.417 238.34 105.836 238.994 106.256C239.088 106.303 239.135 106.396 239.135 106.489V116.607C239.135 116.701 239.088 116.794 238.994 116.84C238.901 116.887 238.854 116.887 238.807 116.887ZM237.078 115.208C237.592 115.488 238.059 115.815 238.574 116.094V106.629C238.106 106.349 237.592 106.023 237.078 105.743V115.208Z" fill="#111111"></path><path d="M240.538 107.655V117.867C242.221 119.219 243.576 120.664 244.558 122.203C245.587 120.571 246.148 118.846 246.148 117.027C246.101 113.577 244.044 110.36 240.538 107.655Z" fill="#111111"></path><path d="M244.559 122.482C244.465 122.482 244.372 122.435 244.325 122.342C243.39 120.85 242.034 119.404 240.351 118.052C240.305 118.005 240.258 117.912 240.258 117.819V107.608C240.258 107.514 240.305 107.421 240.398 107.374C240.492 107.328 240.632 107.328 240.679 107.421C244.419 110.265 246.382 113.576 246.382 117.026C246.382 118.845 245.821 120.616 244.746 122.342C244.746 122.435 244.653 122.482 244.559 122.482ZM240.819 117.726C242.362 118.985 243.624 120.29 244.559 121.689C245.447 120.197 245.868 118.612 245.868 117.073C245.868 113.949 244.138 110.918 240.819 108.26V117.726Z" fill="#111111"></path><path d="M256.9 98.1875L249.093 108.912C240.911 115.206 227.353 119.31 212.018 119.31C196.731 119.31 183.172 115.206 174.991 108.958L167.23 98.1875L170.549 110.357C174.43 122.48 193.037 131.899 212.065 131.899C230.672 131.899 250.449 122.9 253.441 111.057L256.9 98.1875Z" fill="#8B75F3"></path><path d="M212.065 132.179C192.569 132.179 174.196 122.62 170.315 110.451L166.996 98.281C166.949 98.1411 167.043 98.0012 167.136 97.9546C167.276 97.9079 167.417 97.9546 167.463 98.0478L175.224 108.772C183.64 115.207 197.431 119.03 212.065 119.03C226.698 119.03 240.49 115.16 248.905 108.725L256.713 98.0012C256.806 97.9079 256.947 97.8613 257.04 97.9079C257.18 97.9546 257.227 98.0944 257.18 98.2343L253.721 111.057C250.822 122.527 231.747 132.179 212.065 132.179ZM167.931 99.6331L170.829 110.311C174.57 122.061 193.083 131.619 212.065 131.619C231.514 131.619 250.355 122.154 253.207 110.964L256.292 99.5865L249.373 109.098L249.326 109.145C240.817 115.673 226.885 119.59 212.112 119.59C197.338 119.59 183.453 115.673 174.897 109.192L174.85 109.145L167.931 99.6331Z" fill="#111111"></path><path d="M212.065 70.584C187.053 70.584 166.809 81.4947 166.809 94.9233C166.809 108.352 187.053 119.263 212.065 119.263C237.077 119.263 257.321 108.352 257.321 94.9233C257.321 81.4947 237.031 70.584 212.065 70.584ZM212.065 116.325C188.549 116.325 169.521 106.767 169.521 94.9699C169.521 83.1733 188.549 73.6147 212.065 73.6147C235.581 73.6147 254.609 83.1733 254.609 94.9699C254.609 106.767 235.535 116.325 212.065 116.325ZM212.065 116.558C188.455 116.558 169.287 106.86 169.287 94.9699C169.287 83.08 188.455 73.3816 212.065 73.3816C235.675 73.3816 254.843 83.08 254.843 94.9699C254.843 106.86 235.628 116.558 212.065 116.558ZM212.065 73.8479C188.736 73.8479 169.754 83.3132 169.754 94.9699C169.754 106.627 188.736 116.092 212.065 116.092C235.394 116.092 254.376 106.627 254.376 94.9699C254.376 83.3132 235.394 73.8479 212.065 73.8479Z" fill="#FFEBB9"></path><path d="M254.613 94.9704C254.613 97.2085 253.911 99.4 252.649 101.405C246.899 92.3127 230.909 85.7849 212.068 85.7849C193.227 85.7849 177.238 92.3127 171.488 101.405C170.225 99.3534 169.524 97.2085 169.524 94.9704C169.524 83.1738 188.552 73.6152 212.068 73.6152C235.538 73.6152 254.613 83.1738 254.613 94.9704Z" fill="#8B75F3"></path><path d="M171.488 101.685C171.394 101.685 171.301 101.639 171.254 101.545C169.898 99.4005 169.244 97.209 169.244 94.9709C169.244 83.0344 188.459 73.3359 212.069 73.3359C235.678 73.3359 254.893 83.0344 254.893 94.9709C254.893 97.209 254.239 99.4471 252.883 101.545C252.79 101.685 252.509 101.685 252.415 101.545C246.571 92.2665 230.349 86.0185 212.069 86.0185C193.788 86.0185 177.566 92.2665 171.722 101.545C171.675 101.639 171.581 101.685 171.488 101.685ZM212.069 73.8955C188.786 73.8955 169.805 83.3608 169.805 94.9709C169.805 96.9759 170.366 98.9808 171.488 100.893C177.612 91.6604 193.835 85.5056 212.069 85.5056C230.302 85.5056 246.478 91.6604 252.649 100.893C253.771 98.9808 254.332 96.9759 254.332 94.9709C254.332 83.3608 235.351 73.8955 212.069 73.8955Z" fill="#111111"></path><path d="M172.002 87.79C170.413 90.0281 169.524 92.4527 169.524 94.9706C169.524 97.2087 170.226 99.4002 171.488 101.405C171.628 101.172 171.815 100.892 172.002 100.659V87.79Z" fill="#111111"></path><path d="M171.488 101.685C171.394 101.685 171.301 101.638 171.254 101.545C169.898 99.4004 169.244 97.2089 169.244 94.9708C169.244 92.4529 170.085 89.9817 171.768 87.6037C171.862 87.5105 171.955 87.4639 172.096 87.5105C172.189 87.5571 172.283 87.6504 172.283 87.7902V100.659C172.283 100.706 172.283 100.753 172.236 100.799C172.049 101.032 171.909 101.312 171.722 101.545C171.675 101.638 171.581 101.685 171.488 101.685ZM171.722 88.6762C170.459 90.7277 169.805 92.826 169.805 94.9708C169.805 96.9758 170.366 98.9807 171.488 100.892C171.581 100.799 171.628 100.659 171.722 100.566V88.6762Z" fill="#111111"></path><path d="M174.242 85.1791V98.0015C174.803 97.442 175.411 96.8825 176.066 96.3229V83.5938C175.411 84.06 174.803 84.6195 174.242 85.1791Z" fill="#111111"></path><path d="M174.243 98.2346C174.197 98.2346 174.15 98.2346 174.15 98.2346C174.056 98.188 173.963 98.0948 173.963 97.9549V85.1324C173.963 85.0392 174.01 84.9926 174.056 84.9459C174.664 84.3864 175.272 83.8269 175.926 83.314C176.02 83.2674 176.113 83.2207 176.207 83.2674C176.3 83.314 176.347 83.4072 176.347 83.5005V96.2763C176.347 96.3696 176.3 96.4162 176.254 96.5094C175.599 97.0223 174.991 97.5819 174.43 98.188C174.384 98.2346 174.337 98.2346 174.243 98.2346ZM174.524 85.2723V97.3021C174.945 96.9291 175.365 96.5094 175.786 96.1364V84.1533C175.365 84.4797 174.945 84.8993 174.524 85.2723Z" fill="#111111"></path><path d="M178.779 81.6343V94.3169C180.088 93.431 181.49 92.6383 183.033 91.8923V79.3496C181.49 80.049 180.088 80.8417 178.779 81.6343Z" fill="#111111"></path><path d="M178.779 94.5969C178.732 94.5969 178.686 94.5969 178.639 94.5503C178.545 94.5037 178.499 94.4104 178.499 94.3172V81.6346C178.499 81.5414 178.545 81.4481 178.639 81.4015C179.948 80.5622 181.397 79.8162 182.94 79.0701C183.033 79.0235 183.127 79.0235 183.22 79.0701C183.314 79.1168 183.361 79.21 183.361 79.3033V91.8459C183.361 91.9392 183.314 92.0325 183.22 92.0791C181.724 92.8251 180.322 93.6178 179.013 94.5037C178.873 94.5503 178.826 94.5969 178.779 94.5969ZM179.06 81.8211V93.8043C180.228 93.0582 181.444 92.3588 182.753 91.7061V79.7695C181.444 80.4223 180.182 81.0751 179.06 81.8211Z" fill="#111111"></path><path d="M245.494 81.7753C244.699 81.2624 243.858 80.7495 242.923 80.2832V92.8725C243.811 93.3854 244.653 93.8983 245.494 94.4578V81.7753Z" fill="#111111"></path><path d="M245.493 94.6905C245.446 94.6905 245.4 94.6905 245.353 94.6439C244.558 94.0844 243.67 93.5715 242.828 93.1052C242.735 93.0586 242.688 92.9653 242.688 92.8721V80.2828C242.688 80.1895 242.735 80.0962 242.828 80.0496C242.922 80.003 243.015 80.003 243.109 80.0496C243.997 80.5159 244.885 81.0288 245.68 81.5417C245.774 81.5883 245.82 81.6816 245.82 81.7748V94.4108C245.82 94.504 245.774 94.5973 245.68 94.6439C245.587 94.6905 245.54 94.6905 245.493 94.6905ZM243.202 92.6856C243.857 93.0586 244.558 93.4782 245.213 93.8979V81.9147C244.558 81.4951 243.904 81.122 243.202 80.749V92.6856Z" fill="#111111"></path><path d="M247.598 83.2217V95.9509C249.701 97.6294 251.385 99.4479 252.6 101.406C253.862 99.3546 254.564 97.2098 254.564 94.9717C254.61 90.6354 252.039 86.5788 247.598 83.2217Z" fill="#111111"></path><path d="M252.6 101.685C252.507 101.685 252.413 101.638 252.367 101.545C251.151 99.6335 249.515 97.8617 247.411 96.1831C247.364 96.1365 247.317 96.0432 247.317 95.95V83.2208C247.317 83.1275 247.364 83.0343 247.458 82.9877C247.551 82.941 247.645 82.941 247.738 83.0343C252.367 86.5779 254.844 90.7277 254.844 94.9708C254.844 97.2089 254.19 99.447 252.834 101.545C252.787 101.638 252.741 101.685 252.6 101.685ZM247.878 95.8101C249.842 97.3954 251.432 99.074 252.6 100.846C253.722 98.9341 254.283 96.9292 254.283 94.9242C254.283 90.9609 252.039 87.1375 247.832 83.7803V95.8101H247.878Z" fill="#111111"></path><path d="M260.314 82.987C256.714 70.8173 236.003 61.6318 212.066 61.6318C200.378 61.6318 189.017 63.8233 180.181 67.7399C171.439 71.61 165.688 76.9721 163.865 82.8005L163.351 82.614C167.137 70.1645 187.662 61.0723 212.066 61.0723C223.894 61.0723 235.349 63.2637 244.278 67.3203C253.161 71.3302 259.052 76.8322 260.829 82.8471L260.314 82.987Z" fill="#111111"></path><path d="M267.652 72.4961L257.975 85.8314C247.83 93.6182 231.046 98.7005 212.018 98.7005C193.036 98.7005 176.252 93.6182 166.107 85.8781L156.523 72.4961L160.637 87.5566C165.453 102.571 188.548 114.274 212.064 114.274C235.16 114.274 259.658 103.13 263.398 88.3959L267.652 72.4961Z" fill="#8B75F3"></path><path d="M212.065 114.553C200.564 114.553 188.876 111.802 179.198 106.813C169.38 101.777 162.695 94.9696 160.357 87.6491L156.243 72.5419C156.196 72.4021 156.29 72.2622 156.383 72.2156C156.523 72.1689 156.664 72.2156 156.71 72.3088L166.295 85.6442C176.767 93.6174 193.832 98.42 212.018 98.42C230.205 98.42 247.269 93.664 257.742 85.6442L267.419 72.3554C267.513 72.2622 267.653 72.2156 267.746 72.2622C267.887 72.3088 267.933 72.4487 267.887 72.5886L263.586 88.4884C259.705 104.062 233.805 114.553 212.065 114.553ZM157.178 73.8941L160.871 87.4626C163.162 94.5966 169.754 101.264 179.432 106.253C189.063 111.242 200.657 113.993 212.065 113.993C236.236 113.993 259.612 102.243 263.118 88.3485L267.045 73.8941L258.256 85.9705L258.209 86.0172C247.643 94.1303 230.438 98.9329 212.112 98.9329C193.832 98.9329 176.58 94.1303 166.014 86.0172L165.967 85.9705L157.178 73.8941Z" fill="#111111"></path><path d="M212.065 38.2725C181.069 38.2725 155.963 51.7943 155.963 68.4868C155.963 85.1793 181.069 98.7011 212.065 98.7011C243.062 98.7011 268.168 85.1793 268.168 68.4868C268.168 51.7943 243.015 38.2725 212.065 38.2725ZM212.065 94.971C182.939 94.971 159.329 83.1277 159.329 68.4868C159.282 53.8459 182.939 42.0026 212.065 42.0026C241.192 42.0026 264.802 53.8459 264.802 68.4868C264.802 83.1277 241.192 94.971 212.065 94.971ZM212.065 95.2041C182.845 95.2041 159.049 83.221 159.049 68.4868C159.049 53.7526 182.845 41.7695 212.065 41.7695C241.285 41.7695 265.035 53.7526 265.035 68.4868C265.035 83.221 241.239 95.2041 212.065 95.2041ZM212.065 42.2358C183.079 42.2358 159.516 53.9858 159.516 68.4868C159.516 82.9878 183.079 94.7378 212.019 94.7378C240.958 94.7378 264.521 82.9412 264.521 68.4868C264.568 53.9858 241.005 42.2358 212.065 42.2358Z" fill="#FFEBB9"></path><path d="M264.803 68.4871C264.803 71.2847 263.961 73.9425 262.372 76.4603C255.219 65.1766 235.396 57.0635 212.066 57.0635C188.69 57.0635 168.868 65.1766 161.761 76.4603C160.172 73.9425 159.33 71.2381 159.33 68.4871C159.283 53.8462 182.94 42.0029 212.066 42.0029C241.193 42.0029 264.803 53.8462 264.803 68.4871Z" fill="#8B75F3"></path><path d="M161.761 76.7396C161.667 76.7396 161.574 76.693 161.527 76.5997C159.891 73.9886 159.049 71.2376 159.049 68.44C159.003 53.7058 182.799 41.7227 212.066 41.7227C241.286 41.7227 265.083 53.7524 265.083 68.4866C265.083 71.2842 264.241 73.9886 262.605 76.5997C262.512 76.7396 262.231 76.7396 262.138 76.5997C254.844 65.0828 234.741 57.3427 212.066 57.3427C189.391 57.3427 169.288 65.0828 161.995 76.5997C161.948 76.693 161.855 76.7396 161.761 76.7396ZM212.066 42.2822C183.127 42.2822 159.564 54.0322 159.564 68.4866C159.564 71.0511 160.312 73.5223 161.714 75.9469C169.335 64.4767 189.438 56.7832 212.066 56.7832C234.694 56.7832 254.798 64.4767 262.371 75.9003C263.821 73.4757 264.522 71.0045 264.522 68.44C264.522 54.0322 240.959 42.2822 212.066 42.2822Z" fill="#111111"></path><path d="M162.368 59.5801C160.405 62.3777 159.283 65.3618 159.283 68.4858C159.283 71.2835 160.124 73.9412 161.714 76.4591C161.901 76.1327 162.135 75.8063 162.368 75.5265V59.5801Z" fill="#111111"></path><path d="M161.761 76.7388C161.667 76.7388 161.574 76.6922 161.527 76.5989C159.891 73.9878 159.049 71.2368 159.049 68.4392C159.049 65.3152 160.078 62.2844 162.182 59.3469C162.275 59.2536 162.369 59.207 162.509 59.2536C162.602 59.3003 162.696 59.3935 162.696 59.5334V75.4799C162.696 75.5265 162.696 75.5731 162.649 75.6197C162.415 75.9461 162.228 76.2259 162.041 76.5523C161.948 76.6922 161.854 76.7388 161.761 76.7388ZM162.088 60.4659C160.405 63.0304 159.564 65.7348 159.564 68.4858C159.564 71.0503 160.312 73.5215 161.714 75.9461C161.808 75.7596 161.948 75.6197 162.041 75.4332V60.4659H162.088Z" fill="#111111"></path><path d="M165.175 56.3165V72.2163C165.876 71.5169 166.624 70.8175 167.466 70.1181V54.3115C166.671 54.9643 165.876 55.6171 165.175 56.3165Z" fill="#111111"></path><path d="M165.175 72.4966C165.128 72.4966 165.082 72.4966 165.082 72.4966C164.988 72.4499 164.895 72.3567 164.895 72.2168V56.317C164.895 56.2237 164.941 56.1771 164.988 56.1305C165.736 55.4311 166.484 54.7317 167.279 54.1255C167.372 54.0789 167.466 54.0323 167.559 54.0789C167.653 54.1255 167.7 54.2188 167.7 54.312V70.1186C167.7 70.2118 167.653 70.2585 167.606 70.3517C166.811 71.0045 166.063 71.7039 165.362 72.4033C165.315 72.4499 165.269 72.4966 165.175 72.4966ZM165.456 56.4569V71.564C166.017 71.0511 166.578 70.4916 167.185 70.0253V54.9182C166.624 55.3844 166.017 55.8973 165.456 56.4569Z" fill="#111111"></path><path d="M170.782 51.9807V67.694C172.419 66.6216 174.148 65.5958 176.065 64.6633V49.0898C174.195 49.9758 172.419 50.9549 170.782 51.9807Z" fill="#111111"></path><path d="M170.781 67.9267C170.734 67.9267 170.687 67.9267 170.641 67.8801C170.547 67.8335 170.5 67.7402 170.5 67.647V51.9803C170.5 51.887 170.547 51.7938 170.641 51.7471C172.277 50.7213 174.054 49.7422 175.924 48.8563C176.017 48.8096 176.111 48.8096 176.204 48.8563C176.298 48.9029 176.344 48.9961 176.344 49.0894V64.6162C176.344 64.7095 176.298 64.8027 176.204 64.8493C174.334 65.7819 172.604 66.7611 170.968 67.8335C170.921 67.9267 170.875 67.9267 170.781 67.9267ZM171.062 52.1202V67.1341C172.511 66.2015 174.1 65.269 175.783 64.4763V49.5557C174.1 50.3483 172.558 51.2342 171.062 52.1202Z" fill="#111111"></path><path d="M253.488 52.1202C252.506 51.4674 251.431 50.8613 250.309 50.3018V65.8752C251.431 66.4813 252.459 67.1341 253.488 67.8335V52.1202Z" fill="#111111"></path><path d="M253.487 68.0669C253.44 68.0669 253.393 68.0669 253.346 68.0203C252.318 67.3675 251.289 66.7148 250.214 66.1086C250.12 66.062 250.074 65.9687 250.074 65.8755V50.2554C250.074 50.1622 250.12 50.0689 250.214 50.0223C250.307 49.9756 250.401 49.9756 250.494 50.0223C251.617 50.6284 252.692 51.2346 253.674 51.8874C253.767 51.934 253.814 52.0272 253.814 52.1205V67.8338C253.814 67.9271 253.767 68.0203 253.674 68.0669C253.58 68.0669 253.533 68.0669 253.487 68.0669ZM250.588 65.689C251.476 66.2019 252.365 66.7148 253.206 67.2743V52.2604C252.365 51.7475 251.523 51.2346 250.588 50.7217V65.689Z" fill="#111111"></path><path d="M256.105 53.9385V69.6984C258.724 71.75 260.827 74.0347 262.323 76.4594C263.913 73.9415 264.755 71.2371 264.755 68.4861C264.801 63.124 261.575 58.0883 256.105 53.9385Z" fill="#111111"></path><path d="M262.37 76.7392C262.276 76.7392 262.183 76.6926 262.136 76.5993C260.64 74.268 258.583 71.9832 255.965 69.9316C255.918 69.885 255.871 69.7918 255.871 69.6985V53.9386C255.871 53.8453 255.918 53.7521 256.011 53.7054C256.105 53.6588 256.245 53.6588 256.292 53.7521C262.042 58.135 265.081 63.2174 265.081 68.5328C265.081 71.3305 264.24 74.0348 262.603 76.6459C262.557 76.6926 262.463 76.7392 262.37 76.7392ZM256.385 69.6053C258.863 71.6102 260.827 73.7084 262.323 75.9465C263.772 73.5219 264.473 71.0507 264.473 68.4862C264.473 63.5437 261.668 58.6945 256.385 54.4981V69.6053Z" fill="#111111"></path><path d="M251.617 36.9199C251.617 38.8782 250.027 40.4169 248.11 40.4169C246.147 40.4169 244.604 38.8316 244.604 36.9199C244.604 34.9615 246.194 33.4229 248.11 33.4229C250.074 33.4229 251.617 34.9615 251.617 36.9199Z" fill="white"></path><path d="M244.511 75.3411H244.184C243.576 75.3411 243.062 74.8282 243.062 74.222V70.4452C243.062 69.8391 243.576 69.3262 244.184 69.3262H244.511C245.119 69.3262 245.633 69.8391 245.633 70.4452V74.222C245.633 74.8282 245.119 75.3411 244.511 75.3411Z" fill="white"></path><path d="M238.294 35.5205H237.967C237.359 35.5205 236.845 35.0076 236.845 34.4014V21.206C236.845 20.5998 237.359 20.0869 237.967 20.0869H238.294C238.902 20.0869 239.416 20.5998 239.416 21.206V34.448C239.416 35.0076 238.902 35.5205 238.294 35.5205Z" fill="white"></path><path d="M212.067 105.277C180.649 105.277 155.029 91.9883 155.029 75.6222C155.029 74.0368 155.263 72.4515 155.731 70.8662L156.245 71.0527C155.777 72.5448 155.544 74.0835 155.544 75.6222C155.544 91.6619 180.883 104.717 212.02 104.717C243.157 104.717 268.496 91.6619 268.496 75.6222C268.496 74.1301 268.263 72.6847 267.842 71.2392L268.403 71.0993C268.824 72.5914 269.057 74.1301 269.057 75.6688C269.057 91.9883 243.484 105.277 212.067 105.277Z" fill="#111111"></path><path d="M212.068 125.047C186.402 125.047 165.503 114.183 165.503 100.801C165.503 99.4952 165.69 98.1896 166.111 96.9307L166.625 97.1172C166.251 98.3295 166.064 99.5884 166.064 100.847C166.064 113.903 186.682 124.534 212.068 124.534C237.455 124.534 258.072 113.903 258.072 100.847C258.072 99.635 257.885 98.4694 257.558 97.2571L258.119 97.1172C258.493 98.3295 258.68 99.5884 258.68 100.847C258.633 114.136 237.735 125.047 212.068 125.047Z" fill="#111111"></path><path d="M212.065 140.293C190.652 140.293 173.261 131.247 173.261 120.103C173.261 119.031 173.448 117.912 173.775 116.886L174.289 117.072C173.962 118.098 173.822 119.124 173.822 120.15C173.822 130.967 190.98 139.826 212.018 139.826C233.103 139.826 250.215 131.014 250.215 120.15C250.215 119.17 250.074 118.145 249.794 117.212L250.355 117.072C250.635 118.098 250.822 119.124 250.822 120.196C250.822 131.247 233.431 140.293 212.065 140.293Z" fill="#111111"></path><g opacity="0.55"><path d="M266.765 75.3408C266.765 75.3408 260.36 89.5154 238.761 95.1107C238.761 95.1107 236.984 106.954 234.646 110.638L239.836 114.041C239.836 114.041 240.397 121.548 238.34 126.024L241.706 128.216C241.706 128.216 242.314 134.184 238.761 138.8C238.761 138.8 244.651 134.604 245.727 128.589L247.971 119.59C247.971 119.59 252.412 115.207 253.254 112.223C254.095 109.239 256.947 98.1415 256.947 98.1415C256.947 98.1415 261.108 95.1107 262.978 89.3289C264.474 84.573 266.765 75.3408 266.765 75.3408Z" fill="#32303C"></path></g><g clip-path="url(#clip1_3968_4452)"><path d="M181.901 54.0021L200.849 64.5096V42.2888L181.901 31.7812V54.0021Z" fill="#D7FF65"></path><path d="M200.849 65.0255C200.763 65.0255 200.677 65.0255 200.591 64.9393L181.643 54.4318C181.47 54.3457 181.384 54.1735 181.384 54.0012V31.7804C181.384 31.6081 181.47 31.4359 181.643 31.3498C181.815 31.2636 181.987 31.2636 182.159 31.3498L201.107 41.8573C201.28 41.9434 201.366 42.1156 201.366 42.2879V64.5087C201.366 64.681 201.28 64.8532 201.107 64.9393C201.021 65.0255 200.935 65.0255 200.849 65.0255ZM182.418 53.6567L200.246 63.6474V42.6324L182.418 32.6417V53.6567Z" fill="#111111"></path><path d="M181.9 31.78L200.934 42.3737L218.16 32.6413L199.212 22.1338L181.9 31.78Z" fill="#D7FF65"></path><path d="M200.934 42.9759L180.867 31.7794L199.212 21.5303L219.279 32.6407L200.934 42.9759ZM183.02 31.7794L200.934 41.7702L217.126 32.7268L199.212 22.7361L183.02 31.7794Z" fill="#111111"></path><path d="M218.16 55.5514L201.193 64.6809V42.2017L218.16 32.6416V55.5514Z" fill="#111111"></path><path d="M201.193 65.1968C201.107 65.1968 201.021 65.1968 200.935 65.1107C200.762 65.0246 200.676 64.8523 200.676 64.68V42.2009C200.676 42.0286 200.762 41.8563 200.935 41.7702L217.988 32.2101C218.16 32.124 218.332 32.124 218.505 32.2101C218.677 32.2962 218.763 32.4685 218.763 32.6407V55.5506C218.763 55.7228 218.677 55.8951 218.505 55.9812L201.451 65.1107C201.365 65.1968 201.279 65.1968 201.193 65.1968ZM201.71 42.5454V63.8188L217.729 55.2922V33.5881L201.71 42.5454Z" fill="#111111"></path><mask id="mask0_3968_4452" style="mask-type:alpha" maskUnits="userSpaceOnUse" x="172" y="60" width="46" height="35"><path d="M209.45 94.7399C198.081 95.7735 183.755 91.1513 178.013 88.711C176.865 86.4143 174.138 80.6151 172.415 75.792C170.693 70.9688 183.181 61.8681 188.779 60.2891L213.757 66.7486C218.494 73.9259 220.819 93.7064 209.45 94.7399Z" fill="#D9D9D9"></path></mask><g mask="url(#mask0_3968_4452)"><path d="M180.851 94.311L195.111 102.255V85.4556L180.851 77.5117V94.311Z" fill="#D7FF65"></path><path d="M195.112 102.645C195.047 102.645 194.981 102.645 194.916 102.58L180.591 94.636C180.461 94.5709 180.396 94.4406 180.396 94.3104V77.5111C180.396 77.3809 180.461 77.2507 180.591 77.1856C180.722 77.1204 180.852 77.1204 180.982 77.1856L195.307 85.1294C195.437 85.1945 195.502 85.3247 195.502 85.455V102.254C195.502 102.384 195.437 102.515 195.307 102.58C195.242 102.645 195.177 102.645 195.112 102.645ZM181.242 94.0499L194.721 101.603V85.7154L181.242 78.1623V94.0499Z" fill="#111111"></path><path d="M180.852 77.5115L195.242 85.5204L208.264 78.1626L193.874 70.2188L180.852 77.5115Z" fill="#D7FF65"></path><path d="M195.242 85.9769L180.005 77.5122L193.875 69.7637L209.046 78.1633L195.242 85.9769ZM181.633 77.5122L195.177 85.0653L207.418 78.2284L193.875 70.6753L181.633 77.5122Z" fill="#111111"></path><path d="M208.266 95.4833L195.373 102.385V85.3907L208.266 78.1631V95.4833Z" fill="#111111"></path><path d="M195.373 102.775C195.308 102.775 195.243 102.775 195.178 102.71C195.048 102.645 194.982 102.515 194.982 102.385V85.4552C194.982 85.325 195.048 85.1947 195.178 85.1296L208.07 77.8369C208.2 77.7718 208.331 77.7718 208.461 77.8369C208.591 77.902 208.656 78.0323 208.656 78.1625V95.4827C208.656 95.6129 208.591 95.7431 208.461 95.8082L195.568 102.71C195.503 102.775 195.438 102.775 195.373 102.775ZM195.764 85.6505V101.734L207.875 95.2873V78.8787L195.764 85.6505Z" fill="#111111"></path></g></g><path d="M227.194 79.9685L239.683 86.8942V72.248L227.194 65.3223V79.9685Z" fill="#D7FF65"></path><path d="M239.683 87.2341C239.626 87.2341 239.569 87.2341 239.512 87.1774L227.023 80.2516C226.91 80.1949 226.853 80.0813 226.853 79.9678V65.3215C226.853 65.208 226.91 65.0945 227.023 65.0377C227.137 64.9809 227.25 64.9809 227.364 65.0377L239.853 71.9634C239.967 72.0202 240.023 72.1337 240.023 72.2473V86.8935C240.023 87.0071 239.967 87.1206 239.853 87.1774C239.796 87.2341 239.739 87.2341 239.683 87.2341ZM227.534 79.7407L239.285 86.3258V72.4744L227.534 65.8892V79.7407Z" fill="#111111"></path><path d="M227.195 65.3209L239.741 72.3035L251.094 65.8886L238.605 58.9629L227.195 65.3209Z" fill="#D7FF65"></path><path d="M239.742 72.7017L226.515 65.3218L238.606 58.5664L251.833 65.8895L239.742 72.7017ZM227.934 65.3218L239.742 71.907L250.414 65.9463L238.606 59.3612L227.934 65.3218Z" fill="#111111"></path><path d="M251.094 80.99L239.911 87.0075V72.1909L251.094 65.8896V80.99Z" fill="#111111"></path><path d="M239.911 87.3483C239.855 87.3483 239.798 87.3483 239.741 87.2916C239.628 87.2348 239.571 87.1213 239.571 87.0077V72.1912C239.571 72.0776 239.628 71.9641 239.741 71.9073L250.981 65.6061C251.095 65.5493 251.208 65.5493 251.322 65.6061C251.435 65.6628 251.492 65.7764 251.492 65.8899V80.9903C251.492 81.1038 251.435 81.2174 251.322 81.2741L240.082 87.2916C240.025 87.3483 239.968 87.3483 239.911 87.3483ZM240.252 72.4183V86.44L250.811 80.82V66.5143L240.252 72.4183Z" fill="#111111"></path><path d="M207.65 42.9145L231.185 55.9657V28.3657L207.65 15.3145V42.9145Z" fill="#D7FF65"></path><path d="M231.183 56.6085C231.076 56.6085 230.969 56.6085 230.862 56.5015L207.327 43.4503C207.113 43.3433 207.006 43.1293 207.006 42.9154V15.3153C207.006 15.1014 207.113 14.8874 207.327 14.7804C207.541 14.6735 207.755 14.6735 207.969 14.7804L231.504 27.8316C231.718 27.9386 231.825 28.1526 231.825 28.3665V55.9666C231.825 56.1805 231.718 56.3945 231.504 56.5015C231.397 56.6085 231.29 56.6085 231.183 56.6085ZM208.29 42.4875L230.434 54.8968V28.7944L208.29 16.3851V42.4875Z" fill="#111111"></path><path d="M207.646 15.3144L231.288 28.4726L252.684 16.3842L229.149 3.33301L207.646 15.3144Z" fill="#D7FF65"></path><path d="M231.288 29.2213L206.363 15.3143L229.149 2.58398L254.075 16.384L231.288 29.2213ZM209.037 15.3143L231.288 27.7236L251.4 16.491L229.149 4.08166L209.037 15.3143Z" fill="#111111"></path><path d="M252.682 44.8407L231.607 56.1802V28.2592L252.682 16.3848V44.8407Z" fill="#111111"></path><path d="M231.612 56.822C231.505 56.822 231.398 56.822 231.291 56.715C231.077 56.608 230.97 56.3941 230.97 56.1801V28.2591C230.97 28.0451 231.077 27.8312 231.291 27.7242L252.472 15.8498C252.686 15.7428 252.9 15.7428 253.114 15.8498C253.328 15.9567 253.435 16.1707 253.435 16.3846V44.8405C253.435 45.0545 253.328 45.2684 253.114 45.3754L231.933 56.715C231.826 56.822 231.719 56.822 231.612 56.822ZM232.253 28.687V55.1103L252.151 44.5196V17.5614L232.253 28.687Z" fill="#111111"></path><defs><clipPath id="clip0_3968_4452"><rect width="117.994" height="67.1792" fill="white" transform="translate(36.1733 87.8496)"></rect></clipPath><clipPath id="clip1_3968_4452"><rect width="50.0399" height="115.152" fill="white" transform="translate(169.67 5.16797)"></rect></clipPath></defs></svg>