<svg xmlns="http://www.w3.org/2000/svg" width="245" height="202" viewBox="0 0 245 202" fill="none"><path d="M62.8499 93.8196C79.1829 84.3635 105.817 84.3635 122.15 93.8196C130.131 98.455 134.214 104.481 134.4 110.507C134.493 113.937 134.493 117.367 134.4 120.797C134.214 126.823 130.131 132.849 122.15 137.485C105.817 146.941 79.1829 146.941 62.8499 137.485C54.869 132.849 50.7857 126.823 50.6001 120.797C50.5073 117.367 50.5073 113.937 50.6001 110.507C50.7857 104.388 54.869 98.3623 62.8499 93.8196Z" fill="#0B0B0B"></path><path d="M92.4536 144.901C81.5958 144.901 70.8309 142.491 62.5715 137.763C54.6834 133.22 50.229 127.194 50.0434 120.704C49.9506 117.274 49.9506 113.751 50.0434 110.321C50.229 103.832 54.6834 97.8058 62.5715 93.2632C79.0902 83.7144 105.91 83.7144 122.336 93.2632C130.224 97.8058 134.678 103.832 134.864 110.321C134.957 113.751 134.957 117.274 134.864 120.704C134.678 127.194 130.224 133.22 122.336 137.763C114.169 142.583 103.311 144.901 92.4536 144.901ZM92.4536 87.1445C81.7814 87.1445 71.1093 89.4622 63.0356 94.1903C55.4258 98.5475 51.157 104.295 50.9714 110.414C50.8786 113.844 50.8786 117.274 50.9714 120.704C51.157 126.823 55.4258 132.571 63.0356 136.928C79.2758 146.292 105.631 146.292 121.872 136.928C129.481 132.571 133.75 126.823 133.936 120.704C134.029 117.274 134.029 113.844 133.936 110.414C133.75 104.295 129.481 98.5475 121.872 94.1903C113.798 89.4622 103.126 87.1445 92.4536 87.1445Z" fill="#0B0B0B"></path><path d="M92.4535 135.074C115.62 135.074 134.4 124.241 134.4 110.877C134.4 97.5138 115.62 86.6807 92.4535 86.6807C69.2873 86.6807 50.5073 97.5138 50.5073 110.877C50.5073 124.241 69.2873 135.074 92.4535 135.074Z" fill="white"></path><path d="M92.4536 135.538C81.5958 135.538 70.8308 133.127 62.5715 128.399C54.4978 123.764 50.0433 117.552 50.0433 110.878C50.0433 104.203 54.4978 97.9913 62.5715 93.356C79.0902 83.8071 105.91 83.8071 122.336 93.356C130.409 97.9913 134.864 104.203 134.864 110.878C134.864 117.552 130.409 123.764 122.336 128.399C114.169 133.127 103.311 135.538 92.4536 135.538ZM92.4536 87.1446C81.7814 87.1446 71.1092 89.4623 63.0355 94.1903C55.2402 98.6403 50.9713 104.574 50.9713 110.878C50.9713 117.182 55.2402 123.115 63.0355 127.565C79.2758 136.928 105.631 136.928 121.872 127.565C129.667 123.115 133.936 117.182 133.936 110.878C133.936 104.574 129.667 98.6403 121.872 94.1903C113.798 89.4623 103.126 87.1446 92.4536 87.1446Z" fill="#0B0B0B"></path><path d="M126.512 103.925C124.749 101.051 121.964 98.4549 118.067 96.1372C103.961 87.979 81.039 87.979 66.9332 96.1372C63.0356 98.3622 60.2515 101.051 58.4883 103.925H56.3539V111.341C56.5395 116.533 60.0659 121.724 66.9332 125.618C81.039 133.776 103.961 133.776 118.067 125.618C124.934 121.632 128.461 116.533 128.646 111.341V103.925H126.512Z" fill="#F2E3F1"></path><path d="M92.4536 132.2C83.0807 132.2 73.8006 130.161 66.6549 126.082C60.066 122.281 56.2611 117.274 55.8899 111.805V111.341V103.461H58.2099C60.066 100.494 62.9428 97.8986 66.7477 95.7663C80.9463 87.5154 104.147 87.5154 118.345 95.7663C122.15 97.8986 124.934 100.494 126.883 103.461H129.203V111.805H129.11C128.739 117.182 124.934 122.281 118.345 126.082C111.2 130.161 101.827 132.2 92.4536 132.2ZM56.7251 110.97V111.248C56.9107 116.533 60.6228 121.446 67.0261 125.154C81.0391 133.22 103.775 133.22 117.696 125.154C124.192 121.446 127.811 116.533 127.997 111.248V110.785V104.295H126.233L126.141 104.11C124.377 101.236 121.593 98.6402 117.881 96.508C103.868 88.4425 81.1319 88.4425 67.2117 96.508C63.4996 98.6402 60.7156 101.236 58.9523 104.11L58.8595 104.295H56.9107V110.97H56.7251Z" fill="#0B0B0B"></path><path d="M66.9331 89.0911C52.8273 97.2493 52.8273 110.414 66.9331 118.572C81.0389 126.73 103.961 126.73 118.067 118.572C132.172 110.414 132.172 97.2493 118.067 89.0911C103.961 81.0256 81.0389 81.0256 66.9331 89.0911Z" fill="white"></path><path d="M92.4535 125.247C83.0806 125.247 73.8005 123.207 66.6548 119.128C59.6947 115.142 55.797 109.672 55.797 103.924C55.797 98.1765 59.6019 92.7995 66.6548 88.7204C80.8534 80.4695 104.054 80.4695 118.252 88.7204C125.212 92.7068 129.11 98.1765 129.11 103.924C129.11 109.672 125.305 115.049 118.252 119.128C111.199 123.115 101.826 125.247 92.4535 125.247ZM67.1188 89.5548C60.4371 93.4485 56.725 98.5474 56.725 103.924C56.725 109.301 60.4371 114.4 67.1188 118.294C81.1318 126.359 103.868 126.359 117.788 118.294C124.47 114.4 128.182 109.301 128.182 103.924C128.182 98.5474 124.47 93.4485 117.788 89.5548C103.868 81.4893 81.1318 81.4893 67.1188 89.5548Z" fill="#0B0B0B"></path><path d="M71.0165 90.5749C59.1379 97.4353 59.1379 108.467 71.0165 115.328C82.8951 122.188 102.105 122.188 113.891 115.328C125.769 108.467 125.769 97.4353 113.891 90.5749C102.105 83.7146 82.8951 83.7146 71.0165 90.5749Z" fill="#0B0B0B"></path><path d="M92.4536 120.89C84.5655 120.89 76.7702 119.128 70.7381 115.698C64.8916 112.268 61.6436 107.725 61.6436 102.905C61.6436 98.0839 64.8916 93.5412 70.7381 90.1111C82.7095 83.2507 102.198 83.2507 114.076 90.1111C119.923 93.5412 123.171 98.0839 123.171 102.905C123.171 107.725 119.923 112.268 114.076 115.698C108.23 119.221 100.342 120.89 92.4536 120.89ZM92.4536 85.9392C84.7511 85.9392 77.0486 87.608 71.2021 91.0381C65.634 94.2829 62.5716 98.5474 62.5716 102.997C62.5716 107.447 65.634 111.712 71.2021 114.957C82.8951 121.724 101.919 121.724 113.612 114.957C119.18 111.712 122.243 107.447 122.243 102.997C122.243 98.5474 119.18 94.2829 113.612 91.0381C107.859 87.608 100.156 85.9392 92.4536 85.9392Z" fill="#0B0B0B"></path><path d="M71.202 89.4623C71.2948 90.2967 72.13 94.7466 73.9861 97.2497C77.0485 101.422 81.7814 103.646 86.4215 104.666C96.0728 106.799 112.87 103.183 113.241 88.6279C103.033 97.8059 79.8326 96.9716 71.202 89.4623Z" fill="#0B0B0B"></path><path d="M106.374 76.2976C102.476 74.4434 87.8135 71.3841 77.791 76.5757C74.6357 78.2444 69.5316 81.4892 71.3877 90.3891C72.2229 94.6536 76.9558 98.8254 81.8742 101.328C86.5143 103.646 93.8456 103.275 96.7224 102.812C99.7849 102.348 102.569 101.514 104.889 100.216C107.766 98.64 110.643 96.6931 112.22 93.3557C115.097 87.3297 111.663 78.8934 106.374 76.2976Z" fill="#0B0B0B"></path><path d="M68.6964 85.0131C68.7892 85.8474 69.7172 90.2974 71.8517 92.8005C75.2853 96.9723 80.6678 99.1972 85.7719 100.217C96.5368 102.349 115.468 98.7337 115.84 84.1787C104.332 93.3567 78.3478 92.5223 68.6964 85.0131Z" fill="#95999F"></path><path d="M68.6964 84.2709C68.7892 85.1053 69.7172 89.5552 71.8517 92.0583C75.2853 96.2301 80.6678 98.4551 85.7719 99.4748C96.5368 101.607 115.468 97.9915 115.84 83.4365C104.332 92.5218 78.3478 91.7802 68.6964 84.2709Z" fill="#0B0B0B"></path><path d="M108.137 71.1067C103.683 69.1599 87.2567 66.1932 76.1206 71.3848C72.5941 73.0536 66.8404 76.2983 68.8821 85.1982C69.8101 89.4627 75.1926 93.6345 80.6678 96.1376C85.8647 98.4553 94.124 98.0845 97.2793 97.6209C100.713 97.1574 103.868 96.323 106.467 95.0251C109.715 93.4491 112.963 91.5023 114.726 88.1648C117.881 82.0461 114.076 73.6098 108.137 71.1067Z" fill="#0B0B0B"></path><path d="M67.4901 79.3568C67.5829 80.1912 68.6037 84.6411 70.831 87.1442C74.4502 91.316 80.1111 93.541 85.4936 94.5608C96.8153 96.693 116.675 93.0775 117.139 78.5225C104.982 87.6078 77.6983 86.8661 67.4901 79.3568Z" fill="#95999F"></path><path d="M67.4901 78.6156C67.5829 79.45 68.6037 83.8999 70.831 86.403C74.4502 90.5748 80.1111 92.7998 85.4936 93.8196C96.8153 95.9518 116.675 92.3363 117.139 77.7812C104.982 86.9592 77.6983 86.1249 67.4901 78.6156Z" fill="#0B0B0B"></path><path d="M108.972 65.4509C104.332 63.5968 87.0712 60.5374 75.2854 65.729C71.5734 67.3978 65.5413 70.6425 67.6757 79.5424C68.6965 83.8069 74.2646 87.9787 80.1111 90.4818C85.4936 92.7995 94.3097 92.4286 97.5578 91.9651C101.177 91.5016 104.425 90.6672 107.209 89.3693C110.55 87.7933 113.984 85.8465 115.84 82.509C119.273 76.483 115.19 68.0467 108.972 65.4509Z" fill="#0B0B0B"></path><path d="M114.355 69.6233C110.364 64.988 101.919 61.8359 92.1752 61.8359C82.6166 61.8359 74.3573 64.8953 70.1813 69.3452C69.2532 70.365 68.5108 71.4775 68.0468 72.59C67.5828 73.6097 67.3972 74.6295 67.3972 75.742C67.3972 76.1128 67.3972 76.4837 67.49 76.8545C67.6756 77.967 68.0468 79.0795 68.6036 80.0992C71.8517 85.6617 81.1318 89.6481 92.0824 89.6481C102.755 89.6481 111.942 85.8471 115.376 80.4701C116.025 79.4503 116.396 78.4305 116.675 77.4107C116.768 76.8545 116.86 76.2982 116.86 75.742C116.86 74.7222 116.675 73.7951 116.304 72.8681C115.932 71.7556 115.283 70.6431 114.355 69.6233Z" fill="#95999F"></path><path d="M114.355 68.51C110.364 63.8747 101.919 60.7227 92.1752 60.7227C82.6166 60.7227 74.3573 63.782 70.1813 68.2319C69.2532 69.2517 68.5108 70.3642 68.0468 71.4767C67.5828 72.4964 67.3972 73.5162 67.3972 74.6287C67.3972 74.9995 67.3972 75.3704 67.49 75.7412C67.6756 76.8537 68.0468 77.9662 68.6036 78.9859C71.8517 84.5484 81.1318 88.5348 92.0824 88.5348C102.755 88.5348 111.942 84.7338 115.376 79.3568C116.025 78.337 116.396 77.3172 116.675 76.2974C116.768 75.7412 116.86 75.185 116.86 74.6287C116.86 73.6089 116.675 72.6819 116.304 71.7548C115.932 70.6423 115.283 69.5298 114.355 68.51Z" fill="#0B0B0B"></path><path d="M92.1752 62.5771C78.5334 62.5771 68.9749 68.9739 68.9749 74.7218C68.9749 80.4696 78.5334 86.8664 92.1752 86.8664C105.817 86.8664 115.376 80.4696 115.376 74.7218C115.376 68.9739 105.817 62.5771 92.1752 62.5771Z" fill="#5851D4"></path><path d="M93.8456 0.463867C93.2888 0.463867 92.732 0.463867 92.1752 0.463867C73.3365 0.463867 58.0243 15.7605 58.0243 34.5801C58.0243 41.1623 59.8803 47.3736 63.1284 52.5652C67.026 58.8693 68.7893 66.1932 68.8821 73.517C68.9749 76.8545 71.2021 80.1919 75.6566 82.7877C84.6583 88.072 99.6921 88.072 108.787 82.7877C113.241 80.1919 115.19 77.6888 115.376 73.4243C115.654 65.915 117.51 58.4985 121.408 52.1017C124.841 46.4466 126.605 39.7717 126.233 32.6332C125.398 15.3897 110.735 0.463867 93.8456 0.463867Z" fill="#D7FF65"></path><path d="M92.3608 87.2373C86.2359 87.2373 80.2038 85.8467 75.5638 83.1582C71.1093 80.5624 68.6965 77.1323 68.6037 73.5167C68.4181 65.5439 66.4692 58.5909 62.85 52.7503C59.4163 47.3733 57.5603 41.0692 57.5603 34.5797C57.5603 15.4821 73.1509 0 92.1752 0C92.4536 0 92.732 0 93.0104 0C93.2888 0 93.5672 0 93.8456 0C110.735 0 125.862 14.9258 126.79 32.6329C127.161 39.5859 125.491 46.4462 121.872 52.3795C118.252 58.4054 116.211 65.4512 115.932 73.5167C115.747 77.7812 113.891 80.4697 109.158 83.2509C104.425 85.9394 98.3929 87.2373 92.3608 87.2373ZM92.1752 0.92707C73.6149 0.92707 58.4883 16.0383 58.4883 34.5797C58.4883 40.8838 60.2515 47.0025 63.5924 52.2868C67.3044 58.22 69.2533 65.3585 69.4389 73.5167C69.5317 76.8541 71.8517 80.0062 75.935 82.4166C84.7511 87.5154 99.6921 87.6082 108.508 82.4166C112.963 79.8208 114.726 77.4104 114.819 73.424C115.19 65.2658 117.232 58.0346 120.944 51.8232C124.47 46.0754 126.048 39.4005 125.769 32.6329C124.841 15.3894 110.179 0.834363 93.7528 0.834363C93.4744 0.834363 93.196 0.834363 92.9176 0.834363C92.732 0.92707 92.4536 0.92707 92.1752 0.92707Z" fill="#0B0B0B"></path><path d="M92.8248 27.998C84.5655 27.998 77.791 34.7657 77.791 43.0166V72.8683C77.791 75.3713 79.8326 77.4109 82.3383 77.4109C84.8439 77.4109 86.8856 75.3713 86.8856 72.8683V43.0166C86.8856 39.6791 89.5768 36.9906 92.9176 36.9906C96.2585 36.9906 98.9497 39.6791 98.9497 43.0166V72.8683C98.9497 75.3713 100.991 77.4109 103.497 77.4109C106.003 77.4109 108.044 75.3713 108.044 72.8683V43.0166C107.859 34.7657 101.084 27.998 92.8248 27.998Z" fill="#8B75F3"></path><path d="M103.311 77.8741C100.527 77.8741 98.3001 75.6491 98.3001 72.8679V43.0163C98.3001 39.9569 95.7944 37.4538 92.732 37.4538C89.6695 37.4538 87.1639 39.9569 87.1639 43.0163V72.8679C87.1639 75.6491 84.9367 77.8741 82.1526 77.8741C79.3686 77.8741 77.1414 75.6491 77.1414 72.8679V43.0163C77.1414 34.4872 84.1015 27.5342 92.6392 27.5342C101.177 27.5342 108.137 34.4872 108.137 43.0163V72.8679C108.323 75.6491 106.095 77.8741 103.311 77.8741ZM92.8248 36.5268C96.444 36.5268 99.3209 39.4007 99.3209 43.0163V72.8679C99.3209 75.0929 101.177 76.947 103.404 76.947C105.631 76.947 107.487 75.0929 107.487 72.8679V43.0163C107.487 34.9507 100.899 28.4613 92.9176 28.4613C84.8439 28.4613 78.3478 35.0435 78.3478 43.0163V72.8679C78.3478 75.0929 80.2038 76.947 82.431 76.947C84.6583 76.947 86.5143 75.0929 86.5143 72.8679V43.0163C86.3287 39.4007 89.2055 36.5268 92.8248 36.5268Z" fill="#0B0B0B"></path><path d="M79.8265 153.025C79.8265 165.253 88.0325 177.48 103.761 186.311C135.901 204.653 187.872 204.653 220.012 186.311C236.424 176.801 243.946 165.253 243.946 153.025V138.76H79.8265V153.025Z" fill="#0B0B0B"></path><path d="M220.214 168.452L220.207 168.456L220.2 168.46C204.317 177.524 183.47 182.084 162.57 182.084C141.67 182.084 120.823 177.524 104.94 168.46C89.0514 159.392 81.3394 147.612 81.3394 136.042C81.3394 124.472 89.0514 112.692 104.94 103.625C120.823 94.5603 141.67 90 162.57 90C183.467 90 204.311 94.559 220.193 103.621C236.085 113.027 243.801 124.978 243.801 136.552C243.801 148.116 236.095 159.725 220.214 168.452Z" fill="#8B75F3" stroke="#0B0B0B" stroke-width="2"></path><path d="M178.298 110.229C176.247 106.153 167.357 104.794 162.57 108.191L118.121 134.004C112.65 136.722 114.702 141.477 121.54 142.835L185.136 153.704C192.659 155.063 198.813 150.987 196.762 146.911L178.298 110.229Z" fill="#DACDF5"></path><path d="M178.298 110.229C176.247 106.153 167.357 104.794 162.57 108.191L118.121 134.004C114.018 136.042 114.018 138.76 116.753 140.797L117.437 140.118L162.57 114.304C167.357 111.587 176.247 112.946 178.298 116.342L196.078 150.987C197.445 149.628 198.129 148.27 197.445 146.911L178.298 110.229Z" fill="#0B0B0B"></path><path d="M149.693 103.997C132.082 94.7405 103.569 94.7405 86.3776 103.997C75.8949 109.467 72.1211 117.041 73.7984 124.194C75.0563 119.145 79.2494 114.516 86.3776 110.729C103.989 101.473 132.082 101.473 149.693 110.729C156.822 114.516 161.015 121.248 162.273 126.297C163.95 119.145 160.176 109.467 149.693 103.997Z" fill="#0B0B0B"></path><path d="M161.853 127.98L161.434 125.877C160.176 121.248 156.402 114.516 149.274 110.729C132.082 101.473 103.569 101.473 86.3777 110.729C79.6687 114.937 75.4756 119.144 74.2177 124.194L73.7984 125.877L73.3791 124.194C71.2826 116.62 75.895 109.046 85.9584 103.576C103.569 94.3196 132.082 94.3196 149.693 103.576C161.015 109.467 164.369 119.565 162.273 126.297L161.853 127.98ZM117.826 103.156C129.566 103.156 140.888 105.68 149.693 110.308C155.983 113.675 160.176 119.144 161.853 124.194C162.692 117.882 158.918 109.888 149.274 104.839C132.082 95.5819 103.569 95.5819 86.3777 104.839C77.5722 109.467 72.9598 115.778 73.7984 122.511C75.4756 117.882 79.6687 114.095 85.9584 110.729C94.7639 105.68 106.505 103.156 117.826 103.156Z" fill="#0B0B0B"></path><path d="M141.307 104.839C120.761 98.1068 93.5059 101.894 80.5073 113.254C67.5087 124.615 74.2177 139.341 94.7638 146.073C115.31 152.806 142.565 149.019 155.564 137.658C168.143 126.719 161.853 111.992 141.307 104.839Z" fill="white" fill-opacity="0.52"></path><path d="M116.987 149.86C109.44 149.86 101.473 148.598 94.3445 146.494C82.6038 142.707 75.0563 135.975 73.379 128.401C72.1211 122.931 74.637 117.462 80.088 112.412C93.0865 101.052 120.342 97.265 141.307 103.997C153.048 107.784 160.595 114.516 162.273 122.09C163.53 127.56 161.015 133.03 155.564 138.079C147.177 145.652 132.082 149.86 116.987 149.86ZM118.664 102.314C103.989 102.314 89.3128 106.522 80.9266 113.675C75.8949 118.303 73.7983 123.352 74.6369 128.401C76.3142 135.554 83.4424 141.866 94.7638 145.652C115.31 152.385 142.146 148.598 155.144 137.658C160.176 133.03 162.273 127.981 161.434 122.931C160.176 115.778 152.628 109.467 141.307 105.68C134.179 103.156 126.631 102.314 118.664 102.314Z" fill="#0B0B0B"></path><path d="M69.186 130.504C69.186 134.291 70.444 138.92 71.7019 141.023C73.3791 143.548 75.0564 145.652 79.6688 149.018L80.5074 141.444C80.5074 141.444 70.0247 129.242 68.7667 123.352L69.186 130.504Z" fill="#0B0B0B"></path><path d="M80.0882 150.28L79.2496 149.86C74.6372 146.073 72.5406 143.969 71.2827 141.865C70.0248 139.761 68.7668 135.133 68.7668 130.925V123.772H69.6055C70.8634 129.663 80.9268 141.865 80.9268 141.865L80.0882 150.28ZM69.6055 130.505C69.6055 134.291 70.8634 138.92 72.1213 141.024C73.3792 143.127 75.0565 145.231 79.2496 148.177L80.0882 141.865C78.8303 140.603 72.1213 132.608 69.6055 126.718V130.505Z" fill="#0B0B0B"></path><path d="M153.048 141.024C146.758 144.811 139.21 147.335 132.082 148.597C124.535 149.86 116.987 149.86 109.44 149.439C105.246 149.018 101.053 148.177 96.8603 146.914C94.7637 146.494 92.6672 145.652 86.7969 143.128V152.805C96.8603 157.854 111.117 159.116 119.084 159.116C122.857 159.116 126.631 158.696 130.405 158.275C134.179 157.854 137.953 157.013 141.307 155.75C145.081 154.488 149.274 152.805 152.628 150.701C162.272 144.811 166.885 137.237 166.885 129.663V124.193C167.304 124.193 162.272 135.133 153.048 141.024Z" fill="#0B0B0B"></path><path d="M119.084 159.537C112.794 159.537 97.2796 159.117 86.3776 153.226H85.9583V142.286L86.7969 142.707C92.6672 145.231 94.7637 145.652 96.8603 146.494C101.053 147.756 105.246 148.598 109.44 149.018C117.406 149.86 124.954 149.439 131.663 148.177C139.63 146.915 146.758 144.39 152.209 140.603C161.434 135.133 166.046 124.194 166.466 124.194L167.724 121.669V129.663C167.724 137.658 162.692 145.231 153.048 151.122C149.693 153.226 145.919 154.909 141.307 156.171C137.953 157.434 134.179 158.275 130.405 158.696C126.631 159.117 122.857 159.537 119.084 159.537ZM87.2162 152.384C97.6989 157.854 112.794 158.275 119.084 158.275C122.857 158.275 126.631 157.854 130.405 157.434C134.179 157.013 137.953 156.171 141.307 154.909C145.5 153.647 149.274 151.964 152.628 149.86C161.434 144.39 166.466 137.237 166.466 129.243V126.297C164.369 129.663 160.176 136.816 153.048 141.024C147.177 144.39 140.049 147.335 132.082 148.598C124.954 149.86 117.406 150.281 109.44 149.439C105.246 149.018 101.053 148.177 96.8603 146.915C94.7637 146.494 93.0865 145.652 87.6355 143.548V152.384H87.2162Z" fill="#0B0B0B"></path><path d="M48.2206 175.526L86.797 152.805V146.073L48.2206 168.794V175.526Z" fill="#0B0B0B"></path><path d="M47.8013 176.368V168.373L87.2163 145.231V153.226L47.8013 176.368ZM49.0592 168.794V174.264L86.3777 152.384V146.914L49.0592 168.794Z" fill="#0B0B0B"></path><path d="M162.273 111.571C161.853 111.15 161.434 110.729 161.015 110.308C160.595 109.888 160.176 109.467 159.757 109.046C158.918 108.205 158.079 107.363 157.241 106.522C156.402 106.101 155.983 105.68 155.564 105.259L155.144 104.838C154.725 104.418 153.886 103.997 153.467 103.576L152.628 103.155C143.404 97.6856 130.824 94.7402 117.826 94.7402C104.827 94.7402 92.248 97.6856 83.0232 103.155L82.1846 103.576C81.7653 103.997 81.3459 104.418 80.5073 104.418C79.2494 105.259 77.9915 106.101 76.7335 107.363C76.3142 107.784 75.8949 108.205 75.4756 108.625C75.0563 109.046 74.637 109.467 74.2177 109.888L72.1211 112.412C72.1211 112.833 71.7018 112.833 71.7018 113.254C71.7018 113.254 70.8632 114.516 70.8632 114.937L70.4439 115.778L70.0246 116.199L69.6053 117.041V117.461C69.6053 117.882 69.186 118.724 69.186 118.724C69.186 119.144 69.186 119.565 68.7667 119.986C68.7667 120.407 68.7667 120.407 68.7667 120.827C68.7667 121.248 68.7667 122.09 68.7667 122.51V122.931C68.7667 130.926 72.5405 137.237 79.6687 141.445L39.415 165.849L46.124 169.635L86.3777 146.073C97.2797 150.281 107.762 152.384 118.245 152.384C130.824 152.384 142.565 149.439 152.628 143.548C161.434 138.499 166.466 131.346 166.885 124.193C166.885 120.827 166.046 117.461 163.95 114.095C163.53 113.254 163.111 112.412 162.273 111.571ZM150.532 139.341C142.146 144.39 130.405 146.914 118.245 146.914C109.859 146.914 101.053 145.231 92.248 142.286C88.0549 140.603 81.3459 136.395 80.5073 135.554C75.8949 131.767 73.7984 127.56 73.7984 123.352V122.931C73.7984 122.51 73.7984 122.09 73.7984 121.669V121.248C73.7984 120.827 73.7984 120.407 73.7984 120.407C73.7984 120.407 74.2177 119.565 74.2177 119.144L74.637 117.882L75.0563 117.041C75.0563 116.62 75.4756 115.778 75.8949 115.778L76.3142 115.357C76.3142 115.357 77.9915 113.254 78.4108 112.833L79.2494 111.991C79.2494 111.571 79.6687 111.571 80.088 111.15C80.9266 110.308 82.1846 109.467 83.4425 108.625C83.8618 108.205 84.2811 108.205 84.7004 107.784L85.539 107.363C93.9252 102.314 105.666 99.7894 117.826 99.7894C129.986 99.7894 141.726 102.735 150.113 107.363L150.951 107.784C151.371 108.205 152.209 108.625 152.628 108.625L153.467 109.046C153.886 109.467 154.306 109.888 154.725 109.888C155.564 110.729 156.402 111.15 156.822 111.991C157.241 112.412 157.66 112.833 157.66 112.833C158.079 113.254 158.079 113.674 158.499 114.095C158.918 114.937 159.337 115.357 159.757 116.199C161.434 118.724 161.853 121.248 161.853 123.773C162.273 129.663 158.079 135.133 150.532 139.341Z" fill="white"></path><path d="M46.5434 170.056L38.5765 165.849L39.4152 165.428L78.8302 142.286C72.1213 138.078 68.7668 131.767 68.3475 123.773V123.352C68.3475 122.51 68.3475 122.089 68.3475 121.248C68.3475 120.827 68.3475 120.827 68.3475 120.406C68.3475 119.986 68.3475 119.565 68.7668 119.144C68.7668 119.144 69.1861 117.882 69.1861 117.461L70.444 115.357L70.8633 114.516C70.8633 114.095 71.702 113.254 71.702 112.833C71.702 112.412 72.1213 112.412 72.1213 111.991L74.2178 109.467C74.6371 109.046 75.0564 108.625 75.4757 108.204C75.895 107.784 76.3143 107.363 76.7337 106.942C77.9916 105.68 79.2495 104.838 80.5074 103.997C80.9268 103.576 81.3461 103.155 82.1847 103.155L83.0233 102.735C92.2481 97.2647 104.827 94.3193 117.826 94.3193C130.825 94.3193 143.404 97.2647 152.629 102.735L153.467 103.155C153.887 103.576 154.306 103.997 155.144 103.997L155.983 104.838C156.402 105.259 156.822 105.259 157.241 105.68L157.66 106.101C158.499 106.942 159.757 107.784 160.595 108.625C161.015 109.046 161.434 109.467 161.853 109.887C162.273 110.308 162.692 110.729 163.111 111.15C163.95 111.991 164.369 112.833 164.789 113.674C166.885 117.04 167.724 120.406 167.724 123.773C167.304 131.346 162.273 138.499 153.467 143.548C143.404 149.439 131.663 152.384 119.084 152.384C108.601 152.384 98.1184 150.28 87.2164 146.073L46.5434 170.056ZM40.6731 165.849L46.5434 169.215L86.7971 145.652H87.2164C97.6991 149.86 108.601 151.963 119.084 151.963C131.663 151.963 143.404 149.018 153.048 143.127C161.853 138.078 166.885 131.346 166.885 124.193C166.885 120.827 166.046 117.461 164.369 114.516C163.95 113.674 163.111 112.833 162.692 111.991C161.853 111.15 161.434 111.15 161.015 110.729C160.595 110.308 160.176 109.887 159.757 109.467C158.918 108.625 158.08 107.784 157.241 106.942H156.822C156.402 106.521 155.983 106.101 155.564 106.101L154.725 105.259C154.306 104.838 153.887 104.838 153.467 104.418L152.629 103.997C143.404 98.5269 131.244 95.5816 118.245 95.5816C105.247 95.5816 93.0867 98.5269 83.8619 103.997L83.0233 104.418C82.604 104.838 82.1847 104.838 81.7654 105.259C80.5074 106.101 79.2495 106.942 77.9916 108.204C77.5723 108.625 77.153 109.046 76.7337 109.467C76.3143 109.887 75.895 110.308 75.4757 110.729L73.3792 113.254C73.3792 113.674 72.9599 113.674 72.9599 114.095C72.9599 114.095 72.1213 115.357 72.1213 115.778L71.2826 116.62L70.8633 117.882C70.8633 118.303 70.444 119.144 70.444 119.144C70.444 119.565 70.444 119.986 70.0247 120.406C70.0247 120.827 70.0247 120.827 70.0247 121.248C70.0247 121.669 70.0247 122.51 70.0247 122.931V123.352C70.0247 131.346 73.7985 137.658 80.5074 141.444L81.3461 141.865L40.6731 165.849ZM118.245 147.756C109.859 147.756 101.054 146.073 92.2481 143.127C88.055 141.444 80.9268 136.816 80.0881 136.395C75.4757 132.608 72.9599 127.98 72.9599 123.773V122.931C72.9599 122.51 72.9599 122.089 72.9599 121.669V121.248C72.9599 120.827 72.9599 120.406 73.3792 120.406C73.3792 120.406 73.7985 119.565 73.7985 119.144L74.2178 117.882C74.2178 117.461 74.6371 117.04 74.6371 117.04C74.6371 116.62 75.4757 115.778 75.4757 115.778L75.895 115.357C75.895 115.357 77.5723 113.254 77.9916 112.833L78.8302 111.991C79.2495 111.57 79.2495 111.15 79.6688 110.729C80.9267 109.887 81.7654 109.046 83.0233 108.204C83.4426 107.784 83.8619 107.784 84.2812 107.363L85.5391 106.942C93.9253 101.893 105.666 99.3685 118.245 99.3685C130.825 99.3685 142.146 102.314 150.951 106.942L151.79 107.363C152.209 107.784 153.048 108.204 153.467 108.625L154.306 109.046C154.725 109.467 155.144 109.887 155.564 109.887C156.402 110.308 157.241 111.15 158.08 111.991C158.499 112.412 158.918 112.833 158.918 113.254C159.338 113.674 159.757 114.095 159.757 114.516C160.176 115.357 160.595 115.778 161.015 116.62C162.692 119.144 163.111 121.669 163.111 124.193C163.111 130.084 158.499 135.975 150.951 140.182C142.146 144.811 130.825 147.756 118.245 147.756ZM75.4757 118.303L75.0564 119.565C75.0564 119.986 74.6371 120.406 74.6371 120.406C74.6371 120.827 74.6371 120.827 74.6371 121.248V121.669C74.6371 122.089 74.6371 122.51 74.6371 122.931V123.352C74.6371 127.559 77.153 131.767 81.3461 135.133C82.1847 135.975 88.8936 140.182 93.0867 141.865C101.892 144.811 110.278 146.494 118.665 146.494C130.825 146.494 142.146 143.969 150.532 138.92C158.08 134.712 161.853 129.242 162.273 123.773C162.273 121.248 161.853 119.144 160.176 116.62C159.338 115.778 158.918 115.357 158.499 114.516C158.08 114.095 158.08 113.674 157.66 113.674C157.241 113.254 156.822 112.833 156.822 112.833C155.983 111.991 155.144 111.15 154.306 110.729C153.887 110.308 153.467 109.887 153.048 109.887L152.209 109.467C151.79 109.046 151.371 108.625 150.532 108.625L149.693 108.204C141.307 103.155 129.567 100.631 117.407 100.631C105.247 100.631 93.9253 103.155 85.5391 108.204L84.7005 108.625C84.2812 109.046 83.8619 109.046 83.4426 109.467C82.1847 110.308 81.3461 111.15 80.0881 111.991C79.6688 112.412 79.2495 112.412 79.2495 112.833L78.4109 113.674C77.9916 114.095 76.3144 116.199 76.3144 116.199L75.895 116.62C75.895 116.62 75.4757 117.461 75.0564 117.882C75.4757 117.882 75.4757 118.303 75.4757 118.303Z" fill="#0B0B0B"></path><path d="M158.918 114.095C158.499 113.674 158.499 113.253 158.079 112.832C157.66 112.412 157.241 111.991 157.241 111.991C156.402 111.149 155.564 110.729 154.725 109.887C154.306 109.466 153.886 109.046 153.467 109.046C153.467 109.046 153.048 108.625 152.628 108.625C152.209 108.204 151.79 107.783 150.951 107.783C150.532 107.783 150.532 107.363 150.113 107.363C141.307 102.313 129.986 99.7889 117.826 99.7889C105.666 99.7889 93.9252 102.313 85.539 107.363L85.1197 107.783C85.1197 107.783 84.7004 107.783 84.7004 108.204C84.2811 108.625 83.8618 108.625 83.4424 109.046C82.1845 109.887 80.9266 110.729 80.088 111.57C79.6687 111.991 79.2494 111.991 78.83 112.412C78.4107 112.832 78.4107 112.832 77.9914 113.253C77.5721 113.674 77.1528 114.516 76.3142 115.357C76.3142 115.357 76.3142 115.778 75.8949 115.778C75.8949 115.778 75.4756 116.619 75.0563 117.04C75.0563 117.04 75.0563 117.461 74.637 117.461C74.637 117.461 74.637 117.461 74.637 117.882C74.637 117.882 74.637 117.882 74.637 118.302V118.723V119.144C74.637 119.144 74.637 119.144 74.637 119.565C74.637 119.985 74.2177 120.406 74.2177 120.827C74.2177 121.248 74.2177 121.668 74.2177 121.668C74.2177 121.668 74.2177 121.668 74.2177 122.089C74.2177 122.51 74.2177 122.931 74.2177 123.351V123.772C74.2177 127.98 76.7335 132.187 80.9266 135.974C81.7652 136.816 88.4742 141.444 92.6672 142.706C101.473 145.652 110.278 147.335 118.664 147.335C130.824 147.335 142.565 144.389 150.951 139.761C158.499 135.554 162.692 129.663 163.111 124.193C163.111 121.668 162.273 119.144 161.015 116.619C160.176 115.778 159.337 114.936 158.918 114.095ZM150.532 139.34C142.146 144.389 130.405 146.914 118.245 146.914C109.02 146.914 100.215 145.231 92.2479 142.286C88.0548 140.603 81.3459 136.395 80.5073 135.554C76.3142 131.767 73.7983 127.559 73.7983 123.351V122.931C73.7983 122.51 73.7983 122.089 73.7983 121.668C73.7983 121.668 73.7983 121.668 73.7983 121.248V120.827C73.7983 120.406 73.7983 119.985 73.7983 119.985C73.7983 119.985 74.2177 119.144 74.2177 118.723V118.302C74.2177 117.882 74.2176 117.882 74.637 117.461C74.637 117.461 74.637 117.04 75.0563 117.04C75.0563 117.04 75.0563 116.619 75.4756 116.619C75.4756 116.199 75.8949 115.778 76.3142 115.357C76.3142 115.357 76.3142 114.936 76.7335 114.936C77.1528 114.516 78.4107 112.832 78.4107 112.412C78.83 111.991 78.83 111.991 79.2494 111.57C79.6687 111.991 79.6687 111.57 80.088 111.149C80.9266 110.308 82.1845 109.466 83.4424 108.625C83.8618 108.204 84.2811 108.204 84.7004 107.783L85.1197 107.363L85.539 106.942C93.9252 101.893 105.247 99.3682 117.826 99.3682C129.986 99.3682 141.726 102.313 150.113 106.942C150.532 106.942 150.532 107.363 150.951 107.363C151.371 107.783 151.79 108.204 152.628 108.204L153.467 108.625C153.886 109.046 154.306 109.466 154.725 109.466C155.564 110.308 156.402 110.729 156.822 111.57C157.241 111.991 157.66 112.412 157.66 112.412C158.079 112.832 158.079 113.253 158.499 113.674C158.918 114.516 159.337 114.936 159.757 115.778C161.434 118.302 161.853 120.827 161.853 123.351C162.273 129.663 158.079 135.133 150.532 139.34Z" fill="#0B0B0B"></path><path d="M118.245 147.755C109.859 147.755 101.054 146.072 92.2481 143.127C87.6357 141.444 80.9267 136.816 80.0881 135.974C75.4757 132.187 72.9598 127.559 72.9598 123.351V122.931C72.9598 122.51 72.9598 122.089 72.9598 121.668V121.248C72.9598 120.827 72.9598 120.406 72.9598 120.406C72.9598 120.406 73.3791 119.565 73.3791 119.144L74.2178 117.461C74.2178 117.461 74.2178 117.04 74.6371 117.04C75.0564 116.619 75.4757 115.778 75.4757 115.357C75.4757 115.357 75.4757 115.357 75.4757 114.936L75.895 114.095C76.3143 113.253 77.1529 112.412 77.5722 111.991C77.9915 111.57 77.9916 111.57 78.4109 111.149C78.8302 111.149 79.2495 111.149 79.6688 110.729C80.9267 109.887 81.7653 109.046 83.0233 108.204C83.4426 107.783 83.8619 107.783 84.2812 107.362L84.7005 106.942L85.1198 106.521C93.506 101.472 105.247 98.9473 117.826 98.9473C130.405 98.9473 141.727 101.893 150.532 106.942L151.371 107.362C151.79 107.783 152.209 108.204 153.048 108.204L153.886 108.625C154.306 109.046 154.725 109.466 155.144 109.466C155.983 110.308 156.822 110.729 157.66 111.57C158.08 111.991 158.499 112.412 158.499 112.832C158.918 113.253 159.337 113.674 159.337 114.095C159.757 114.936 160.176 115.357 160.595 116.198C162.273 118.723 163.111 121.248 162.692 124.193C162.692 130.083 158.08 135.974 150.532 140.602C142.146 145.231 130.824 147.755 118.245 147.755ZM117.826 100.21C105.666 100.21 94.3446 102.734 85.9584 107.783L85.5391 108.204C85.5391 108.204 85.1198 108.204 85.1198 108.625C84.7005 109.046 84.2812 109.046 83.8619 109.466C82.6039 110.308 81.7653 111.149 80.5074 111.991C80.0881 111.991 79.6688 112.412 79.6688 112.412C79.2495 112.832 79.2495 112.832 78.8302 113.253C78.4109 113.674 77.9915 114.515 77.1529 115.357L76.7336 115.778C76.7336 115.778 76.7336 116.198 76.3143 116.198C76.3143 116.198 75.895 117.04 75.4757 117.461C75.4757 117.461 75.4757 117.881 75.0564 117.881V119.564C75.0564 119.985 74.6371 120.406 74.6371 120.406C74.6371 120.827 74.6371 120.827 74.6371 121.248V121.668C74.6371 121.668 74.6371 121.668 74.6371 122.089C74.6371 122.51 74.6371 122.931 74.6371 123.351V123.772C74.6371 127.98 77.1529 131.767 81.346 135.553C82.1846 136.395 88.8936 140.602 93.0867 142.286C101.892 145.231 110.278 146.914 118.665 146.914C130.824 146.914 142.146 144.389 150.532 139.34C157.66 135.133 161.853 129.663 162.273 124.193C162.273 121.668 161.853 119.565 160.176 117.04C159.337 116.198 158.918 115.357 158.499 114.936C158.08 114.515 158.08 114.095 157.66 114.095C157.241 113.674 156.822 113.253 156.822 113.253C155.983 111.991 155.144 111.149 154.306 110.729C153.886 110.308 153.467 109.887 153.048 109.887C153.048 109.887 152.629 109.466 152.209 109.466C151.79 109.046 151.371 108.625 150.532 108.625C150.113 108.625 150.113 108.204 149.693 108.204C141.307 102.734 129.986 100.21 117.826 100.21Z" fill="#0B0B0B"></path><path d="M162.692 111.571C162.273 111.15 161.853 110.729 161.434 110.308C161.015 109.888 160.595 109.467 160.176 109.046C159.337 108.205 158.499 107.363 157.66 106.522C157.241 106.101 156.822 105.68 155.983 105.259C155.564 105.259 155.564 104.838 155.144 104.838C154.725 104.418 153.886 103.997 153.467 103.576C153.048 103.576 153.048 103.155 152.628 103.155C142.984 97.6856 130.405 94.7402 117.826 94.7402C105.247 94.7402 92.6673 97.6856 83.0232 103.155C82.6039 103.155 82.6039 103.576 82.1846 103.576C81.7652 103.997 81.3459 104.418 80.5073 104.418C79.2494 105.259 77.9915 106.522 76.7335 107.363C76.3142 107.784 75.8949 108.205 75.4756 108.625C75.0563 109.046 74.637 109.467 74.2177 109.888L72.1211 112.412C72.1211 112.833 71.7018 112.833 71.7018 113.254C71.7018 113.254 70.8632 114.516 70.8632 114.937C70.8632 115.357 70.4439 115.357 70.4439 115.778C70.4439 115.778 70.4439 116.199 70.0246 116.199C70.0246 116.62 69.6053 116.62 69.6053 117.041V117.461C69.6053 117.882 69.186 118.724 69.186 119.144C69.186 119.565 69.186 119.986 68.7667 120.407C68.7667 120.827 68.7667 120.827 68.7667 121.248C68.7667 122.09 68.7667 122.51 68.7667 122.931V123.352C68.7667 128.822 70.8632 136.816 79.6687 141.865L39.415 165.849L46.5433 170.056L86.797 146.494C97.699 150.701 108.601 152.805 118.664 152.805C131.663 152.805 143.404 149.439 153.048 143.969C162.273 138.499 166.885 131.346 167.304 124.193C167.304 120.827 166.466 117.461 164.369 114.095C163.95 113.254 163.111 112.412 162.692 111.571ZM152.628 143.548C142.984 149.439 130.824 152.384 118.664 152.384C108.182 152.384 97.699 150.281 86.797 146.073L46.5433 169.635L39.8343 165.849L79.6687 142.707C72.9598 138.92 69.186 132.188 68.7667 124.193V123.352C68.7667 122.51 68.7667 122.09 68.7667 121.669C68.7667 121.248 68.7667 121.248 68.7667 120.827C68.7667 120.407 68.7667 119.986 69.186 119.565L69.6053 118.303C69.6053 118.303 69.6053 118.303 69.6053 117.882C69.6053 117.882 69.6053 117.882 69.6053 117.461C69.6053 117.041 70.0246 117.041 70.0246 116.62C70.0246 116.62 70.0246 116.199 70.4439 116.199C70.8632 115.357 71.2825 115.357 71.2825 115.357C71.2825 114.937 72.1211 114.095 72.1211 113.674C72.1211 113.254 72.5404 113.254 72.5404 112.833L74.637 110.308C75.0563 109.888 75.4756 109.467 75.8949 109.046C76.3142 108.625 76.7335 108.205 77.1528 107.784C78.4108 106.942 79.6687 105.68 80.9266 104.838C81.3459 104.418 81.7652 104.418 82.6039 103.997L83.0232 103.576H83.4425C92.6673 98.1063 104.827 95.161 117.826 95.161C130.824 95.161 143.404 98.1063 152.628 103.576C153.048 103.576 153.048 103.997 153.467 103.997C153.886 104.418 154.725 104.838 155.144 105.259C155.564 105.259 155.564 105.68 155.983 105.68C156.402 106.101 156.822 106.522 157.241 106.522C158.079 107.363 158.918 108.205 159.757 109.046C160.176 109.467 160.595 109.888 161.015 110.308C161.434 110.729 161.853 111.15 162.273 111.571C163.111 112.412 163.53 113.254 163.95 114.095C166.046 117.461 166.885 120.827 166.885 123.773C166.885 131.346 161.853 138.078 152.628 143.548Z" fill="#0B0B0B"></path><path d="M46.5434 170.477L38.5765 165.849L78.8302 142.286C72.1213 138.078 68.7668 131.767 68.3475 123.773V123.352C68.3475 122.51 68.3475 122.089 68.3475 121.248C68.3475 120.827 68.3475 120.827 68.3475 120.406C68.3475 119.986 68.3475 119.565 68.7668 119.144C68.7668 119.144 69.1861 117.882 69.1861 117.461C69.1861 117.461 69.1861 117.461 69.1861 117.04C69.1861 116.62 69.6054 116.199 69.6054 116.199L70.444 115.357C70.444 115.357 70.444 114.937 70.8633 114.937C70.8633 114.516 71.702 113.674 71.702 113.254C71.702 112.833 72.1213 112.833 72.1213 112.412C72.5406 111.991 74.2178 109.887 74.2178 109.887C74.6371 109.467 75.0564 109.046 75.4757 108.625C75.895 108.204 76.3143 107.784 76.7337 107.363C77.9916 106.101 79.2495 105.259 80.5074 104.418C80.9268 103.997 81.3461 103.576 82.1847 103.576L82.604 103.155H83.0233C92.2481 97.2647 104.827 94.3193 117.826 94.3193C130.825 94.3193 143.404 97.2647 153.048 102.735L153.887 103.155C154.306 103.576 154.725 103.997 155.564 103.997L156.402 104.838C156.822 105.259 157.241 105.259 157.66 105.68L158.08 106.101C158.918 106.942 160.176 107.784 161.015 108.625C161.434 109.046 161.853 109.467 162.273 109.887C162.692 110.308 163.111 110.729 163.531 111.15C164.369 111.991 164.789 112.833 165.208 113.674C166.885 117.04 167.724 120.406 167.724 123.773C167.304 131.346 162.273 138.499 153.048 143.969C142.984 149.86 131.244 152.805 118.665 152.805C108.182 152.805 97.6991 150.701 86.7971 146.494L46.5434 170.477ZM41.0924 165.849L46.5434 169.215L86.7971 145.652H87.2164H87.6357C98.1184 149.86 108.601 151.963 119.084 151.963C131.663 151.963 143.404 149.018 153.048 143.127C161.853 138.078 166.885 131.346 166.885 124.193C166.885 120.827 166.046 117.882 164.369 114.516C163.95 113.674 163.111 112.833 162.692 111.991C162.273 111.57 161.853 111.15 161.853 110.729C161.434 110.308 161.015 109.887 160.595 109.467C159.757 108.625 158.918 107.784 158.08 106.942C157.66 106.521 157.241 106.101 156.822 106.101C155.144 105.68 155.144 105.68 154.725 105.259C154.306 104.838 153.887 104.418 153.467 104.418L152.629 103.997C143.404 98.5269 131.244 95.5816 118.245 95.5816C105.247 95.5816 93.0867 98.5269 83.8619 103.997L83.0233 104.418C82.604 104.838 81.7654 105.259 81.3461 105.259C80.0881 106.101 78.8302 106.942 77.5723 108.204C77.153 108.625 76.7337 109.046 76.3144 109.467C75.895 109.887 75.4757 110.308 75.0564 110.729L72.9599 113.254C72.9599 113.674 72.5406 113.674 72.5406 114.095C72.5406 114.095 71.702 115.357 71.702 115.778C71.702 116.199 71.2826 116.199 71.2826 116.62C71.2826 117.04 70.8633 117.461 70.8633 117.461C70.8633 117.461 70.8633 117.461 70.8633 117.882C70.8633 118.303 70.444 119.144 70.444 119.144C70.444 119.565 70.444 119.986 70.0247 120.406C70.0247 120.827 70.0247 120.827 70.0247 120.827C70.0247 121.248 70.0247 122.089 70.0247 122.51V122.931C70.0247 130.925 73.7985 136.816 80.5074 141.024L80.9267 141.444H81.3461H80.9267C80.9267 141.444 80.9268 141.865 80.5074 141.865L41.0924 165.849Z" fill="#0B0B0B"></path><path d="M63.3159 157.013C62.4773 155.751 59.9615 153.227 57.0263 153.227C56.607 153.227 55.7684 153.227 55.3491 153.647C54.9297 153.647 15.934 175.527 5.45129 180.997C6.70922 180.997 7.96715 181.838 8.80577 182.259C10.0637 183.101 11.3216 184.363 12.5795 186.046C14.6761 188.991 15.934 192.778 15.934 195.723C15.934 196.986 15.5147 197.827 15.5147 198.669L65.4125 171.319C66.6704 170.478 67.509 169.215 67.509 167.112C67.509 166.691 67.509 165.849 67.509 165.429C66.6704 162.483 65.4125 159.117 63.3159 157.013Z" fill="#8B75F3"></path><path d="M14.2568 199.931L14.6761 198.668C15.0954 197.827 15.0954 196.985 15.0954 195.723C15.0954 192.778 13.8375 188.991 11.7409 186.046C10.9023 184.783 9.64438 183.521 8.38645 182.679C7.54783 182.259 6.70921 181.417 5.45129 181.417H4.19336L38.996 162.062C48.2208 157.013 55.349 153.226 55.349 152.806C55.7684 152.385 56.607 152.385 57.0263 152.385C59.9615 152.385 62.4773 155.33 63.7352 156.172C65.8318 158.696 67.0897 161.641 67.509 165.008C67.509 165.849 67.509 166.27 67.509 166.691C67.509 168.794 66.6704 170.477 64.9932 171.319L14.2568 199.931ZM7.12852 180.996C7.96714 181.417 8.80576 181.838 9.22507 182.259C10.483 183.1 11.7409 184.363 12.9988 186.046C15.5147 188.991 16.7726 192.778 16.3533 196.144C16.3533 196.985 16.3533 197.406 15.934 197.827L64.5738 170.898C65.8318 170.477 66.2511 168.794 66.2511 167.111C66.2511 166.691 66.2511 166.27 66.2511 165.428C65.8318 162.483 64.5738 159.538 62.4773 157.434C61.6387 156.592 59.1228 153.647 56.607 153.647C56.1877 153.647 55.7684 153.647 55.349 154.068C55.349 154.068 47.8015 158.275 38.996 162.904L7.12852 180.996Z" fill="#0B0B0B"></path><path d="M63.7352 156.593C62.058 154.909 59.5421 152.806 57.0263 152.806C56.607 152.806 55.7684 152.806 55.349 153.226L2.93542 182.259C3.35473 182.259 3.77404 181.838 4.19335 181.838C4.61266 181.838 4.61266 181.838 5.03197 181.838C6.2899 181.838 7.54782 182.259 8.80575 183.1C10.0637 183.942 11.3216 185.204 12.1602 186.466C14.2568 188.991 15.5147 192.778 15.5147 196.144C15.5147 198.668 14.6761 200.352 13.4181 200.772L65.8318 172.161C67.0897 171.319 67.9283 169.636 67.9283 167.532C67.9283 167.111 67.9283 166.27 67.9283 165.849C67.0897 162.062 65.8318 159.117 63.7352 156.593ZM64.9932 170.898L16.3533 197.827C16.3533 197.406 16.3533 196.565 16.7726 196.144C16.7726 192.778 15.5147 188.991 13.4181 186.046C12.1602 184.363 10.9023 183.1 9.64437 182.259C9.22506 181.838 8.38644 181.417 7.54782 180.997C19.2885 174.685 55.7684 154.489 56.1877 154.068C56.607 154.068 57.0263 153.647 57.4456 153.647C59.9614 153.647 62.4773 156.593 63.3159 157.434C65.4125 159.538 66.6704 162.483 67.0897 165.428C67.0897 165.849 67.0897 166.27 67.0897 167.111C66.6704 168.795 65.8318 170.057 64.9932 170.898Z" fill="#0B0B0B"></path><path d="M13.418 201.193L12.5794 199.93C13.8373 199.089 14.676 197.827 14.676 195.723C14.676 192.778 13.418 189.411 11.3215 186.466C10.4829 185.204 9.22494 183.942 7.96701 183.1C6.70908 182.259 5.03185 181.838 3.77392 181.838C3.35461 181.838 2.9353 181.838 2.9353 182.259L2.51599 181.417C54.9296 152.385 54.9296 152.385 54.9296 152.385C55.3489 151.964 56.1875 151.964 57.0262 151.964C59.9613 151.964 62.8965 154.909 64.1544 156.171C66.251 158.696 67.9282 162.062 68.3475 165.007C68.3475 165.849 68.3475 166.27 68.3475 166.69C68.3475 169.215 67.5089 170.898 65.8316 171.74L13.418 201.193ZM15.9339 194.04C15.9339 194.881 15.9339 195.302 15.9339 196.144C15.9339 197.406 15.5146 198.247 15.5146 199.089L15.9339 197.827C15.9339 197.406 15.9339 196.564 15.9339 196.144C15.9339 195.302 15.9339 194.461 15.9339 194.04ZM8.38632 180.996C8.80563 180.996 9.22494 181.417 9.64424 181.838C10.9022 182.679 12.5794 183.942 13.418 185.625C15.9339 188.991 17.1918 192.778 17.1918 196.144C17.1918 196.564 17.1918 196.564 17.1918 196.985L64.993 170.898C65.8316 170.477 66.251 169.215 66.6703 167.532C66.6703 167.111 66.6703 166.69 66.6703 166.27C66.251 163.324 64.993 160.379 63.3158 158.275C62.0579 156.592 59.542 154.909 57.8648 154.909C57.4455 154.909 57.0262 154.909 56.6068 155.33C56.1875 155.33 42.3503 163.324 28.9325 170.477L8.38632 180.996ZM7.5477 181.838C7.96701 182.259 8.38632 182.259 8.80563 182.679C10.0636 183.521 11.3215 184.783 12.5794 186.466C14.2566 188.57 15.0953 191.095 15.9339 193.619C15.5146 191.095 14.2566 188.57 12.5794 186.466C11.3215 184.783 10.0636 183.942 8.80563 182.679C8.38632 182.259 7.96701 181.838 7.5477 181.838ZM64.993 171.319L28.5131 191.515L64.993 171.319C65.8316 170.898 66.251 170.477 66.6703 169.636C66.251 170.477 65.8316 170.898 64.993 171.319ZM5.45115 180.996C5.87046 180.996 6.28977 180.996 6.70908 181.417L5.45115 180.996L27.6745 168.794C32.2869 166.27 36.48 163.745 40.6731 161.641C28.5131 168.374 11.7408 177.63 5.45115 180.996ZM65.8316 160.8C66.251 162.062 67.0896 163.745 67.0896 165.007C67.0896 165.007 67.0896 165.007 67.0896 165.428C67.0896 165.428 67.0896 165.428 67.0896 165.007C66.6703 163.745 66.251 162.483 65.8316 160.8ZM57.0262 153.226C59.542 153.226 61.6386 155.33 62.8965 156.592C61.6386 155.33 59.542 153.226 57.0262 153.226Z" fill="#0B0B0B"></path><path d="M7.96712 182.678C3.77403 180.154 0.419556 181.837 0.419556 186.886C0.419556 191.514 3.35472 197.405 7.54781 199.93C11.7409 202.454 15.0954 200.771 15.0954 195.722C15.5147 191.094 12.1602 185.203 7.96712 182.678Z" fill="#0B0B0B"></path><path d="M11.3213 201.613C10.0634 201.613 8.80549 201.192 7.54756 200.351C3.35447 197.826 0 191.515 0 186.886C0 184.362 0.838618 182.679 2.51585 181.837C4.19309 180.575 6.28963 180.996 8.38618 182.258C12.5793 184.783 15.9337 191.094 15.9337 195.722C15.9337 198.247 15.0951 199.93 13.4179 200.772C12.5793 201.192 11.7407 201.613 11.3213 201.613ZM4.6124 181.837C4.19309 181.837 3.35447 181.837 2.93516 182.258C1.67724 183.1 0.838618 184.362 0.838618 186.466C0.838618 191.094 3.77378 196.564 7.54756 199.089C9.2248 200.351 10.902 200.351 12.16 199.93C13.4179 199.089 14.2565 197.826 14.2565 195.722C14.2565 191.094 11.3213 185.624 7.54756 183.1C6.70894 182.258 5.87033 181.837 4.6124 181.837Z" fill="#0B0B0B"></path></svg>