<svg xmlns="http://www.w3.org/2000/svg" width="62" height="50" viewBox="0 0 62 50" fill="none"><g clip-path="url(#clip0_3995_16279)"><path d="M6.86604 18.503C14.9816 14.4067 24.9633 11.2378 34.0167 14.0025C43.07 16.7671 49.4771 24.6721 54.0088 32.3881C54.8258 33.7858 57.0162 32.5581 56.1993 31.1603C52.3213 24.5534 47.247 18.2368 40.6038 14.248C33.9606 10.2592 25.8466 9.78323 18.2218 11.5858C13.8442 12.6183 9.63652 14.2888 5.63085 16.3168C4.18382 17.0464 5.42979 19.2356 6.86604 18.503Z" fill="#8B75F3"></path><path d="M4.78972 19.3226C8.88559 25.8979 14.1933 32.2103 21.0918 35.9927C27.9903 39.7751 35.9298 39.8781 43.4518 37.8616C47.7212 36.7177 51.8362 34.9634 55.7216 32.8671C57.1453 32.0962 55.9101 29.91 54.4864 30.6808C46.6054 34.9353 36.8646 38.3222 27.8557 36.0214C18.8468 33.7207 11.7914 25.808 6.98015 18.0948C6.12188 16.7202 3.93146 17.948 4.78972 19.3226Z" fill="#8B75F3"></path><path d="M32.6878 12.3576C28.0987 10.5758 22.7829 12.8855 20.2108 16.889C17.4348 21.2059 18.1881 27.0658 20.8921 31.2259C23.8275 35.7632 29.1373 38.7885 34.5768 37.3238C40.0162 35.859 43.2037 31.2753 43.5849 26.0105C44.013 19.9138 40.2172 14.3833 34.9335 11.5968C33.5077 10.839 32.2095 12.9878 33.6353 13.7456C37.4532 15.7516 40.496 19.3234 41.0262 23.6971C41.5565 28.0708 39.6181 32.2169 35.755 34.1921C27.2309 38.5445 18.6346 27.7117 21.6052 19.7102C23.1094 15.6626 27.9309 13.1683 32.0395 14.7578C33.5487 15.3421 34.2138 12.9235 32.7154 12.3422L32.6878 12.3576Z" fill="#8B75F3"></path><path d="M34.0348 21.66C32.7215 20.9568 31.0789 20.8908 29.775 21.6489C28.5399 22.3683 27.7656 23.8071 27.9222 25.2401C28.007 26.0162 28.2823 26.7763 28.8558 27.3419C29.3288 27.81 29.9624 28.1609 30.619 28.2636C31.3863 28.3857 32.1018 28.3196 32.8109 27.9855C33.52 27.6514 33.9983 27.0212 34.2457 26.3032C34.7842 24.7522 33.8672 22.8402 32.2514 22.3881C31.6158 22.2102 30.8563 22.5997 30.7084 23.2529C30.5605 23.9061 30.8968 24.6137 31.5785 24.7929C31.6431 24.811 31.7185 24.8321 31.7802 24.8609L31.469 24.7275C31.5522 24.7624 31.6216 24.8049 31.7018 24.8505C31.8729 24.9447 31.487 24.6631 31.5875 24.7607C31.6138 24.7912 31.6539 24.814 31.6802 24.8445C31.7065 24.875 31.7406 24.9193 31.7699 24.9391C31.8518 25.0199 31.5822 24.655 31.6862 24.823C31.7358 24.8948 31.7717 24.9743 31.8183 25.0568C31.9037 25.208 31.7436 24.9085 31.7682 24.9038C31.7682 24.9038 31.8213 25.046 31.8183 25.0568C31.8434 25.1332 31.8546 25.2174 31.8797 25.2939C31.9221 25.4331 31.8561 24.9632 31.8589 25.1607C31.8576 25.2067 31.8672 25.2557 31.8659 25.3016C31.8712 25.4073 31.858 25.4962 31.8525 25.5988L31.8995 25.2647C31.879 25.421 31.8339 25.5821 31.7703 25.7264L31.9035 25.4163C31.8687 25.4992 31.8154 25.5653 31.7806 25.6482C31.6834 25.8294 31.9957 25.419 31.8507 25.5636C31.8202 25.5898 31.8004 25.619 31.7698 25.6452L31.6476 25.7499C31.6476 25.7499 31.9183 25.571 31.7806 25.6482C31.6979 25.6945 31.6045 25.7378 31.5218 25.7842C31.4254 25.8382 31.8422 25.677 31.6428 25.7254C31.6045 25.7378 31.5554 25.7473 31.5171 25.7597C31.4542 25.7768 31.1381 25.8273 31.3913 25.794C31.6446 25.7606 31.3237 25.7866 31.253 25.79C31.1501 25.7843 31.0579 25.7817 30.9579 25.7653L31.2931 25.8128C31.0932 25.78 30.8993 25.7258 30.7222 25.653L31.0334 25.7864C30.9286 25.7455 30.8377 25.6969 30.7497 25.6376C30.7097 25.6148 30.6726 25.5813 30.6433 25.5615C30.526 25.4824 30.8951 25.7824 30.7467 25.6483C30.7174 25.6286 30.5135 25.4442 30.5225 25.4119C30.5225 25.4119 30.7149 25.7205 30.6014 25.5035C30.5703 25.4485 30.5363 25.4042 30.516 25.3522C30.4927 25.311 30.4831 25.262 30.4491 25.2178C30.6152 25.4958 30.5333 25.415 30.4849 25.2972C30.4551 25.1963 30.439 25.0876 30.4092 24.9866C30.3806 24.8397 30.4358 25.3067 30.4222 25.1061C30.4157 25.0464 30.42 24.9897 30.4134 24.93C30.4111 24.8136 30.4196 24.7002 30.4311 24.576L30.3841 24.9102C30.4149 24.6757 30.478 24.4502 30.5734 24.2338L30.4402 24.5438C30.4977 24.421 30.5553 24.2982 30.6345 24.1815C30.6603 24.1308 30.6968 24.0831 30.7334 24.0355C30.8521 23.8603 30.4985 24.2939 30.7244 24.0677C30.8083 23.9754 30.9077 23.9106 30.9886 23.8291C30.8143 23.9539 30.7837 23.9801 30.8832 23.9153C30.9137 23.8892 30.9551 23.866 30.9934 23.8536C31.0485 23.8227 31.1036 23.7918 31.1587 23.7609C31.2138 23.73 31.2767 23.7129 31.3318 23.682C30.9826 23.8505 31.2 23.7377 31.3012 23.7082C31.43 23.6632 31.5635 23.6426 31.7 23.6114C31.9317 23.572 31.3683 23.6343 31.6617 23.6238C31.7323 23.6204 31.8137 23.62 31.8844 23.6167C32.0364 23.6129 32.1825 23.6306 32.3285 23.6483L31.9933 23.6008C32.2824 23.647 32.5733 23.7284 32.8444 23.8389L32.5332 23.7056C32.6056 23.7374 32.6858 23.783 32.7582 23.8148C33.3332 24.1262 34.145 24.0061 34.4821 23.3826C34.7933 22.8099 34.6744 21.9894 34.0456 21.663L34.0348 21.66Z" fill="#8B75F3"></path><path d="M20.4467 12.3931L21.5491 8.45303C21.7264 7.81961 21.3344 7.06167 20.6791 6.91304C20.0237 6.7644 19.3254 7.10151 19.1361 7.77787L18.0337 11.7179C17.8565 12.3513 18.2484 13.1093 18.9038 13.2579C19.5591 13.4066 20.2575 13.0694 20.4467 12.3931Z" fill="#8B75F3"></path><path d="M27.2467 11.5877L28.6465 6.58484C28.8237 5.95142 28.4455 5.18576 27.7794 5.03411C27.1133 4.88246 26.4257 5.22259 26.2365 5.89894L24.8337 10.9126C24.6564 11.546 25.0484 12.3039 25.7037 12.4526C26.3591 12.6012 27.0574 12.2641 27.2467 11.5877Z" fill="#8B75F3"></path><path d="M33.943 13.8085C34.7671 12.2331 35.599 10.6716 36.4231 9.09624C36.7236 8.52046 36.6124 7.71375 35.9866 7.37658C35.4116 7.06521 34.589 7.18232 34.2627 7.80876C33.4386 9.38409 32.6067 10.9457 31.7826 12.521C31.4822 13.0968 31.5933 13.9035 32.2191 14.2407C32.7941 14.552 33.6167 14.4349 33.943 13.8085Z" fill="#8B75F3"></path><path d="M41.4368 17.4563C42.4454 15.678 43.4649 13.9026 44.4705 12.135C44.7926 11.5653 44.6521 10.7388 44.0341 10.4153C43.416 10.0919 42.658 10.2271 42.3102 10.8475C41.3015 12.6259 40.2821 14.4012 39.2764 16.1689C38.9543 16.7386 39.0948 17.5651 39.7129 17.8885C40.3309 18.2119 41.0889 18.0767 41.4368 17.4563Z" fill="#8B75F3"></path><path d="M47.3011 20.9491C48.0424 20.1262 48.7945 19.3064 49.5359 18.4835C49.7678 18.2358 49.9225 17.9319 49.9157 17.5827C49.9184 17.2824 49.7871 16.9215 49.5568 16.7066C49.3188 16.478 48.9951 16.3064 48.6526 16.3263C48.3348 16.3415 47.9928 16.4427 47.7747 16.6826C47.0334 17.5055 46.2813 18.3253 45.5399 19.1482C45.308 19.3959 45.1533 19.6999 45.1601 20.0491C45.1574 20.3493 45.2888 20.7102 45.519 20.9251C45.757 21.1538 46.0807 21.3254 46.4232 21.3054C46.7411 21.2902 47.083 21.1891 47.3011 20.9491Z" fill="#8B75F3"></path><path d="M13.8716 29.9556C13.001 30.7423 12.1411 31.532 11.2706 32.3187C10.7864 32.7621 10.7628 33.6353 11.2389 34.0926C11.7442 34.5697 12.5033 34.5969 13.018 34.1273C13.8885 33.3406 14.7484 32.5509 15.619 31.7642C16.1031 31.3209 16.1267 30.4477 15.6507 29.9903C15.1453 29.5132 14.3863 29.4861 13.8716 29.9556Z" fill="#8B75F3"></path><path d="M18.6118 34.6848C18.0745 35.692 17.5371 36.6993 16.9889 37.7036C16.8264 37.9938 16.7656 38.3357 16.8461 38.6707C16.9278 38.9599 17.1388 39.2852 17.4116 39.431C17.9866 39.7423 18.8092 39.6252 19.1355 38.9988C19.6729 37.9915 20.2103 36.9842 20.7584 35.98C20.921 35.6897 20.9818 35.3479 20.9013 35.0128C20.8196 34.7237 20.6086 34.3984 20.3357 34.2526C19.7608 33.9412 18.9381 34.0583 18.6118 34.6848Z" fill="#8B75F3"></path><path d="M26.2755 37.5591L25.3744 40.7799C25.1971 41.4133 25.5891 42.1712 26.2444 42.3199C26.8998 42.4685 27.5981 42.1314 27.7874 41.455L28.6885 38.2343C28.8658 37.6009 28.4738 36.8429 27.8185 36.6943C27.1631 36.5456 26.4648 36.8828 26.2755 37.5591Z" fill="#8B75F3"></path><path d="M34.6637 39.1306C34.6441 40.1554 34.6383 41.1725 34.6187 42.1973C34.613 42.5083 34.7612 42.8507 34.9776 43.0733C35.1941 43.296 35.5639 43.4689 35.8818 43.4536C36.5744 43.4275 37.1365 42.9133 37.1474 42.2102C37.1669 41.1854 37.1727 40.1683 37.1923 39.1435C37.198 38.8325 37.0499 38.4901 36.8334 38.2675C36.6169 38.0448 36.2471 37.8719 35.9293 37.8871C35.2366 37.9133 34.6746 38.4275 34.6637 39.1306Z" fill="#8B75F3"></path><path d="M40.6429 38.9742C40.8963 39.4387 41.1496 39.9032 41.3922 40.3647C41.4669 40.5129 41.5721 40.6349 41.7109 40.7201C41.83 40.8344 41.9825 40.9118 42.1441 40.957C42.3057 41.0023 42.4763 41.0153 42.6374 40.9793C42.8032 40.9678 42.9535 40.9288 43.0943 40.8409L43.3573 40.6482C43.519 40.4851 43.627 40.3069 43.6901 40.0815L43.7371 39.7473C43.7403 39.5283 43.6836 39.3156 43.5749 39.1231C43.3215 38.6587 43.0682 38.1942 42.8256 37.7327C42.7509 37.5845 42.6457 37.4624 42.5069 37.3773C42.3879 37.2629 42.2353 37.1855 42.0737 37.1403C41.9121 37.0951 41.7415 37.0821 41.5804 37.1181C41.4146 37.1295 41.2643 37.1685 41.1235 37.2565L40.8606 37.4492C40.6988 37.6123 40.5908 37.7904 40.5278 38.0159L40.4807 38.35C40.4775 38.5691 40.5342 38.7817 40.6429 38.9742Z" fill="#8B75F3"></path></g><defs><clipPath id="clip0_3995_16279"><rect width="53.4695" height="36.3319" fill="white" transform="translate(9.78955) rotate(15.6315)"></rect></clipPath></defs></svg>