<svg xmlns="http://www.w3.org/2000/svg" width="126" height="36" viewBox="0 0 126 36" fill="none"><g clip-path="url(#clip0_823_463)"><path d="M29.5372 20.6776V6.15996C29.5372 4.24079 27.9543 2.66211 25.9598 2.66211H10.7005C8.7377 2.66211 7.12312 4.24079 7.12312 6.15996V20.6776C7.12312 22.5968 8.7377 24.1754 10.7005 24.1754H14.4362L11.397 25.1041L13.8347 32.657L25.2633 29.1281L23.6804 24.1754H25.9598C27.9226 24.1754 29.5055 22.5968 29.5372 20.6776Z" fill="white"></path><path d="M18.2352 16.344C13.0116 16.344 8.70602 17.7369 6.48994 19.6871C6.48994 22.2253 8.57939 24.3302 11.207 24.3302C11.2387 24.3302 11.2703 24.3302 11.302 24.3302H25.2317C27.9859 24.3302 30.0437 22.3182 30.0754 19.7799C27.796 17.8298 23.4588 16.344 18.2352 16.344Z" fill="#BFBFBF"></path><path d="M41.0291 13.2485C41.2508 14.0533 41.3774 14.8581 41.409 15.6629C41.409 16.7154 41.3141 24.3611 41.3141 24.3611L44.0367 24.423L44.005 15.601C44.005 15.601 45.0497 14.6414 46.3161 14.7034C47.2658 14.6724 48.0256 15.4153 48.0573 16.313C48.0573 16.313 48.0573 16.313 48.0573 16.3439C48.0573 17.0249 47.994 24.423 47.994 24.423L50.7166 24.3921L50.7482 15.5701C51.3497 15.0439 52.1095 14.7343 52.901 14.7034C54.1673 14.7034 54.6422 15.7868 54.6739 16.4368C54.7055 17.0868 54.6422 24.454 54.6422 24.454L57.4281 24.3611L57.3965 15.8177C57.3965 15.8177 56.9533 12.7842 53.4392 12.7842C52.1729 12.7842 50.9065 13.2175 49.9251 14.0224C49.4502 13.589 48.5638 12.7223 46.9492 12.8151C45.3347 12.908 44.7648 13.0937 43.3402 13.9914C43.2769 13.6509 43.1186 13.3104 42.9286 13.0009L41.0291 13.2485Z" fill="black"></path><path d="M69.9015 17.8298C69.5216 13.0319 65.8176 12.8152 65.8176 12.8152H64.203C59.9925 13.1247 59.4226 17.1798 59.3593 18.0155C59.3593 18.1084 59.391 19.5323 59.391 19.5323C59.4226 23.9897 63.5699 24.5779 63.5699 24.5779H65.1211C69.7116 24.1136 69.9015 19.4704 69.9015 19.4704C69.9015 19.4704 69.9332 18.9442 69.9015 17.8298ZM64.6779 22.6587C62.4618 22.6277 62.0186 20.7395 62.0503 18.7894C62.0819 16.9321 62.1769 14.8272 64.6146 14.7653C64.6146 14.7653 67.3372 14.3939 67.2739 18.5727C67.3372 20.6467 66.8623 22.5968 64.6779 22.6587Z" fill="black"></path><path d="M89.9412 15.5082C89.9412 15.5082 88.3266 14.8582 87.0603 14.9201C85.794 14.982 85.1608 15.1058 85.1608 16.0344C85.1608 16.9631 86.1422 17.2417 87.6935 17.8298C89.2447 18.4179 90.606 19.4085 90.5744 21.1419C90.5427 22.8754 88.9915 24.7326 85.8256 24.5779C83.1347 24.5469 82.3432 23.6492 82.3432 23.6492L82.9764 21.8539C82.9764 21.8539 84.591 22.5349 85.889 22.473C87.1869 22.411 87.8834 22.2872 87.8834 21.2348C87.8834 20.1823 86.5854 19.8109 85.3508 19.2847C84.1161 18.7275 82.4065 17.9536 82.4699 16.0654C82.5332 14.1772 84.1161 12.7533 86.8704 12.8152C89.6246 12.8771 90.4161 13.589 90.4161 13.589L89.9412 15.5082Z" fill="black"></path><path d="M100.23 21.73C100.23 21.73 99.5653 22.4729 97.2543 22.4729C94.3101 22.5348 94.2151 20.2752 94.1834 20.0275C96.6211 20.0585 101.338 19.0989 101.212 16.0344C101.085 12.9699 97.7292 12.8151 97.7292 12.8151L96.6844 12.7842C91.999 13.3414 91.6824 18.356 91.6824 18.356C91.5558 23.1539 94.7533 24.6088 97.1593 24.6088C98.6472 24.5778 100.104 24.1445 101.307 23.3087L100.23 21.73ZM97.1593 14.7343C97.1593 14.7343 98.9005 14.7653 98.9005 16.2201C98.9005 17.675 96.2095 18.4179 94.1201 18.2322C94.1201 18.2322 94.1201 14.8891 97.1593 14.7343Z" fill="black"></path><path d="M102.984 13.3413C103.174 14.1152 103.301 14.8581 103.364 15.6319C103.396 16.4058 103.333 24.6087 103.333 24.6087H106.055L105.992 15.7248C106.593 15.2605 107.353 14.9819 108.113 14.951C109.253 14.951 110.203 15.4153 110.203 16.6844V24.6397H113.02L112.925 16.282C112.925 16.282 112.704 12.8461 108.81 12.8461C108.81 12.8461 107.227 12.5984 105.359 14.0533C105.106 13.4032 104.947 12.9699 104.947 12.9699L102.984 13.3413Z" fill="black"></path><path d="M125.968 22.6276C125.557 22.7205 125.145 22.4728 125.082 22.0704C125.082 22.0085 125.05 21.9466 125.05 21.9156C124.955 21.018 125.05 8.17188 125.05 8.17188L122.486 8.45046L122.423 13.0008C122.423 13.0008 121.093 12.815 120.523 12.815C119.953 12.815 115.236 12.8769 115.046 18.7583C114.856 24.6396 119.162 24.6396 119.573 24.6396C119.985 24.6396 121.821 24.5468 122.771 23.0919C122.866 23.4634 123.119 24.4539 124.829 24.4229C125.24 24.392 125.62 24.3301 126 24.2063L125.968 22.6276ZM122.391 20.3679C122.391 20.3679 122.138 22.6585 119.89 22.6585C117.642 22.6585 117.674 19.8726 117.674 18.8821C117.674 17.8916 117.674 14.7652 120.681 14.7652C121.251 14.7342 121.821 14.7961 122.359 14.9509L122.391 20.3679Z" fill="black"></path><path d="M81.6467 17.8298C81.2352 13.0319 77.5628 12.8152 77.5628 12.8152H75.9482C71.7377 13.1557 71.1678 17.2107 71.1045 18.0155C71.1045 18.1084 71.1362 19.5323 71.1362 19.5323C71.1678 23.9897 75.3151 24.5779 75.3151 24.5779H76.8663C81.4568 24.1445 81.6784 19.4704 81.6784 19.4704C81.6784 19.4704 81.6784 18.9442 81.6467 17.8298ZM76.4231 22.6587C74.207 22.6277 73.7638 20.7395 73.7955 18.7894C73.8271 16.9321 73.9221 14.8272 76.3598 14.7653C76.3598 14.7653 79.0824 14.3939 79.0191 18.5727C79.0824 20.6467 78.6075 22.5968 76.4231 22.6587Z" fill="black"></path><path d="M17.2854 11.4222C17.4437 10.865 17.2538 10.3078 16.9055 10.215C16.5573 10.1221 16.1141 10.5245 15.9874 11.0817C15.8608 11.6389 16.0191 12.1961 16.3673 12.2889C16.7156 12.3818 17.1271 12.0103 17.2854 11.4222ZM19.3749 11.4532C19.5332 12.0103 19.9764 12.4127 20.3246 12.2889C20.6729 12.1961 20.8312 11.6389 20.6729 11.0817C20.5146 10.5245 20.0714 10.1531 19.7231 10.2459C19.3749 10.3388 19.2166 10.896 19.3749 11.4532ZM14.4995 20.5538C14.0246 19.7489 13.2015 19.3156 12.6633 19.6251C12.1251 19.9347 12.1251 20.8323 12.6 21.6372C13.0749 22.442 13.898 22.8753 14.4362 22.5967C14.9744 22.3182 15.006 21.3895 14.4995 20.5538ZM24.4402 21.6991C24.9467 20.8633 24.9151 19.9656 24.3769 19.6561C23.8387 19.3465 23.0472 19.7799 22.5407 20.6157C22.0658 21.4205 22.0658 22.3491 22.604 22.6277C23.1422 22.9063 23.9337 22.5039 24.4402 21.6991ZM29.2206 20.5538C29.2206 22.5658 27.5427 24.2064 25.4849 24.2064H11.0171C8.9593 24.2064 7.28141 22.5658 7.28141 20.5538V19.0679C9.65578 17.4583 13.5814 16.344 18.2352 16.344C22.8889 16.344 26.8146 17.5202 29.2206 19.1608V20.5538ZM29.2206 18.0155C26.8146 16.344 22.8573 15.3534 18.2352 15.3534C13.6764 15.3534 9.7191 16.3749 7.28141 18.0155V6.43853C7.28141 4.4265 8.9593 2.78591 11.0171 2.78591H25.4533C27.5111 2.78591 29.1889 4.4265 29.1889 6.43853L29.2206 18.0155ZM12.2834 25.9089L15.8291 27.6423L13.993 31.1402L12.2834 25.9089ZM14.7528 31.8212L16.7156 28.1066L18.9317 29.19L20.198 26.9923L24.092 28.9115L14.7528 31.8212ZM20.008 25.2279L18.4884 27.89L13.1065 25.2279H20.008ZM24.4402 27.9828L20.6729 26.1256L21.1794 25.2279H23.5538L24.4402 27.9828ZM36.3437 7.39812L27.9226 2.63114C27.1628 2.10491 26.2447 1.82632 25.3266 1.76442C23.8704 -1.64057 22.6673 0.773874 22.2558 1.73346H14.2779C12.8216 -1.64057 11.6186 0.773874 11.207 1.73346C10.1623 1.73346 9.11759 2.07396 8.26281 2.69305L0 7.39812C0 7.39812 3.32412 9.99829 6.23668 8.57439V20.2442C6.23668 22.8753 8.35779 25.0731 11.0487 25.2279V25.2588C11.0487 25.2898 11.0487 25.3517 11.0487 25.3826C11.0487 25.4446 11.0804 25.4755 11.0804 25.5374V25.5993L13.2332 32.2545C13.2648 32.3474 13.3281 32.4403 13.3915 32.5331C13.4231 32.5641 13.4548 32.595 13.4864 32.6569C13.5181 32.6879 13.5497 32.7188 13.5814 32.7498C13.7714 32.9046 14.0246 32.9974 14.2462 32.9974C14.3412 32.9974 14.4678 32.9665 14.5628 32.9355L24.9467 29.7472C25.2633 29.6544 25.5166 29.4377 25.6116 29.1281C25.6432 29.0353 25.6749 28.9114 25.6749 28.8186C25.6749 28.8186 25.6749 28.7876 25.6749 28.7567C25.6749 28.6638 25.6749 28.54 25.6432 28.4471L24.6302 25.2588H25.2C27.9859 25.2279 30.202 23.0301 30.202 20.3061L30.107 8.60534C33.0196 9.99829 36.3437 7.39812 36.3437 7.39812Z" fill="black"></path><path d="M123.246 31.1092H122.518L123.942 34.3594L123.721 34.9166C123.657 35.0713 123.594 35.1952 123.499 35.319C123.404 35.4118 123.246 35.4738 123.119 35.4428C123.024 35.4428 122.897 35.4118 122.803 35.3809L122.739 35.9381C122.803 35.969 122.897 35.969 122.961 35.969H123.182C123.341 35.969 123.467 35.9381 123.626 35.9071C123.752 35.8762 123.847 35.8143 123.942 35.7214C124.037 35.6285 124.101 35.5357 124.164 35.4428C124.227 35.319 124.29 35.1952 124.354 35.0713L125.968 31.0473H125.272L124.354 33.5855L123.246 31.1092ZM118.782 31.1092C118.782 31.202 118.814 31.3259 118.814 31.4806C118.814 31.6354 118.814 31.7283 118.814 31.8211V34.3594H119.478V32.6259C119.478 32.3474 119.542 32.0688 119.732 31.8521C119.89 31.6664 120.112 31.5735 120.365 31.5735C120.491 31.5735 120.618 31.6045 120.745 31.6664C120.84 31.7283 120.935 31.7902 120.966 31.883C121.03 31.9759 121.061 32.0688 121.093 32.1926C121.125 32.3164 121.125 32.4402 121.125 32.564V34.3594H121.789V32.3474C121.789 32.1616 121.758 32.0069 121.726 31.8211C121.631 31.5116 121.41 31.264 121.125 31.1092C120.935 31.0473 120.776 30.9854 120.555 31.0163C120.428 31.0163 120.302 31.0473 120.207 31.0782C120.08 31.1092 119.985 31.1401 119.89 31.202C119.795 31.264 119.732 31.3259 119.637 31.3878C119.573 31.4497 119.51 31.5425 119.478 31.6354H119.447C119.447 31.5735 119.447 31.4806 119.447 31.3878C119.447 31.2949 119.447 31.202 119.415 31.1092H118.782ZM116.914 32.3474C116.629 32.3474 116.344 32.3474 116.091 32.3783C115.838 32.4093 115.584 32.4402 115.331 32.5331C115.141 32.595 114.951 32.7188 114.793 32.8736C114.635 33.0284 114.571 33.245 114.603 33.4617C114.603 33.6165 114.635 33.8022 114.73 33.926C114.793 34.0499 114.888 34.1427 115.015 34.2356C115.141 34.3284 115.268 34.3594 115.394 34.3903C115.521 34.4213 115.679 34.4523 115.806 34.4523C116.028 34.4523 116.249 34.4213 116.471 34.2975C116.661 34.2046 116.819 34.0499 116.946 33.8951H116.977C116.977 34.0499 117.009 34.2046 117.041 34.3594H117.642C117.611 34.2665 117.611 34.1427 117.611 34.0499C117.611 33.926 117.611 33.8022 117.611 33.7094V32.2854C117.611 32.0997 117.579 31.9449 117.516 31.7902C117.452 31.6354 117.389 31.5116 117.262 31.3878C117.136 31.264 117.009 31.1711 116.819 31.1092C116.629 31.0473 116.408 31.0163 116.186 31.0163C115.933 31.0163 115.679 31.0473 115.426 31.1401C115.205 31.233 115.015 31.3259 114.825 31.5116L115.173 31.914C115.299 31.7902 115.426 31.6973 115.584 31.6354C115.743 31.5735 115.933 31.5425 116.123 31.5425C116.344 31.5425 116.534 31.6045 116.724 31.7283C116.882 31.8521 116.977 32.0688 116.946 32.2545L116.914 32.3474ZM116.914 32.8117V32.9664C116.914 33.2141 116.819 33.4617 116.661 33.6474C116.471 33.8332 116.218 33.926 115.964 33.926C115.869 33.926 115.806 33.926 115.711 33.8951C115.648 33.8641 115.553 33.8641 115.489 33.8022C115.426 33.7713 115.363 33.7094 115.331 33.6474C115.299 33.5855 115.268 33.4927 115.268 33.3998C115.268 33.276 115.3 33.1522 115.426 33.0593C115.521 32.9664 115.648 32.9045 115.774 32.8736C115.933 32.8426 116.091 32.8117 116.249 32.7807C116.439 32.7807 116.597 32.7498 116.756 32.7498L116.914 32.8117ZM110.899 33.8641C111.057 34.0499 111.216 34.2046 111.406 34.2975C111.627 34.3904 111.849 34.4523 112.07 34.4523C112.324 34.4523 112.545 34.4213 112.767 34.3284C112.957 34.2356 113.147 34.1118 113.305 33.957C113.463 33.8022 113.558 33.6165 113.653 33.3998C113.748 33.1831 113.78 32.9664 113.78 32.7188C113.78 32.5021 113.748 32.2545 113.653 32.0378C113.59 31.8211 113.463 31.6664 113.305 31.4806C113.147 31.3259 112.988 31.202 112.767 31.1092C112.545 31.0163 112.324 30.9854 112.102 30.9854C111.849 30.9854 111.595 31.0473 111.374 31.1401C111.184 31.233 111.026 31.3878 110.899 31.5735H110.867V31.0473H110.234V35.9381H110.899V33.8641ZM113.02 33.1522C112.988 33.276 112.893 33.4308 112.798 33.5236C112.704 33.6474 112.577 33.7403 112.45 33.8022C112.292 33.8641 112.134 33.8951 111.975 33.8951C111.817 33.8951 111.659 33.8641 111.501 33.8022C111.374 33.7403 111.247 33.6474 111.152 33.5546C111.057 33.4308 110.962 33.3069 110.931 33.1831C110.836 32.9045 110.836 32.564 110.931 32.2854C110.994 32.1616 111.057 32.0069 111.152 31.914C111.247 31.7902 111.374 31.7283 111.501 31.6664C111.659 31.6045 111.817 31.5735 111.975 31.5735C112.134 31.5735 112.292 31.6045 112.45 31.6664C112.577 31.7283 112.704 31.8211 112.798 31.914C112.893 32.0378 112.957 32.1616 113.02 32.2854C113.115 32.564 113.115 32.8736 113.02 33.1522ZM104.536 31.6354C104.504 31.5735 104.504 31.4806 104.504 31.3878C104.504 31.2949 104.504 31.202 104.472 31.1092H103.839C103.839 31.202 103.839 31.3259 103.871 31.4806C103.903 31.6354 103.871 31.7283 103.871 31.8211V34.3594H104.536V32.6259C104.536 32.3474 104.599 32.0688 104.789 31.8521C104.947 31.6664 105.169 31.5735 105.39 31.5735C105.485 31.5735 105.612 31.6044 105.707 31.6354C105.802 31.6664 105.865 31.7283 105.929 31.8211C105.992 31.914 106.024 32.0069 106.055 32.0997C106.087 32.2235 106.087 32.3474 106.087 32.4402V34.3594H106.752V32.595C106.752 32.4712 106.783 32.3474 106.783 32.2235C106.815 32.0997 106.847 32.0069 106.942 31.883C107.005 31.7902 107.1 31.6973 107.195 31.6354C107.322 31.5735 107.448 31.5425 107.575 31.5425C107.702 31.5425 107.828 31.5735 107.923 31.6354C108.018 31.6973 108.081 31.7592 108.145 31.8521C108.208 31.945 108.24 32.0378 108.271 32.1616C108.303 32.2854 108.303 32.4093 108.303 32.5331V34.3284H108.968V32.3164C108.968 32.1307 108.936 31.9759 108.905 31.7902C108.873 31.6354 108.778 31.4806 108.683 31.3568C108.588 31.233 108.43 31.1401 108.303 31.0782C108.113 31.0163 107.955 30.9544 107.733 30.9854C107.512 30.9854 107.29 31.0473 107.068 31.1401C106.878 31.264 106.688 31.4187 106.593 31.6354C106.499 31.4187 106.372 31.264 106.182 31.1401C105.992 31.0473 105.802 30.9854 105.58 30.9854C105.359 30.9854 105.106 31.0473 104.916 31.1711C104.726 31.2949 104.599 31.4497 104.536 31.6354ZM102.858 32.0378C102.763 31.8211 102.636 31.6664 102.478 31.5116C102.32 31.3568 102.13 31.233 101.908 31.1711C101.465 31.0163 100.958 31.0163 100.483 31.1711C100.262 31.264 100.072 31.3568 99.9136 31.5116C99.7553 31.6664 99.6286 31.8521 99.5337 32.0378C99.3437 32.4712 99.3437 32.9664 99.5337 33.4308C99.6286 33.6474 99.7553 33.8332 99.9136 33.9879C100.072 34.1427 100.262 34.2665 100.483 34.3594C100.927 34.5142 101.433 34.5142 101.908 34.3594C102.351 34.2046 102.668 33.8641 102.858 33.4617C103.016 32.9664 103.016 32.4712 102.858 32.0378ZM102.193 33.1831C102.161 33.3069 102.066 33.4617 101.971 33.5546C101.876 33.6784 101.75 33.7713 101.623 33.8022C101.307 33.926 100.99 33.926 100.673 33.8022C100.547 33.7403 100.42 33.6474 100.325 33.5546C100.23 33.4308 100.167 33.3069 100.104 33.1831C100.04 33.0284 100.04 32.8736 100.04 32.7498C100.04 32.595 100.072 32.4402 100.104 32.3164C100.135 32.1926 100.23 32.0378 100.325 31.9449C100.42 31.8211 100.547 31.7592 100.673 31.6973C100.99 31.5735 101.307 31.5735 101.623 31.6973C101.75 31.7592 101.876 31.8521 101.971 31.9449C102.066 32.0688 102.13 32.1926 102.193 32.3164C102.256 32.4712 102.256 32.6259 102.256 32.7498C102.288 32.8736 102.256 33.0284 102.193 33.1831ZM98.8055 31.5425C98.6472 31.3568 98.4573 31.233 98.2673 31.1401C98.0457 31.0473 97.8241 31.0163 97.5709 31.0163C97.3176 31.0163 97.096 31.0473 96.8744 31.1401C96.6528 31.233 96.4628 31.3259 96.3045 31.4806C96.1462 31.6354 96.0196 31.8211 95.9246 32.0378C95.8297 32.2545 95.798 32.5021 95.798 32.7498C95.798 32.9974 95.8297 33.245 95.9246 33.4617C96.0196 33.6784 96.1462 33.8332 96.3045 33.9879C96.4628 34.1427 96.6528 34.2665 96.8744 34.3284C97.096 34.4213 97.3493 34.4523 97.5709 34.4523C97.8241 34.4523 98.0457 34.4213 98.299 34.3284C98.4889 34.2356 98.6789 34.1118 98.8372 33.957L98.394 33.5546C98.299 33.6784 98.1724 33.7713 98.0457 33.8022C97.7608 33.926 97.4126 33.926 97.1276 33.8022C97.001 33.7403 96.8744 33.6474 96.7794 33.5546C96.6844 33.4308 96.6211 33.3069 96.5578 33.1831C96.4628 32.9045 96.4628 32.564 96.5578 32.2854C96.5895 32.1616 96.6844 32.0069 96.7794 31.914C96.8744 31.8211 97.001 31.7283 97.1276 31.6664C97.2859 31.6045 97.4126 31.5735 97.6025 31.5735C97.7608 31.5735 97.9191 31.6045 98.0457 31.6664C98.1724 31.7283 98.2673 31.8211 98.3623 31.914L98.8055 31.5425ZM92.6005 30.9235C92.6322 31.0163 92.6955 31.0782 92.7588 31.1711C92.8221 31.233 92.9171 31.2949 93.0121 31.3259C93.107 31.3568 93.202 31.3878 93.297 31.3878C93.392 31.3878 93.4869 31.3568 93.5819 31.3259C93.6769 31.2949 93.7402 31.233 93.8352 31.1711C93.9935 31.0473 94.0568 30.8306 94.0568 30.6449C94.0568 30.4591 93.9618 30.2734 93.8352 30.1186C93.7719 30.0567 93.6769 29.9948 93.5819 29.9639C93.4869 29.9329 93.392 29.902 93.297 29.902C93.202 29.902 93.107 29.9329 93.0121 29.9639C92.9171 29.9948 92.8538 30.0567 92.7588 30.1186C92.6955 30.1805 92.6322 30.2734 92.6005 30.3663C92.5688 30.4591 92.5372 30.552 92.5372 30.6449C92.5372 30.7377 92.5688 30.8306 92.6005 30.9235ZM92.6955 30.3972C92.7588 30.2425 92.8854 30.1186 93.0437 30.0567C93.107 30.0258 93.202 29.9948 93.297 29.9948C93.392 29.9948 93.4553 30.0258 93.5503 30.0567C93.6136 30.0877 93.7085 30.1186 93.7402 30.1805C93.8035 30.2425 93.8352 30.3044 93.8668 30.3972C93.9302 30.552 93.9302 30.7377 93.8668 30.8925C93.8035 31.0473 93.6769 31.1711 93.5186 31.233C93.4236 31.264 93.3603 31.2949 93.2653 31.2949C93.1704 31.2949 93.107 31.264 93.0121 31.233C92.9487 31.202 92.8538 31.1401 92.8221 31.1092C92.7588 31.0473 92.7271 30.9854 92.6955 30.8925C92.6322 30.7377 92.6322 30.552 92.6955 30.3972ZM93.0121 31.0473H93.1703V30.7068H93.297L93.4869 31.0473H93.6769L93.4553 30.6758C93.5186 30.6758 93.5503 30.6449 93.6136 30.6139C93.6452 30.583 93.6769 30.521 93.6769 30.4591C93.6769 30.4282 93.6769 30.3663 93.6452 30.3353C93.6136 30.3044 93.6136 30.2734 93.5819 30.2734C93.5503 30.2425 93.5186 30.2425 93.4869 30.2425C93.4553 30.2425 93.4236 30.2425 93.3603 30.2425H93.0437V31.0473H93.0121ZM93.1387 30.583V30.3353H93.2653C93.297 30.3353 93.3603 30.3353 93.392 30.3663C93.4236 30.3972 93.4553 30.4282 93.4553 30.4591C93.4553 30.4901 93.4236 30.552 93.392 30.552C93.3603 30.583 93.297 30.583 93.2653 30.583H93.1387ZM89.593 32.4402C89.593 32.3164 89.6246 32.1926 89.6879 32.0688C89.8146 31.8521 90.0045 31.6664 90.2261 31.5735C90.3528 31.5116 90.4794 31.5116 90.6377 31.5116C90.7643 31.5116 90.9226 31.5425 91.0493 31.5735C91.1442 31.6045 91.2709 31.6973 91.3342 31.7592C91.4291 31.8521 91.4608 31.9449 91.5241 32.0378C91.5558 32.1616 91.5874 32.2854 91.5874 32.4093H89.593V32.4402ZM92.1256 31.9759C92.0623 31.7902 91.9357 31.6045 91.809 31.4497C91.6824 31.2949 91.4925 31.202 91.3025 31.1092C91.0809 31.0163 90.8593 30.9854 90.6377 30.9854C90.4161 30.9854 90.1628 31.0163 89.9729 31.1092C89.7829 31.202 89.593 31.2949 89.4347 31.4497C89.2764 31.6045 89.1497 31.7902 89.0864 32.0069C88.9915 32.2235 88.9598 32.4712 88.9598 32.6879C88.9598 32.9355 88.9915 33.1522 89.0864 33.3998C89.1814 33.6165 89.308 33.7713 89.4347 33.926C89.593 34.0808 89.7829 34.2046 90.0045 34.2665C90.4794 34.4523 91.0176 34.4213 91.5241 34.2356C91.7774 34.1118 91.999 33.957 92.1573 33.7403L91.6824 33.3689C91.5874 33.5236 91.4608 33.6474 91.3025 33.7094C90.891 33.957 90.3211 33.8951 89.9729 33.5855C89.8779 33.4927 89.7829 33.3998 89.7196 33.276C89.6563 33.1522 89.6246 33.0284 89.6246 32.9045H92.2523C92.2523 32.8736 92.2523 32.8426 92.2523 32.7807V32.6879C92.2523 32.4402 92.2206 32.2235 92.1256 31.9759ZM86.5854 31.7902V34.3284H87.2503V32.6259C87.2503 32.5021 87.2819 32.3474 87.3136 32.2235C87.3452 32.0997 87.4085 32.0069 87.4719 31.883C87.5668 31.7902 87.6618 31.6973 87.7568 31.6354C87.8834 31.5735 88.0417 31.5425 88.1683 31.5425C88.2633 31.5425 88.39 31.5425 88.4849 31.5735L88.5166 30.9854C88.4216 30.9544 88.3583 30.9544 88.2633 30.9544C88.0417 30.9544 87.8201 31.0163 87.6618 31.1401C87.4719 31.264 87.3452 31.4187 87.2503 31.6045H87.2186C87.2186 31.5425 87.2186 31.4497 87.2186 31.3568C87.2186 31.264 87.2186 31.1401 87.1869 31.0782H86.5538C86.5538 31.1711 86.5538 31.2949 86.5854 31.4497C86.6171 31.6045 86.5854 31.6973 86.5854 31.7902ZM85.5407 32.0378C85.4457 31.8211 85.3191 31.6664 85.1608 31.5116C85.0025 31.3568 84.8126 31.233 84.591 31.1711C84.1477 31.0163 83.6412 31.0163 83.1663 31.1711C82.7231 31.3259 82.4065 31.6354 82.2166 32.0688C82.0266 32.5021 82.0266 32.9974 82.2166 33.4617C82.3116 33.6784 82.4382 33.8641 82.5965 34.0189C82.7548 34.1737 82.9447 34.2975 83.1663 34.3903C83.6096 34.5451 84.1161 34.5451 84.591 34.3903C84.8126 34.2975 85.0025 34.1737 85.1608 34.0189C85.3191 33.8641 85.4457 33.6784 85.5407 33.4617C85.699 32.9664 85.699 32.4712 85.5407 32.0378ZM84.9075 33.1522C84.8759 33.276 84.7809 33.4308 84.6859 33.5236C84.591 33.6474 84.4643 33.7403 84.3377 33.7713C84.0211 33.8951 83.7045 33.8951 83.3879 33.7713C83.2613 33.7094 83.1347 33.6165 83.0397 33.5236C82.9447 33.3998 82.8814 33.276 82.8181 33.1522C82.7548 32.9974 82.7548 32.8736 82.7548 32.7188C82.7548 32.564 82.7864 32.4093 82.8181 32.2854C82.8498 32.1616 82.9447 32.0069 83.0397 31.914C83.1347 31.8211 83.2613 31.7283 83.3879 31.6664C83.7045 31.5425 84.0211 31.5425 84.3377 31.6664C84.4643 31.7283 84.591 31.8211 84.6859 31.914C84.7809 32.0378 84.8442 32.1616 84.9075 32.2854C84.9709 32.4402 84.9709 32.595 84.9709 32.7188C84.9709 32.8736 84.9392 33.0284 84.9075 33.1522ZM81.6151 31.5425C81.4568 31.3568 81.2668 31.233 81.0769 31.1401C80.6337 30.9544 80.1271 30.9544 79.6839 31.1401C79.4623 31.233 79.2724 31.3259 79.1141 31.4806C78.9558 31.6354 78.8291 31.8211 78.7342 32.0378C78.6392 32.2545 78.6075 32.5021 78.6075 32.7498C78.6075 32.9974 78.6392 33.245 78.7342 33.4617C78.8291 33.6784 78.9558 33.8332 79.1141 33.9879C79.2724 34.1427 79.4623 34.2665 79.6839 34.3284C79.9055 34.4213 80.1588 34.4523 80.3804 34.4523C80.6337 34.4523 80.8553 34.4213 81.1085 34.3284C81.2985 34.2356 81.4884 34.1118 81.6467 33.957L81.2035 33.5546C81.1085 33.6784 80.9819 33.7713 80.8553 33.8022C80.5704 33.926 80.2221 33.926 79.9372 33.8022C79.8106 33.7403 79.6839 33.6474 79.5889 33.5546C79.494 33.4308 79.4307 33.3069 79.3673 33.1831C79.2724 32.9045 79.2724 32.564 79.3673 32.2854C79.399 32.1616 79.494 32.0069 79.5889 31.914C79.6839 31.8211 79.8106 31.7283 79.9372 31.6664C80.0955 31.6045 80.2221 31.5735 80.3804 31.5735C80.5387 31.5735 80.697 31.6045 80.8236 31.6664C80.9503 31.7283 81.0452 31.8211 81.1402 31.914L81.6151 31.5425ZM75.2518 32.4402C75.2518 32.3164 75.2834 32.1926 75.3467 32.0688C75.4734 31.8521 75.6633 31.6664 75.8849 31.5735C76.0116 31.5116 76.1382 31.5116 76.2648 31.5116C76.3915 31.5116 76.5498 31.5425 76.6764 31.5735C76.7714 31.6045 76.898 31.6973 76.9613 31.7592C77.0246 31.8521 77.0879 31.9449 77.1513 32.0378C77.1829 32.1616 77.2146 32.2854 77.2146 32.4093H75.2518V32.4402ZM77.7844 31.9759C77.7211 31.7902 77.5945 31.6045 77.4678 31.4497C77.3412 31.2949 77.1513 31.202 76.9613 31.1092C76.5181 30.9544 76.0432 30.9544 75.6317 31.1092C75.4417 31.202 75.2518 31.2949 75.0935 31.4497C74.9352 31.6045 74.8085 31.7902 74.7452 32.0069C74.6503 32.2235 74.6186 32.4712 74.6186 32.6879C74.6186 32.9355 74.6503 33.1522 74.7452 33.3998C74.9035 33.8022 75.2518 34.1427 75.6633 34.2975C76.1382 34.4832 76.6764 34.4523 77.1829 34.2665C77.4362 34.1427 77.6578 33.9879 77.8161 33.7713L77.3412 33.3998C77.2462 33.5546 77.1196 33.6474 76.9613 33.7403C76.7714 33.8332 76.5814 33.8951 76.3598 33.8951C76.2332 33.8951 76.0749 33.8641 75.9482 33.8332C75.8216 33.7713 75.695 33.7094 75.6 33.6165C75.505 33.5236 75.4101 33.4308 75.3784 33.3069C75.3151 33.1831 75.2834 33.0593 75.2834 32.9355H77.9111C77.9111 32.9045 77.9111 32.8736 77.9111 32.8117V32.7188C77.9111 32.4712 77.8794 32.2235 77.7844 31.9759ZM73.8271 31.1092H72.9407V30.1805H72.2759V31.1092H71.6427V31.6354H72.2759V33.3998C72.2442 33.6784 72.3392 33.957 72.5292 34.1737C72.7191 34.3594 72.9724 34.4523 73.2573 34.4213C73.3523 34.4213 73.4472 34.4213 73.5422 34.3903C73.6372 34.3903 73.7322 34.3594 73.7955 34.3284L73.7638 33.8022C73.7005 33.8332 73.6372 33.8641 73.5739 33.8641C73.5106 33.8641 73.4472 33.8951 73.3839 33.8951C73.2573 33.8951 73.1307 33.8641 73.0357 33.7713C72.9407 33.6474 72.909 33.4927 72.909 33.3379V31.6354H73.7955L73.8271 31.1092ZM70.7879 31.1092H70.1231V34.3594H70.7879V31.1092ZM70.7563 29.6234C70.6613 29.5305 70.5663 29.4996 70.4397 29.4996C70.3131 29.4996 70.2181 29.5305 70.1231 29.6234C70.0281 29.7162 69.9965 29.8091 69.9965 29.9329C69.9965 30.0567 70.0281 30.1496 70.1231 30.2115C70.2181 30.3044 70.3131 30.3353 70.4397 30.3353C70.5663 30.3353 70.6613 30.3044 70.7563 30.2115C70.8513 30.1496 70.8829 30.0258 70.8829 29.902C70.8829 29.8091 70.8513 29.6853 70.7563 29.6234ZM68.8251 29.9329C68.6668 29.7472 68.4452 29.6234 68.2236 29.5305C67.9704 29.4376 67.6854 29.3757 67.4005 29.3757C67.1789 29.3757 66.9889 29.4067 66.799 29.4376C66.609 29.4995 66.4191 29.5615 66.2608 29.6853C66.1025 29.8091 65.9759 29.9329 65.8809 30.1186C65.691 30.4901 65.691 30.9235 65.8492 31.2949C65.9126 31.4497 66.0075 31.5735 66.1342 31.6664C66.2608 31.7592 66.3874 31.8521 66.5457 31.914C66.704 31.9759 66.8623 32.0378 67.0206 32.0688L67.4638 32.2235C67.5905 32.2545 67.7171 32.3164 67.8437 32.4093C67.9387 32.4712 68.0337 32.564 68.097 32.6569C68.1603 32.7807 68.192 32.9045 68.192 33.0284C68.192 33.1522 68.1603 33.276 68.097 33.3998C68.0337 33.4927 67.9704 33.5855 67.8754 33.6474C67.7804 33.7094 67.6854 33.7713 67.5588 33.8022C67.4322 33.8332 67.3372 33.8332 67.2106 33.8641C66.7673 33.8641 66.3558 33.6474 66.1025 33.3069L65.5643 33.7403C65.7543 33.9879 66.0075 34.1427 66.2925 34.2665C66.799 34.4832 67.3372 34.5142 67.8437 34.3594C68.0337 34.2975 68.2236 34.2046 68.3819 34.0808C68.5402 33.957 68.6668 33.8022 68.7618 33.6165C68.8568 33.3998 68.9201 33.1831 68.8884 32.9664C68.8884 32.7498 68.8568 32.564 68.7618 32.3783C68.6668 32.2235 68.5719 32.0997 68.4136 31.9759C68.2869 31.883 68.1286 31.7902 67.9387 31.7283C67.7487 31.6664 67.5905 31.6045 67.4322 31.5425L67.0523 31.4187C66.9256 31.3878 66.8307 31.3259 66.7357 31.264C66.6407 31.202 66.5774 31.1401 66.5141 31.0473C66.4508 30.9544 66.4191 30.8306 66.4191 30.7068C66.4191 30.583 66.4508 30.4591 66.5141 30.3663C66.5774 30.2734 66.6407 30.1805 66.7357 30.1186C66.8307 30.0567 66.9256 29.9948 67.0523 29.9639C67.1472 29.9329 67.2739 29.9329 67.4005 29.9329C67.5905 29.9329 67.7804 29.9639 67.9704 30.0567C68.1286 30.1186 68.2553 30.2425 68.3819 30.3663L68.8251 29.9329ZM62.0503 32.3164C61.7653 32.3164 61.4804 32.3164 61.2271 32.3474C60.9739 32.3783 60.7206 32.4093 60.4673 32.5021C60.2774 32.564 60.0874 32.6879 59.9292 32.8426C59.8025 32.9974 59.7075 33.2141 59.7392 33.4308C59.7392 33.5855 59.7709 33.7713 59.8658 33.8951C59.9292 34.0189 60.0241 34.1118 60.1508 34.2046C60.2774 34.2975 60.404 34.3284 60.5307 34.3594C60.6573 34.3903 60.8156 34.4213 60.9422 34.4213C61.1638 34.4213 61.3854 34.3903 61.607 34.2665C61.797 34.1737 61.9553 34.0189 62.0503 33.8641H62.0819C62.0819 34.0189 62.1136 34.1737 62.1452 34.3284H62.7467C62.7151 34.2356 62.7151 34.1118 62.7151 34.0189C62.7151 33.8951 62.7151 33.7713 62.7151 33.6784V32.2545C62.7151 32.0688 62.6834 31.914 62.6201 31.7592C62.5568 31.6045 62.4935 31.4806 62.3668 31.3568C62.2402 31.233 62.1136 31.1401 61.9236 31.0782C61.7337 31.0163 61.5121 30.9854 61.2905 30.9854C61.0372 30.9854 60.7839 31.0163 60.5307 31.1092C60.309 31.202 60.1191 31.2949 59.9292 31.4806L60.2774 31.883C60.5307 31.6354 60.8789 31.5116 61.2271 31.5116C61.4487 31.5116 61.6387 31.5735 61.8286 31.6973C61.9869 31.8211 62.0819 32.0378 62.0503 32.2235V32.3164ZM62.0503 32.7807V32.9355C62.0503 33.1831 61.9553 33.4308 61.797 33.6165C61.607 33.8022 61.3538 33.8951 61.1005 33.8951C61.0055 33.8951 60.9422 33.8951 60.8472 33.8641C60.7839 33.8332 60.6889 33.8332 60.6256 33.7713C60.5623 33.7403 60.499 33.6784 60.4673 33.6165C60.4357 33.5546 60.404 33.4617 60.404 33.3689C60.404 33.245 60.4357 33.1212 60.5307 33.0284C60.6256 32.9355 60.7523 32.8736 60.8789 32.8426C61.0372 32.8117 61.1955 32.7807 61.3538 32.7498C61.5437 32.7498 61.702 32.7188 61.8603 32.7188L62.0503 32.7807Z" fill="black"></path></g><defs><clipPath id="clip0_823_463"><rect width="126" height="36" fill="white"></rect></clipPath></defs></svg>