<svg xmlns="http://www.w3.org/2000/svg" width="363" height="361" viewBox="0 0 363 361" fill="none"><path d="M275.34 43.0034C298.763 78.2326 297.875 120.012 273.388 136.122C248.901 152.232 210.04 136.83 186.617 101.424C163.194 66.1945 164.082 24.5921 188.747 8.30525C213.234 -7.80459 251.917 7.77416 275.34 43.0034Z" fill="#D7FF65"></path><path d="M251.033 143.38C259.551 143.38 267.181 141.255 273.746 136.83C285.813 128.863 292.733 114.701 293.088 96.8205C293.443 79.1174 287.41 59.821 276.053 42.649C259.373 17.5105 233.821 1.22363 210.931 1.22363C202.413 1.22363 194.783 3.34801 188.218 7.77379C163.375 24.2377 162.311 66.5482 185.911 102.131C202.591 127.093 228.143 143.38 251.033 143.38ZM210.931 2.81691C233.289 2.81691 258.309 18.7497 274.634 43.5341C285.813 60.5291 291.846 79.2944 291.491 96.8205C291.136 114.17 284.571 127.801 272.859 135.59C266.649 139.662 259.196 141.786 251.033 141.786C228.675 141.786 203.656 125.854 187.331 101.069C164.263 66.1941 165.15 24.9458 189.105 9.01301C195.493 4.94129 202.768 2.81691 210.931 2.81691Z" fill="#0B0B0B"></path><path d="M233.394 37.0157L262.39 53.4736L261.6 54.8585L232.604 38.4006L233.394 37.0157Z" fill="#0B0B0B"></path><path d="M199.845 18.1374L223.448 31.5205L222.659 32.9057L199.056 19.5226L199.845 18.1374Z" fill="#0B0B0B"></path><path d="M211.98 41.9167L262.415 70.5371L261.625 71.922L211.19 43.3016L211.98 41.9167Z" fill="#0B0B0B"></path><path d="M223.024 39.3405L262.354 61.6592L261.564 63.0441L222.234 40.7254L223.024 39.3405Z" fill="#0B0B0B"></path><g clip-path="url(#clip0_3845_12378)"><path d="M20.0682 93.5598C13.0347 104.3 13.8622 117.312 22.1368 122.681C30.4115 128.051 42.6166 123.921 49.6501 113.181C56.6835 102.441 55.856 89.4291 47.5814 84.0592C39.5136 78.6892 27.1016 82.8199 20.0682 93.5598Z" fill="white"></path><path d="M30.2046 125.987C37.8586 125.987 45.5127 121.237 50.6843 113.595C54.2011 108.225 55.856 102.235 55.4422 96.4521C55.0285 90.6691 52.5461 85.9188 48.2019 83.0273C45.7195 81.375 42.6165 80.5488 39.5136 80.5488C31.8595 80.5488 24.2054 85.2992 19.0338 92.941C15.5171 98.311 13.8621 104.301 14.2759 110.084C14.6896 115.867 17.172 120.617 21.5162 123.508C23.9986 125.161 27.1016 125.987 30.2046 125.987ZM39.5136 82.8207C42.2028 82.8207 44.8921 83.6469 46.9607 84.8861C50.6843 87.3645 52.9599 91.4953 53.1667 96.6587C53.5805 101.822 51.9255 107.605 48.6157 112.562C44.0646 119.584 36.8243 123.921 29.9977 123.921C27.3084 123.921 24.6192 123.095 22.5505 121.856C18.8269 119.378 16.5514 115.247 16.3445 110.084C15.9308 104.92 17.5857 99.1371 20.8956 94.1802C25.6535 87.158 32.687 82.8207 39.5136 82.8207Z" fill="#0B0B0B"></path><path d="M24.8261 95.4188C15.9308 108.844 17.172 125.16 27.5153 131.976C37.8586 138.792 53.3736 133.422 62.062 119.997C70.9572 106.572 69.716 90.2554 59.3727 83.4397C49.0294 76.8306 33.5144 82.2005 24.8261 95.4188Z" fill="#D7FF65"></path><path d="M37.6518 136.107C46.9608 136.107 56.6835 130.324 63.0963 120.823C72.1985 106.985 70.9573 90.0495 60.2002 82.8207C57.0972 80.7553 53.3736 79.7227 49.4432 79.7227C40.1342 79.7227 30.4115 85.5057 23.9986 95.0064C19.6544 101.616 17.3789 109.257 17.9995 116.486C18.6201 123.715 21.7231 129.704 26.8947 133.009C29.7909 134.868 33.5145 136.107 37.6518 136.107ZM49.2363 81.788C52.753 81.788 56.0629 82.8207 58.7521 84.473C68.4749 90.8756 69.5092 106.572 61.0277 119.378C55.2354 128.259 46.1333 133.629 37.4449 133.629C33.9282 133.629 30.6183 132.596 27.9291 130.944C23.1712 127.846 20.4819 122.476 19.8613 116.073C19.4476 109.464 21.3093 102.235 25.4467 96.039C31.6527 87.3645 40.5479 81.788 49.2363 81.788Z" fill="#0B0B0B"></path><path d="M30.6184 95.8326C18.6201 113.182 19.8613 134.661 33.1008 143.956C46.5471 153.25 67.0268 146.434 79.0251 129.085C91.0233 111.736 89.7821 90.2561 76.5427 80.962C63.0964 71.8744 42.6166 78.4835 30.6184 95.8326Z" fill="#0B0B0B"></path><path d="M46.9608 149.325C59.1659 149.325 71.7847 141.89 80.0594 129.911C92.2645 112.149 91.0233 89.8428 77.1633 80.3422C73.0259 77.4506 68.0611 76.0049 62.6826 76.0049C50.4775 76.0049 37.8587 83.4402 29.584 95.4193C17.3789 113.181 18.6201 135.487 32.4801 144.988C36.6175 147.88 41.7891 149.325 46.9608 149.325ZM62.6826 78.0702C67.6474 78.0702 72.1985 79.516 75.9221 81.9944C88.7478 90.8755 89.7821 111.736 78.1976 128.672C70.3367 140.031 58.3384 147.26 46.9608 147.26C41.996 147.26 37.4449 145.814 33.7213 143.336C20.8956 134.455 19.8613 113.595 31.4458 96.6585C39.3067 85.0925 51.305 78.0702 62.6826 78.0702Z" fill="#0B0B0B"></path><path d="M35.9969 101.203C23.3781 120.204 25.033 143.336 39.7205 152.837C54.408 162.544 76.3359 154.902 88.7478 135.901C101.367 116.9 99.7118 93.7677 85.0242 84.267C70.5436 74.7663 48.6158 82.2016 35.9969 101.203Z" fill="#0B0B0B"></path><path d="M54.2011 158.206C67.4406 158.206 81.0937 149.945 89.7821 136.727C95.9881 127.433 99.0911 116.693 98.2636 106.779C97.4362 96.6586 93.092 88.3972 85.6448 83.6468C81.3006 80.7553 76.1289 79.3096 70.5436 79.3096C57.3041 79.3096 43.6509 87.571 34.9626 100.789C28.7566 110.084 25.6536 120.823 26.481 130.737C27.3085 140.857 31.6527 149.119 39.0999 153.869C43.4441 156.554 48.6157 158.206 54.2011 158.206ZM70.7504 81.1684C75.9221 81.1684 80.4731 82.6142 84.6105 85.0926C91.437 89.6364 95.5744 97.2782 96.195 106.572C96.8156 116.073 93.9194 126.193 88.1272 135.281C79.6457 147.88 66.82 155.728 54.408 155.728C49.2363 155.728 44.6853 154.282 40.5479 151.804C33.7214 147.26 29.7909 139.618 28.9634 130.324C28.3428 120.823 31.239 110.703 37.0312 101.616C45.3059 89.0168 58.3384 81.1684 70.7504 81.1684Z" fill="#0B0B0B"></path><path d="M22.9653 289.979C22.9653 318.481 59.5806 341.613 104.677 341.613C149.774 341.613 186.39 318.481 186.39 289.979C186.39 261.477 149.774 238.345 104.677 238.345C59.3738 238.345 22.9653 261.477 22.9653 289.979Z" fill="#0B0B0B"></path><path d="M104.678 342.645C150.188 342.645 187.424 319.1 187.424 289.978C187.424 261.063 150.395 237.312 104.678 237.312C59.167 237.312 21.9311 260.857 21.9311 289.978C21.9311 319.1 58.9601 342.645 104.678 342.645ZM104.678 239.377C149.154 239.377 185.355 262.096 185.355 289.978C185.355 317.861 149.154 340.58 104.678 340.58C60.2013 340.58 23.9998 317.861 23.9998 289.978C23.7929 262.096 59.9945 239.377 104.678 239.377Z" fill="#0B0B0B"></path><path d="M212.453 338.102L255.068 313.524C258.791 311.459 258.791 305.883 255.068 303.817L78.8175 202.614C74.2664 199.929 68.681 199.929 64.13 202.614L22.5499 226.986C18.8263 229.258 18.8263 234.421 22.5499 236.693L197.766 338.102C202.317 340.787 207.902 340.787 212.453 338.102Z" fill="#0B0B0B"></path><path d="M205.006 340.993C207.695 340.993 210.384 340.167 212.867 338.928L255.481 314.35C257.55 313.111 258.791 311.045 258.791 308.567C258.791 306.089 257.55 304.023 255.481 302.784L79.2312 201.581C74.4733 198.896 68.2673 198.896 63.5094 201.581L21.9293 225.952C19.8606 227.192 18.6194 229.257 18.6194 231.735C18.6194 234.007 19.8606 236.279 21.9293 237.518L197.145 338.928C199.627 340.374 202.317 340.993 205.006 340.993ZM71.3703 201.581C73.8527 201.581 76.1282 202.201 78.1969 203.44L254.447 304.643C255.895 305.469 256.722 306.915 256.722 308.567C256.722 310.219 255.895 311.665 254.447 312.491L211.833 337.069C207.695 339.548 202.317 339.548 198.179 337.069L22.9636 235.66C21.5156 234.833 20.6881 233.388 20.6881 231.735C20.6881 230.083 21.5156 228.637 22.9636 227.811L64.5437 203.44C66.6124 202.201 69.0948 201.581 71.3703 201.581Z" fill="#0B0B0B"></path><path d="M39.7228 298.446L93.3011 328.807C98.4728 331.698 104.679 331.698 109.644 328.807L153.292 305.881C153.292 305.881 149.569 310.218 149.983 299.685L150.396 289.978L82.1304 250.529L65.5811 261.682C65.5811 272.629 59.1682 282.336 49.4455 287.086L37.861 292.043V295.141C37.6541 296.38 38.4816 297.826 39.7228 298.446Z" fill="#0B0B0B"></path><path d="M101.369 331.905C104.472 331.905 107.368 331.079 110.057 329.633L151.844 307.74C152.879 307.74 153.913 306.708 153.913 306.501C154.12 306.088 154.327 305.675 153.913 305.262C153.706 304.849 153.086 304.849 152.672 305.056L151.431 305.675C151.224 305.262 150.603 304.023 150.81 299.686L151.224 289.978C151.224 289.565 151.017 289.359 150.81 289.152L82.5441 249.704C82.1304 249.497 81.7167 249.497 81.5098 249.704L64.9605 260.857C64.7536 261.063 64.5468 261.27 64.5468 261.683C64.5468 272.216 58.5476 281.717 49.0318 286.261L37.4473 291.218C37.0336 291.424 36.8267 291.631 36.8267 292.044V295.142C36.8267 297.001 37.6542 298.446 39.3091 299.479L92.8875 329.84C95.3698 331.286 98.266 331.905 101.369 331.905ZM149.776 306.708L109.023 327.981C104.265 330.666 98.266 330.666 93.508 327.981L39.9297 297.62C39.1022 297.001 38.4816 296.174 38.4816 295.142V292.663L49.4455 287.913C59.582 282.956 65.788 273.249 66.2017 262.096L81.7167 251.563L148.948 290.391L148.534 299.479C148.948 302.164 148.948 305.056 149.776 306.708Z" fill="#0B0B0B"></path><path d="M39.7227 295.554L93.3011 325.915C98.4727 328.807 104.679 328.807 109.644 325.915L117.298 322.404C127.02 317.86 133.226 308.359 133.64 297.62L134.054 287.912L65.7878 248.464V258.791C65.7878 269.737 59.375 279.444 49.6523 284.195L39.9296 288.945C37.0334 290.391 37.0334 294.108 39.7227 295.554Z" fill="#8B75F3"></path><path d="M101.369 329.013C104.472 329.013 107.368 328.187 110.057 326.741L117.711 323.23C127.641 318.479 134.261 308.772 134.674 297.619L135.088 287.912C135.088 287.499 134.881 287.292 134.674 287.086L66.4084 247.637C66.2016 247.431 65.7878 247.431 65.3741 247.637C65.1672 247.844 64.9604 248.05 64.9604 248.463V258.79C64.9604 269.324 58.9612 278.824 49.4454 283.368L39.7227 288.118C38.0677 288.945 37.2403 290.597 37.2403 292.456C37.2403 294.315 38.0677 295.76 39.7227 296.586L93.301 326.947C95.3697 328.187 98.2658 329.013 101.369 329.013ZM133.019 288.325L132.606 297.413C132.192 307.739 126.193 316.827 116.884 321.164L109.23 324.675C104.472 327.36 98.4727 327.36 93.7148 324.675L40.1364 294.315C39.3089 293.695 38.6883 292.869 38.6883 291.836C38.6883 290.803 39.3089 289.771 40.1364 289.358L49.8591 285.02C59.9956 280.064 66.4084 269.943 66.6153 258.79V250.116L133.019 288.325Z" fill="#8B75F3"></path><path d="M25.4472 228.224C23.3785 226.985 22.1373 224.507 22.3442 222.028L43.2377 55.7663L49.4437 52.6682C51.0986 51.8421 53.1673 51.8421 54.8222 52.8748L225.901 151.806C239.761 159.448 238.933 169.155 237.899 180.927L218.66 329.427C218.247 331.906 217.005 333.351 214.73 334.384L209.144 336.656L25.4472 228.224Z" fill="#0B0B0B"></path><path d="M209.144 337.689C209.351 337.689 209.351 337.689 209.558 337.689L215.35 335.417C218.04 334.177 219.488 332.319 219.902 329.634L239.14 180.927C240.174 169.155 241.002 158.828 226.521 150.98L55.6497 52.0486C53.7879 51.0159 51.3055 50.8093 49.2369 51.842L43.0309 54.9401C42.824 55.1466 42.6172 55.3531 42.4103 55.7662L21.5168 222.028C21.1031 224.92 22.5511 227.605 25.0335 229.05L208.731 337.482C208.731 337.482 208.938 337.689 209.144 337.689ZM52.133 53.2878C52.9605 53.2878 53.7879 53.4943 54.4085 53.9074L225.487 152.632C238.726 159.861 237.899 168.948 237.071 180.721V180.927L217.833 329.221C217.626 331.079 216.592 332.525 214.523 333.351L209.351 335.417L26.0679 227.191C24.2061 226.159 23.1717 224.093 23.5855 222.028L44.4789 56.3858L50.2712 53.4943C50.6849 53.2878 51.5124 53.2878 52.133 53.2878Z" fill="#0B0B0B"></path><path d="M19.6559 230.289C17.5872 229.05 16.346 226.572 16.5529 224.093L36.412 69.6039C37.2395 60.1032 41.7906 54.3202 47.5828 54.9398C48.824 55.1463 50.2721 55.5594 51.7201 56.3856L220.316 154.077C234.176 161.719 233.349 171.426 232.314 183.199L213.076 331.699C212.455 336.036 207.697 338.308 203.974 336.242L19.6559 230.289Z" fill="white"></path><path d="M206.87 337.895C210.387 337.895 213.489 335.21 213.903 331.699L233.142 182.993C234.176 171.22 235.004 160.893 220.523 153.045L52.3407 55.353C50.8926 54.5268 49.2377 53.9072 47.7896 53.9072C47.5828 53.9072 47.169 53.9072 46.9622 53.9072C40.7562 53.9072 36.2051 60.1033 35.3777 69.604L15.5185 224.093C15.1048 226.985 16.5528 229.67 19.0352 231.116L203.146 336.862C204.387 337.688 205.629 337.895 206.87 337.895ZM46.9622 55.9726C47.169 55.9726 47.3759 55.9726 47.5828 55.9726C48.824 56.1791 50.0652 56.5922 51.3064 57.2118L219.695 154.904C232.935 162.132 232.107 171.22 231.28 182.993V183.199L212.041 331.492C211.628 333.971 209.559 336.036 206.87 336.036C206.042 336.036 205.008 335.83 204.387 335.416L20.2764 229.67C18.4146 228.637 17.3803 226.572 17.794 224.506L37.4463 69.8105C38.0669 61.5491 41.9974 55.9726 46.9622 55.9726Z" fill="#0B0B0B"></path><path d="M23.5856 207.571L210.593 314.35L228.176 183.2C229.004 172.46 230.245 166.057 220.936 160.687L50.4783 61.9628C47.9958 60.5171 45.0997 61.1367 43.2379 62.9955C42.4105 63.8217 41.7899 65.0609 41.583 66.5067L23.5856 207.571Z" fill="#F1F0F0"></path><path d="M210.593 315.382C210.8 315.382 210.8 315.382 211.007 315.382C211.213 315.176 211.42 314.969 211.627 314.556L229.211 183.406L229.418 181.34C230.245 171.633 230.659 165.437 221.557 160.067L51.099 61.136C48.4097 59.4837 44.893 60.1033 42.6175 62.1686C41.5831 63.2013 40.7557 64.6471 40.7557 66.2994L22.7583 207.364C22.7583 207.777 22.9652 208.19 23.172 208.396L210.179 315.176C210.179 315.382 210.386 315.382 210.593 315.382ZM47.3754 61.9621C48.2029 61.9621 49.0303 62.1686 49.8578 62.5817L220.522 161.719C228.59 166.47 228.176 171.633 227.556 181.134L227.349 183.199L209.972 312.904L24.827 207.157L42.6175 66.7124C42.8243 65.4732 43.2381 64.6471 44.0655 63.8209C44.893 62.5817 46.1342 61.9621 47.3754 61.9621Z" fill="#0B0B0B"></path><path d="M26.4829 141.686L12.416 133.218C9.72676 131.565 6.21003 131.565 3.3139 133.218C0.210903 135.077 0.210903 139.414 3.3139 141.273L25.0349 153.665L26.4829 141.686Z" fill="#0B0B0B"></path><path d="M24.8281 154.491C25.0349 154.491 25.0349 154.491 25.2418 154.491C25.4487 154.284 25.6555 154.078 25.8624 153.664L27.5173 141.892C27.5173 141.479 27.3105 141.066 27.1036 140.859L13.0367 132.391C9.9337 130.532 6.00326 130.532 2.90026 132.391C1.24533 133.424 0.00411797 135.283 0.00411797 137.142C0.00411797 139.207 1.03846 141.066 2.69339 142.098L24.4143 154.491C24.6212 154.491 24.8281 154.491 24.8281 154.491ZM25.4487 142.305L24.2075 152.012L3.72772 140.446C2.69339 139.827 1.86591 138.587 2.07278 137.348C2.07278 136.109 2.6934 134.87 3.9346 134.25C6.41699 132.804 9.51997 132.804 12.0024 134.25L25.4487 142.305Z" fill="#0B0B0B"></path><path d="M0.829891 136.937V155.525C0.829891 158.21 2.27796 160.688 4.55349 161.927L40.9619 182.581L35.3766 169.156L46.9611 165.645L2.89856 141.274C1.45049 140.448 0.623013 138.795 0.623013 137.35C0.82988 137.143 0.829891 137.143 0.829891 136.937Z" fill="#B5FDEA"></path><path d="M41.1689 183.613C41.3758 183.613 41.5826 183.613 41.7895 183.406C42.2032 183.2 42.2032 182.58 41.9964 182.374L36.8247 169.775L47.3749 166.47C47.7886 166.264 47.9955 166.057 47.9955 165.644C47.9955 165.231 47.7886 164.818 47.5818 164.612L3.7261 140.447C2.69177 139.827 2.07117 138.588 2.07117 137.349C2.07117 136.936 1.86431 136.523 1.65744 136.316C1.45058 136.109 1.03684 136.109 0.623112 136.316C0.416245 136.523 0.209385 136.729 0.209385 137.142V155.73C0.209385 158.829 1.86432 161.513 4.34671 162.959L40.7552 183.613C40.7552 183.613 40.962 183.613 41.1689 183.613ZM44.6856 165.438L35.1698 168.329C34.9629 168.329 34.756 168.536 34.5492 168.949C34.3423 169.155 34.3423 169.568 34.5492 169.775L39.1002 180.721L5.17416 161.307C3.1055 160.274 1.86432 158.002 1.86432 155.73V141.686C2.07119 141.893 2.27804 142.099 2.69177 142.306L44.6856 165.438Z" fill="#0B0B0B"></path><path d="M119.928 136.954C138.483 142.953 156.568 165.039 156.295 184.183C156.168 204.065 134.936 210.364 114.392 200.913C96.7943 192.272 84.4525 173.153 84.7265 156.819C85.0002 140.484 100.573 130.566 119.917 136.954" fill="#D7FF65"></path><path d="M140.507 182.836C137.406 177.16 134.319 171.592 131.246 166.133C129.106 167.965 126.955 169.743 124.794 171.469C122.717 167.701 120.637 164.007 118.553 160.387C116.49 161.958 114.424 163.463 112.354 164.902C110.368 161.436 108.382 158.04 106.397 154.714C103.555 156.545 100.717 158.226 97.8821 159.755C100.59 164.456 103.253 169.301 105.87 174.29C107.954 173.259 110.052 172.167 112.164 171.017C114.059 174.728 115.939 178.521 117.805 182.394C120.086 181.152 122.352 179.812 124.605 178.374C126.632 182.464 128.667 186.646 130.709 190.919C134.007 188.47 137.273 185.776 140.507 182.836Z" fill="#0B0B0B"></path><path d="M121.435 248.258L124.331 229.463L125.365 230.083L122.469 248.877L121.435 248.258Z" fill="#C3B9B9"></path><path d="M124.951 248.464L127.434 231.941L128.261 232.561L125.779 249.084L124.951 248.464Z" fill="#C3B9B9"></path><path d="M128.261 247.844L130.123 235.452L131.157 236.072L129.296 248.464L128.261 247.844Z" fill="#C3B9B9"></path><path d="M131.157 251.356L133.64 234.833L134.674 235.453L132.192 251.976L131.157 251.356Z" fill="#C3B9B9"></path><path d="M134.674 250.736L136.536 238.344L137.364 238.963L135.502 251.356L134.674 250.736Z" fill="#C3B9B9"></path><path d="M137.363 254.247L140.053 237.724L140.88 238.343L138.398 254.866L137.363 254.247Z" fill="#C3B9B9"></path><path d="M140.88 253.628L142.742 241.235L143.776 241.855L141.914 254.247L140.88 253.628Z" fill="#C3B9B9"></path><path d="M159.291 265.606L162.187 246.812L163.015 247.431L160.326 266.226L159.291 265.606Z" fill="#C3B9B9"></path><path d="M162.601 265.814L165.083 249.291L166.118 249.911L163.635 266.434L162.601 265.814Z" fill="#C3B9B9"></path><path d="M166.118 265.194L167.98 252.802L168.807 253.421L166.945 265.814L166.118 265.194Z" fill="#C3B9B9"></path><path d="M168.807 268.705L171.496 252.182L172.324 252.801L169.841 269.324L168.807 268.705Z" fill="#C3B9B9"></path><path d="M172.324 268.086L174.186 255.693L175.22 256.313L173.358 268.705L172.324 268.086Z" fill="#C3B9B9"></path><path d="M175.22 271.596L177.702 255.073L178.737 255.693L176.047 272.216L175.22 271.596Z" fill="#C3B9B9"></path><path d="M178.737 270.976L180.599 258.584L181.426 259.204L179.564 271.596L178.737 270.976Z" fill="#C3B9B9"></path><path d="M181.84 272.422L183.701 260.03L184.529 260.65L182.667 273.042L181.84 272.422Z" fill="#C3B9B9"></path><path d="M143.776 257.139L146.259 240.822L147.086 241.442L144.811 257.758L143.776 257.139Z" fill="#C3B9B9"></path><path d="M150.396 257.344L152.051 246.191L153.085 246.811L151.43 257.964L150.396 257.344Z" fill="#C3B9B9"></path><path d="M146.466 261.063L149.775 239.583L150.81 240.203L147.5 261.682L146.466 261.063Z" fill="#C3B9B9"></path><path d="M113.16 236.072L115.643 219.756L116.677 220.375L114.194 236.692L113.16 236.072Z" fill="#C3B9B9"></path><path d="M115.022 246.812L118.332 225.126L119.366 225.746L116.056 247.432L115.022 246.812Z" fill="#C3B9B9"></path><path d="M117.504 251.975L122.055 222.854L123.09 223.267L118.539 252.595L117.504 251.975Z" fill="#C3B9B9"></path><path d="M152.258 267.878L156.602 238.55L157.636 239.169L153.085 268.498L152.258 267.878Z" fill="#C3B9B9"></path><path d="M154.947 271.802L160.119 237.724L161.153 238.343L155.981 272.215L154.947 271.802Z" fill="#C3B9B9"></path><path d="M49.859 210.255L52.7551 191.46L53.7894 192.08L50.8933 210.874L49.859 210.255Z" fill="#C3B9B9"></path><path d="M53.1689 210.668L55.6513 193.938L56.6857 194.558L54.2033 211.081L53.1689 210.668Z" fill="#C3B9B9"></path><path d="M56.6857 209.842L58.5475 197.656L59.5818 198.276L57.72 210.462L56.6857 209.842Z" fill="#C3B9B9"></path><path d="M59.5817 213.56L62.0641 196.83L62.8916 197.45L60.4092 213.973L59.5817 213.56Z" fill="#C3B9B9"></path><path d="M62.8917 212.733L64.7535 200.547L65.7878 201.166L63.9261 213.352L62.8917 212.733Z" fill="#C3B9B9"></path><path d="M65.7878 216.452L68.2702 199.723L69.3046 200.342L66.8222 216.865L65.7878 216.452Z" fill="#C3B9B9"></path><path d="M69.3046 215.625L71.1664 203.439L71.9939 203.853L70.1321 216.245L69.3046 215.625Z" fill="#C3B9B9"></path><path d="M87.7156 227.604L90.4049 208.81L91.4392 209.429L88.5431 228.224L87.7156 227.604Z" fill="#C3B9B9"></path><path d="M91.0255 227.811L93.5079 211.288L94.3353 211.908L91.8529 228.431L91.0255 227.811Z" fill="#C3B9B9"></path><path d="M94.3353 227.191L96.1971 214.799L97.2314 215.418L95.3696 227.811L94.3353 227.191Z" fill="#C3B9B9"></path><path d="M97.2314 230.702L99.7138 214.179L100.748 214.798L98.2658 231.321L97.2314 230.702Z" fill="#C3B9B9"></path><path d="M100.748 230.083L102.61 217.69L103.644 218.31L101.576 230.702L100.748 230.083Z" fill="#C3B9B9"></path><path d="M103.438 233.593L106.127 217.07L106.954 217.69L104.472 234.213L103.438 233.593Z" fill="#C3B9B9"></path><path d="M106.954 232.974L108.816 220.582L109.85 221.202L107.989 233.594L106.954 232.974Z" fill="#C3B9B9"></path><path d="M110.057 234.421L111.919 222.028L112.953 222.648L111.091 235.04L110.057 234.421Z" fill="#C3B9B9"></path><path d="M71.9938 219.136L74.4762 202.819L75.5105 203.439L73.0281 219.755L71.9938 219.136Z" fill="#C3B9B9"></path><path d="M78.8203 219.343L80.4752 208.396L81.5095 209.016L79.6477 219.963L78.8203 219.343Z" fill="#C3B9B9"></path><path d="M74.89 223.267L78.1999 201.581L79.0273 202.201L75.7175 223.887L74.89 223.267Z" fill="#C3B9B9"></path><path d="M41.5844 198.069L44.0667 181.959L45.1011 182.372L42.6187 198.688L41.5844 198.069Z" fill="#C3B9B9"></path><path d="M43.4463 208.809L46.7562 187.123L47.5836 187.743L44.2738 209.429L43.4463 208.809Z" fill="#C3B9B9"></path><path d="M45.9286 213.972L50.4797 184.851L51.3071 185.47L46.9629 214.592L45.9286 213.972Z" fill="#C3B9B9"></path><path d="M80.4753 229.876L85.0263 200.754L86.0607 201.167L81.5096 230.495L80.4753 229.876Z" fill="#C3B9B9"></path><path d="M83.3714 233.8L86.8882 209.842L87.9225 210.461L84.1989 234.42L83.3714 233.8Z" fill="#C3B9B9"></path><path d="M197.975 266.02L195.907 279.031L188.666 269.531L197.975 266.02Z" fill="#0B0B0B"></path><path d="M195.907 279.858H196.114C196.527 279.858 196.734 279.445 196.941 279.032L199.01 266.02C199.01 265.607 199.01 265.4 198.596 265.194C198.389 264.987 197.975 264.987 197.562 264.987L188.459 268.498C188.253 268.705 188.046 268.911 187.839 269.118C187.839 269.325 187.839 269.738 188.046 269.944L195.286 279.445C195.286 279.858 195.493 279.858 195.907 279.858ZM196.734 267.466L195.286 276.553L190.321 269.944L196.734 267.466Z" fill="#0B0B0B"></path><path d="M212.247 197.449C199.628 216.45 201.283 239.582 215.97 249.083C230.658 258.79 252.586 251.148 264.997 232.147C277.616 213.145 275.961 190.013 261.274 180.513C246.793 171.012 224.659 178.654 212.247 197.449Z" fill="#0B0B0B"></path><path d="M230.244 254.453C243.483 254.453 257.136 246.191 265.825 232.973C272.031 223.679 275.134 212.939 274.306 203.025C273.479 192.905 269.135 184.643 261.688 179.893C257.343 177.001 252.172 175.556 246.586 175.556C233.347 175.556 219.694 183.817 211.005 197.035C204.799 206.33 201.696 217.069 202.524 226.983C203.351 237.104 207.695 245.365 215.143 250.115C219.694 253.007 224.865 254.453 230.244 254.453ZM246.793 177.621C251.965 177.621 256.516 179.067 260.653 181.545C267.48 186.089 271.41 193.731 272.238 203.025C272.858 212.526 269.962 222.646 264.17 231.734C255.688 244.332 242.863 252.181 230.451 252.181C225.279 252.181 220.728 250.735 216.591 248.257C209.764 243.713 205.627 236.071 205.006 226.777C204.386 217.276 207.282 207.156 213.074 198.068C221.555 185.469 234.381 177.621 246.793 177.621Z" fill="#0B0B0B"></path><path d="M217.418 201.582C205.42 218.931 206.661 240.41 219.901 249.705C233.347 258.999 253.827 252.183 265.825 234.834C277.823 217.485 276.582 196.005 263.343 186.711C250.103 177.623 229.417 184.233 217.418 201.582Z" fill="#B5FDEA"></path><path d="M233.967 254.867C246.173 254.867 258.791 247.432 267.066 235.453C279.271 217.691 278.03 195.385 264.17 185.884C260.033 182.993 255.068 181.547 249.689 181.547C237.484 181.547 224.865 188.982 216.591 200.961C204.386 218.723 205.627 241.029 219.487 250.53C223.624 253.422 228.589 254.867 233.967 254.867ZM249.482 183.612C254.447 183.612 258.998 185.058 262.722 187.536C275.548 196.418 276.582 217.278 264.997 234.214C257.137 245.573 245.138 252.802 233.761 252.802C228.796 252.802 224.245 251.356 220.521 248.878C207.695 239.997 206.661 219.137 218.246 202.201C226.313 190.841 238.105 183.612 249.482 183.612Z" fill="#0B0B0B"></path><path d="M230.658 209.427C221.762 222.852 223.004 239.168 233.347 245.777C243.69 252.593 259.205 247.223 267.894 233.798C276.789 220.373 275.548 204.057 265.204 197.448C254.861 190.838 239.553 196.208 230.658 209.427Z" fill="#D7FF65"></path><path d="M243.483 250.115C252.792 250.115 262.515 244.332 268.928 234.831C273.272 228.222 275.548 220.58 274.927 213.351C274.306 206.123 271.203 200.133 266.032 196.829C262.929 194.763 259.205 193.73 255.275 193.73C245.966 193.73 236.243 199.513 229.83 209.014C225.486 215.623 223.21 223.265 223.831 230.287C224.452 237.516 227.555 243.506 232.726 246.81C235.829 248.876 239.553 250.115 243.483 250.115ZM255.068 195.796C258.585 195.796 261.894 196.829 264.584 198.481C269.342 201.579 272.031 206.949 272.652 213.351C273.065 219.961 271.203 227.189 267.066 233.385C261.274 242.267 252.172 247.637 243.483 247.637C239.967 247.637 236.657 246.604 233.968 244.952C229.21 241.853 226.52 236.484 225.9 230.081C225.486 223.472 227.348 216.243 231.485 210.047C237.484 201.372 246.38 195.796 255.068 195.796Z" fill="#0B0B0B"></path><path d="M239.139 214.797C232.106 225.537 232.933 238.549 241.208 243.919C249.482 249.289 261.688 245.158 268.721 234.418C275.754 223.678 274.927 210.666 266.652 205.296C258.585 199.927 246.173 204.057 239.139 214.797Z" fill="#8B75F3"></path><path d="M249.276 247.224C256.93 247.224 264.584 242.474 269.755 234.832C277.203 223.679 275.961 210.048 267.273 204.265C264.791 202.612 261.688 201.786 258.585 201.786C250.931 201.786 243.277 206.536 238.105 214.178C230.658 225.331 231.899 238.963 240.587 244.746C243.07 246.398 246.173 247.224 249.276 247.224ZM258.585 204.058C261.274 204.058 263.963 204.884 266.032 206.123C273.686 211.287 274.513 223.472 267.894 233.593C263.343 240.615 256.102 244.952 249.276 244.952C246.586 244.952 243.897 244.126 241.828 242.887C234.174 237.723 233.347 225.538 239.967 215.418C244.725 208.395 251.758 204.058 258.585 204.058Z" fill="#0B0B0B"></path><path d="M245.345 218.928C241.001 225.537 241.208 233.592 245.966 236.69C250.724 239.788 258.171 236.897 262.515 230.288C266.859 223.679 266.652 215.624 261.894 212.526C257.136 209.428 249.689 212.319 245.345 218.928Z" fill="#F1F0F0"></path><path d="M39.7201 20.2411L69.7157 11.36C69.7157 11.36 158.048 55.5588 206.041 84.6805C228.382 98.1054 242.656 121.857 244.311 148.087L248.862 226.778L264.17 215.831C266.032 214.592 267.066 212.527 267.066 210.255V152.631C267.066 119.379 249.069 88.3981 220.314 71.6687L109.848 7.84891C94.126 -1.2387 75.3011 -1.2387 59.3724 7.84891L39.7201 20.2411Z" fill="#8B75F3"></path><path d="M248.862 227.81C249.069 227.81 249.276 227.81 249.483 227.603L264.791 216.657C266.859 215.211 268.1 212.733 268.1 210.254V152.63C268.1 118.965 249.896 87.5715 220.935 70.842L110.262 7.02224C102.401 2.47844 93.5054 0 84.6101 0C75.7149 0 66.8196 2.47844 58.9587 7.02224L39.3064 19.4144C38.8927 19.621 38.6858 20.034 38.6858 20.4471C38.6858 21.0667 39.0995 21.4798 39.7201 21.4798C39.927 21.4798 39.927 21.4798 40.1339 21.4798L69.5089 12.5987C76.1286 15.6968 159.703 57.8302 205.42 85.5061C227.555 98.931 241.622 122.27 243.07 148.087L247.621 226.777C247.621 227.19 247.828 227.603 248.241 227.81C248.448 227.81 248.655 227.81 248.862 227.81ZM84.6101 2.2719C93.0916 2.2719 101.78 4.5438 109.227 8.88107L219.901 72.7008C248.241 89.2238 266.032 119.791 266.032 152.63V210.048C266.032 211.906 265.204 213.559 263.549 214.591L249.689 224.505L245.345 147.88C243.897 121.443 229.416 97.2787 206.661 83.6473C159.082 54.9387 71.1638 10.7399 70.1295 10.3268C69.9226 10.1203 69.5089 10.1203 69.302 10.3268L47.1673 16.936L59.993 8.88107C67.4402 4.5438 75.9217 2.2719 84.6101 2.2719Z" fill="#0B0B0B"></path><path d="M17.9993 61.7543V101.616C17.9993 102.442 18.2061 103.268 18.6199 103.888C19.0336 99.9635 20.6885 95.6263 23.1709 91.9086C23.7915 90.8759 24.619 89.8432 25.4464 88.8106V61.7543C25.4464 46.264 33.5142 32.4261 46.9605 24.7842C60.4068 17.1424 76.3355 17.1424 89.7818 24.7842L200.248 88.604C226.727 103.888 243.277 132.39 243.277 162.957V223.266C243.277 225.331 244.932 226.983 247 226.983C249.069 226.983 250.724 225.331 250.724 223.266V162.957C250.724 129.705 232.726 98.7243 203.972 81.9949L93.5054 18.1751C77.7836 9.08747 58.9588 9.08747 43.0301 18.1751C27.3082 27.2627 17.9993 43.5791 17.9993 61.7543Z" fill="#0B0B0B"></path><path d="M247 228.222C249.689 228.222 251.965 225.95 251.965 223.265V162.957C251.965 129.291 233.761 97.8977 204.799 81.1682L94.126 17.1419C86.0582 12.5981 77.163 10.3262 68.2678 10.3262C59.3725 10.3262 50.4772 12.8046 42.6163 17.3484C26.4808 26.6426 16.9649 43.372 16.9649 61.9603V101.822C16.9649 102.855 17.1718 103.887 17.7924 104.713C17.9993 105.126 18.6198 105.333 19.0336 105.126C19.4473 104.92 19.8611 104.713 19.8611 104.094C20.2748 100.17 21.9297 96.0388 24.2052 92.5277C24.8258 91.495 25.6533 90.4623 26.4808 89.6362C26.6876 89.4297 26.6876 89.2231 26.6876 88.81V61.7538C26.6876 46.6766 34.5486 33.2517 47.5811 25.6099C60.4068 18.1746 76.5424 18.1746 89.3681 25.6099L199.628 89.4296C225.693 104.507 242.035 132.596 242.035 162.75V223.059C242.035 225.95 244.311 228.222 247 228.222ZM68.2678 12.3915C76.7493 12.3915 85.4377 14.87 92.8848 19.2072L203.558 83.027C231.899 99.5499 249.689 130.117 249.689 162.957V223.265C249.689 224.711 248.448 225.95 247 225.95C245.552 225.95 244.311 224.711 244.311 223.265V162.957C244.311 131.976 227.555 103.061 200.869 87.5708L90.4024 23.751C83.5759 19.8269 76.1287 17.7615 68.4746 17.7615C60.8206 17.7615 53.1665 19.8269 46.5468 23.751C32.6868 31.5994 24.619 45.8505 24.619 61.7538V88.397C23.7915 89.2231 23.1709 90.2558 22.5503 91.2885C21.3091 93.3539 20.0679 95.4192 19.4473 97.4846V61.7538C19.4473 43.9916 28.7563 28.0883 44.0644 19.2072C51.3047 14.6634 59.7862 12.3915 68.2678 12.3915Z" fill="#0B0B0B"></path></g><g clip-path="url(#clip1_3845_12378)"><path d="M314.253 238.903C287.603 238.903 268.281 250.123 268.281 260.023C268.281 261.343 268.281 262.003 268.948 263.323C270.28 265.303 272.945 267.283 275.61 269.263C284.272 274.543 297.597 278.503 313.587 278.503C330.243 278.503 343.568 274.543 351.563 269.263C354.228 267.283 356.893 265.303 358.226 263.323C358.892 262.003 358.892 261.343 358.892 260.023C359.558 250.123 340.903 238.903 314.253 238.903Z" fill="white"></path><path d="M314.253 279.162C298.929 279.162 284.938 275.863 275.61 269.923C272.945 267.943 270.28 265.963 268.948 263.983C268.281 262.663 268.281 261.343 268.281 260.683C268.281 250.123 287.603 238.243 314.919 238.243C342.236 238.243 361.557 250.123 361.557 260.683C361.557 262.003 361.557 263.323 360.891 263.983C359.558 265.963 356.893 267.943 354.228 269.923C343.568 275.863 329.577 279.162 314.253 279.162ZM269.614 262.663C270.947 264.643 273.612 266.623 276.277 267.943C285.604 273.883 298.929 277.182 314.253 277.182C328.91 277.182 342.902 273.883 352.229 267.943C354.894 265.963 356.893 264.643 358.892 262.663C359.558 261.343 359.558 260.683 359.558 260.023C359.558 250.123 340.903 239.563 314.919 239.563C288.269 239.563 270.28 250.123 270.28 260.023C268.948 260.683 269.614 262.003 269.614 262.663Z" fill="#0B0B0B"></path><path d="M275.61 269.262C284.272 274.542 297.597 278.502 313.587 278.502C330.243 278.502 343.568 274.542 351.563 269.262C342.902 263.982 329.577 260.022 313.587 260.022C297.597 260.022 284.272 263.982 275.61 269.262Z" fill="#0B0B0B"></path><path d="M314.253 279.162C298.929 279.162 284.938 275.862 275.61 269.922L274.278 269.262L275.61 268.602C284.938 262.662 298.929 259.362 314.253 259.362C329.577 259.362 343.568 262.662 352.896 268.602L354.228 269.262L352.896 269.922C343.568 275.862 329.577 279.162 314.253 279.162ZM277.609 269.262C286.937 274.542 300.262 277.842 314.253 277.842C328.244 277.842 341.569 274.542 350.897 269.262C341.569 263.982 328.244 260.682 314.253 260.682C299.595 260.682 286.27 263.982 277.609 269.262Z" fill="#0B0B0B"></path><path d="M342.902 273.883C336.906 275.863 330.243 277.843 322.248 278.503C319.583 278.503 316.918 279.163 314.253 279.163C309.589 279.163 305.592 279.163 301.594 278.503C280.274 275.863 266.283 266.623 266.283 258.044V339.882C266.283 343.842 269.614 348.462 275.61 352.422C281.607 356.382 290.934 359.682 301.594 361.002C305.592 361.662 309.589 361.662 314.253 361.662C316.918 361.662 319.583 361.662 322.248 361.002C330.243 360.342 336.906 359.022 342.902 356.382C354.228 352.422 361.557 345.822 361.557 339.882V256.724C361.557 258.044 361.557 258.704 360.891 260.024C358.892 265.303 352.896 269.923 342.902 273.883Z" fill="#A997FD"></path><path d="M314.253 361.002C310.255 361.002 305.592 361.002 301.594 360.342C290.934 359.022 282.273 355.722 275.61 351.762C269.614 347.802 266.283 343.182 266.283 338.562V256.724H267.615C267.615 263.984 280.274 273.883 302.26 276.523C308.257 277.843 315.586 277.843 322.248 277.183C329.577 276.523 336.239 275.203 342.902 272.563C352.229 269.263 358.226 264.644 360.224 259.364C360.891 258.044 360.891 257.384 360.891 256.724H362.223V338.562C362.223 345.162 354.894 351.762 342.902 356.382C336.906 358.362 329.577 360.342 322.248 361.002C319.583 361.002 316.918 361.002 314.253 361.002ZM267.615 262.664V338.562C267.615 342.522 270.947 346.482 276.277 350.442C282.939 354.402 291.6 357.702 301.594 358.362C308.257 359.022 315.586 359.022 322.248 359.022C329.577 358.362 336.239 357.042 342.902 354.402C354.228 350.442 360.891 344.502 360.891 338.562V262.004C358.226 266.623 352.229 271.243 343.568 273.883C337.572 275.863 330.243 277.843 322.914 278.503C316.252 279.163 308.923 279.163 301.594 277.843C284.938 276.523 271.613 269.923 267.615 262.664Z" fill="#0B0B0B"></path><path d="M314.253 235.604C287.603 235.604 268.948 246.163 266.949 255.403C266.949 256.063 266.949 256.723 266.949 256.723V257.383V258.703V259.363V260.023V260.683C266.949 261.343 267.615 261.343 267.615 262.003C268.948 263.323 269.614 263.983 270.946 264.643L271.613 265.303C272.279 265.963 272.945 265.963 273.611 267.283C274.278 267.943 274.278 267.943 274.944 268.603C274.944 268.603 275.61 269.263 276.277 269.263C276.943 269.923 277.609 269.923 278.275 270.583L279.608 271.243C281.607 271.903 283.605 273.223 285.604 273.883C286.27 273.883 286.27 273.883 286.937 274.543C287.603 274.543 288.269 275.203 289.602 275.203C290.268 275.203 290.934 275.863 291.6 275.863H292.933L295.598 276.523C298.263 277.183 300.928 277.183 303.593 277.843H304.925H308.923H314.253H316.918H319.583H323.58H325.579L328.244 277.183C328.244 277.183 330.909 276.523 331.575 276.523C332.242 276.523 332.908 276.523 333.574 275.863L334.907 275.203C335.573 275.203 338.904 273.883 338.904 273.883L340.237 273.223C342.902 272.563 344.9 271.243 347.566 270.583L348.898 271.243L350.897 270.583C351.563 270.583 352.229 269.923 352.229 269.923L352.896 269.263C354.228 268.603 354.894 267.943 356.227 266.623C356.893 265.963 357.559 265.963 357.559 265.303L358.226 264.643C359.558 263.323 360.224 262.003 360.891 260.683V260.023V259.363V258.703V258.043C360.891 257.383 360.891 256.723 360.891 256.723C359.558 245.503 340.903 235.604 314.253 235.604ZM355.561 263.323C346.899 270.583 331.575 275.203 314.253 275.203C296.93 275.203 281.607 270.583 272.279 263.323C268.948 260.683 268.948 256.063 270.946 253.423C276.943 246.163 292.267 238.903 314.253 238.903C336.239 238.903 351.563 246.163 357.559 253.423C359.558 256.063 358.892 260.683 355.561 263.323Z" fill="white"></path><path d="M314.253 238.243C295.598 238.243 277.609 244.183 270.947 252.763C268.282 256.063 268.948 260.023 272.279 263.323C275.61 265.963 288.269 275.203 314.253 275.203C331.576 275.203 346.899 270.583 355.561 263.323C358.892 260.683 359.558 256.063 356.893 252.763C350.231 244.183 332.908 238.243 314.253 238.243ZM355.561 263.323C347.566 269.923 333.574 275.203 314.253 275.203C294.932 275.203 280.274 269.923 272.945 263.323C270.28 260.683 268.948 256.723 271.613 253.423C277.609 245.503 293.599 238.903 314.919 238.903C335.573 238.903 351.563 245.503 358.226 253.423C359.558 256.063 358.226 260.683 355.561 263.323Z" fill="#0B0B0B"></path><path d="M314.253 276.522C288.269 276.522 275.61 267.282 272.279 263.983C268.948 260.683 268.282 256.063 270.947 252.763C278.275 243.523 295.598 237.583 314.919 237.583C334.241 237.583 351.563 243.523 358.892 252.763C361.557 256.063 360.891 261.343 356.893 264.643C347.566 271.902 331.576 276.522 314.253 276.522ZM314.253 239.563C292.933 239.563 277.609 246.823 271.613 254.083C269.614 256.723 270.28 260.683 272.945 262.663C281.607 269.922 296.93 274.542 314.253 274.542C330.909 274.542 346.233 269.922 354.894 262.663C357.559 260.683 358.892 256.723 356.227 254.083C350.897 246.823 335.573 239.563 314.253 239.563Z" fill="#0B0B0B"></path><path d="M271.613 296.322L279.608 292.362C280.94 291.702 282.273 290.382 282.273 289.062C282.939 287.742 282.273 286.422 281.607 285.102C280.94 283.122 278.941 282.462 276.943 282.462C276.276 282.462 274.944 282.462 274.278 283.122L266.283 287.082C251.625 294.342 242.964 308.861 242.964 325.361C242.964 333.281 246.295 339.221 251.625 342.521C254.29 343.841 256.955 344.501 259.62 344.501C263.618 344.501 267.615 343.181 270.946 341.201L279.608 337.241C280.94 336.581 282.273 335.921 282.273 334.601C282.939 333.281 282.273 331.961 281.607 330.641C280.94 328.661 278.941 328.001 276.943 328.001C276.276 328.001 274.944 328.001 274.278 328.661L266.283 332.621C263.618 333.941 261.619 334.601 259.62 334.601C258.288 334.601 257.621 334.601 256.955 333.941C254.956 332.621 253.624 329.981 253.624 326.021C254.29 312.821 260.286 302.262 271.613 296.322Z" fill="#8B75F3"></path><path d="M260.286 345.821C256.955 345.821 254.29 345.161 251.625 343.841C245.629 340.541 242.298 333.941 242.298 325.361C242.298 308.201 250.959 293.682 266.283 286.422L274.278 282.462C274.944 281.802 276.276 281.802 276.943 281.802C279.608 281.802 281.606 283.122 282.273 285.102C282.939 286.422 282.939 288.402 282.939 289.722C282.273 291.042 281.606 292.362 279.608 293.022L271.613 296.981C260.953 302.261 254.29 312.821 254.29 325.361C254.29 328.661 255.623 331.961 256.955 332.621C258.954 333.941 261.619 333.281 265.616 331.301L273.611 327.341C274.278 326.681 275.61 326.681 276.276 326.681C278.941 326.681 280.94 328.001 281.606 329.981C282.273 331.301 282.273 333.281 282.273 334.601C281.606 335.921 280.94 337.241 278.941 337.901L270.946 341.861C268.281 344.501 263.618 345.821 260.286 345.821ZM277.609 283.122C276.943 283.122 276.276 283.122 275.61 283.782L267.615 287.742C253.624 295.002 244.963 309.521 244.963 325.361C244.963 333.281 247.628 338.561 252.958 341.861C258.288 345.161 264.95 344.501 272.279 340.541L280.274 336.581C281.606 335.921 282.273 335.261 282.273 333.941C282.273 332.621 282.273 331.301 282.273 330.641C280.94 328.661 278.275 327.341 276.276 328.661L268.281 332.621C264.284 334.601 260.286 335.261 258.288 333.941C256.289 332.621 254.956 329.321 254.956 325.361C254.956 312.821 261.619 301.601 272.945 295.662L280.94 291.702C282.273 291.042 282.939 290.382 282.939 289.062C283.605 287.742 282.939 286.422 282.939 285.762C280.274 283.782 278.941 283.122 277.609 283.122Z" fill="#0B0B0B"></path><path d="M271.613 296.981L279.608 293.022C282.273 291.042 283.605 287.742 282.273 285.102C281.607 283.122 279.608 281.802 277.609 281.802C276.943 281.802 275.61 281.802 274.944 282.462L266.949 286.422C252.291 294.342 243.63 308.201 243.63 325.361C243.63 333.281 246.961 339.881 252.291 342.521C254.956 343.841 257.621 344.501 260.286 344.501C264.284 344.501 268.281 343.181 272.279 341.201L280.274 337.241C282.273 336.581 283.605 333.281 282.273 329.981C281.607 328.001 279.608 326.681 277.609 326.681C276.943 326.681 275.61 326.681 274.944 327.341L266.949 331.301C264.284 332.621 262.285 333.281 260.286 333.281C258.954 333.281 258.288 333.281 257.621 332.621C255.623 331.301 254.29 328.661 254.29 324.701C254.29 312.821 260.953 302.261 271.613 296.981ZM253.624 325.361C253.624 329.321 254.956 332.621 256.955 333.281C257.621 333.941 258.954 333.941 259.62 333.941C261.619 333.941 263.618 333.281 266.283 331.961L274.278 328.001C274.944 327.341 275.61 327.341 276.943 327.341C278.942 327.341 280.94 328.661 281.607 329.981C282.273 331.961 282.939 333.281 282.273 334.601C281.607 335.921 280.94 337.241 279.608 337.901L271.613 341.861C267.615 343.841 263.618 345.161 260.286 345.161C257.621 345.161 254.29 344.501 252.291 343.181C246.961 339.881 243.63 333.941 243.63 326.021C243.63 309.521 252.291 295.002 266.949 287.742L274.944 283.782C275.61 283.122 276.276 283.122 277.609 283.122C279.608 283.122 281.607 284.442 282.273 285.762C282.273 286.422 282.939 287.742 282.273 289.062C281.607 290.382 280.94 291.702 279.608 292.362L271.613 296.321C260.286 302.261 253.624 312.821 253.624 325.361Z" fill="#0B0B0B"></path><path d="M260.286 345.82C256.955 345.82 254.29 345.16 251.625 343.841C245.629 340.541 242.298 333.941 242.298 325.361C242.298 308.201 250.959 293.681 266.283 285.762L274.278 281.802C274.944 281.142 276.276 281.142 276.943 281.142C279.608 281.142 281.606 282.462 282.939 284.442C283.605 285.762 283.605 287.741 283.605 289.061C282.939 290.381 282.273 291.701 280.274 293.021L272.279 297.641C261.619 302.921 255.623 313.481 255.623 326.021C255.623 329.321 256.289 331.961 258.288 333.281C260.286 334.601 262.951 333.941 266.283 331.961L274.278 328.001C274.944 327.341 276.276 327.341 276.943 327.341C279.608 327.341 281.606 328.661 282.939 330.641C283.605 331.961 283.605 333.941 283.605 335.261C282.939 336.581 282.273 337.901 280.274 339.221L272.279 343.181C268.281 344.501 263.618 345.82 260.286 345.82ZM277.609 283.122C276.943 283.122 276.276 283.122 275.61 283.782L267.615 287.741C253.624 295.001 244.963 309.521 244.963 325.361C244.963 332.621 247.628 338.561 252.958 341.861C258.288 345.16 264.95 344.501 271.613 340.541L279.608 336.581C280.94 335.921 281.606 335.261 281.606 333.941C282.273 332.621 281.606 331.961 281.606 330.641C280.274 328.661 277.609 328.001 275.61 328.661L267.615 332.621C263.618 334.601 259.62 335.261 257.621 333.941C254.956 332.621 253.624 329.321 253.624 324.701C253.624 311.501 260.286 300.281 271.613 295.001L279.608 291.041C280.94 290.381 281.606 289.721 281.606 288.401C282.273 287.082 281.606 286.422 281.606 285.102C280.274 283.782 278.941 283.122 277.609 283.122Z" fill="#0B0B0B"></path><path d="M361.171 257.763C361.171 260.261 360.003 262.726 357.713 265.063C355.418 267.405 352.047 269.562 347.798 271.397C339.303 275.064 327.495 277.358 314.396 277.358C301.297 277.358 289.488 275.064 280.994 271.397C276.745 269.562 273.373 267.405 271.079 265.063C268.789 262.726 267.621 260.261 267.621 257.763C267.621 255.265 268.789 252.8 271.079 250.462C273.373 248.121 276.745 245.963 280.994 244.129C289.488 240.462 301.297 238.168 314.396 238.168C327.495 238.168 339.303 240.462 347.798 244.129C352.047 245.963 355.418 248.121 357.713 250.462C360.003 252.8 361.171 255.265 361.171 257.763Z" stroke="#0B0B0B" stroke-width="2.10496"></path></g><path d="M305.872 224.155C303.055 222.629 300.238 221.103 299.47 218.05C298.701 214.489 301.519 211.183 303.311 208.894C304.336 207.622 305.104 206.604 304.848 206.35C304.848 206.096 304.336 206.096 304.08 206.096C301.006 206.096 292.299 210.165 288.201 214.744C286.153 216.779 285.384 218.813 285.64 220.848C285.896 223.901 289.482 226.19 293.323 228.479C297.677 231.022 302.031 233.566 302.287 237.89C302.543 240.688 300.75 242.977 299.726 244.249C299.214 244.758 298.958 245.266 298.958 245.521H299.214C300.494 245.521 305.616 241.96 308.946 237.89C310.738 235.855 312.531 232.549 312.019 229.751C311.25 226.953 308.689 225.427 305.872 224.155Z" fill="#0B0B0B"></path><path d="M299.216 245.775H298.96C298.704 245.521 298.96 245.012 299.472 244.249C300.496 242.977 302.033 240.688 302.033 237.89C301.777 233.566 297.423 231.022 293.326 228.733C289.228 226.444 285.643 224.155 285.13 220.848C285.13 218.813 285.899 216.779 287.947 214.489C292.301 209.911 301.009 205.587 304.082 205.587C304.594 205.587 304.85 205.587 305.106 205.841C305.619 206.35 304.85 207.367 303.57 208.894C301.777 210.928 299.216 214.235 299.728 217.796C300.496 220.848 303.314 222.374 306.131 223.9L305.875 224.155L306.131 223.9C308.948 225.427 311.509 226.698 312.277 229.751C313.045 232.803 310.997 235.855 309.204 238.144C305.875 242.214 300.496 245.775 299.216 245.775ZM304.082 206.35C301.265 206.35 292.557 210.42 288.46 214.998C286.667 217.033 285.643 218.813 285.899 220.594C286.155 223.646 289.74 225.681 293.582 227.97C297.935 230.514 302.289 233.057 302.545 237.636C302.801 240.688 301.009 242.977 299.984 244.249C299.728 244.503 299.472 244.758 299.472 245.012C300.753 244.758 305.619 241.451 308.692 237.381C310.228 235.346 312.277 232.294 311.509 229.496C310.997 226.953 308.436 225.681 305.875 224.155L306.131 223.9L305.875 224.155C303.057 222.629 299.984 221.103 299.472 217.796C298.704 213.981 301.521 210.674 303.314 208.385C303.826 207.622 305.106 206.35 304.85 206.096C304.594 206.35 304.594 206.35 304.082 206.35Z" fill="white"></path><path d="M317.787 220.704C316.193 219.84 314.599 218.977 314.164 217.249C313.729 215.234 315.323 213.363 316.338 212.068C316.918 211.348 317.352 210.772 317.207 210.628C317.207 210.484 316.918 210.484 316.773 210.484C315.034 210.484 310.106 212.787 307.787 215.378C306.628 216.53 306.193 217.681 306.338 218.833C306.483 220.56 308.512 221.856 310.686 223.151C313.15 224.59 315.613 226.03 315.758 228.477C315.903 230.06 314.889 231.355 314.309 232.075C314.019 232.363 313.874 232.651 313.874 232.795H314.019C314.744 232.795 317.642 230.78 319.526 228.477C320.541 227.325 321.555 225.454 321.265 223.871C320.831 222.287 319.381 221.424 317.787 220.704Z" fill="#0B0B0B"></path><defs><clipPath id="clip0_3845_12378"><rect width="275.339" height="342.644" fill="white" transform="matrix(-1 0 0 1 275.339 0)"></rect></clipPath><clipPath id="clip1_3845_12378"><rect width="119.925" height="234.956" fill="white" transform="translate(242.298 126.045)"></rect></clipPath></defs></svg>