<svg xmlns="http://www.w3.org/2000/svg" width="55" height="61" viewBox="0 0 55 61" fill="none"><g id="Group 44431"><path id="Vector" d="M34.9772 3.26353C36.0986 2.90469 37.2194 2.54605 38.372 2.18746C41.3055 13.1819 44.8529 23.9741 49.2133 34.5637L49.2142 34.5657C49.5045 35.243 49.795 35.9321 50.0883 36.6276C51.0773 38.9729 52.0972 41.3917 53.2427 43.6836C53.3141 43.8867 53.4612 44.0017 53.6351 44.0346C53.8013 44.0661 53.9763 44.0203 54.1169 43.9422C54.2571 43.8643 54.3861 43.7415 54.4454 43.591C54.4758 43.5139 54.4883 43.4275 54.4708 43.3384C54.4548 43.2575 54.4156 43.1824 54.3555 43.1161C49.4861 32.5275 45.4627 21.7268 42.0739 10.7137C41.65 9.12407 41.2261 7.58747 40.8024 6.05158L40.8019 6.04972C40.3792 4.51727 39.9566 2.98552 39.5341 1.4014C39.5273 1.308 39.4799 1.22922 39.4287 1.17016C39.3721 1.10488 39.2986 1.04895 39.2235 1.00392C39.0777 0.916418 38.8916 0.85 38.7487 0.85H38.727L38.7062 0.856147C38.5165 0.912194 38.3268 0.968328 38.1371 1.02455L38.0376 0.925013L38.0692 1.04468C33.6154 2.36509 29.1617 3.73156 24.7088 5.09779L24.7083 5.09794C20.0427 6.52943 15.378 7.96065 10.7134 9.33883L10.7134 9.33882L10.7118 9.33931C9.33256 9.76369 8.00648 10.188 6.6813 10.6121L6.68092 10.6122C5.36182 11.0343 4.04361 11.4562 2.67329 11.878C2.46609 11.8861 2.31931 11.9987 2.23925 12.1544C2.16063 12.3073 2.14797 12.4951 2.17867 12.664C2.2094 12.833 2.28772 13.0058 2.41809 13.1231C2.55524 13.2465 2.7433 13.3009 2.95585 13.2305C7.62015 11.7464 12.2846 10.3152 16.9498 8.88385L16.9501 8.88378C21.6151 7.45246 26.281 6.02087 30.9471 4.53623C32.326 4.11192 33.6519 3.68765 34.9768 3.26367L34.9772 3.26353Z" fill="#D7FF65" stroke="#D7FF65" stroke-width="0.3"></path><path id="Vector_2" d="M0.85 13.9442V13.9745L0.861755 14.0024C2.02783 16.7718 3.19383 19.5299 4.35723 22.2819C8.27229 31.5428 12.1579 40.7341 15.9176 50.0517L15.9176 50.0517L15.9193 50.0557C16.6606 51.7501 17.3491 53.4448 18.0384 55.1416L18.0388 55.1424C18.7241 56.8294 19.4103 58.5184 20.1488 60.2078C20.154 60.3251 20.1873 60.4296 20.2552 60.512C20.3297 60.6025 20.432 60.6496 20.5385 60.6673C20.7421 60.7013 20.9869 60.6336 21.2094 60.523C30.1174 56.7052 38.8145 52.6748 47.3003 48.2198L47.3024 48.2186C48.4673 47.5832 49.6855 46.9476 50.9051 46.3113L50.9053 46.3112C52.1206 45.6772 53.3373 45.0424 54.5017 44.4074C54.7031 44.3357 54.8173 44.1891 54.85 44.016C54.8815 43.8497 54.8356 43.6748 54.7575 43.5342C54.6796 43.394 54.5569 43.265 54.4064 43.2057C54.3292 43.1753 54.2429 43.1627 54.1538 43.1803C54.0711 43.1966 53.9945 43.2372 53.9271 43.2995C45.4546 47.9587 36.7702 52.1947 28.0855 56.0076C26.8124 56.5381 25.5925 57.0685 24.3737 57.5984L24.3736 57.5984C23.4063 58.019 22.4398 58.4392 21.4472 58.8593C20.3683 56.2984 19.2896 53.7469 18.2132 51.2007C14.2982 41.9398 10.4126 32.7486 6.65284 23.431L6.6529 23.431L6.65116 23.4271C5.90986 21.7326 5.22138 20.0379 4.53204 18.3411L4.53168 18.3402C3.8435 16.6462 3.15446 14.9501 2.41241 13.2538C2.27354 12.8492 1.86844 12.7268 1.55377 12.7898C1.39347 12.8218 1.23742 12.9041 1.1375 13.0403C1.06872 13.1341 1.0319 13.2464 1.03432 13.37H1H0.85V13.52V13.9442Z" fill="#D7FF65" stroke="#D7FF65" stroke-width="0.3"></path><path id="Vector_3" d="M7.38965 17.6973H7.36222H7.17314C6.98124 17.7542 6.8064 17.7216 6.67045 17.6219C6.53419 17.522 6.45195 17.3659 6.41989 17.2056C6.35671 16.8897 6.48028 16.4827 6.88862 16.3454C8.0531 15.9219 9.16483 15.4984 10.2778 15.0744L10.2784 15.0742C11.3913 14.6502 12.5054 14.2258 13.6727 13.8013C13.6728 13.8013 13.6729 13.8013 13.673 13.8012L13.7242 13.9422C21.7827 10.9733 29.6292 8.2164 37.6877 5.45953L7.38965 17.6973ZM7.38965 17.6973L7.41531 17.6876C15.261 14.719 23.3183 11.7505 31.1634 8.99412L31.1649 8.99357C32.3291 8.57023 33.4406 8.19973 34.5542 7.82853L34.5551 7.82824C35.6673 7.45749 36.7817 7.08603 37.9493 6.66148L7.38965 17.6973Z" fill="#D7FF65" stroke="#D7FF65" stroke-width="0.3"></path><path id="Vector_4" d="M8.04598 21.499L8.04599 21.499L8.04847 21.4981C11.6522 20.2262 15.3091 19.0073 18.9674 17.7878L18.9682 17.7876C22.6247 16.5687 26.2828 15.3494 29.888 14.077C30.9515 13.7578 31.9613 13.3857 32.9663 13.0155L32.9683 13.0148C33.97 12.6457 34.9669 12.2785 36.0149 11.9632C36.2224 11.9553 36.3694 11.8426 36.4495 11.6868C36.5281 11.5339 36.5408 11.346 36.5101 11.1771C36.4794 11.0081 36.401 10.8354 36.2707 10.7181C36.1333 10.5944 35.9449 10.54 35.7319 10.611L35.7319 10.611L35.7294 10.6119C32.1257 11.8838 28.4688 13.1027 24.8104 14.3222L24.8097 14.3224C21.1532 15.5413 17.4951 16.7606 13.8899 18.033C12.8264 18.3522 11.8165 18.7243 10.8116 19.0945L10.8096 19.0953C9.80789 19.4643 8.811 19.8315 7.76295 20.1468C7.55546 20.1547 7.4085 20.2674 7.32836 20.4232C7.24974 20.5761 7.23708 20.764 7.26778 20.9329C7.29852 21.1019 7.37683 21.2746 7.5072 21.392C7.64457 21.5156 7.83301 21.57 8.04598 21.499Z" fill="#D7FF65" stroke="#D7FF65" stroke-width="0.3"></path><path id="Vector_5" d="M10.1659 27.2229L10.1659 27.2229L10.1679 27.2222L32.0077 19.5889C33.3025 19.2003 34.6047 18.7303 35.8537 18.2795C36.6488 17.9925 37.4224 17.7133 38.1587 17.4678C38.5687 17.3312 38.6928 16.9233 38.6295 16.6069C38.5974 16.4466 38.5152 16.2905 38.3789 16.1906C38.2372 16.0867 38.0532 16.0557 37.8518 16.1229L37.8518 16.1229L37.8493 16.1237C30.6398 18.6683 23.431 21.2125 16.0104 23.7568C14.7154 24.1454 13.413 24.6155 12.1639 25.0663C11.3688 25.3533 10.5952 25.6325 9.85892 25.878C9.44895 26.0146 9.32486 26.4225 9.38815 26.7389C9.42021 26.8992 9.50245 27.0552 9.63872 27.1552C9.78042 27.2591 9.96437 27.2901 10.1659 27.2229Z" fill="#D7FF65" stroke="#D7FF65" stroke-width="0.3"></path><g id="Vector_6"><mask id="path-6-outside-1_4228_21399" maskUnits="userSpaceOnUse" x="10.6443" y="20.3252" width="29" height="13" fill="black"><rect fill="white" x="10.6443" y="20.3252" width="29" height="13"></rect><path d="M12.4526 32.3806C19.4508 30.0478 26.2369 27.291 33.023 24.7462C34.9316 23.8979 36.8402 23.2617 38.7488 22.4134C39.385 22.2013 39.173 21.141 38.5368 21.3531C31.7506 24.1099 24.9645 26.8668 17.9663 29.4116C16.0577 30.0478 13.937 30.8961 12.0284 31.5323C11.3922 31.7444 11.6043 32.8047 12.2405 32.5926H12.4526V32.3806Z"></path></mask><path d="M12.4526 32.3806C19.4508 30.0478 26.2369 27.291 33.023 24.7462C34.9316 23.8979 36.8402 23.2617 38.7488 22.4134C39.385 22.2013 39.173 21.141 38.5368 21.3531C31.7506 24.1099 24.9645 26.8668 17.9663 29.4116C16.0577 30.0478 13.937 30.8961 12.0284 31.5323C11.3922 31.7444 11.6043 32.8047 12.2405 32.5926H12.4526V32.3806Z" fill="#D7FF65"></path><path d="M12.4526 32.3806L12.3577 32.096L12.1526 32.1643V32.3806H12.4526ZM33.023 24.7462L33.1284 25.027L33.1367 25.0239L33.1449 25.0203L33.023 24.7462ZM38.7488 22.4134L38.654 22.1288L38.6402 22.1334L38.627 22.1393L38.7488 22.4134ZM38.5368 21.3531L38.4419 21.0685L38.4328 21.0715L38.4239 21.0751L38.5368 21.3531ZM17.9663 29.4116L18.0612 29.6963L18.0688 29.6936L17.9663 29.4116ZM12.0284 31.5323L11.9336 31.2477L12.0284 31.5323ZM12.2405 32.5926V32.2926H12.1918L12.1456 32.308L12.2405 32.5926ZM12.4526 32.5926V32.8926H12.7526V32.5926H12.4526ZM12.5474 32.6652C19.5525 30.3301 26.3525 27.568 33.1284 25.027L32.9177 24.4653C26.1213 27.0139 19.3491 29.7655 12.3577 32.096L12.5474 32.6652ZM33.1449 25.0203C34.0916 24.5995 35.0394 24.2309 35.9947 23.8594C36.948 23.4887 37.9088 23.115 38.8707 22.6876L38.627 22.1393C37.6802 22.5601 36.7325 22.9287 35.7772 23.3002C34.8239 23.6709 33.863 24.0445 32.9012 24.472L33.1449 25.0203ZM38.8437 22.698C39.3455 22.5307 39.4877 22.0331 39.4141 21.6654C39.3765 21.4773 39.2783 21.2845 39.1052 21.1575C38.9212 21.0226 38.6858 20.9872 38.4419 21.0685L38.6316 21.6377C38.7058 21.613 38.7355 21.6305 38.7504 21.6414C38.776 21.6602 38.8104 21.706 38.8258 21.783C38.8583 21.9454 38.7883 22.084 38.654 22.1288L38.8437 22.698ZM38.4239 21.0751C31.6369 23.8323 24.8559 26.5871 17.8638 29.1297L18.0688 29.6936C25.0731 27.1465 31.8643 24.3876 38.6497 21.631L38.4239 21.0751ZM17.8714 29.127C16.9119 29.4469 15.9 29.8197 14.8936 30.1905C13.8854 30.5619 12.8826 30.9313 11.9336 31.2477L12.1233 31.8169C13.0828 31.497 14.0947 31.1242 15.1011 30.7535C16.1093 30.382 17.1121 30.0126 18.0612 29.6962L17.8714 29.127ZM11.9336 31.2477C11.4317 31.415 11.2896 31.9126 11.3631 32.2803C11.4007 32.4684 11.499 32.6612 11.6721 32.7882C11.8561 32.9231 12.0914 32.9585 12.3354 32.8772L12.1456 32.308C12.0714 32.3327 12.0417 32.3152 12.0269 32.3043C12.0012 32.2855 11.9669 32.2397 11.9515 32.1627C11.919 32.0003 11.9889 31.8617 12.1233 31.8169L11.9336 31.2477ZM12.2405 32.8926H12.4526V32.2926H12.2405V32.8926ZM12.7526 32.5926V32.3806H12.1526V32.5926H12.7526Z" fill="#D7FF65" mask="url(#path-6-outside-1_4228_21399)"></path></g><path id="Vector_7" d="M15.8931 38.2439L15.8932 38.2442L15.9022 38.2405C22.6887 35.4835 29.4723 32.7277 36.4674 30.184L36.4676 30.1843L36.4771 30.1801C37.4276 29.7576 38.3786 29.3878 39.3335 29.0165L39.335 29.0159C40.2862 28.6459 41.2412 28.2746 42.1966 27.8502C42.6008 27.7111 42.7231 27.3062 42.6602 26.9917C42.6281 26.8314 42.5459 26.6753 42.4096 26.5754C42.2679 26.4715 42.084 26.4405 41.8825 26.5077L41.8825 26.5076L41.8772 26.5095C35.0896 29.0549 28.0901 31.8123 21.303 34.5695L21.303 34.5695L21.2985 34.5714C20.348 34.9939 19.397 35.3638 18.4422 35.7351L18.4406 35.7357C17.4894 36.1056 16.5345 36.477 15.579 36.9014C15.1748 37.0404 15.0525 37.4453 15.1154 37.7599C15.1475 37.9202 15.2297 38.0762 15.366 38.1761C15.5077 38.2801 15.6917 38.311 15.8931 38.2439Z" fill="#D7FF65" stroke="#D7FF65" stroke-width="0.3"></path><path id="Vector_8" d="M16.9386 44.4819C17.012 44.5109 17.0938 44.5236 17.1783 44.5097V44.7142L17.392 44.6141C24.1719 41.436 31.1637 38.6816 38.3675 36.3508C39.4284 36.0326 40.4361 35.7144 41.4426 35.3965L41.443 35.3964C42.4443 35.0802 43.4444 34.7644 44.4963 34.4486C44.7038 34.4407 44.8508 34.328 44.931 34.1721C45.0096 34.0193 45.0222 33.8314 44.9915 33.6625C44.9608 33.4935 44.8825 33.3207 44.7521 33.2034C44.6153 33.0803 44.4279 33.0259 44.216 33.0955C37.0014 35.2175 29.7865 37.764 22.7834 40.735L22.7834 40.735L22.7811 40.736C21.8284 41.1595 20.8225 41.583 19.8149 42.0073L19.8142 42.0076C18.8095 42.4306 17.8033 42.8542 16.8495 43.2781C16.6442 43.349 16.5281 43.4968 16.495 43.6717C16.4636 43.8379 16.5094 44.0129 16.5875 44.1535C16.6654 44.2936 16.7881 44.4226 16.9386 44.4819Z" fill="#D7FF65" stroke="#D7FF65" stroke-width="0.3"></path><path id="Vector_9" d="M36.947 46.6894L37.0213 46.7637L37.1165 46.7192C39.5918 45.5641 42.1947 44.538 44.7307 43.5383C45.4473 43.2558 46.1585 42.9754 46.86 42.6949C47.2664 42.5568 47.3894 42.1507 47.3263 41.8354C47.2943 41.6751 47.212 41.5191 47.0758 41.4191C46.9341 41.3152 46.7501 41.2842 46.5486 41.3514L46.5486 41.3513L46.5434 41.3533L46.5415 41.354C43.1516 42.6252 39.7574 43.898 36.3626 45.383C36.157 45.4539 36.0408 45.6018 36.0077 45.7767C35.9762 45.943 36.0221 46.1179 36.1002 46.2585C36.1781 46.3987 36.3008 46.5277 36.4513 46.587C36.5285 46.6174 36.6148 46.63 36.7039 46.6124C36.7464 46.6041 36.7872 46.5893 36.826 46.5684L36.947 46.6894Z" fill="#D7FF65" stroke="#D7FF65" stroke-width="0.3"></path></g></svg>