<svg xmlns="http://www.w3.org/2000/svg" width="30" height="30" viewBox="0 0 30 30" fill="none"><path d="M15.0002 29.6184C6.90855 29.6184 0.381836 23.0535 0.381836 15C0.381836 6.90843 6.90855 0.381714 15.0002 0.381714C23.0918 0.381714 29.6185 6.90843 29.6185 15C29.6185 23.0535 23.0536 29.6184 15.0002 29.6184Z" fill="#8B75F3"></path><path d="M15 30C6.71756 30 0 23.2824 0 15C0 6.71756 6.71756 0 15 0C23.2824 0 30 6.71756 30 15C30 23.2824 23.2824 30 15 30ZM15 0.763359C7.1374 0.763359 0.763359 7.1374 0.763359 15C0.763359 22.8626 7.1374 29.2366 15 29.2366C22.8626 29.2366 29.2366 22.8626 29.2366 15C29.2366 7.1374 22.8626 0.763359 15 0.763359Z" fill="#0B132B"></path><path d="M11.9084 22.5191L6.37409 17.0229C6.18325 16.8321 6.18325 16.4886 6.37409 16.2978L8.35882 14.313C8.54966 14.1222 8.89317 14.1222 9.08401 14.313L12.2519 17.481L20.9161 8.81684C21.1069 8.626 21.4504 8.626 21.6413 8.81684L23.626 10.8016C23.8168 10.9924 23.8168 11.3359 23.626 11.5268L12.5955 22.5191C12.4046 22.71 12.0993 22.71 11.9084 22.5191Z" fill="white"></path><path d="M12.2521 23.0535C12.023 23.0535 11.794 22.9771 11.6414 22.7863L6.10702 17.2901C5.95435 17.1375 5.83984 16.9084 5.83984 16.6794C5.83984 16.4504 5.91618 16.2214 6.10702 16.0687L8.09175 14.084C8.43526 13.7405 9.00778 13.7405 9.35129 14.084L12.2521 16.9848L20.649 8.58783C20.9925 8.24432 21.565 8.24432 21.9085 8.58783L23.8933 10.5726C24.2368 10.9161 24.2368 11.4886 23.8933 11.8321L12.9009 22.7863C12.7101 22.9771 12.4811 23.0535 12.2521 23.0535ZM8.70244 14.542C8.66427 14.542 8.6261 14.542 8.6261 14.5802L6.64137 16.5649C6.6032 16.6031 6.6032 16.6413 6.6032 16.6413C6.6032 16.6413 6.6032 16.6794 6.64137 16.7176L12.1757 22.252C12.2139 22.2901 12.2902 22.2901 12.3666 22.252L23.3589 11.2596C23.3971 11.2214 23.3971 11.1451 23.3589 11.0688L21.3742 9.08402C21.336 9.04585 21.2597 9.04585 21.1834 9.08402L12.2521 18.0153L8.81694 14.5802C8.77877 14.542 8.74061 14.542 8.70244 14.542Z" fill="#8B75F3"></path></svg>