<svg xmlns="http://www.w3.org/2000/svg" width="53" height="38" viewBox="0 0 53 38" fill="none"><path d="M44.0508 0.914089C43.5394 2.13288 43.0707 3.43872 42.6445 4.83162C42.3036 6.13746 42.0905 7.4433 42.0053 8.74914C42.0053 9.96793 42.2184 11.0997 42.6445 12.1443C43.0707 13.1019 43.8377 13.8855 44.9457 14.4948C47.1617 15.7136 49.0368 17.2806 50.5709 19.1959C52.1903 21.0241 53 23.2875 53 25.9863C53 27.6403 52.7017 29.2073 52.1051 30.6873C51.5085 32.1672 50.6562 33.4731 49.5482 34.6048C48.5254 35.6495 47.2896 36.4765 45.8406 37.0859C44.3917 37.6953 42.8576 38 41.2382 38C37.9994 38 35.2721 36.8247 33.0561 34.4742C30.8401 32.1237 29.6469 29.2944 29.4764 25.9863C29.2207 22.504 29.6469 19.2829 30.7549 16.323C31.9481 13.2761 33.3118 10.6208 34.8459 8.35739C36.4653 6.09393 38.0421 4.26575 39.5762 2.87285C41.1104 1.3929 42.1757 0.435281 42.7724 0C42.9428 0.0870561 43.1559 0.21764 43.4116 0.391753L43.7951 0.783505C43.8803 0.870561 43.9656 0.914089 44.0508 0.914089ZM14.6463 0.914089C14.1349 2.13288 13.6662 3.43872 13.24 4.83162C12.8991 6.13746 12.686 7.4433 12.6008 8.74914C12.6008 9.96793 12.8139 11.0997 13.24 12.1443C13.6662 13.1019 14.4332 13.8855 15.5412 14.4948C17.7572 15.7136 19.6323 17.2806 21.1664 19.1959C22.7858 21.0241 23.5955 23.2875 23.5955 25.9863C23.5955 27.6403 23.2972 29.2073 22.7006 30.6873C22.104 32.1672 21.2517 33.4731 20.1437 34.6048C19.1209 35.6495 17.8851 36.4765 16.4362 37.0859C14.9872 37.6953 13.4531 38 11.8337 38C8.59495 38 5.86758 36.8247 3.65159 34.4742C1.4356 32.1237 0.242374 29.2944 0.0719132 25.9863C-0.183778 22.504 0.242374 19.2829 1.35037 16.323C2.5436 13.2761 3.90728 10.6208 5.44143 8.35739C7.06081 6.09393 8.63757 4.26575 10.1717 2.87285C11.7059 1.3929 12.7712 0.435281 13.3679 0C13.5383 0.0870561 13.7514 0.21764 14.0071 0.391753L14.3906 0.783505C14.4759 0.870561 14.5611 0.914089 14.6463 0.914089Z" fill="#8B75F3"></path></svg>