<svg xmlns="http://www.w3.org/2000/svg" width="32" height="12" viewBox="0 0 32 12" fill="none"><path fill-rule="evenodd" clip-rule="evenodd" d="M8.72727 8.72591C9.49881 8.72591 10.2388 8.41941 10.7843 7.87385C11.3299 7.32829 11.6364 6.58835 11.6364 5.81682C11.6364 5.04528 11.3299 4.30534 10.7843 3.75978C10.2388 3.21422 9.49881 2.90772 8.72727 2.90772C7.95573 2.90772 7.2158 3.21422 6.67023 3.75978C6.12467 4.30534 5.81818 5.04528 5.81818 5.81682C5.81818 6.58835 6.12467 7.32829 6.67023 7.87385C7.2158 8.41941 7.95573 8.72591 8.72727 8.72591ZM13.7673 2.90772C13.1891 1.90759 12.3264 1.1021 11.289 0.593787C10.2516 0.0854766 9.08644 -0.102667 7.94178 0.0533017C6.79713 0.209271 5.72476 0.7023 4.86118 1.46963C3.99761 2.23697 3.38188 3.2439 3.09236 4.36227H1.45455C1.06878 4.36227 0.698807 4.51552 0.426026 4.7883C0.153246 5.06108 0 5.43105 0 5.81682C0 6.20259 0.153246 6.57255 0.426026 6.84533C0.698807 7.11811 1.06878 7.27136 1.45455 7.27136H3.09236C3.44979 8.63935 4.29289 9.83048 5.46425 10.6223C6.63561 11.4142 8.05514 11.7527 9.45778 11.5745C10.8604 11.3964 12.1503 10.7138 13.0865 9.65431C14.0227 8.59478 14.5413 7.23072 14.5455 5.81682H17.4545C17.4531 7.23393 17.969 8.60283 18.9053 9.6666C19.8416 10.7304 21.1339 11.4158 22.5397 11.5944C23.9455 11.7729 25.3682 11.4322 26.5406 10.6363C27.7131 9.84034 28.5548 8.64384 28.9076 7.27136H30.5455C30.9312 7.27136 31.3012 7.11811 31.574 6.84533C31.8468 6.57255 32 6.20259 32 5.81682C32 5.43105 31.8468 5.06108 31.574 4.7883C31.3012 4.51552 30.9312 4.36227 30.5455 4.36227H28.9076C28.6181 3.2439 28.0024 2.23697 27.1388 1.46963C26.2752 0.7023 25.2029 0.209271 24.0582 0.0533017C22.9136 -0.102667 21.7484 0.0854766 20.711 0.593787C19.6736 1.1021 18.8109 1.90759 18.2327 2.90772H13.7673ZM20.3636 5.81682C20.3636 6.58835 20.6701 7.32829 21.2157 7.87385C21.7613 8.41941 22.5012 8.72591 23.2727 8.72591C24.0443 8.72591 24.7842 8.41941 25.3298 7.87385C25.8753 7.32829 26.1818 6.58835 26.1818 5.81682C26.1818 5.04528 25.8753 4.30534 25.3298 3.75978C24.7842 3.21422 24.0443 2.90772 23.2727 2.90772C22.5012 2.90772 21.7613 3.21422 21.2157 3.75978C20.6701 4.30534 20.3636 5.04528 20.3636 5.81682Z" fill="#8B75F3"></path></svg>