<svg xmlns="http://www.w3.org/2000/svg" width="99" height="14" viewBox="0 0 99 14" fill="none"><g clip-path="url(#clip0_823_493)"><path d="M5.4164 13.7177C3.4772 13.7177 1.53799 13.0213 0 11.5939L1.65502 9.52233C2.80851 10.5146 4.01216 11.1413 5.46659 11.1413C6.62004 11.1413 7.30546 10.6713 7.30546 9.88787V9.85308C7.30546 9.10453 6.87081 8.73894 4.731 8.1645C2.17325 7.46816 0.518237 6.71961 0.518237 4.09096V4.05614C0.518237 1.63639 2.37386 0.0522461 4.98176 0.0522461C6.83737 0.0522461 8.42553 0.661532 9.72948 1.74084L8.27508 3.95169C7.13832 3.1335 6.03494 2.64607 4.94832 2.64607C3.8617 2.64607 3.31003 3.15091 3.31003 3.81242V3.84724C3.31003 4.71765 3.8617 5.01359 6.06838 5.58804C8.65955 6.28438 10.114 7.25926 10.114 9.57455V9.60934C10.0973 12.238 8.17476 13.7177 5.4164 13.7177Z" fill="black"></path><path d="M22.6185 2.92435V13.526H19.81V2.92435H15.9149V0.226074H26.4969V2.92435H22.6185Z" fill="black"></path><path d="M38.8676 13.7525C34.9223 13.7525 32.0971 10.6886 32.0971 6.91108V6.87624C32.0971 3.09866 34.9558 0 38.9011 0C42.8463 0 45.6716 3.06385 45.6716 6.84145V6.87624C45.6716 10.6538 42.7962 13.7525 38.8676 13.7525ZM42.7293 6.87624C42.7293 4.59577 41.1245 2.69827 38.8676 2.69827C36.6108 2.69827 35.0394 4.56095 35.0394 6.84145V6.87624C35.0394 9.15674 36.6442 11.0542 38.9011 11.0542C41.1579 11.0542 42.7293 9.19153 42.7293 6.91108V6.87624Z" fill="black"></path><path d="M60.4663 13.526L57.7249 9.27835H55.5184V13.526H52.7096V0.226074H58.5443C61.5532 0.226074 63.3584 1.87986 63.3584 4.61294V4.64776C63.3584 6.78895 62.2383 8.14679 60.6169 8.77349L63.7433 13.526H60.4663ZM60.5332 4.76962C60.5332 3.51623 59.6975 2.87212 58.3268 2.87212H55.5348V6.68453H58.3768C59.7475 6.68453 60.5332 5.91856 60.5332 4.80443V4.76962Z" fill="black"></path><path d="M70.4638 13.526V0.226074H80.0926V2.8199H73.2553V5.51817H79.2737V8.112H73.2553V10.8973H80.1932V13.4911H70.4638V13.526Z" fill="black"></path><path d="M92.2127 13.526H87.2311V0.226074H92.2127C96.2249 0.226074 99 3.09843 99 6.84122V6.87601C99 10.6188 96.2249 13.526 92.2127 13.526ZM96.0748 6.87601C96.0748 4.5259 94.5198 2.87212 92.2296 2.87212H90.0563V10.8799H92.2296C94.5198 10.8799 96.0748 9.26093 96.0748 6.91085V6.87601Z" fill="black"></path></g><defs><clipPath id="clip0_823_493"><rect width="99" height="13.8947" fill="white"></rect></clipPath></defs></svg>