<svg width="172" height="43" viewBox="0 0 172 43" fill="none" xmlns="http://www.w3.org/2000/svg">
<g clip-path="url(#clip0_499_20673)">
<path d="M0 26.0457L4.03722 23.6602C4.77777 25.3885 6.01999 26.5569 8.33721 26.5569C10.5589 26.5569 11.1083 25.6562 11.1083 24.8529C11.1083 23.5628 9.93777 23.076 6.87999 22.1997C3.82222 21.3234 0.83611 19.8385 0.83611 15.8708C0.83611 11.8545 4.15666 9.54199 7.69221 9.54199C11.0367 9.54199 13.6644 11.1729 15.1694 14.2399L11.2278 16.5768C10.535 15.0919 9.55555 14.1669 7.69221 14.1669C6.23499 14.1669 5.49444 14.9215 5.49444 15.7491C5.49444 16.6985 5.99611 17.3557 9.17332 18.3294C12.2789 19.2787 15.7667 20.3741 15.7667 24.7799C15.7667 28.7963 12.6133 31.1818 8.16999 31.1818C3.87 31.1818 1.14667 29.0884 0 26.0457Z" fill="#242A34"/>
<path d="M37.6967 15.8953L33.0384 30.7681H28.9534L26.6123 22.8327L24.2951 30.7681H20.2101L15.5278 15.8953H20.2101L22.2884 23.855L24.5817 15.8953H28.6667L30.9362 23.855L33.0384 15.8953H37.6967Z" fill="#242A34"/>
<path d="M48.9483 23.3193C48.9483 21.0799 47.4911 19.6924 45.4844 19.6924C43.4778 19.6924 42.0206 21.0799 42.0206 23.3193C42.0206 25.5588 43.4778 26.9462 45.4844 26.9462C47.4911 26.9462 48.9483 25.5588 48.9483 23.3193ZM53.32 15.8951V30.7679H48.9483V29.3804C47.9928 30.5001 46.5595 31.206 44.6006 31.206C40.7783 31.206 37.625 27.7982 37.625 23.368C37.625 18.9378 40.7783 15.5056 44.6006 15.5056C46.5595 15.5056 47.9928 16.1872 48.9483 17.3312V15.9438H53.32V15.8951Z" fill="#242A34"/>
<path d="M66.6024 23.0274C66.6024 20.9827 65.1452 19.5709 63.0668 19.5709C60.9885 19.5709 59.5313 20.9583 59.5313 23.0274C59.5313 25.0721 60.9885 26.4839 63.0668 26.4839C65.1452 26.4839 66.6024 25.0721 66.6024 23.0274ZM70.8546 15.8953V30.0135C70.8546 35.0035 67.0324 37.1213 63.1624 37.1213C60.1285 37.1213 57.5963 35.9529 56.2346 33.5187L59.9613 31.3279C60.5107 32.3746 61.3707 33.2022 63.2818 33.2022C65.3363 33.2022 66.5785 32.1312 66.5785 30.0135V28.6503C65.623 29.8674 64.2135 30.5733 62.3263 30.5733C58.1935 30.5733 55.1357 27.1168 55.1357 23.0274C55.1357 18.9136 58.1696 15.4814 62.3263 15.4814C64.2135 15.4814 65.623 16.1874 66.5785 17.4044V15.8953H70.8546Z" fill="#242A34"/>
<path d="M87.314 20.3497C87.314 16.7715 85.0923 14.5321 81.8912 14.5321H78.3796V26.1918H81.8912C85.1162 26.1918 87.314 23.928 87.314 20.3497ZM91.829 20.3497C91.829 26.2404 87.529 30.768 81.9151 30.768H73.7451V9.95581H81.9151C87.529 9.95581 91.829 14.459 91.829 20.3497Z" fill="#242A34"/>
<path d="M102.579 15.603V20.6661C100.763 20.374 98.2071 21.1043 98.2071 24.0496V30.7679H93.8354V15.8951H98.2071V18.5484C98.8043 16.5524 100.739 15.603 102.579 15.603Z" fill="#242A34"/>
<path d="M114.308 23.3195C114.308 21.2018 112.851 19.8143 110.964 19.8143C109.076 19.8143 107.619 21.2018 107.619 23.3195C107.619 25.4372 109.076 26.8247 110.964 26.8247C112.851 26.8247 114.308 25.4372 114.308 23.3195ZM103.224 23.3195C103.224 18.8893 106.664 15.4814 110.964 15.4814C115.264 15.4814 118.704 18.8893 118.704 23.3195C118.704 27.7497 115.264 31.1575 110.964 31.1575C106.664 31.1819 103.224 27.7497 103.224 23.3195Z" fill="#242A34"/>
<path d="M131.819 23.3194C131.819 21.08 130.362 19.6925 128.355 19.6925C126.348 19.6925 124.891 21.08 124.891 23.3194C124.891 25.5589 126.348 26.9463 128.355 26.9463C130.362 26.9463 131.819 25.5589 131.819 23.3194ZM136.215 23.3194C136.215 27.7496 133.061 31.1575 129.239 31.1575C127.28 31.1575 125.847 30.4759 124.891 29.3318V36.683H120.52V15.8952H124.891V17.2827C125.847 16.1629 127.28 15.457 129.239 15.457C133.061 15.4814 136.215 18.8892 136.215 23.3194Z" fill="#242A34"/>
<path d="M162.85 8.8361C162.898 8.49532 162.779 8.15453 162.54 7.93546C162.397 7.81375 162.229 7.74072 162.038 7.74072C161.967 7.74072 161.895 7.74072 161.823 7.76506C161.704 7.78941 161.56 7.93546 161.489 8.13019C161.298 8.544 161.107 9.20123 160.892 9.95582C161.417 9.78543 162.062 9.56635 162.492 9.29859C162.707 9.20123 162.827 9.03083 162.85 8.8361Z" fill="#F37021"/>
<path d="M159.363 0H158.431C151.193 0 145.794 6.62095 145.794 14.7998C145.794 22.7352 155.756 37.8757 158.312 41.8678C158.36 41.9408 158.407 41.9895 158.479 42.0382C158.813 42.3059 159.267 42.2329 159.506 41.8678C162.038 37.9001 172 22.7352 172 14.7998C172 6.62095 166.601 0 159.363 0ZM158.288 23.5628C158.288 23.7819 158.145 23.9523 157.953 23.9523H153.558C152.913 23.9523 152.387 23.3437 152.387 22.6135V16.6984C152.387 16.4794 152.531 16.309 152.722 16.309H157.953C158.145 16.309 158.288 16.4794 158.288 16.6984V23.5628ZM158.288 14.605C158.288 14.8241 158.145 14.9945 157.953 14.9945H152.22C151.575 14.9945 151.049 14.386 151.049 13.6557V12.1222C151.049 11.3919 151.575 10.7834 152.22 10.7834H155.278C155.087 10.686 154.896 10.613 154.704 10.5156C154.203 10.2235 153.845 9.71235 153.725 9.07947C153.582 8.25185 153.868 7.39989 154.49 6.86437C154.991 6.42622 155.636 6.28017 156.233 6.4749C156.711 6.62095 157.117 7.03476 157.332 7.54594C157.691 8.34922 158.025 9.59064 158.24 10.613C158.264 10.686 158.264 10.759 158.264 10.8321V14.605H158.288ZM165.407 22.6135C165.407 23.3437 164.881 23.9523 164.236 23.9523H159.841C159.649 23.9523 159.506 23.7819 159.506 23.5628V16.6984C159.506 16.4794 159.649 16.309 159.841 16.309H165.072C165.263 16.309 165.407 16.4794 165.407 16.6984V22.6135ZM166.768 13.6557C166.768 14.386 166.243 14.9945 165.598 14.9945H159.865C159.673 14.9945 159.53 14.8241 159.53 14.605V10.7834C159.53 10.7104 159.53 10.6373 159.554 10.5643C159.769 9.54196 160.103 8.32487 160.462 7.49725C160.677 6.98608 161.083 6.57227 161.561 6.42622C162.158 6.25583 162.803 6.37753 163.304 6.81569C163.926 7.3512 164.188 8.22751 164.069 9.03078C163.973 9.66367 163.591 10.1748 163.09 10.4669C162.922 10.5643 162.731 10.6617 162.54 10.7347H165.598C166.243 10.7347 166.768 11.3432 166.768 12.0735V13.6557Z" fill="#F37021"/>
<path d="M155.947 7.76506C155.875 7.74072 155.803 7.74072 155.732 7.74072C155.541 7.74072 155.373 7.81375 155.23 7.93546C154.991 8.15453 154.872 8.49532 154.92 8.8361C154.943 9.03083 155.087 9.20123 155.254 9.29859C155.684 9.54201 156.329 9.78543 156.855 9.95582C156.663 9.20123 156.448 8.544 156.257 8.13019C156.21 7.93546 156.066 7.81375 155.947 7.76506Z" fill="#F37021"/>
</g>
<defs>
<clipPath id="clip0_499_20673">
<rect width="172" height="42.2086" fill="white"/>
</clipPath>
</defs>
</svg>
