<svg xmlns="http://www.w3.org/2000/svg" width="154" height="32" viewBox="0 0 154 32" fill="none"><g clip-path="url(#clip0_823_393)"><path d="M16.1208 31.9274C24.9568 31.9274 32.1199 24.8074 32.1199 16.0243C32.1199 7.24119 24.9568 0.121094 16.1208 0.121094C7.28478 0.121094 0.121765 7.24119 0.121765 16.0243C0.121765 24.8074 7.28478 31.9274 16.1208 31.9274Z" fill="black"></path><path d="M27.1277 10.4569C27.1277 9.5129 26.3485 8.73832 25.3988 8.73832C25.0091 8.73832 24.6439 8.85935 24.3517 9.10141C24.3273 9.10141 24.3273 9.0772 24.3029 9.0772C22.4522 8.15738 20.5041 7.35859 18.556 6.65663C18.2394 6.5356 17.9228 6.41457 17.5819 6.31775C17.4601 5.61578 16.8513 5.08325 16.0964 5.08325C15.3172 5.08325 14.6597 5.6884 14.611 6.43877C12.9307 7.14074 11.3479 8.03635 9.765 8.93197C8.93704 9.39188 8.10909 9.87599 7.30548 10.3843C7.13502 10.5053 6.94021 10.6264 6.74539 10.7474C6.64799 10.699 6.50188 10.6506 6.33141 10.6506C5.64957 10.6506 5.11383 11.1831 5.11383 11.8609C5.11383 12.2724 5.30864 12.6112 5.62522 12.8291C5.62522 12.9017 5.62522 12.9743 5.62522 13.0227C5.64957 13.991 5.74697 14.9834 5.84438 15.9516C5.94179 16.9683 6.0879 17.9849 6.25836 19.0016C6.28271 19.171 6.30706 19.3404 6.33141 19.5341C6.11225 19.7519 5.99049 20.0424 5.99049 20.3813C5.99049 21.059 6.52623 21.5916 7.20807 21.5916C7.30548 21.5916 7.37854 21.5916 7.45159 21.5674C7.67076 21.761 7.86557 21.9547 8.08473 22.1483C8.86399 22.8745 9.66759 23.5764 10.4712 24.2784C11.1287 24.8351 11.8105 25.3677 12.5654 25.8276C12.6141 26.4569 13.1255 26.941 13.783 26.941C14.3188 26.941 14.7814 26.578 14.9519 26.0938C16.3643 25.7066 17.728 25.0772 19.0673 24.5447C20.4554 23.9879 21.8678 23.3828 23.2315 22.7534C23.4019 22.6808 23.6211 22.584 23.8403 22.4872C24.1325 22.705 24.4978 22.8503 24.8874 22.8503C25.8371 22.8503 26.592 22.0757 26.6164 21.1317C26.6164 20.5023 26.2754 19.9456 25.7397 19.6551C25.8371 18.8563 25.8858 18.0575 25.9589 17.2587C26.0806 15.5159 26.2024 13.7489 26.178 11.9819C26.7381 11.7156 27.1277 11.1347 27.1277 10.4569ZM24.9361 13.5311C24.8874 15.5159 24.7413 17.5008 24.5465 19.4615C24.2542 19.5099 23.9864 19.6551 23.7672 19.8488C22.8906 19.3646 22.0382 18.9047 21.1616 18.4206C21.2103 18.2028 21.259 17.9849 21.259 17.7671C21.259 17.2587 21.1129 16.7746 20.845 16.3873L24.8143 12.0545C24.863 12.0787 24.9361 12.1029 24.9848 12.1029C24.9604 12.5628 24.9361 13.0469 24.9361 13.5311ZM13.9048 24.3994L10.8365 16.6536C12.6385 17.0409 14.4162 17.4524 16.2182 17.8397C16.2425 18.4932 16.5104 19.0984 16.9487 19.5341C15.926 21.1559 14.9032 22.7777 13.9048 24.3994ZM7.45159 18.8079C7.30548 18.0333 7.20807 17.2587 7.11067 16.4842C6.98891 15.4675 6.8915 14.4509 6.8428 13.4342C6.8428 13.41 6.8428 13.3616 6.8428 13.3374C7.47594 14.0394 8.08473 14.7413 8.71788 15.4433C8.66917 15.5643 8.64482 15.6854 8.64482 15.8306C8.64482 16.0485 8.71788 16.2663 8.81529 16.4357C8.3526 17.2345 7.88992 18.0091 7.45159 18.8079ZM15.8773 8.06056L17.5819 15.5401C17.0949 15.7822 16.6809 16.1937 16.4617 16.6778C14.6597 16.2905 12.8333 15.879 11.0313 15.4675C11.0069 15.4191 10.9826 15.3465 10.9582 15.2981C12.5898 12.8775 14.2214 10.4811 15.8773 8.06056ZM19.4083 8.2542C20.845 8.81094 22.3305 9.39188 23.7185 10.118C23.6942 10.2391 23.6942 10.3359 23.6942 10.4569C23.6942 10.7474 23.7672 11.0137 23.889 11.2315L19.944 15.5643C19.6031 15.3707 19.1891 15.2739 18.7751 15.2497C18.215 12.7565 17.6306 10.2633 17.0705 7.77009C17.1923 7.69747 17.2897 7.60065 17.3627 7.47962C18.0446 7.72168 18.7264 7.98794 19.4083 8.2542ZM10.8608 9.70655C12.0784 9.02879 13.3203 8.30262 14.6353 7.74588L9.95981 14.6203C9.93546 14.6203 9.91111 14.6203 9.86241 14.6203C9.765 14.6203 9.69195 14.6203 9.61889 14.6445C8.91269 13.8457 8.20649 13.0469 7.50029 12.2482C7.549 12.1271 7.57335 12.0061 7.57335 11.8609C7.57335 11.7882 7.57335 11.7398 7.549 11.6672C7.79251 11.4978 8.06038 11.3525 8.3039 11.2073C9.13186 10.699 10.0085 10.1907 10.8608 9.70655ZM8.37696 20.7444C8.42566 20.6233 8.45001 20.5023 8.45001 20.3813C8.45001 20.1634 8.37696 19.9456 8.27955 19.7761C8.76658 18.9289 9.27797 18.0575 9.765 17.2103L12.6141 24.4236C12.5167 24.351 12.395 24.2784 12.2976 24.1816C10.9095 23.1407 9.59454 22.0031 8.37696 20.7444ZM15.2685 24.7141C15.1954 24.7383 15.1467 24.7625 15.0737 24.7625C16.0234 23.2134 16.9974 21.6884 17.9472 20.1392C18.1907 20.2118 18.4342 20.2603 18.7021 20.2603C19.4326 20.2603 20.0901 19.9456 20.5528 19.4615C21.4295 19.9456 22.3061 20.4055 23.1584 20.8896C23.1584 20.9622 23.1341 21.059 23.1341 21.1317C23.1341 21.2285 23.1341 21.3253 23.1584 21.4221C22.3792 21.8094 21.5999 22.1483 20.7963 22.4872C19.0186 23.3102 17.1679 24.0606 15.2685 24.7141Z" fill="white"></path><path d="M43.8574 11.183H48.5816L50.1888 17.4039L50.4567 16.0242L51.6742 11.183H55.4244L52.1856 21.3252H47.2422L43.8574 11.183ZM56.3741 7.84261C56.3741 7.55214 56.4472 7.26167 56.5689 7.01961C56.6907 6.77756 56.8612 6.5597 57.0803 6.36606C57.2995 6.17241 57.543 6.05138 57.8109 5.95456C58.0787 5.85774 58.371 5.80933 58.6875 5.80933C59.0285 5.80933 59.345 5.85774 59.6372 6.00297C59.9295 6.124 60.1486 6.29344 60.3678 6.48709C60.5626 6.68073 60.7087 6.89858 60.8305 7.14064C60.9279 7.3827 61.0009 7.62476 61.0009 7.86681C61.0009 8.18149 60.9279 8.44775 60.8061 8.68981C60.6844 8.93187 60.5139 9.14972 60.2947 9.34337C60.0756 9.53701 59.8321 9.68225 59.5642 9.77907C59.2963 9.87589 59.0041 9.9243 58.7119 9.9243C58.3953 9.9243 58.0787 9.87589 57.8109 9.75486C57.5186 9.65804 57.2751 9.51281 57.0803 9.31916C56.8855 9.12551 56.715 8.90766 56.5933 8.6656C56.4228 8.37514 56.3741 8.10887 56.3741 7.84261ZM62.7299 20.7927C61.9263 21.2526 61.0496 21.4947 60.0756 21.4947C59.4911 21.4947 58.9797 21.3978 58.5414 21.2042C58.0787 21.0105 57.7135 20.7443 57.3969 20.3812C57.0803 20.0181 56.8612 19.6066 56.6907 19.0983C56.5202 18.59 56.4472 18.0332 56.4472 17.4281V11.183H60.7574V17.2344C60.7574 17.5491 60.8548 17.7912 61.0253 17.9606C61.1958 18.1301 61.4149 18.2027 61.6828 18.2027C61.9507 18.2027 62.2185 18.1301 62.5107 17.9606L62.7299 20.7927ZM63.9231 11.3282H68.209V13.3857C68.5256 12.5627 68.9639 11.9818 69.4997 11.5945C70.0354 11.2072 70.6686 11.0378 71.3748 11.0378L71.9835 14.354C70.6929 14.354 69.7432 14.4992 69.1344 14.7655C68.5256 15.0317 68.2334 15.4674 68.2334 16.0726V21.3252H63.9475V11.3282H63.9231ZM80.8232 19.4614C80.5066 20.1149 80.0683 20.6232 79.5326 20.9621C78.9968 21.301 78.315 21.4947 77.487 21.4947C76.8295 21.4947 76.1964 21.3494 75.5876 21.0832C74.9788 20.8169 74.4431 20.4538 74.0047 19.9697C73.5421 19.5098 73.1768 18.953 72.9089 18.2995C72.641 17.6459 72.4949 16.944 72.4949 16.1936C72.4949 15.4432 72.641 14.7412 72.9089 14.1119C73.1768 13.4825 73.5421 12.9258 74.0047 12.4659C74.4674 12.006 75.0032 11.6429 75.5876 11.4009C76.172 11.1588 76.8295 11.0136 77.4627 11.0136C77.8036 11.0136 78.1445 11.062 78.4611 11.1346C78.802 11.2314 79.1186 11.3766 79.3865 11.5703C79.6787 11.7639 79.9465 12.006 80.1901 12.2965C80.4336 12.5869 80.6284 12.95 80.7988 13.3615V10.9894H85.0847V21.2768H80.7988L80.8232 19.4614ZM80.8232 16.1936C80.7989 15.9273 80.7501 15.6853 80.6284 15.4432C80.531 15.2012 80.3605 15.0075 80.1901 14.8139C79.9952 14.6444 79.8004 14.4992 79.5569 14.4024C79.3134 14.3055 79.0699 14.2571 78.802 14.2571C78.5098 14.2571 78.2419 14.3055 77.9984 14.4266C77.7549 14.5234 77.5357 14.6686 77.3409 14.8623C77.1461 15.0559 77 15.2738 76.9026 15.4916C76.8052 15.7337 76.7321 15.9999 76.7321 16.2662C76.7321 16.5567 76.7808 16.8229 76.9026 17.065C77 17.3071 77.1705 17.5249 77.3653 17.6943C77.5601 17.8638 77.7792 18.009 78.0228 18.1058C78.2663 18.2027 78.5341 18.2511 78.802 18.2511C79.0699 18.2511 79.3377 18.2027 79.5813 18.0816C79.8248 17.9848 80.0196 17.8396 80.2144 17.6459C80.3849 17.4765 80.531 17.2586 80.6527 17.0166C80.7502 16.7745 80.8232 16.5325 80.8232 16.2904V16.1936ZM93.827 20.7927C92.9016 21.2526 91.8789 21.4947 90.7587 21.4947C90.1743 21.4947 89.6629 21.3978 89.2245 21.2042C88.7618 21.0105 88.3966 20.7443 88.08 20.4054C87.7634 20.0423 87.5443 19.6308 87.3738 19.1225C87.2033 18.6142 87.1303 18.0574 87.1303 17.4281V7.98784L91.4162 7.35849V17.1376C91.4162 17.5007 91.5379 17.767 91.7571 17.9364C92.0006 18.1058 92.2928 18.2027 92.7068 18.2027C92.999 18.2027 93.3156 18.1301 93.6322 17.9606L93.827 20.7927ZM105.321 20.7927C104.396 21.2526 103.373 21.4947 102.253 21.4947C101.668 21.4947 101.157 21.3978 100.719 21.2042C100.256 21.0105 99.8906 20.7443 99.574 20.4054C99.2574 20.0665 99.0383 19.6066 98.8678 19.1225C98.6973 18.6142 98.6243 18.0574 98.6243 17.4281V7.98784L102.91 7.35849V17.1376C102.91 17.5007 103.032 17.767 103.251 17.9364C103.495 18.1058 103.787 18.2027 104.201 18.2027C104.493 18.2027 104.81 18.1301 105.126 17.9606L105.321 20.7927ZM105.857 16.242C105.881 15.3948 106.076 14.6444 106.392 13.9909C106.709 13.3373 107.147 12.8048 107.659 12.3691C108.194 11.9334 108.803 11.5945 109.509 11.3766C110.216 11.1588 110.946 11.0378 111.75 11.0378C112.602 11.0378 113.406 11.1588 114.112 11.4251C114.818 11.6913 115.451 12.0302 115.963 12.4901C116.474 12.95 116.888 13.5068 117.156 14.1361C117.448 14.7655 117.594 15.4674 117.594 16.242C117.594 16.8714 117.521 17.4281 117.351 17.9122C117.18 18.4205 116.961 18.8562 116.693 19.2435C116.425 19.6308 116.084 19.9697 115.719 20.236C115.354 20.5264 114.94 20.7443 114.502 20.9379C114.063 21.1074 113.601 21.2526 113.138 21.3494C112.675 21.422 112.213 21.4704 111.75 21.4704C110.873 21.4704 110.07 21.3494 109.363 21.0832C108.633 20.8411 108.024 20.478 107.513 20.0181C107.001 19.5582 106.587 19.0015 106.319 18.3721C106.003 17.7428 105.857 17.0166 105.857 16.242ZM109.85 16.242C109.85 16.6051 109.899 16.944 110.021 17.2102C110.118 17.4765 110.264 17.7186 110.459 17.9122C110.63 18.1058 110.849 18.2269 111.068 18.3237C111.287 18.4205 111.531 18.4689 111.774 18.4689C112.018 18.4689 112.261 18.4205 112.48 18.3237C112.7 18.2269 112.919 18.1058 113.089 17.9122C113.26 17.7186 113.406 17.5007 113.528 17.2102C113.625 16.944 113.698 16.6051 113.698 16.242C113.698 15.8789 113.649 15.54 113.528 15.2738C113.43 15.0075 113.284 14.7655 113.089 14.596C112.919 14.4266 112.7 14.2813 112.48 14.1845C112.261 14.0877 112.018 14.0393 111.774 14.0393C111.531 14.0393 111.312 14.0877 111.068 14.1845C110.824 14.2813 110.63 14.4266 110.459 14.596C110.289 14.7655 110.143 15.0075 110.021 15.2738C109.899 15.5642 109.85 15.8789 109.85 16.242ZM118.641 16.242C118.666 15.3948 118.861 14.6444 119.177 13.9909C119.494 13.3373 119.932 12.8048 120.443 12.3691C120.979 11.9334 121.588 11.5945 122.294 11.3766C123 11.1588 123.731 11.0378 124.534 11.0378C125.387 11.0378 126.19 11.1588 126.897 11.4251C127.603 11.6913 128.236 12.0302 128.747 12.4901C129.259 12.95 129.673 13.5068 129.941 14.1361C130.233 14.7655 130.379 15.4674 130.379 16.242C130.379 16.8714 130.306 17.4281 130.135 17.9122C129.965 18.4205 129.746 18.8562 129.478 19.2435C129.21 19.6308 128.869 19.9697 128.504 20.236C128.139 20.5264 127.725 20.7443 127.286 20.9379C126.848 21.1074 126.385 21.2526 125.923 21.3494C125.46 21.422 124.997 21.4704 124.534 21.4704C123.658 21.4704 122.854 21.3494 122.148 21.0832C121.417 20.8411 120.809 20.478 120.297 20.0181C119.786 19.5582 119.372 19.0015 119.104 18.3721C118.763 17.7428 118.641 17.0166 118.641 16.242ZM122.611 16.242C122.611 16.6051 122.659 16.944 122.781 17.2102C122.879 17.4765 123.025 17.7186 123.219 17.9122C123.39 18.0816 123.609 18.2269 123.828 18.3237C124.072 18.4205 124.291 18.4689 124.534 18.4689C124.778 18.4689 124.997 18.4205 125.241 18.3237C125.484 18.2269 125.679 18.0816 125.849 17.9122C126.044 17.7186 126.166 17.5007 126.288 17.2102C126.41 16.9198 126.458 16.6051 126.458 16.242C126.458 15.8789 126.41 15.54 126.288 15.2738C126.19 15.0075 126.044 14.7655 125.849 14.596C125.679 14.4266 125.46 14.2813 125.241 14.1845C125.021 14.0877 124.778 14.0393 124.534 14.0393C124.291 14.0393 124.072 14.0877 123.828 14.1845C123.585 14.2813 123.39 14.4266 123.219 14.596C123.049 14.7655 122.903 15.0075 122.781 15.2738C122.659 15.5642 122.611 15.8789 122.611 16.242ZM139.535 21.4947C138.78 21.4947 138.123 21.3494 137.587 21.0347C137.027 20.7201 136.564 20.2117 136.199 19.4614V23.9636L131.913 24.7624V11.3282H136.199V13.0711C136.54 12.3449 137.003 11.8124 137.563 11.4977C138.123 11.183 138.78 11.0136 139.535 11.0136C140.168 11.0136 140.753 11.1104 141.337 11.304C141.897 11.4977 142.433 11.8366 142.944 12.3207C144.016 13.3615 144.527 14.6686 144.527 16.242C144.527 17.7912 143.991 19.0983 142.944 20.1391C142.457 20.6232 141.922 20.9621 141.361 21.1558C140.777 21.3978 140.168 21.4947 139.535 21.4947ZM136.199 16.2662C136.199 16.5567 136.248 16.8229 136.369 17.065C136.467 17.3071 136.637 17.5249 136.808 17.6943C137.003 17.888 137.197 18.009 137.441 18.1301C137.684 18.2269 137.928 18.2753 138.196 18.2753C138.488 18.2753 138.756 18.2269 138.999 18.1058C139.243 18.009 139.462 17.8396 139.657 17.6701C139.827 17.4765 139.973 17.2829 140.095 17.0166C140.217 16.7503 140.241 16.5083 140.241 16.242C140.241 15.9273 140.193 15.6369 140.071 15.3948C139.949 15.1527 139.803 14.9349 139.608 14.7655C139.413 14.596 139.194 14.4508 138.951 14.3782C138.707 14.2813 138.464 14.2329 138.22 14.2329C137.904 14.2329 137.611 14.2813 137.368 14.4266C137.124 14.5476 136.929 14.6928 136.759 14.8865C136.589 15.0801 136.467 15.2738 136.369 15.5158C136.272 15.7579 136.223 15.9757 136.199 16.1694V16.2662ZM150.445 13.5552C149.641 13.5552 149.227 13.7004 149.227 13.9667C149.227 14.0635 149.251 14.1603 149.324 14.2571C149.373 14.3298 149.471 14.4024 149.568 14.475C149.665 14.5476 149.787 14.596 149.885 14.6202C150.006 14.6686 150.128 14.6928 150.25 14.6928C150.761 14.7655 151.248 14.8865 151.711 15.0559C152.149 15.2254 152.539 15.4432 152.88 15.7095C153.196 15.9757 153.464 16.3146 153.659 16.7019C153.854 17.0892 153.951 17.5491 153.951 18.1058C153.951 18.6384 153.854 19.1225 153.659 19.534C153.464 19.9455 153.196 20.3086 152.88 20.599C152.539 20.8895 152.149 21.1074 151.687 21.2526C151.224 21.3978 150.737 21.4704 150.201 21.4704C149.324 21.4704 148.545 21.422 147.815 21.3494C147.084 21.2768 146.427 21.1074 145.842 20.8411L146.305 18.5173C146.524 18.5658 146.719 18.6384 146.865 18.6626C147.035 18.711 147.157 18.7352 147.279 18.7594C147.376 18.7836 147.498 18.8078 147.669 18.832C147.815 18.8562 147.985 18.8804 148.156 18.9288C148.326 18.953 148.497 18.9773 148.691 19.0015C148.862 19.0257 149.032 19.0257 149.178 19.0257C149.86 19.0257 150.201 18.8562 150.201 18.5415C150.177 18.4205 150.128 18.2995 150.055 18.2027C149.958 18.1058 149.86 18.009 149.738 17.9606C149.592 17.888 149.446 17.8396 149.3 17.7912C149.13 17.7428 148.959 17.6943 148.789 17.6701C148.277 17.5733 147.815 17.4281 147.425 17.2829C147.035 17.1134 146.694 16.8956 146.427 16.6535C146.159 16.3872 145.964 16.0726 145.818 15.6853C145.672 15.298 145.623 14.8623 145.623 14.3298C145.647 13.7488 145.769 13.2405 146.013 12.8048C146.232 12.3933 146.548 12.0302 146.938 11.7881C147.328 11.5219 147.766 11.3282 148.302 11.2072C148.837 11.0862 149.398 11.0136 150.006 11.0136C150.639 11.0136 151.248 11.0378 151.833 11.1104C152.393 11.183 152.929 11.3282 153.44 11.5703L153.002 13.9909C151.93 13.7246 151.102 13.5552 150.445 13.5552Z" fill="black"></path></g><defs><clipPath id="clip0_823_393"><rect width="154" height="32" fill="white"></rect></clipPath></defs></svg>