<svg xmlns="http://www.w3.org/2000/svg" width="30" height="20" viewBox="0 0 30 20" fill="none"><path d="M24.4505 0.466297C24.1666 1.08803 23.9064 1.75416 23.6699 2.46471C23.4807 3.13085 23.3624 3.79699 23.3151 4.46312C23.3151 5.08485 23.4334 5.66217 23.6699 6.19508C23.9064 6.68358 24.3322 7.08327 24.9472 7.39413C26.1772 8.01586 27.2179 8.81523 28.0695 9.79223C28.9683 10.7248 29.4177 11.8795 29.4177 13.2561C29.4177 14.0999 29.2521 14.8993 28.921 15.6542C28.5898 16.4092 28.1168 17.0753 27.5018 17.6527C26.9341 18.1856 26.2481 18.6075 25.4439 18.9183C24.6397 19.2292 23.7882 19.3846 22.8893 19.3846C21.0916 19.3846 19.5778 18.7851 18.3478 17.586C17.1178 16.387 16.4555 14.9437 16.3609 13.2561C16.219 11.4798 16.4555 9.83664 17.0705 8.32673C17.7328 6.7724 18.4897 5.41792 19.3413 4.26328C20.2401 3.10864 21.1153 2.17605 21.9668 1.4655C22.8184 0.710547 23.4097 0.222046 23.7409 0C23.8355 0.0444092 23.9537 0.111023 24.0957 0.199841L24.3085 0.399683C24.3558 0.444092 24.4032 0.466297 24.4505 0.466297ZM8.12946 0.466297C7.84561 1.08803 7.58542 1.75416 7.34889 2.46471C7.15966 3.13085 7.04139 3.79699 6.99408 4.46312C6.99408 5.08485 7.11235 5.66217 7.34889 6.19508C7.58542 6.68358 8.01119 7.08327 8.62618 7.39413C9.85617 8.01586 10.8969 8.81523 11.7485 9.79223C12.6473 10.7248 13.0967 11.8795 13.0967 13.2561C13.0967 14.0999 12.9311 14.8993 12.6 15.6542C12.2688 16.4092 11.7958 17.0753 11.1808 17.6527C10.6131 18.1856 9.92713 18.6075 9.12291 18.9183C8.31869 19.2292 7.46715 19.3846 6.56832 19.3846C4.77064 19.3846 3.25681 18.7851 2.02682 17.586C0.796832 16.387 0.13453 14.9437 0.0399155 13.2561C-0.102006 11.4798 0.13453 9.83664 0.749524 8.32673C1.41183 6.7724 2.16874 5.41792 3.02027 4.26328C3.91911 3.10864 4.79429 2.17605 5.64583 1.4655C6.49736 0.710547 7.0887 0.222046 7.41985 0C7.51446 0.0444092 7.63273 0.111023 7.77465 0.199841L7.98753 0.399683C8.03484 0.444092 8.08215 0.466297 8.12946 0.466297Z" fill="#E0FF65"></path></svg>