<svg xmlns="http://www.w3.org/2000/svg" width="45" height="63" viewBox="0 0 45 63" fill="none"><g clip-path="url(#clip0_3854_10181)"><path d="M2.65995 9.23984C2.75995 26.1398 3.81995 43.0098 3.91995 59.9098C3.91995 61.3598 6.17995 61.3598 6.16995 59.9098C6.06995 43.0098 5.00994 26.1398 4.90995 9.23984C4.90995 7.78984 2.64995 7.78984 2.65995 9.23984Z" fill="#D7FF65"></path><path d="M4.89009 61.6499C5.69009 61.8599 6.55009 62.1099 7.38009 62.0199C8.21009 61.9299 9.02008 61.6199 9.82009 61.3099C10.1001 61.1999 10.3301 61.0599 10.4901 60.7899C10.6301 60.5499 10.6901 60.1899 10.6001 59.9199C10.4301 59.3899 9.80009 58.9099 9.22009 59.1299C8.82009 59.2799 8.43009 59.4399 8.03009 59.5699C7.87009 59.6199 7.72009 59.6699 7.56009 59.7099C7.49009 59.7299 7.42009 59.7399 7.35009 59.7499C7.32009 59.7499 7.27009 59.7499 7.24009 59.7699C7.26009 59.7599 7.57009 59.7399 7.38009 59.7499C7.24009 59.7599 7.11009 59.7699 6.97009 59.7599C6.90009 59.7599 6.83009 59.7599 6.75009 59.7499C6.53009 59.7199 6.71009 59.7499 6.75009 59.7499C6.79009 59.7499 6.97009 59.7799 6.75009 59.7499C6.33009 59.6799 5.91008 59.5699 5.49009 59.4599C4.92009 59.3099 4.24009 59.6499 4.11009 60.2499C3.98009 60.8499 4.29009 61.4699 4.90009 61.6299L4.89009 61.6499Z" fill="#D7FF65"></path><path d="M4.16995 7.14033C4.01995 7.12033 3.85995 7.08033 3.70995 7.04033C3.67995 7.04033 3.44995 6.98033 3.62995 7.02033C3.79995 7.05033 3.59995 7.00033 3.55995 6.98033C3.43995 6.92033 3.32995 6.82033 3.19995 6.76033C3.05995 6.70033 3.39995 6.94033 3.21995 6.77033C3.14995 6.70033 3.06995 6.64033 2.99995 6.56033C2.94995 6.51033 2.68995 6.18033 2.87995 6.44033C2.79995 6.32033 2.71995 6.21033 2.63995 6.08033C2.55995 5.95033 2.50995 5.83033 2.43995 5.70033C2.56995 5.97033 2.45995 5.74033 2.43995 5.68033C2.40995 5.61033 2.38995 5.53033 2.36995 5.46033C2.32995 5.32033 2.29995 5.18033 2.26995 5.04033C2.23995 4.90033 2.17995 4.92033 2.26995 5.07033C2.23995 5.03033 2.24995 4.89033 2.24995 4.83033C2.24995 4.70033 2.24995 4.57033 2.24995 4.44033C2.24995 4.41033 2.24995 4.23033 2.26995 4.21033C2.24995 4.38033 2.23995 4.40033 2.26995 4.28033C2.26995 4.24033 2.27995 4.20033 2.28995 4.17033C2.31995 4.03033 2.35995 3.89033 2.39995 3.76033C2.41995 3.69033 2.53995 3.48033 2.39995 3.74033C2.41995 3.69033 2.43995 3.65033 2.46995 3.60033C2.53995 3.46033 2.62995 3.33033 2.71995 3.20033C2.69995 3.23033 2.56995 3.37033 2.70995 3.23033C2.78995 3.15033 2.85995 3.06033 2.94995 2.98033C3.00995 2.92033 3.07995 2.87033 3.13995 2.81033C3.10995 2.83033 2.94995 2.94033 3.11995 2.83033C3.25995 2.74033 3.39995 2.65033 3.55995 2.57033C3.60995 2.54033 3.65995 2.52033 3.70995 2.50033C3.45995 2.63033 3.70995 2.50033 3.75995 2.49033C3.91995 2.43033 4.08995 2.38033 4.24995 2.35033C4.32995 2.33033 4.41995 2.32033 4.49995 2.30033C4.77995 2.24033 4.24995 2.30033 4.53995 2.30033C4.67995 2.30033 4.82995 2.28033 4.96995 2.28033C5.10995 2.28033 5.25995 2.29033 5.39995 2.30033C5.68995 2.31033 5.15995 2.25033 5.44995 2.30033C5.55995 2.32033 5.67995 2.34033 5.78995 2.37033C5.92995 2.40033 6.06995 2.44033 6.20995 2.49033C6.28995 2.52033 6.36995 2.55033 6.44995 2.58033C6.21995 2.49033 6.36995 2.55033 6.41995 2.58033C6.56995 2.66033 6.72995 2.74033 6.86995 2.83033C6.91995 2.86033 6.96995 2.90033 7.00995 2.93033C7.10995 3.00033 7.09995 3.00033 6.98995 2.91033C7.03995 2.95033 7.07995 2.98033 7.11995 3.02033C7.22995 3.12033 7.33995 3.23033 7.43995 3.34033C7.49995 3.41033 7.56995 3.48033 7.62995 3.56033C7.46995 3.36033 7.65995 3.61033 7.67995 3.64033C7.76995 3.77033 7.84995 3.91033 7.91995 4.05033C7.95995 4.13033 7.99995 4.22033 8.04995 4.31033C7.93995 4.08033 8.05995 4.34033 8.07995 4.39033C8.15995 4.60033 8.21995 4.81033 8.26995 5.03033C8.27995 5.09033 8.29995 5.15033 8.30995 5.22033C8.31995 5.28033 8.32995 5.35033 8.33995 5.41033C8.31995 5.27033 8.31995 5.26033 8.33995 5.40033C8.36995 5.79033 8.36995 6.17033 8.33995 6.56033C8.31995 6.88033 8.38995 6.33033 8.32995 6.64033C8.30995 6.77033 8.27995 6.89033 8.24995 7.02033C8.20995 7.21033 8.14995 7.40033 8.08995 7.58033C8.05995 7.67033 8.01995 7.76033 7.98995 7.85033C8.05995 7.67033 7.98995 7.86033 7.94995 7.93033C7.84995 8.13033 7.73995 8.33033 7.61995 8.52033C7.29995 9.02033 7.49995 9.78033 8.01995 10.0603C8.57996 10.3503 9.21995 10.1903 9.55995 9.66033C10.57 8.07033 10.88 6.03033 10.38 4.21033C9.87995 2.39033 8.55995 0.880332 6.75995 0.290332C5.15995 -0.249668 3.18995 -0.0496682 1.82995 0.980332C0.349954 2.09033 -0.230046 3.79033 0.0799538 5.60033C0.389954 7.41033 1.75995 9.04033 3.56995 9.31033C4.14995 9.40033 4.80995 9.16033 4.94995 8.52033C5.06995 7.98033 4.78995 7.23033 4.15995 7.14033H4.16995Z" fill="#D7FF65"></path><path d="M6.87997 9.23024C7.40997 24.4802 7.86997 39.7302 8.32997 54.9902C8.37997 56.5202 8.41997 58.0502 8.46997 59.5802C8.50997 61.0202 10.76 61.0302 10.72 59.5802C10.34 46.9402 9.94997 34.2902 9.53997 21.6502C9.40997 17.5102 9.26997 13.3702 9.12997 9.23024C9.07997 7.79024 6.82997 7.78024 6.87997 9.23024Z" fill="#D7FF65"></path><path d="M9.52003 14.4199C15.85 14.1599 22.18 13.8999 28.52 13.6399C29.96 13.5799 29.97 11.3299 28.52 11.3899C22.19 11.6499 15.86 11.9099 9.52003 12.1699C8.08003 12.2299 8.07003 14.4799 9.52003 14.4199Z" fill="#D7FF65"></path><path d="M27.01 12.9C27.07 19.23 27.12 25.57 27.18 31.9C27.19 33.35 29.44 33.35 29.43 31.9C29.37 25.57 29.32 19.23 29.26 12.9C29.25 11.45 27 11.45 27.01 12.9Z" fill="#D7FF65"></path><path d="M10.19 34.9999C15.97 34.6199 21.75 34.2299 27.54 33.8499C28.98 33.7499 28.99 31.4999 27.54 31.5999C21.76 31.9799 15.98 32.3699 10.19 32.7499C8.74995 32.8499 8.73995 35.0999 10.19 34.9999Z" fill="#D7FF65"></path><path d="M28.52 18.5298C33 18.3698 37.47 18.3198 41.95 18.1598L40.87 16.7398C39.83 20.4098 38.25 23.8898 36.19 27.0998C35.41 28.3198 37.35 29.4498 38.13 28.2398C40.29 24.8698 41.94 21.1898 43.03 17.3398C43.22 16.6598 42.68 15.8898 41.95 15.9198C37.47 16.0798 33 16.1298 28.52 16.2898C27.08 16.3398 27.07 18.5898 28.52 18.5398V18.5298Z" fill="#D7FF65"></path><path d="M36.7801 28.5903C38.4601 31.7703 40.1501 34.9603 41.8301 38.1403C42.0701 38.5903 42.3101 39.0503 42.5501 39.5003C43.2301 40.7803 45.1701 39.6403 44.4901 38.3603C42.8101 35.1803 41.1201 31.9903 39.4401 28.8103C39.2001 28.3603 38.9601 27.9003 38.7201 27.4503C38.0401 26.1703 36.1001 27.3103 36.7801 28.5903Z" fill="#D7FF65"></path><path d="M22.3499 35.2396C22.4299 36.4596 22.5699 37.6796 22.6499 38.9096C22.6699 39.2096 22.7599 39.4896 22.9799 39.7096C23.1799 39.9096 23.4999 40.0496 23.7799 40.0396C24.3599 40.0096 24.9499 39.5396 24.8999 38.9196C24.8199 37.6996 24.6799 36.4796 24.5999 35.2496C24.5799 34.9496 24.4899 34.6696 24.2699 34.4496C24.0699 34.2496 23.7499 34.1096 23.4699 34.1196C22.8899 34.1496 22.2999 34.6196 22.3499 35.2396Z" fill="#D7FF65"></path><path d="M24.53 40.2102C30.85 39.8002 37.2 40.4702 43.52 40.0602C44.96 39.9702 44.97 37.7202 43.52 37.8102C37.2 38.2202 30.85 37.5502 24.53 37.9602C23.09 38.0502 23.08 40.3002 24.53 40.2102Z" fill="#D7FF65"></path><path d="M26.91 32.3505C26.02 34.1305 25.13 35.9005 24.24 37.6805C23.98 38.2105 24.08 38.9205 24.64 39.2205C25.15 39.4905 25.9 39.3805 26.18 38.8205C27.07 37.0405 27.96 35.2705 28.85 33.4905C29.11 32.9605 29.01 32.2505 28.45 31.9505C27.94 31.6805 27.19 31.7905 26.91 32.3505Z" fill="#D7FF65"></path><path d="M24.73 33.5898C24.4 34.4798 24.06 35.3698 23.73 36.2498C23.63 36.5098 23.71 36.8898 23.84 37.1198C23.97 37.3498 24.24 37.5798 24.51 37.6398C24.8 37.7098 25.12 37.6898 25.38 37.5298C25.64 37.3698 25.79 37.1498 25.9 36.8598C26.23 35.9698 26.57 35.0798 26.9 34.1998C27 33.9398 26.92 33.5598 26.79 33.3298C26.66 33.0998 26.39 32.8698 26.12 32.8098C25.83 32.7398 25.51 32.7598 25.25 32.9198C24.99 33.0798 24.84 33.2998 24.73 33.5898Z" fill="#D7FF65"></path><path d="M4.19011 15.3596H6.19011C6.48011 15.3596 6.78011 15.2296 6.99011 15.0296C7.20011 14.8296 7.33011 14.5096 7.32011 14.2296C7.31011 13.9496 7.21011 13.6396 6.99011 13.4296C6.77011 13.2196 6.50011 13.0996 6.19011 13.0996H4.19011C3.90011 13.0996 3.60011 13.2296 3.39011 13.4296C3.18011 13.6296 3.05011 13.9496 3.06011 14.2296C3.07011 14.5096 3.17011 14.8196 3.39011 15.0296C3.61011 15.2396 3.88011 15.3596 4.19011 15.3596Z" fill="#D7FF65"></path><path d="M4.2899 35.2098C5.7099 35.9198 7.3299 35.9198 8.7599 35.2098C9.2899 34.9498 9.4799 34.1598 9.1599 33.6698C8.8099 33.1298 8.1899 32.9898 7.6199 33.2698C7.5499 33.2998 7.4899 33.3298 7.4199 33.3598L7.6899 33.2498C7.3899 33.3798 7.0699 33.4598 6.7399 33.5098L7.0399 33.4698C6.6899 33.5098 6.3499 33.5098 5.9999 33.4698L6.2999 33.5098C5.9699 33.4598 5.6599 33.3798 5.3499 33.2498L5.6199 33.3598C5.5499 33.3298 5.4899 33.2998 5.4199 33.2698C5.1499 33.1298 4.8499 33.0698 4.5499 33.1598C4.2899 33.2298 4.0099 33.4298 3.8799 33.6798C3.6099 34.1898 3.7199 34.9398 4.2799 35.2198L4.2899 35.2098Z" fill="#D7FF65"></path></g><defs><clipPath id="clip0_3854_10181"><rect width="44.64" height="62.04" fill="white"></rect></clipPath></defs></svg>