<svg xmlns="http://www.w3.org/2000/svg" width="33" height="33" viewBox="0 0 33 33" fill="none"><g clip-path="url(#clip0_1942_9843)"><path fill-rule="evenodd" clip-rule="evenodd" d="M17.2799 3.221C17.0103 2.95142 16.6447 2.79997 16.2635 2.79997C15.8822 2.79997 15.5166 2.95142 15.247 3.221L3.0494 15.4186C2.77981 15.6882 2.62836 16.0538 2.62836 16.4351C2.62836 16.8163 2.77981 17.1819 3.0494 17.4515L15.247 29.6491C15.5166 29.9187 15.8822 30.0701 16.2635 30.0702C16.6447 30.0701 17.0103 29.9187 17.2799 29.6491L29.4775 17.4515C29.7471 17.1819 29.8985 16.8163 29.8985 16.4351C29.8985 16.0538 29.7471 15.6882 29.4775 15.4186L17.2799 3.221ZM2.03293 18.468C1.49376 17.9288 1.19086 17.1976 1.19086 16.4351C1.19086 15.6726 1.49376 14.9413 2.03293 14.4021L14.2305 2.20453C14.7697 1.66537 15.501 1.36247 16.2635 1.36247C17.026 1.36247 17.7572 1.66537 18.2964 2.20453L30.494 14.4021C31.0331 14.9413 31.336 15.6726 31.336 16.4351C31.336 17.1976 31.0331 17.9288 30.494 18.468L18.2964 30.6656C17.7572 31.2047 17.026 31.5076 16.2635 31.5077C15.501 31.5077 14.7697 31.2047 14.2305 30.6656L2.03293 18.468ZM11.1811 15.7154C10.9903 15.7154 10.8072 15.7912 10.6723 15.9262C10.5373 16.0611 10.4615 16.2442 10.4615 16.4351C10.4615 16.6259 10.5373 16.809 10.6723 16.9439C10.8072 17.0789 10.9903 17.1547 11.1811 17.1547L19.509 17.1537L16.6955 19.9673C16.5607 20.1021 16.4849 20.2849 16.4849 20.4755C16.4849 20.6661 16.5607 20.849 16.6955 20.9837C16.8302 21.1185 17.0131 21.1943 17.2037 21.1943C17.3943 21.1943 17.5771 21.1185 17.7119 20.9837L21.7524 16.9433C21.8872 16.8085 21.9629 16.6257 21.9629 16.4351C21.9629 16.2444 21.8872 16.0616 21.7524 15.9268L17.7119 11.8864C17.5771 11.7516 17.3943 11.6759 17.2037 11.6759C17.0131 11.6759 16.8302 11.7516 16.6955 11.8864C16.5607 12.0212 16.4849 12.204 16.4849 12.3946C16.4849 12.5852 16.5607 12.768 16.6955 12.9028L19.509 15.7164L11.1811 15.7154Z" fill="#D7FF65"></path></g><defs><clipPath id="clip0_1942_9843"><rect width="23" height="23" fill="white" transform="translate(0 16.4351) rotate(-45)"></rect></clipPath></defs></svg>