<svg xmlns="http://www.w3.org/2000/svg" width="29" height="29" viewBox="0 0 29 29" fill="none"><path d="M14.5 0C10.7893 0 7.07791 1.41493 4.24676 4.2462C-1.41559 9.90867 -1.41559 19.0907 4.24676 24.7531C9.90908 30.4156 19.0909 30.4156 24.7532 24.7531C30.4156 19.0906 30.4156 9.90865 24.7532 4.2462C21.9221 1.41493 18.2107 0 14.5 0ZM14.5 3.78774C17.2414 3.78774 19.9836 4.83241 22.0753 6.92414C26.2587 11.1076 26.2587 17.8916 22.0753 22.0751C17.892 26.2586 11.1081 26.2586 6.92467 22.0751C2.74127 17.8917 2.7413 11.1076 6.92467 6.92414C9.01637 4.83241 11.7586 3.78774 14.5 3.78774ZM13.0168 6.22147V12.9952H9.26275V16.7033H16.7248V6.22147H13.0168Z" fill="#D7FF65"></path></svg>