<svg xmlns="http://www.w3.org/2000/svg" width="28" height="28" viewBox="0 0 28 28" fill="none"><path d="M13.98 0C11.215 0 8.51213 0.819913 6.21313 2.35606C3.91413 3.8922 2.12228 6.07557 1.06417 8.63009C0.00605731 11.1846 -0.270793 13.9955 0.268628 16.7074C0.808049 19.4192 2.13951 21.9102 4.09465 23.8654C6.04979 25.8205 8.54079 27.152 11.2526 27.6914C13.9645 28.2308 16.7754 27.954 19.3299 26.8958C21.8844 25.8377 24.0678 24.0459 25.6039 21.7469C27.1401 19.4479 27.96 16.745 27.96 13.98C27.96 12.1441 27.5984 10.3262 26.8958 8.63009C26.1933 6.93395 25.1635 5.39281 23.8654 4.09465C22.5672 2.79648 21.026 1.76673 19.3299 1.06416C17.6338 0.361603 15.8159 0 13.98 0ZM13.98 25.164C11.768 25.164 9.60571 24.5081 7.76651 23.2792C5.92731 22.0502 4.49383 20.3035 3.64734 18.2599C2.80085 16.2163 2.57937 13.9676 3.0109 11.7981C3.44244 9.62863 4.50761 7.63583 6.07172 6.07172C7.63583 4.50761 9.62863 3.44244 11.7981 3.0109C13.9676 2.57936 16.2163 2.80084 18.2599 3.64733C20.3035 4.49382 22.0502 5.9273 23.2792 7.7665C24.5081 9.6057 25.164 11.768 25.164 13.98C25.164 16.9462 23.9857 19.7909 21.8883 21.8883C19.7909 23.9857 16.9462 25.164 13.98 25.164Z" fill="#D7FF65"></path><path d="M13.9797 12.5818C11.1837 12.5818 11.1837 11.7011 11.1837 11.1838C11.1837 10.6665 12.1623 9.7858 13.9797 9.7858C15.7971 9.7858 15.9229 10.6805 15.9369 11.1838H18.7329C18.714 10.2314 18.3715 9.31384 17.7616 8.58206C17.1518 7.85027 16.3111 7.34788 15.3777 7.15756V5.5918H12.5817V7.11562C9.7857 7.57696 8.3877 9.38038 8.3877 11.1838C8.3877 12.7496 9.11466 15.3778 13.9797 15.3778C16.7757 15.3778 16.7757 16.3284 16.7757 16.7758C16.7757 17.2232 15.9089 18.1738 13.9797 18.1738C11.4074 18.1738 11.1837 16.9715 11.1837 16.7758H8.3877C8.3877 18.062 9.31038 20.3407 12.5817 20.858V22.3678H15.3777V20.858C18.1737 20.3826 19.5717 18.5792 19.5717 16.7758C19.5717 15.21 18.8447 12.5818 13.9797 12.5818Z" fill="#D7FF65"></path></svg>