<svg xmlns="http://www.w3.org/2000/svg" width="159.141" height="107.484" viewBox="0 0 159.141 107.484"><g id="_" data-name="@" transform="translate(-879.614 -287.746)"><path id="Path_2461" data-name="Path 2461" d="M3.208,74,40.785,53.632a21.966,21.966,0,0,1,20.554-.19l39.008,20.2a5.4,5.4,0,0,1,.094,9.558L62.864,103.575a21.963,21.963,0,0,1-20.554.19L3.3,83.566a5.4,5.4,0,0,1-.094-9.558Z" transform="translate(935.099 288.65)" fill="#d8c7ff"></path><path id="Path_2462" data-name="Path 2462" d="M3.038,73.689,40.615,53.314a22.3,22.3,0,0,1,20.9-.2l39.009,20.2a5.753,5.753,0,0,1,.1,10.2L63.046,103.888a22.283,22.283,0,0,1-10.637,2.7,21.874,21.874,0,0,1-10.263-2.5L3.138,83.878a5.752,5.752,0,0,1-.1-10.2Zm.44,9.552,39.008,20.206a21.556,21.556,0,0,0,20.2-.191l37.578-20.368a5.031,5.031,0,0,0-.088-8.916l-39.009-20.2a21.546,21.546,0,0,0-9.922-2.421,21.959,21.959,0,0,0-10.28,2.606L3.39,74.331a5.03,5.03,0,0,0,.088,8.916Z" transform="translate(935.093 288.643)" fill="#0b0b0b"></path><path id="Path_2463" data-name="Path 2463" d="M3.8,75.073,41.373,54.7a20.7,20.7,0,0,1,9.852-2.5,20.357,20.357,0,0,1,9.507,2.311l39.008,20.2a4.146,4.146,0,0,1,.07,7.351L62.232,102.434a20.7,20.7,0,0,1-19.358.185L3.865,82.419a4.147,4.147,0,0,1-.07-7.352Zm.416,6.708,39.008,20.2a20,20,0,0,0,9.166,2.231,20.407,20.407,0,0,0,9.494-2.4L99.458,81.434a3.428,3.428,0,0,0-.059-6.071l-39.008-20.2a19.99,19.99,0,0,0-9.167-2.231,20.387,20.387,0,0,0-9.493,2.4L4.152,75.71a3.428,3.428,0,0,0,.059,6.071" transform="translate(935.121 288.672)" fill="#fff"></path><path id="Path_2464" data-name="Path 2464" d="M69.172,53.888s-1.5-.822-3.56-1.941c1.226,1.779,2.439,3.621,3.56,5.4V53.888Z" transform="translate(936.256 288.667)" fill="#9357f5"></path><path id="Path_2465" data-name="Path 2465" d="M69.639,45.275A42.514,42.514,0,0,0,57.7,36.2q-7.045-3.6-12.426-3.209c-3.589.261-10.227,2.438-12.191,5.08s.927,5.5.927,10.028-.141,9.588,1.8,14.239,4.351,9.692,7.9,13.6S52.832,81.817,57.5,84.2c2.059,1.054,6.257,5.44,6.257,5.44l5.055-2.573L67.1,81a20.937,20.937,0,0,1-9.6-2.6,30.839,30.839,0,0,1-8.949-6.9,32.212,32.212,0,0,1-6-9.576,28.052,28.052,0,0,1-2.123-10.549c0-3.522.722-6.193,2.17-8.226A7.962,7.962,0,0,1,48.7,39.76q3.931-.348,9,2.242c1.5.77,5.031,5.242,8.5,10.288,2.059,1.118,3.56,1.941,3.56,1.941V57.7c2.909,4.629,5.161,8.818,5.161,10.155q0,8.108-3.038,6.552a3.623,3.623,0,0,1-1.542-1.524,5.443,5.443,0,0,1-.581-2.7V57.7c-1.119-1.778-2.334-3.626-3.56-5.4C62.5,50.286,57,47.3,55.183,46.376a10.577,10.577,0,0,0-3.255-1.1,6.063,6.063,0,0,0-3.09.37l-5.665,2.19a22.551,22.551,0,0,1,1.3,6.141,20.615,20.615,0,0,0,1.472,7.6,23.46,23.46,0,0,0,3.936,6.633,17.38,17.38,0,0,0,5.306,4.357q5.455,2.78,7.817-.557a13.341,13.341,0,0,0,2.7,4.779c1.219,1.391,5.518,6.35,5.518,6.35s2.9-1.175,4.351-1.911c1.63-.817,2.845-1.42,3.765-3.2a16.346,16.346,0,0,0,1.373-7.374A32.376,32.376,0,0,0,77.79,57.6a44.206,44.206,0,0,0-8.151-12.322ZM60.713,66.7q-1.328.887-3.448-.2a8.256,8.256,0,0,1-3.425-3.343,10,10,0,0,1-1.3-5.08c0-1.877.434-3.127,1.3-3.725s2.011-.538,3.425.18a8.447,8.447,0,0,1,3.448,3.331,9.769,9.769,0,0,1,1.325,5.068c0,1.883-.44,3.169-1.325,3.766" transform="translate(935.667 288.33)" fill="#9357f5"></path><path id="Path_2466" data-name="Path 2466" d="M57.091,53.854c-1.543-.789-2.821-.841-3.806-.157s-1.46,2-1.46,4.026a10.164,10.164,0,0,0,1.35,5.266,8.685,8.685,0,0,0,3.576,3.488,5.064,5.064,0,0,0,2.264.637,2.744,2.744,0,0,0,1.559-.463c.985-.661,1.49-2.033,1.49-4.067a9.933,9.933,0,0,0-1.378-5.255,8.839,8.839,0,0,0-3.6-3.47Zm3.073,12.188c-.768.515-1.777.446-3.073-.215a7.9,7.9,0,0,1-3.273-3.2,9.671,9.671,0,0,1-1.255-4.9c0-1.807.388-2.9,1.144-3.43a1.96,1.96,0,0,1,1.149-.347,4.3,4.3,0,0,1,1.9.556,8.147,8.147,0,0,1,3.3,3.192,9.493,9.493,0,0,1,1.278,4.884c0,1.807-.393,2.943-1.166,3.464Z" transform="translate(936.011 288.69)" fill="#0b0b0b"></path><path id="Path_2467" data-name="Path 2467" d="M69.92,45.038a43.19,43.19,0,0,0-12.045-9.16c-4.739-2.415-8.978-3.51-12.62-3.25-3.607.261-10.422,2.479-12.462,5.225-1.255,1.686-.709,3.436-.07,5.457a15.537,15.537,0,0,1,.926,4.785v.874c-.011,4.258-.017,9.078,1.83,13.5,1.889,4.519,4.316,9.681,7.976,13.7,2.809,3.088,6.8,4.971,10.667,6.789,1.12.527,2.181,1.031,3.219,1.558,1.976,1.014,6.117,5.319,6.157,5.364a.375.375,0,0,0,.271.116.346.346,0,0,0,.17-.041l5.054-2.572a.362.362,0,0,0,.188-.423L67.468,80.9a.355.355,0,0,0-.357-.267,20.891,20.891,0,0,1-9.43-2.561,30.663,30.663,0,0,1-8.843-6.819,31.853,31.853,0,0,1-5.94-9.471A27.846,27.846,0,0,1,40.8,51.375c0-3.453.709-6.054,2.106-8.018a7.661,7.661,0,0,1,5.835-3.238c2.539-.22,5.5.521,8.8,2.207,1.284.654,4.293,4.414,7.436,8.875-3.565-1.941-8.01-4.345-9.605-5.156A10.966,10.966,0,0,0,52,44.91a6.445,6.445,0,0,0-3.278.394l-5.665,2.19a.36.36,0,0,0-.212.463,22.231,22.231,0,0,1,1.278,6.02,21.063,21.063,0,0,0,1.5,7.734,23.973,23.973,0,0,0,3.994,6.737A17.948,17.948,0,0,0,55.031,72.9c3.495,1.784,6.14,1.744,7.852-.133a13.76,13.76,0,0,0,2.551,4.269c1.219,1.39,5.518,6.35,5.518,6.35a.374.374,0,0,0,.422.1c.117-.047,2.926-1.188,4.421-1.947,1.63-.822,2.915-1.472,3.877-3.337a16.758,16.758,0,0,0,1.414-7.542,32.9,32.9,0,0,0-2.949-13.191,44.649,44.649,0,0,0-8.222-12.42Zm9.1,32.823c-.856,1.657-1.988,2.231-3.6,3.042-1.179.6-3.348,1.494-4.076,1.8-.815-.944-4.268-4.924-5.342-6.152a12.927,12.927,0,0,1-2.627-4.652.369.369,0,0,0-.651-.1c-1.466,2.073-3.87,2.219-7.342.44a17.143,17.143,0,0,1-5.2-4.269,23.23,23.23,0,0,1-3.87-6.535,20.249,20.249,0,0,1-1.448-7.467,21.471,21.471,0,0,0-1.2-5.926L49,45.976a5.708,5.708,0,0,1,2.9-.348,10.372,10.372,0,0,1,3.144,1.066c1.782.91,7.172,3.836,10.872,5.846,1.2,1.743,2.393,3.551,3.5,5.3V70.18a5.907,5.907,0,0,0,.621,2.879,4.064,4.064,0,0,0,1.7,1.668,1.863,1.863,0,0,0,1.888.064c1.155-.7,1.688-2.9,1.688-6.941,0-1.431-2.245-5.653-5.16-10.312v-3.3a.358.358,0,0,0-.188-.319c-.041-.023-1.459-.8-3.419-1.865-3.5-5.069-7.072-9.558-8.65-10.37-3.425-1.749-6.521-2.52-9.2-2.283a8.367,8.367,0,0,0-6.374,3.546,14.342,14.342,0,0,0-2.24,8.434,28.584,28.584,0,0,0,2.152,10.683A32.716,32.716,0,0,0,48.3,71.749a31.352,31.352,0,0,0,9.055,6.981,21.63,21.63,0,0,0,9.488,2.642l1.56,5.515L63.856,89.2c-.856-.88-4.3-4.362-6.163-5.313-1.049-.532-2.164-1.059-3.242-1.569-3.8-1.79-7.73-3.638-10.433-6.622-3.59-3.939-5.976-9.031-7.841-13.492-1.794-4.292-1.789-8.834-1.777-13.225V48.1a16.108,16.108,0,0,0-.962-5.005c-.6-1.906-1.073-3.419-.035-4.809,1.852-2.5,8.408-4.674,11.922-4.93.334-.023.674-.035,1.026-.035,3.272,0,7.031,1.078,11.2,3.2a42.491,42.491,0,0,1,11.839,9,44.04,44.04,0,0,1,8.087,12.218,32.171,32.171,0,0,1,2.885,12.9,16.061,16.061,0,0,1-1.337,7.212ZM67.427,53.374c.938.515,1.648.9,1.97,1.077v1.924c-.639-1-1.3-2-1.97-3ZM70.137,70.18V59.021c2.539,4.108,4.422,7.671,4.422,8.829,0,4.559-.728,5.95-1.337,6.32a1.149,1.149,0,0,1-1.167-.093A3.281,3.281,0,0,1,70.665,72.7a5.17,5.17,0,0,1-.534-2.525Z" transform="translate(935.66 288.324)" fill="#0b0b0b"></path><path id="Path_2468" data-name="Path 2468" d="M65.233,54.8l-1.364.893.408.609,1.364-.893Z" transform="translate(936.225 288.718)" fill="#0b0b0b"></path><path id="Path_2469" data-name="Path 2469" d="M61.527,48.235l-5.442,3.56.408.609,5.442-3.56Z" transform="translate(936.087 288.601)" fill="#0b0b0b"></path><path id="Path_2470" data-name="Path 2470" d="M66.107,78.876l-5.449,3.549.407.61,5.449-3.549Z" transform="translate(936.168 289.144)" fill="#0b0b0b"></path><path id="Path_2471" data-name="Path 2471" d="M64.574,47.37a42.5,42.5,0,0,0-11.94-9.078q-7.045-3.6-12.425-3.209a10.79,10.79,0,0,0-8.322,4.35Q28.94,43.4,28.943,50.191a35.746,35.746,0,0,0,2.92,13.828,44.668,44.668,0,0,0,8.251,12.844,42.983,42.983,0,0,0,12.327,9.43,34.632,34.632,0,0,0,6.152,2.463,18.3,18.3,0,0,0,5.236.846l-1.783-6.506a20.931,20.931,0,0,1-9.6-2.6,30.86,30.86,0,0,1-8.949-6.9,32.223,32.223,0,0,1-6.011-9.576A28.056,28.056,0,0,1,35.364,53.47c0-3.522.722-6.193,2.17-8.226a7.961,7.961,0,0,1,6.1-3.389q3.932-.339,9,2.242a32.7,32.7,0,0,1,9.019,6.777A31.9,31.9,0,0,1,67.711,60a24.872,24.872,0,0,1,2.146,9.935q0,8.108-3.038,6.552a3.63,3.63,0,0,1-1.543-1.524,5.468,5.468,0,0,1-.58-2.7V56.32L56.833,52.3v2.561a16.131,16.131,0,0,0-6.7-6.407,8.943,8.943,0,0,0-5.354-1.118,5.456,5.456,0,0,0-3.905,2.607,11.138,11.138,0,0,0-1.449,6.111,20.548,20.548,0,0,0,1.473,7.6A23.576,23.576,0,0,0,44.829,70.3a17.368,17.368,0,0,0,5.307,4.357q5.453,2.78,7.817-.557a13.338,13.338,0,0,0,2.7,4.779,14.659,14.659,0,0,0,4.393,3.4,8.167,8.167,0,0,0,5.476,1.048,5.614,5.614,0,0,0,3.766-3.2,16.349,16.349,0,0,0,1.372-7.375A32.371,32.371,0,0,0,72.742,59.7a44.2,44.2,0,0,0-8.151-12.323ZM55.648,68.8q-1.328.887-3.448-.191a8.282,8.282,0,0,1-3.425-3.342,10,10,0,0,1-1.3-5.08c0-1.877.434-3.122,1.3-3.725s2.011-.544,3.425.179a8.454,8.454,0,0,1,3.448,3.331,9.773,9.773,0,0,1,1.325,5.069c0,1.883-.446,3.174-1.325,3.766Z" transform="translate(935.606 288.367)" fill="#f1ecff"></path><path id="Path_2472" data-name="Path 2472" d="M52.055,55.942c-1.543-.788-2.821-.84-3.806-.156s-1.46,2-1.46,4.026a10.164,10.164,0,0,0,1.35,5.266,8.685,8.685,0,0,0,3.576,3.488,5.064,5.064,0,0,0,2.264.637,2.737,2.737,0,0,0,1.559-.464c.985-.666,1.49-2.033,1.49-4.066a9.933,9.933,0,0,0-1.378-5.255,8.839,8.839,0,0,0-3.6-3.47Zm3.073,12.189c-.774.515-1.777.446-3.073-.215a7.971,7.971,0,0,1-3.273-3.2,9.671,9.671,0,0,1-1.255-4.9c0-1.807.388-2.9,1.144-3.43a1.955,1.955,0,0,1,1.143-.348,4.265,4.265,0,0,1,1.9.557,8.153,8.153,0,0,1,3.3,3.192,9.5,9.5,0,0,1,1.278,4.884c0,1.807-.393,2.942-1.167,3.464Z" transform="translate(935.922 288.727)" fill="#0b0b0b"></path><path id="Path_2473" data-name="Path 2473" d="M64.856,47.132a43.26,43.26,0,0,0-12.045-9.159c-4.739-2.421-8.978-3.51-12.62-3.25a11.194,11.194,0,0,0-8.592,4.5c-2,2.694-3.013,6.384-3.013,10.972a36.209,36.209,0,0,0,2.943,13.967,45.146,45.146,0,0,0,8.316,12.948,43.43,43.43,0,0,0,12.432,9.512A34.768,34.768,0,0,0,58.493,89.1a18.991,18.991,0,0,0,5.149.863h.2a.371.371,0,0,0,.288-.145.348.348,0,0,0,.058-.312L62.4,83a.366.366,0,0,0-.357-.267,20.909,20.909,0,0,1-9.429-2.566,30.654,30.654,0,0,1-8.844-6.819,32.088,32.088,0,0,1-5.939-9.472,27.827,27.827,0,0,1-2.1-10.409c0-3.453.709-6.054,2.1-8.018a7.663,7.663,0,0,1,5.836-3.238c2.538-.221,5.5.521,8.8,2.206a32.42,32.42,0,0,1,8.919,6.7,31.5,31.5,0,0,1,5.987,9.026,24.575,24.575,0,0,1,2.117,9.79c0,4.559-.728,5.95-1.337,6.321a1.152,1.152,0,0,1-1.166-.093,3.292,3.292,0,0,1-1.39-1.374,5.17,5.17,0,0,1-.534-2.525V56.32a.368.368,0,0,0-.2-.325L57,51.975a.388.388,0,0,0-.364.011.361.361,0,0,0-.175.313v1.285A16.456,16.456,0,0,0,50.3,48.134a9.305,9.305,0,0,0-5.583-1.153,5.842,5.842,0,0,0-4.164,2.769,11.59,11.59,0,0,0-1.506,6.309,20.942,20.942,0,0,0,1.5,7.734,23.973,23.973,0,0,0,3.994,6.737,17.952,17.952,0,0,0,5.418,4.45c3.5,1.79,6.14,1.743,7.858-.133a13.683,13.683,0,0,0,2.551,4.269,15.106,15.106,0,0,0,4.5,3.476,8.539,8.539,0,0,0,5.73,1.078,5.983,5.983,0,0,0,4.011-3.4,16.748,16.748,0,0,0,1.414-7.536,32.875,32.875,0,0,0-2.95-13.191,44.631,44.631,0,0,0-8.221-12.42Zm9.1,32.824a5.241,5.241,0,0,1-3.512,3.012,7.872,7.872,0,0,1-5.225-1.014,14.361,14.361,0,0,1-4.282-3.308,12.944,12.944,0,0,1-2.627-4.652.359.359,0,0,0-.293-.249.374.374,0,0,0-.358.151c-1.466,2.074-3.87,2.219-7.342.441a17.158,17.158,0,0,1-5.2-4.269,23.259,23.259,0,0,1-3.87-6.535A20.254,20.254,0,0,1,39.8,56.065a10.852,10.852,0,0,1,1.389-5.915,5.051,5.051,0,0,1,3.654-2.438,8.572,8.572,0,0,1,5.131,1.077,15.815,15.815,0,0,1,6.556,6.263.373.373,0,0,0,.416.173.362.362,0,0,0,.276-.353V52.907l7.125,3.644V72.274a5.85,5.85,0,0,0,.627,2.879,4.043,4.043,0,0,0,1.7,1.669,1.863,1.863,0,0,0,1.889.063c1.155-.7,1.688-2.9,1.688-6.94a25.359,25.359,0,0,0-2.176-10.074,32.2,32.2,0,0,0-6.122-9.234,33.034,33.034,0,0,0-9.125-6.853c-3.425-1.749-6.521-2.514-9.2-2.282a8.369,8.369,0,0,0-6.374,3.545,14.345,14.345,0,0,0-2.24,8.435,28.583,28.583,0,0,0,2.152,10.682A32.708,32.708,0,0,0,43.24,73.85a31.37,31.37,0,0,0,9.055,6.981,21.642,21.642,0,0,0,9.488,2.641l1.584,5.776a18.975,18.975,0,0,1-4.651-.828,34.342,34.342,0,0,1-6.087-2.438,42.838,42.838,0,0,1-12.221-9.35,44.391,44.391,0,0,1-8.187-12.739A35.466,35.466,0,0,1,29.33,50.2c0-4.5.968-7.977,2.874-10.544a10.491,10.491,0,0,1,8.051-4.2c.335-.023.675-.035,1.027-.035,3.272,0,7.03,1.077,11.2,3.2a42.519,42.519,0,0,1,11.84,9,43.839,43.839,0,0,1,8.087,12.218,32.166,32.166,0,0,1,2.885,12.9,16.022,16.022,0,0,1-1.337,7.207Z" transform="translate(935.599 288.361)" fill="#0b0b0b"></path><g id="Group_635" data-name="Group 635" transform="translate(879.614 287.746)"><path id="Path_2474" data-name="Path 2474" d="M94.006,75.672a7.082,7.082,0,0,0-7-.127c-1.97,1.193-2.023,3.192-.123,4.461a7.087,7.087,0,0,0,7,.127c1.97-1.194,2.023-3.192.123-4.461" transform="translate(-19.994 1.324)" fill="#0b0b0b"></path><path id="Path_2475" data-name="Path 2475" d="M90.575,67.533a2.632,2.632,0,0,0-2.293,1.285,2.576,2.576,0,0,0-.357,1.286l-.071,6.951a2.625,2.625,0,0,0,5.248.053l.071-6.952a2.614,2.614,0,0,0-2.6-2.619Z" transform="translate(-20.176 1.197)" fill="#d7ff65"></path><path id="Path_2476" data-name="Path 2476" d="M90.594,67.174a3.088,3.088,0,0,0-2.616,1.466,2.922,2.922,0,0,0-.411,1.466l-.07,6.952a2.907,2.907,0,0,0,.856,2.1,2.983,2.983,0,0,0,2.106.886h.03a3,3,0,0,0,2.093-.846,2.923,2.923,0,0,0,.9-2.079l.07-6.952a2.973,2.973,0,0,0-2.962-2.983Zm2.158,9.935a2.184,2.184,0,0,1-.675,1.57,2.277,2.277,0,0,1-3.19-.03,2.19,2.19,0,0,1-.645-1.582l.07-6.951a2.231,2.231,0,0,1,.305-1.107A2.271,2.271,0,0,1,90.57,67.9h.023a2.244,2.244,0,0,1,2.234,2.248l-.07,6.957Z" transform="translate(-20.189 1.191)" fill="#0b0b0b"></path><path id="Path_2477" data-name="Path 2477" d="M107.388,64.455l-7.395-3.928a3.2,3.2,0,0,1-1.707-2.746l-.147-5.8a5.867,5.867,0,0,0-3.125-5.022l-1.319-.7a3.208,3.208,0,0,1-1.713-2.78l-.123-8.9a1.35,1.35,0,0,0-2.533-.608,1.271,1.271,0,0,0-.159.648l.123,8.9A5.854,5.854,0,0,0,92.417,48.6l1.319.7a3.2,3.2,0,0,1,1.707,2.746l.14,5.8a5.869,5.869,0,0,0,3.125,5.024L106.1,66.8a3.21,3.21,0,0,1,1.707,2.735,1.343,1.343,0,0,0,2.686-.075,5.865,5.865,0,0,0-3.125-5.005Z" transform="translate(-38.836 0.589)" fill="#0b0b0b"></path><path id="Path_2478" data-name="Path 2478" d="M107.552,64.143l-7.395-3.928a2.833,2.833,0,0,1-1.513-2.432L98.5,51.977a6.229,6.229,0,0,0-3.319-5.335l-1.319-.7a2.824,2.824,0,0,1-1.513-2.462l-.123-8.9A1.719,1.719,0,0,0,89,33.8a1.756,1.756,0,0,0-.206.822l.123,8.9a6.226,6.226,0,0,0,3.319,5.405l1.32.7a2.835,2.835,0,0,1,1.513,2.433l.147,5.8A6.237,6.237,0,0,0,98.533,63.2l7.395,3.927a2.85,2.85,0,0,1,1.513,2.427,1.707,1.707,0,0,0,1.712,1.651h.047a1.713,1.713,0,0,0,1.2-.527,1.674,1.674,0,0,0,.469-1.211,6.229,6.229,0,0,0-3.32-5.318Zm2.316,6.025a.977.977,0,0,1-.686.3h-.03a.97.97,0,0,1-.974-.939,3.569,3.569,0,0,0-1.9-3.047l-7.395-3.927a5.509,5.509,0,0,1-2.932-4.71l-.147-5.8a3.579,3.579,0,0,0-1.9-3.059l-1.32-.7a5.5,5.5,0,0,1-2.932-4.774l-.123-8.9a.936.936,0,0,1,.117-.469.982.982,0,0,1,1.842.441l.123,8.9a3.555,3.555,0,0,0,1.905,3.093l1.32.7a5.5,5.5,0,0,1,2.932,4.71l.147,5.8a3.591,3.591,0,0,0,1.9,3.059l7.395,3.927a5.519,5.519,0,0,1,2.932,4.7.962.962,0,0,1-.264.69Z" transform="translate(-38.824 0.583)" fill="#0b0b0b"></path><path id="Path_2479" data-name="Path 2479" d="M149.9,19.865,114.226.516a4.189,4.189,0,0,0-4.14.064,4.089,4.089,0,0,0-2.053,3.557v9.176a.739.739,0,0,0,1.478,0V4.137a2.643,2.643,0,0,1,1.331-2.3,2.7,2.7,0,0,1,2.68-.041l35.672,19.349a7.682,7.682,0,0,1,4.04,6.749v7a.739.739,0,0,0,1.478,0v-7a9.132,9.132,0,0,0-4.809-8.023Z" transform="translate(-102.251 0)" fill="#d8c7ff"></path><path id="Path_2480" data-name="Path 2480" d="M154.332,9.734c-2.885,0-5.06,1.286-5.06,2.99s2.175,2.989,5.06,2.989,5.061-1.286,5.061-2.989-2.176-2.99-5.061-2.99" transform="translate(-148.903 0.172)" fill="#d8c7ff"></path><path id="Path_2481" data-name="Path 2481" d="M154.339,9.375c-3.1,0-5.43,1.442-5.43,3.354s2.334,3.354,5.43,3.354,5.431-1.443,5.431-3.354-2.334-3.354-5.431-3.354m0,5.978c-2.633,0-4.691-1.152-4.691-2.624s2.064-2.625,4.691-2.625,4.692,1.153,4.692,2.625-2.059,2.624-4.692,2.624" transform="translate(-148.909 0.166)" fill="#fff"></path><path id="Path_2482" data-name="Path 2482" d="M154.306,11.452c-2.041,0-3.582.91-3.582,2.115s1.542,2.115,3.582,2.115,3.583-.91,3.583-2.115-1.543-2.115-3.583-2.115" transform="translate(-148.877 0.203)" fill="#d7ff65"></path><path id="Path_2483" data-name="Path 2483" d="M154.314,11.094c-2.252,0-3.953,1.066-3.953,2.479s1.7,2.479,3.953,2.479,3.953-1.066,3.953-2.479-1.7-2.479-3.953-2.479m0,4.229c-1.8,0-3.214-.77-3.214-1.749s1.414-1.749,3.214-1.749,3.214.77,3.214,1.749-1.414,1.749-3.214,1.749" transform="translate(-148.884 0.196)" fill="#fff"></path></g></g></svg>