<svg xmlns="http://www.w3.org/2000/svg" xmlns:xlink="http://www.w3.org/1999/xlink" id="Layer_1" x="0px" y="0px" viewBox="0 0 666 162" style="enable-background:new 0 0 666 162;" xml:space="preserve"><style type="text/css">	.st0{fill:#8D8C8E;}</style><g>	<path class="st0" d="M0.4,119.1l23.8-18.2C36.9,117.4,50.3,125,65.3,125c14.9,0,27.9-7.5,40-23.9l24.1,17.8   C112,142.5,90.3,155,65.3,155C40.3,155,18.4,142.6,0.4,119.1z"></path>	<path class="st0" d="M65.2,39.8L22.8,76.4L3.2,53.6L65.3,0.2l61.6,53.5l-19.7,22.6L65.2,39.8z"></path>	<path class="st0" d="M220.7,132.5c-14.5,0-26.5-4.7-36.3-14.1c-9.8-9.5-14.6-21.7-14.6-36.6c0-15,4.9-27.3,14.7-37   c9.9-9.8,22-14.6,36.3-14.6c17.7,0,33.4,7.6,42.5,19.6l-16,16.8c-7.6-8.2-15.9-12.3-24.9-12.3c-7.6,0-13.9,2.5-19.2,7.8   c-5.1,5.2-7.6,11.8-7.6,19.7c0,7.6,2.5,14.1,7.6,19.3c5.2,5.1,11.5,7.6,19,7.6c9.8,0,18.4-4.3,25.5-12.7l16.6,15.9   c-4.6,6-10.7,11-18.4,14.9C238.4,130.6,230,132.5,220.7,132.5L220.7,132.5z M292.5,28.8V131H269V28.8   C269,28.8,292.5,28.8,292.5,28.8z M314.9,50.5c-7.9,0-13.7-5.8-13.7-13.7c0-7.6,6-13.4,13.7-13.4c7.6,0,13.5,5.8,13.5,13.4   C328.4,44.7,322.5,50.5,314.9,50.5L314.9,50.5z M326.8,57v74h-23.7V57C303.1,57,326.8,57,326.8,57z M372.2,132.6   c-11.7,0-21-3.6-28.4-10.9c-7.2-7.2-10.9-16.5-10.9-27.9s3.6-20.6,11-27.9c7.4-7.2,16.9-10.8,28.7-10.8c15.4,0,29,7.5,35.2,21.6   L389,86.6c-3.8-6.3-9-9.5-15.8-9.5c-5,0-9,1.6-12.2,4.8c-3.1,3.2-4.8,7.5-4.7,11.9c0,9.8,7.1,17,16.6,17c6.8,0,13.1-3.8,15.8-9.5   l18.9,11.2C401.2,125,387.9,132.6,372.2,132.6L372.2,132.6z M489.9,131h-28.1l-21.9-29.3l-3.5,3.2V131h-23.6V28.8h23.6v49.7   L458.6,57h28.8l-31.8,29.8L489.9,131z M491.4,92.5V32h25.2v60.2c0,11.1,6.4,16.5,15.7,16.5c9.1,0,15.5-5.6,15.5-16.5V32h25.3v60.6   c0,29.2-20.2,40.2-40.9,40.2C511.8,132.7,491.4,121.8,491.4,92.5z M629.2,55.2c10.6,0,19.2,3.8,26,11.3   c6.8,7.4,10.2,16.6,10.2,27.5c0,10.9-3.5,20.1-10.3,27.7c-6.8,7.5-15.4,11.3-25.7,11.3c-8.2,0-15.3-2.7-21-8v36.6h-23.7V57h23.3   v6.8C613.6,58.1,620.7,55.2,629.2,55.2L629.2,55.2z M641.2,94.2c0-9.7-7-17-16.6-17c-9.7,0-16.8,7.4-16.8,17   c0,4.7,1.6,8.7,4.7,12.1c3.2,3.3,7.2,5,12.1,5c4.8,0,8.8-1.6,11.9-5C639.6,103,641.3,98.6,641.2,94.2L641.2,94.2z"></path></g></svg>