<svg xmlns="http://www.w3.org/2000/svg" width="112.522" height="130.661" viewBox="0 0 112.522 130.661"><path id="curved-arrow" d="M32.568,117.9c-6.716-6.646-11.506-15.316-18.985-21.267-1.185-1-.873-3.793.895-3.938,10-1.087,19.971-4.5,30-4.227,1.859.081,2.612,3.251.6,4.083a89.014,89.014,0,0,0-8.7,4.645c13.212,4.314,26.179,9.314,40.038,11.343,7.493,1.118,16.083,2.045,23.437-1.723,8.85-4.591,6.137-15.232,1.553-21.12C97.394,80.594,77.047,66.97,88.863,58.4c6.962-5.069,13.816-4.566,21.4-4.189a21.483,21.483,0,0,0,6.339-.454c7.957-1.619-.854-10.559-3.38-11.651-5.052-2.185-10.994-2.363-16.508-2.777-1.706-.027-1.394-2.818.374-2.963,8.259-.544,21.971-.5,25.57,9.1,2.993,8.418-2.473,12.665-9.635,13.019-4.724.254-29.888-1.346-21.937,10,5.22,7.468,13.1,11.82,17.495,20.156,3.03,5.916,1.332,14.019-3.1,19.213-5.472,6.18-15.1,6.237-21.865,5.959-16.879-.781-33.316-6.629-48.809-12.721A73.976,73.976,0,0,1,36.258,116.7,2.153,2.153,0,0,1,32.568,117.9Zm2.506-24.263c-5.061.715-10.3,1.945-15.427,2.832,4.406,4.47,7.957,9.409,12.026,14.34-.688-4.309-1.743-8.553-.787-12.663a1.9,1.9,0,0,1,1.589-1.564A7.835,7.835,0,0,1,35.074,93.638Z" transform="translate(3.75 154.089) rotate(-108)" fill="#0b0b0b"></path></svg>