<svg xmlns="http://www.w3.org/2000/svg" xmlns:xlink="http://www.w3.org/1999/xlink" id="Layer_1" x="0px" y="0px" viewBox="0 0 143.8 42.2" style="enable-background:new 0 0 143.8 42.2;" xml:space="preserve"><style type="text/css">	.st0{fill:#8D8C8E;}</style><g>	<g>		<g>			<g>				<path class="st0" d="M63,18.6v-13h5.1c4.1,0,6.9,2.6,6.9,6.5c0,3.9-2.8,6.5-6.9,6.5H63z M72.3,12c0-2.3-1.4-4.1-4.1-4.1h-2.4      v8.1h2.4C70.8,16.1,72.3,14.3,72.3,12z"></path>				<path class="st0" d="M76.9,18.6v-13h9.2V8h-6.4v2.7H86v2.4h-6.3v3h6.4v2.4H76.9z"></path>				<path class="st0" d="M99.4,18.6V9.2l-3.7,9.4h-1.2l-3.7-9.4v9.4h-2.8v-13H92l3.2,8.1l3.2-8.1h3.9v13L99.4,18.6L99.4,18.6z"></path>				<path class="st0" d="M113.6,18.6l-0.8-2.2h-5.6l-0.8,2.2h-3.1l5-13h3.5l5,13C116.7,18.6,113.6,18.6,113.6,18.6z M110,8.3l-2,5.6      h4.1L110,8.3z"></path>				<path class="st0" d="M126.7,18.6l-6.2-8.5v8.5h-2.8v-13h2.8l6,8.2V5.5h2.8v13L126.7,18.6L126.7,18.6z"></path>				<path class="st0" d="M131.8,18.6v-13h5.1c4.1,0,6.9,2.6,6.9,6.5c0,3.9-2.8,6.5-6.9,6.5H131.8z M141,12c0-2.3-1.4-4.1-4.1-4.1      h-2.4v8.1h2.4C139.5,16.1,141,14.3,141,12z"></path>				<path class="st0" d="M62.4,29.9c0-4,3-6.7,6.9-6.7c2.8,0,4.5,1.5,5.4,3.2l-2.4,1.2c-0.6-1.1-1.7-1.9-3.1-1.9      c-2.4,0-4.1,1.8-4.1,4.3s1.7,4.3,4.1,4.3c1.3,0,2.5-0.8,3.1-1.9l2.4,1.2c-0.9,1.6-2.6,3.2-5.4,3.2      C65.4,36.6,62.4,33.9,62.4,29.9z"></path>				<path class="st0" d="M76.3,31.2v-7.8h2.8v7.7c0,1.8,1.1,3.1,3.1,3.1s3.1-1.2,3.1-3.1v-7.7H88v7.8c0,3.2-1.9,5.4-5.9,5.4      C78.2,36.6,76.3,34.4,76.3,31.2z"></path>				<path class="st0" d="M97.8,36.4l-2.6-4.6h-2v4.6h-2.8v-13h6.1c2.7,0,4.4,1.8,4.4,4.2c0,2.3-1.5,3.5-2.9,3.9l2.9,5      C101,36.4,97.8,36.4,97.8,36.4z M98,27.5c0-1.1-0.8-1.7-1.9-1.7h-2.9v3.5h2.9C97.2,29.3,98,28.6,98,27.5z"></path>				<path class="st0" d="M106.2,36.4l-5-13h3.1l3.6,10l3.6-10h3.1l-5,13H106.2z"></path>				<path class="st0" d="M115.7,36.4v-13h9.2v2.4h-6.4v2.7h6.3V31h-6.3v3h6.4v2.4L115.7,36.4L115.7,36.4z"></path>			</g>		</g>	</g>	<g>		<g>			<path class="st0" d="M31.6,28.6c-0.9,3-2.4,5.8-4.4,8.3c3.6,3,8.3,4.8,13.3,4.8h7.8v-9h-7.8C36.9,32.7,33.7,31.1,31.6,28.6z"></path>			<path class="st0" d="M17,13.3c1-3,2.6-5.8,4.6-8.1C17.9,2,13.1,0,7.8,0H0v9h7.8C11.5,9,14.8,10.7,17,13.3z"></path>		</g>		<path class="st0" d="M40.5,0.4C29,0.4,19.6,9.8,19.6,21.3c0,6.5-5.3,11.9-11.9,11.9H0v9h7.8c11.5,0,20.9-9.3,20.9-20.9    c0-6.5,5.3-11.9,11.8-11.9h7.8v-9C48.3,0.5,40.5,0.5,40.5,0.4z"></path>	</g></g></svg>