<svg xmlns="http://www.w3.org/2000/svg" xmlns:xlink="http://www.w3.org/1999/xlink" id="Layer_1" x="0px" y="0px" viewBox="0 0 139 37" style="enable-background:new 0 0 139 37;" xml:space="preserve"><style type="text/css">	.st0{fill:#8D8C8E;}</style><g id="Layer_1_00000054259338824394163340000000286142003464973758_">	<path id="Vector" class="st0" d="M30,8.8h-5.4V3.4c0-1.6-1.3-2.8-2.8-2.8H2.8C1.3,0.6,0,1.8,0,3.4v27.2c0,1.6,1.3,2.9,2.8,2.9h24.5   l2.7,2.7c0.3,0.3,0.7,0.5,1.2,0.5c0.9,0,1.7-0.7,1.7-1.7V11.6C32.8,10,31.5,8.8,30,8.8z M30.1,30.7H2.7V3.3h19.1v5.5H11   c-1.6,0-2.8,1.3-2.8,2.8v10.7c0,1.6,1.3,2.8,2.8,2.8h10.7c1.6,0,2.8-1.3,2.8-2.8V11.5h5.5V30.7L30.1,30.7z M21.9,11.5v11H10.9v-11   H21.9z"></path>	<g id="Vector_2">		<path class="st0" d="M74.3,9.6c-1.1-0.7-2.4-1.1-3.9-1.1c-1.5,0-2.8,0.4-3.9,1.1c-1.1,0.7-2,1.7-2.6,3c-0.6,1.3-0.9,2.7-0.9,4.4    c0,1.7,0.3,3.1,0.9,4.4c0.6,1.3,1.5,2.2,2.6,2.9c1.1,0.7,2.4,1.1,3.9,1.1c1.5,0,2.8-0.4,3.9-1.1c1.1-0.7,2-1.7,2.6-2.9    c0.6-1.2,0.9-2.7,0.9-4.4c0-1.7-0.3-3.2-0.9-4.4C76.3,11.3,75.4,10.3,74.3,9.6z M74.6,19.9c-0.3,0.9-0.8,1.6-1.5,2.2    c-0.7,0.5-1.6,0.8-2.6,0.8c-1.1,0-1.9-0.3-2.6-0.8c-0.7-0.5-1.2-1.3-1.5-2.2C66,19,65.8,18,65.8,17s0.2-2,0.5-2.9    c0.3-0.9,0.8-1.6,1.5-2.2c0.7-0.5,1.6-0.8,2.6-0.8c1.1,0,1.9,0.3,2.6,0.8c0.7,0.5,1.2,1.3,1.5,2.2c0.3,0.9,0.5,1.9,0.5,2.9    S74.9,19,74.6,19.9L74.6,19.9z"></path>		<path class="st0" d="M87.5,11.1l0-2.4c0-0.1-0.1-0.2-0.2-0.2c-0.2,0-0.4,0-0.5,0c-1,0-1.9,0.3-2.7,0.8c-0.7,0.4-1.2,1-1.5,1.7V8.9    c0-0.1-0.1-0.2-0.2-0.2h-2.3c-0.1,0-0.2,0.1-0.2,0.2v16c0,0.1,0.1,0.2,0.2,0.2h2.4c0.1,0,0.2-0.1,0.2-0.2V14.8    c0-0.7,0.2-1.3,0.5-1.9s0.8-1,1.4-1.3c0.6-0.3,1.3-0.5,2-0.5c0.2,0,0.5,0,0.7,0C87.4,11.3,87.5,11.2,87.5,11.1L87.5,11.1z"></path>		<path class="st0" d="M106.3,8.8h2.4c0.1,0,0.2,0.1,0.2,0.2v16.1c0,0.1-0.1,0.2-0.2,0.2h-2.4c-0.1,0-0.2-0.1-0.2-0.2V8.9    C106.2,8.9,106.2,8.8,106.3,8.8z"></path>		<path class="st0" d="M107.6,2.8c-0.5,0-1,0.2-1.3,0.5c-0.4,0.4-0.6,0.8-0.6,1.3s0.2,0.9,0.6,1.3c0.4,0.4,0.8,0.5,1.3,0.5    s1-0.2,1.3-0.5c0.4-0.4,0.6-0.8,0.6-1.3s-0.2-0.9-0.6-1.3C108.5,3,108.1,2.8,107.6,2.8z"></path>		<path class="st0" d="M122,9.5c-0.6-0.4-1.3-0.6-2-0.8c-0.7-0.1-1.3-0.2-1.8-0.2c-0.8,0-1.6,0.1-2.5,0.3c-0.8,0.2-1.6,0.6-2.3,1.2    c-0.7,0.5-1.2,1.3-1.6,2.2c0,0.1,0,0.2,0.1,0.2l2.3,0.8c0.1,0,0.2,0,0.2-0.1c0.3-0.5,0.7-1,1.3-1.5c0.6-0.5,1.5-0.7,2.7-0.7    c1.1,0,1.9,0.3,2.4,0.8c0.5,0.5,0.8,1.3,0.8,2.3v0.1c0,0.3-0.1,0.6-0.3,0.7c-0.3,0.1-0.7,0.3-1.3,0.3c-0.6,0.1-1.4,0.2-2.4,0.3    c-0.7,0.1-1.5,0.2-2.2,0.4c-0.7,0.2-1.4,0.4-2,0.7c-0.6,0.3-1.1,0.8-1.5,1.4c-0.4,0.6-0.6,1.4-0.6,2.3c0,1.1,0.3,2,0.8,2.7    c0.5,0.8,1.2,1.3,2,1.7c0.8,0.4,1.8,0.6,2.8,0.6c0.9,0,1.8-0.1,2.4-0.4c0.7-0.3,1.2-0.6,1.6-1c0.3-0.3,0.5-0.6,0.7-0.9V25    c0,0.1,0.1,0.1,0.1,0.1h2.5c0.1,0,0.1-0.1,0.1-0.1V14.4c0-1.3-0.2-2.3-0.6-3.1C123.2,10.5,122.6,9.9,122,9.5L122,9.5z M121.5,19.1    c0,0.6-0.2,1.3-0.5,1.8c-0.3,0.6-0.8,1.1-1.5,1.4c-0.6,0.4-1.4,0.6-2.4,0.6c-0.9,0-1.7-0.2-2.3-0.6c-0.6-0.4-0.9-1-0.9-1.8    c0-0.6,0.2-1,0.5-1.4c0.3-0.3,0.7-0.6,1.3-0.8c0.5-0.2,1.1-0.3,1.8-0.4c0.3,0,0.6-0.1,1-0.1c0.4-0.1,0.9-0.1,1.3-0.2    c0.5-0.1,0.9-0.2,1.2-0.3c0.2-0.1,0.4-0.1,0.5-0.2V19.1z"></path>		<path class="st0" d="M137.9,17.6c-0.7-0.7-1.8-1.3-3.3-1.6l-2.4-0.6c-0.9-0.2-1.6-0.5-2-0.9c-0.4-0.3-0.6-0.8-0.6-1.3    c0-0.6,0.3-1.2,0.9-1.6c0.6-0.4,1.4-0.6,2.4-0.6c0.7,0,1.3,0.1,1.7,0.3c0.4,0.2,0.8,0.5,1,0.8c0.2,0.3,0.4,0.6,0.5,0.9    c0,0.1,0.1,0.1,0.2,0.1l2.2-0.6c0.1,0,0.1-0.1,0.1-0.2c-0.4-1.1-1-2-1.9-2.7c-0.9-0.7-2.2-1.1-3.8-1.1c-1.1,0-2.2,0.2-3.1,0.6    c-0.9,0.4-1.6,1-2.1,1.7c-0.5,0.7-0.8,1.6-0.8,2.5c0,1.1,0.4,2.1,1.1,2.8c0.7,0.8,1.8,1.3,3.3,1.7l2.7,0.6    c0.8,0.2,1.3,0.5,1.7,0.8c0.4,0.4,0.5,0.8,0.5,1.3c0,0.6-0.3,1.2-1,1.6c-0.6,0.5-1.5,0.7-2.6,0.7c-1,0-1.8-0.2-2.4-0.6    c-0.6-0.4-0.9-1-1.2-1.7c0-0.1-0.1-0.1-0.2-0.1l-2.3,0.6c-0.1,0-0.1,0.1-0.1,0.2c0.3,1.3,1,2.3,2.1,3c1.1,0.7,2.5,1.1,4.1,1.1    c1.3,0,2.4-0.2,3.3-0.6c1-0.4,1.7-1,2.2-1.8c0.5-0.7,0.8-1.6,0.8-2.5C139,19.3,138.6,18.3,137.9,17.6L137.9,17.6z"></path>		<path class="st0" d="M51.7,21.8c-1.4,0-1.9-0.4-1.9-1.2c0-1.1,1.4-1.6,1.4-1.6c0.9,0.3,2,0.5,3.1,0.5c3.9,0,6.7-2.1,6.7-5.3    c0-0.7-0.2-1.9-1.2-3.1h2.9c0.1,0,0.2-0.1,0.2-0.2v-2c0-0.1-0.1-0.2-0.2-0.2h-8.4c-3.9,0-6.6,2.1-6.6,5.4c0,1.7,0.8,3.1,2.1,4.1    c-1.4,0.6-2.4,1.6-2.4,3c0,1.1,0.5,2,1.7,2.6c-0.5,0.1-2.9,0.9-2.9,3.5c0,2.9,3.5,4.3,7.8,4.3c4.7,0,9.1-1.5,9.1-5.4    c0-2.5-1.8-4.3-5.2-4.3H51.7z M54.3,11.1c2.4,0,3.9,1.1,3.9,3.1s-1.5,3-3.9,3c-2.4,0-3.8-1.1-3.8-3C50.5,12.2,51.9,11.1,54.3,11.1    z M54,29.2c-3,0-5-0.8-5-2.7c0-1.6,1.4-2.1,3.1-2.1h5.2c1.9,0,3.1,0.5,3.1,1.8C60.3,28.3,57.7,29.2,54,29.2z"></path>		<path class="st0" d="M92.6,21.8c-1.4,0-1.9-0.4-1.9-1.2c0-1.1,1.4-1.6,1.4-1.6c0.9,0.3,2,0.5,3.1,0.5c3.9,0,6.7-2.1,6.7-5.3    c0-0.7-0.2-1.9-1.2-3.1h3c0.1,0,0.2-0.1,0.2-0.2v-2c0-0.1-0.1-0.2-0.2-0.2h-8.4c-3.9,0-6.6,2.1-6.6,5.4c0,1.7,0.8,3.1,2.1,4.1    c-1.4,0.6-2.4,1.6-2.4,3c0,1.1,0.5,2,1.7,2.6c-0.5,0.1-2.9,0.9-2.9,3.5c0,2.9,3.5,4.3,7.8,4.3c4.7,0,9.1-1.5,9.1-5.4    c0-2.5-1.8-4.3-5.2-4.3H92.6z M95.2,11.1c2.4,0,3.9,1.1,3.9,3.1s-1.5,3-3.9,3c-2.4,0-3.8-1.1-3.8-3C91.4,12.2,92.9,11.1,95.2,11.1    z M94.9,29.2c-3,0-5-0.8-5-2.7c0-1.6,1.4-2.1,3.1-2.1h5.2c1.9,0,3.1,0.5,3.1,1.8C101.2,28.3,98.6,29.2,94.9,29.2z"></path>	</g></g></svg>