<svg xmlns="http://www.w3.org/2000/svg" xmlns:xlink="http://www.w3.org/1999/xlink" id="Layer_1" x="0px" y="0px" viewBox="0 0 148 39" style="enable-background:new 0 0 148 39;" xml:space="preserve"><style type="text/css">	.st0{fill-rule:evenodd;clip-rule:evenodd;fill:#8D8C8E;}</style><path class="st0" d="M96.6,10.5c-0.2,0-0.3,0.1-0.3,0.3v3.7c0,0.2,0.1,0.3,0.3,0.3l1.6,0v12h-1.6c-0.2,0-0.3,0.1-0.3,0.3v3.7  c0,0.2,0.1,0.3,0.3,0.3h7.7c0.2,0,0.3-0.1,0.3-0.3v-3.7c0-0.2-0.1-0.3-0.3-0.3h-1.6l0-15.9c0-0.2-0.1-0.3-0.3-0.3H96.6z M1.7,5.8  c-0.2,0-0.3,0.1-0.3,0.3v3.7c0,0.2,0.1,0.3,0.3,0.3h4.9v16c0,2.3-0.5,3.5-1.8,4.2c-1,0.5-2.3,0.8-4.2,0.8H0.3  c-0.2,0-0.3,0.1-0.3,0.3V35c0,0.2,0.1,0.3,0.3,0.3l0.8,0c3.8,0,6.4-0.9,7.9-2.4c1.4-1.3,2-2.9,2-5.2V6.1c0-0.2-0.1-0.3-0.3-0.3H1.7z   M72.6,5.8c-0.2,0-0.3,0.1-0.3,0.3v16.5c0,1.6-0.4,2.8-1.1,3.5c-0.7,0.7-1.6,1.1-2.8,1.1h-0.3c-1.1,0-2.1-0.3-2.7-1  c-0.7-0.7-1.1-1.9-1.1-3.7V6.1c0-0.2-0.1-0.3-0.3-0.3h-3.8c-0.2,0-0.3,0.1-0.3,0.3v16.6c0,3.4,0.8,5,2.1,6.2c1.1,1.1,2.6,1.7,4.1,2  v6.8c0,0.2,0.1,0.3,0.3,0.3h3.8c0.2,0,0.3-0.1,0.3-0.3V31c1.6-0.3,3.1-1.1,4.2-2.2c1.3-1.3,2.1-3.3,2.1-6V6.1c0-0.2-0.1-0.3-0.3-0.3  H72.6z M108.1,12.3v0.6c0,4.3,1.9,5.4,6.6,7.2c4.4,1.7,5.2,2.2,5.2,4.5c0,1.7-1.4,3.1-3.8,3.1c-2.8,0-4-1.5-4-4.2  c0-0.2-0.2-0.4-0.5-0.4h-3.4c-0.3,0-0.4,0.2-0.4,0.4v1.1c0,4,2.5,6.9,8.2,6.9c5.3,0,8.5-3,8.5-7v-0.8c0-3.7-1.8-5-6.9-7  c-4.1-1.6-5-2.1-5-4.5c0-1.6,1.1-3,3.3-3c2.3,0,3.3,1.3,3.3,3.5c0,0.3,0.2,0.5,0.6,0.5h3.3c0.2,0,0.3-0.1,0.3-0.4v-0.7  c0-4.3-3.1-6.8-7.6-6.8C111.1,5.4,108.1,8.3,108.1,12.3z M19.9,15.2c0-2,0.4-3.3,1.1-4.2c0.7-0.8,1.6-1.3,2.9-1.3H24  c1.1,0,2.2,0.5,2.9,1.3c0.7,0.8,1.1,2.1,1.1,4.2v1h-8.2V15.2z M17.8,7.9c-1.5,1.7-2.3,3.9-2.3,7.9v5.8c0,3.9,0.8,6.1,2.4,7.7  c1.5,1.5,3.5,2.2,5.9,2.2c3.8,0,6.5-1.9,8.2-5.3c0.1-0.2,0.1-0.3-0.2-0.4l-3-1.4c-0.2-0.1-0.3,0-0.4,0.2c-1.1,2-2.6,2.9-4.4,2.9  c-1.1,0-2.1-0.4-2.8-1.1c-0.8-0.8-1.3-2.1-1.3-4.3v-1.5h12.3c0.2,0,0.3-0.1,0.3-0.3l0-4.7c0-4-0.8-6.2-2.2-7.6  c-1.6-1.7-3.9-2.6-6.4-2.6C21.7,5.4,19.3,6.3,17.8,7.9z M98,1.9c-0.2,0-0.3,0.1-0.3,0.3v4.4c0,0.2,0.1,0.3,0.3,0.3h4.2  c0.2,0,0.3-0.1,0.3-0.3V2.2c0-0.2-0.1-0.3-0.3-0.3H98z M129.3,0.2c-0.2,0-0.3,0.1-0.3,0.3v26.2h-1.7c-0.2,0-0.3,0.1-0.3,0.3v3.7  c0,0.2,0.1,0.3,0.3,0.3h7.7c0.2,0,0.3-0.1,0.3-0.3v-3.7c0-0.2-0.1-0.3-0.3-0.3h-1.6l0-11.5c0-2.1,0.4-3.4,1.3-4.3  c0.7-0.7,1.8-1.2,3.1-1.2c1.2,0,2.2,0.4,2.8,1.1c0.8,0.8,1.1,2.2,1.1,4.4v11.6h-1.6c-0.2,0-0.3,0.1-0.3,0.3v3.7  c0,0.2,0.1,0.3,0.3,0.3h7.6c0.2,0,0.3-0.1,0.3-0.3v-3.7c0-0.2-0.1-0.3-0.3-0.3h-1.5V14c0-3.1-0.7-5-2-6.5c-1.2-1.3-3.1-2.1-5.2-2.1  c-2.2,0-4.3,0.8-5.5,2.2v-7c0-0.2-0.1-0.3-0.3-0.3H129.3z M37.3,0.2c-0.2,0-0.3,0.1-0.3,0.3v24.4c0,2.6,0.6,3.9,1.6,4.8  c1.2,1.2,3.1,1.7,5.3,1.7h1.2c0.2,0,0.3-0.1,0.3-0.3v-3.6c0-0.2-0.1-0.3-0.3-0.3h-0.7c-1.1,0-1.8-0.2-2.3-0.7  c-0.6-0.6-0.8-1.4-0.8-3.1v-23c0-0.2-0.1-0.3-0.3-0.3H37.3z M48.9,0.2c-0.2,0-0.3,0.1-0.3,0.3v24.4c0,2.6,0.6,3.9,1.6,4.8  c1.2,1.2,3.1,1.7,5.3,1.7h1.2c0.2,0,0.3-0.1,0.3-0.3v-3.6c0-0.2-0.1-0.3-0.3-0.3h-0.7c-1.1,0-1.8-0.2-2.3-0.7  c-0.6-0.6-0.8-1.4-0.8-3.1v-23c0-0.2-0.1-0.3-0.3-0.3H48.9z M91.6,0c-3,0-5.4,0.8-6.9,2.3c-1.8,1.7-2.3,3.8-2.3,7.2v17.3H81  c-0.2,0-0.3,0.1-0.3,0.3v3.7c0,0.2,0.1,0.3,0.3,0.3h7.5c0.2,0,0.3-0.1,0.3-0.3v-3.7c0-0.2-0.1-0.3-0.3-0.3h-1.7V14.8h5.8  c0.2,0,0.3-0.1,0.3-0.3v-3.7c0-0.2-0.1-0.3-0.3-0.3h-5.8V9.6c0-1.8,0.2-3.1,1.1-4c0.9-1,2.3-1.3,4.3-1.3h1c0.2,0,0.4-0.1,0.4-0.3  V0.3c0-0.2-0.1-0.3-0.3-0.3H91.6z"></path></svg>