<?xml version="1.0" encoding="UTF-8"?>
<svg xmlns="http://www.w3.org/2000/svg" width="115" height="72" viewBox="0 0 115 72" fill="none">
  <g id="Group 44453">
    <path id="Vector" d="M35.4217 18.1628C45.0863 17.5608 54.741 17.153 64.5973 17.1785C74.4536 17.2039 84.3 17.4236 94.1263 18.0318C99.7097 18.3729 105.283 18.9083 110.856 19.4437C110.866 19.2494 110.665 18.8162 110.453 18.5773C104.206 22.4199 97.9591 26.2626 91.7121 30.1052C85.4652 33.9479 79.2182 37.7905 72.9713 41.6332C69.4952 43.8759 66.0291 45.9244 62.3313 48.1224C61.8678 48.4214 62.493 49.3325 62.9665 48.8392C69.2134 44.9966 75.4604 41.1539 81.7073 37.3113C87.9543 33.4686 94.2012 29.626 100.448 25.7833C103.924 23.5406 107.39 21.4921 111.088 19.2941C111.32 19.1446 111.128 18.5172 110.685 18.4277C100.657 17.3864 90.8303 16.7782 80.7722 16.3196C70.9359 15.9057 61.0796 15.8802 51.2032 16.2432C45.5998 16.2906 40.2082 16.5769 34.8065 17.0574C34.1413 16.9233 34.303 18.1334 34.9782 18.0733L35.4217 18.1628Z" fill="#5F6DED" stroke="#5F6DED" stroke-width="0.649614"></path>
    <path id="Vector_2" d="M34.3214 17.7505C39.1095 20.4826 43.9076 23.0204 48.474 25.7077C49.5626 26.3198 50.6513 26.9319 51.75 27.3498C52.8586 27.5734 53.9673 27.797 55.106 27.4379C57.5851 27.1529 60.0742 26.6737 62.5533 26.3887C72.4896 24.8602 82.1943 23.4813 92.1307 21.9528C97.7741 21.1285 103.196 20.2595 108.839 19.4352C109.514 19.3752 109.343 18.3593 108.667 18.4193C98.9528 19.9925 89.0264 21.3267 79.3118 22.8999C74.3436 23.6641 69.5971 24.4731 64.6389 25.0431C62.1598 25.3281 59.6707 25.8073 57.4134 26.137C56.2847 26.3019 55.146 26.661 53.8056 26.5869C52.4552 26.707 51.5883 26.1396 50.2578 25.8713C47.6371 24.5577 45.0263 23.0498 42.4155 21.5419C39.8047 20.0341 36.9722 18.4815 34.3614 16.9736C33.7062 16.6452 33.4345 17.5717 34.0897 17.9001L34.3214 17.7505Z" fill="#5F6DED" stroke="#5F6DED" stroke-width="0.649614"></path>
    <path id="Vector_3" d="M106.299 16.5674C100.122 19.0504 93.9455 21.5334 87.7586 24.2106C81.5716 26.8879 75.4047 29.1766 69.2178 31.8538C65.7818 33.3196 62.124 34.7406 58.6879 36.2064C58.6879 36.2064 58.4462 36.5502 58.6579 36.7891C60.2116 41.4201 62.2089 46.1406 64.8913 50.6068C65.3048 51.2789 66.2217 50.8751 65.8083 50.2029C63.3476 45.7815 61.3403 41.2553 59.7766 36.8185C59.7766 36.8185 59.7565 37.207 59.7465 37.4012C65.9234 34.9182 72.1004 32.4352 78.2873 29.758C84.4742 27.0808 90.6411 24.792 96.828 22.1148C100.264 20.649 103.922 19.228 107.358 17.7622C108.043 17.5079 107.418 16.5968 106.733 16.8511L106.299 16.5674Z" fill="#5F6DED" stroke="#5F6DED" stroke-width="0.649614"></path>
    <path id="Vector_4" d="M52.6061 28.1099C52.6061 28.1099 53.3213 27.2729 52.6561 27.1387C51.9909 27.0045 51.9409 27.9757 52.6061 28.1099Z" fill="#5F6DED" stroke="#5F6DED" stroke-width="0.649614"></path>
    <path id="Vector_5" d="M58.2922 35.1446C58.2922 35.1446 58.3423 34.1734 57.9088 33.8897C57.2436 33.7556 56.7801 34.0546 56.7601 34.4431C56.0149 35.8628 55.4814 37.5215 54.7361 38.9412C53.4574 42.0197 51.9669 44.8591 50.6881 47.9376C50.6581 48.5203 51.535 48.8934 51.7868 48.3554C52.8038 46.0092 53.8208 43.663 54.8378 41.3168C55.3413 40.2408 55.8548 38.9706 56.3583 37.8946C56.61 37.3566 56.8618 36.8187 57.1235 36.0864C57.1435 35.698 57.1536 35.5037 57.3953 35.16C57.3953 35.16 57.4153 34.7715 57.4253 34.5773C57.4253 34.5773 57.4453 34.1888 57.2236 34.1441C56.7601 34.4431 57.3953 35.16 57.8588 34.8609L58.2922 35.1446Z" fill="#5F6DED" stroke="#5F6DED" stroke-width="0.649614"></path>
    <path id="Vector_6" d="M51.3263 26.871C51.3896 34.3415 51.0094 41.7225 49.5305 48.6857C49.5005 49.2684 50.6092 49.492 50.6392 48.9093C51.9063 41.7072 52.5082 34.3709 52.435 27.0946C52.465 26.5119 51.3563 26.2883 51.3263 26.871Z" fill="#5F6DED" stroke="#5F6DED" stroke-width="0.649614"></path>
    <path id="Vector_7" d="M3.82771 48.6917C10.3664 43.5341 17.9738 39.377 26.1963 36.3254C28.4837 35.4129 30.9828 34.7395 33.4819 34.066C34.1671 33.8117 33.5419 32.9006 33.0785 33.1996C24.4425 35.5791 16.4116 39.2582 9.23774 43.6989C7.15209 45.0446 5.28818 46.4349 3.42426 47.8253C2.96079 48.1243 3.58597 49.0354 4.05945 48.5421L3.83772 48.4974L3.82771 48.6917Z" fill="#5F6DED" stroke="#5F6DED" stroke-width="0.649614"></path>
    <path id="Vector_8" d="M10.5124 58.0842C15.449 53.5847 21.0307 49.6079 27.0359 46.109C28.8798 45.1071 30.492 44.2548 32.3259 43.4471C32.7894 43.1481 32.3859 42.2817 31.9224 42.5807C25.272 45.557 19.2568 49.2501 13.8868 53.4659C12.2546 54.7067 10.8442 55.9923 9.43376 57.2779C8.96027 57.7711 9.8272 58.3385 10.3007 57.8452L10.5224 57.8899L10.5124 58.0842Z" fill="#5F6DED" stroke="#5F6DED" stroke-width="0.649614"></path>
    <path id="Vector_9" d="M54.4794 26.5254C53.0189 28.7821 51.5584 31.0389 50.3197 33.3404C50.068 33.8784 50.9349 34.4457 51.1866 33.9077C52.6471 31.651 54.1076 29.3942 55.3463 27.0928C55.598 26.5548 54.7311 25.9874 54.4794 26.5254Z" fill="#5F6DED" stroke="#5F6DED" stroke-width="0.649614"></path>
    <path id="Vector_10" d="M57.847 26.4191C55.6713 29.5129 53.7273 32.4572 51.7633 35.7899C51.5116 36.3279 52.6103 36.7457 52.862 36.2078C54.5942 33.0245 56.7599 30.125 58.7039 27.1808C58.9556 26.6428 58.0887 26.0754 57.837 26.6134L57.847 26.4191Z" fill="#5F6DED" stroke="#5F6DED" stroke-width="0.649614"></path>
    <path id="Vector_11" d="M61.0129 25.8809C58.5954 29.3185 56.3997 32.8007 54.8592 36.6114C54.8292 37.1941 55.7061 37.5672 55.9579 37.0292C57.4984 33.2186 59.6941 29.7363 62.1015 26.493C62.3533 25.955 61.4864 25.3877 61.2346 25.9257L61.0129 25.8809Z" fill="#5F6DED" stroke="#5F6DED" stroke-width="0.649614"></path>
    <path id="Vector_12" d="M63.9223 25.8795L59.9744 32.9335C59.9744 32.9335 60.8213 33.8893 61.073 33.3513L65.021 26.2974C65.021 26.2974 64.1741 25.3416 63.9223 25.8795Z" fill="#5F6DED" stroke="#5F6DED" stroke-width="0.649614"></path>
    <path id="Vector_13" d="M68.9014 24.9216C67.461 26.7899 66.0205 28.6582 64.3583 30.4817C63.8848 30.975 64.9735 31.5871 65.2252 31.0491C66.6657 29.1808 68.1061 27.3125 69.7683 25.489C70.2418 24.9957 69.1532 24.3836 68.9014 24.9216Z" fill="#5F6DED" stroke="#5F6DED" stroke-width="0.649614"></path>
    <path id="Vector_14" d="M72.0477 24.7705C70.6173 26.4445 69.3986 28.3575 67.9681 30.0316C67.7164 30.5696 68.5833 31.1369 68.835 30.599C70.2655 28.9249 71.4842 27.0119 72.9147 25.3379C73.3881 24.8446 72.2995 24.2325 72.0477 24.7705Z" fill="#5F6DED" stroke="#5F6DED" stroke-width="0.649614"></path>
    <path id="Vector_15" d="M74.9881 24.1848C73.7794 25.9035 72.5607 27.8165 71.1302 29.4906C70.8785 30.0286 71.7454 30.5959 71.9971 30.0579C73.2059 28.3392 74.4246 26.4262 75.855 24.7521C76.1068 24.2142 75.2399 23.6468 74.9881 24.1848Z" fill="#5F6DED" stroke="#5F6DED" stroke-width="0.649614"></path>
    <path id="Vector_16" d="M78.1316 24.0367C76.9428 25.367 75.9659 26.9363 74.7772 28.2665C74.5254 28.8045 75.3923 29.3719 75.6441 28.8339C76.8328 27.5036 77.8098 25.9344 78.9985 24.6041C79.472 24.1108 78.3833 23.4987 78.1316 24.0367Z" fill="#5F6DED" stroke="#5F6DED" stroke-width="0.649614"></path>
    <path id="Vector_17" d="M81.7596 23.1929C80.1174 24.628 78.9087 26.3467 78.1334 28.3492C78.1034 28.9319 78.9803 29.305 79.2321 28.767C79.7756 26.9141 80.9843 25.1953 82.6165 23.9545C83.08 23.6555 82.4548 22.7443 81.9813 23.2376L81.7596 23.1929Z" fill="#5F6DED" stroke="#5F6DED" stroke-width="0.649614"></path>
    <path id="Vector_18" d="M84.7016 22.6117C83.9664 23.8372 83.2412 24.8685 82.2842 26.0493C82.0325 26.5873 82.8994 27.1546 83.1511 26.6166C83.8864 25.3911 84.6116 24.3599 85.5686 23.1791C85.8203 22.6411 84.9534 22.0738 84.7016 22.6117Z" fill="#5F6DED" stroke="#5F6DED" stroke-width="0.649614"></path>
    <path id="Vector_19" d="M87.4146 22.1768C86.4477 23.5518 85.4907 24.7326 84.5237 26.1076C84.272 26.6456 85.1389 27.2129 85.3907 26.6749C86.3576 25.2999 87.3146 24.1192 88.2816 22.7441C88.5333 22.2062 87.6664 21.6388 87.4146 22.1768Z" fill="#5F6DED" stroke="#5F6DED" stroke-width="0.649614"></path>
    <path id="Vector_20" d="M89.6519 22.2369C88.9267 23.2681 87.9797 24.2547 87.2545 25.2859C86.781 25.7792 87.8696 26.3913 88.1214 25.8533C88.8466 24.822 89.7936 23.8355 90.5188 22.8042C90.9923 22.311 89.9036 21.6989 89.6519 22.2369Z" fill="#5F6DED" stroke="#5F6DED" stroke-width="0.649614"></path>
    <path id="Vector_21" d="M92.1238 22.1455C92.1238 22.1455 90.4917 23.3863 90.4316 24.5518C90.4016 25.1345 91.5103 25.3581 91.5403 24.7754C91.5803 23.9984 92.0538 23.5052 92.749 23.0566C93.4342 22.8023 92.809 21.8912 92.3456 22.1902L92.1238 22.1455Z" fill="#5F6DED" stroke="#5F6DED" stroke-width="0.649614"></path>
    <path id="Vector_22" d="M93.6741 22.457C93.6741 22.457 92.7471 23.0551 92.4854 23.7873C92.4754 23.9815 92.6871 24.2205 92.9088 24.2652C93.1306 24.3099 93.3623 24.1604 93.3723 23.9662C93.3823 23.772 93.6241 23.4282 93.8458 23.4729C94.531 23.2186 93.9058 22.3075 93.4424 22.6065L93.6741 22.457Z" fill="#5F6DED" stroke="#5F6DED" stroke-width="0.649614"></path>
    <path id="Vector_23" d="M96.5856 22.4576C96.5856 22.4576 97.3008 21.6205 96.6356 21.4864C95.9704 21.3522 95.9204 22.3234 96.5856 22.4576Z" fill="#5F6DED" stroke="#5F6DED" stroke-width="0.649614"></path>
    <path id="Vector_24" d="M99.7516 21.9204C99.7516 21.9204 100.467 21.0834 99.8016 20.9493C99.1364 20.8151 99.0864 21.7863 99.7516 21.9204Z" fill="#5F6DED" stroke="#5F6DED" stroke-width="0.649614"></path>
    <path id="Vector_25" d="M53.9293 37.207C52.9523 38.7763 51.9753 40.3455 50.9984 41.9148C50.7466 42.4528 51.6135 43.0201 51.8653 42.4822C52.8423 40.9129 53.8192 39.3437 54.7962 37.7744C55.048 37.2364 54.181 36.6691 53.9293 37.207Z" fill="#5F6DED" stroke="#5F6DED" stroke-width="0.649614"></path>
    <path id="Vector_26" d="M50.8829 26.7802C50.271 34.3107 49.6591 41.8413 49.0471 49.3718C49.0171 49.9545 50.1258 50.1782 50.1558 49.5955C50.546 42.0202 51.3797 34.5344 51.9916 27.0038C52.0216 26.4211 50.9129 26.1975 50.8829 26.7802Z" fill="#5F6DED" stroke="#5F6DED" stroke-width="0.649614"></path>
    <path id="Vector_27" d="M48.9574 46.8039L48.8573 48.7463C48.8573 48.7463 49.936 49.5526 49.966 48.9699L50.066 47.0275C50.066 47.0275 48.9874 46.2212 48.9574 46.8039Z" fill="#5F6DED" stroke="#5F6DED" stroke-width="0.649614"></path>
    <path id="Vector_28" d="M50.2454 47.8489C50.2454 47.8489 49.2784 49.2239 48.7949 49.9114C48.5432 50.4494 49.4101 51.0167 49.6618 50.4787C50.1453 49.7912 50.6288 49.1037 51.1123 48.4162C51.3641 47.8782 50.4971 47.3109 50.2454 47.8489Z" fill="#5F6DED" stroke="#5F6DED" stroke-width="0.649614"></path>
    <path id="Vector_29" d="M51.6354 46.9502L49.7014 49.7002C49.7014 49.7002 50.3166 50.8056 50.5684 50.2676L52.5023 47.5176C52.5023 47.5176 51.8871 46.4122 51.6354 46.9502Z" fill="#5F6DED" stroke="#5F6DED" stroke-width="0.649614"></path>
    <path id="Vector_30" d="M52.0893 46.8461C51.3641 47.8774 50.4071 49.0581 49.6819 50.0894C49.4302 50.6274 50.2971 51.1948 50.5488 50.6568C51.2741 49.6255 52.231 48.4447 52.9563 47.4135C53.208 46.8755 52.3411 46.3081 52.0893 46.8461Z" fill="#5F6DED" stroke="#5F6DED" stroke-width="0.649614"></path>
    <path id="Vector_31" d="M30.6748 53.7122L38.3022 49.1667C38.3022 49.1667 38.1405 47.9565 37.667 48.4498C35.1279 49.9002 32.5787 51.5449 30.0396 52.9953C29.5761 53.2943 30.2013 54.2054 30.6748 53.7122Z" fill="#5F6DED" stroke="#5F6DED" stroke-width="0.649614"></path>
  </g>
</svg>
