<svg xmlns="http://www.w3.org/2000/svg" width="68.47" height="76.176" viewBox="0 0 68.47 76.176"><g id="letters" transform="translate(-1228.765 -452.071)"><g id="Group_637" data-name="Group 637" transform="translate(1251.26 452.071)"><path id="Path_1703" data-name="Path 1703" d="M145.54,81.771l9.226-4.9a1.111,1.111,0,0,1,1.058.009l.156.086a1.086,1.086,0,0,1,0,1.91l-9.125,4.978a1.113,1.113,0,0,1-.944.05l.33-.634-.289-.258-.486.647a1.083,1.083,0,0,1,.073-1.878Z" transform="translate(-138.545 -56.193)" fill="#d8c7ff"></path><path id="Path_1704" data-name="Path 1704" d="M145.335,81.466l9.226-4.9a1.388,1.388,0,0,1,1.324.009l.156.086a1.35,1.35,0,0,1,.711,1.195,1.334,1.334,0,0,1-.715,1.19l-9.125,4.978a1.373,1.373,0,0,1-.651.163,1.461,1.461,0,0,1-.531-.1.269.269,0,0,1-.156-.158.293.293,0,0,1-.014-.127.279.279,0,0,1-.316.014,1.355,1.355,0,0,1,.087-2.349Zm.014,1.72.307-.412a.269.269,0,0,1,.192-.109.277.277,0,0,1,.211.068l.289.258a.274.274,0,0,1,.06.326l-.165.321a.8.8,0,0,0,.4-.1l9.125-4.973a.805.805,0,0,0,.431-.715.817.817,0,0,0-.426-.719l-.156-.086a.846.846,0,0,0-.4-.1.805.805,0,0,0-.394.1l-9.226,4.9a.812.812,0,0,0-.247,1.24Z" transform="translate(-138.473 -56.124)" fill="#0b0b0b"></path><path id="Path_1705" data-name="Path 1705" d="M150.481,83.389l-.545-.068a1.461,1.461,0,0,0-1.278-1.7l.078-.538a2,2,0,0,1,1.745,2.3Z" transform="translate(-139.304 -57.083)" fill="#0b0b0b"></path><path id="Path_1706" data-name="Path 1706" d="M154.866,81.1l-.545-.063a1.457,1.457,0,0,0-1.278-1.7l.078-.538A1.993,1.993,0,0,1,154.866,81.1Z" transform="translate(-140.203 -56.614)" fill="#0b0b0b"></path><path id="Path_1718" data-name="Path 1718" d="M139.494,76.538a3.5,3.5,0,0,1-2.045-4.462L144.206,53.5a3.4,3.4,0,0,1,4.4-2.021l31.8,12.031a3.5,3.5,0,0,1,2.044,4.462l-6.76,18.583a3.4,3.4,0,0,1-4.4,2.021l-31.8-12.031Z" transform="translate(-136.963 -50.967)" fill="#d7ff65"></path><path id="Path_1719" data-name="Path 1719" d="M139.325,76.72a3.727,3.727,0,0,1-2.087-1.959l0-.008a3.758,3.758,0,0,1-.117-2.853l6.76-18.583a3.666,3.666,0,0,1,4.753-2.181l31.8,12.031a3.749,3.749,0,0,1,2.088,1.953l0,.008a3.742,3.742,0,0,1,.118,2.853l-6.757,18.581a3.67,3.67,0,0,1-4.753,2.181l-31.8-12.031Zm36.038,9.651L182.12,67.79a3.227,3.227,0,0,0-1.883-4.107l-31.8-12.031a3.132,3.132,0,0,0-4.054,1.861L137.625,72.1a3.225,3.225,0,0,0,1.883,4.107l31.8,12.031a3.132,3.132,0,0,0,4.054-1.861Z" transform="translate(-136.891 -50.894)" fill="#0b0b0b"></path><path id="Path_1720" data-name="Path 1720" d="M162.071,76.609a4.883,4.883,0,0,1-4.923-1.868l-11.31-15.147a4.935,4.935,0,0,1-.693-4.65l.361-1,.511.195-.361,1a4.369,4.369,0,0,0,.614,4.128l11.31,15.147a4.348,4.348,0,0,0,4.372,1.661l18.323-3.939a4.262,4.262,0,0,0,3.114-2.722l.042-.115.511.195-.042.115a4.785,4.785,0,0,1-3.5,3.066l-18.323,3.939Z" transform="translate(-138.523 -51.52)" fill="#0b0b0b"></path><path id="Path_1721" data-name="Path 1721" d="M138.775,71.594l9.732-4.858.245.492-9.732,4.858Z" transform="translate(-137.277 -54.142)" fill="#0b0b0b"></path><path id="Path_1722" data-name="Path 1722" d="M181.486,78.715l.5-.209,4.271,10.162-.5.209Z" transform="translate(-146.034 -56.555)" fill="#0b0b0b"></path><path id="Path_1723" data-name="Path 1723" d="M174.234,92.154l1.33-3.66,5.946,2.251-1.33,3.66Z" transform="translate(-144.547 -58.603)" fill="#fff"></path><path id="Path_1724" data-name="Path 1724" d="M175.275,90.512a1.615,1.615,0,0,1-.812-.647,1.08,1.08,0,0,0-.562-.459,1.045,1.045,0,0,0-.718-.025,1.566,1.566,0,0,1-1.026-.05,1.618,1.618,0,0,1-.812-.647,1.1,1.1,0,0,0-.562-.459,1.078,1.078,0,0,0-.719-.029,1.587,1.587,0,0,1-1.03-.048l.188-.514a1.078,1.078,0,0,0,.719.029,1.6,1.6,0,0,1,1.027.05,1.615,1.615,0,0,1,.812.647,1.106,1.106,0,0,0,.562.459,1.078,1.078,0,0,0,.719.029,1.568,1.568,0,0,1,1.027.05,1.618,1.618,0,0,1,.812.647,1.064,1.064,0,0,0,.56.454,1.042,1.042,0,0,0,.717.025,1.568,1.568,0,0,1,1.027.05l-.188.514a1.042,1.042,0,0,0-.717-.025,1.568,1.568,0,0,1-1.027-.05Z" transform="translate(-143.481 -58.42)" fill="#0b0b0b"></path><path id="Path_1725" data-name="Path 1725" d="M174.677,92.161a1.647,1.647,0,0,1-.812-.647,1.078,1.078,0,0,0-.562-.459,1.042,1.042,0,0,0-.717-.025,1.569,1.569,0,0,1-1.027-.05,1.621,1.621,0,0,1-.812-.647,1.1,1.1,0,0,0-.562-.459,1.076,1.076,0,0,0-.719-.029,1.568,1.568,0,0,1-1.027-.05l.188-.514a1.076,1.076,0,0,0,.719.029,1.6,1.6,0,0,1,1.027.05,1.615,1.615,0,0,1,.812.647,1.105,1.105,0,0,0,.562.459,1.045,1.045,0,0,0,.718.025,1.568,1.568,0,0,1,1.027.05,1.619,1.619,0,0,1,.812.647,1.065,1.065,0,0,0,.56.454,1.043,1.043,0,0,0,.717.025,1.6,1.6,0,0,1,1.027.05l-.188.514a1.043,1.043,0,0,0-.717-.025,1.569,1.569,0,0,1-1.027-.05Z" transform="translate(-143.359 -58.758)" fill="#0b0b0b"></path></g><g id="Group_638" data-name="Group 638" transform="translate(1228.765 490.159)"><path id="Path_1703-2" data-name="Path 1703" d="M155.967,81.771l-9.226-4.9a1.111,1.111,0,0,0-1.058.009l-.156.086a1.086,1.086,0,0,0,0,1.91l9.125,4.978a1.113,1.113,0,0,0,.944.05l-.33-.634.289-.258.486.647a1.083,1.083,0,0,0-.073-1.878Z" transform="translate(-116.987 -56.193)" fill="#d8c7ff"></path><path id="Path_1704-2" data-name="Path 1704" d="M156.023,81.466l-9.226-4.9a1.388,1.388,0,0,0-1.324.009l-.156.086a1.35,1.35,0,0,0-.711,1.195,1.334,1.334,0,0,0,.715,1.19l9.125,4.978a1.373,1.373,0,0,0,.651.163,1.461,1.461,0,0,0,.531-.1.269.269,0,0,0,.156-.158.293.293,0,0,0,.014-.127.279.279,0,0,0,.316.014,1.355,1.355,0,0,0-.087-2.349Zm-.014,1.72-.307-.412a.269.269,0,0,0-.192-.109.277.277,0,0,0-.211.068l-.289.258a.274.274,0,0,0-.06.326l.165.321a.8.8,0,0,1-.4-.1l-9.125-4.973a.805.805,0,0,1-.431-.715.817.817,0,0,1,.426-.719l.156-.086a.846.846,0,0,1,.4-.1.805.805,0,0,1,.394.1l9.226,4.9a.812.812,0,0,1,.247,1.24Z" transform="translate(-116.909 -56.124)" fill="#0b0b0b"></path><path id="Path_1705-2" data-name="Path 1705" d="M148.679,83.389l.545-.068a1.461,1.461,0,0,1,1.278-1.7l-.078-.538a2,2,0,0,0-1.745,2.3Z" transform="translate(-113.88 -57.083)" fill="#0b0b0b"></path><path id="Path_1706-2" data-name="Path 1706" d="M153.064,81.1l.545-.063a1.457,1.457,0,0,1,1.278-1.7l-.078-.538A1.993,1.993,0,0,0,153.064,81.1Z" transform="translate(-121.752 -56.614)" fill="#0b0b0b"></path><path id="Path_1718-2" data-name="Path 1718" d="M180.407,76.538a3.5,3.5,0,0,0,2.045-4.462L175.694,53.5a3.4,3.4,0,0,0-4.4-2.021L139.493,63.5a3.5,3.5,0,0,0-2.044,4.462l6.76,18.583a3.4,3.4,0,0,0,4.4,2.021l31.8-12.031Z" transform="translate(-136.963 -50.967)" fill="#d7ff65"></path><path id="Path_1719-2" data-name="Path 1719" d="M180.433,76.72a3.727,3.727,0,0,0,2.087-1.959l0-.008a3.758,3.758,0,0,0,.117-2.853l-6.76-18.583a3.666,3.666,0,0,0-4.753-2.181l-31.8,12.031a3.749,3.749,0,0,0-2.088,1.953l0,.008a3.742,3.742,0,0,0-.118,2.853l6.757,18.581a3.67,3.67,0,0,0,4.753,2.181l31.8-12.031Zm-36.038,9.651L137.638,67.79a3.227,3.227,0,0,1,1.883-4.107l31.8-12.031a3.132,3.132,0,0,1,4.054,1.861l6.76,18.583a3.225,3.225,0,0,1-1.883,4.107l-31.8,12.031a3.132,3.132,0,0,1-4.054-1.861Z" transform="translate(-136.891 -50.894)" fill="#0b0b0b"></path><path id="Path_1720-2" data-name="Path 1720" d="M166.718,76.609a4.883,4.883,0,0,0,4.923-1.868l11.31-15.147a4.935,4.935,0,0,0,.693-4.65l-.361-1-.511.195.361,1a4.369,4.369,0,0,1-.614,4.128L171.21,74.414a4.348,4.348,0,0,1-4.372,1.661l-18.323-3.939a4.262,4.262,0,0,1-3.114-2.722l-.042-.115-.511.195.042.115a4.785,4.785,0,0,0,3.5,3.066l18.323,3.939Z" transform="translate(-144.291 -51.52)" fill="#0b0b0b"></path><path id="Path_1721-2" data-name="Path 1721" d="M148.752,71.594l-9.732-4.858-.245.492,9.732,4.858Z" transform="translate(-104.274 -54.142)" fill="#0b0b0b"></path><path id="Path_1722-2" data-name="Path 1722" d="M186.258,78.715l-.5-.209-4.271,10.162.5.209Z" transform="translate(-175.735 -56.555)" fill="#0b0b0b"></path><path id="Path_1723-2" data-name="Path 1723" d="M181.51,92.154l-1.33-3.66-5.946,2.251,1.33,3.66Z" transform="translate(-165.222 -58.603)" fill="#fff"></path><path id="Path_1724-2" data-name="Path 1724" d="M170.962,90.512a1.615,1.615,0,0,0,.812-.647,1.08,1.08,0,0,1,.562-.459,1.045,1.045,0,0,1,.718-.025,1.566,1.566,0,0,0,1.026-.05,1.618,1.618,0,0,0,.812-.647,1.1,1.1,0,0,1,.562-.459,1.078,1.078,0,0,1,.719-.029,1.587,1.587,0,0,0,1.03-.048l-.188-.514a1.078,1.078,0,0,1-.719.029,1.6,1.6,0,0,0-1.027.05,1.615,1.615,0,0,0-.812.647,1.106,1.106,0,0,1-.562.459,1.078,1.078,0,0,1-.719.029,1.568,1.568,0,0,0-1.027.05,1.618,1.618,0,0,0-.812.647,1.064,1.064,0,0,1-.56.454,1.042,1.042,0,0,1-.717.025,1.568,1.568,0,0,0-1.027.05l.188.514a1.042,1.042,0,0,1,.717-.025,1.568,1.568,0,0,0,1.027-.05Z" transform="translate(-156.78 -58.42)" fill="#0b0b0b"></path><path id="Path_1725-2" data-name="Path 1725" d="M170.37,92.161a1.647,1.647,0,0,0,.812-.647,1.078,1.078,0,0,1,.562-.459,1.042,1.042,0,0,1,.717-.025,1.569,1.569,0,0,0,1.027-.05,1.621,1.621,0,0,0,.812-.647,1.1,1.1,0,0,1,.562-.459,1.076,1.076,0,0,1,.719-.029,1.568,1.568,0,0,0,1.027-.05l-.188-.514a1.076,1.076,0,0,1-.719.029,1.6,1.6,0,0,0-1.027.05,1.615,1.615,0,0,0-.812.647,1.105,1.105,0,0,1-.562.459,1.045,1.045,0,0,1-.718.025,1.568,1.568,0,0,0-1.027.05,1.619,1.619,0,0,0-.812.647,1.065,1.065,0,0,1-.56.454,1.043,1.043,0,0,1-.717.025,1.6,1.6,0,0,0-1.027.05l.188.514a1.043,1.043,0,0,1,.717-.025,1.569,1.569,0,0,0,1.027-.05Z" transform="translate(-155.712 -58.758)" fill="#0b0b0b"></path></g></g></svg>