<svg xmlns="http://www.w3.org/2000/svg" xmlns:xlink="http://www.w3.org/1999/xlink" id="letter_box" data-name="letter box" width="158.342" height="169.481" viewBox="0 0 158.342 169.481"><defs><clipPath id="clip-path"><rect id="Rectangle_564" data-name="Rectangle 564" width="158.342" height="169.481" fill="none"></rect></clipPath><clipPath id="clip-path-3"><rect id="Rectangle_559" data-name="Rectangle 559" width="20.619" height="38.689" fill="none"></rect></clipPath><clipPath id="clip-path-4"><rect id="Rectangle_560" data-name="Rectangle 560" width="54.11" height="51.345" fill="none"></rect></clipPath></defs><g id="Group_631" data-name="Group 631" clip-path="url(#clip-path)"><path id="Path_2416" data-name="Path 2416" d="M37.229,149.936l-8.741-5.2V75.649l8.741,5.194Z" transform="translate(5.674 15.067)" fill="#d8c7ff"></path><g id="Group_630" data-name="Group 630"><g id="Group_629" data-name="Group 629" clip-path="url(#clip-path)"><path id="Path_2417" data-name="Path 2417" d="M28.354,75.357a.426.426,0,0,1,.415,0l8.741,5.2a.406.406,0,0,1,.2.349V150a.406.406,0,0,1-.207.355.421.421,0,0,1-.2.054.426.426,0,0,1-.213-.061l-8.741-5.2a.406.406,0,0,1-.2-.349V75.7a.408.408,0,0,1,.206-.355Zm.622,69.214,7.912,4.7V81.138l-7.912-4.7Z" transform="translate(5.606 14.999)" fill="#0b0b0b"></path><path id="Path_2418" data-name="Path 2418" d="M47.835,143.441l-12.058,6.751V81.1l12.058-6.744Z" transform="translate(7.126 14.81)" fill="#fff"></path><path id="Path_2419" data-name="Path 2419" d="M35.643,80.815,47.7,74.065a.423.423,0,0,1,.414,0,.414.414,0,0,1,.207.355v69.092a.406.406,0,0,1-.207.355l-12.058,6.751a.426.426,0,0,1-.415,0,.426.426,0,0,1-.206-.355V81.17a.408.408,0,0,1,.206-.355m.622,68.744,11.229-6.286V75.123L36.266,81.41Z" transform="translate(7.058 14.741)" fill="#0b0b0b"></path><g id="Group_625" data-name="Group 625" transform="translate(34.086 102.142)" opacity="0.4"><g id="Group_624" data-name="Group 624"><g id="Group_623" data-name="Group 623" clip-path="url(#clip-path-3)"><path id="Path_2420" data-name="Path 2420" d="M49.029,107.634,37.5,114.092l-9.072,9.774V85.177L49.043,97.593Z" transform="translate(-28.424 -85.177)" fill="#0b0b0b"></path></g></g></g><path id="Path_2421" data-name="Path 2421" d="M25.216,6.254l4.553-2.621a24.031,24.031,0,0,1,12.1-3.3,22.5,22.5,0,0,1,9.77,2.211c8.941,4.28,60.826,32.239,64.136,33.917a27.488,27.488,0,0,1,14.642,24.649v29.14a5.534,5.534,0,0,1-2.882,4.949L71.7,124.794a4.931,4.931,0,0,1-2.307.579,5.379,5.379,0,0,1-5.19-5.535L9.953,90.991a18.6,18.6,0,0,1-4.43,1.372A5.379,5.379,0,0,1,.334,86.827V50.677c0-18.587,9.529-35.618,24.874-44.437Z" transform="translate(0.067 0.067)" fill="#8b75f3"></path><path id="Path_2422" data-name="Path 2422" d="M25.076,5.973l4.553-2.621A24.425,24.425,0,0,1,41.935,0a22.875,22.875,0,0,1,9.957,2.252c6.239,2.99,33.824,17.741,50.31,26.553,7.448,3.986,12.838,6.859,13.834,7.371,9.031,4.574,14.863,14.389,14.863,25.017v29.14a5.947,5.947,0,0,1-3.1,5.31l-55.837,29.59a5.3,5.3,0,0,1-2.5.628,5.769,5.769,0,0,1-5.6-5.692L10.026,91.536A18.66,18.66,0,0,1,5.6,92.86,5.792,5.792,0,0,1,0,86.915V50.772C0,32.035,9.611,14.874,25.083,5.98ZM.823,86.915A4.966,4.966,0,0,0,5.6,92.041a18.618,18.618,0,0,0,4.235-1.324.437.437,0,0,1,.393,0l54.241,28.845a.417.417,0,0,1,.222.362,4.966,4.966,0,0,0,4.774,5.126,4.431,4.431,0,0,0,2.108-.532l55.837-29.59a5.141,5.141,0,0,0,2.66-4.594V61.195c0-10.321-5.659-19.857-14.413-24.287-1.01-.512-6.4-3.392-13.854-7.379C85.321,20.717,57.752,5.973,51.526,3A22.043,22.043,0,0,0,41.935.826,23.572,23.572,0,0,0,30.051,4.069L25.5,6.69C10.282,15.44.83,32.328.83,50.772V86.915Z" transform="translate(0 0)" fill="#0b0b0b"></path><path id="Path_2423" data-name="Path 2423" d="M31.515,2.131c.663-.157,1.333-.279,2.011-.375a.571.571,0,0,1,.38.068L103.57,39.045a.593.593,0,0,1,.242.813l-.615,1.106a.607.607,0,0,1-.815.239L31.37,3.236a.594.594,0,0,1,.145-1.106" transform="translate(6.185 0.348)" fill="#b5fdea"></path><path id="Path_2424" data-name="Path 2424" d="M22.711,6.459a.1.1,0,0,0,.02-.013l3.027-1.734a1.408,1.408,0,0,1,1.375-.02L95.029,41.3a1.383,1.383,0,0,1,.56,1.885l-1.438,2.6a1.409,1.409,0,0,1-1.9.553L22.767,8.862a1.375,1.375,0,0,1-.048-2.4Z" transform="translate(4.389 0.901)" fill="#b5fdea"></path><path id="Path_2425" data-name="Path 2425" d="M78.673,35.618,82.35,33.5c14.966-8.6,33.125,2.956,33.125,21.085v29.14a2.281,2.281,0,0,1-1.175,2.021L58.462,115.338a2.125,2.125,0,0,1-3.054-2.021V77.175c0-17.358,8.935-33.318,23.258-41.556Z" transform="translate(11.036 6.095)" fill="#b5fdea"></path><path id="Path_2426" data-name="Path 2426" d="M78.533,35.335,82.21,33.22a21.321,21.321,0,0,1,21.62-.068A24.282,24.282,0,0,1,115.957,54.66V83.8a2.679,2.679,0,0,1-1.389,2.382L58.73,115.772a2.409,2.409,0,0,1-1.133.287,2.446,2.446,0,0,1-1.236-.342,2.659,2.659,0,0,1-1.293-2.328V77.246c0-17.528,8.99-33.583,23.465-41.911M55.9,113.389a1.833,1.833,0,0,0,.891,1.618,1.578,1.578,0,0,0,1.555.041l55.837-29.59a1.872,1.872,0,0,0,.953-1.658V54.66a23.48,23.48,0,0,0-11.712-20.8,20.772,20.772,0,0,0-10.33-2.8A21,21,0,0,0,82.638,33.93l-3.675,2.115C64.742,44.222,55.905,60,55.905,77.246v36.143Z" transform="translate(10.968 6.023)" fill="#0b0b0b"></path><path id="Path_2427" data-name="Path 2427" d="M78.821,36.651,82.5,34.534a18.614,18.614,0,0,1,9.384-2.566c11.028,0,20,9.658,20,21.529V82.561l-55.091,29.2V76.077c0-16.511,8.437-31.617,22.029-39.434Z" transform="translate(11.31 6.367)" fill="#0b0b0b"></path><path id="Path_2428" data-name="Path 2428" d="M78.681,36.363l3.675-2.115a19.081,19.081,0,0,1,9.6-2.621c11.255,0,20.411,9.843,20.411,21.939V82.629a.408.408,0,0,1-.222.361l-55.09,29.2a.415.415,0,0,1-.194.048.42.42,0,0,1-.415-.41V76.144c0-16.655,8.52-31.9,22.229-39.781Zm-21.4,74.778,54.261-28.757V53.565c0-11.645-8.782-21.12-19.583-21.12a18.261,18.261,0,0,0-9.176,2.512L79.1,37.073c-13.46,7.741-21.82,22.71-21.82,39.079v34.99Z" transform="translate(11.242 6.299)" fill="#0b0b0b"></path><path id="Path_2429" data-name="Path 2429" d="M125.09,110.179c5.942,16.484,1.271,31.562-12.2,39.364l-3.648,2.109a20.332,20.332,0,0,1-10.323,2.567c-13.211,0-27.44-9.645-31.716-21.5L56.745,103.708l55.5-29.14,12.846,35.617Z" transform="translate(11.302 14.852)" fill="#b489de"></path><path id="Path_2430" data-name="Path 2430" d="M56.619,103.414l55.5-29.14a.433.433,0,0,1,.345-.02.4.4,0,0,1,.241.246l12.846,35.617c6.011,16.676,1.271,31.952-12.376,39.85l-3.648,2.109A20.73,20.73,0,0,1,99,154.7c-13.378,0-27.778-9.761-32.1-21.767L56.432,103.911a.407.407,0,0,1,.194-.5Zm11.048,29.235c4.222,11.7,18.269,21.222,31.322,21.222a20,20,0,0,0,10.115-2.505l3.649-2.109c13.287-7.693,17.889-22.586,12.016-38.874L112.09,75.215,57.33,103.967l10.344,28.682Z" transform="translate(11.235 14.784)" fill="#0b0b0b"></path><path id="Path_2431" data-name="Path 2431" d="M65.708,103.138l37.74-19.822a4.162,4.162,0,0,1,5.846,2.239l8.976,24.894c5.023,13.932,1.41,26.082-9.667,32.492l-3.648,2.109a14.567,14.567,0,0,1-7.387,1.775c-10.772,0-22.788-8.1-26.243-17.685l-7.58-21.024a4.077,4.077,0,0,1,1.955-4.99Z" transform="translate(12.649 16.499)" fill="#b489de"></path><path id="Path_2432" data-name="Path 2432" d="M65.584,102.845l37.74-19.822a4.611,4.611,0,0,1,3.787-.225,4.5,4.5,0,0,1,2.645,2.689l8.976,24.895c5.1,14.13,1.417,26.463-9.846,32.982l-3.648,2.109a15,15,0,0,1-7.6,1.836c-10.932,0-23.127-8.225-26.637-17.959l-7.58-21.024a4.506,4.506,0,0,1,2.156-5.487Zm-1.375,5.208,7.58,21.024c3.4,9.44,15.243,17.412,25.857,17.412a14.2,14.2,0,0,0,7.178-1.72l3.649-2.109c10.89-6.308,14.434-18.266,9.479-32l-8.976-24.894a3.71,3.71,0,0,0-2.162-2.2,3.812,3.812,0,0,0-1.348-.246,3.766,3.766,0,0,0-1.748.431l-37.74,19.822a3.686,3.686,0,0,0-1.762,4.484Z" transform="translate(12.58 16.431)" fill="#0b0b0b"></path><path id="Path_2433" data-name="Path 2433" d="M69.155,103.31l35.529-18.654a3.909,3.909,0,0,1,5.5,2.109l8.451,23.433c4.726,13.113,1.326,24.546-9.093,30.58l-3.434,1.986a13.7,13.7,0,0,1-6.958,1.673c-10.137,0-21.447-7.624-24.7-16.648L67.31,108a3.838,3.838,0,0,1,1.846-4.7Z" transform="translate(13.361 16.771)" fill="#b5fdea"></path><path id="Path_2434" data-name="Path 2434" d="M69.031,103.016,104.56,84.361a4.385,4.385,0,0,1,3.587-.211,4.3,4.3,0,0,1,2.5,2.546l8.451,23.433c4.8,13.318,1.333,24.928-9.279,31.072l-3.434,1.986a14.132,14.132,0,0,1-7.165,1.727c-10.3,0-21.787-7.747-25.1-16.92L66.985,108.2a4.269,4.269,0,0,1,2.039-5.195Zm-1.258,4.914,7.137,19.789c3.2,8.874,14.337,16.375,24.316,16.375a13.3,13.3,0,0,0,6.743-1.618l3.434-1.986c10.241-5.925,13.571-17.175,8.913-30.089l-8.451-23.433a3.458,3.458,0,0,0-2.024-2.055,3.5,3.5,0,0,0-1.258-.231,3.537,3.537,0,0,0-1.637.4l-35.53,18.654a3.444,3.444,0,0,0-1.644,4.2Z" transform="translate(13.293 16.704)" fill="#0b0b0b"></path><path id="Path_2435" data-name="Path 2435" d="M60.245,95.6,74.161,88.2a1.675,1.675,0,0,1,1.6.014l.235.13a1.639,1.639,0,0,1,0,2.88L62.228,98.737a1.675,1.675,0,0,1-1.423.076l.5-.956-.435-.389-.731.976a1.634,1.634,0,0,1,.11-2.834Z" transform="translate(11.824 17.529)" fill="#d8c7ff"></path><path id="Path_2436" data-name="Path 2436" d="M60.119,95.3l13.916-7.393a2.1,2.1,0,0,1,2,.014l.235.13a2.035,2.035,0,0,1,1.071,1.8,2.011,2.011,0,0,1-1.078,1.8L62.5,99.16a2.067,2.067,0,0,1-.981.253,2.209,2.209,0,0,1-.8-.157.4.4,0,0,1-.235-.239.447.447,0,0,1-.02-.192.419.419,0,0,1-.477.02,2.035,2.035,0,0,1,.138-3.535Zm.022,2.594.463-.621a.407.407,0,0,1,.29-.164.438.438,0,0,1,.318.1l.435.389a.413.413,0,0,1,.09.492l-.257.484a1.248,1.248,0,0,0,.608-.143l13.764-7.509a1.228,1.228,0,0,0,.007-2.163l-.235-.13a1.268,1.268,0,0,0-.608-.157,1.22,1.22,0,0,0-.594.15L60.507,96.021a1.234,1.234,0,0,0-.373,1.877Z" transform="translate(11.756 17.461)" fill="#0b0b0b"></path><path id="Path_2437" data-name="Path 2437" d="M65.816,95.824l-.821-.1a2.2,2.2,0,0,0-1.928-2.566l.118-.812a3.006,3.006,0,0,1,2.632,3.474" transform="translate(12.561 18.394)" fill="#0b0b0b"></path><path id="Path_2438" data-name="Path 2438" d="M70.2,93.536l-.821-.1a2.2,2.2,0,0,0-1.928-2.566l.118-.812A3.011,3.011,0,0,1,70.2,93.536" transform="translate(13.435 17.938)" fill="#0b0b0b"></path><path id="Path_2439" data-name="Path 2439" d="M83.154,83.672,97.07,76.279a1.675,1.675,0,0,1,1.6.014l.235.13a1.638,1.638,0,0,1,0,2.88L85.137,86.812a1.675,1.675,0,0,1-1.423.076l.5-.956-.435-.389-.733.976a1.635,1.635,0,0,1,.11-2.834Z" transform="translate(16.388 15.154)" fill="#d8c7ff"></path><path id="Path_2440" data-name="Path 2440" d="M83.023,83.385,96.94,75.992a2.092,2.092,0,0,1,2,.014l.235.13a2.036,2.036,0,0,1,1.072,1.8,2.014,2.014,0,0,1-1.078,1.8L85.4,87.241a2.067,2.067,0,0,1-.982.246,2.214,2.214,0,0,1-.8-.157.4.4,0,0,1-.235-.239.445.445,0,0,1-.02-.192.421.421,0,0,1-.477.022,2.045,2.045,0,0,1,.132-3.544Zm.022,2.594.463-.621a.407.407,0,0,1,.29-.164.418.418,0,0,1,.318.1l.435.389a.414.414,0,0,1,.09.492l-.249.484a1.219,1.219,0,0,0,.608-.15l13.764-7.5a1.214,1.214,0,0,0,.65-1.078,1.233,1.233,0,0,0-.643-1.085l-.235-.13a1.269,1.269,0,0,0-.608-.157,1.219,1.219,0,0,0-.594.15L83.418,84.1a1.225,1.225,0,0,0-.373,1.87Z" transform="translate(16.317 15.087)" fill="#0b0b0b"></path><path id="Path_2441" data-name="Path 2441" d="M88.726,83.906l-.823-.1a2.205,2.205,0,0,0-1.927-2.567l.118-.812A3.011,3.011,0,0,1,88.726,83.9Z" transform="translate(17.124 16.019)" fill="#0b0b0b"></path><path id="Path_2442" data-name="Path 2442" d="M93.111,81.611l-.821-.1a2.2,2.2,0,0,0-1.928-2.566l.118-.812a3.006,3.006,0,0,1,2.632,3.474" transform="translate(17.998 15.563)" fill="#0b0b0b"></path><g id="Group_628" data-name="Group 628" transform="translate(10.026 68.213)" opacity="0.4"><g id="Group_627" data-name="Group 627"><g id="Group_626" data-name="Group 626" clip-path="url(#clip-path-4)"><path id="Path_2443" data-name="Path 2443" d="M62.471,108.228,8.361,79.743V56.883l54.11,28.75Z" transform="translate(-8.361 -56.883)" fill="#0b0b0b"></path></g></g></g><path id="Path_2444" data-name="Path 2444" d="M35.757,40.655c10.116,3.583,17.019,15.112,15.408,25.761S40.055,82.784,29.939,79.207,12.92,64.1,14.531,53.446s11.11-16.369,21.227-12.792" transform="translate(2.848 7.885)" fill="#fff"></path><path id="Path_2445" data-name="Path 2445" d="M21.91,41.372A16.409,16.409,0,0,1,35.964,40.34c10.273,3.638,17.309,15.393,15.678,26.206a16.451,16.451,0,0,1-7.725,12.082,15.419,15.419,0,0,1-7.9,2.13,18.286,18.286,0,0,1-6.149-1.1c-10.276-3.638-17.309-15.393-15.678-26.2A16.44,16.44,0,0,1,21.91,41.372m8.236,37.515a15.607,15.607,0,0,0,13.35-.963,15.668,15.668,0,0,0,7.329-11.5c1.576-10.444-5.216-21.8-15.138-25.31a17.651,17.651,0,0,0-5.866-1.044,14.577,14.577,0,0,0-7.483,2.013,15.661,15.661,0,0,0-7.332,11.5c-1.576,10.444,5.218,21.8,15.14,25.311Z" transform="translate(2.779 7.816)" fill="#0b0b0b"></path><path id="Path_2446" data-name="Path 2446" d="M26.781,61.236l.516-.325.381.392L38.5,50.788l2.565,2.588L28.252,65.829l0,0a1.818,1.818,0,0,1-1.425.5h0a1.725,1.725,0,0,1-.392-.079,1.845,1.845,0,0,1-.935-.663l-5.551-7.526,2.938-2.112Z" transform="translate(3.972 10.116)" fill="#d7ff65"></path><path id="Path_2447" data-name="Path 2447" d="M26.781,61.236l.516-.325.381.392L38.5,50.788l2.565,2.588L28.252,65.829l0,0a1.818,1.818,0,0,1-1.425.5h0a1.725,1.725,0,0,1-.392-.079,1.845,1.845,0,0,1-.935-.663l-5.551-7.526,2.938-2.112Z" transform="translate(3.972 10.116)" fill="none" stroke="#0b0b0b" stroke-width="1"></path><rect id="Rectangle_561" data-name="Rectangle 561" width="0.829" height="31.481" transform="translate(9.611 59.591)" fill="#0b0b0b"></rect><rect id="Rectangle_562" data-name="Rectangle 562" width="0.829" height="14.833" transform="translate(63.874 105.201)" fill="#0b0b0b"></rect><path id="Path_2448" data-name="Path 2448" d="M98.336,30.121l-.408.71a24.059,24.059,0,0,0-13.709-2.089l-.11-.812a24.386,24.386,0,0,1,14.227,2.191" transform="translate(16.752 5.518)" fill="#0b0b0b"></path><path id="Path_2449" data-name="Path 2449" d="M101.917,87.265l.8.223L88.428,137.36l-.8-.223Z" transform="translate(17.454 17.381)" fill="#0b0b0b"></path><path id="Path_2450" data-name="Path 2450" d="M71.517,103.012,116,120.893l-.312.759L71.2,103.77Z" transform="translate(14.182 20.517)" fill="#0b0b0b"></path><path id="Path_2451" data-name="Path 2451" d="M93.6,108.812a3.645,3.645,0,1,1-3.69,3.644,3.666,3.666,0,0,1,3.69-3.644" transform="translate(17.908 21.673)" fill="#b5fdea"></path><path id="Path_2452" data-name="Path 2452" d="M93.671,108.47a4.055,4.055,0,1,1-4.1,4.054,4.079,4.079,0,0,1,4.1-4.054m0,7.29a3.236,3.236,0,1,0-3.276-3.235,3.263,3.263,0,0,0,3.276,3.235" transform="translate(17.839 21.605)" fill="#0b0b0b"></path><path id="Path_2453" data-name="Path 2453" d="M77.958,88.738a5.286,5.286,0,0,1-3.084-6.73l10.193-28.03a5.124,5.124,0,0,1,6.641-3.048l47.967,18.148a5.286,5.286,0,0,1,3.083,6.73l-10.2,28.032a5.125,5.125,0,0,1-6.642,3.048L77.951,88.741Z" transform="translate(14.85 10.077)" fill="#d7ff65"></path><path id="Path_2454" data-name="Path 2454" d="M77.881,89.194a5.622,5.622,0,0,1-3.148-2.955l-.006-.013a5.668,5.668,0,0,1-.176-4.3l10.2-28.031a5.53,5.53,0,0,1,7.17-3.289L139.885,68.75a5.659,5.659,0,0,1,3.15,2.946l0,.012a5.645,5.645,0,0,1,.177,4.3L133.026,104.04a5.536,5.536,0,0,1-7.17,3.289L77.889,89.182Zm54.361,14.558,10.193-28.028a4.869,4.869,0,0,0-2.84-6.2L91.628,51.381a4.724,4.724,0,0,0-6.115,2.807L75.316,82.22a4.864,4.864,0,0,0,2.84,6.195l47.966,18.148a4.724,4.724,0,0,0,6.115-2.808Z" transform="translate(14.781 10.006)" fill="#0b0b0b"></path><path id="Path_2455" data-name="Path 2455" d="M108.146,87.476a7.368,7.368,0,0,1-7.426-2.817L83.659,61.81a7.444,7.444,0,0,1-1.046-7.015l.544-1.5.771.294-.544,1.5a6.591,6.591,0,0,0,.926,6.226l17.061,22.849a6.561,6.561,0,0,0,6.594,2.505l27.64-5.942a6.429,6.429,0,0,0,4.7-4.106l.064-.173.771.293-.064.174a7.218,7.218,0,0,1-5.286,4.625l-27.639,5.942Z" transform="translate(16.365 10.614)" fill="#0b0b0b"></path><path id="Path_2456" data-name="Path 2456" d="M76.093,73.408l14.68-7.328.369.742L76.462,74.15Z" transform="translate(15.156 13.161)" fill="#0b0b0b"></path><path id="Path_2457" data-name="Path 2457" d="M118.8,78.165l.757-.315L126,93.179l-.757.315Z" transform="translate(23.663 15.506)" fill="#0b0b0b"></path><path id="Path_2458" data-name="Path 2458" d="M111.552,93.359l2.006-5.521,8.97,3.395-2.006,5.521Z" transform="translate(22.218 17.495)" fill="#fff"></path><path id="Path_2459" data-name="Path 2459" d="M115.767,91.336a2.435,2.435,0,0,1-1.224-.976,1.634,1.634,0,0,0-.848-.692,1.58,1.58,0,0,0-1.083-.037,2.359,2.359,0,0,1-1.548-.076,2.438,2.438,0,0,1-1.226-.975,1.655,1.655,0,0,0-.848-.692,1.628,1.628,0,0,0-1.085-.044,2.4,2.4,0,0,1-1.554-.072l.283-.776a1.629,1.629,0,0,0,1.085.044,2.409,2.409,0,0,1,1.549.074,2.442,2.442,0,0,1,1.224.976,1.671,1.671,0,0,0,.848.692,1.629,1.629,0,0,0,1.085.044,2.369,2.369,0,0,1,1.549.074,2.447,2.447,0,0,1,1.224.976,1.6,1.6,0,0,0,.845.686,1.576,1.576,0,0,0,1.082.037,2.362,2.362,0,0,1,1.549.076l-.284.776a1.57,1.57,0,0,0-1.082-.038,2.363,2.363,0,0,1-1.549-.076Z" transform="translate(21.183 17.318)" fill="#0b0b0b"></path><path id="Path_2460" data-name="Path 2460" d="M115.167,92.986a2.487,2.487,0,0,1-1.224-.975,1.618,1.618,0,0,0-.848-.692,1.57,1.57,0,0,0-1.082-.038,2.363,2.363,0,0,1-1.549-.076,2.444,2.444,0,0,1-1.226-.975,1.655,1.655,0,0,0-.848-.692,1.625,1.625,0,0,0-1.084-.044,2.363,2.363,0,0,1-1.549-.076l.284-.775a1.617,1.617,0,0,0,1.084.043,2.411,2.411,0,0,1,1.549.076,2.436,2.436,0,0,1,1.224.976,1.671,1.671,0,0,0,.848.692,1.579,1.579,0,0,0,1.083.037,2.363,2.363,0,0,1,1.549.076,2.44,2.44,0,0,1,1.224.975,1.6,1.6,0,0,0,.845.686,1.577,1.577,0,0,0,1.082.038,2.4,2.4,0,0,1,1.549.074l-.284.776a1.569,1.569,0,0,0-1.082-.037,2.37,2.37,0,0,1-1.549-.076Z" transform="translate(21.064 17.646)" fill="#0b0b0b"></path></g></g></g></svg>