<svg xmlns="http://www.w3.org/2000/svg" xmlns:xlink="http://www.w3.org/1999/xlink" id="Layer_1" x="0px" y="0px" viewBox="0 0 1606 444" style="enable-background:new 0 0 1606 444;" xml:space="preserve"><style type="text/css">	.st0{fill:#8D8C8E;}	.st1{fill:#FFFFFF;}	.st2{fill-rule:evenodd;clip-rule:evenodd;fill:#FFFFFF;}</style><g>	<g id="wordmark-copy_00000055672200663940355160000004509889413771870377_" transform="translate(407.000000, 202.000000)">		<polygon id="Path-Copy_00000061433223436080130480000004829917217042021549_" class="st0" points="109,142.6 109,56 75.2,122.2     58.1,122.2 23.5,56 23.5,142.6 0,142.6 0,1.4 22.1,1.4 66.9,90.6 110.8,1.4 132.3,1.4 132.3,142.6   "></polygon>		<path id="Shape-Copy_00000059299709997883961330000012120964792571436451_" class="st0" d="M215.9,142.7v-8.6    c-14.9,7.2-24.1,9.6-32.3,9.6c-20.5,0-32.5-12.7-32.5-31.5c0-22.3,24.7-30.7,37.6-30.7h27.2V76c0-11.6-11.6-16-23.1-16    c-6.8,0-14.7,0.8-24.7,9l-11.6-14.9c14.1-11.3,25.4-13.7,37-13.7c26.4,0,44.2,13.3,44.2,38.5v63.9H215.9z M215.9,99.5h-23.7    c-5.7,0-18.8,1.2-18.8,12.7c0,7.6,6.1,12.1,14.9,12.1c10.4,0,21.1-5.3,27.6-9.2L215.9,99.5z"></path>		<path id="Path-Copy-2_00000091014179164962129910000013173092691841615549_" class="st0" d="M316.1,66.8c-4-3.7-9.3-5.7-14.7-5.7    c-5.5,0-14.7,5.5-22.7,11.5v70.4H257V41.4h21.7v9.2c13.9-8.4,18-10.2,25.2-10.2c8.8-0.2,17.4,3.1,23.9,9L316.1,66.8z"></path>		<path id="Shape-Copy-2_00000106842325870840507830000018391177413739632823_" class="st0" d="M348.4,25.3    c-3.3,0.1-6.5-1.2-8.8-3.5c-2.3-2.3-3.7-5.5-3.7-8.8c-0.2-4.6,2.1-8.9,6-11.2s8.8-2.3,12.7,0c3.9,2.3,6.2,6.7,6,11.2    C360.6,19.7,355.2,25.2,348.4,25.3z M337.6,142.9V41.4h21.7v101.5L337.6,142.9z"></path>		<path id="Path-Copy-3_00000039113937451492293110000009545711647445683884_" class="st0" d="M467.4,77.4v65.4h-21.9V79.7    c0-13.7-6.7-18.4-15.5-18.2c-7.2,0-16.6,4.7-27,11.1v70.4h-21.7V41.4H403v9.2c15.7-8.8,22.3-10.2,29.5-10.2    C452.9,40.4,467.4,55.1,467.4,77.4z"></path>		<path id="Shape-Copy-3_00000108306364911316218170000009823133429763827356_" class="st0" d="M505.2,99.5v5.9    c0,13.7,12.1,18.6,22.1,18.6c8.9-0.3,17.4-3.7,24.1-9.6l12.3,13.9c-11.2,12.1-23.7,15.5-36.6,15.5c-20.5,0-43.8-11.9-43.8-36.4    v-30c0-24.5,22.9-37,43.1-37c20.9,0,43.1,12.1,43.1,36.6v22.3H505.2z M526.5,60.5c-9,0-21.3,5.3-21.3,17.6v5.1h42.3l0.2-3.3    C548.4,65.8,536.3,60.5,526.5,60.5z"></path>		<polygon id="Path-Copy-4_00000089563041653981256170000009132587679712608439_" class="st0" points="623.3,22.7 623.3,142.6     599.8,142.6 599.8,22.7 560.8,22.7 560.8,1.4 662.2,1.4 662.2,22.7   "></polygon>		<path id="Path-Copy-5_00000117638372421367567210000018182759829169263530_" class="st0" d="M721.8,66.8c-4-3.7-9.3-5.7-14.7-5.7    c-5.5,0-14.7,5.5-22.7,11.5v70.4h-21.7V41.4h21.7v9.2c13.9-8.4,18-10.2,25.2-10.2c8.8-0.2,17.4,3.1,23.9,9L721.8,66.8z"></path>		<path id="Shape-Copy-4_00000040538936914423943360000006439099972912570780_" class="st0" d="M801.4,142.7v-8.6    c-14.9,7.2-24.1,9.6-32.3,9.6c-20.4,0-32.5-12.7-32.5-31.5c0-22.3,24.7-30.7,37.6-30.7h27.2V76c0-11.6-11.6-16-23.1-16    c-6.7,0-14.7,0.8-24.7,9l-11.6-14.9c14.1-11.3,25.4-13.7,37-13.7c26.4,0,44.2,13.3,44.2,38.5v63.9H801.4z M801.4,99.5h-23.7    c-5.7,0-18.8,1.2-18.8,12.7c0,7.6,6.1,12.1,14.9,12.1c10.4,0,21.1-5.3,27.6-9.2L801.4,99.5z"></path>		<path id="Path-Copy-6_00000021080675862304972140000014497587659967085960_" class="st0" d="M872.1,60.5v82.4h-21.7V60.5h-12.6    v-19h12.7v-6.1c0-22.9,16.5-34.8,34.5-34.8h12.1v19.6h-8.7c-9.6,0-16.2,5.7-16.2,18v3.3h24.9v19H872.1z"></path>		<path id="Path-Copy-7_00000129911128964767636700000011703524281044471437_" class="st0" d="M937.9,60.5v82.4h-21.7V60.5h-12.7    v-19h12.7v-6.1c0-22.9,16.5-34.8,34.5-34.8h12.1v19.6h-8.7c-9.6,0-16.2,5.7-16.2,18v3.3H963v19H937.9z"></path>		<path id="Shape-Copy-5_00000062173707178601585970000015664315054341032333_" class="st0" d="M990.9,25.3    c-3.3,0.1-6.5-1.2-8.8-3.5c-2.3-2.3-3.7-5.5-3.7-8.8c-0.2-4.6,2.1-8.9,6-11.2s8.8-2.3,12.7,0c3.9,2.3,6.2,6.7,6,11.2    C1003.1,19.7,997.7,25.2,990.9,25.3z M980.1,142.9V41.4h21.7v101.5L980.1,142.9z"></path>		<path id="Path-Copy-8_00000125566984592892918530000018357921565171278519_" class="st0" d="M1105,54.7l-12.8,15.8    c-8.7-8.8-17-10-22.5-10c-9.8,0-21.3,5.5-21.3,20.9V103c0,15.3,11.5,20.9,21.3,20.9c7.9,0,15.5-3.1,21.1-8.7l13.7,14.7    c-10.4,10.8-22.5,14.1-34.8,14.1c-20.6,0-42.9-12.1-42.9-36.2v-31c0-23.7,22.7-36.4,42.9-36.4C1081.9,40.4,1095.2,44.3,1105,54.7z    "></path>	</g>	<path id="Path-Copy-13_00000170242478943590474540000016875339552148424331_" class="st0" d="M231,98v56.1h-48l20.1-54.8   c0.3-0.8,1.1-1.3,1.9-1.3H231L231,98z"></path>	<path id="Path-Copy-15_00000070807751491360550560000001681341127083839109_" class="st0" d="M231,98v56.1h48l-20.1-54.8   c-0.3-0.8-1.1-1.3-1.9-1.3H231L231,98z"></path>	<polygon id="Path_00000013907374690739897580000014662994881250662788_" class="st0" points="321.5,199 140.5,199 114.5,155.2    347.5,155.2  "></polygon>	<path id="Fill-1_00000009559981258614084870000009339238186164082847_" class="st0" d="M231,170.3c0,0-127.1,33.2-131.9,34.5   c-0.1,0-0.1-0.1-0.2,0c0,0.1-0.1,0.2-0.1,0.4c39.1,24.3,53.9,120.3,54.7,134.8c0,0.5,0.1,1,0.3,1.1c0.3,0.2,0.6,0.2,1.1,0.3   c35.4,3.6,62,4.6,72.9,4.7h3.3V170.3z"></path>	<path id="Fill-1-Copy_00000109010494707308824250000004730184333548357799_" class="st0" d="M231,170.3c0,0,127.1,33.2,131.9,34.5   c0.1,0,0.1-0.1,0.2,0c0,0.1,0.1,0.2,0.1,0.4c-39.1,24.3-53.9,120.3-54.7,134.8c0,0.5-0.1,1-0.3,1.1c-0.3,0.2-0.6,0.2-1.1,0.3   c-35.4,3.6-62,4.6-72.9,4.7H231V170.3z"></path>	<path id="Path_00000151517395006122410460000013593571794890732947_" class="st1" d="M198.2,221.5c0.9-3.4-2.7-7.3-7.9-8.7   s-10.3,0.2-11.2,3.6s2.7,7.3,7.9,8.7C192.2,226.5,197.3,224.9,198.2,221.5z"></path>	<path id="Path-Copy-14_00000155838145821298177990000005122724922300153237_" class="st1" d="M263.8,221.5   c-0.9-3.4,2.7-7.3,7.9-8.7s10.3,0.2,11.2,3.6c0.9,3.4-2.7,7.3-7.9,8.7C269.8,226.5,264.7,224.9,263.8,221.5z"></path>	<path id="Shape_00000015316083674657493470000011852805748766879678_" class="st2" d="M347.5,152.1H232V98h-2v24.6l-27.6,29.5   h-87.9c-0.7,0-0.7,1,0,3.1h233C348.2,153.1,348.2,152.1,347.5,152.1z M230,152.1h-4.4l4.4-4.7V152.1z M230,145.4l-6.2,6.7h-5.1   l11.3-12.2V145.4z M230,137.9l-13.3,14.2h-5.2l18.5-19.8V137.9z M230,130.3l-20.4,21.8h-5.3l25.8-27.5V130.3z"></path>	<path id="Path_00000154427020412147220170000006179070807296359077_" class="st2" d="M363.2,205.2c-53.6-9-115-26.9-125.8-30.6   C235,173.7,233,346,233,346H229c0,0,0-2.8-0.1-7.6l-5.8,7.5c-1.2,0-2.4-0.1-3.8-0.1l9.5-12.4c0-3.5-0.1-7.6-0.2-12.2l-18.6,24.2   l-3.7-0.2l22.2-28.9c-0.1-4.3-0.1-8.9-0.2-13.7l-32.5,42.1l-3.7-0.2l36.2-46.8c-0.1-4.6-0.1-9.4-0.2-14.3l-46.2,60.4l-3.6-0.3   l49.8-65c-0.8-48.1-2-104.3-3.4-103.8c-10.8,3.7-72.2,21.6-125.8,30.6c-1.1-2-1.3-2.9,1.3-3.4c8.4-1.6,44.7-9.7,55.8-13   c11.1-3.2,56.6-15.9,67.4-21.4c2-1,3.3-4.1,7.7-3.9c4.4-0.1,5.6,2.9,7.7,3.9c10.8,5.5,56.3,18.2,67.4,21.4   c11.1,3.2,47.4,11.4,55.8,13C364.5,202.2,364.3,203.1,363.2,205.2z"></path></g></svg>