<svg xmlns="http://www.w3.org/2000/svg" xmlns:xlink="http://www.w3.org/1999/xlink" id="Layer_1" x="0px" y="0px" viewBox="0 0 271.5 70.2" style="enable-background:new 0 0 271.5 70.2;" xml:space="preserve"><style type="text/css">	.st0{fill:#8D8C8E;}</style><g>	<path class="st0" d="M117.2,39.7h15.2l-8-13l-14.8,23.4l-6.7,0l18-28.2c0.8-1.1,2.1-1.8,3.5-1.8c1.4,0,2.7,0.7,3.5,1.8l18,28.2   l-6.7,0L136,45h-15.4L117.2,39.7L117.2,39.7z M187.1,45V20.5h-5.7v26.8c0,0.7,0.3,1.5,0.8,2c0.6,0.6,1.3,0.9,2.1,0.9h26l3.4-5.2   H187.1L187.1,45z M92.6,40.6c5.5,0,10-4.5,10-10c0-5.5-4.5-10-10-10h-25v29.7h5.7V25.8h18.9c2.7,0,4.8,2.1,4.8,4.8   c0,2.7-2.1,4.8-4.8,4.8l-16.1,0l17,14.8h8.3L90,40.6L92.6,40.6L92.6,40.6z M32.5,50.2c-8.2,0-14.8-6.6-14.8-14.8   c0-8.2,6.6-14.8,14.8-14.8h17.3c8.2,0,14.8,6.6,14.8,14.8c0,8.2-6.6,14.8-14.8,14.8L32.5,50.2L32.5,50.2z M49.4,45   c5.3,0,9.6-4.3,9.6-9.6c0-5.3-4.3-9.6-9.6-9.6l-16.5,0c-5.3,0-9.6,4.3-9.6,9.6c0,5.3,4.3,9.6,9.6,9.6H49.4L49.4,45z M157.8,50.2   c-8.2,0-14.8-6.6-14.8-14.8c0-8.2,6.7-14.8,14.8-14.8h20.5l-3.4,5.2l-16.8,0c-5.3,0-9.6,4.3-9.6,9.6c0,5.3,4.3,9.6,9.6,9.6h20.6   l-3.4,5.2H157.8L157.8,50.2z M227.6,45c-4.4,0-8.1-3-9.2-7h24.4l3.4-5.2l-27.8,0c1.1-4,4.8-7,9.2-7l16.7,0l3.4-5.2h-20.5   c-8.2,0-14.8,6.6-14.8,14.8c0,8.2,6.7,14.8,14.8,14.8h17.6l3.4-5.2H227.6L227.6,45z"></path>	<path class="st0" d="M250.8,23.7c0-1.4,1.2-2.6,2.6-2.6c1.4,0,2.6,1.2,2.6,2.6c0,1.5-1.2,2.6-2.6,2.6   C252,26.3,250.8,25.1,250.8,23.7L250.8,23.7z M253.4,27c1.8,0,3.3-1.5,3.3-3.3c0-1.8-1.5-3.3-3.3-3.3c-1.8,0-3.3,1.5-3.3,3.3   C250.1,25.5,251.6,27,253.4,27L253.4,27z M253.1,21.7c0.5,0,0.7,0,1,0.1c0.7,0.2,0.7,0.8,0.7,1c0,0,0,0.2,0,0.3   c0,0.1-0.1,0.4-0.5,0.6c0,0-0.1,0-0.2,0.1l0.9,1.6h-0.8l-0.8-1.4h-0.5v1.4h-0.7v-3.7H253.1L253.1,21.7z M253.4,23.4   c0.2,0,0.5,0,0.6-0.2c0.1-0.1,0.1-0.2,0.1-0.3c0-0.2-0.1-0.4-0.3-0.5c-0.2-0.1-0.3-0.1-0.7-0.1h-0.2v1.1H253.4L253.4,23.4z"></path></g></svg>