<svg xmlns="http://www.w3.org/2000/svg" xmlns:xlink="http://www.w3.org/1999/xlink" id="Layer_1" x="0px" y="0px" viewBox="0 0 512 117" style="enable-background:new 0 0 512 117;" xml:space="preserve"><style type="text/css">	.st0{fill:#8D8C8E;}</style><g>	<path class="st0" d="M80.2,0.3h16.3v17.2H80.2V0.3z"></path>	<path class="st0" d="M366,0.3h16.3v17.2H366V0.3z"></path>	<path class="st0" d="M44.1,23.6c-10.3,0-16.2,4.6-19.1,7.8c-0.3-2.7-2.2-6.3-9.2-6.3H0.4v16.1h6.3c1.1,0,1.4,0.3,1.4,1.4V116h18.3   V88.5c0-0.7,0-1.4,0-2.1c2.9,2.6,8.3,6.2,16.9,6.2c17.9,0,30.4-14.2,30.4-34.5C73.7,37.5,61.8,23.6,44.1,23.6 M40.4,76.7   c-9.9,0-14.3-9.4-14.3-18.2c0-13.8,7.5-18.7,14.6-18.7c8.6,0,14.5,7.5,14.5,18.6C55.1,71.1,47.7,76.7,40.4,76.7"></path>	<path class="st0" d="M97.8,73.8V34.9c0-6.6-3.2-9.8-9.7-9.8H71.8v16.1h6.3c1.1,0,1.4,0.3,1.4,1.4v38.8c0,6.7,3.1,9.8,9.6,9.8h16.4   V75.2h-6.3C98.2,75.2,97.8,74.8,97.8,73.8"></path>	<path class="st0" d="M145.6,23.6c-10.3,0-16.2,4.6-19.1,7.8c-0.3-2.7-2.1-6.3-9.2-6.3h-15.4v16.1h6.3c1.1,0,1.4,0.3,1.4,1.4V116   h18.3V88.5c0-0.7,0-1.4,0-2.1c2.8,2.6,8.3,6.2,16.9,6.2c17.9,0,30.4-14.2,30.4-34.5C175.2,37.5,163.3,23.6,145.6,23.6 M141.9,76.7   c-9.8,0-14.3-9.4-14.3-18.2c0-13.8,7.5-18.7,14.6-18.7c8.6,0,14.5,7.5,14.5,18.6C156.6,71.1,149.2,76.7,141.9,76.7"></path>	<path class="st0" d="M208.9,23.6c-19.7,0-33.5,14.2-33.5,34.5c0,20,14.9,34.5,35.4,34.5c16.1,0,26-9.5,26.4-10l0.7-0.7l-8-13.2   l-1.2,1.1c-0.1,0.1-7.3,6.7-16.9,6.7c-9.2,0-15.9-5.6-17.5-14.4h43.4l0.1-1.2c0-0.2,0.4-4.1,0.4-6   C238.3,36.3,226.5,23.6,208.9,23.6 M195.1,48.6c2-6.5,7-10.2,13.8-10.2c5.5,0,9.8,4.2,10.5,10.2H195.1"></path>	<path class="st0" d="M304.9,73.8V10.1c0-6.6-3.2-9.8-9.8-9.8h-16.4v16.1h6.3c1.1,0,1.4,0.3,1.4,1.4v11.5c-2.7-2.4-8-5.6-17.1-5.6   c-17.8,0-30.2,14.2-30.2,34.5c0,20.6,11.9,34.5,29.5,34.5c10.1,0,15.9-4.7,18.8-8c0.4,2.8,2.2,6.5,9.1,6.5h15.9V75.2h-6.2   C305.3,75.2,304.9,74.8,304.9,73.8 M272.3,76.7c-8.7,0-14.3-7.3-14.3-18.6c0-11,5.9-18.3,14.6-18.3c9.9,0,14.3,9.1,14.3,18.2   C286.8,71.8,279.3,76.7,272.3,76.7"></path>	<path class="st0" d="M353.3,24.3c-7.6,0-14.6,4.4-18.8,11.4v-1.5c0-6-3.3-9-9.8-9H309v16.1h6.3c1.1,0,1.4,0.3,1.4,1.4v48.5H335   V64.7c0-3.5,0.4-6.8,1.3-9.9c2.8-9.1,10.1-12.4,16-12.4c2.1,0,3.6,0.2,3.7,0.2l1.5,0.2V24.7l-1.1-0.2   C356.3,24.5,354.8,24.3,353.3,24.3"></path>	<path class="st0" d="M383.6,73.8V34.9c0-6.6-3.2-9.8-9.6-9.8h-14.8v16.1h4.7c1.1,0,1.4,0.3,1.4,1.4v38.8c0,6.7,3.1,9.8,9.7,9.8   h16.4V75.2H385C384,75.2,383.6,74.8,383.6,73.8"></path>	<path class="st0" d="M452.4,41.2V25.1h-9.8c-5.7,0-8.8,2-10.6,6.8l-11.9,33.3c-0.4,1.2-0.8,2.6-1.1,4c-0.3-1.3-0.8-2.7-1.2-4   L405.8,32c-1.8-4.9-4.8-6.8-10.6-6.8h-10.4v16.1h2.7c1.4,0,1.9,0.5,2.2,1.4l18.5,48.6h20.6l18.5-48.6c0.3-0.9,0.8-1.4,2.2-1.4   H452.4"></path>	<path class="st0" d="M511.2,61c0-0.2,0.4-4.1,0.4-6c0-18.8-11.8-31.4-29.4-31.4c-19.7,0-33.5,14.2-33.5,34.5   c0,20,14.9,34.5,35.4,34.5c16.1,0,26-9.5,26.4-10l0.7-0.7l-8-13.2l-1.2,1.1c-0.1,0.1-7.3,6.7-16.9,6.7c-9.2,0-15.9-5.6-17.5-14.4   h43.4L511.2,61L511.2,61z M468.3,48.6c2-6.5,7-10.2,13.8-10.2c5.5,0,9.8,4.2,10.5,10.2H468.3L468.3,48.6z"></path></g></svg>