<svg xmlns="http://www.w3.org/2000/svg" width="110.368" height="73.746" viewBox="0 0 110.368 73.746"><g id="quotes" transform="translate(-2568.769 -2149.81)"><path id="yellow-quotes" d="M88.135,1.681a72.34,72.34,0,0,0-2.814,7.2,35.52,35.52,0,0,0-1.279,7.2,15.215,15.215,0,0,0,1.279,6.243,9.714,9.714,0,0,0,4.6,4.322A36.693,36.693,0,0,1,101.18,35.3a17.293,17.293,0,0,1,4.86,12.486,21.287,21.287,0,0,1-1.79,8.644,21.825,21.825,0,0,1-5.116,7.2,22.6,22.6,0,0,1-7.418,4.562,25.312,25.312,0,0,1-9.208,1.681,22.546,22.546,0,0,1-16.37-6.483,22.9,22.9,0,0,1-7.162-15.608,38.372,38.372,0,0,1,2.558-17.769,72.4,72.4,0,0,1,8.185-14.647A65.522,65.522,0,0,1,79.182,5.283,75.488,75.488,0,0,1,85.577,0a12.747,12.747,0,0,1,1.279.72l.767.72A.757.757,0,0,0,88.135,1.681Zm-58.831,0a72.411,72.411,0,0,0-2.814,7.2,35.514,35.514,0,0,0-1.279,7.2,15.213,15.213,0,0,0,1.279,6.243,9.715,9.715,0,0,0,4.6,4.322A36.694,36.694,0,0,1,42.349,35.3a17.293,17.293,0,0,1,4.86,12.486,21.286,21.286,0,0,1-1.79,8.644,21.825,21.825,0,0,1-5.116,7.2,22.6,22.6,0,0,1-7.418,4.562,25.313,25.313,0,0,1-9.208,1.681,22.546,22.546,0,0,1-16.37-6.483A22.9,22.9,0,0,1,.144,47.783,38.371,38.371,0,0,1,2.7,30.015a72.408,72.408,0,0,1,8.185-14.647A65.522,65.522,0,0,1,20.351,5.283,75.489,75.489,0,0,1,26.746,0a12.712,12.712,0,0,1,1.279.72l.767.72A.756.756,0,0,0,29.3,1.681Z" transform="translate(2573.097 2153.682)"></path><path id="yellow-quotes-2" data-name="yellow-quotes" d="M88.135,1.681a72.34,72.34,0,0,0-2.814,7.2,35.52,35.52,0,0,0-1.279,7.2,15.215,15.215,0,0,0,1.279,6.243,9.714,9.714,0,0,0,4.6,4.322A36.693,36.693,0,0,1,101.18,35.3a17.293,17.293,0,0,1,4.86,12.486,21.287,21.287,0,0,1-1.79,8.644,21.825,21.825,0,0,1-5.116,7.2,22.6,22.6,0,0,1-7.418,4.562,25.312,25.312,0,0,1-9.208,1.681,22.546,22.546,0,0,1-16.37-6.483,22.9,22.9,0,0,1-7.162-15.608,38.372,38.372,0,0,1,2.558-17.769,72.4,72.4,0,0,1,8.185-14.647A65.522,65.522,0,0,1,79.182,5.283,75.488,75.488,0,0,1,85.577,0a12.747,12.747,0,0,1,1.279.72l.767.72A.757.757,0,0,0,88.135,1.681Zm-58.831,0a72.411,72.411,0,0,0-2.814,7.2,35.514,35.514,0,0,0-1.279,7.2,15.213,15.213,0,0,0,1.279,6.243,9.715,9.715,0,0,0,4.6,4.322A36.694,36.694,0,0,1,42.349,35.3a17.293,17.293,0,0,1,4.86,12.486,21.286,21.286,0,0,1-1.79,8.644,21.825,21.825,0,0,1-5.116,7.2,22.6,22.6,0,0,1-7.418,4.562,25.313,25.313,0,0,1-9.208,1.681,22.546,22.546,0,0,1-16.37-6.483A22.9,22.9,0,0,1,.144,47.783,38.371,38.371,0,0,1,2.7,30.015a72.408,72.408,0,0,1,8.185-14.647A65.522,65.522,0,0,1,20.351,5.283,75.489,75.489,0,0,1,26.746,0a12.712,12.712,0,0,1,1.279.72l.767.72A.756.756,0,0,0,29.3,1.681Z" transform="translate(2568.769 2149.81)" fill="#d7ff65"></path></g></svg>