<svg xmlns="http://www.w3.org/2000/svg" xmlns:xlink="http://www.w3.org/1999/xlink" id="Layer_1" x="0px" y="0px" viewBox="0 0 1670 220" style="enable-background:new 0 0 1670 220;" xml:space="preserve"><style type="text/css">	.st0{fill:#8D8C8E;}</style><g>	<path class="st0" d="M126.2,59.7c-5.5-4.4-11.5-7.9-18-10.6c-5.5-2.2-11.5-3.4-17.4-3.4c-6.2-0.3-12.3,1.5-17.4,5.1   c-2.1,1.4-3.9,3.3-5,5.6c-1.2,2.3-1.7,4.8-1.7,7.3c-0.1,3.3,1.1,6.5,3.3,9c2.5,2.6,5.5,4.7,8.8,6.2c4,1.9,8.1,3.4,12.4,4.5   c4.6,1.3,9.2,2.7,13.6,4c15.1,3.9,28.8,11.8,39.7,22.9c8.7,10.9,13.2,24.5,12.6,38.4c0.1,9.9-1.7,19.7-5.4,28.8   c-3.5,8.7-9,16.4-16.1,22.6c-7.6,6.5-16.4,11.4-26,14.3c-11,3.6-22.6,5.3-34.2,5.1c-26.9,0.1-53.3-8.1-75.3-23.6l23.8-43.3   c7.3,6.5,15.5,11.9,24.4,15.9c7.6,3.3,15.7,5,23.9,5.1c7.2,0.6,14.4-1.6,20.1-6.1c2-1.7,3.7-3.7,4.8-6.1c1.2-2.4,1.8-4.9,1.9-7.6   c0-2.8-0.5-5.6-1.6-8.1c-1.4-2.5-3.3-4.6-5.7-6.1c-3.2-2.1-6.6-3.9-10.2-5.1c-4.2-1.7-9.4-3.6-15.3-5.4c-6-1.8-14.2-4.8-21-7.3   c-6.7-2.5-12.9-6.1-18.4-10.6c-5.4-4.6-9.8-10.3-12.9-16.7c-3.6-8-5.3-16.8-5.1-25.6c-0.2-9.5,1.6-19,5.1-27.9   c3.4-8.1,8.4-15.4,14.8-21.3c6.7-6.2,14.7-10.9,23.3-13.8C61.8,2.8,72.2,1,82.6,1.1c11.1,0.1,22.2,1.5,33,4.2   c11.6,2.7,22.7,6.7,33.3,12.2l-22.4,42.1L126.2,59.7z M214.5,150.1c0,22.1,10.2,33,31.1,33c5,0.2,10-0.9,14.4-3.3   c4.4-2.4,8.1-5.9,10.7-10.2h49.4c-10.2,33.1-35.2,49.7-74.9,49.6c-11.4,0.1-22.7-1.7-33.4-5.4c-9.7-3.4-18.6-8.8-26.1-15.8   c-7.2-6.8-12.9-15.1-16.6-24.2c-4.1-10-6.1-20.8-5.9-31.6c-0.2-11.2,1.7-22.4,5.6-33c3.5-9.2,9-17.6,16.1-24.5   c7.2-7,15.8-12.3,25.2-15.8c10.7-3.7,22-5.6,33.3-5.4c11.2-0.1,22.4,1.7,33,5.4c9.3,3.4,17.7,8.9,24.7,15.9   c6.9,7.3,12.1,16,15.3,25.6c3.6,11,5.3,22.6,5.1,34.2v5.1H213.9L214.5,150.1z M274.4,120.3c-1.5-6.8-5.2-12.8-10.6-17.2   c-5.6-4.1-12.3-6.3-19.2-6.3c-6.9,0-13.6,2.2-19.2,6.3c-5.1,4.5-8.5,10.6-9.4,17.4L274.4,120.3z M330.7,69.2h50.9v26.6   c5-8.1,11.9-15,20.1-19.9c8.2-4.2,17.2-6.6,26.4-6.9h11v49.4c-6.9-3.4-14.4-5.2-22.1-5.1c-4.9-0.4-9.9,0.4-14.5,2.2   s-8.7,4.7-12.1,8.4c-6.5,8.9-9.7,19.7-8.9,30.7v59.1h-50.9V69V69.2z"></path>	<path class="st0" d="M496.1,69l34.3,74.1l35-74.1h57.1l-75.3,144.6H513L438.6,69H496.1z"></path>	<path class="st0" d="M671.7,69h-51v144.6h51V69z"></path>	<path class="st0" d="M799.1,115.7c-7.8-5.6-17.2-8.8-26.8-9c-4.6,0-9.2,0.8-13.5,2.5c-4.2,1.6-8.1,4-11.4,7.2   c-3.2,3.3-5.7,7.1-7.5,11.4c-1.8,4.5-2.8,9.4-2.8,14.3c0,4.6,0.9,9.2,2.6,13.5c1.8,4.3,4.3,8.2,7.6,11.4c3.3,3.1,7.1,5.6,11.4,7.2   c4.4,1.7,9,2.5,13.7,2.5c9.8-0.1,19.2-3.6,26.8-9.8v43.4c-11.2,5.1-23.4,7.9-35.8,8.1c-10.2,0.2-20.3-1.6-29.9-5.1   c-14.5-5.2-27-14.7-35.8-27.4c-8.8-12.6-13.4-27.6-13.3-43c-0.1-10.8,2-21.5,6.2-31.4c3.8-9.6,9.7-18.3,17.1-25.6   c7.4-7,16.1-12.5,25.6-16c10.1-3.9,20.9-5.9,31.7-5.8c11.9-0.1,23.6,2.6,34.3,7.9v43.7L799.1,115.7z"></path>	<path class="st0" d="M965.6,144.9c0.2-11.6-1.5-23.2-5.1-34.2c-3.2-9.5-8.4-18.3-15.3-25.6c-7-7-15.4-12.5-24.8-15.9   c-10.6-3.7-21.8-5.6-33-5.4c-11.3-0.1-22.6,1.7-33.3,5.4c-9.4,3.4-18,8.8-25.2,15.8c-7,7-12.5,15.3-16,24.5   c-3.9,10.4-5.7,21.4-5.6,32.5c-0.1,10.8,1.9,21.6,5.9,31.6c3.6,9,9.1,17.2,16.1,24c7.6,7,16.4,12.3,26.1,15.8   c10.7,3.7,22.1,5.6,33.4,5.4c39.8,0,64.7-16.5,74.8-49.6h-49.3c-2.6,4.3-6.3,7.8-10.7,10.2c-4.4,2.4-9.4,3.5-14.4,3.3   c-20.5,0-31.1-10.9-31.1-33h107.4L965.6,144.9z M860,120.2c0.9-6.8,4.2-13,9.4-17.4c5.6-4.1,12.3-6.3,19.2-6.3   c6.9,0,13.6,2.2,19.2,6.3c5.3,4.4,9,10.5,10.6,17.2L860,120.2z"></path>	<path class="st0" d="M1066.7,46.8v165.7h-55.2V46.8h-45.7V0h145.9v46.8H1066.7z"></path>	<path class="st0" d="M1121.6,25.5c-0.1-3.4,0.7-6.7,2-9.8c2.6-6.1,7.4-11,13.5-13.6c4.7-1.9,9.8-2.5,14.8-1.5c5,1,9.5,3.4,13.1,7   c2.3,2.3,4.1,5.1,5.4,8.1c1.4,3.1,2.1,6.5,2.1,9.9s-0.7,6.8-2.1,9.9c-1.3,3-3.1,5.8-5.4,8.1c-2.3,2.3-5.1,4.2-8.1,5.4   c-3.1,1.4-6.5,2.1-9.9,2.1c-3.4,0-6.8-0.7-9.9-2.1c-6.1-2.6-10.9-7.5-13.5-13.6C1122.3,32.3,1121.7,28.9,1121.6,25.5L1121.6,25.5z"></path>	<path class="st0" d="M620.6,26.6c0-3.4,0.6-6.7,1.9-9.8c1.3-3.1,3.2-5.8,5.6-8.1c2.3-2.4,5-4.2,8.1-5.4c4.7-2,9.8-2.5,14.8-1.5   c5,1,9.5,3.4,13.1,6.9c2.3,2.3,4.1,5.1,5.4,8.1c1.3,3.1,2,6.5,2,9.9s-0.7,6.8-2,9.9c-1.3,3-3.1,5.7-5.4,8.1   c-3.5,3.6-8.1,6.1-13.1,7.1c-5,1-10.1,0.4-14.8-1.7c-3-1.2-5.8-3.1-8.1-5.4c-2.4-2.3-4.2-5.1-5.6-8.1   C621.3,33.4,620.7,30,620.6,26.6L620.6,26.6z"></path>	<path class="st0" d="M1172.7,68h-51v144.5h51V68z"></path>	<path class="st0" d="M1256.2,110.5v102h-51v-102h-17V68h17V24.5h51V68h18.7v42.5H1256.2z"></path>	<path class="st0" d="M1398.4,68.2v14.5c-5.7-6.2-12.6-11.1-20.3-14.4s-16.1-4.8-24.5-4.6c-10.1-0.1-20.2,2-29.4,6.1   c-8.7,3.9-16.4,9.5-22.9,16.5c-6.4,7.1-11.4,15.4-14.6,24.4c-3.4,9.4-5.2,19.4-5.1,29.4c-0.2,10.5,1.8,20.9,5.6,30.7   c3.4,9.2,8.6,17.5,15.3,24.6c6.5,6.7,14.3,12.2,22.8,16c9.2,3.9,19.1,5.9,29.1,5.8c8.5,0.3,16.9-1.4,24.6-4.9   c7.7-3.6,14.4-8.9,19.6-15.5v16h51.1V68.2H1398.4z M1397.5,153.3c-1.7,3.8-4.1,7.3-7,10.2c-3.1,3-6.6,5.3-10.6,7   c-4,1.7-8.4,2.5-12.7,2.5c-4.5,0-8.9-0.8-13.1-2.5c-3.9-1.6-7.4-4-10.2-7c-6.1-6.4-9.6-14.8-9.7-23.7c-0.1-4.3,0.8-8.6,2.6-12.5   c1.7-3.8,4-7.2,6.9-10.2c2.9-3,6.3-5.4,10.2-7c4.1-1.8,8.6-2.7,13.1-2.7c4.4,0,8.7,0.9,12.7,2.7c4,1.5,7.6,3.9,10.6,7   c2.9,3.1,5.3,6.6,7,10.5c1.8,4,2.8,8.4,2.8,12.8c0.1,4.4-0.8,8.7-2.6,12.6V153.3z"></path>	<path class="st0" d="M1468.1,68.2h51.1v17.9c5.4-7.5,12.6-13.4,20.9-17.2c8-3.1,16.5-4.5,25-4.3c9-0.3,17.9,1.5,26.2,5.1   c7,3.3,13.2,8.2,18.2,14.3c4.1,4.7,7,10.3,8.4,16.4c1.8,6.5,2.8,13.3,3,20v92.1h-51.1v-72.6c0.1-5.9-0.5-11.7-1.6-17.4   c-0.6-3.5-2.1-6.8-4.4-9.5c-2.3-2.7-5.3-4.7-8.6-5.9c-2.9-1-6-1.4-9.1-1.4c-3.7-0.2-7.4,0.3-10.8,1.7c-3.4,1.3-6.5,3.4-9.1,6.1   c-4.9,6.3-7.4,14.1-6.9,22.1v76.9h-51.1L1468.1,68.2L1468.1,68.2z"></path>	<path class="st0" d="M1626.3,71c0-5.8,2.3-11.3,6.4-15.4c4.1-4.1,9.6-6.4,15.4-6.4c5.8,0,11.3,2.3,15.4,6.4   c4.1,4.1,6.4,9.6,6.4,15.4c0,5.8-2.3,11.3-6.4,15.4c-4.1,4.1-9.6,6.4-15.4,6.4c-5.8,0-11.3-2.3-15.4-6.4   C1628.6,82.3,1626.3,76.8,1626.3,71L1626.3,71z M1630.9,71c0,4.6,1.8,9,5,12.2s7.6,5,12.2,5c4.6,0,9-1.8,12.2-5s5.1-7.6,5.1-12.2   s-1.8-9-5.1-12.2c-3.2-3.2-7.6-5-12.2-5c-4.6,0-9,1.8-12.2,5C1632.7,62.1,1630.9,66.5,1630.9,71z M1652.7,73.3l6,9h-6.8l-5.1-8.6   h-1.8v8.6h-5.6v-23h10.2c1-0.1,2.1-0.1,3.1,0.2s1.9,0.8,2.7,1.5c0.8,0.7,1.4,1.5,1.8,2.5c0.4,0.9,0.6,2,0.6,3   c0,1.5-0.4,3.1-1.4,4.3C1655.5,72.1,1654.2,72.9,1652.7,73.3L1652.7,73.3z M1644.9,64.3v4.8h4.4c1.5,0,2.8-0.7,2.8-2.5   s-1.3-2.4-2.8-2.4H1644.9z"></path></g></svg>