<svg xmlns="http://www.w3.org/2000/svg" xmlns:xlink="http://www.w3.org/1999/xlink" id="Layer_1" x="0px" y="0px" viewBox="0 0 470 166" style="enable-background:new 0 0 470 166;" xml:space="preserve"><style type="text/css">	.st0{fill:#8D8C8E;}	.st1{fill:#7F7F7F;}	.st2{fill:#FFFFFF;}</style><g>	<path class="st0" d="M107.7,43.5c-0.1-0.6-0.6-1-1.1-1s-10-0.7-10-0.7s-6.6-6.6-7.4-7.3c-0.7-0.7-2.2-0.5-2.7-0.3   c-0.1,0-1.5,0.4-3.7,1.1c-2.2-6.4-6.1-12.3-13-12.3c-0.2,0-0.4,0-0.6,0c-2-2.6-4.4-3.7-6.5-3.7c-16.1,0-23.7,20.1-26.1,30.3   c-6.2,1.9-10.7,3.3-11.2,3.5c-3.5,1.1-3.6,1.2-4,4.5c-0.3,2.5-9.5,72.9-9.5,72.9l71,13.3l38.5-8.3   C121.3,135.4,107.8,44.1,107.7,43.5z M78.9,36.4c-1.8,0.6-3.8,1.2-6,1.9c0-0.4,0-0.8,0-1.3c0-4-0.6-7.2-1.4-9.7   C75,27.7,77.4,31.8,78.9,36.4z M67,28.1c1,2.5,1.6,6,1.6,10.8c0,0.2,0,0.5,0,0.7c-3.9,1.2-8.2,2.5-12.4,3.8   C58.6,34.2,63.1,29.8,67,28.1z M62.3,23.6c0.7,0,1.4,0.2,2.1,0.7c-5.1,2.4-10.7,8.5-13,20.7c-3.4,1.1-6.7,2.1-9.8,3   C44.3,38.7,50.7,23.6,62.3,23.6z"></path>	<path class="st1" d="M106.6,42.5c-0.5,0-10-0.7-10-0.7s-6.6-6.6-7.4-7.3c-0.3-0.3-0.6-0.4-1-0.5l-5.4,109.8l38.5-8.3   c0,0-13.5-91.3-13.6-91.9C107.6,42.9,107.1,42.5,106.6,42.5z"></path>	<path class="st2" d="M69.8,63.7l-4.7,14.1c0,0-4.2-2.2-9.2-2.2c-7.5,0-7.8,4.7-7.8,5.9c0,6.4,16.8,8.9,16.8,24   c0,11.9-7.5,19.5-17.7,19.5c-12.2,0-18.4-7.6-18.4-7.6l3.3-10.8c0,0,6.4,5.5,11.8,5.5c3.5,0,5-2.8,5-4.8c0-8.4-13.8-8.8-13.8-22.6   c0-11.6,8.3-22.9,25.2-22.9C66.6,61.9,69.8,63.7,69.8,63.7z"></path>	<g>		<path id="s" class="st0" d="M166.1,90.2c-3.8-2.1-5.8-3.8-5.8-6.2c0-3.1,2.7-5,7-5c5,0,9.4,2.1,9.4,2.1l3.5-10.7    c0,0-3.2-2.5-12.7-2.5c-13.2,0-22.4,7.6-22.4,18.2c0,6,4.3,10.6,10,13.9c4.6,2.6,6.2,4.5,6.2,7.2c0,2.9-2.3,5.2-6.6,5.2    c-6.4,0-12.4-3.3-12.4-3.3l-3.7,10.7c0,0,5.6,3.7,14.9,3.7c13.6,0,23.3-6.7,23.3-18.7C177,98.2,172.1,93.6,166.1,90.2z"></path>		<path id="h" class="st0" d="M220.3,67.6c-6.7,0-11.9,3.2-16,8l-0.2-0.1l5.8-30.4h-15.1l-14.7,77.3h15.1l5-26.4    c2-10,7.1-16.1,11.9-16.1c3.4,0,4.7,2.3,4.7,5.6c0,2.1-0.2,4.6-0.7,6.7l-5.7,30.3h15.1l5.9-31.2c0.7-3.3,1.1-7.2,1.1-9.9    C232.7,72.8,228.2,67.6,220.3,67.6z"></path>		<path id="o" class="st0" d="M266.9,67.6c-18.2,0-30.3,16.4-30.3,34.7c0,11.7,7.2,21.2,20.8,21.2c17.9,0,29.9-16,29.9-34.7    C287.4,77.9,281,67.6,266.9,67.6z M259.4,111.9c-5.2,0-7.3-4.4-7.3-9.9c0-8.7,4.5-22.8,12.7-22.8c5.4,0,7.1,4.6,7.1,9.1    C271.9,97.6,267.4,111.9,259.4,111.9z"></path>		<path id="p" class="st0" d="M326.1,67.6c-10.2,0-16,9-16,9h-0.2l0.9-8.1h-13.4c-0.7,5.5-1.9,13.8-3.1,20.1L283.8,144h15.1    l4.2-22.4h0.3c0,0,3.1,2,8.9,2c17.8,0,29.4-18.2,29.4-36.6C341.6,76.7,337.1,67.6,326.1,67.6z M311.6,112.1    c-3.9,0-6.2-2.2-6.2-2.2l2.5-14.1c1.8-9.4,6.7-15.7,11.9-15.7c4.6,0,6,4.3,6,8.3C325.9,98.2,320,112.1,311.6,112.1z"></path>		<path id="dot" class="st0" d="M363.2,45.9c-4.8,0-8.7,3.8-8.7,8.8c0,4.5,2.8,7.6,7.1,7.6h0.2c4.7,0,8.8-3.2,8.9-8.8    C370.8,49.1,367.8,45.9,363.2,45.9z"></path>		<polygon id="i" class="st0" points="342.1,122.4 357.2,122.4 367.5,68.8 352.3,68.8   "></polygon>		<path id="f" class="st0" d="M406,68.7h-10.5l0.5-2.5c0.9-5.2,3.9-9.8,9-9.8c2.7,0,4.8,0.8,4.8,0.8l3-11.8c0,0-2.6-1.3-8.2-1.3    c-5.4,0-10.7,1.5-14.8,5c-5.2,4.4-7.6,10.7-8.8,17.1l-0.4,2.5h-7l-2.2,11.4h7l-8,42.3h15.1l8-42.3h10.4L406,68.7z"></path>		<path id="y" class="st0" d="M442.4,68.8c0,0-9.5,23.8-13.7,36.8h-0.2c-0.3-4.2-3.7-36.8-3.7-36.8h-15.9L418,118    c0.2,1.1,0.1,1.8-0.3,2.5c-1.8,3.4-4.7,6.7-8.2,9.1c-2.8,2.1-6,3.4-8.5,4.3l4.2,12.8c3.1-0.7,9.4-3.2,14.8-8.2    c6.9-6.5,13.3-16.4,19.8-30l18.5-39.7L442.4,68.8L442.4,68.8z"></path>	</g></g></svg>