<?xml version="1.0" encoding="UTF-8"?>
<svg xmlns="http://www.w3.org/2000/svg" width="44" height="27" viewBox="0 0 44 27" fill="none">
  <path d="M39.9478 26.633C38.2216 26.633 36.8037 25.215 36.8037 23.4888C36.8037 21.7627 38.2216 20.3447 39.9478 20.3447C41.674 20.3447 43.0919 21.7627 43.0919 23.4888C43.0611 25.215 41.674 26.633 39.9478 26.633Z" fill="#000000"></path>
  <path d="M37.3278 19.3582C35.8174 20.2213 33.9063 19.6972 33.0432 18.2177L25.6453 4.99388C24.7514 3.48347 25.2754 1.54152 26.7858 0.678432C28.2654 -0.184657 30.2073 0.339361 31.0704 1.84977L38.4683 15.0735C39.3314 16.5531 38.8074 18.4951 37.3278 19.3582Z" fill="#000000"></path>
  <path d="M1.69493 26.2325C0.184524 25.3694 -0.30867 23.4275 0.55442 21.9479L12.1445 1.85021C13.0076 0.339798 14.9495 -0.153397 16.4291 0.709693C17.9395 1.57278 18.4327 3.51474 17.5696 4.99432L5.97956 25.092C5.11647 26.5716 3.17451 27.0956 1.69493 26.2325Z" fill="#000000"></path>
  <path d="M15.2262 26.2325C13.7158 25.3694 13.2226 23.4275 14.0857 21.9479L25.6449 1.85021C26.508 0.339798 28.45 -0.153397 29.9295 0.709693C31.4399 1.57278 31.9331 3.51474 31.07 4.99432L19.5108 25.092C18.6477 26.5716 16.7058 27.0956 15.2262 26.2325Z" fill="#000000"></path>
  <path d="M28.019 26.2326C26.5086 27.0957 24.5975 26.5717 23.7344 25.0921L12.1444 4.99441C11.2813 3.484 11.8053 1.57288 13.2849 0.709785C14.7953 -0.153305 16.7064 0.370714 17.5695 1.8503L29.1596 21.9171C30.0226 23.4275 29.5295 25.3695 28.019 26.2326Z" fill="#000000"></path>
</svg>
