<svg xmlns="http://www.w3.org/2000/svg" width="157" height="32" viewBox="0 0 157 32" fill="none"><g clip-path="url(#clip0_499_20916)"><path d="M123.838 19.7626V8.17767H125.653C127.416 8.17767 127.469 8.17767 127.522 8.43978C127.576 8.59704 127.683 9.06883 127.736 9.48819L127.896 10.2745L128.751 9.54061C130.299 8.17767 131.795 7.70589 133.824 7.91557C136.494 8.23009 138.363 10.0124 139.111 13.0004C139.378 13.9964 139.431 14.4682 139.431 16.0932C139.431 19.553 138.63 21.7546 136.761 23.3797C134.999 24.9523 132.596 25.4765 129.765 24.8999C129.178 24.795 128.537 24.6378 128.43 24.5853C128.217 24.4805 128.217 24.6902 128.217 27.5733C128.217 29.2508 128.163 30.6661 128.11 30.7186C128.003 30.771 127.576 30.8758 125.547 31.1379C125.119 31.1904 124.585 31.2952 124.318 31.3476L123.838 31.4525V19.7626ZM132.275 21.4925C133.397 21.1256 134.198 20.2869 134.732 18.8191C135.052 17.9279 135.052 14.9399 134.732 13.9964C134.411 13.0528 133.877 12.3713 133.076 11.952C131.795 11.2705 130.299 11.6899 128.911 13.0528L128.163 13.7867V17.4037V20.9683L128.537 21.178C129.018 21.4401 130.299 21.7022 131.047 21.7022C131.421 21.7022 131.955 21.6498 132.275 21.4925Z" fill="#8D8C8E"></path><path d="M6.56837 25.1619C3.25748 24.6901 0.961225 22.5408 0.160204 18.9762C0.0534014 18.6617 0 17.6133 0 16.6173C0 14.4681 0.213605 13.4196 1.01463 11.8994C1.97585 10.1171 3.63129 8.7542 5.60714 8.17758C6.88878 7.81063 9.50544 7.75821 10.7871 8.07273C11.5347 8.23 13.3503 9.01631 13.4571 9.22599C13.4571 9.27841 13.4571 9.64535 13.4037 10.0123C13.0833 12.1091 12.9765 12.8954 12.8697 12.9479C12.8163 13.0003 12.4425 12.7906 11.9619 12.5285C10.8939 11.8994 10.1463 11.6373 8.86463 11.5849C6.03435 11.4277 4.32551 13.21 4.32551 16.5125C4.32551 18.3996 4.75272 19.5529 5.71395 20.444C6.83537 21.4924 8.33061 21.807 10.0395 21.3876C10.9473 21.1779 11.4813 20.9158 12.3357 20.3916C12.7095 20.1819 13.0833 20.0247 13.0833 20.0771C13.1367 20.1819 13.4571 21.9118 13.6173 23.1175C13.6707 23.6417 13.6707 23.6417 13.0833 24.0086C11.5881 24.9522 8.86463 25.424 6.56837 25.1619Z" fill="#8D8C8E"></path><path d="M31.3466 25.1619C30.3319 25.0046 29.1571 24.5853 28.5163 24.1659C27.9289 23.7989 26.8075 22.7505 26.487 22.2787C26.0598 21.7021 25.5792 20.4964 25.3122 19.6577C24.9384 18.2948 24.9384 14.9923 25.3122 13.7342C26.1132 10.9559 27.9823 8.96389 30.4387 8.23C31.0796 8.02032 31.667 7.9679 32.8418 7.9679C34.2302 7.9679 34.4972 8.02032 35.3517 8.28242C37.5411 9.06873 39.0364 10.6938 39.7306 13.1575C39.9976 14.2584 40.2646 16.3028 40.1578 16.9843L40.1044 17.5085H34.7643L29.4241 17.5609L29.4775 18.1899C29.5309 19.8674 30.7058 21.3352 32.201 21.807C33.1088 22.0691 34.6041 22.0691 35.6721 21.807C36.6867 21.5449 38.3421 20.811 39.0364 20.2868C39.517 19.9198 39.7306 20.0771 39.8374 20.7585C39.8908 21.0731 39.9976 21.807 40.051 22.3312C40.2112 23.2747 40.1578 23.3272 39.8908 23.5368C39.1432 24.061 37.8615 24.6377 36.4731 25.0046C35.3517 25.2143 32.468 25.3191 31.3466 25.1619ZM35.8323 14.4681C35.8323 14.0487 35.5119 13.0003 35.2449 12.4761C34.6575 11.3752 33.803 10.851 32.5748 10.851C31.0796 10.851 29.6377 12.3712 29.4241 14.1011L29.3707 14.7302H32.5748H35.8323V14.4681Z" fill="#8D8C8E"></path><path d="M45.8718 25.1619C44.4834 24.8474 43.2551 23.8514 42.7745 22.6457C42.3473 21.5973 42.3473 19.5529 42.7745 18.5045C43.2017 17.4561 44.2697 16.3553 45.4446 15.7786C47.1534 14.9923 48.4351 14.6778 51.8527 14.1536L52.547 14.0488V13.3673C52.547 11.8995 51.6925 11.3229 49.6633 11.3229C48.2749 11.3229 47.367 11.4801 45.7116 12.0568C44.2163 12.581 44.1629 12.581 44.0561 12.0043C43.7891 10.6938 43.6289 9.33089 43.6823 9.22605C43.7891 9.01637 45.8184 8.38732 47.3136 8.0728C48.5419 7.81069 52.0663 7.81069 53.081 8.0728C55.3772 8.64943 56.5521 9.90752 56.8725 12.0043C56.9259 12.4761 56.9793 15.5165 56.9793 18.8715V24.8998H55.1636H53.2946L53.1344 24.2708C53.0276 23.9038 52.9742 23.5369 52.9742 23.3796C52.9742 23.0127 52.7072 23.0127 52.3334 23.3796C51.8527 23.9038 50.7313 24.5853 49.8235 24.8998C49.1827 25.1095 48.7021 25.2144 47.634 25.2668C46.9398 25.2144 46.1388 25.2144 45.8718 25.1619ZM50.7847 21.5973C51.1585 21.4401 51.7459 21.0731 52.0663 20.7586L52.6538 20.2344V18.4521V16.6698L51.9595 16.7746C49.8235 17.0367 47.8476 17.8755 47.2602 18.7666C46.5126 19.815 46.6728 21.0207 47.5806 21.7022C47.9544 21.9643 48.1146 21.9643 49.0225 21.9643C49.8235 21.9119 50.1973 21.807 50.7847 21.5973Z" fill="#8D8C8E"></path><path d="M77.2718 25.1619C76.2572 25.0046 74.5483 24.4804 73.5337 24.0611C72.7327 23.6941 72.7327 23.6941 72.7861 23.3272C73.1599 20.9158 73.2667 20.3392 73.3735 20.2344C73.4269 20.1819 73.8007 20.3392 74.1745 20.5489C75.7766 21.4925 77.432 21.9642 79.2476 22.0167C80.4225 22.0167 80.6895 22.0167 81.2235 21.7546C81.9177 21.44 82.2381 20.9683 82.2381 20.2868C82.2381 19.3432 81.4371 18.7666 79.1943 18.19C75.296 17.194 74.0143 16.4077 73.3201 14.6253C73.1065 14.0487 72.9997 12.1092 73.1599 11.4801C73.5337 9.90749 74.9221 8.64939 76.6844 8.12518C77.7524 7.81066 81.0633 7.75824 82.3983 8.07276C83.4664 8.33487 85.1218 8.85907 85.2286 8.96392C85.282 9.01634 85.2286 9.4357 85.1752 9.85507C85.1218 10.2744 85.015 11.0083 84.9082 11.4801C84.8548 11.9519 84.748 12.3713 84.6946 12.4237C84.6412 12.4761 84.2674 12.3713 83.947 12.214C81.9711 11.218 79.2476 10.7462 78.0728 11.2704C77.0582 11.6898 76.7912 12.7382 77.4854 13.3673C77.8592 13.7342 79.6749 14.4681 80.1021 14.4681C80.3691 14.4681 82.7187 15.202 83.3596 15.4641C85.3888 16.4077 86.2966 17.7182 86.2966 19.8674C86.2966 22.4885 84.9616 24.2183 82.3983 24.8998C81.4905 25.2143 78.3932 25.3192 77.2718 25.1619Z" fill="#8D8C8E"></path><path d="M95.4283 25.1619C94.6807 25.1095 93.2922 24.6377 92.5446 24.2708C91.5834 23.799 90.1415 22.2788 89.6075 21.178C88.8599 19.6053 88.6997 18.9239 88.6997 16.6174C88.6997 14.2584 88.8599 13.5245 89.5541 12.0568C90.5687 10.0124 92.2776 8.64943 94.6273 8.0728C95.6953 7.81069 98.3653 7.81069 99.4868 8.0728C100.341 8.28248 101.997 9.01637 102.157 9.17363C102.264 9.33089 101.73 12.7907 101.623 12.9479C101.569 13.0003 101.356 12.9479 101.196 12.7907C100.074 12.0043 98.5789 11.5326 97.2973 11.5326C94.6273 11.5326 93.0786 13.4197 93.0786 16.5649C93.0786 18.9763 94.0398 20.6013 95.9089 21.2828C97.4575 21.8594 99.5402 21.4925 101.249 20.3392L101.783 19.9723L101.89 20.2344C102.103 20.811 102.424 23.3796 102.317 23.6417C102.157 23.9563 100.715 24.5853 99.7004 24.8998C98.7392 25.1619 96.4429 25.3192 95.4283 25.1619Z" fill="#8D8C8E"></path><path d="M110.808 25.1619C109.953 25.0046 108.725 24.5853 108.191 24.2707C107.39 23.7465 106.322 22.7505 105.895 21.9642C104.773 20.1819 104.4 18.6617 104.506 16.1979C104.56 14.2584 104.72 13.4721 105.468 12.0567C106.376 10.2744 107.924 8.91147 109.847 8.28242C110.701 8.02032 111.075 7.9679 112.463 7.9679C113.852 7.9679 114.226 8.02032 115.027 8.28242C117.536 9.12115 119.245 10.9035 120.1 13.6293C120.367 14.4156 120.42 14.7826 120.42 16.6173C120.42 18.3996 120.367 18.819 120.153 19.6577C119.405 22.2787 117.643 24.1135 115.294 24.8998C114.546 25.1619 114.065 25.2143 112.89 25.2667C112.036 25.2143 111.128 25.2143 110.808 25.1619ZM113.692 21.5973C114.76 21.3352 115.828 19.9198 116.148 18.2424C116.362 17.1939 116.255 15.1495 115.934 14.1535C115.4 12.5285 114.172 11.5325 112.677 11.4277C111.716 11.3752 110.487 11.847 109.953 12.4761C109.046 13.5769 108.779 14.6253 108.779 16.6173C108.779 17.8754 108.832 18.2948 109.046 18.9762C109.847 21.3352 111.342 22.1739 113.692 21.5973Z" fill="#8D8C8E"></path><path d="M148.456 25.2144C147.548 25.1095 145.999 24.5329 145.359 24.1135C142.849 22.4361 141.727 19.7102 141.887 15.8835C141.994 14.1536 142.208 13.3673 142.902 11.8471C143.81 10.0648 145.198 8.8591 147.121 8.23005C147.922 7.96795 148.349 7.91553 149.577 7.91553C151.98 7.91553 153.369 8.43973 154.757 9.85509C156.199 11.3753 156.893 13.21 156.893 15.7786V17.3513L151.5 17.4037H146.106V17.823C146.106 18.4521 146.427 19.4481 146.854 20.1295C148.135 22.1215 151.126 22.4885 154.116 21.0731C154.65 20.811 155.398 20.4441 155.718 20.2344C156.039 20.0771 156.359 19.9199 156.413 19.9723C156.519 20.0771 156.947 23.0127 156.893 23.2224C156.786 23.4845 154.437 24.5853 153.369 24.8474C152.514 25.1619 149.524 25.3192 148.456 25.2144ZM152.781 14.6254C152.888 14.4681 152.621 13.3673 152.301 12.6334C151.98 11.8995 151.233 11.1656 150.645 11.0083C148.776 10.3793 147.014 11.6374 146.427 13.9439C146.373 14.2584 146.32 14.573 146.373 14.6778C146.427 14.7826 152.675 14.7826 152.781 14.6254Z" fill="#8D8C8E"></path><path d="M17.0884 21.807C17.035 21.7022 17.035 17.5609 17.035 12.6334C17.035 2.83072 16.9816 3.40735 17.7292 2.88314C17.8894 2.7783 18.5303 2.30651 19.1177 1.83472C19.7051 1.36294 20.4527 0.73389 20.8265 0.471786L21.4139 0V12.4237V24.8474H19.2245H17.0884V21.807Z" fill="#8D8C8E"></path><path d="M61.0377 16.5125V8.12523H62.8534C64.6156 8.12523 64.669 8.12523 64.7224 8.38734C64.7224 8.5446 64.8826 9.17365 64.9894 9.8027C65.0962 10.4317 65.203 11.0084 65.2564 11.0608C65.3098 11.1132 65.5234 10.9035 65.737 10.589C66.2176 9.90754 67.4993 8.70186 68.0867 8.38734C68.8877 7.96797 70.4364 7.65345 70.65 7.91555C70.7568 8.02039 71.184 10.6938 71.3442 11.6898C71.3442 11.8995 71.2908 11.9519 70.8102 12.0568C68.8343 12.4237 67.4459 13.1052 66.2711 14.3633L65.47 15.202V20.0247L65.4166 24.795L63.2806 24.8474H61.1445V16.5125H61.0377Z" fill="#8D8C8E"></path></g><defs><clipPath id="clip0_499_20916"><rect width="157" height="31.4" fill="#8D8C8E"></rect></clipPath></defs></svg>