<svg width="17" height="17" viewBox="0 0 17 17" fill="none" xmlns="http://www.w3.org/2000/svg">
<g clip-path="url(#clip0_2031_1781)">
<path fill-rule="evenodd" clip-rule="evenodd" d="M8.96558 1.5822C8.82571 1.44233 8.636 1.36375 8.4382 1.36375C8.24039 1.36375 8.05068 1.44233 7.91081 1.5822L1.58216 7.91085C1.44229 8.05072 1.36371 8.24042 1.36371 8.43823C1.36371 8.63604 1.44229 8.82575 1.58216 8.96562L7.91081 15.2943C8.05068 15.4341 8.24039 15.5127 8.4382 15.5127C8.636 15.5127 8.82571 15.4341 8.96558 15.2943L15.2942 8.96562C15.4341 8.82575 15.5127 8.63604 15.5127 8.43823C15.5127 8.24042 15.4341 8.05072 15.2942 7.91085L8.96558 1.5822ZM1.05477 9.49301C0.775031 9.21326 0.617873 8.83385 0.617873 8.43823C0.617873 8.04262 0.775031 7.6632 1.05477 7.38346L7.38342 1.05481C7.66316 0.775068 8.04258 0.61791 8.4382 0.61791C8.83381 0.61791 9.21323 0.775068 9.49297 1.05481L15.8216 7.38346C16.1014 7.6632 16.2585 8.04262 16.2585 8.43823C16.2585 8.83385 16.1014 9.21326 15.8216 9.49301L9.49297 15.8217C9.21323 16.1014 8.83381 16.2586 8.4382 16.2586C8.04258 16.2586 7.66316 16.1014 7.38342 15.8217L1.05477 9.49301ZM5.80126 8.06484C5.70223 8.06484 5.60726 8.10418 5.53723 8.17421C5.46721 8.24423 5.42787 8.3392 5.42787 8.43823C5.42787 8.53726 5.46721 8.63224 5.53723 8.70226C5.60726 8.77228 5.70223 8.81162 5.80126 8.81162L10.1221 8.8111L8.66233 10.2709C8.5924 10.3408 8.55311 10.4357 8.55311 10.5346C8.55311 10.6335 8.5924 10.7284 8.66233 10.7983C8.73227 10.8682 8.82712 10.9075 8.92603 10.9075C9.02493 10.9075 9.11979 10.8682 9.18972 10.7983L11.2861 8.70193C11.356 8.63199 11.3953 8.53714 11.3953 8.43823C11.3953 8.33933 11.356 8.24447 11.2861 8.17454L9.18972 6.07817C9.11979 6.00824 9.02493 5.96895 8.92603 5.96895C8.82712 5.96895 8.73227 6.00824 8.66233 6.07817C8.5924 6.14811 8.55311 6.24296 8.55311 6.34187C8.55311 6.44077 8.5924 6.53563 8.66233 6.60556L10.1221 8.06537L5.80126 8.06484Z" fill="#8B75F3"/>
</g>
<defs>
<clipPath id="clip0_2031_1781">
<rect width="11.9334" height="11.9334" fill="white" transform="translate(0 8.43823) rotate(-45)"/>
</clipPath>
</defs>
</svg>
