<svg width="18" height="18" viewBox="0 0 18 18" fill="none" xmlns="http://www.w3.org/2000/svg">
<path d="M15.9844 1.81265C16.5469 1.81265 17.0234 1.98829 17.4141 2.33958C17.8047 2.69087 18 3.11944 18 3.62529V16.1874C18 16.6932 17.8047 17.1218 17.4141 17.4731C17.0234 17.8244 16.5469 18 15.9844 18H2.01562C1.45312 18 0.976562 17.8244 0.585937 17.4731C0.195312 17.1218 0 16.6932 0 16.1874V3.62529C0 3.11944 0.195312 2.69087 0.585937 2.33958C0.976562 1.98829 1.45312 1.81265 2.01562 1.81265H3V0H5.01562V1.81265H12.9844V0H15V1.81265H15.9844ZM15.9844 16.1874V6.32318H2.01562V16.1874H15.9844Z" fill="#8B75F3"/>
</svg>
