<svg width="17" height="17" viewBox="0 0 17 17" fill="none" xmlns="http://www.w3.org/2000/svg">
<path d="M8.5 0C6.32477 0 4.14912 0.829444 2.48948 2.48915C-0.829827 5.80853 -0.829827 11.1911 2.48948 14.5104C5.80877 17.8299 11.1912 17.8299 14.5105 14.5104C17.8298 11.1911 17.8298 5.80852 14.5105 2.48915C12.8509 0.829444 10.6752 0 8.5 0ZM8.5 2.2204C10.107 2.2204 11.7145 2.83279 12.9407 4.05898C15.393 6.51135 15.393 10.4882 12.9407 12.9406C10.4884 15.393 6.51164 15.393 4.05929 12.9406C1.60695 10.4882 1.60697 6.51135 4.05929 4.05898C5.28546 2.83279 6.89296 2.2204 8.5 2.2204ZM7.63054 3.64707V7.61785H5.42989V9.79157H9.8042V3.64707H7.63054Z" fill="#8B75F3"/>
</svg>
