<svg width="17" height="17" viewBox="0 0 17 17" fill="none" xmlns="http://www.w3.org/2000/svg">
<path d="M8.5 0C6.81886 0 5.17547 0.498516 3.77766 1.43251C2.37984 2.3665 1.29037 3.69402 0.647028 5.24719C0.00368291 6.80036 -0.164645 8.50943 0.163329 10.1583C0.491303 11.8071 1.30085 13.3217 2.4896 14.5104C3.67834 15.6992 5.1929 16.5087 6.84174 16.8367C8.49057 17.1646 10.1996 16.9963 11.7528 16.353C13.306 15.7096 14.6335 14.6202 15.5675 13.2223C16.5015 11.8245 17 10.1811 17 8.5C17 7.38376 16.7801 6.27846 16.353 5.24719C15.9258 4.21592 15.2997 3.27889 14.5104 2.48959C13.7211 1.70029 12.7841 1.07419 11.7528 0.647024C10.7215 0.219859 9.61624 0 8.5 0ZM8.5 15.3C7.15509 15.3 5.84038 14.9012 4.72213 14.154C3.60387 13.4068 2.7323 12.3448 2.21762 11.1022C1.70295 9.85971 1.56828 8.49246 1.83066 7.17338C2.09304 5.85431 2.74068 4.64267 3.69168 3.69167C4.64267 2.74068 5.85432 2.09304 7.17339 1.83066C8.49246 1.56828 9.85971 1.70294 11.1022 2.21762C12.3448 2.73229 13.4068 3.60387 14.154 4.72212C14.9012 5.84038 15.3 7.15509 15.3 8.5C15.3 10.3035 14.5836 12.0331 13.3083 13.3083C12.0331 14.5836 10.3035 15.3 8.5 15.3Z" fill="#8B75F3"/>
<path d="M8.5001 7.6499C6.8001 7.6499 6.8001 7.1144 6.8001 6.7999C6.8001 6.4854 7.3951 5.9499 8.5001 5.9499C9.6051 5.9499 9.6816 6.4939 9.6901 6.7999H11.3901C11.3786 6.22084 11.1703 5.66295 10.7996 5.21801C10.4288 4.77308 9.91759 4.46762 9.3501 4.3519V3.3999H7.6501V4.3264C5.9501 4.6069 5.1001 5.7034 5.1001 6.7999C5.1001 7.7519 5.5421 9.3499 8.5001 9.3499C10.2001 9.3499 10.2001 9.9279 10.2001 10.1999C10.2001 10.4719 9.6731 11.0499 8.5001 11.0499C6.9361 11.0499 6.8001 10.3189 6.8001 10.1999H5.1001C5.1001 10.9819 5.6611 12.3674 7.6501 12.6819V13.5999H9.3501V12.6819C11.0501 12.3929 11.9001 11.2964 11.9001 10.1999C11.9001 9.2479 11.4581 7.6499 8.5001 7.6499Z" fill="#8B75F3"/>
</svg>
