<svg width="15" height="15" viewBox="0 0 15 15" fill="none" xmlns="http://www.w3.org/2000/svg">
<path d="M13.2638 1.39701C11.7751 -0.116961 9.39074 -0.164673 7.84569 1.25407L7.84195 1.25026L5.85141 3.27443C5.50194 3.63048 5.2219 4.05058 5.02605 4.51255C4.63515 4.68361 4.27433 4.91845 3.95785 5.20778L3.9541 5.20397L1.96376 7.22814C0.426794 8.79122 0.426794 11.3256 1.96376 12.8889C3.50072 14.4522 5.99274 14.4522 7.5299 12.8889L9.52045 10.8645L9.5167 10.8607C9.80115 10.5388 10.032 10.1719 10.2001 9.77434C10.6544 9.57517 11.0674 9.29037 11.4176 8.93496L13.4081 6.91059L13.4043 6.90678C14.7992 5.33568 14.7523 2.91077 13.2638 1.39701V1.39701ZM6.18671 11.4505L6.18651 11.4507C5.41084 12.2395 4.15339 12.2395 3.37791 11.4507C2.60224 10.6618 2.60224 9.38302 3.37791 8.59436L3.37811 8.59416L4.83031 7.11728C5.005 7.80508 5.35757 8.43277 5.85141 8.93516C6.34534 9.43741 6.96247 9.79603 7.63871 9.97381L6.18671 11.4505V11.4505ZM7.26556 7.49698C6.92541 7.15138 6.72084 6.69151 6.69016 6.20353C7.16998 6.23478 7.62215 6.44282 7.962 6.78871C8.30221 7.13426 8.50679 7.59415 8.5374 8.08215C8.05759 8.05085 7.60544 7.84281 7.26556 7.49698V7.49698ZM11.9719 5.56703L11.8498 5.69112L11.8496 5.69132H11.8494L10.3969 7.1686C10.2222 6.48082 9.86973 5.85312 9.37595 5.35072C8.88188 4.84849 8.26462 4.48993 7.58825 4.31227L9.04085 2.83499L9.04104 2.83479L9.04124 2.83459L9.16326 2.7105L9.16898 2.71611C9.94938 2.04874 11.1154 2.08783 11.8498 2.83459C12.5843 3.58135 12.6228 4.76755 11.9663 5.56102L11.9719 5.56703V5.56703Z" fill="#FFF5E5"/>
</svg>
