<svg width="14" height="15" viewBox="0 0 14 15" fill="none" xmlns="http://www.w3.org/2000/svg">
<path d="M3.1066 14.5237V5.18811H0.190137V14.5237H3.1066ZM1.64875 3.91273C2.66577 3.91273 3.29882 3.19587 3.29882 2.30002C3.27987 1.38398 2.66581 0.687012 1.66805 0.687012C0.67044 0.687012 0.0180664 1.38399 0.0180664 2.30002C0.0180664 3.19591 0.650959 3.91273 1.62971 3.91273H1.64866H1.64875ZM4.72086 14.5237H7.63733V9.31026C7.63733 9.03124 7.65628 8.75251 7.73329 8.55306C7.94413 7.99559 8.42401 7.41821 9.22966 7.41821C10.285 7.41821 10.7072 8.27432 10.7072 9.5293V14.5236H13.6235V9.1707C13.6235 6.30317 12.1847 4.96894 10.2658 4.96894C8.69248 4.96894 8.00169 5.90461 7.61792 6.54188H7.63739V5.18792H4.72093C4.7592 6.06392 4.72093 14.5235 4.72093 14.5235L4.72086 14.5237Z" fill="#111111"/>
</svg>
