<svg width="34" height="45" viewBox="0 0 34 45" fill="none" xmlns="http://www.w3.org/2000/svg">
<g clip-path="url(#clip0_360_7085)">
<path d="M26.0287 21.1244C20.8759 18.7279 12.6401 18.8611 7.61942 21.3907C4.00802 23.2102 3.03911 25.7398 4.66865 27.9587C5.24118 26.938 6.29818 25.9173 7.97175 25.0741C12.9925 22.5445 21.2282 22.4114 26.3811 24.8078C27.8344 25.4735 28.8914 26.3167 29.508 27.1599C30.6091 25.0741 29.464 22.722 26.0287 21.1244Z" fill="#E7752D"/>
<path d="M4.66854 28.2693L4.49238 28.0474C3.78771 27.1155 3.56751 26.0504 3.78771 25.074C4.14004 23.6095 5.41725 22.2782 7.48719 21.2575C12.552 18.6835 20.8758 18.5948 26.0286 20.9912C28.0546 21.9232 29.3758 23.1658 29.8603 24.5415C30.1685 25.4291 30.0805 26.4054 29.596 27.293L29.5079 27.4705L29.3318 27.2486C28.6711 26.361 27.6582 25.5622 26.2489 24.9409C21.1841 22.5888 12.9924 22.6776 7.97165 25.2072C6.4302 26.006 5.28512 26.9823 4.75662 28.003L4.66854 28.2693ZM17.1763 19.5711C13.7411 19.5711 10.3058 20.2368 7.7074 21.5237C5.72554 22.5445 4.49238 23.7871 4.18409 25.1184C3.96388 25.9616 4.14004 26.8048 4.66854 27.6036C5.28512 26.5829 6.38616 25.651 7.88357 24.8965C12.9483 22.3226 21.2722 22.2338 26.425 24.6303C27.7463 25.2516 28.7592 26.006 29.4639 26.8492C29.8162 26.0948 29.8162 25.3403 29.596 24.6303C29.1556 23.3433 27.9224 22.1894 25.9406 21.2575C23.5183 20.148 20.3473 19.5711 17.1763 19.5711Z" fill="black"/>
<path d="M33.6037 34.6599L33.4276 25.7841L0.396484 25.7397L0.57265 34.9705C0.484567 37.5445 2.1141 40.0741 5.50529 41.9823C12.0234 45.6214 22.5053 45.4439 28.8913 41.5829C32.0182 39.6747 33.6037 37.2338 33.6037 34.793V34.7042C33.6037 34.7042 33.6037 34.7042 33.6037 34.6599Z" fill="#ABD1C6"/>
<path d="M16.7358 44.7782C12.6399 44.7782 8.54405 43.8907 5.41711 42.1599C2.114 40.296 0.352339 37.7664 0.396381 35.0593V34.9705L0.220215 25.5623L33.6036 25.651L33.7798 34.6599H33.6036H33.7798V34.9705C33.6917 37.5001 32.0181 39.8966 28.9793 41.7161C25.6321 43.7575 21.1839 44.7782 16.7358 44.7782ZM0.748712 34.793V34.9705C0.660629 37.5889 2.37825 40.0297 5.59327 41.8492C12.0674 45.4439 22.4611 45.2664 28.8031 41.4498C31.7979 39.6303 33.4275 37.2782 33.4275 34.8374V34.6599L33.2513 26.006L0.572546 25.8729L0.748712 34.793Z" fill="black"/>
<path d="M16.7359 44.8226C12.64 44.8226 8.54415 43.935 5.37316 42.2042C2.11409 40.3403 0.308394 37.8107 0.352435 35.0592V34.9705L0.17627 25.5178H0.396477L33.6478 25.6066L33.8239 34.6598H33.6037H33.8239V34.9705C33.7359 37.5001 32.0182 39.8965 29.0234 41.716C25.6322 43.8018 21.184 44.8226 16.7359 44.8226ZM0.79285 34.7486V34.9705C0.704767 37.5888 2.42238 39.9853 5.63741 41.8048C12.0675 45.3995 22.4612 45.222 28.8032 41.4054C31.798 39.5859 33.4276 37.2782 33.4276 34.793V34.5711L33.2514 26.006L0.616684 25.9172L0.79285 34.7486Z" fill="#373737"/>
<path d="M16.7358 45.0001C12.4197 45.0001 8.36788 44.0681 5.32902 42.3374C1.98187 40.4291 0.132124 37.8551 0.220207 35.0593V34.9705L0 25.3403H0.396373L33.7798 25.4291L34 35.1924H33.956C33.8238 37.722 32.0622 40.1184 29.0674 41.8936C25.8083 43.8906 21.4482 45.0001 16.7358 45.0001ZM0.352332 25.6954L0.528497 35.0593C0.484456 37.722 2.24611 40.2072 5.50518 42.0267C8.54404 43.7131 12.5078 44.6451 16.7798 44.6451C21.3161 44.6451 25.7642 43.5356 28.9352 41.6273C31.886 39.8522 33.5596 37.5001 33.6917 35.0149V34.8374H33.6477V34.5267H33.6917L33.4715 25.7841L0.352332 25.6954ZM16.7358 44.5563C12.6839 44.5563 8.63212 43.7131 5.50518 41.938C2.24611 40.1184 0.528497 37.6332 0.61658 34.9705V34.7486L0.440415 25.7397L33.3834 25.8285L33.5596 34.6155V34.8374C33.5596 37.367 31.886 39.7634 28.8472 41.5829C25.544 43.5356 21.1399 44.5563 16.7358 44.5563ZM0.92487 34.6155V35.0149C0.836788 37.5445 2.51036 39.9409 5.68135 41.7161C12.0674 45.3107 22.4171 45.1332 28.671 41.3167C31.5777 39.5415 33.2073 37.2782 33.2073 34.8818V34.6599L33.0311 26.2279L0.748705 26.0948L0.92487 34.6155Z" fill="black"/>
<path d="M28.4509 18.9053C21.9327 15.2662 11.4509 15.4437 5.06485 19.3047C-1.32116 23.1656 -1.23308 29.2455 5.28505 32.8846C11.8032 36.5236 22.2851 36.3461 28.6711 32.4852C35.1011 28.6242 34.969 22.5443 28.4509 18.9053Z" fill="#EDF5F3"/>
<path d="M16.5597 35.6805C12.4638 35.6805 8.36798 34.793 5.24103 33.0622C2.02601 31.2427 0.26435 28.8018 0.220309 26.1835C0.176267 23.5652 1.89388 21.08 5.02083 19.1717C11.4509 15.2663 21.9768 15.0888 28.539 18.7723C31.754 20.5474 33.5156 22.9882 33.5597 25.651C33.6037 28.2693 31.8861 30.7545 28.7592 32.6628C25.4561 34.6598 21.0079 35.6805 16.5597 35.6805ZM17.2203 16.4646C12.8602 16.4646 8.45606 17.4853 5.19699 19.4379C2.15813 21.3018 0.484558 23.6983 0.528599 26.1835C0.572641 28.6687 2.29026 31.0208 5.4172 32.7516C11.8913 36.3906 22.2851 36.1687 28.627 32.3521C31.6659 30.5326 33.2954 28.1362 33.2514 25.6066C33.2074 23.1214 31.4897 20.7693 28.3628 19.0385C25.2799 17.3078 21.2721 16.4646 17.2203 16.4646Z" fill="black"/>
<path d="M16.5595 35.7249C12.4637 35.7249 8.36783 34.8373 5.19685 33.1065C2.02586 31.287 0.220161 28.8462 0.176119 26.1834C0.132078 23.5207 1.84969 21.0355 5.02068 19.1272C11.4507 15.2219 22.0207 15.0444 28.5829 18.7278C31.7979 20.5474 33.6036 22.9882 33.6476 25.6065C33.6917 28.2692 31.974 30.7545 28.8031 32.6627C25.4559 34.7042 21.0077 35.7249 16.5595 35.7249ZM17.2202 16.5089C12.8601 16.5089 8.49995 17.5296 5.19685 19.4823C2.15798 21.3018 0.528451 23.6982 0.572492 26.1834C0.616534 28.6687 2.33415 30.9763 5.41705 32.7071C11.8471 36.3018 22.2409 36.1243 28.5829 32.3077C31.6217 30.4882 33.2513 28.0917 33.2072 25.6065C33.1632 23.1213 31.4456 20.8136 28.3626 19.0829C25.2797 17.3521 21.272 16.5089 17.2202 16.5089Z" fill="#373737"/>
<path d="M16.5597 35.9025C12.2436 35.9025 8.19178 34.9705 5.15292 33.2397C1.89386 31.4202 0.0441154 28.8906 7.39347e-05 26.1835C-0.0439675 23.4764 1.71769 20.9025 4.88868 18.9942C11.3628 15.0889 22.0208 14.9113 28.627 18.5948C31.8861 20.4143 33.7358 22.9439 33.7799 25.651C33.8239 28.3581 32.0623 30.932 28.8913 32.8403C25.6322 34.793 21.2281 35.9025 16.5597 35.9025ZM17.2203 16.2427C12.8161 16.2427 8.36795 17.2634 5.06484 19.2605C1.98194 21.1687 0.308364 23.6096 0.352406 26.1835C0.396447 28.7575 2.15811 31.1539 5.32909 32.9291C8.36795 34.6155 12.3317 35.5474 16.6037 35.5474C21.14 35.5474 25.5882 34.438 28.7591 32.5297C31.842 30.6658 33.5597 28.1806 33.5156 25.6066C33.4716 23.0326 31.7099 20.6362 28.5389 18.861C25.368 17.1303 21.3161 16.2427 17.2203 16.2427ZM16.5597 35.4587C12.5078 35.4587 8.45603 34.6155 5.32909 32.8403C2.20215 31.1096 0.440488 28.7575 0.396447 26.1835C0.352406 23.6096 2.02598 21.2131 5.10888 19.3492C8.32391 17.3965 12.64 16.3315 17.2203 16.3315C21.4483 16.3315 25.412 17.2634 28.4509 18.9498C31.5778 20.7249 33.3395 23.077 33.3835 25.651C33.4275 28.2249 31.754 30.6214 28.6711 32.4853C25.368 34.4823 20.9638 35.4587 16.5597 35.4587ZM17.2203 16.6421C12.7281 16.6421 8.41199 17.7072 5.28505 19.6155C2.33427 21.435 0.704737 23.7427 0.748779 26.1835C0.79282 28.6244 2.4664 30.8877 5.50526 32.5741C11.8913 36.1687 22.241 35.9912 28.4949 32.1747C31.4457 30.3551 33.0752 28.0474 33.0312 25.6066C32.9871 23.1658 31.3135 20.9025 28.2747 19.2161C25.3239 17.5741 21.4042 16.6421 17.2203 16.6421Z" fill="black"/>
<path d="M26.0286 21.1244C20.9198 18.7279 12.64 18.8611 7.61925 21.3907C3.43531 23.5208 2.77469 26.6273 5.68143 29.0238C6.25397 29.512 6.95863 29.9558 7.79542 30.3108C12.9483 32.7072 21.184 32.5741 26.2047 30.0445C26.9534 29.6895 27.57 29.2457 28.0985 28.8463C31.0933 26.3611 30.3887 23.1658 26.0286 21.1244Z" fill="#373737"/>
<path d="M16.6477 32.219C13.4327 32.219 10.2177 31.642 7.70732 30.4882C6.87053 30.0888 6.16587 29.645 5.54929 29.1568C4.22805 28.0474 3.61147 26.8048 3.74359 25.4734C3.91976 23.8758 5.28504 22.3669 7.53116 21.213C12.5959 18.6391 20.9198 18.5503 26.0726 20.9468C28.4508 22.0562 29.8602 23.5651 30.0363 25.1627C30.2125 26.4941 29.5519 27.8255 28.1866 28.9349C27.6581 29.3787 26.9975 29.8225 26.2488 30.1775C23.6503 31.5533 20.127 32.219 16.6477 32.219ZM17.1762 19.571C13.741 19.571 10.3058 20.2367 7.70732 21.5237C5.54929 22.6332 4.27209 24.0533 4.09592 25.5178C3.9638 26.716 4.53634 27.8698 5.7695 28.8906C6.34204 29.3787 7.0467 29.7781 7.88349 30.1775C12.9923 32.5296 21.184 32.4409 26.1607 29.9113C26.8654 29.5562 27.4819 29.1568 28.0104 28.713C29.2876 27.648 29.9042 26.4497 29.7721 25.2071C29.5959 23.6982 28.2306 22.2781 25.9845 21.2574C23.5182 20.148 20.3472 19.571 17.1762 19.571Z" fill="black"/>
<path d="M7.8147 30.1304L7.81473 30.1303L7.81003 30.1283C7.02574 29.7955 6.36105 29.3842 5.8153 28.9329C6.73728 26.5194 8.41975 24.4105 10.7797 22.9836C16.3897 19.6094 23.6963 21.45 27.0449 27.0593L27.0457 27.0605C27.374 27.5981 27.6626 28.1732 27.8758 28.7488C27.3697 29.1284 26.7901 29.5357 26.0965 29.8646L26.0965 29.8645L26.0933 29.8662C23.6086 31.118 20.3183 31.7808 17.0034 31.8305C13.6885 31.8802 10.3652 31.3166 7.8147 30.1304Z" fill="#EBCDF5" stroke="black" stroke-width="0.3"/>
<path d="M10.7339 22.8514L10.7339 22.8514L10.736 22.8502C13.4761 21.1847 16.7377 20.7027 19.8256 21.4916L19.8261 21.4917C22.9577 22.2806 25.5675 24.2525 27.2211 27.015L27.2218 27.0161C27.5101 27.4882 27.7675 27.9887 27.9701 28.5179C27.7562 28.008 27.4844 27.5052 27.2154 27.0403L27.2146 27.039C25.5644 24.2527 22.9328 22.3204 19.8568 21.5118L19.8568 21.5118L19.8544 21.5112C16.7342 20.7476 13.5225 21.1967 10.7569 22.8597L10.7563 22.8601C8.39438 24.2971 6.65376 26.3649 5.71668 28.9279L5.67904 29.0308L5.76566 29.0979C6.34803 29.5493 7.01879 29.9547 7.8214 30.3142C10.4012 31.5017 13.7495 32.0697 17.0736 32.0251C20.3978 31.9805 23.7142 31.3231 26.2286 30.045L26.2287 30.0451L26.2317 30.0435C26.8926 29.6883 27.5208 29.3273 28.0177 28.9176L28.0909 28.8573L28.0926 28.8624L28.0901 28.8645C27.5706 29.3007 26.9207 29.7373 26.1845 30.0864L26.1844 30.0864L26.1803 30.0885C23.6093 31.4058 20.1113 32.069 16.6477 32.069C13.4487 32.069 10.2567 31.4947 7.77095 30.3524C6.94745 29.9593 6.25488 29.5234 5.64939 29.0448L5.63251 29.0278L5.64681 28.9846C6.60449 26.3982 8.34376 24.2527 10.7339 22.8514Z" fill="black" stroke="black" stroke-width="0.3"/>
<path d="M11.7498 4.13818C6.76072 7.16834 5.18881 13.6419 8.1276 18.6692C11.1347 23.6965 17.5591 25.2805 22.5482 22.3192C27.5373 19.289 29.1092 12.8155 26.1704 7.78815C23.1633 2.76083 16.6706 1.17688 11.7498 4.13818Z" fill="#F9BC60"/>
<path d="M17.1491 24.1097C13.4585 24.1097 9.9046 22.2503 7.92263 18.8758C6.41906 16.3965 6.00899 13.5041 6.69243 10.6805C7.37587 7.85697 9.15282 5.51548 11.6132 4.0004C16.6707 0.901368 23.3 2.62305 26.3755 7.71924C29.451 12.8154 27.7424 19.4956 22.6849 22.5946C20.908 23.5587 19.0627 24.1097 17.1491 24.1097ZM17.0807 2.89852C15.3038 2.89852 13.4585 3.38059 11.8182 4.34474C6.96581 7.30603 5.3939 13.6418 8.33269 18.5314C11.2715 23.421 17.5591 25.0049 22.4116 22.0437C27.264 19.0824 28.8359 12.7466 25.8971 7.85697C23.9835 4.68907 20.5663 2.89852 17.0807 2.89852Z" fill="black"/>
<rect x="16" y="13" width="3" height="6" rx="1" fill="black"/>
<circle cx="17.5" cy="9.5" r="1.5" fill="black"/>
<path d="M17.1491 24.1785C16.2606 24.1785 15.3721 24.0408 14.4836 23.8342C11.6815 23.1455 9.28949 21.355 7.85427 18.8757C6.3507 16.3965 5.94063 13.4352 6.62407 10.6117C7.30751 7.78809 9.08446 5.37774 11.5448 3.93152C16.6706 0.763621 23.3684 2.48531 26.4438 7.65036C29.5193 12.8154 27.8791 19.4955 22.7533 22.5946C20.9763 23.6276 19.0627 24.1785 17.1491 24.1785ZM17.0807 2.96738C15.3038 2.96738 13.4585 3.44945 11.8866 4.41359C9.56287 5.79094 7.92261 8.06356 7.23917 10.7494C6.55573 13.4352 6.96579 16.1899 8.40102 18.5314C9.7679 20.8729 12.0233 22.5257 14.6887 23.2144C17.3541 23.9031 20.0878 23.4899 22.4115 22.0436C27.1956 19.1512 28.7675 12.8154 25.8971 7.92583C23.9835 4.75793 20.5663 2.96738 17.0807 2.96738Z" fill="#373737"/>
<path d="M17.149 24.3849C16.2605 24.3849 15.3037 24.2472 14.4152 24.0406C11.5448 23.3519 9.15276 21.4925 7.58084 18.9444C6.07728 16.3963 5.59887 13.3661 6.35065 10.4737C7.03409 7.58129 8.87938 5.17093 11.4081 3.58698C16.6706 0.419085 23.505 2.14077 26.6488 7.44356C29.7927 12.7463 28.0841 19.6331 22.8216 22.801C21.113 23.834 19.131 24.3849 17.149 24.3849ZM17.0807 2.62284C15.2354 2.62284 13.3217 3.10491 11.6815 4.13792C9.28945 5.58414 7.58084 7.92563 6.8974 10.6803C6.21396 13.435 6.62403 16.3274 8.05925 18.7378C9.49448 21.1482 11.8182 22.8699 14.5519 23.5585C17.2857 24.2472 20.1561 23.834 22.5482 22.3878C27.5373 19.3576 29.1776 12.8152 26.1704 7.78789C24.1884 4.41339 20.7029 2.62284 17.0807 2.62284ZM17.149 23.7651C16.3289 23.7651 15.4404 23.6274 14.6203 23.4208C11.8865 22.7321 9.63117 21.0104 8.19594 18.6001C6.76072 16.1897 6.35065 13.3661 7.03409 10.6115C7.71753 7.85676 9.42613 5.58414 11.8182 4.13792C13.4584 3.17378 15.3037 2.62284 17.149 2.62284C20.8396 2.62284 24.2568 4.55113 26.1021 7.71903C29.0409 12.6775 27.469 19.151 22.5482 22.1812C20.8396 23.2831 18.9943 23.7651 17.149 23.7651ZM17.0807 3.24265C15.3037 3.24265 13.5268 3.72472 11.9549 4.68886C9.69951 6.06621 8.05925 8.26996 7.44416 10.8181C6.82906 13.3662 7.17078 16.1208 8.53766 18.3935C9.90454 20.6661 12.0916 22.3189 14.6203 22.9387C17.2174 23.5585 19.8828 23.2142 22.1381 21.8368C26.8539 19.0133 28.3574 12.8152 25.5553 8.13223C23.8467 5.10207 20.5662 3.24265 17.0807 3.24265Z" fill="black"/>
</g>
<defs>
<clipPath id="clip0_360_7085">
<rect width="34" height="45" fill="white"/>
</clipPath>
</defs>
</svg>
