<svg width="134" height="31" viewBox="0 0 134 31" fill="none" xmlns="http://www.w3.org/2000/svg">
<g clip-path="url(#clip0_838_849)">
<path fill-rule="evenodd" clip-rule="evenodd" d="M0 24.7215H5.68987V16.481H8.63291L13.1456 24.7215H19.424L13.9304 15.3038C13.9696 15.3038 18.6785 13.381 18.6392 7.8481C18.6392 3.57089 15.1468 0 10.0063 0H2.31628C1.03703 0 0 1.03703 0 2.31628V9.2452C0.925757 8.43807 2.03638 7.73269 3.44723 7.22033C3.57595 7.15592 3.72321 7.10439 3.89089 7.06888C4.68499 6.81463 5.56971 6.61915 6.5631 6.49671C7.64363 6.26085 8.37406 6.09633 8.37406 6.09633L3.80355 6.01L3.22698 5.10227C3.20507 5.06889 3.19265 5.03019 3.19106 4.99029C3.18947 4.9504 3.19876 4.91082 3.21795 4.87581C3.23713 4.84079 3.26548 4.81166 3.29995 4.79152C3.33443 4.77139 3.37373 4.76101 3.41366 4.76151L13.302 4.87728C13.3056 4.8774 13.3091 4.87813 13.3126 4.87885V4.87886C13.3154 4.87942 13.3181 4.87998 13.3209 4.88026C13.3284 4.8809 13.3359 4.88196 13.3433 4.88342C13.365 4.88776 13.3859 4.8953 13.4054 4.9058L13.4138 4.90911C13.4345 4.92218 13.4528 4.93859 13.468 4.95767C13.4726 4.96329 13.4763 4.96829 13.4805 4.97465C13.4814 4.97615 13.4825 4.97759 13.4836 4.97901C13.4845 4.98022 13.4855 4.98141 13.4864 4.98259C13.4891 4.98589 13.4917 4.98918 13.4938 4.99293C13.5005 5.0066 13.5058 5.02089 13.5096 5.03559C13.51 5.03681 13.5107 5.03791 13.5114 5.03901C13.5122 5.04032 13.513 5.04164 13.5133 5.04317L13.5135 5.04562C13.5191 5.07044 13.5203 5.09605 13.517 5.12128C13.5163 5.12813 13.5151 5.13494 13.5135 5.14164C13.5089 5.16216 13.5013 5.18189 13.4911 5.20022L13.486 5.21311C13.4856 5.21452 13.485 5.21589 13.4844 5.21721L8.61769 12.7586C8.59002 12.8011 8.54851 12.8328 8.50019 12.8482C8.45187 12.8636 8.3997 12.8619 8.35252 12.8433C8.30987 12.8268 8.27342 12.7974 8.24821 12.7593L6.03535 9.03806L5.31344 9.26939C2.26593 10.4512 0.736647 12.8047 0 15.1399L0 24.7215ZM32.3857 19.0316C32.2287 19.2671 32.0325 19.4633 31.7578 19.6203C31.3262 19.9342 30.6199 20.2089 29.6388 20.2089C27.6376 20.2089 26.3426 18.8354 25.911 17.462H38.2718L38.3502 16.8734C38.3615 16.772 38.376 16.6674 38.391 16.5595C38.4281 16.2917 38.468 16.0039 38.468 15.6962C38.468 10.0063 34.5439 6.27848 29.6388 6.27848C24.5376 6.27848 20.4173 10.3987 20.4173 15.6962C20.4173 20.9937 24.5768 25.1139 29.4426 25.1139C34.1123 25.1139 36.9376 22.3671 37.8793 19.424L32.3857 19.0316ZM25.911 14.1266C26.3426 12.557 27.6376 11.1835 29.6388 11.1835C31.6401 11.1835 32.935 12.557 33.3667 14.1266H25.911ZM47.6757 25.1139C42.7706 25.1139 40.4162 22.7987 39.8276 19.2278L44.9288 18.8354C45.125 20.0519 45.9099 20.7975 47.2833 20.7975C48.6567 20.7975 49.4415 20.0127 49.4415 19.2278C49.4415 18.5496 48.2942 18.2278 46.8089 17.8112C44.0834 17.0467 40.22 15.963 40.22 11.7722C40.22 8.82911 42.8099 6.27848 47.0871 6.27848C51.7959 6.27848 54.1504 8.63291 54.739 11.7722L49.6377 12.1646C49.4415 11.3797 48.6959 10.5949 47.4795 10.5949C46.263 10.5949 45.7137 11.1835 45.7137 11.9684C45.7137 12.6649 46.8761 12.9906 48.3755 13.4106C51.0993 14.1736 54.9352 15.2481 54.9352 19.424C54.9352 22.3671 52.2276 25.1139 47.6757 25.1139ZM57.3019 31H62.5993V23.3481C62.9525 23.6228 63.3449 23.8975 63.8158 24.1329C64.6006 24.5646 65.7386 24.9177 67.112 24.9177C71.6246 24.9177 75.5487 21.0329 75.5487 15.6962C75.5487 10.3595 71.6246 6.47468 67.112 6.47468C65.5424 6.47468 64.2867 6.98481 63.3841 7.4557C62.874 7.73038 62.4031 8.08354 62.0107 8.43671L61.2259 6.67089H57.3019V31ZM66.3272 20.0127C64.1297 20.0127 62.4031 18.2468 62.4031 15.6962C62.4031 13.1456 64.1297 11.3797 66.3272 11.3797C68.5247 11.3797 70.2512 13.1456 70.2512 15.6962C70.2512 18.2468 68.5247 20.0127 66.3272 20.0127ZM86.3368 25.1139C81.2355 25.1139 77.1153 20.9937 77.1153 15.6962C77.1153 10.3987 81.2355 6.27848 86.3368 6.27848C91.438 6.27848 95.5583 10.3987 95.5583 15.6962C95.5583 20.9937 91.438 25.1139 86.3368 25.1139ZM86.3368 20.2089C88.5342 20.2089 90.2608 18.4823 90.2608 15.6962C90.2608 12.9101 88.5342 11.1835 86.3368 11.1835C84.1393 11.1835 82.4127 12.9101 82.4127 15.6962C82.4127 18.4823 84.1393 20.2089 86.3368 20.2089ZM97.9235 24.7215H103.221V15.1076C103.221 12.7532 104.555 11.3797 106.556 11.3797C108.558 11.3797 109.892 12.7532 109.892 15.1076V24.7215H115.189V14.1266C115.189 9.41772 112.207 6.47468 107.93 6.47468C106.36 6.47468 105.026 6.98481 104.084 7.4557C103.535 7.73038 103.064 8.08354 102.632 8.43671L101.847 6.67089H97.9235V24.7215ZM133.442 24.7215H129.518L128.733 22.9557C128.302 23.3089 127.792 23.662 127.242 23.9367C126.3 24.4468 125.006 24.9177 123.436 24.9177C119.512 24.9177 117.354 22.7987 117.354 19.8165C117.354 16.2456 119.904 13.7342 128.145 13.7342C128.145 11.9684 127.164 10.9873 125.79 10.9873C124.809 10.9873 124.221 11.4582 123.868 11.8899C123.671 12.1646 123.514 12.4392 123.436 12.7532L118.138 12.3608C118.766 8.78988 121.238 6.27848 125.987 6.27848C130.303 6.27848 133.442 9.41772 133.442 13.7342V24.7215ZM124.809 20.9937C126.811 20.9937 128.145 19.6595 128.145 17.6582V16.8734C123.593 16.8734 122.651 17.8544 122.651 19.2278C122.651 20.2089 123.436 20.9937 124.809 20.9937Z" fill="#251FB6"/>
</g>
<defs>
<clipPath id="clip0_838_849">
<rect width="134" height="31" fill="white"/>
</clipPath>
</defs>
</svg>
