<svg width="170" height="41" viewBox="0 0 170 41" fill="none" xmlns="http://www.w3.org/2000/svg">
<g clip-path="url(#clip0_838_834)">
<path d="M0 25.2999L3.99028 22.9828C4.72222 24.6615 5.95 25.7965 8.24028 25.7965C10.4361 25.7965 10.9792 24.9216 10.9792 24.1413C10.9792 22.8882 9.82222 22.4153 6.8 21.5641C3.77778 20.7129 0.826389 19.2705 0.826389 15.4164C0.826389 11.515 4.10833 9.2688 7.60278 9.2688C10.9083 9.2688 13.5056 10.853 14.9931 13.8322L11.0972 16.1021C10.4125 14.6598 9.44444 13.7613 7.60278 13.7613C6.1625 13.7613 5.43056 14.4943 5.43056 15.2982C5.43056 16.2204 5.92639 16.8588 9.06667 17.8046C12.1361 18.7267 15.5833 19.7907 15.5833 24.0704C15.5833 27.9718 12.4667 30.289 8.075 30.289C3.825 30.289 1.13333 28.2555 0 25.2999Z" fill="#242A34"/>
<path d="M37.2583 15.4401L32.6541 29.887H28.6166L26.3027 22.1788L24.0124 29.887H19.9749L15.3472 15.4401H19.9749L22.0291 23.1719L24.2958 15.4401H28.3333L30.5763 23.1719L32.6541 15.4401H37.2583Z" fill="#242A34"/>
<path d="M48.3792 22.6517C48.3792 20.4764 46.9389 19.1287 44.9556 19.1287C42.9722 19.1287 41.5319 20.4764 41.5319 22.6517C41.5319 24.8271 42.9722 26.1748 44.9556 26.1748C46.9389 26.1748 48.3792 24.8271 48.3792 22.6517ZM52.7 15.4401V29.887H48.3792V28.5393C47.4347 29.6269 46.0181 30.3126 44.0819 30.3126C40.3042 30.3126 37.1875 27.0024 37.1875 22.699C37.1875 18.3957 40.3042 15.0618 44.0819 15.0618C46.0181 15.0618 47.4347 15.7238 48.3792 16.8351V15.4874H52.7V15.4401Z" fill="#242A34"/>
<path d="M65.828 22.368C65.828 20.3818 64.3877 19.0104 62.3335 19.0104C60.2794 19.0104 58.8391 20.3582 58.8391 22.368C58.8391 24.3541 60.2794 25.7255 62.3335 25.7255C64.3877 25.7255 65.828 24.3541 65.828 22.368ZM70.0307 15.44V29.154C70.0307 34.0012 66.253 36.0583 62.428 36.0583C59.4293 36.0583 56.9266 34.9233 55.5807 32.5588L59.2641 30.4308C59.8071 31.4475 60.6571 32.2515 62.546 32.2515C64.5766 32.2515 65.8044 31.2111 65.8044 29.154V27.8299C64.8599 29.0121 63.4668 29.6978 61.6016 29.6978C57.5168 29.6978 54.4946 26.3403 54.4946 22.368C54.4946 18.372 57.4932 15.0381 61.6016 15.0381C63.4668 15.0381 64.8599 15.7238 65.8044 16.906V15.44H70.0307Z" fill="#242A34"/>
<path d="M86.2988 19.7671C86.2988 16.2913 84.103 14.116 80.9391 14.116H77.4682V25.4418H80.9391C84.1266 25.4418 86.2988 23.2429 86.2988 19.7671ZM90.7613 19.7671C90.7613 25.4891 86.5113 29.887 80.9627 29.887H72.8877V9.67078H80.9627C86.5113 9.67078 90.7613 14.0451 90.7613 19.7671Z" fill="#242A34"/>
<path d="M101.386 15.1564V20.0745C99.5919 19.7907 97.0655 20.5001 97.0655 23.3611V29.8871H92.7446V15.4401H97.0655V18.0174C97.6557 16.0785 99.5682 15.1564 101.386 15.1564Z" fill="#242A34"/>
<path d="M112.979 22.6517C112.979 20.5946 111.539 19.2469 109.673 19.2469C107.808 19.2469 106.368 20.5946 106.368 22.6517C106.368 24.7088 107.808 26.0565 109.673 26.0565C111.539 26.0565 112.979 24.7088 112.979 22.6517ZM102.023 22.6517C102.023 18.3484 105.423 15.0381 109.673 15.0381C113.923 15.0381 117.323 18.3484 117.323 22.6517C117.323 26.955 113.923 30.2653 109.673 30.2653C105.423 30.289 102.023 26.955 102.023 22.6517Z" fill="#242A34"/>
<path d="M130.286 22.6518C130.286 20.4765 128.846 19.1287 126.863 19.1287C124.879 19.1287 123.439 20.4765 123.439 22.6518C123.439 24.8271 124.879 26.1748 126.863 26.1748C128.846 26.1748 130.286 24.8271 130.286 22.6518ZM134.631 22.6518C134.631 26.9551 131.514 30.2654 127.736 30.2654C125.8 30.2654 124.383 29.6033 123.439 28.492V35.6327H119.118V15.4401H123.439V16.7879C124.383 15.7002 125.8 15.0145 127.736 15.0145C131.514 15.0382 134.631 18.3484 134.631 22.6518Z" fill="#242A34"/>
<path d="M160.957 8.58306C161.004 8.25203 160.886 7.921 160.65 7.7082C160.509 7.58998 160.343 7.51904 160.154 7.51904C160.083 7.51904 160.013 7.51904 159.942 7.54269C159.824 7.56633 159.682 7.7082 159.611 7.89736C159.422 8.29932 159.233 8.93773 159.021 9.67072C159.54 9.5052 160.178 9.2924 160.603 9.03231C160.815 8.93773 160.933 8.77221 160.957 8.58306Z" fill="#F37021"/>
<path d="M157.51 0H156.589C149.435 0 144.099 6.43137 144.099 14.376C144.099 22.0842 153.944 36.7912 156.471 40.669C156.518 40.7399 156.565 40.7872 156.636 40.8345C156.967 41.0946 157.415 41.0236 157.651 40.669C160.154 36.8149 170 22.0842 170 14.376C170 6.43137 164.664 0 157.51 0ZM156.447 22.8881C156.447 23.1009 156.306 23.2664 156.117 23.2664H151.772C151.135 23.2664 150.615 22.6753 150.615 21.966V16.2203C150.615 16.0075 150.757 15.842 150.946 15.842H156.117C156.306 15.842 156.447 16.0075 156.447 16.2203V22.8881ZM156.447 14.1869C156.447 14.3997 156.306 14.5652 156.117 14.5652H150.45C149.813 14.5652 149.293 13.974 149.293 13.2647V11.7751C149.293 11.0657 149.813 10.4746 150.45 10.4746H153.472C153.283 10.38 153.094 10.3091 152.906 10.2145C152.41 9.9308 152.056 9.43426 151.938 8.81949C151.796 8.01557 152.079 7.188 152.693 6.66782C153.189 6.24222 153.826 6.10035 154.417 6.2895C154.889 6.43137 155.29 6.83333 155.503 7.32987C155.857 8.11015 156.188 9.31603 156.4 10.3091C156.424 10.38 156.424 10.451 156.424 10.5219V14.1869H156.447ZM163.483 21.966C163.483 22.6753 162.964 23.2664 162.326 23.2664H157.982C157.793 23.2664 157.651 23.1009 157.651 22.8881V16.2203C157.651 16.0075 157.793 15.842 157.982 15.842H163.153C163.342 15.842 163.483 16.0075 163.483 16.2203V21.966ZM164.829 13.2647C164.829 13.974 164.31 14.5652 163.672 14.5652H158.006C157.817 14.5652 157.675 14.3997 157.675 14.1869V10.4746C157.675 10.4037 157.675 10.3328 157.699 10.2618C157.911 9.26874 158.242 8.0865 158.596 7.28258C158.808 6.78604 159.21 6.38408 159.682 6.24221C160.272 6.0767 160.91 6.19493 161.406 6.62053C162.019 7.14072 162.279 7.99193 162.161 8.7722C162.067 9.38697 161.689 9.88351 161.193 10.1672C161.028 10.2618 160.839 10.3564 160.65 10.4273H163.672C164.31 10.4273 164.829 11.0185 164.829 11.7278V13.2647Z" fill="#F37021"/>
<path d="M154.133 7.54269C154.063 7.51904 153.992 7.51904 153.921 7.51904C153.732 7.51904 153.567 7.58998 153.425 7.7082C153.189 7.921 153.071 8.25203 153.118 8.58306C153.142 8.77221 153.283 8.93773 153.449 9.03231C153.874 9.26876 154.511 9.5052 155.031 9.67072C154.842 8.93773 154.629 8.29932 154.44 7.89736C154.393 7.7082 154.252 7.58998 154.133 7.54269Z" fill="#F37021"/>
</g>
<defs>
<clipPath id="clip0_838_834">
<rect width="170" height="41" fill="white"/>
</clipPath>
</defs>
</svg>
